<svg xmlns="http://www.w3.org/2000/svg" class="marks" width="843" height="254">
    <path fill="#fff" d="M0 0h843v254H0z"/>
    <g class="mark-group role-frame root" aria-roledescription="group mark container" fill="none" stroke-miterlimit="10">
        <path class="background" aria-hidden="true" d="M185 42Z"/>
        <g class="mark-group role-scope child__Safe_Parsing_group" aria-roledescription="group mark container">
            <path class="background" aria-hidden="true" d="M185.5 42.5h200v60h-200Z" stroke="#ddd"/>
            <g class="mark-group role-axis" aria-hidden="true">
                <path class="background" aria-hidden="true" d="M185.5 102.5Z" pointer-events="none"/>
                <g class="mark-rule role-axis-grid" pointer-events="none" stroke="#ddd">
                    <path d="M185.5 102.5v-60M235.5 102.5v-60M285.5 102.5v-60M335.5 102.5v-60M385.5 102.5v-60"/>
                </g>
            </g>
            <g pointer-events="none" class="mark-group role-axis" aria-roledescription="axis" aria-label="X-axis titled 'Safe Parsing' for a linear scale with values from 0 to 40,000,000">
                <path class="background" aria-hidden="true" d="M185.5 102.5Z"/>
                <g class="mark-rule role-axis-tick" stroke="#888">
                    <path d="M185.5 102.5v5M235.5 102.5v5M285.5 102.5v5M335.5 102.5v5M385.5 102.5v5"/>
                </g>
                <g class="mark-text role-axis-label" font-family="sans-serif" font-size="10" fill="#000">
                    <text transform="translate(185.5 117.5)">0</text>
                    <text text-anchor="end" transform="translate(385.5 117.5)">40,000,000</text>
                </g>
                <path stroke="#888" d="M185.5 102.5h200" class="mark-rule role-axis-domain"/>
                <text text-anchor="middle" transform="translate(285.5 132.5)" font-family="sans-serif" font-size="11" font-weight="bold" fill="#000" class="mark-text role-axis-title">Safe Parsing</text>
            </g>
            <g pointer-events="none" class="mark-group role-axis" aria-roledescription="axis" aria-label="Y-axis for a discrete scale with 4 values: typia, spectypes, rescript-struct, (median)">
                <path class="background" aria-hidden="true" d="M185.5 42.5Z"/>
                <g class="mark-rule role-axis-tick" stroke="#888">
                    <path d="M185.5 49.5h-5M185.5 64.5h-5M185.5 79.5h-5M185.5 94.5h-5"/>
                </g>
                <g class="mark-text role-axis-label" text-anchor="end" font-family="sans-serif" font-size="10" fill="#000">
                    <text transform="translate(178.5 52.5)">typia</text>
                    <text transform="translate(178.5 67.5)">spectypes</text>
                    <text transform="translate(178.5 82.5)">rescript-struct</text>
                    <text transform="translate(178.5 97.5)">(median)</text>
                </g>
                <path stroke="#888" d="M185.5 42.5v60" class="mark-rule role-axis-domain"/>
            </g>
            <g class="mark-rect role-mark child__Safe_Parsing_marks" aria-roledescription="rect mark container">
                <path aria-label="Safe Parsing: 39706819; name: typia" aria-roledescription="bar" d="M185 42.75h198.534v13.5H185Z" fill="#eeca3b"/>
                <path aria-label="Safe Parsing: 22612789; name: spectypes" aria-roledescription="bar" d="M185 57.75h113.064v13.5H185Z" fill="#72b7b2"/>
                <path aria-label="Safe Parsing: 15089572; name: rescript-struct" aria-roledescription="bar" d="M185 72.75h75.448v13.5H185Z" fill="#e45756"/>
                <path aria-label="Safe Parsing: 1049158; name: (median)" aria-roledescription="bar" d="M185 87.75h5.246v13.5H185Z" fill="#4c78a8"/>
            </g>
        </g>
        <g class="mark-group role-scope child__Strict_Parsing_group" aria-roledescription="group mark container">
            <path class="background" aria-hidden="true" d="M582.5 42.5h200v60h-200Z" stroke="#ddd"/>
            <g class="mark-group role-axis" aria-hidden="true">
                <path class="background" aria-hidden="true" d="M582.5 102.5Z" pointer-events="none"/>
                <g class="mark-rule role-axis-grid" pointer-events="none" stroke="#ddd">
                    <path d="M582.5 102.5v-60M615.5 102.5v-60M649.5 102.5v-60M682.5 102.5v-60M715.5 102.5v-60M749.5 102.5v-60M782.5 102.5v-60"/>
                </g>
            </g>
            <g pointer-events="none" class="mark-group role-axis" aria-roledescription="axis" aria-label="X-axis titled 'Strict Parsing' for a linear scale with values from 0 to 30,000,000">
                <path class="background" aria-hidden="true" d="M582.5 102.5Z"/>
                <g class="mark-rule role-axis-tick" stroke="#888">
                    <path d="M582.5 102.5v5M615.5 102.5v5M649.5 102.5v5M682.5 102.5v5M715.5 102.5v5M749.5 102.5v5M782.5 102.5v5"/>
                </g>
                <g class="mark-text role-axis-label" font-family="sans-serif" font-size="10" fill="#000">
                    <text transform="translate(582.5 117.5)">0</text>
                    <text text-anchor="end" transform="translate(782.5 117.5)">30,000,000</text>
                </g>
                <path stroke="#888" d="M582.5 102.5h200" class="mark-rule role-axis-domain"/>
                <text text-anchor="middle" transform="translate(682.5 132.5)" font-family="sans-serif" font-size="11" font-weight="bold" fill="#000" class="mark-text role-axis-title">Strict Parsing</text>
            </g>
            <g pointer-events="none" class="mark-group role-axis" aria-roledescription="axis" aria-label="Y-axis for a discrete scale with 4 values: ts-runtime-checks, typia, spectypes, (median)">
                <path class="background" aria-hidden="true" d="M582.5 42.5Z"/>
                <g class="mark-rule role-axis-tick" stroke="#888">
                    <path d="M582.5 49.5h-5M582.5 64.5h-5M582.5 79.5h-5M582.5 94.5h-5"/>
                </g>
                <g class="mark-text role-axis-label" text-anchor="end" font-family="sans-serif" font-size="10" fill="#000">
                    <text transform="translate(575.5 52.5)">ts-runtime-checks</text>
                    <text transform="translate(575.5 67.5)">typia</text>
                    <text transform="translate(575.5 82.5)">spectypes</text>
                    <text transform="translate(575.5 97.5)">(median)</text>
                </g>
                <path stroke="#888" d="M582.5 42.5v60" class="mark-rule role-axis-domain"/>
            </g>
            <g class="mark-rect role-mark child__Strict_Parsing_marks" aria-roledescription="rect mark container">
                <path aria-label="Strict Parsing: 25013433; name: ts-runtime-checks" aria-roledescription="bar" d="M582 42.75h166.756v13.5H582Z" fill="#54a24b"/>
                <path aria-label="Strict Parsing: 28835298; name: typia" aria-roledescription="bar" d="M582 57.75h192.235v13.5H582Z" fill="#eeca3b"/>
                <path aria-label="Strict Parsing: 21773452; name: spectypes" aria-roledescription="bar" d="M582 72.75h145.156v13.5H582Z" fill="#72b7b2"/>
                <path aria-label="Strict Parsing: 856915; name: (median)" aria-roledescription="bar" d="M582 87.75h5.713v13.5H582Z" fill="#4c78a8"/>
            </g>
        </g>
        <g class="mark-group role-scope child__Loose_Assertion_group" aria-roledescription="group mark container">
            <path class="background" aria-hidden="true" d="M185.5 156.5h200v60h-200Z" stroke="#ddd"/>
            <g class="mark-group role-axis" aria-hidden="true">
                <path class="background" aria-hidden="true" d="M185.5 216.5Z" pointer-events="none"/>
                <g class="mark-rule role-axis-grid" pointer-events="none" stroke="#ddd">
                    <path d="M185.5 216.5v-60M248.5 216.5v-60M310.5 216.5v-60M373.5 216.5v-60"/>
                </g>
            </g>
            <g pointer-events="none" class="mark-group role-axis" aria-roledescription="axis" aria-label="X-axis titled 'Loose Assertion' for a linear scale with values from 0 to 160,000,000">
                <path class="background" aria-hidden="true" d="M185.5 216.5Z"/>
                <g class="mark-rule role-axis-tick" stroke="#888">
                    <path d="M185.5 216.5v5M248.5 216.5v5M310.5 216.5v5M373.5 216.5v5"/>
                </g>
                <g class="mark-text role-axis-label" font-family="sans-serif" font-size="10" fill="#000">
                    <text transform="translate(185.5 231.5)">0</text>
                    <text text-anchor="middle" transform="translate(373 231.5)">150,000,000</text>
                </g>
                <path stroke="#888" d="M185.5 216.5h200" class="mark-rule role-axis-domain"/>
                <text text-anchor="middle" transform="translate(285.5 246.5)" font-family="sans-serif" font-size="11" font-weight="bold" fill="#000" class="mark-text role-axis-title">Loose Assertion</text>
            </g>
            <g pointer-events="none" class="mark-group role-axis" aria-roledescription="axis" aria-label="Y-axis for a discrete scale with 4 values: ts-runtime-checks, typia, spectypes, (median)">
                <path class="background" aria-hidden="true" d="M185.5 156.5Z"/>
                <g class="mark-rule role-axis-tick" stroke="#888">
                    <path d="M185.5 163.5h-5M185.5 178.5h-5M185.5 193.5h-5M185.5 208.5h-5"/>
                </g>
                <g class="mark-text role-axis-label" text-anchor="end" font-family="sans-serif" font-size="10" fill="#000">
                    <text transform="translate(178.5 166.5)">ts-runtime-checks</text>
                    <text transform="translate(178.5 181.5)">typia</text>
                    <text transform="translate(178.5 196.5)">spectypes</text>
                    <text transform="translate(178.5 211.5)">(median)</text>
                </g>
                <path stroke="#888" d="M185.5 156.5v60" class="mark-rule role-axis-domain"/>
            </g>
            <g class="mark-rect role-mark child__Loose_Assertion_marks" aria-roledescription="rect mark container">
                <path aria-label="Loose Assertion: 140476054; name: ts-runtime-checks" aria-roledescription="bar" d="M185 156.75h175.595v13.5H185Z" fill="#54a24b"/>
                <path aria-label="Loose Assertion: 125719882; name: typia" aria-roledescription="bar" d="M185 171.75h157.15v13.5H185Z" fill="#eeca3b"/>
                <path aria-label="Loose Assertion: 106750784; name: spectypes" aria-roledescription="bar" d="M185 186.75h133.438v13.5H185Z" fill="#72b7b2"/>
                <path aria-label="Loose Assertion: 1197923; name: (median)" aria-roledescription="bar" d="M185 201.75h1.497v13.5H185Z" fill="#4c78a8"/>
            </g>
        </g>
        <g class="mark-group role-scope child__Strict_Assertion_group" aria-roledescription="group mark container">
            <path class="background" aria-hidden="true" d="M582.5 156.5h200v60h-200Z" stroke="#ddd"/>
            <g class="mark-group role-axis" aria-hidden="true">
                <path class="background" aria-hidden="true" d="M582.5 216.5Z" pointer-events="none"/>
                <g class="mark-rule role-axis-grid" pointer-events="none" stroke="#ddd">
                    <path d="M582.5 216.5v-60M618.5 216.5v-60M653.5 216.5v-60M689.5 216.5v-60M725.5 216.5v-60M761.5 216.5v-60"/>
                </g>
            </g>
            <g pointer-events="none" class="mark-group role-axis" aria-roledescription="axis" aria-label="X-axis titled 'Strict Assertion' for a linear scale with values from 0 to 28,000,000">
                <path class="background" aria-hidden="true" d="M582.5 216.5Z"/>
                <g class="mark-rule role-axis-tick" stroke="#888">
                    <path d="M582.5 216.5v5M618.5 216.5v5M653.5 216.5v5M689.5 216.5v5M725.5 216.5v5M761.5 216.5v5"/>
                </g>
                <g class="mark-text role-axis-label" font-family="sans-serif" font-size="10" fill="#000">
                    <text transform="translate(582.5 231.5)">0</text>
                    <text text-anchor="middle" transform="translate(761.071 231.5)">25,000,000</text>
                </g>
                <path stroke="#888" d="M582.5 216.5h200" class="mark-rule role-axis-domain"/>
                <text text-anchor="middle" transform="translate(682.5 246.5)" font-family="sans-serif" font-size="11" font-weight="bold" fill="#000" class="mark-text role-axis-title">Strict Assertion</text>
            </g>
            <g pointer-events="none" class="mark-group role-axis" aria-roledescription="axis" aria-label="Y-axis for a discrete scale with 4 values: ts-runtime-checks, typia, @sinclair/typebox, (median)">
                <path class="background" aria-hidden="true" d="M582.5 156.5Z"/>
                <g class="mark-rule role-axis-tick" stroke="#888">
                    <path d="M582.5 163.5h-5M582.5 178.5h-5M582.5 193.5h-5M582.5 208.5h-5"/>
                </g>
                <g class="mark-text role-axis-label" text-anchor="end" font-family="sans-serif" font-size="10" fill="#000">
                    <text transform="translate(575.5 166.5)">ts-runtime-checks</text>
                    <text transform="translate(575.5 181.5)">typia</text>
                    <text transform="translate(575.5 196.5)">@sinclair/typebox</text>
                    <text transform="translate(575.5 211.5)">(median)</text>
                </g>
                <path stroke="#888" d="M582.5 156.5v60" class="mark-rule role-axis-domain"/>
            </g>
            <g class="mark-rect role-mark child__Strict_Assertion_marks" aria-roledescription="rect mark container">
                <path aria-label="Strict Assertion: 25216523; name: ts-runtime-checks" aria-roledescription="bar" d="M582 156.75h180.118v13.5H582Z" fill="#54a24b"/>
                <path aria-label="Strict Assertion: 27022703; name: typia" aria-roledescription="bar" d="M582 171.75h193.02v13.5H582Z" fill="#eeca3b"/>
                <path aria-label="Strict Assertion: 27863207; name: @sinclair/typebox" aria-roledescription="bar" d="M582 186.75h199.023v13.5H582Z" fill="#f58518"/>
                <path aria-label="Strict Assertion: 808526.5; name: (median)" aria-roledescription="bar" d="M582 201.75h5.775v13.5H582Z" fill="#4c78a8"/>
            </g>
        </g>
        <g class="mark-group role-title">
            <path class="background" aria-hidden="true" d="M421.286 5Z" pointer-events="none"/>
            <text text-anchor="middle" transform="translate(421.286 18)" font-family="sans-serif" font-size="16" fill="#000" class="mark-text role-title-text" aria-roledescription="title" aria-label="Title text 'Top 3 packages for each benchmark + median, (ops count, better ⯈)'" pointer-events="none">Top 3 packages for each benchmark + median, (ops count, better ⯈)</text>
        </g>
    </g>
</svg>
