<svg xmlns="http://www.w3.org/2000/svg" class="marks" width="843" height="254">
    <path fill="#fff" d="M0 0h843v254H0z"/>
    <g class="mark-group role-frame root" aria-roledescription="group mark container" fill="none" stroke-miterlimit="10">
        <path class="background" aria-hidden="true" d="M187 42Z"/>
        <g class="mark-group role-scope child__Safe_Parsing_group" aria-roledescription="group mark container">
            <path class="background" aria-hidden="true" d="M187.5 42.5h200v60h-200Z" stroke="#ddd"/>
            <g class="mark-group role-axis" aria-hidden="true">
                <path class="background" aria-hidden="true" d="M187.5 102.5Z" pointer-events="none"/>
                <g class="mark-rule role-axis-grid" pointer-events="none" stroke="#ddd">
                    <path d="M187.5 102.5v-60M237.5 102.5v-60M287.5 102.5v-60M337.5 102.5v-60M387.5 102.5v-60"/>
                </g>
            </g>
            <g pointer-events="none" class="mark-group role-axis" aria-roledescription="axis" aria-label="X-axis titled 'Safe Parsing' for a linear scale with values from 0 to 40,000,000">
                <path class="background" aria-hidden="true" d="M187.5 102.5Z"/>
                <g class="mark-rule role-axis-tick" stroke="#888">
                    <path d="M187.5 102.5v5M237.5 102.5v5M287.5 102.5v5M337.5 102.5v5M387.5 102.5v5"/>
                </g>
                <g class="mark-text role-axis-label" font-family="sans-serif" font-size="10" fill="#000">
                    <text transform="translate(187.5 117.5)">0</text>
                    <text text-anchor="end" transform="translate(387.5 117.5)">40,000,000</text>
                </g>
                <path stroke="#888" d="M187.5 102.5h200" class="mark-rule role-axis-domain"/>
                <text text-anchor="middle" transform="translate(287.5 132.5)" font-family="sans-serif" font-size="11" font-weight="bold" fill="#000" class="mark-text role-axis-title">Safe Parsing</text>
            </g>
            <g pointer-events="none" class="mark-group role-axis" aria-roledescription="axis" aria-label="Y-axis for a discrete scale with 4 values: typia, spectypes, rescript-struct, (median)">
                <path class="background" aria-hidden="true" d="M187.5 42.5Z"/>
                <g class="mark-rule role-axis-tick" stroke="#888">
                    <path d="M187.5 49.5h-5M187.5 64.5h-5M187.5 79.5h-5M187.5 94.5h-5"/>
                </g>
                <g class="mark-text role-axis-label" text-anchor="end" font-family="sans-serif" font-size="10" fill="#000">
                    <text transform="translate(180.5 52.5)">typia</text>
                    <text transform="translate(180.5 67.5)">spectypes</text>
                    <text transform="translate(180.5 82.5)">rescript-struct</text>
                    <text transform="translate(180.5 97.5)">(median)</text>
                </g>
                <path stroke="#888" d="M187.5 42.5v60" class="mark-rule role-axis-domain"/>
            </g>
            <g class="mark-rect role-mark child__Safe_Parsing_marks" aria-roledescription="rect mark container">
                <path aria-label="Safe Parsing: 28346787; name: typia" aria-roledescription="bar" d="M187 42.75h141.734v13.5H187Z" fill="#eeca3b"/>
                <path aria-label="Safe Parsing: 15503928; name: spectypes" aria-roledescription="bar" d="M187 57.75h77.52v13.5H187Z" fill="#72b7b2"/>
                <path aria-label="Safe Parsing: 39462569; name: rescript-struct" aria-roledescription="bar" d="M187 72.75h197.313v13.5H187Z" fill="#e45756"/>
                <path aria-label="Safe Parsing: 731992; name: (median)" aria-roledescription="bar" d="M187 87.75h3.66v13.5H187Z" fill="#4c78a8"/>
            </g>
        </g>
        <g class="mark-group role-scope child__Strict_Parsing_group" aria-roledescription="group mark container">
            <path class="background" aria-hidden="true" d="M578.5 42.5h200v60h-200Z" stroke="#ddd"/>
            <g class="mark-group role-axis" aria-hidden="true">
                <path class="background" aria-hidden="true" d="M578.5 102.5Z" pointer-events="none"/>
                <g class="mark-rule role-axis-grid" pointer-events="none" stroke="#ddd">
                    <path d="M578.5 102.5v-60M623.5 102.5v-60M669.5 102.5v-60M714.5 102.5v-60M760.5 102.5v-60"/>
                </g>
            </g>
            <g pointer-events="none" class="mark-group role-axis" aria-roledescription="axis" aria-label="X-axis titled 'Strict Parsing' for a linear scale with values from 0 to 22,000,000">
                <path class="background" aria-hidden="true" d="M578.5 102.5Z"/>
                <g class="mark-rule role-axis-tick" stroke="#888">
                    <path d="M578.5 102.5v5M623.5 102.5v5M669.5 102.5v5M714.5 102.5v5M760.5 102.5v5"/>
                </g>
                <g class="mark-text role-axis-label" font-family="sans-serif" font-size="10" fill="#000">
                    <text transform="translate(578.5 117.5)">0</text>
                    <text text-anchor="middle" transform="translate(669.41 117.5)">10,000,000</text>
                    <text text-anchor="middle" transform="translate(760.318 117.5)">20,000,000</text>
                </g>
                <path stroke="#888" d="M578.5 102.5h200" class="mark-rule role-axis-domain"/>
                <text text-anchor="middle" transform="translate(678.5 132.5)" font-family="sans-serif" font-size="11" font-weight="bold" fill="#000" class="mark-text role-axis-title">Strict Parsing</text>
            </g>
            <g pointer-events="none" class="mark-group role-axis" aria-roledescription="axis" aria-label="Y-axis for a discrete scale with 4 values: ts-runtime-checks, typia, spectypes, (median)">
                <path class="background" aria-hidden="true" d="M578.5 42.5Z"/>
                <g class="mark-rule role-axis-tick" stroke="#888">
                    <path d="M578.5 49.5h-5M578.5 64.5h-5M578.5 79.5h-5M578.5 94.5h-5"/>
                </g>
                <g class="mark-text role-axis-label" text-anchor="end" font-family="sans-serif" font-size="10" fill="#000">
                    <text transform="translate(571.5 52.5)">ts-runtime-checks</text>
                    <text transform="translate(571.5 67.5)">typia</text>
                    <text transform="translate(571.5 82.5)">spectypes</text>
                    <text transform="translate(571.5 97.5)">(median)</text>
                </g>
                <path stroke="#888" d="M578.5 42.5v60" class="mark-rule role-axis-domain"/>
            </g>
            <g class="mark-rect role-mark child__Strict_Parsing_marks" aria-roledescription="rect mark container">
                <path aria-label="Strict Parsing: 18424232; name: ts-runtime-checks" aria-roledescription="bar" d="M578 42.75h167.493v13.5H578Z" fill="#54a24b"/>
                <path aria-label="Strict Parsing: 20479079; name: typia" aria-roledescription="bar" d="M578 57.75h186.173v13.5H578Z" fill="#eeca3b"/>
                <path aria-label="Strict Parsing: 15744241; name: spectypes" aria-roledescription="bar" d="M578 72.75h143.13v13.5H578Z" fill="#72b7b2"/>
                <path aria-label="Strict Parsing: 660623; name: (median)" aria-roledescription="bar" d="M578 87.75h6.006v13.5H578Z" fill="#4c78a8"/>
            </g>
        </g>
        <g class="mark-group role-scope child__Loose_Assertion_group" aria-roledescription="group mark container">
            <path class="background" aria-hidden="true" d="M187.5 156.5h200v60h-200Z" stroke="#ddd"/>
            <g class="mark-group role-axis" aria-hidden="true">
                <path class="background" aria-hidden="true" d="M187.5 216.5Z" pointer-events="none"/>
                <g class="mark-rule role-axis-grid" pointer-events="none" stroke="#ddd">
                    <path d="M187.5 216.5v-60M223.5 216.5v-60M260.5 216.5v-60M296.5 216.5v-60M332.5 216.5v-60M369.5 216.5v-60"/>
                </g>
            </g>
            <g pointer-events="none" class="mark-group role-axis" aria-roledescription="axis" aria-label="X-axis titled 'Loose Assertion' for a linear scale with values from 0 to 110,000,000">
                <path class="background" aria-hidden="true" d="M187.5 216.5Z"/>
                <g class="mark-rule role-axis-tick" stroke="#888">
                    <path d="M187.5 216.5v5M223.5 216.5v5M260.5 216.5v5M296.5 216.5v5M332.5 216.5v5M369.5 216.5v5"/>
                </g>
                <g class="mark-text role-axis-label" font-family="sans-serif" font-size="10" fill="#000">
                    <text transform="translate(187.5 231.5)">0</text>
                    <text text-anchor="middle" transform="translate(369.318 231.5)">100,000,000</text>
                </g>
                <path stroke="#888" d="M187.5 216.5h200" class="mark-rule role-axis-domain"/>
                <text text-anchor="middle" transform="translate(287.5 246.5)" font-family="sans-serif" font-size="11" font-weight="bold" fill="#000" class="mark-text role-axis-title">Loose Assertion</text>
            </g>
            <g pointer-events="none" class="mark-group role-axis" aria-roledescription="axis" aria-label="Y-axis for a discrete scale with 4 values: ts-runtime-checks, typia, spectypes, (median)">
                <path class="background" aria-hidden="true" d="M187.5 156.5Z"/>
                <g class="mark-rule role-axis-tick" stroke="#888">
                    <path d="M187.5 163.5h-5M187.5 178.5h-5M187.5 193.5h-5M187.5 208.5h-5"/>
                </g>
                <g class="mark-text role-axis-label" text-anchor="end" font-family="sans-serif" font-size="10" fill="#000">
                    <text transform="translate(180.5 166.5)">ts-runtime-checks</text>
                    <text transform="translate(180.5 181.5)">typia</text>
                    <text transform="translate(180.5 196.5)">spectypes</text>
                    <text transform="translate(180.5 211.5)">(median)</text>
                </g>
                <path stroke="#888" d="M187.5 156.5v60" class="mark-rule role-axis-domain"/>
            </g>
            <g class="mark-rect role-mark child__Loose_Assertion_marks" aria-roledescription="rect mark container">
                <path aria-label="Loose Assertion: 103940596; name: ts-runtime-checks" aria-roledescription="bar" d="M187 156.75h188.983v13.5H187Z" fill="#54a24b"/>
                <path aria-label="Loose Assertion: 91741324; name: typia" aria-roledescription="bar" d="M187 171.75h166.802v13.5H187Z" fill="#eeca3b"/>
                <path aria-label="Loose Assertion: 78022685; name: spectypes" aria-roledescription="bar" d="M187 186.75h141.86v13.5H187Z" fill="#72b7b2"/>
                <path aria-label="Loose Assertion: 876255; name: (median)" aria-roledescription="bar" d="M187 201.75h1.593v13.5H187Z" fill="#4c78a8"/>
            </g>
        </g>
        <g class="mark-group role-scope child__Strict_Assertion_group" aria-roledescription="group mark container">
            <path class="background" aria-hidden="true" d="M578.5 156.5h200v60h-200Z" stroke="#ddd"/>
            <g class="mark-group role-axis" aria-hidden="true">
                <path class="background" aria-hidden="true" d="M578.5 216.5Z" pointer-events="none"/>
                <g class="mark-rule role-axis-grid" pointer-events="none" stroke="#ddd">
                    <path d="M578.5 216.5v-60M628.5 216.5v-60M678.5 216.5v-60M728.5 216.5v-60M778.5 216.5v-60"/>
                </g>
            </g>
            <g pointer-events="none" class="mark-group role-axis" aria-roledescription="axis" aria-label="X-axis titled 'Strict Assertion' for a linear scale with values from 0 to 20,000,000">
                <path class="background" aria-hidden="true" d="M578.5 216.5Z"/>
                <g class="mark-rule role-axis-tick" stroke="#888">
                    <path d="M578.5 216.5v5M628.5 216.5v5M678.5 216.5v5M728.5 216.5v5M778.5 216.5v5"/>
                </g>
                <g class="mark-text role-axis-label" font-family="sans-serif" font-size="10" fill="#000">
                    <text transform="translate(578.5 231.5)">0</text>
                    <text text-anchor="end" transform="translate(778.5 231.5)">20,000,000</text>
                </g>
                <path stroke="#888" d="M578.5 216.5h200" class="mark-rule role-axis-domain"/>
                <text text-anchor="middle" transform="translate(678.5 246.5)" font-family="sans-serif" font-size="11" font-weight="bold" fill="#000" class="mark-text role-axis-title">Strict Assertion</text>
            </g>
            <g pointer-events="none" class="mark-group role-axis" aria-roledescription="axis" aria-label="Y-axis for a discrete scale with 4 values: ts-runtime-checks, typia, @sinclair/typebox, (median)">
                <path class="background" aria-hidden="true" d="M578.5 156.5Z"/>
                <g class="mark-rule role-axis-tick" stroke="#888">
                    <path d="M578.5 163.5h-5M578.5 178.5h-5M578.5 193.5h-5M578.5 208.5h-5"/>
                </g>
                <g class="mark-text role-axis-label" text-anchor="end" font-family="sans-serif" font-size="10" fill="#000">
                    <text transform="translate(571.5 166.5)">ts-runtime-checks</text>
                    <text transform="translate(571.5 181.5)">typia</text>
                    <text transform="translate(571.5 196.5)">@sinclair/typebox</text>
                    <text transform="translate(571.5 211.5)">(median)</text>
                </g>
                <path stroke="#888" d="M578.5 156.5v60" class="mark-rule role-axis-domain"/>
            </g>
            <g class="mark-rect role-mark child__Strict_Assertion_marks" aria-roledescription="rect mark container">
                <path aria-label="Strict Assertion: 18441687; name: ts-runtime-checks" aria-roledescription="bar" d="M578 156.75h184.417v13.5H578Z" fill="#54a24b"/>
                <path aria-label="Strict Assertion: 19348251; name: typia" aria-roledescription="bar" d="M578 171.75h193.483v13.5H578Z" fill="#eeca3b"/>
                <path aria-label="Strict Assertion: 19016883; name: @sinclair/typebox" aria-roledescription="bar" d="M578 186.75h190.169v13.5H578Z" fill="#f58518"/>
                <path aria-label="Strict Assertion: 575733.5; name: (median)" aria-roledescription="bar" d="M578 201.75h5.757v13.5H578Z" fill="#4c78a8"/>
            </g>
        </g>
        <g class="mark-group role-title">
            <path class="background" aria-hidden="true" d="M421.91 5Z" pointer-events="none"/>
            <text text-anchor="middle" transform="translate(421.91 18)" font-family="sans-serif" font-size="16" fill="#000" class="mark-text role-title-text" aria-roledescription="title" aria-label="Title text 'Top 3 packages for each benchmark + median, (ops count, better ⯈)'" pointer-events="none">Top 3 packages for each benchmark + median, (ops count, better ⯈)</text>
        </g>
    </g>
</svg>
