<svg xmlns="http://www.w3.org/2000/svg" class="marks" width="780" height="254">
    <path fill="#fff" d="M0 0h780v254H0z"/>
    <g class="mark-group role-frame root" aria-roledescription="group mark container" fill="none" stroke-miterlimit="10">
        <path class="background" aria-hidden="true" d="M189 42Z"/>
        <g class="mark-group role-scope child__Safe_Parsing_group" aria-roledescription="group mark container">
            <path class="background" aria-hidden="true" d="M189.5 42.5h200v60h-200Z" stroke="#ddd"/>
            <g class="mark-group role-axis" aria-roledescription="axis" aria-label="X-axis for a linear scale with values from 0 to 2,000,000">
                <path class="background" aria-hidden="true" d="M189.5 102.5Z" pointer-events="none"/>
                <g class="mark-rule role-axis-grid" pointer-events="none" stroke="#ddd">
                    <path d="M189.5 102.5v-60M239.5 102.5v-60M289.5 102.5v-60M339.5 102.5v-60M389.5 102.5v-60"/>
                </g>
            </g>
            <g pointer-events="none" class="mark-group role-axis" aria-roledescription="axis" aria-label="X-axis titled 'Safe Parsing' for a linear scale with values from 0 to 2,000,000">
                <path class="background" aria-hidden="true" d="M189.5 102.5Z"/>
                <g class="mark-rule role-axis-tick" stroke="#888">
                    <path d="M189.5 102.5v5M239.5 102.5v5M289.5 102.5v5M339.5 102.5v5M389.5 102.5v5"/>
                </g>
                <g class="mark-text role-axis-label" font-family="sans-serif" font-size="10" fill="#000">
                    <text transform="translate(189.5 117.5)">0</text>
                    <text text-anchor="end" transform="translate(389.5 117.5)">2,000,000</text>
                </g>
                <path stroke="#888" d="M189.5 102.5h200" class="mark-rule role-axis-domain"/>
                <text text-anchor="middle" transform="translate(289.5 132.5)" font-family="sans-serif" font-size="11" font-weight="bold" fill="#000" class="mark-text role-axis-title">Safe Parsing</text>
            </g>
            <g pointer-events="none" class="mark-group role-axis" aria-roledescription="axis" aria-label="Y-axis for a discrete scale with 4 values: ... rest, @mojotech/json-type-validation, simple-runtypes, valita">
                <path class="background" aria-hidden="true" d="M189.5 42.5Z"/>
                <g class="mark-rule role-axis-tick" stroke="#888">
                    <path d="M189.5 49.5h-5M189.5 64.5h-5M189.5 79.5h-5M189.5 94.5h-5"/>
                </g>
                <g class="mark-text role-axis-label" text-anchor="end" font-family="sans-serif" font-size="10" fill="#000">
                    <text transform="translate(182.5 52.5)">... rest</text>
                    <text transform="translate(182.5 67.5)">@mojotech/json-type-v…</text>
                    <text transform="translate(182.5 82.5)">simple-runtypes</text>
                    <text transform="translate(182.5 97.5)">valita</text>
                </g>
                <path stroke="#888" d="M189.5 42.5v60" class="mark-rule role-axis-domain"/>
            </g>
            <g class="mark-rect role-mark child__Safe_Parsing_marks" aria-roledescription="rect mark container">
                <path d="M189 87.75h199.762v13.5H189Z" fill="#ff9da6"/>
                <path d="M189 72.75h104.903v13.5H189Z" fill="#54a24b"/>
                <path d="M189 57.75h100.247v13.5H189Z" fill="#f58518"/>
                <path d="M189 42.75h34.159v13.5H189Z" fill="#4c78a8"/>
            </g>
        </g>
        <g class="mark-group role-scope child__Strict_Parsing_group" aria-roledescription="group mark container">
            <path class="background" aria-hidden="true" d="M556.5 42.5h200v60h-200Z" stroke="#ddd"/>
            <g class="mark-group role-axis" aria-roledescription="axis" aria-label="X-axis for a linear scale with values from 0 to 2,000,000">
                <path class="background" aria-hidden="true" d="M556.5 102.5Z" pointer-events="none"/>
                <g class="mark-rule role-axis-grid" pointer-events="none" stroke="#ddd">
                    <path d="M556.5 102.5v-60M606.5 102.5v-60M656.5 102.5v-60M706.5 102.5v-60M756.5 102.5v-60"/>
                </g>
            </g>
            <g pointer-events="none" class="mark-group role-axis" aria-roledescription="axis" aria-label="X-axis titled 'Strict Parsing' for a linear scale with values from 0 to 2,000,000">
                <path class="background" aria-hidden="true" d="M556.5 102.5Z"/>
                <g class="mark-rule role-axis-tick" stroke="#888">
                    <path d="M556.5 102.5v5M606.5 102.5v5M656.5 102.5v5M706.5 102.5v5M756.5 102.5v5"/>
                </g>
                <g class="mark-text role-axis-label" font-family="sans-serif" font-size="10" fill="#000">
                    <text transform="translate(556.5 117.5)">0</text>
                    <text text-anchor="end" transform="translate(756.5 117.5)">2,000,000</text>
                </g>
                <path stroke="#888" d="M556.5 102.5h200" class="mark-rule role-axis-domain"/>
                <text text-anchor="middle" transform="translate(656.5 132.5)" font-family="sans-serif" font-size="11" font-weight="bold" fill="#000" class="mark-text role-axis-title">Strict Parsing</text>
            </g>
            <g pointer-events="none" class="mark-group role-axis" aria-roledescription="axis" aria-label="Y-axis for a discrete scale with 4 values: ... rest, myzod, simple-runtypes, valita">
                <path class="background" aria-hidden="true" d="M556.5 42.5Z"/>
                <g class="mark-rule role-axis-tick" stroke="#888">
                    <path d="M556.5 49.5h-5M556.5 64.5h-5M556.5 79.5h-5M556.5 94.5h-5"/>
                </g>
                <g class="mark-text role-axis-label" text-anchor="end" font-family="sans-serif" font-size="10" fill="#000">
                    <text transform="translate(549.5 52.5)">... rest</text>
                    <text transform="translate(549.5 67.5)">myzod</text>
                    <text transform="translate(549.5 82.5)">simple-runtypes</text>
                    <text transform="translate(549.5 97.5)">valita</text>
                </g>
                <path stroke="#888" d="M556.5 42.5v60" class="mark-rule role-axis-domain"/>
            </g>
            <g class="mark-rect role-mark child__Strict_Parsing_marks" aria-roledescription="rect mark container">
                <path d="M556 87.75h199.18v13.5H556Z" fill="#ff9da6"/>
                <path d="M556 72.75h128.067v13.5H556Z" fill="#54a24b"/>
                <path d="M556 57.75h109.259v13.5H556Z" fill="#72b7b2"/>
                <path d="M556 42.75h41.611v13.5H556Z" fill="#4c78a8"/>
            </g>
        </g>
        <g class="mark-group role-scope child__Loose_Assertion_group" aria-roledescription="group mark container">
            <path class="background" aria-hidden="true" d="M189.5 156.5h200v60h-200Z" stroke="#ddd"/>
            <g class="mark-group role-axis" aria-roledescription="axis" aria-label="X-axis for a linear scale with values from 0 to 18,000,000">
                <path class="background" aria-hidden="true" d="M189.5 216.5Z" pointer-events="none"/>
                <g class="mark-rule role-axis-grid" pointer-events="none" stroke="#ddd">
                    <path d="M189.5 216.5v-60M245.5 216.5v-60M300.5 216.5v-60M356.5 216.5v-60"/>
                </g>
            </g>
            <g pointer-events="none" class="mark-group role-axis" aria-roledescription="axis" aria-label="X-axis titled 'Loose Assertion' for a linear scale with values from 0 to 18,000,000">
                <path class="background" aria-hidden="true" d="M189.5 216.5Z"/>
                <g class="mark-rule role-axis-tick" stroke="#888">
                    <path d="M189.5 216.5v5M245.5 216.5v5M300.5 216.5v5M356.5 216.5v5"/>
                </g>
                <g class="mark-text role-axis-label" font-family="sans-serif" font-size="10" fill="#000">
                    <text transform="translate(189.5 231.5)">0</text>
                    <text text-anchor="middle" transform="translate(356.167 231.5)">15,000,000</text>
                </g>
                <path stroke="#888" d="M189.5 216.5h200" class="mark-rule role-axis-domain"/>
                <text text-anchor="middle" transform="translate(289.5 246.5)" font-family="sans-serif" font-size="11" font-weight="bold" fill="#000" class="mark-text role-axis-title">Loose Assertion</text>
            </g>
            <g pointer-events="none" class="mark-group role-axis" aria-roledescription="axis" aria-label="Y-axis for a discrete scale with 4 values: ... rest, marshal, suretype, ts-json-validator">
                <path class="background" aria-hidden="true" d="M189.5 156.5Z"/>
                <g class="mark-rule role-axis-tick" stroke="#888">
                    <path d="M189.5 163.5h-5M189.5 178.5h-5M189.5 193.5h-5M189.5 208.5h-5"/>
                </g>
                <g class="mark-text role-axis-label" text-anchor="end" font-family="sans-serif" font-size="10" fill="#000">
                    <text transform="translate(182.5 166.5)">... rest</text>
                    <text transform="translate(182.5 181.5)">marshal</text>
                    <text transform="translate(182.5 196.5)">suretype</text>
                    <text transform="translate(182.5 211.5)">ts-json-validator</text>
                </g>
                <path stroke="#888" d="M189.5 156.5v60" class="mark-rule role-axis-domain"/>
            </g>
            <g class="mark-rect role-mark child__Loose_Assertion_marks" aria-roledescription="rect mark container">
                <path d="M189 171.75h185.812v13.5H189Z" fill="#e45756"/>
                <path d="M189 201.75h184.059v13.5H189Z" fill="#b279a2"/>
                <path d="M189 186.75h178.634v13.5H189Z" fill="#eeca3b"/>
                <path d="M189 156.75h3.607v13.5H189Z" fill="#4c78a8"/>
            </g>
        </g>
        <g class="mark-group role-scope child__Strict_Assertion_group" aria-roledescription="group mark container">
            <path class="background" aria-hidden="true" d="M556.5 156.5h200v60h-200Z" stroke="#ddd"/>
            <g class="mark-group role-axis" aria-roledescription="axis" aria-label="X-axis for a linear scale with values from 0 to 2,200,000">
                <path class="background" aria-hidden="true" d="M556.5 216.5Z" pointer-events="none"/>
                <g class="mark-rule role-axis-grid" pointer-events="none" stroke="#ddd">
                    <path d="M556.5 216.5v-60M601.5 216.5v-60M647.5 216.5v-60M692.5 216.5v-60M738.5 216.5v-60"/>
                </g>
            </g>
            <g pointer-events="none" class="mark-group role-axis" aria-roledescription="axis" aria-label="X-axis titled 'Strict Assertion' for a linear scale with values from 0 to 2,200,000">
                <path class="background" aria-hidden="true" d="M556.5 216.5Z"/>
                <g class="mark-rule role-axis-tick" stroke="#888">
                    <path d="M556.5 216.5v5M601.5 216.5v5M647.5 216.5v5M692.5 216.5v5M738.5 216.5v5"/>
                </g>
                <g class="mark-text role-axis-label" font-family="sans-serif" font-size="10" fill="#000">
                    <text transform="translate(556.5 231.5)">0</text>
                    <text text-anchor="middle" transform="translate(647.41 231.5)">1,000,000</text>
                    <text text-anchor="middle" transform="translate(738.318 231.5)">2,000,000</text>
                </g>
                <path stroke="#888" d="M556.5 216.5h200" class="mark-rule role-axis-domain"/>
                <text text-anchor="middle" transform="translate(656.5 246.5)" font-family="sans-serif" font-size="11" font-weight="bold" fill="#000" class="mark-text role-axis-title">Strict Assertion</text>
            </g>
            <g pointer-events="none" class="mark-group role-axis" aria-roledescription="axis" aria-label="Y-axis for a discrete scale with 4 values: ... rest, myzod, simple-runtypes, valita">
                <path class="background" aria-hidden="true" d="M556.5 156.5Z"/>
                <g class="mark-rule role-axis-tick" stroke="#888">
                    <path d="M556.5 163.5h-5M556.5 178.5h-5M556.5 193.5h-5M556.5 208.5h-5"/>
                </g>
                <g class="mark-text role-axis-label" text-anchor="end" font-family="sans-serif" font-size="10" fill="#000">
                    <text transform="translate(549.5 166.5)">... rest</text>
                    <text transform="translate(549.5 181.5)">myzod</text>
                    <text transform="translate(549.5 196.5)">simple-runtypes</text>
                    <text transform="translate(549.5 211.5)">valita</text>
                </g>
                <path stroke="#888" d="M556.5 156.5v60" class="mark-rule role-axis-domain"/>
            </g>
            <g class="mark-rect role-mark child__Strict_Assertion_marks" aria-roledescription="rect mark container">
                <path d="M556 201.75h183.937v13.5H556Z" fill="#ff9da6"/>
                <path d="M556 186.75h119.724v13.5H556Z" fill="#54a24b"/>
                <path d="M556 171.75h98.583v13.5H556Z" fill="#72b7b2"/>
                <path d="M556 156.75h29.096v13.5H556Z" fill="#4c78a8"/>
            </g>
        </g>
        <g class="mark-group role-title">
            <path class="background" aria-hidden="true" d="M389.91 5Z" pointer-events="none"/>
            <text text-anchor="middle" transform="translate(389.91 18)" font-family="sans-serif" font-size="16" fill="#000" class="mark-text role-title-text" aria-roledescription="title" aria-label="Title text 'Top 3 packages for each benchmark'" pointer-events="none">Top 3 packages for each benchmark</text>
        </g>
    </g>
</svg>
