<svg xmlns="http://www.w3.org/2000/svg" width="844" height="254" class="marks">
    <path fill="#fff" d="M0 0h844v254H0z"/>
    <g fill="none" stroke-miterlimit="10" aria-roledescription="group mark container" class="mark-group role-frame root">
        <path d="M189 42" aria-hidden="true" class="background"/>
        <g aria-roledescription="group mark container" class="mark-group role-scope child__Safe_Parsing_group">
            <path stroke="#ddd" d="M189.5 42.5h200v60h-200Z" aria-hidden="true" class="background"/>
            <g aria-hidden="true" class="mark-group role-axis">
                <path d="M189.5 102.5" aria-hidden="true" class="background" pointer-events="none"/>
                <g stroke="#ddd" class="mark-rule role-axis-grid" pointer-events="none">
                    <path d="M189.5 102.5v-60M245.5 102.5v-60M300.5 102.5v-60M356.5 102.5v-60"/>
                </g>
            </g>
            <g aria-label="X-axis titled 'Safe Parsing' for a linear scale with values from 0 to 180,000,000" aria-roledescription="axis" class="mark-group role-axis" pointer-events="none">
                <path d="M189.5 102.5" aria-hidden="true" class="background"/>
                <g stroke="#888" class="mark-rule role-axis-tick">
                    <path d="M189.5 102.5v5M245.5 102.5v5M300.5 102.5v5M356.5 102.5v5"/>
                </g>
                <g fill="#000" class="mark-text role-axis-label" font-family="sans-serif" font-size="10">
                    <text transform="translate(189.5 117.5)">0</text>
                    <text text-anchor="middle" transform="translate(356.167 117.5)">150,000,000</text>
                </g>
                <path stroke="#888" d="M189.5 102.5h200" class="mark-rule role-axis-domain"/>
                <text fill="#000" class="mark-text role-axis-title" font-family="sans-serif" font-size="11" font-weight="bold" text-anchor="middle" transform="translate(289.5 132.5)">Safe Parsing</text>
            </g>
            <g aria-label="Y-axis for a discrete scale with 4 values: typia, @sx3/gate, rescript-schema, (median)" aria-roledescription="axis" class="mark-group role-axis" pointer-events="none">
                <path d="M189.5 42.5" aria-hidden="true" class="background"/>
                <g stroke="#888" class="mark-rule role-axis-tick">
                    <path d="M189.5 49.5h-5M189.5 64.5h-5M189.5 79.5h-5M189.5 94.5h-5"/>
                </g>
                <g fill="#000" class="mark-text role-axis-label" font-family="sans-serif" font-size="10" text-anchor="end">
                    <text transform="translate(182.5 52.5)">typia</text>
                    <text transform="translate(182.5 67.5)">@sx3/gate</text>
                    <text transform="translate(182.5 82.5)">rescript-schema</text>
                    <text transform="translate(182.5 97.5)">(median)</text>
                </g>
                <path stroke="#888" d="M189.5 42.5v60" class="mark-rule role-axis-domain"/>
            </g>
            <g aria-roledescription="rect mark container" class="mark-rect role-mark child__Safe_Parsing_marks">
                <path fill="#9d755d" d="M189 42.75h193.518v13.5H189Z" aria-label="Safe Parsing: 174165836; name: typia" aria-roledescription="bar"/>
                <path fill="#54a24b" d="M189 57.75h157.792v13.5H189Z" aria-label="Safe Parsing: 142012606; name: @sx3/gate" aria-roledescription="bar"/>
                <path fill="#eeca3b" d="M189 72.75h157.49v13.5H189Z" aria-label="Safe Parsing: 141741659; name: rescript-schema" aria-roledescription="bar"/>
                <path fill="#4c78a8" d="M189 87.75h2.888v13.5H189Z" aria-label="Safe Parsing: 2599276; name: (median)" aria-roledescription="bar"/>
            </g>
        </g>
        <g aria-roledescription="group mark container" class="mark-group role-scope child__Strict_Parsing_group">
            <path stroke="#ddd" d="M616.5 42.5h200v60h-200Z" aria-hidden="true" class="background"/>
            <g aria-hidden="true" class="mark-group role-axis">
                <path d="M616.5 102.5" aria-hidden="true" class="background" pointer-events="none"/>
                <g stroke="#ddd" class="mark-rule role-axis-grid" pointer-events="none">
                    <path d="M616.5 102.5v-60M652.5 102.5v-60M689.5 102.5v-60M725.5 102.5v-60M761.5 102.5v-60M798.5 102.5v-60"/>
                </g>
            </g>
            <g aria-label="X-axis titled 'Strict Parsing' for a linear scale with values from 0 to 55,000,000" aria-roledescription="axis" class="mark-group role-axis" pointer-events="none">
                <path d="M616.5 102.5" aria-hidden="true" class="background"/>
                <g stroke="#888" class="mark-rule role-axis-tick">
                    <path d="M616.5 102.5v5M652.5 102.5v5M689.5 102.5v5M725.5 102.5v5M761.5 102.5v5M798.5 102.5v5"/>
                </g>
                <g fill="#000" class="mark-text role-axis-label" font-family="sans-serif" font-size="10">
                    <text transform="translate(616.5 117.5)">0</text>
                    <text text-anchor="middle" transform="translate(798.318 117.5)">50,000,000</text>
                </g>
                <path stroke="#888" d="M616.5 102.5h200" class="mark-rule role-axis-domain"/>
                <text fill="#000" class="mark-text role-axis-title" font-family="sans-serif" font-size="11" font-weight="bold" text-anchor="middle" transform="translate(716.5 132.5)">Strict Parsing</text>
            </g>
            <g aria-label="Y-axis for a discrete scale with 4 values: typia, @sx3/gate, ts-runtime-checks, (median)" aria-roledescription="axis" class="mark-group role-axis" pointer-events="none">
                <path d="M616.5 42.5" aria-hidden="true" class="background"/>
                <g stroke="#888" class="mark-rule role-axis-tick">
                    <path d="M616.5 49.5h-5M616.5 64.5h-5M616.5 79.5h-5M616.5 94.5h-5"/>
                </g>
                <g fill="#000" class="mark-text role-axis-label" font-family="sans-serif" font-size="10" text-anchor="end">
                    <text transform="translate(609.5 52.5)">typia</text>
                    <text transform="translate(609.5 67.5)">@sx3/gate</text>
                    <text transform="translate(609.5 82.5)">ts-runtime-checks</text>
                    <text transform="translate(609.5 97.5)">(median)</text>
                </g>
                <path stroke="#888" d="M616.5 42.5v60" class="mark-rule role-axis-domain"/>
            </g>
            <g aria-roledescription="rect mark container" class="mark-rect role-mark child__Strict_Parsing_marks">
                <path fill="#9d755d" d="M616 42.75h199.074v13.5H616Z" aria-label="Strict Parsing: 54745388; name: typia" aria-roledescription="bar"/>
                <path fill="#54a24b" d="M616 57.75h181.432v13.5H616Z" aria-label="Strict Parsing: 49893799; name: @sx3/gate" aria-roledescription="bar"/>
                <path fill="#b279a2" d="M616 72.75h175.753v13.5H616Z" aria-label="Strict Parsing: 48331946; name: ts-runtime-checks" aria-roledescription="bar"/>
                <path fill="#4c78a8" d="M616 87.75h9.496v13.5H616Z" aria-label="Strict Parsing: 2611327; name: (median)" aria-roledescription="bar"/>
            </g>
        </g>
        <g aria-roledescription="group mark container" class="mark-group role-scope child__Loose_Assertion_group">
            <path stroke="#ddd" d="M189.5 156.5h200v60h-200Z" aria-hidden="true" class="background"/>
            <g aria-hidden="true" class="mark-group role-axis">
                <path d="M189.5 216.5" aria-hidden="true" class="background" pointer-events="none"/>
                <g stroke="#ddd" class="mark-rule role-axis-grid" pointer-events="none">
                    <path d="M189.5 216.5v-60M231.5 216.5v-60M272.5 216.5v-60M314.5 216.5v-60M356.5 216.5v-60"/>
                </g>
            </g>
            <g aria-label="X-axis titled 'Loose Assertion' for a linear scale with values from 0 to 240,000,000" aria-roledescription="axis" class="mark-group role-axis" pointer-events="none">
                <path d="M189.5 216.5" aria-hidden="true" class="background"/>
                <g stroke="#888" class="mark-rule role-axis-tick">
                    <path d="M189.5 216.5v5M231.5 216.5v5M272.5 216.5v5M314.5 216.5v5M356.5 216.5v5"/>
                </g>
                <g fill="#000" class="mark-text role-axis-label" font-family="sans-serif" font-size="10">
                    <text transform="translate(189.5 231.5)">0</text>
                    <text text-anchor="middle" transform="translate(356.167 231.5)">200,000,000</text>
                </g>
                <path stroke="#888" d="M189.5 216.5h200" class="mark-rule role-axis-domain"/>
                <text fill="#000" class="mark-text role-axis-title" font-family="sans-serif" font-size="11" font-weight="bold" text-anchor="middle" transform="translate(289.5 246.5)">Loose Assertion</text>
            </g>
            <g aria-label="Y-axis for a discrete scale with 4 values: ts-runtime-checks, type-predicate-generator, @sinclair/typebox-(ahead-of-time), (median)" aria-roledescription="axis" class="mark-group role-axis" pointer-events="none">
                <path d="M189.5 156.5" aria-hidden="true" class="background"/>
                <g stroke="#888" class="mark-rule role-axis-tick">
                    <path d="M189.5 163.5h-5M189.5 178.5h-5M189.5 193.5h-5M189.5 208.5h-5"/>
                </g>
                <g fill="#000" class="mark-text role-axis-label" font-family="sans-serif" font-size="10" text-anchor="end">
                    <text transform="translate(182.5 166.5)">ts-runtime-checks</text>
                    <text transform="translate(182.5 181.5)">type-predicate-genera…</text>
                    <text transform="translate(182.5 196.5)">@sinclair/typebox-(ah…</text>
                    <text transform="translate(182.5 211.5)">(median)</text>
                </g>
                <path stroke="#888" d="M189.5 156.5v60" class="mark-rule role-axis-domain"/>
            </g>
            <g aria-roledescription="rect mark container" class="mark-rect role-mark child__Loose_Assertion_marks">
                <path fill="#b279a2" d="M189 156.75h194.405v13.5H189Z" aria-label="Loose Assertion: 233286116; name: ts-runtime-checks" aria-roledescription="bar"/>
                <path fill="#ff9da6" d="M189 171.75h191.199v13.5H189Z" aria-label="Loose Assertion: 229438658; name: type-predicate-generator" aria-roledescription="bar"/>
                <path fill="#f58518" d="M189 186.75h189.54v13.5H189Z" aria-label="Loose Assertion: 227447322; name: @sinclair/typebox-(ahead-of-time)" aria-roledescription="bar"/>
                <path fill="#4c78a8" d="M189 201.75h5.021v13.5H189Z" aria-label="Loose Assertion: 6025606; name: (median)" aria-roledescription="bar"/>
            </g>
        </g>
        <g aria-roledescription="group mark container" class="mark-group role-scope child__Strict_Assertion_group">
            <path stroke="#ddd" d="M616.5 156.5h200v60h-200Z" aria-hidden="true" class="background"/>
            <g aria-hidden="true" class="mark-group role-axis">
                <path d="M616.5 216.5" aria-hidden="true" class="background" pointer-events="none"/>
                <g stroke="#ddd" class="mark-rule role-axis-grid" pointer-events="none">
                    <path d="M616.5 216.5v-60M645.5 216.5v-60M673.5 216.5v-60M702.5 216.5v-60M730.5 216.5v-60M759.5 216.5v-60M787.5 216.5v-60M816.5 216.5v-60"/>
                </g>
            </g>
            <g aria-label="X-axis titled 'Strict Assertion' for a linear scale with values from 0 to 70,000,000" aria-roledescription="axis" class="mark-group role-axis" pointer-events="none">
                <path d="M616.5 216.5" aria-hidden="true" class="background"/>
                <g stroke="#888" class="mark-rule role-axis-tick">
                    <path d="M616.5 216.5v5M645.5 216.5v5M673.5 216.5v5M702.5 216.5v5M730.5 216.5v5M759.5 216.5v5M787.5 216.5v5M816.5 216.5v5"/>
                </g>
                <g fill="#000" class="mark-text role-axis-label" font-family="sans-serif" font-size="10">
                    <text transform="translate(616.5 231.5)">0</text>
                    <text text-anchor="end" transform="translate(816.5 231.5)">70,000,000</text>
                </g>
                <path stroke="#888" d="M616.5 216.5h200" class="mark-rule role-axis-domain"/>
                <text fill="#000" class="mark-text role-axis-title" font-family="sans-serif" font-size="11" font-weight="bold" text-anchor="middle" transform="translate(716.5 246.5)">Strict Assertion</text>
            </g>
            <g aria-label="Y-axis for a discrete scale with 4 values: @sinclair/typebox-(ahead-of-time), @sinclair/typebox-(just-in-time), @sinclair/typemap/valibot, (median)" aria-roledescription="axis" class="mark-group role-axis" pointer-events="none">
                <path d="M616.5 156.5" aria-hidden="true" class="background"/>
                <g stroke="#888" class="mark-rule role-axis-tick">
                    <path d="M616.5 163.5h-5M616.5 178.5h-5M616.5 193.5h-5M616.5 208.5h-5"/>
                </g>
                <g fill="#000" class="mark-text role-axis-label" font-family="sans-serif" font-size="10" text-anchor="end">
                    <text transform="translate(609.5 166.5)">@sinclair/typebox-(ah…</text>
                    <text transform="translate(609.5 181.5)">@sinclair/typebox-(ju…</text>
                    <text transform="translate(609.5 196.5)">@sinclair/typemap/val…</text>
                    <text transform="translate(609.5 211.5)">(median)</text>
                </g>
                <path stroke="#888" d="M616.5 156.5v60" class="mark-rule role-axis-domain"/>
            </g>
            <g aria-roledescription="rect mark container" class="mark-rect role-mark child__Strict_Assertion_marks">
                <path fill="#f58518" d="M616 156.75h186.298v13.5H616Z" aria-label="Strict Assertion: 65204361; name: @sinclair/typebox-(ahead-of-time)" aria-roledescription="bar"/>
                <path fill="#e45756" d="M616 171.75h155.642v13.5H616Z" aria-label="Strict Assertion: 54474594; name: @sinclair/typebox-(just-in-time)" aria-roledescription="bar"/>
                <path fill="#72b7b2" d="M616 186.75h144.319v13.5H616Z" aria-label="Strict Assertion: 50511521; name: @sinclair/typemap/valibot" aria-roledescription="bar"/>
                <path fill="#4c78a8" d="M616 201.75h8.551v13.5H616Z" aria-label="Strict Assertion: 2992986; name: (median)" aria-roledescription="bar"/>
            </g>
        </g>
        <g class="mark-group role-title">
            <path d="M421.91 5" aria-hidden="true" class="background" pointer-events="none"/>
            <text fill="#000" aria-label="Title text 'Top 3 packages for each benchmark + median, (ops count, better ⯈)'" aria-roledescription="title" class="mark-text role-title-text" font-family="sans-serif" font-size="16" pointer-events="none" text-anchor="middle" transform="translate(421.91 18)">Top 3 packages for each benchmark + median, (ops count, better ⯈)</text>
        </g>
    </g>
</svg>
