<svg xmlns="http://www.w3.org/2000/svg" class="marks" width="848" height="254">
    <path fill="#fff" d="M0 0h848v254H0z"/>
    <g class="mark-group role-frame root" aria-roledescription="group mark container" fill="none" stroke-miterlimit="10">
        <path class="background" aria-hidden="true" d="M189 42Z"/>
        <g class="mark-group role-scope child__Safe_Parsing_group" aria-roledescription="group mark container">
            <path class="background" aria-hidden="true" d="M189.5 42.5h200v60h-200Z" stroke="#ddd"/>
            <g class="mark-group role-axis" aria-hidden="true">
                <path class="background" aria-hidden="true" d="M189.5 102.5Z" pointer-events="none"/>
                <g class="mark-rule role-axis-grid" pointer-events="none" stroke="#ddd">
                    <path d="M189.5 102.5v-60M218.5 102.5v-60M246.5 102.5v-60M275.5 102.5v-60M303.5 102.5v-60M332.5 102.5v-60M360.5 102.5v-60M389.5 102.5v-60"/>
                </g>
            </g>
            <g pointer-events="none" class="mark-group role-axis" aria-roledescription="axis" aria-label="X-axis titled 'Safe Parsing' for a linear scale with values from 0 to 35,000,000">
                <path class="background" aria-hidden="true" d="M189.5 102.5Z"/>
                <g class="mark-rule role-axis-tick" stroke="#888">
                    <path d="M189.5 102.5v5M218.5 102.5v5M246.5 102.5v5M275.5 102.5v5M303.5 102.5v5M332.5 102.5v5M360.5 102.5v5M389.5 102.5v5"/>
                </g>
                <g class="mark-text role-axis-label" font-family="sans-serif" font-size="10" fill="#000">
                    <text transform="translate(189.5 117.5)">0</text>
                    <text text-anchor="end" transform="translate(389.5 117.5)">35,000,000</text>
                </g>
                <path stroke="#888" d="M189.5 102.5h200" class="mark-rule role-axis-domain"/>
                <text text-anchor="middle" transform="translate(289.5 132.5)" font-family="sans-serif" font-size="11" font-weight="bold" fill="#000" class="mark-text role-axis-title">Safe Parsing</text>
            </g>
            <g pointer-events="none" class="mark-group role-axis" aria-roledescription="axis" aria-label="Y-axis for a discrete scale with 4 values: typia, rescript-struct, spectypes, (median)">
                <path class="background" aria-hidden="true" d="M189.5 42.5Z"/>
                <g class="mark-rule role-axis-tick" stroke="#888">
                    <path d="M189.5 49.5h-5M189.5 64.5h-5M189.5 79.5h-5M189.5 94.5h-5"/>
                </g>
                <g class="mark-text role-axis-label" text-anchor="end" font-family="sans-serif" font-size="10" fill="#000">
                    <text transform="translate(182.5 52.5)">typia</text>
                    <text transform="translate(182.5 67.5)">rescript-struct</text>
                    <text transform="translate(182.5 82.5)">spectypes</text>
                    <text transform="translate(182.5 97.5)">(median)</text>
                </g>
                <path stroke="#888" d="M189.5 42.5v60" class="mark-rule role-axis-domain"/>
            </g>
            <g class="mark-rect role-mark child__Safe_Parsing_marks" aria-roledescription="rect mark container">
                <path aria-label="Safe Parsing: 29961615; name: typia" aria-roledescription="bar" d="M189 42.75h171.21v13.5H189Z" fill="#b279a2"/>
                <path aria-label="Safe Parsing: 31642894; name: rescript-struct" aria-roledescription="bar" d="M189 57.75h180.817v13.5H189Z" fill="#72b7b2"/>
                <path aria-label="Safe Parsing: 14821048; name: spectypes" aria-roledescription="bar" d="M189 72.75h84.692v13.5H189Z" fill="#54a24b"/>
                <path aria-label="Safe Parsing: 997132.5; name: (median)" aria-roledescription="bar" d="M189 87.75h5.698v13.5H189Z" fill="#4c78a8"/>
            </g>
        </g>
        <g class="mark-group role-scope child__Strict_Parsing_group" aria-roledescription="group mark container">
            <path class="background" aria-hidden="true" d="M620.5 42.5h200v60h-200Z" stroke="#ddd"/>
            <g class="mark-group role-axis" aria-hidden="true">
                <path class="background" aria-hidden="true" d="M620.5 102.5Z" pointer-events="none"/>
                <g class="mark-rule role-axis-grid" pointer-events="none" stroke="#ddd">
                    <path d="M620.5 102.5v-60M665.5 102.5v-60M711.5 102.5v-60M756.5 102.5v-60M802.5 102.5v-60"/>
                </g>
            </g>
            <g pointer-events="none" class="mark-group role-axis" aria-roledescription="axis" aria-label="X-axis titled 'Strict Parsing' for a linear scale with values from 0 to 22,000,000">
                <path class="background" aria-hidden="true" d="M620.5 102.5Z"/>
                <g class="mark-rule role-axis-tick" stroke="#888">
                    <path d="M620.5 102.5v5M665.5 102.5v5M711.5 102.5v5M756.5 102.5v5M802.5 102.5v5"/>
                </g>
                <g class="mark-text role-axis-label" font-family="sans-serif" font-size="10" fill="#000">
                    <text transform="translate(620.5 117.5)">0</text>
                    <text text-anchor="middle" transform="translate(711.41 117.5)">10,000,000</text>
                    <text text-anchor="middle" transform="translate(802.318 117.5)">20,000,000</text>
                </g>
                <path stroke="#888" d="M620.5 102.5h200" class="mark-rule role-axis-domain"/>
                <text text-anchor="middle" transform="translate(720.5 132.5)" font-family="sans-serif" font-size="11" font-weight="bold" fill="#000" class="mark-text role-axis-title">Strict Parsing</text>
            </g>
            <g pointer-events="none" class="mark-group role-axis" aria-roledescription="axis" aria-label="Y-axis for a discrete scale with 4 values: ts-runtime-checks, typia, spectypes, (median)">
                <path class="background" aria-hidden="true" d="M620.5 42.5Z"/>
                <g class="mark-rule role-axis-tick" stroke="#888">
                    <path d="M620.5 49.5h-5M620.5 64.5h-5M620.5 79.5h-5M620.5 94.5h-5"/>
                </g>
                <g class="mark-text role-axis-label" text-anchor="end" font-family="sans-serif" font-size="10" fill="#000">
                    <text transform="translate(613.5 52.5)">ts-runtime-checks</text>
                    <text transform="translate(613.5 67.5)">typia</text>
                    <text transform="translate(613.5 82.5)">spectypes</text>
                    <text transform="translate(613.5 97.5)">(median)</text>
                </g>
                <path stroke="#888" d="M620.5 42.5v60" class="mark-rule role-axis-domain"/>
            </g>
            <g class="mark-rect role-mark child__Strict_Parsing_marks" aria-roledescription="rect mark container">
                <path aria-label="Strict Parsing: 20302521; name: ts-runtime-checks" aria-roledescription="bar" d="M620 42.75h184.568v13.5H620Z" fill="#eeca3b"/>
                <path aria-label="Strict Parsing: 20192188; name: typia" aria-roledescription="bar" d="M620 57.75h183.565v13.5H620Z" fill="#b279a2"/>
                <path aria-label="Strict Parsing: 16269041; name: spectypes" aria-roledescription="bar" d="M620 72.75h147.9v13.5H620Z" fill="#54a24b"/>
                <path aria-label="Strict Parsing: 697583; name: (median)" aria-roledescription="bar" d="M620 87.75h6.342v13.5H620Z" fill="#4c78a8"/>
            </g>
        </g>
        <g class="mark-group role-scope child__Loose_Assertion_group" aria-roledescription="group mark container">
            <path class="background" aria-hidden="true" d="M189.5 156.5h200v60h-200Z" stroke="#ddd"/>
            <g class="mark-group role-axis" aria-hidden="true">
                <path class="background" aria-hidden="true" d="M189.5 216.5Z" pointer-events="none"/>
                <g class="mark-rule role-axis-grid" pointer-events="none" stroke="#ddd">
                    <path d="M189.5 216.5v-60M225.5 216.5v-60M262.5 216.5v-60M298.5 216.5v-60M334.5 216.5v-60M371.5 216.5v-60"/>
                </g>
            </g>
            <g pointer-events="none" class="mark-group role-axis" aria-roledescription="axis" aria-label="X-axis titled 'Loose Assertion' for a linear scale with values from 0 to 110,000,000">
                <path class="background" aria-hidden="true" d="M189.5 216.5Z"/>
                <g class="mark-rule role-axis-tick" stroke="#888">
                    <path d="M189.5 216.5v5M225.5 216.5v5M262.5 216.5v5M298.5 216.5v5M334.5 216.5v5M371.5 216.5v5"/>
                </g>
                <g class="mark-text role-axis-label" font-family="sans-serif" font-size="10" fill="#000">
                    <text transform="translate(189.5 231.5)">0</text>
                    <text text-anchor="middle" transform="translate(371.318 231.5)">100,000,000</text>
                </g>
                <path stroke="#888" d="M189.5 216.5h200" class="mark-rule role-axis-domain"/>
                <text text-anchor="middle" transform="translate(289.5 246.5)" font-family="sans-serif" font-size="11" font-weight="bold" fill="#000" class="mark-text role-axis-title">Loose Assertion</text>
            </g>
            <g pointer-events="none" class="mark-group role-axis" aria-roledescription="axis" aria-label="Y-axis for a discrete scale with 4 values: ts-runtime-checks, @sinclair/typebox-(ahead-of-time), typia, (median)">
                <path class="background" aria-hidden="true" d="M189.5 156.5Z"/>
                <g class="mark-rule role-axis-tick" stroke="#888">
                    <path d="M189.5 163.5h-5M189.5 178.5h-5M189.5 193.5h-5M189.5 208.5h-5"/>
                </g>
                <g class="mark-text role-axis-label" text-anchor="end" font-family="sans-serif" font-size="10" fill="#000">
                    <text transform="translate(182.5 166.5)">ts-runtime-checks</text>
                    <text transform="translate(182.5 181.5)">@sinclair/typebox-(ah…</text>
                    <text transform="translate(182.5 196.5)">typia</text>
                    <text transform="translate(182.5 211.5)">(median)</text>
                </g>
                <path stroke="#888" d="M189.5 156.5v60" class="mark-rule role-axis-domain"/>
            </g>
            <g class="mark-rect role-mark child__Loose_Assertion_marks" aria-roledescription="rect mark container">
                <path aria-label="Loose Assertion: 107975108; name: ts-runtime-checks" aria-roledescription="bar" d="M189 156.75h196.318v13.5H189Z" fill="#eeca3b"/>
                <path aria-label="Loose Assertion: 95920651; name: @sinclair/typebox-(ahead-of-time)" aria-roledescription="bar" d="M189 171.75h174.401v13.5H189Z" fill="#f58518"/>
                <path aria-label="Loose Assertion: 93981782; name: typia" aria-roledescription="bar" d="M189 186.75h170.876v13.5H189Z" fill="#b279a2"/>
                <path aria-label="Loose Assertion: 1133955; name: (median)" aria-roledescription="bar" d="M189 201.75h2.062v13.5H189Z" fill="#4c78a8"/>
            </g>
        </g>
        <g class="mark-group role-scope child__Strict_Assertion_group" aria-roledescription="group mark container">
            <path class="background" aria-hidden="true" d="M620.5 156.5h200v60h-200Z" stroke="#ddd"/>
            <g class="mark-group role-axis" aria-hidden="true">
                <path class="background" aria-hidden="true" d="M620.5 216.5Z" pointer-events="none"/>
                <g class="mark-rule role-axis-grid" pointer-events="none" stroke="#ddd">
                    <path d="M620.5 216.5v-60M665.5 216.5v-60M711.5 216.5v-60M756.5 216.5v-60M802.5 216.5v-60"/>
                </g>
            </g>
            <g pointer-events="none" class="mark-group role-axis" aria-roledescription="axis" aria-label="X-axis titled 'Strict Assertion' for a linear scale with values from 0 to 22,000,000">
                <path class="background" aria-hidden="true" d="M620.5 216.5Z"/>
                <g class="mark-rule role-axis-tick" stroke="#888">
                    <path d="M620.5 216.5v5M665.5 216.5v5M711.5 216.5v5M756.5 216.5v5M802.5 216.5v5"/>
                </g>
                <g class="mark-text role-axis-label" font-family="sans-serif" font-size="10" fill="#000">
                    <text transform="translate(620.5 231.5)">0</text>
                    <text text-anchor="middle" transform="translate(711.41 231.5)">10,000,000</text>
                    <text text-anchor="middle" transform="translate(802.318 231.5)">20,000,000</text>
                </g>
                <path stroke="#888" d="M620.5 216.5h200" class="mark-rule role-axis-domain"/>
                <text text-anchor="middle" transform="translate(720.5 246.5)" font-family="sans-serif" font-size="11" font-weight="bold" fill="#000" class="mark-text role-axis-title">Strict Assertion</text>
            </g>
            <g pointer-events="none" class="mark-group role-axis" aria-roledescription="axis" aria-label="Y-axis for a discrete scale with 4 values: ts-runtime-checks, @sinclair/typebox-(ahead-of-time), @sinclair/typebox-(just-in-time), (median)">
                <path class="background" aria-hidden="true" d="M620.5 156.5Z"/>
                <g class="mark-rule role-axis-tick" stroke="#888">
                    <path d="M620.5 163.5h-5M620.5 178.5h-5M620.5 193.5h-5M620.5 208.5h-5"/>
                </g>
                <g class="mark-text role-axis-label" text-anchor="end" font-family="sans-serif" font-size="10" fill="#000">
                    <text transform="translate(613.5 166.5)">ts-runtime-checks</text>
                    <text transform="translate(613.5 181.5)">@sinclair/typebox-(ah…</text>
                    <text transform="translate(613.5 196.5)">@sinclair/typebox-(ju…</text>
                    <text transform="translate(613.5 211.5)">(median)</text>
                </g>
                <path stroke="#888" d="M620.5 156.5v60" class="mark-rule role-axis-domain"/>
            </g>
            <g class="mark-rect role-mark child__Strict_Assertion_marks" aria-roledescription="rect mark container">
                <path aria-label="Strict Assertion: 19030486; name: ts-runtime-checks" aria-roledescription="bar" d="M620 156.75h173.004v13.5H620Z" fill="#eeca3b"/>
                <path aria-label="Strict Assertion: 21695553; name: @sinclair/typebox-(ahead-of-time)" aria-roledescription="bar" d="M620 171.75h197.232v13.5H620Z" fill="#f58518"/>
                <path aria-label="Strict Assertion: 21439829; name: @sinclair/typebox-(just-in-time)" aria-roledescription="bar" d="M620 186.75h194.908v13.5H620Z" fill="#e45756"/>
                <path aria-label="Strict Assertion: 719858; name: (median)" aria-roledescription="bar" d="M620 201.75h6.544v13.5H620Z" fill="#4c78a8"/>
            </g>
        </g>
        <g class="mark-group role-title">
            <path class="background" aria-hidden="true" d="M423.91 5Z" pointer-events="none"/>
            <text text-anchor="middle" transform="translate(423.91 18)" font-family="sans-serif" font-size="16" fill="#000" class="mark-text role-title-text" aria-roledescription="title" aria-label="Title text 'Top 3 packages for each benchmark + median, (ops count, better ⯈)'" pointer-events="none">Top 3 packages for each benchmark + median, (ops count, better ⯈)</text>
        </g>
    </g>
</svg>
