<svg xmlns="http://www.w3.org/2000/svg" class="marks" width="842" height="254">
    <path fill="#fff" d="M0 0h842v254H0z"/>
    <g class="mark-group role-frame root" aria-roledescription="group mark container" fill="none" stroke-miterlimit="10">
        <path class="background" aria-hidden="true" d="M209 42Z"/>
        <g class="mark-group role-scope child__Safe_Parsing_group" aria-roledescription="group mark container">
            <path class="background" aria-hidden="true" d="M209.5 42.5h200v60h-200Z" stroke="#ddd"/>
            <g class="mark-group role-axis" aria-roledescription="axis" aria-label="X-axis for a linear scale with values from 0 to 40,000,000">
                <path class="background" aria-hidden="true" d="M209.5 102.5Z" pointer-events="none"/>
                <g class="mark-rule role-axis-grid" pointer-events="none" stroke="#ddd">
                    <path d="M209.5 102.5v-60M259.5 102.5v-60M309.5 102.5v-60M359.5 102.5v-60M409.5 102.5v-60"/>
                </g>
            </g>
            <g pointer-events="none" class="mark-group role-axis" aria-roledescription="axis" aria-label="X-axis titled 'Safe Parsing' for a linear scale with values from 0 to 40,000,000">
                <path class="background" aria-hidden="true" d="M209.5 102.5Z"/>
                <g class="mark-rule role-axis-tick" stroke="#888">
                    <path d="M209.5 102.5v5M259.5 102.5v5M309.5 102.5v5M359.5 102.5v5M409.5 102.5v5"/>
                </g>
                <g class="mark-text role-axis-label" font-family="sans-serif" font-size="10" fill="#000">
                    <text transform="translate(209.5 117.5)">0</text>
                    <text text-anchor="end" transform="translate(409.5 117.5)">40,000,000</text>
                </g>
                <path stroke="#888" d="M209.5 102.5h200" class="mark-rule role-axis-domain"/>
                <text text-anchor="middle" transform="translate(309.5 132.5)" font-family="sans-serif" font-size="11" font-weight="bold" fill="#000" class="mark-text role-axis-title">Safe Parsing</text>
            </g>
            <g pointer-events="none" class="mark-group role-axis" aria-roledescription="axis" aria-label="Y-axis for a discrete scale with 4 values: rescript-struct, typia, spectypes, (median)">
                <path class="background" aria-hidden="true" d="M209.5 42.5Z"/>
                <g class="mark-rule role-axis-tick" stroke="#888">
                    <path d="M209.5 49.5h-5M209.5 64.5h-5M209.5 79.5h-5M209.5 94.5h-5"/>
                </g>
                <g class="mark-text role-axis-label" text-anchor="end" font-family="sans-serif" font-size="10" fill="#000">
                    <text transform="translate(202.5 52.5)">rescript-struct</text>
                    <text transform="translate(202.5 67.5)">typia</text>
                    <text transform="translate(202.5 82.5)">spectypes</text>
                    <text transform="translate(202.5 97.5)">(median)</text>
                </g>
                <path stroke="#888" d="M209.5 42.5v60" class="mark-rule role-axis-domain"/>
            </g>
            <g class="mark-rect role-mark child__Safe_Parsing_marks" aria-roledescription="rect mark container">
                <path d="M209 42.75h178.067v13.5H209Z" fill="#e45756"/>
                <path d="M209 57.75h106.91v13.5H209Z" fill="#eeca3b"/>
                <path d="M209 72.75h91.68v13.5H209Z" fill="#72b7b2"/>
                <path d="M209 87.75h3.96v13.5H209Z" fill="#4c78a8"/>
            </g>
        </g>
        <g class="mark-group role-scope child__Strict_Parsing_group" aria-roledescription="group mark container">
            <path class="background" aria-hidden="true" d="M575.5 42.5h200v60h-200Z" stroke="#ddd"/>
            <g class="mark-group role-axis" aria-roledescription="axis" aria-label="X-axis for a linear scale with values from 0 to 20,000,000">
                <path class="background" aria-hidden="true" d="M575.5 102.5Z" pointer-events="none"/>
                <g class="mark-rule role-axis-grid" pointer-events="none" stroke="#ddd">
                    <path d="M575.5 102.5v-60M625.5 102.5v-60M675.5 102.5v-60M725.5 102.5v-60M775.5 102.5v-60"/>
                </g>
            </g>
            <g pointer-events="none" class="mark-group role-axis" aria-roledescription="axis" aria-label="X-axis titled 'Strict Parsing' for a linear scale with values from 0 to 20,000,000">
                <path class="background" aria-hidden="true" d="M575.5 102.5Z"/>
                <g class="mark-rule role-axis-tick" stroke="#888">
                    <path d="M575.5 102.5v5M625.5 102.5v5M675.5 102.5v5M725.5 102.5v5M775.5 102.5v5"/>
                </g>
                <g class="mark-text role-axis-label" font-family="sans-serif" font-size="10" fill="#000">
                    <text transform="translate(575.5 117.5)">0</text>
                    <text text-anchor="end" transform="translate(775.5 117.5)">20,000,000</text>
                </g>
                <path stroke="#888" d="M575.5 102.5h200" class="mark-rule role-axis-domain"/>
                <text text-anchor="middle" transform="translate(675.5 132.5)" font-family="sans-serif" font-size="11" font-weight="bold" fill="#000" class="mark-text role-axis-title">Strict Parsing</text>
            </g>
            <g pointer-events="none" class="mark-group role-axis" aria-roledescription="axis" aria-label="Y-axis for a discrete scale with 4 values: ts-runtime-checks, typia, spectypes, (median)">
                <path class="background" aria-hidden="true" d="M575.5 42.5Z"/>
                <g class="mark-rule role-axis-tick" stroke="#888">
                    <path d="M575.5 49.5h-5M575.5 64.5h-5M575.5 79.5h-5M575.5 94.5h-5"/>
                </g>
                <g class="mark-text role-axis-label" text-anchor="end" font-family="sans-serif" font-size="10" fill="#000">
                    <text transform="translate(568.5 52.5)">ts-runtime-checks</text>
                    <text transform="translate(568.5 67.5)">typia</text>
                    <text transform="translate(568.5 82.5)">spectypes</text>
                    <text transform="translate(568.5 97.5)">(median)</text>
                </g>
                <path stroke="#888" d="M575.5 42.5v60" class="mark-rule role-axis-domain"/>
            </g>
            <g class="mark-rect role-mark child__Strict_Parsing_marks" aria-roledescription="rect mark container">
                <path d="M575 42.75h190.296v13.5H575Z" fill="#54a24b"/>
                <path d="M575 57.75h163.273v13.5H575Z" fill="#eeca3b"/>
                <path d="M575 72.75h161.11v13.5H575Z" fill="#72b7b2"/>
                <path d="M575 87.75h7.445v13.5H575Z" fill="#4c78a8"/>
            </g>
        </g>
        <g class="mark-group role-scope child__Loose_Assertion_group" aria-roledescription="group mark container">
            <path class="background" aria-hidden="true" d="M209.5 156.5h200v60h-200Z" stroke="#ddd"/>
            <g class="mark-group role-axis" aria-roledescription="axis" aria-label="X-axis for a linear scale with values from 0 to 100,000,000">
                <path class="background" aria-hidden="true" d="M209.5 216.5Z" pointer-events="none"/>
                <g class="mark-rule role-axis-grid" pointer-events="none" stroke="#ddd">
                    <path d="M209.5 216.5v-60M249.5 216.5v-60M289.5 216.5v-60M329.5 216.5v-60M369.5 216.5v-60M409.5 216.5v-60"/>
                </g>
            </g>
            <g pointer-events="none" class="mark-group role-axis" aria-roledescription="axis" aria-label="X-axis titled 'Loose Assertion' for a linear scale with values from 0 to 100,000,000">
                <path class="background" aria-hidden="true" d="M209.5 216.5Z"/>
                <g class="mark-rule role-axis-tick" stroke="#888">
                    <path d="M209.5 216.5v5M249.5 216.5v5M289.5 216.5v5M329.5 216.5v5M369.5 216.5v5M409.5 216.5v5"/>
                </g>
                <g class="mark-text role-axis-label" font-family="sans-serif" font-size="10" fill="#000">
                    <text transform="translate(209.5 231.5)">0</text>
                    <text text-anchor="middle" transform="translate(289.5 231.5)">40,000,000</text>
                    <text text-anchor="middle" transform="translate(369.5 231.5)">80,000,000</text>
                </g>
                <path stroke="#888" d="M209.5 216.5h200" class="mark-rule role-axis-domain"/>
                <text text-anchor="middle" transform="translate(309.5 246.5)" font-family="sans-serif" font-size="11" font-weight="bold" fill="#000" class="mark-text role-axis-title">Loose Assertion</text>
            </g>
            <g pointer-events="none" class="mark-group role-axis" aria-roledescription="axis" aria-label="Y-axis for a discrete scale with 4 values: ts-runtime-checks, typia, spectypes, (median)">
                <path class="background" aria-hidden="true" d="M209.5 156.5Z"/>
                <g class="mark-rule role-axis-tick" stroke="#888">
                    <path d="M209.5 163.5h-5M209.5 178.5h-5M209.5 193.5h-5M209.5 208.5h-5"/>
                </g>
                <g class="mark-text role-axis-label" text-anchor="end" font-family="sans-serif" font-size="10" fill="#000">
                    <text transform="translate(202.5 166.5)">ts-runtime-checks</text>
                    <text transform="translate(202.5 181.5)">typia</text>
                    <text transform="translate(202.5 196.5)">spectypes</text>
                    <text transform="translate(202.5 211.5)">(median)</text>
                </g>
                <path stroke="#888" d="M209.5 156.5v60" class="mark-rule role-axis-domain"/>
            </g>
            <g class="mark-rect role-mark child__Loose_Assertion_marks" aria-roledescription="rect mark container">
                <path d="M209 156.75h180.654v13.5H209Z" fill="#54a24b"/>
                <path d="M209 171.75h161.983v13.5H209Z" fill="#eeca3b"/>
                <path d="M209 186.75h122.892v13.5H209Z" fill="#72b7b2"/>
                <path d="M209 201.75h1.964v13.5H209Z" fill="#4c78a8"/>
            </g>
        </g>
        <g class="mark-group role-scope child__Strict_Assertion_group" aria-roledescription="group mark container">
            <path class="background" aria-hidden="true" d="M575.5 156.5h200v60h-200Z" stroke="#ddd"/>
            <g class="mark-group role-axis" aria-roledescription="axis" aria-label="X-axis for a linear scale with values from 0 to 20,000,000">
                <path class="background" aria-hidden="true" d="M575.5 216.5Z" pointer-events="none"/>
                <g class="mark-rule role-axis-grid" pointer-events="none" stroke="#ddd">
                    <path d="M575.5 216.5v-60M625.5 216.5v-60M675.5 216.5v-60M725.5 216.5v-60M775.5 216.5v-60"/>
                </g>
            </g>
            <g pointer-events="none" class="mark-group role-axis" aria-roledescription="axis" aria-label="X-axis titled 'Strict Assertion' for a linear scale with values from 0 to 20,000,000">
                <path class="background" aria-hidden="true" d="M575.5 216.5Z"/>
                <g class="mark-rule role-axis-tick" stroke="#888">
                    <path d="M575.5 216.5v5M625.5 216.5v5M675.5 216.5v5M725.5 216.5v5M775.5 216.5v5"/>
                </g>
                <g class="mark-text role-axis-label" font-family="sans-serif" font-size="10" fill="#000">
                    <text transform="translate(575.5 231.5)">0</text>
                    <text text-anchor="end" transform="translate(775.5 231.5)">20,000,000</text>
                </g>
                <path stroke="#888" d="M575.5 216.5h200" class="mark-rule role-axis-domain"/>
                <text text-anchor="middle" transform="translate(675.5 246.5)" font-family="sans-serif" font-size="11" font-weight="bold" fill="#000" class="mark-text role-axis-title">Strict Assertion</text>
            </g>
            <g pointer-events="none" class="mark-group role-axis" aria-roledescription="axis" aria-label="Y-axis for a discrete scale with 4 values: @sinclair/typebox, ts-runtime-checks, typia, (median)">
                <path class="background" aria-hidden="true" d="M575.5 156.5Z"/>
                <g class="mark-rule role-axis-tick" stroke="#888">
                    <path d="M575.5 163.5h-5M575.5 178.5h-5M575.5 193.5h-5M575.5 208.5h-5"/>
                </g>
                <g class="mark-text role-axis-label" text-anchor="end" font-family="sans-serif" font-size="10" fill="#000">
                    <text transform="translate(568.5 166.5)">@sinclair/typebox</text>
                    <text transform="translate(568.5 181.5)">ts-runtime-checks</text>
                    <text transform="translate(568.5 196.5)">typia</text>
                    <text transform="translate(568.5 211.5)">(median)</text>
                </g>
                <path stroke="#888" d="M575.5 156.5v60" class="mark-rule role-axis-domain"/>
            </g>
            <g class="mark-rect role-mark child__Strict_Assertion_marks" aria-roledescription="rect mark container">
                <path d="M575 156.75h197.07v13.5H575Z" fill="#f58518"/>
                <path d="M575 171.75h192.892v13.5H575Z" fill="#54a24b"/>
                <path d="M575 186.75h153.607v13.5H575Z" fill="#eeca3b"/>
                <path d="M575 201.75h6.172v13.5H575Z" fill="#4c78a8"/>
            </g>
        </g>
        <g class="mark-group role-title">
            <path class="background" aria-hidden="true" d="M421 5Z" pointer-events="none"/>
            <text text-anchor="middle" transform="translate(421 18)" font-family="sans-serif" font-size="16" fill="#000" class="mark-text role-title-text" aria-roledescription="title" aria-label="Title text 'Top 3 packages for each benchmark + median, (ops count, better ⯈)'" pointer-events="none">Top 3 packages for each benchmark + median, (ops count, better ⯈)</text>
        </g>
    </g>
</svg>
