<svg xmlns="http://www.w3.org/2000/svg" class="marks" width="843" height="254">
    <path fill="#fff" d="M0 0h843v254H0z"/>
    <g class="mark-group role-frame root" aria-roledescription="group mark container" fill="none" stroke-miterlimit="10">
        <path class="background" aria-hidden="true" d="M201 42Z"/>
        <g class="mark-group role-scope child__Safe_Parsing_group" aria-roledescription="group mark container">
            <path class="background" aria-hidden="true" d="M201.5 42.5h200v60h-200Z" stroke="#ddd"/>
            <g class="mark-group role-axis" aria-hidden="true">
                <path class="background" aria-hidden="true" d="M201.5 102.5Z" pointer-events="none"/>
                <g class="mark-rule role-axis-grid" pointer-events="none" stroke="#ddd">
                    <path d="M201.5 102.5v-60M245.5 102.5v-60M290.5 102.5v-60M334.5 102.5v-60M379.5 102.5v-60"/>
                </g>
            </g>
            <g pointer-events="none" class="mark-group role-axis" aria-roledescription="axis" aria-label="X-axis titled 'Safe Parsing' for a linear scale with values from 0 to 45,000,000">
                <path class="background" aria-hidden="true" d="M201.5 102.5Z"/>
                <g class="mark-rule role-axis-tick" stroke="#888">
                    <path d="M201.5 102.5v5M245.5 102.5v5M290.5 102.5v5M334.5 102.5v5M379.5 102.5v5"/>
                </g>
                <g class="mark-text role-axis-label" font-family="sans-serif" font-size="10" fill="#000">
                    <text transform="translate(201.5 117.5)">0</text>
                    <text text-anchor="middle" transform="translate(290.389 117.5)">20,000,000</text>
                    <text text-anchor="middle" transform="translate(379.278 117.5)">40,000,000</text>
                </g>
                <path stroke="#888" d="M201.5 102.5h200" class="mark-rule role-axis-domain"/>
                <text text-anchor="middle" transform="translate(301.5 132.5)" font-family="sans-serif" font-size="11" font-weight="bold" fill="#000" class="mark-text role-axis-title">Safe Parsing</text>
            </g>
            <g pointer-events="none" class="mark-group role-axis" aria-roledescription="axis" aria-label="Y-axis for a discrete scale with 4 values: typia, rescript-struct, spectypes, (median)">
                <path class="background" aria-hidden="true" d="M201.5 42.5Z"/>
                <g class="mark-rule role-axis-tick" stroke="#888">
                    <path d="M201.5 49.5h-5M201.5 64.5h-5M201.5 79.5h-5M201.5 94.5h-5"/>
                </g>
                <g class="mark-text role-axis-label" text-anchor="end" font-family="sans-serif" font-size="10" fill="#000">
                    <text transform="translate(194.5 52.5)">typia</text>
                    <text transform="translate(194.5 67.5)">rescript-struct</text>
                    <text transform="translate(194.5 82.5)">spectypes</text>
                    <text transform="translate(194.5 97.5)">(median)</text>
                </g>
                <path stroke="#888" d="M201.5 42.5v60" class="mark-rule role-axis-domain"/>
            </g>
            <g class="mark-rect role-mark child__Safe_Parsing_marks" aria-roledescription="rect mark container">
                <path aria-label="Safe Parsing: 42281793; name: typia" aria-roledescription="bar" d="M201 42.75h187.92v13.5H201Z" fill="#b279a2"/>
                <path aria-label="Safe Parsing: 38345475; name: rescript-struct" aria-roledescription="bar" d="M201 57.75h170.424v13.5H201Z" fill="#72b7b2"/>
                <path aria-label="Safe Parsing: 25354114; name: spectypes" aria-roledescription="bar" d="M201 72.75h112.685v13.5H201Z" fill="#54a24b"/>
                <path aria-label="Safe Parsing: 1078478; name: (median)" aria-roledescription="bar" d="M201 87.75h4.793v13.5H201Z" fill="#4c78a8"/>
            </g>
        </g>
        <g class="mark-group role-scope child__Strict_Parsing_group" aria-roledescription="group mark container">
            <path class="background" aria-hidden="true" d="M624.5 42.5h200v60h-200Z" stroke="#ddd"/>
            <g class="mark-group role-axis" aria-hidden="true">
                <path class="background" aria-hidden="true" d="M624.5 102.5Z" pointer-events="none"/>
                <g class="mark-rule role-axis-grid" pointer-events="none" stroke="#ddd">
                    <path d="M624.5 102.5v-60M653.5 102.5v-60M681.5 102.5v-60M710.5 102.5v-60M738.5 102.5v-60M767.5 102.5v-60M795.5 102.5v-60M824.5 102.5v-60"/>
                </g>
            </g>
            <g pointer-events="none" class="mark-group role-axis" aria-roledescription="axis" aria-label="X-axis titled 'Strict Parsing' for a linear scale with values from 0 to 35,000,000">
                <path class="background" aria-hidden="true" d="M624.5 102.5Z"/>
                <g class="mark-rule role-axis-tick" stroke="#888">
                    <path d="M624.5 102.5v5M653.5 102.5v5M681.5 102.5v5M710.5 102.5v5M738.5 102.5v5M767.5 102.5v5M795.5 102.5v5M824.5 102.5v5"/>
                </g>
                <g class="mark-text role-axis-label" font-family="sans-serif" font-size="10" fill="#000">
                    <text transform="translate(624.5 117.5)">0</text>
                    <text text-anchor="end" transform="translate(824.5 117.5)">35,000,000</text>
                </g>
                <path stroke="#888" d="M624.5 102.5h200" class="mark-rule role-axis-domain"/>
                <text text-anchor="middle" transform="translate(724.5 132.5)" font-family="sans-serif" font-size="11" font-weight="bold" fill="#000" class="mark-text role-axis-title">Strict Parsing</text>
            </g>
            <g pointer-events="none" class="mark-group role-axis" aria-roledescription="axis" aria-label="Y-axis for a discrete scale with 4 values: ts-runtime-checks, typia, spectypes, (median)">
                <path class="background" aria-hidden="true" d="M624.5 42.5Z"/>
                <g class="mark-rule role-axis-tick" stroke="#888">
                    <path d="M624.5 49.5h-5M624.5 64.5h-5M624.5 79.5h-5M624.5 94.5h-5"/>
                </g>
                <g class="mark-text role-axis-label" text-anchor="end" font-family="sans-serif" font-size="10" fill="#000">
                    <text transform="translate(617.5 52.5)">ts-runtime-checks</text>
                    <text transform="translate(617.5 67.5)">typia</text>
                    <text transform="translate(617.5 82.5)">spectypes</text>
                    <text transform="translate(617.5 97.5)">(median)</text>
                </g>
                <path stroke="#888" d="M624.5 42.5v60" class="mark-rule role-axis-domain"/>
            </g>
            <g class="mark-rect role-mark child__Strict_Parsing_marks" aria-roledescription="rect mark container">
                <path aria-label="Strict Parsing: 25635306; name: ts-runtime-checks" aria-roledescription="bar" d="M624 42.75h146.487v13.5H624Z" fill="#eeca3b"/>
                <path aria-label="Strict Parsing: 30165098; name: typia" aria-roledescription="bar" d="M624 57.75h172.372v13.5H624Z" fill="#b279a2"/>
                <path aria-label="Strict Parsing: 22917514; name: spectypes" aria-roledescription="bar" d="M624 72.75h130.957v13.5H624Z" fill="#54a24b"/>
                <path aria-label="Strict Parsing: 1150659; name: (median)" aria-roledescription="bar" d="M624 87.75h6.575v13.5H624Z" fill="#4c78a8"/>
            </g>
        </g>
        <g class="mark-group role-scope child__Loose_Assertion_group" aria-roledescription="group mark container">
            <path class="background" aria-hidden="true" d="M201.5 156.5h200v60h-200Z" stroke="#ddd"/>
            <g class="mark-group role-axis" aria-hidden="true">
                <path class="background" aria-hidden="true" d="M201.5 216.5Z" pointer-events="none"/>
                <g class="mark-rule role-axis-grid" pointer-events="none" stroke="#ddd">
                    <path d="M201.5 216.5v-60M234.5 216.5v-60M268.5 216.5v-60M301.5 216.5v-60M334.5 216.5v-60M368.5 216.5v-60M401.5 216.5v-60"/>
                </g>
            </g>
            <g pointer-events="none" class="mark-group role-axis" aria-roledescription="axis" aria-label="X-axis titled 'Loose Assertion' for a linear scale with values from 0 to 120,000,000">
                <path class="background" aria-hidden="true" d="M201.5 216.5Z"/>
                <g class="mark-rule role-axis-tick" stroke="#888">
                    <path d="M201.5 216.5v5M234.5 216.5v5M268.5 216.5v5M301.5 216.5v5M334.5 216.5v5M368.5 216.5v5M401.5 216.5v5"/>
                </g>
                <g class="mark-text role-axis-label" font-family="sans-serif" font-size="10" fill="#000">
                    <text transform="translate(201.5 231.5)">0</text>
                    <text text-anchor="end" transform="translate(401.5 231.5)">120,000,000</text>
                </g>
                <path stroke="#888" d="M201.5 216.5h200" class="mark-rule role-axis-domain"/>
                <text text-anchor="middle" transform="translate(301.5 246.5)" font-family="sans-serif" font-size="11" font-weight="bold" fill="#000" class="mark-text role-axis-title">Loose Assertion</text>
            </g>
            <g pointer-events="none" class="mark-group role-axis" aria-roledescription="axis" aria-label="Y-axis for a discrete scale with 4 values: @sinclair/typebox-(ahead-of-time), ts-runtime-checks, typia, (median)">
                <path class="background" aria-hidden="true" d="M201.5 156.5Z"/>
                <g class="mark-rule role-axis-tick" stroke="#888">
                    <path d="M201.5 163.5h-5M201.5 178.5h-5M201.5 193.5h-5M201.5 208.5h-5"/>
                </g>
                <g class="mark-text role-axis-label" text-anchor="end" font-family="sans-serif" font-size="10" fill="#000">
                    <text transform="translate(194.5 166.5)">@sinclair/typebox-(ah…</text>
                    <text transform="translate(194.5 181.5)">ts-runtime-checks</text>
                    <text transform="translate(194.5 196.5)">typia</text>
                    <text transform="translate(194.5 211.5)">(median)</text>
                </g>
                <path stroke="#888" d="M201.5 156.5v60" class="mark-rule role-axis-domain"/>
            </g>
            <g class="mark-rect role-mark child__Loose_Assertion_marks" aria-roledescription="rect mark container">
                <path aria-label="Loose Assertion: 117535456; name: @sinclair/typebox-(ahead-of-time)" aria-roledescription="bar" d="M201 156.75h195.892v13.5H201Z" fill="#f58518"/>
                <path aria-label="Loose Assertion: 117189395; name: ts-runtime-checks" aria-roledescription="bar" d="M201 171.75h195.316v13.5H201Z" fill="#eeca3b"/>
                <path aria-label="Loose Assertion: 115807791; name: typia" aria-roledescription="bar" d="M201 186.75h193.013v13.5H201Z" fill="#b279a2"/>
                <path aria-label="Loose Assertion: 1410321; name: (median)" aria-roledescription="bar" d="M201 201.75h2.35v13.5H201Z" fill="#4c78a8"/>
            </g>
        </g>
        <g class="mark-group role-scope child__Strict_Assertion_group" aria-roledescription="group mark container">
            <path class="background" aria-hidden="true" d="M624.5 156.5h200v60h-200Z" stroke="#ddd"/>
            <g class="mark-group role-axis" aria-hidden="true">
                <path class="background" aria-hidden="true" d="M624.5 216.5Z" pointer-events="none"/>
                <g class="mark-rule role-axis-grid" pointer-events="none" stroke="#ddd">
                    <path d="M624.5 216.5v-60M653.5 216.5v-60M681.5 216.5v-60M710.5 216.5v-60M738.5 216.5v-60M767.5 216.5v-60M795.5 216.5v-60M824.5 216.5v-60"/>
                </g>
            </g>
            <g pointer-events="none" class="mark-group role-axis" aria-roledescription="axis" aria-label="X-axis titled 'Strict Assertion' for a linear scale with values from 0 to 35,000,000">
                <path class="background" aria-hidden="true" d="M624.5 216.5Z"/>
                <g class="mark-rule role-axis-tick" stroke="#888">
                    <path d="M624.5 216.5v5M653.5 216.5v5M681.5 216.5v5M710.5 216.5v5M738.5 216.5v5M767.5 216.5v5M795.5 216.5v5M824.5 216.5v5"/>
                </g>
                <g class="mark-text role-axis-label" font-family="sans-serif" font-size="10" fill="#000">
                    <text transform="translate(624.5 231.5)">0</text>
                    <text text-anchor="end" transform="translate(824.5 231.5)">35,000,000</text>
                </g>
                <path stroke="#888" d="M624.5 216.5h200" class="mark-rule role-axis-domain"/>
                <text text-anchor="middle" transform="translate(724.5 246.5)" font-family="sans-serif" font-size="11" font-weight="bold" fill="#000" class="mark-text role-axis-title">Strict Assertion</text>
            </g>
            <g pointer-events="none" class="mark-group role-axis" aria-roledescription="axis" aria-label="Y-axis for a discrete scale with 4 values: @sinclair/typebox-(ahead-of-time), typia, @sinclair/typebox-(just-in-time), (median)">
                <path class="background" aria-hidden="true" d="M624.5 156.5Z"/>
                <g class="mark-rule role-axis-tick" stroke="#888">
                    <path d="M624.5 163.5h-5M624.5 178.5h-5M624.5 193.5h-5M624.5 208.5h-5"/>
                </g>
                <g class="mark-text role-axis-label" text-anchor="end" font-family="sans-serif" font-size="10" fill="#000">
                    <text transform="translate(617.5 166.5)">@sinclair/typebox-(ah…</text>
                    <text transform="translate(617.5 181.5)">typia</text>
                    <text transform="translate(617.5 196.5)">@sinclair/typebox-(ju…</text>
                    <text transform="translate(617.5 211.5)">(median)</text>
                </g>
                <path stroke="#888" d="M624.5 156.5v60" class="mark-rule role-axis-domain"/>
            </g>
            <g class="mark-rect role-mark child__Strict_Assertion_marks" aria-roledescription="rect mark container">
                <path aria-label="Strict Assertion: 30951283; name: @sinclair/typebox-(ahead-of-time)" aria-roledescription="bar" d="M624 156.75h176.864v13.5H624Z" fill="#f58518"/>
                <path aria-label="Strict Assertion: 25980281; name: typia" aria-roledescription="bar" d="M624 171.75h148.459v13.5H624Z" fill="#b279a2"/>
                <path aria-label="Strict Assertion: 28600410; name: @sinclair/typebox-(just-in-time)" aria-roledescription="bar" d="M624 186.75h163.43v13.5H624Z" fill="#e45756"/>
                <path aria-label="Strict Assertion: 952669; name: (median)" aria-roledescription="bar" d="M624 201.75h5.444v13.5H624Z" fill="#4c78a8"/>
            </g>
        </g>
        <g class="mark-group role-title">
            <path class="background" aria-hidden="true" d="M421.5 5Z" pointer-events="none"/>
            <text text-anchor="middle" transform="translate(421.5 18)" font-family="sans-serif" font-size="16" fill="#000" class="mark-text role-title-text" aria-roledescription="title" aria-label="Title text 'Top 3 packages for each benchmark + median, (ops count, better ⯈)'" pointer-events="none">Top 3 packages for each benchmark + median, (ops count, better ⯈)</text>
        </g>
    </g>
</svg>
