<svg xmlns="http://www.w3.org/2000/svg" class="marks" width="843" height="254">
    <path fill="#fff" d="M0 0h843v254H0z"/>
    <g class="mark-group role-frame root" aria-roledescription="group mark container" fill="none" stroke-miterlimit="10">
        <path class="background" aria-hidden="true" d="M194 42Z"/>
        <g class="mark-group role-scope child__Safe_Parsing_group" aria-roledescription="group mark container">
            <path class="background" aria-hidden="true" d="M194.5 42.5h200v60h-200Z" stroke="#ddd"/>
            <g class="mark-group role-axis" aria-roledescription="axis" aria-label="X-axis for a linear scale with values from 0 to 45,000,000">
                <path class="background" aria-hidden="true" d="M194.5 102.5Z" pointer-events="none"/>
                <g class="mark-rule role-axis-grid" pointer-events="none" stroke="#ddd">
                    <path d="M194.5 102.5v-60M238.5 102.5v-60M283.5 102.5v-60M327.5 102.5v-60M372.5 102.5v-60"/>
                </g>
            </g>
            <g pointer-events="none" class="mark-group role-axis" aria-roledescription="axis" aria-label="X-axis titled 'Safe Parsing' for a linear scale with values from 0 to 45,000,000">
                <path class="background" aria-hidden="true" d="M194.5 102.5Z"/>
                <g class="mark-rule role-axis-tick" stroke="#888">
                    <path d="M194.5 102.5v5M238.5 102.5v5M283.5 102.5v5M327.5 102.5v5M372.5 102.5v5"/>
                </g>
                <g class="mark-text role-axis-label" font-family="sans-serif" font-size="10" fill="#000">
                    <text transform="translate(194.5 117.5)">0</text>
                    <text text-anchor="middle" transform="translate(283.389 117.5)">20,000,000</text>
                    <text text-anchor="middle" transform="translate(372.278 117.5)">40,000,000</text>
                </g>
                <path stroke="#888" d="M194.5 102.5h200" class="mark-rule role-axis-domain"/>
                <text text-anchor="middle" transform="translate(294.5 132.5)" font-family="sans-serif" font-size="11" font-weight="bold" fill="#000" class="mark-text role-axis-title">Safe Parsing</text>
            </g>
            <g pointer-events="none" class="mark-group role-axis" aria-roledescription="axis" aria-label="Y-axis for a discrete scale with 4 values: rescript-struct, typia, spectypes, (median)">
                <path class="background" aria-hidden="true" d="M194.5 42.5Z"/>
                <g class="mark-rule role-axis-tick" stroke="#888">
                    <path d="M194.5 49.5h-5M194.5 64.5h-5M194.5 79.5h-5M194.5 94.5h-5"/>
                </g>
                <g class="mark-text role-axis-label" text-anchor="end" font-family="sans-serif" font-size="10" fill="#000">
                    <text transform="translate(187.5 52.5)">rescript-struct</text>
                    <text transform="translate(187.5 67.5)">typia</text>
                    <text transform="translate(187.5 82.5)">spectypes</text>
                    <text transform="translate(187.5 97.5)">(median)</text>
                </g>
                <path stroke="#888" d="M194.5 42.5v60" class="mark-rule role-axis-domain"/>
            </g>
            <g class="mark-rect role-mark child__Safe_Parsing_marks" aria-roledescription="rect mark container">
                <path d="M194 42.75h190.062v13.5H194Z" fill="#e45756"/>
                <path d="M194 57.75h113.519v13.5H194Z" fill="#eeca3b"/>
                <path d="M194 72.75h98.009v13.5H194Z" fill="#72b7b2"/>
                <path d="M194 87.75h3.902v13.5H194Z" fill="#4c78a8"/>
            </g>
        </g>
        <g class="mark-group role-scope child__Strict_Parsing_group" aria-roledescription="group mark container">
            <path class="background" aria-hidden="true" d="M585.5 42.5h200v60h-200Z" stroke="#ddd"/>
            <g class="mark-group role-axis" aria-roledescription="axis" aria-label="X-axis for a linear scale with values from 0 to 24,000,000">
                <path class="background" aria-hidden="true" d="M585.5 102.5Z" pointer-events="none"/>
                <g class="mark-rule role-axis-grid" pointer-events="none" stroke="#ddd">
                    <path d="M585.5 102.5v-60M627.5 102.5v-60M668.5 102.5v-60M710.5 102.5v-60M752.5 102.5v-60"/>
                </g>
            </g>
            <g pointer-events="none" class="mark-group role-axis" aria-roledescription="axis" aria-label="X-axis titled 'Strict Parsing' for a linear scale with values from 0 to 24,000,000">
                <path class="background" aria-hidden="true" d="M585.5 102.5Z"/>
                <g class="mark-rule role-axis-tick" stroke="#888">
                    <path d="M585.5 102.5v5M627.5 102.5v5M668.5 102.5v5M710.5 102.5v5M752.5 102.5v5"/>
                </g>
                <g class="mark-text role-axis-label" font-family="sans-serif" font-size="10" fill="#000">
                    <text transform="translate(585.5 117.5)">0</text>
                    <text text-anchor="middle" transform="translate(668.833 117.5)">10,000,000</text>
                    <text text-anchor="middle" transform="translate(752.167 117.5)">20,000,000</text>
                </g>
                <path stroke="#888" d="M585.5 102.5h200" class="mark-rule role-axis-domain"/>
                <text text-anchor="middle" transform="translate(685.5 132.5)" font-family="sans-serif" font-size="11" font-weight="bold" fill="#000" class="mark-text role-axis-title">Strict Parsing</text>
            </g>
            <g pointer-events="none" class="mark-group role-axis" aria-roledescription="axis" aria-label="Y-axis for a discrete scale with 4 values: ts-runtime-checks, typia, spectypes, (median)">
                <path class="background" aria-hidden="true" d="M585.5 42.5Z"/>
                <g class="mark-rule role-axis-tick" stroke="#888">
                    <path d="M585.5 49.5h-5M585.5 64.5h-5M585.5 79.5h-5M585.5 94.5h-5"/>
                </g>
                <g class="mark-text role-axis-label" text-anchor="end" font-family="sans-serif" font-size="10" fill="#000">
                    <text transform="translate(578.5 52.5)">ts-runtime-checks</text>
                    <text transform="translate(578.5 67.5)">typia</text>
                    <text transform="translate(578.5 82.5)">spectypes</text>
                    <text transform="translate(578.5 97.5)">(median)</text>
                </g>
                <path stroke="#888" d="M585.5 42.5v60" class="mark-rule role-axis-domain"/>
            </g>
            <g class="mark-rect role-mark child__Strict_Parsing_marks" aria-roledescription="rect mark container">
                <path d="M585 42.75h195.551v13.5H585Z" fill="#54a24b"/>
                <path d="M585 57.75h164.216v13.5H585Z" fill="#eeca3b"/>
                <path d="M585 72.75h163.013v13.5H585Z" fill="#72b7b2"/>
                <path d="M585 87.75h5.976v13.5H585Z" fill="#4c78a8"/>
            </g>
        </g>
        <g class="mark-group role-scope child__Loose_Assertion_group" aria-roledescription="group mark container">
            <path class="background" aria-hidden="true" d="M194.5 156.5h200v60h-200Z" stroke="#ddd"/>
            <g class="mark-group role-axis" aria-roledescription="axis" aria-label="X-axis for a linear scale with values from 0 to 110,000,000">
                <path class="background" aria-hidden="true" d="M194.5 216.5Z" pointer-events="none"/>
                <g class="mark-rule role-axis-grid" pointer-events="none" stroke="#ddd">
                    <path d="M194.5 216.5v-60M230.5 216.5v-60M267.5 216.5v-60M303.5 216.5v-60M339.5 216.5v-60M376.5 216.5v-60"/>
                </g>
            </g>
            <g pointer-events="none" class="mark-group role-axis" aria-roledescription="axis" aria-label="X-axis titled 'Loose Assertion' for a linear scale with values from 0 to 110,000,000">
                <path class="background" aria-hidden="true" d="M194.5 216.5Z"/>
                <g class="mark-rule role-axis-tick" stroke="#888">
                    <path d="M194.5 216.5v5M230.5 216.5v5M267.5 216.5v5M303.5 216.5v5M339.5 216.5v5M376.5 216.5v5"/>
                </g>
                <g class="mark-text role-axis-label" font-family="sans-serif" font-size="10" fill="#000">
                    <text transform="translate(194.5 231.5)">0</text>
                    <text text-anchor="middle" transform="translate(376.318 231.5)">100,000,000</text>
                </g>
                <path stroke="#888" d="M194.5 216.5h200" class="mark-rule role-axis-domain"/>
                <text text-anchor="middle" transform="translate(294.5 246.5)" font-family="sans-serif" font-size="11" font-weight="bold" fill="#000" class="mark-text role-axis-title">Loose Assertion</text>
            </g>
            <g pointer-events="none" class="mark-group role-axis" aria-roledescription="axis" aria-label="Y-axis for a discrete scale with 4 values: ts-runtime-checks, typia, spectypes, (median)">
                <path class="background" aria-hidden="true" d="M194.5 156.5Z"/>
                <g class="mark-rule role-axis-tick" stroke="#888">
                    <path d="M194.5 163.5h-5M194.5 178.5h-5M194.5 193.5h-5M194.5 208.5h-5"/>
                </g>
                <g class="mark-text role-axis-label" text-anchor="end" font-family="sans-serif" font-size="10" fill="#000">
                    <text transform="translate(187.5 166.5)">ts-runtime-checks</text>
                    <text transform="translate(187.5 181.5)">typia</text>
                    <text transform="translate(187.5 196.5)">spectypes</text>
                    <text transform="translate(187.5 211.5)">(median)</text>
                </g>
                <path stroke="#888" d="M194.5 156.5v60" class="mark-rule role-axis-domain"/>
            </g>
            <g class="mark-rect role-mark child__Loose_Assertion_marks" aria-roledescription="rect mark container">
                <path d="M194 156.75h194.723v13.5H194Z" fill="#54a24b"/>
                <path d="M194 171.75h179.66v13.5H194Z" fill="#eeca3b"/>
                <path d="M194 186.75h136.169v13.5H194Z" fill="#72b7b2"/>
                <path d="M194 201.75h1.695v13.5H194Z" fill="#4c78a8"/>
            </g>
        </g>
        <g class="mark-group role-scope child__Strict_Assertion_group" aria-roledescription="group mark container">
            <path class="background" aria-hidden="true" d="M585.5 156.5h200v60h-200Z" stroke="#ddd"/>
            <g class="mark-group role-axis" aria-roledescription="axis" aria-label="X-axis for a linear scale with values from 0 to 24,000,000">
                <path class="background" aria-hidden="true" d="M585.5 216.5Z" pointer-events="none"/>
                <g class="mark-rule role-axis-grid" pointer-events="none" stroke="#ddd">
                    <path d="M585.5 216.5v-60M627.5 216.5v-60M668.5 216.5v-60M710.5 216.5v-60M752.5 216.5v-60"/>
                </g>
            </g>
            <g pointer-events="none" class="mark-group role-axis" aria-roledescription="axis" aria-label="X-axis titled 'Strict Assertion' for a linear scale with values from 0 to 24,000,000">
                <path class="background" aria-hidden="true" d="M585.5 216.5Z"/>
                <g class="mark-rule role-axis-tick" stroke="#888">
                    <path d="M585.5 216.5v5M627.5 216.5v5M668.5 216.5v5M710.5 216.5v5M752.5 216.5v5"/>
                </g>
                <g class="mark-text role-axis-label" font-family="sans-serif" font-size="10" fill="#000">
                    <text transform="translate(585.5 231.5)">0</text>
                    <text text-anchor="middle" transform="translate(668.833 231.5)">10,000,000</text>
                    <text text-anchor="middle" transform="translate(752.167 231.5)">20,000,000</text>
                </g>
                <path stroke="#888" d="M585.5 216.5h200" class="mark-rule role-axis-domain"/>
                <text text-anchor="middle" transform="translate(685.5 246.5)" font-family="sans-serif" font-size="11" font-weight="bold" fill="#000" class="mark-text role-axis-title">Strict Assertion</text>
            </g>
            <g pointer-events="none" class="mark-group role-axis" aria-roledescription="axis" aria-label="Y-axis for a discrete scale with 4 values: @sinclair/typebox, ts-runtime-checks, spectypes, (median)">
                <path class="background" aria-hidden="true" d="M585.5 156.5Z"/>
                <g class="mark-rule role-axis-tick" stroke="#888">
                    <path d="M585.5 163.5h-5M585.5 178.5h-5M585.5 193.5h-5M585.5 208.5h-5"/>
                </g>
                <g class="mark-text role-axis-label" text-anchor="end" font-family="sans-serif" font-size="10" fill="#000">
                    <text transform="translate(578.5 166.5)">@sinclair/typebox</text>
                    <text transform="translate(578.5 181.5)">ts-runtime-checks</text>
                    <text transform="translate(578.5 196.5)">spectypes</text>
                    <text transform="translate(578.5 211.5)">(median)</text>
                </g>
                <path stroke="#888" d="M585.5 156.5v60" class="mark-rule role-axis-domain"/>
            </g>
            <g class="mark-rect role-mark child__Strict_Assertion_marks" aria-roledescription="rect mark container">
                <path d="M585 156.75h196.524v13.5H585Z" fill="#f58518"/>
                <path d="M585 171.75h192.637v13.5H585Z" fill="#54a24b"/>
                <path d="M585 186.75h153.957v13.5H585Z" fill="#72b7b2"/>
                <path d="M585 201.75h5.948v13.5H585Z" fill="#4c78a8"/>
            </g>
        </g>
        <g class="mark-group role-title">
            <path class="background" aria-hidden="true" d="M421.333 5Z" pointer-events="none"/>
            <text text-anchor="middle" transform="translate(421.333 18)" font-family="sans-serif" font-size="16" fill="#000" class="mark-text role-title-text" aria-roledescription="title" aria-label="Title text 'Top 3 packages for each benchmark + median, (ops count, better ⯈)'" pointer-events="none">Top 3 packages for each benchmark + median, (ops count, better ⯈)</text>
        </g>
    </g>
</svg>
