<svg xmlns="http://www.w3.org/2000/svg" class="marks" width="842" height="254">
    <path fill="#fff" d="M0 0h842v254H0z"/>
    <g class="mark-group role-frame root" aria-roledescription="group mark container" fill="none" stroke-miterlimit="10">
        <path class="background" aria-hidden="true" d="M200 42Z"/>
        <g class="mark-group role-scope child__Safe_Parsing_group" aria-roledescription="group mark container">
            <path class="background" aria-hidden="true" d="M200.5 42.5h200v60h-200Z" stroke="#ddd"/>
            <g class="mark-group role-axis" aria-hidden="true">
                <path class="background" aria-hidden="true" d="M200.5 102.5Z" pointer-events="none"/>
                <g class="mark-rule role-axis-grid" pointer-events="none" stroke="#ddd">
                    <path d="M200.5 102.5v-60M236.5 102.5v-60M271.5 102.5v-60M307.5 102.5v-60M343.5 102.5v-60M379.5 102.5v-60"/>
                </g>
            </g>
            <g pointer-events="none" class="mark-group role-axis" aria-roledescription="axis" aria-label="X-axis titled 'Safe Parsing' for a linear scale with values from 0 to 28,000,000">
                <path class="background" aria-hidden="true" d="M200.5 102.5Z"/>
                <g class="mark-rule role-axis-tick" stroke="#888">
                    <path d="M200.5 102.5v5M236.5 102.5v5M271.5 102.5v5M307.5 102.5v5M343.5 102.5v5M379.5 102.5v5"/>
                </g>
                <g class="mark-text role-axis-label" font-family="sans-serif" font-size="10" fill="#000">
                    <text transform="translate(200.5 117.5)">0</text>
                    <text text-anchor="middle" transform="translate(379.071 117.5)">25,000,000</text>
                </g>
                <path stroke="#888" d="M200.5 102.5h200" class="mark-rule role-axis-domain"/>
                <text text-anchor="middle" transform="translate(300.5 132.5)" font-family="sans-serif" font-size="11" font-weight="bold" fill="#000" class="mark-text role-axis-title">Safe Parsing</text>
            </g>
            <g pointer-events="none" class="mark-group role-axis" aria-roledescription="axis" aria-label="Y-axis for a discrete scale with 4 values: typia, spectypes, rescript-struct, (median)">
                <path class="background" aria-hidden="true" d="M200.5 42.5Z"/>
                <g class="mark-rule role-axis-tick" stroke="#888">
                    <path d="M200.5 49.5h-5M200.5 64.5h-5M200.5 79.5h-5M200.5 94.5h-5"/>
                </g>
                <g class="mark-text role-axis-label" text-anchor="end" font-family="sans-serif" font-size="10" fill="#000">
                    <text transform="translate(193.5 52.5)">typia</text>
                    <text transform="translate(193.5 67.5)">spectypes</text>
                    <text transform="translate(193.5 82.5)">rescript-struct</text>
                    <text transform="translate(193.5 97.5)">(median)</text>
                </g>
                <path stroke="#888" d="M200.5 42.5v60" class="mark-rule role-axis-domain"/>
            </g>
            <g class="mark-rect role-mark child__Safe_Parsing_marks" aria-roledescription="rect mark container">
                <path aria-label="Safe Parsing: 26474286; name: typia" aria-roledescription="bar" d="M200 42.75h189.102v13.5H200Z" fill="#b279a2"/>
                <path aria-label="Safe Parsing: 16505527; name: spectypes" aria-roledescription="bar" d="M200 57.75h117.897v13.5H200Z" fill="#54a24b"/>
                <path aria-label="Safe Parsing: 10448700; name: rescript-struct" aria-roledescription="bar" d="M200 72.75h74.634v13.5H200Z" fill="#72b7b2"/>
                <path aria-label="Safe Parsing: 752982; name: (median)" aria-roledescription="bar" d="M200 87.75h5.378v13.5H200Z" fill="#4c78a8"/>
            </g>
        </g>
        <g class="mark-group role-scope child__Strict_Parsing_group" aria-roledescription="group mark container">
            <path class="background" aria-hidden="true" d="M624.5 42.5h200v60h-200Z" stroke="#ddd"/>
            <g class="mark-group role-axis" aria-hidden="true">
                <path class="background" aria-hidden="true" d="M624.5 102.5Z" pointer-events="none"/>
                <g class="mark-rule role-axis-grid" pointer-events="none" stroke="#ddd">
                    <path d="M624.5 102.5v-60M674.5 102.5v-60M724.5 102.5v-60M774.5 102.5v-60M824.5 102.5v-60"/>
                </g>
            </g>
            <g pointer-events="none" class="mark-group role-axis" aria-roledescription="axis" aria-label="X-axis titled 'Strict Parsing' for a linear scale with values from 0 to 20,000,000">
                <path class="background" aria-hidden="true" d="M624.5 102.5Z"/>
                <g class="mark-rule role-axis-tick" stroke="#888">
                    <path d="M624.5 102.5v5M674.5 102.5v5M724.5 102.5v5M774.5 102.5v5M824.5 102.5v5"/>
                </g>
                <g class="mark-text role-axis-label" font-family="sans-serif" font-size="10" fill="#000">
                    <text transform="translate(624.5 117.5)">0</text>
                    <text text-anchor="end" transform="translate(824.5 117.5)">20,000,000</text>
                </g>
                <path stroke="#888" d="M624.5 102.5h200" class="mark-rule role-axis-domain"/>
                <text text-anchor="middle" transform="translate(724.5 132.5)" font-family="sans-serif" font-size="11" font-weight="bold" fill="#000" class="mark-text role-axis-title">Strict Parsing</text>
            </g>
            <g pointer-events="none" class="mark-group role-axis" aria-roledescription="axis" aria-label="Y-axis for a discrete scale with 4 values: ts-runtime-checks, typia, spectypes, (median)">
                <path class="background" aria-hidden="true" d="M624.5 42.5Z"/>
                <g class="mark-rule role-axis-tick" stroke="#888">
                    <path d="M624.5 49.5h-5M624.5 64.5h-5M624.5 79.5h-5M624.5 94.5h-5"/>
                </g>
                <g class="mark-text role-axis-label" text-anchor="end" font-family="sans-serif" font-size="10" fill="#000">
                    <text transform="translate(617.5 52.5)">ts-runtime-checks</text>
                    <text transform="translate(617.5 67.5)">typia</text>
                    <text transform="translate(617.5 82.5)">spectypes</text>
                    <text transform="translate(617.5 97.5)">(median)</text>
                </g>
                <path stroke="#888" d="M624.5 42.5v60" class="mark-rule role-axis-domain"/>
            </g>
            <g class="mark-rect role-mark child__Strict_Parsing_marks" aria-roledescription="rect mark container">
                <path aria-label="Strict Parsing: 19023350; name: ts-runtime-checks" aria-roledescription="bar" d="M624 42.75h190.234v13.5H624Z" fill="#eeca3b"/>
                <path aria-label="Strict Parsing: 17758501; name: typia" aria-roledescription="bar" d="M624 57.75h177.585v13.5H624Z" fill="#b279a2"/>
                <path aria-label="Strict Parsing: 13977839; name: spectypes" aria-roledescription="bar" d="M624 72.75h139.778v13.5H624Z" fill="#54a24b"/>
                <path aria-label="Strict Parsing: 733551; name: (median)" aria-roledescription="bar" d="M624 87.75h7.336v13.5H624Z" fill="#4c78a8"/>
            </g>
        </g>
        <g class="mark-group role-scope child__Loose_Assertion_group" aria-roledescription="group mark container">
            <path class="background" aria-hidden="true" d="M200.5 156.5h200v60h-200Z" stroke="#ddd"/>
            <g class="mark-group role-axis" aria-hidden="true">
                <path class="background" aria-hidden="true" d="M200.5 216.5Z" pointer-events="none"/>
                <g class="mark-rule role-axis-grid" pointer-events="none" stroke="#ddd">
                    <path d="M200.5 216.5v-60M244.5 216.5v-60M289.5 216.5v-60M333.5 216.5v-60M378.5 216.5v-60"/>
                </g>
            </g>
            <g pointer-events="none" class="mark-group role-axis" aria-roledescription="axis" aria-label="X-axis titled 'Loose Assertion' for a linear scale with values from 0 to 90,000,000">
                <path class="background" aria-hidden="true" d="M200.5 216.5Z"/>
                <g class="mark-rule role-axis-tick" stroke="#888">
                    <path d="M200.5 216.5v5M244.5 216.5v5M289.5 216.5v5M333.5 216.5v5M378.5 216.5v5"/>
                </g>
                <g class="mark-text role-axis-label" font-family="sans-serif" font-size="10" fill="#000">
                    <text transform="translate(200.5 231.5)">0</text>
                    <text text-anchor="middle" transform="translate(289.389 231.5)">40,000,000</text>
                    <text text-anchor="middle" transform="translate(378.278 231.5)">80,000,000</text>
                </g>
                <path stroke="#888" d="M200.5 216.5h200" class="mark-rule role-axis-domain"/>
                <text text-anchor="middle" transform="translate(300.5 246.5)" font-family="sans-serif" font-size="11" font-weight="bold" fill="#000" class="mark-text role-axis-title">Loose Assertion</text>
            </g>
            <g pointer-events="none" class="mark-group role-axis" aria-roledescription="axis" aria-label="Y-axis for a discrete scale with 4 values: ts-runtime-checks, @sinclair/typebox-(ahead-of-time), typia, (median)">
                <path class="background" aria-hidden="true" d="M200.5 156.5Z"/>
                <g class="mark-rule role-axis-tick" stroke="#888">
                    <path d="M200.5 163.5h-5M200.5 178.5h-5M200.5 193.5h-5M200.5 208.5h-5"/>
                </g>
                <g class="mark-text role-axis-label" text-anchor="end" font-family="sans-serif" font-size="10" fill="#000">
                    <text transform="translate(193.5 166.5)">ts-runtime-checks</text>
                    <text transform="translate(193.5 181.5)">@sinclair/typebox-(ah…</text>
                    <text transform="translate(193.5 196.5)">typia</text>
                    <text transform="translate(193.5 211.5)">(median)</text>
                </g>
                <path stroke="#888" d="M200.5 156.5v60" class="mark-rule role-axis-domain"/>
            </g>
            <g class="mark-rect role-mark child__Loose_Assertion_marks" aria-roledescription="rect mark container">
                <path aria-label="Loose Assertion: 81450516; name: ts-runtime-checks" aria-roledescription="bar" d="M200 156.75h181.001v13.5H200Z" fill="#eeca3b"/>
                <path aria-label="Loose Assertion: 69140392; name: @sinclair/typebox-(ahead-of-time)" aria-roledescription="bar" d="M200 171.75h153.645v13.5H200Z" fill="#f58518"/>
                <path aria-label="Loose Assertion: 58697534; name: typia" aria-roledescription="bar" d="M200 186.75h130.439v13.5H200Z" fill="#b279a2"/>
                <path aria-label="Loose Assertion: 889980.5; name: (median)" aria-roledescription="bar" d="M200 201.75h1.978v13.5H200Z" fill="#4c78a8"/>
            </g>
        </g>
        <g class="mark-group role-scope child__Strict_Assertion_group" aria-roledescription="group mark container">
            <path class="background" aria-hidden="true" d="M624.5 156.5h200v60h-200Z" stroke="#ddd"/>
            <g class="mark-group role-axis" aria-hidden="true">
                <path class="background" aria-hidden="true" d="M624.5 216.5Z" pointer-events="none"/>
                <g class="mark-rule role-axis-grid" pointer-events="none" stroke="#ddd">
                    <path d="M624.5 216.5v-60M674.5 216.5v-60M724.5 216.5v-60M774.5 216.5v-60M824.5 216.5v-60"/>
                </g>
            </g>
            <g pointer-events="none" class="mark-group role-axis" aria-roledescription="axis" aria-label="X-axis titled 'Strict Assertion' for a linear scale with values from 0 to 20,000,000">
                <path class="background" aria-hidden="true" d="M624.5 216.5Z"/>
                <g class="mark-rule role-axis-tick" stroke="#888">
                    <path d="M624.5 216.5v5M674.5 216.5v5M724.5 216.5v5M774.5 216.5v5M824.5 216.5v5"/>
                </g>
                <g class="mark-text role-axis-label" font-family="sans-serif" font-size="10" fill="#000">
                    <text transform="translate(624.5 231.5)">0</text>
                    <text text-anchor="end" transform="translate(824.5 231.5)">20,000,000</text>
                </g>
                <path stroke="#888" d="M624.5 216.5h200" class="mark-rule role-axis-domain"/>
                <text text-anchor="middle" transform="translate(724.5 246.5)" font-family="sans-serif" font-size="11" font-weight="bold" fill="#000" class="mark-text role-axis-title">Strict Assertion</text>
            </g>
            <g pointer-events="none" class="mark-group role-axis" aria-roledescription="axis" aria-label="Y-axis for a discrete scale with 4 values: ts-runtime-checks, @sinclair/typebox-(ahead-of-time), @sinclair/typebox-(just-in-time), (median)">
                <path class="background" aria-hidden="true" d="M624.5 156.5Z"/>
                <g class="mark-rule role-axis-tick" stroke="#888">
                    <path d="M624.5 163.5h-5M624.5 178.5h-5M624.5 193.5h-5M624.5 208.5h-5"/>
                </g>
                <g class="mark-text role-axis-label" text-anchor="end" font-family="sans-serif" font-size="10" fill="#000">
                    <text transform="translate(617.5 166.5)">ts-runtime-checks</text>
                    <text transform="translate(617.5 181.5)">@sinclair/typebox-(ah…</text>
                    <text transform="translate(617.5 196.5)">@sinclair/typebox-(ju…</text>
                    <text transform="translate(617.5 211.5)">(median)</text>
                </g>
                <path stroke="#888" d="M624.5 156.5v60" class="mark-rule role-axis-domain"/>
            </g>
            <g class="mark-rect role-mark child__Strict_Assertion_marks" aria-roledescription="rect mark container">
                <path aria-label="Strict Assertion: 17652982; name: ts-runtime-checks" aria-roledescription="bar" d="M624 156.75h176.53v13.5H624Z" fill="#eeca3b"/>
                <path aria-label="Strict Assertion: 19434544; name: @sinclair/typebox-(ahead-of-time)" aria-roledescription="bar" d="M624 171.75h194.345v13.5H624Z" fill="#f58518"/>
                <path aria-label="Strict Assertion: 17087529; name: @sinclair/typebox-(just-in-time)" aria-roledescription="bar" d="M624 186.75h170.875v13.5H624Z" fill="#e45756"/>
                <path aria-label="Strict Assertion: 654990; name: (median)" aria-roledescription="bar" d="M624 201.75h6.55v13.5H624Z" fill="#4c78a8"/>
            </g>
        </g>
        <g class="mark-group role-title">
            <path class="background" aria-hidden="true" d="M421 5Z" pointer-events="none"/>
            <text text-anchor="middle" transform="translate(421 18)" font-family="sans-serif" font-size="16" fill="#000" class="mark-text role-title-text" aria-roledescription="title" aria-label="Title text 'Top 3 packages for each benchmark + median, (ops count, better ⯈)'" pointer-events="none">Top 3 packages for each benchmark + median, (ops count, better ⯈)</text>
        </g>
    </g>
</svg>
