<svg xmlns="http://www.w3.org/2000/svg" class="marks" width="844" height="254">
    <path fill="#fff" d="M0 0h844v254H0z"/>
    <g class="mark-group role-frame root" aria-roledescription="group mark container" fill="none" stroke-miterlimit="10">
        <path class="background" aria-hidden="true" d="M189 42Z"/>
        <g class="mark-group role-scope child__Safe_Parsing_group" aria-roledescription="group mark container">
            <path class="background" aria-hidden="true" d="M189.5 42.5h200v60h-200Z" stroke="#ddd"/>
            <g class="mark-group role-axis" aria-hidden="true">
                <path class="background" aria-hidden="true" d="M189.5 102.5Z" pointer-events="none"/>
                <g class="mark-rule role-axis-grid" pointer-events="none" stroke="#ddd">
                    <path d="M189.5 102.5v-60M222.5 102.5v-60M256.5 102.5v-60M289.5 102.5v-60M322.5 102.5v-60M356.5 102.5v-60M389.5 102.5v-60"/>
                </g>
            </g>
            <g pointer-events="none" class="mark-group role-axis" aria-roledescription="axis" aria-label="X-axis titled 'Safe Parsing' for a linear scale with values from 0 to 30,000,000">
                <path class="background" aria-hidden="true" d="M189.5 102.5Z"/>
                <g class="mark-rule role-axis-tick" stroke="#888">
                    <path d="M189.5 102.5v5M222.5 102.5v5M256.5 102.5v5M289.5 102.5v5M322.5 102.5v5M356.5 102.5v5M389.5 102.5v5"/>
                </g>
                <g class="mark-text role-axis-label" font-family="sans-serif" font-size="10" fill="#000">
                    <text transform="translate(189.5 117.5)">0</text>
                    <text text-anchor="end" transform="translate(389.5 117.5)">30,000,000</text>
                </g>
                <path stroke="#888" d="M189.5 102.5h200" class="mark-rule role-axis-domain"/>
                <text text-anchor="middle" transform="translate(289.5 132.5)" font-family="sans-serif" font-size="11" font-weight="bold" fill="#000" class="mark-text role-axis-title">Safe Parsing</text>
            </g>
            <g pointer-events="none" class="mark-group role-axis" aria-roledescription="axis" aria-label="Y-axis for a discrete scale with 4 values: typia, spectypes, rescript-struct, (median)">
                <path class="background" aria-hidden="true" d="M189.5 42.5Z"/>
                <g class="mark-rule role-axis-tick" stroke="#888">
                    <path d="M189.5 49.5h-5M189.5 64.5h-5M189.5 79.5h-5M189.5 94.5h-5"/>
                </g>
                <g class="mark-text role-axis-label" text-anchor="end" font-family="sans-serif" font-size="10" fill="#000">
                    <text transform="translate(182.5 52.5)">typia</text>
                    <text transform="translate(182.5 67.5)">spectypes</text>
                    <text transform="translate(182.5 82.5)">rescript-struct</text>
                    <text transform="translate(182.5 97.5)">(median)</text>
                </g>
                <path stroke="#888" d="M189.5 42.5v60" class="mark-rule role-axis-domain"/>
            </g>
            <g class="mark-rect role-mark child__Safe_Parsing_marks" aria-roledescription="rect mark container">
                <path aria-label="Safe Parsing: 28710007; name: typia" aria-roledescription="bar" d="M189 42.75h191.4v13.5H189Z" fill="#b279a2"/>
                <path aria-label="Safe Parsing: 19705413; name: spectypes" aria-roledescription="bar" d="M189 57.75h131.37v13.5H189Z" fill="#54a24b"/>
                <path aria-label="Safe Parsing: 12867184; name: rescript-struct" aria-roledescription="bar" d="M189 72.75h85.781v13.5H189Z" fill="#72b7b2"/>
                <path aria-label="Safe Parsing: 885957; name: (median)" aria-roledescription="bar" d="M189 87.75h5.906v13.5H189Z" fill="#4c78a8"/>
            </g>
        </g>
        <g class="mark-group role-scope child__Strict_Parsing_group" aria-roledescription="group mark container">
            <path class="background" aria-hidden="true" d="M616.5 42.5h200v60h-200Z" stroke="#ddd"/>
            <g class="mark-group role-axis" aria-hidden="true">
                <path class="background" aria-hidden="true" d="M616.5 102.5Z" pointer-events="none"/>
                <g class="mark-rule role-axis-grid" pointer-events="none" stroke="#ddd">
                    <path d="M616.5 102.5v-60M661.5 102.5v-60M707.5 102.5v-60M752.5 102.5v-60M798.5 102.5v-60"/>
                </g>
            </g>
            <g pointer-events="none" class="mark-group role-axis" aria-roledescription="axis" aria-label="X-axis titled 'Strict Parsing' for a linear scale with values from 0 to 22,000,000">
                <path class="background" aria-hidden="true" d="M616.5 102.5Z"/>
                <g class="mark-rule role-axis-tick" stroke="#888">
                    <path d="M616.5 102.5v5M661.5 102.5v5M707.5 102.5v5M752.5 102.5v5M798.5 102.5v5"/>
                </g>
                <g class="mark-text role-axis-label" font-family="sans-serif" font-size="10" fill="#000">
                    <text transform="translate(616.5 117.5)">0</text>
                    <text text-anchor="middle" transform="translate(707.41 117.5)">10,000,000</text>
                    <text text-anchor="middle" transform="translate(798.318 117.5)">20,000,000</text>
                </g>
                <path stroke="#888" d="M616.5 102.5h200" class="mark-rule role-axis-domain"/>
                <text text-anchor="middle" transform="translate(716.5 132.5)" font-family="sans-serif" font-size="11" font-weight="bold" fill="#000" class="mark-text role-axis-title">Strict Parsing</text>
            </g>
            <g pointer-events="none" class="mark-group role-axis" aria-roledescription="axis" aria-label="Y-axis for a discrete scale with 4 values: ts-runtime-checks, typia, spectypes, (median)">
                <path class="background" aria-hidden="true" d="M616.5 42.5Z"/>
                <g class="mark-rule role-axis-tick" stroke="#888">
                    <path d="M616.5 49.5h-5M616.5 64.5h-5M616.5 79.5h-5M616.5 94.5h-5"/>
                </g>
                <g class="mark-text role-axis-label" text-anchor="end" font-family="sans-serif" font-size="10" fill="#000">
                    <text transform="translate(609.5 52.5)">ts-runtime-checks</text>
                    <text transform="translate(609.5 67.5)">typia</text>
                    <text transform="translate(609.5 82.5)">spectypes</text>
                    <text transform="translate(609.5 97.5)">(median)</text>
                </g>
                <path stroke="#888" d="M616.5 42.5v60" class="mark-rule role-axis-domain"/>
            </g>
            <g class="mark-rect role-mark child__Strict_Parsing_marks" aria-roledescription="rect mark container">
                <path aria-label="Strict Parsing: 20835143; name: ts-runtime-checks" aria-roledescription="bar" d="M616 42.75h189.41v13.5H616Z" fill="#eeca3b"/>
                <path aria-label="Strict Parsing: 20661435; name: typia" aria-roledescription="bar" d="M616 57.75h187.831v13.5H616Z" fill="#b279a2"/>
                <path aria-label="Strict Parsing: 17533282; name: spectypes" aria-roledescription="bar" d="M616 72.75h159.393v13.5H616Z" fill="#54a24b"/>
                <path aria-label="Strict Parsing: 900859; name: (median)" aria-roledescription="bar" d="M616 87.75h8.19v13.5H616Z" fill="#4c78a8"/>
            </g>
        </g>
        <g class="mark-group role-scope child__Loose_Assertion_group" aria-roledescription="group mark container">
            <path class="background" aria-hidden="true" d="M189.5 156.5h200v60h-200Z" stroke="#ddd"/>
            <g class="mark-group role-axis" aria-hidden="true">
                <path class="background" aria-hidden="true" d="M189.5 216.5Z" pointer-events="none"/>
                <g class="mark-rule role-axis-grid" pointer-events="none" stroke="#ddd">
                    <path d="M189.5 216.5v-60M229.5 216.5v-60M269.5 216.5v-60M309.5 216.5v-60M349.5 216.5v-60M389.5 216.5v-60"/>
                </g>
            </g>
            <g pointer-events="none" class="mark-group role-axis" aria-roledescription="axis" aria-label="X-axis titled 'Loose Assertion' for a linear scale with values from 0 to 100,000,000">
                <path class="background" aria-hidden="true" d="M189.5 216.5Z"/>
                <g class="mark-rule role-axis-tick" stroke="#888">
                    <path d="M189.5 216.5v5M229.5 216.5v5M269.5 216.5v5M309.5 216.5v5M349.5 216.5v5M389.5 216.5v5"/>
                </g>
                <g class="mark-text role-axis-label" font-family="sans-serif" font-size="10" fill="#000">
                    <text transform="translate(189.5 231.5)">0</text>
                    <text text-anchor="middle" transform="translate(269.5 231.5)">40,000,000</text>
                    <text text-anchor="middle" transform="translate(349.5 231.5)">80,000,000</text>
                </g>
                <path stroke="#888" d="M189.5 216.5h200" class="mark-rule role-axis-domain"/>
                <text text-anchor="middle" transform="translate(289.5 246.5)" font-family="sans-serif" font-size="11" font-weight="bold" fill="#000" class="mark-text role-axis-title">Loose Assertion</text>
            </g>
            <g pointer-events="none" class="mark-group role-axis" aria-roledescription="axis" aria-label="Y-axis for a discrete scale with 4 values: ts-runtime-checks, @sinclair/typebox-(ahead-of-time), typia, (median)">
                <path class="background" aria-hidden="true" d="M189.5 156.5Z"/>
                <g class="mark-rule role-axis-tick" stroke="#888">
                    <path d="M189.5 163.5h-5M189.5 178.5h-5M189.5 193.5h-5M189.5 208.5h-5"/>
                </g>
                <g class="mark-text role-axis-label" text-anchor="end" font-family="sans-serif" font-size="10" fill="#000">
                    <text transform="translate(182.5 166.5)">ts-runtime-checks</text>
                    <text transform="translate(182.5 181.5)">@sinclair/typebox-(ah…</text>
                    <text transform="translate(182.5 196.5)">typia</text>
                    <text transform="translate(182.5 211.5)">(median)</text>
                </g>
                <path stroke="#888" d="M189.5 156.5v60" class="mark-rule role-axis-domain"/>
            </g>
            <g class="mark-rect role-mark child__Loose_Assertion_marks" aria-roledescription="rect mark container">
                <path aria-label="Loose Assertion: 95177204; name: ts-runtime-checks" aria-roledescription="bar" d="M189 156.75h190.354v13.5H189Z" fill="#eeca3b"/>
                <path aria-label="Loose Assertion: 86779349; name: @sinclair/typebox-(ahead-of-time)" aria-roledescription="bar" d="M189 171.75h173.559v13.5H189Z" fill="#f58518"/>
                <path aria-label="Loose Assertion: 73392572; name: typia" aria-roledescription="bar" d="M189 186.75h146.785v13.5H189Z" fill="#b279a2"/>
                <path aria-label="Loose Assertion: 1099681; name: (median)" aria-roledescription="bar" d="M189 201.75h2.2v13.5H189Z" fill="#4c78a8"/>
            </g>
        </g>
        <g class="mark-group role-scope child__Strict_Assertion_group" aria-roledescription="group mark container">
            <path class="background" aria-hidden="true" d="M616.5 156.5h200v60h-200Z" stroke="#ddd"/>
            <g class="mark-group role-axis" aria-hidden="true">
                <path class="background" aria-hidden="true" d="M616.5 216.5Z" pointer-events="none"/>
                <g class="mark-rule role-axis-grid" pointer-events="none" stroke="#ddd">
                    <path d="M616.5 216.5v-60M658.5 216.5v-60M699.5 216.5v-60M741.5 216.5v-60M783.5 216.5v-60"/>
                </g>
            </g>
            <g pointer-events="none" class="mark-group role-axis" aria-roledescription="axis" aria-label="X-axis titled 'Strict Assertion' for a linear scale with values from 0 to 24,000,000">
                <path class="background" aria-hidden="true" d="M616.5 216.5Z"/>
                <g class="mark-rule role-axis-tick" stroke="#888">
                    <path d="M616.5 216.5v5M658.5 216.5v5M699.5 216.5v5M741.5 216.5v5M783.5 216.5v5"/>
                </g>
                <g class="mark-text role-axis-label" font-family="sans-serif" font-size="10" fill="#000">
                    <text transform="translate(616.5 231.5)">0</text>
                    <text text-anchor="middle" transform="translate(699.833 231.5)">10,000,000</text>
                    <text text-anchor="middle" transform="translate(783.167 231.5)">20,000,000</text>
                </g>
                <path stroke="#888" d="M616.5 216.5h200" class="mark-rule role-axis-domain"/>
                <text text-anchor="middle" transform="translate(716.5 246.5)" font-family="sans-serif" font-size="11" font-weight="bold" fill="#000" class="mark-text role-axis-title">Strict Assertion</text>
            </g>
            <g pointer-events="none" class="mark-group role-axis" aria-roledescription="axis" aria-label="Y-axis for a discrete scale with 4 values: ts-runtime-checks, @sinclair/typebox-(ahead-of-time), @sinclair/typebox-(just-in-time), (median)">
                <path class="background" aria-hidden="true" d="M616.5 156.5Z"/>
                <g class="mark-rule role-axis-tick" stroke="#888">
                    <path d="M616.5 163.5h-5M616.5 178.5h-5M616.5 193.5h-5M616.5 208.5h-5"/>
                </g>
                <g class="mark-text role-axis-label" text-anchor="end" font-family="sans-serif" font-size="10" fill="#000">
                    <text transform="translate(609.5 166.5)">ts-runtime-checks</text>
                    <text transform="translate(609.5 181.5)">@sinclair/typebox-(ah…</text>
                    <text transform="translate(609.5 196.5)">@sinclair/typebox-(ju…</text>
                    <text transform="translate(609.5 211.5)">(median)</text>
                </g>
                <path stroke="#888" d="M616.5 156.5v60" class="mark-rule role-axis-domain"/>
            </g>
            <g class="mark-rect role-mark child__Strict_Assertion_marks" aria-roledescription="rect mark container">
                <path aria-label="Strict Assertion: 20893014; name: ts-runtime-checks" aria-roledescription="bar" d="M616 156.75h174.108v13.5H616Z" fill="#eeca3b"/>
                <path aria-label="Strict Assertion: 22296714; name: @sinclair/typebox-(ahead-of-time)" aria-roledescription="bar" d="M616 171.75h185.806v13.5H616Z" fill="#f58518"/>
                <path aria-label="Strict Assertion: 20730662; name: @sinclair/typebox-(just-in-time)" aria-roledescription="bar" d="M616 186.75h172.756v13.5H616Z" fill="#e45756"/>
                <path aria-label="Strict Assertion: 835301; name: (median)" aria-roledescription="bar" d="M616 201.75h6.96v13.5H616Z" fill="#4c78a8"/>
            </g>
        </g>
        <g class="mark-group role-title">
            <path class="background" aria-hidden="true" d="M421.91 5Z" pointer-events="none"/>
            <text text-anchor="middle" transform="translate(421.91 18)" font-family="sans-serif" font-size="16" fill="#000" class="mark-text role-title-text" aria-roledescription="title" aria-label="Title text 'Top 3 packages for each benchmark + median, (ops count, better ⯈)'" pointer-events="none">Top 3 packages for each benchmark + median, (ops count, better ⯈)</text>
        </g>
    </g>
</svg>
