<svg xmlns="http://www.w3.org/2000/svg" class="marks" width="842" height="254">
    <path fill="#fff" d="M0 0h842v254H0z"/>
    <g class="mark-group role-frame root" aria-roledescription="group mark container" fill="none" stroke-miterlimit="10">
        <path class="background" aria-hidden="true" d="M209 42Z"/>
        <g class="mark-group role-scope child__Safe_Parsing_group" aria-roledescription="group mark container">
            <path class="background" aria-hidden="true" d="M209.5 42.5h200v60h-200Z" stroke="#ddd"/>
            <g class="mark-group role-axis" aria-hidden="true">
                <path class="background" aria-hidden="true" d="M209.5 102.5Z" pointer-events="none"/>
                <g class="mark-rule role-axis-grid" pointer-events="none" stroke="#ddd">
                    <path d="M209.5 102.5v-60M259.5 102.5v-60M309.5 102.5v-60M359.5 102.5v-60M409.5 102.5v-60"/>
                </g>
            </g>
            <g pointer-events="none" class="mark-group role-axis" aria-roledescription="axis" aria-label="X-axis titled 'Safe Parsing' for a linear scale with values from 0 to 40,000,000">
                <path class="background" aria-hidden="true" d="M209.5 102.5Z"/>
                <g class="mark-rule role-axis-tick" stroke="#888">
                    <path d="M209.5 102.5v5M259.5 102.5v5M309.5 102.5v5M359.5 102.5v5M409.5 102.5v5"/>
                </g>
                <g class="mark-text role-axis-label" font-family="sans-serif" font-size="10" fill="#000">
                    <text transform="translate(209.5 117.5)">0</text>
                    <text text-anchor="end" transform="translate(409.5 117.5)">40,000,000</text>
                </g>
                <path stroke="#888" d="M209.5 102.5h200" class="mark-rule role-axis-domain"/>
                <text text-anchor="middle" transform="translate(309.5 132.5)" font-family="sans-serif" font-size="11" font-weight="bold" fill="#000" class="mark-text role-axis-title">Safe Parsing</text>
            </g>
            <g pointer-events="none" class="mark-group role-axis" aria-roledescription="axis" aria-label="Y-axis for a discrete scale with 4 values: typia, rescript-struct, spectypes, (median)">
                <path class="background" aria-hidden="true" d="M209.5 42.5Z"/>
                <g class="mark-rule role-axis-tick" stroke="#888">
                    <path d="M209.5 49.5h-5M209.5 64.5h-5M209.5 79.5h-5M209.5 94.5h-5"/>
                </g>
                <g class="mark-text role-axis-label" text-anchor="end" font-family="sans-serif" font-size="10" fill="#000">
                    <text transform="translate(202.5 52.5)">typia</text>
                    <text transform="translate(202.5 67.5)">rescript-struct</text>
                    <text transform="translate(202.5 82.5)">spectypes</text>
                    <text transform="translate(202.5 97.5)">(median)</text>
                </g>
                <path stroke="#888" d="M209.5 42.5v60" class="mark-rule role-axis-domain"/>
            </g>
            <g class="mark-rect role-mark child__Safe_Parsing_marks" aria-roledescription="rect mark container">
                <path aria-label="Safe Parsing: 39500887; name: typia" aria-roledescription="bar" d="M209 42.75h197.504v13.5H209Z" fill="#b279a2"/>
                <path aria-label="Safe Parsing: 38091505; name: rescript-struct" aria-roledescription="bar" d="M209 57.75h190.458v13.5H209Z" fill="#72b7b2"/>
                <path aria-label="Safe Parsing: 25004185; name: spectypes" aria-roledescription="bar" d="M209 72.75h125.02v13.5H209Z" fill="#54a24b"/>
                <path aria-label="Safe Parsing: 1251410; name: (median)" aria-roledescription="bar" d="M209 87.75h6.257v13.5H209Z" fill="#4c78a8"/>
            </g>
        </g>
        <g class="mark-group role-scope child__Strict_Parsing_group" aria-roledescription="group mark container">
            <path class="background" aria-hidden="true" d="M615.5 42.5h200v60h-200Z" stroke="#ddd"/>
            <g class="mark-group role-axis" aria-hidden="true">
                <path class="background" aria-hidden="true" d="M615.5 102.5Z" pointer-events="none"/>
                <g class="mark-rule role-axis-grid" pointer-events="none" stroke="#ddd">
                    <path d="M615.5 102.5v-60M648.5 102.5v-60M682.5 102.5v-60M715.5 102.5v-60M748.5 102.5v-60M782.5 102.5v-60M815.5 102.5v-60"/>
                </g>
            </g>
            <g pointer-events="none" class="mark-group role-axis" aria-roledescription="axis" aria-label="X-axis titled 'Strict Parsing' for a linear scale with values from 0 to 30,000,000">
                <path class="background" aria-hidden="true" d="M615.5 102.5Z"/>
                <g class="mark-rule role-axis-tick" stroke="#888">
                    <path d="M615.5 102.5v5M648.5 102.5v5M682.5 102.5v5M715.5 102.5v5M748.5 102.5v5M782.5 102.5v5M815.5 102.5v5"/>
                </g>
                <g class="mark-text role-axis-label" font-family="sans-serif" font-size="10" fill="#000">
                    <text transform="translate(615.5 117.5)">0</text>
                    <text text-anchor="end" transform="translate(815.5 117.5)">30,000,000</text>
                </g>
                <path stroke="#888" d="M615.5 102.5h200" class="mark-rule role-axis-domain"/>
                <text text-anchor="middle" transform="translate(715.5 132.5)" font-family="sans-serif" font-size="11" font-weight="bold" fill="#000" class="mark-text role-axis-title">Strict Parsing</text>
            </g>
            <g pointer-events="none" class="mark-group role-axis" aria-roledescription="axis" aria-label="Y-axis for a discrete scale with 4 values: ts-runtime-checks, typia, spectypes, (median)">
                <path class="background" aria-hidden="true" d="M615.5 42.5Z"/>
                <g class="mark-rule role-axis-tick" stroke="#888">
                    <path d="M615.5 49.5h-5M615.5 64.5h-5M615.5 79.5h-5M615.5 94.5h-5"/>
                </g>
                <g class="mark-text role-axis-label" text-anchor="end" font-family="sans-serif" font-size="10" fill="#000">
                    <text transform="translate(608.5 52.5)">ts-runtime-checks</text>
                    <text transform="translate(608.5 67.5)">typia</text>
                    <text transform="translate(608.5 82.5)">spectypes</text>
                    <text transform="translate(608.5 97.5)">(median)</text>
                </g>
                <path stroke="#888" d="M615.5 42.5v60" class="mark-rule role-axis-domain"/>
            </g>
            <g class="mark-rect role-mark child__Strict_Parsing_marks" aria-roledescription="rect mark container">
                <path aria-label="Strict Parsing: 25296610; name: ts-runtime-checks" aria-roledescription="bar" d="M615 42.75h168.644v13.5H615Z" fill="#eeca3b"/>
                <path aria-label="Strict Parsing: 28712869; name: typia" aria-roledescription="bar" d="M615 57.75h191.42v13.5H615Z" fill="#b279a2"/>
                <path aria-label="Strict Parsing: 23245262; name: spectypes" aria-roledescription="bar" d="M615 72.75h154.968v13.5H615Z" fill="#54a24b"/>
                <path aria-label="Strict Parsing: 1167220; name: (median)" aria-roledescription="bar" d="M615 87.75h7.781v13.5H615Z" fill="#4c78a8"/>
            </g>
        </g>
        <g class="mark-group role-scope child__Loose_Assertion_group" aria-roledescription="group mark container">
            <path class="background" aria-hidden="true" d="M209.5 156.5h200v60h-200Z" stroke="#ddd"/>
            <g class="mark-group role-axis" aria-hidden="true">
                <path class="background" aria-hidden="true" d="M209.5 216.5Z" pointer-events="none"/>
                <g class="mark-rule role-axis-grid" pointer-events="none" stroke="#ddd">
                    <path d="M209.5 216.5v-60M242.5 216.5v-60M276.5 216.5v-60M309.5 216.5v-60M342.5 216.5v-60M376.5 216.5v-60M409.5 216.5v-60"/>
                </g>
            </g>
            <g pointer-events="none" class="mark-group role-axis" aria-roledescription="axis" aria-label="X-axis titled 'Loose Assertion' for a linear scale with values from 0 to 120,000,000">
                <path class="background" aria-hidden="true" d="M209.5 216.5Z"/>
                <g class="mark-rule role-axis-tick" stroke="#888">
                    <path d="M209.5 216.5v5M242.5 216.5v5M276.5 216.5v5M309.5 216.5v5M342.5 216.5v5M376.5 216.5v5M409.5 216.5v5"/>
                </g>
                <g class="mark-text role-axis-label" font-family="sans-serif" font-size="10" fill="#000">
                    <text transform="translate(209.5 231.5)">0</text>
                    <text text-anchor="end" transform="translate(409.5 231.5)">120,000,000</text>
                </g>
                <path stroke="#888" d="M209.5 216.5h200" class="mark-rule role-axis-domain"/>
                <text text-anchor="middle" transform="translate(309.5 246.5)" font-family="sans-serif" font-size="11" font-weight="bold" fill="#000" class="mark-text role-axis-title">Loose Assertion</text>
            </g>
            <g pointer-events="none" class="mark-group role-axis" aria-roledescription="axis" aria-label="Y-axis for a discrete scale with 4 values: @sinclair/typebox-(ahead-of-time), ts-runtime-checks, typia, (median)">
                <path class="background" aria-hidden="true" d="M209.5 156.5Z"/>
                <g class="mark-rule role-axis-tick" stroke="#888">
                    <path d="M209.5 163.5h-5M209.5 178.5h-5M209.5 193.5h-5M209.5 208.5h-5"/>
                </g>
                <g class="mark-text role-axis-label" text-anchor="end" font-family="sans-serif" font-size="10" fill="#000">
                    <text transform="translate(202.5 166.5)">@sinclair/typebox-(ah…</text>
                    <text transform="translate(202.5 181.5)">ts-runtime-checks</text>
                    <text transform="translate(202.5 196.5)">typia</text>
                    <text transform="translate(202.5 211.5)">(median)</text>
                </g>
                <path stroke="#888" d="M209.5 156.5v60" class="mark-rule role-axis-domain"/>
            </g>
            <g class="mark-rect role-mark child__Loose_Assertion_marks" aria-roledescription="rect mark container">
                <path aria-label="Loose Assertion: 117604514; name: @sinclair/typebox-(ahead-of-time)" aria-roledescription="bar" d="M209 156.75h196.008v13.5H209Z" fill="#f58518"/>
                <path aria-label="Loose Assertion: 117109419; name: ts-runtime-checks" aria-roledescription="bar" d="M209 171.75h195.182v13.5H209Z" fill="#eeca3b"/>
                <path aria-label="Loose Assertion: 115840922; name: typia" aria-roledescription="bar" d="M209 186.75h193.068v13.5H209Z" fill="#b279a2"/>
                <path aria-label="Loose Assertion: 1430359; name: (median)" aria-roledescription="bar" d="M209 201.75h2.384v13.5H209Z" fill="#4c78a8"/>
            </g>
        </g>
        <g class="mark-group role-scope child__Strict_Assertion_group" aria-roledescription="group mark container">
            <path class="background" aria-hidden="true" d="M615.5 156.5h200v60h-200Z" stroke="#ddd"/>
            <g class="mark-group role-axis" aria-hidden="true">
                <path class="background" aria-hidden="true" d="M615.5 216.5Z" pointer-events="none"/>
                <g class="mark-rule role-axis-grid" pointer-events="none" stroke="#ddd">
                    <path d="M615.5 216.5v-60M644.5 216.5v-60M672.5 216.5v-60M701.5 216.5v-60M729.5 216.5v-60M758.5 216.5v-60M786.5 216.5v-60M815.5 216.5v-60"/>
                </g>
            </g>
            <g pointer-events="none" class="mark-group role-axis" aria-roledescription="axis" aria-label="X-axis titled 'Strict Assertion' for a linear scale with values from 0 to 35,000,000">
                <path class="background" aria-hidden="true" d="M615.5 216.5Z"/>
                <g class="mark-rule role-axis-tick" stroke="#888">
                    <path d="M615.5 216.5v5M644.5 216.5v5M672.5 216.5v5M701.5 216.5v5M729.5 216.5v5M758.5 216.5v5M786.5 216.5v5M815.5 216.5v5"/>
                </g>
                <g class="mark-text role-axis-label" font-family="sans-serif" font-size="10" fill="#000">
                    <text transform="translate(615.5 231.5)">0</text>
                    <text text-anchor="end" transform="translate(815.5 231.5)">35,000,000</text>
                </g>
                <path stroke="#888" d="M615.5 216.5h200" class="mark-rule role-axis-domain"/>
                <text text-anchor="middle" transform="translate(715.5 246.5)" font-family="sans-serif" font-size="11" font-weight="bold" fill="#000" class="mark-text role-axis-title">Strict Assertion</text>
            </g>
            <g pointer-events="none" class="mark-group role-axis" aria-roledescription="axis" aria-label="Y-axis for a discrete scale with 4 values: @sinclair/typebox-(ahead-of-time), ts-runtime-checks, @sinclair/typebox-(just-in-time), (median)">
                <path class="background" aria-hidden="true" d="M615.5 156.5Z"/>
                <g class="mark-rule role-axis-tick" stroke="#888">
                    <path d="M615.5 163.5h-5M615.5 178.5h-5M615.5 193.5h-5M615.5 208.5h-5"/>
                </g>
                <g class="mark-text role-axis-label" text-anchor="end" font-family="sans-serif" font-size="10" fill="#000">
                    <text transform="translate(608.5 166.5)">@sinclair/typebox-(ah…</text>
                    <text transform="translate(608.5 181.5)">ts-runtime-checks</text>
                    <text transform="translate(608.5 196.5)">@sinclair/typebox-(ju…</text>
                    <text transform="translate(608.5 211.5)">(median)</text>
                </g>
                <path stroke="#888" d="M615.5 156.5v60" class="mark-rule role-axis-domain"/>
            </g>
            <g class="mark-rect role-mark child__Strict_Assertion_marks" aria-roledescription="rect mark container">
                <path aria-label="Strict Assertion: 30159580; name: @sinclair/typebox-(ahead-of-time)" aria-roledescription="bar" d="M615 156.75h172.34v13.5H615Z" fill="#f58518"/>
                <path aria-label="Strict Assertion: 25566264; name: ts-runtime-checks" aria-roledescription="bar" d="M615 171.75h146.093v13.5H615Z" fill="#eeca3b"/>
                <path aria-label="Strict Assertion: 28777766; name: @sinclair/typebox-(just-in-time)" aria-roledescription="bar" d="M615 186.75h164.444v13.5H615Z" fill="#e45756"/>
                <path aria-label="Strict Assertion: 936552; name: (median)" aria-roledescription="bar" d="M615 201.75h5.352v13.5H615Z" fill="#4c78a8"/>
            </g>
        </g>
        <g class="mark-group role-title">
            <path class="background" aria-hidden="true" d="M421 5Z" pointer-events="none"/>
            <text text-anchor="middle" transform="translate(421 18)" font-family="sans-serif" font-size="16" fill="#000" class="mark-text role-title-text" aria-roledescription="title" aria-label="Title text 'Top 3 packages for each benchmark + median, (ops count, better ⯈)'" pointer-events="none">Top 3 packages for each benchmark + median, (ops count, better ⯈)</text>
        </g>
    </g>
</svg>
