<svg xmlns="http://www.w3.org/2000/svg" class="marks" width="843" height="254">
    <path fill="#fff" d="M0 0h843v254H0z"/>
    <g class="mark-group role-frame root" aria-roledescription="group mark container" fill="none" stroke-miterlimit="10">
        <path class="background" aria-hidden="true" d="M198 42Z"/>
        <g class="mark-group role-scope child__Safe_Parsing_group" aria-roledescription="group mark container">
            <path class="background" aria-hidden="true" d="M198.5 42.5h200v60h-200Z" stroke="#ddd"/>
            <g class="mark-group role-axis" aria-roledescription="axis" aria-label="X-axis for a linear scale with values from 0 to 45,000,000">
                <path class="background" aria-hidden="true" d="M198.5 102.5Z" pointer-events="none"/>
                <g class="mark-rule role-axis-grid" pointer-events="none" stroke="#ddd">
                    <path d="M198.5 102.5v-60M242.5 102.5v-60M287.5 102.5v-60M331.5 102.5v-60M376.5 102.5v-60"/>
                </g>
            </g>
            <g pointer-events="none" class="mark-group role-axis" aria-roledescription="axis" aria-label="X-axis titled 'Safe Parsing' for a linear scale with values from 0 to 45,000,000">
                <path class="background" aria-hidden="true" d="M198.5 102.5Z"/>
                <g class="mark-rule role-axis-tick" stroke="#888">
                    <path d="M198.5 102.5v5M242.5 102.5v5M287.5 102.5v5M331.5 102.5v5M376.5 102.5v5"/>
                </g>
                <g class="mark-text role-axis-label" font-family="sans-serif" font-size="10" fill="#000">
                    <text transform="translate(198.5 117.5)">0</text>
                    <text text-anchor="middle" transform="translate(287.389 117.5)">20,000,000</text>
                    <text text-anchor="middle" transform="translate(376.278 117.5)">40,000,000</text>
                </g>
                <path stroke="#888" d="M198.5 102.5h200" class="mark-rule role-axis-domain"/>
                <text text-anchor="middle" transform="translate(298.5 132.5)" font-family="sans-serif" font-size="11" font-weight="bold" fill="#000" class="mark-text role-axis-title">Safe Parsing</text>
            </g>
            <g pointer-events="none" class="mark-group role-axis" aria-roledescription="axis" aria-label="Y-axis for a discrete scale with 4 values: rescript-struct, typia, spectypes, (median)">
                <path class="background" aria-hidden="true" d="M198.5 42.5Z"/>
                <g class="mark-rule role-axis-tick" stroke="#888">
                    <path d="M198.5 49.5h-5M198.5 64.5h-5M198.5 79.5h-5M198.5 94.5h-5"/>
                </g>
                <g class="mark-text role-axis-label" text-anchor="end" font-family="sans-serif" font-size="10" fill="#000">
                    <text transform="translate(191.5 52.5)">rescript-struct</text>
                    <text transform="translate(191.5 67.5)">typia</text>
                    <text transform="translate(191.5 82.5)">spectypes</text>
                    <text transform="translate(191.5 97.5)">(median)</text>
                </g>
                <path stroke="#888" d="M198.5 42.5v60" class="mark-rule role-axis-domain"/>
            </g>
            <g class="mark-rect role-mark child__Safe_Parsing_marks" aria-roledescription="rect mark container">
                <path d="M198 42.75h191.78v13.5H198Z" fill="#e45756"/>
                <path d="M198 57.75h110.906v13.5H198Z" fill="#eeca3b"/>
                <path d="M198 72.75h93.323v13.5H198Z" fill="#72b7b2"/>
                <path d="M198 87.75h3.834v13.5H198Z" fill="#4c78a8"/>
            </g>
        </g>
        <g class="mark-group role-scope child__Strict_Parsing_group" aria-roledescription="group mark container">
            <path class="background" aria-hidden="true" d="M581.5 42.5h200v60h-200Z" stroke="#ddd"/>
            <g class="mark-group role-axis" aria-roledescription="axis" aria-label="X-axis for a linear scale with values from 0 to 24,000,000">
                <path class="background" aria-hidden="true" d="M581.5 102.5Z" pointer-events="none"/>
                <g class="mark-rule role-axis-grid" pointer-events="none" stroke="#ddd">
                    <path d="M581.5 102.5v-60M623.5 102.5v-60M664.5 102.5v-60M706.5 102.5v-60M748.5 102.5v-60"/>
                </g>
            </g>
            <g pointer-events="none" class="mark-group role-axis" aria-roledescription="axis" aria-label="X-axis titled 'Strict Parsing' for a linear scale with values from 0 to 24,000,000">
                <path class="background" aria-hidden="true" d="M581.5 102.5Z"/>
                <g class="mark-rule role-axis-tick" stroke="#888">
                    <path d="M581.5 102.5v5M623.5 102.5v5M664.5 102.5v5M706.5 102.5v5M748.5 102.5v5"/>
                </g>
                <g class="mark-text role-axis-label" font-family="sans-serif" font-size="10" fill="#000">
                    <text transform="translate(581.5 117.5)">0</text>
                    <text text-anchor="middle" transform="translate(664.833 117.5)">10,000,000</text>
                    <text text-anchor="middle" transform="translate(748.167 117.5)">20,000,000</text>
                </g>
                <path stroke="#888" d="M581.5 102.5h200" class="mark-rule role-axis-domain"/>
                <text text-anchor="middle" transform="translate(681.5 132.5)" font-family="sans-serif" font-size="11" font-weight="bold" fill="#000" class="mark-text role-axis-title">Strict Parsing</text>
            </g>
            <g pointer-events="none" class="mark-group role-axis" aria-roledescription="axis" aria-label="Y-axis for a discrete scale with 4 values: ts-runtime-checks, spectypes, typia, (median)">
                <path class="background" aria-hidden="true" d="M581.5 42.5Z"/>
                <g class="mark-rule role-axis-tick" stroke="#888">
                    <path d="M581.5 49.5h-5M581.5 64.5h-5M581.5 79.5h-5M581.5 94.5h-5"/>
                </g>
                <g class="mark-text role-axis-label" text-anchor="end" font-family="sans-serif" font-size="10" fill="#000">
                    <text transform="translate(574.5 52.5)">ts-runtime-checks</text>
                    <text transform="translate(574.5 67.5)">spectypes</text>
                    <text transform="translate(574.5 82.5)">typia</text>
                    <text transform="translate(574.5 97.5)">(median)</text>
                </g>
                <path stroke="#888" d="M581.5 42.5v60" class="mark-rule role-axis-domain"/>
            </g>
            <g class="mark-rect role-mark child__Strict_Parsing_marks" aria-roledescription="rect mark container">
                <path d="M581 42.75h194.796v13.5H581Z" fill="#54a24b"/>
                <path d="M581 57.75h162.273v13.5H581Z" fill="#72b7b2"/>
                <path d="M581 72.75h159.152v13.5H581Z" fill="#eeca3b"/>
                <path d="M581 87.75h6.13v13.5H581Z" fill="#4c78a8"/>
            </g>
        </g>
        <g class="mark-group role-scope child__Loose_Assertion_group" aria-roledescription="group mark container">
            <path class="background" aria-hidden="true" d="M198.5 156.5h200v60h-200Z" stroke="#ddd"/>
            <g class="mark-group role-axis" aria-roledescription="axis" aria-label="X-axis for a linear scale with values from 0 to 120,000,000">
                <path class="background" aria-hidden="true" d="M198.5 216.5Z" pointer-events="none"/>
                <g class="mark-rule role-axis-grid" pointer-events="none" stroke="#ddd">
                    <path d="M198.5 216.5v-60M231.5 216.5v-60M265.5 216.5v-60M298.5 216.5v-60M331.5 216.5v-60M365.5 216.5v-60M398.5 216.5v-60"/>
                </g>
            </g>
            <g pointer-events="none" class="mark-group role-axis" aria-roledescription="axis" aria-label="X-axis titled 'Loose Assertion' for a linear scale with values from 0 to 120,000,000">
                <path class="background" aria-hidden="true" d="M198.5 216.5Z"/>
                <g class="mark-rule role-axis-tick" stroke="#888">
                    <path d="M198.5 216.5v5M231.5 216.5v5M265.5 216.5v5M298.5 216.5v5M331.5 216.5v5M365.5 216.5v5M398.5 216.5v5"/>
                </g>
                <g class="mark-text role-axis-label" font-family="sans-serif" font-size="10" fill="#000">
                    <text transform="translate(198.5 231.5)">0</text>
                    <text text-anchor="end" transform="translate(398.5 231.5)">120,000,000</text>
                </g>
                <path stroke="#888" d="M198.5 216.5h200" class="mark-rule role-axis-domain"/>
                <text text-anchor="middle" transform="translate(298.5 246.5)" font-family="sans-serif" font-size="11" font-weight="bold" fill="#000" class="mark-text role-axis-title">Loose Assertion</text>
            </g>
            <g pointer-events="none" class="mark-group role-axis" aria-roledescription="axis" aria-label="Y-axis for a discrete scale with 4 values: ts-runtime-checks, typia, spectypes, (median)">
                <path class="background" aria-hidden="true" d="M198.5 156.5Z"/>
                <g class="mark-rule role-axis-tick" stroke="#888">
                    <path d="M198.5 163.5h-5M198.5 178.5h-5M198.5 193.5h-5M198.5 208.5h-5"/>
                </g>
                <g class="mark-text role-axis-label" text-anchor="end" font-family="sans-serif" font-size="10" fill="#000">
                    <text transform="translate(191.5 166.5)">ts-runtime-checks</text>
                    <text transform="translate(191.5 181.5)">typia</text>
                    <text transform="translate(191.5 196.5)">spectypes</text>
                    <text transform="translate(191.5 211.5)">(median)</text>
                </g>
                <path stroke="#888" d="M198.5 156.5v60" class="mark-rule role-axis-domain"/>
            </g>
            <g class="mark-rect role-mark child__Loose_Assertion_marks" aria-roledescription="rect mark container">
                <path d="M198 156.75h184.31v13.5H198Z" fill="#54a24b"/>
                <path d="M198 171.75h165.864v13.5H198Z" fill="#eeca3b"/>
                <path d="M198 186.75h124.753v13.5H198Z" fill="#72b7b2"/>
                <path d="M198 201.75h1.578v13.5H198Z" fill="#4c78a8"/>
            </g>
        </g>
        <g class="mark-group role-scope child__Strict_Assertion_group" aria-roledescription="group mark container">
            <path class="background" aria-hidden="true" d="M581.5 156.5h200v60h-200Z" stroke="#ddd"/>
            <g class="mark-group role-axis" aria-roledescription="axis" aria-label="X-axis for a linear scale with values from 0 to 24,000,000">
                <path class="background" aria-hidden="true" d="M581.5 216.5Z" pointer-events="none"/>
                <g class="mark-rule role-axis-grid" pointer-events="none" stroke="#ddd">
                    <path d="M581.5 216.5v-60M623.5 216.5v-60M664.5 216.5v-60M706.5 216.5v-60M748.5 216.5v-60"/>
                </g>
            </g>
            <g pointer-events="none" class="mark-group role-axis" aria-roledescription="axis" aria-label="X-axis titled 'Strict Assertion' for a linear scale with values from 0 to 24,000,000">
                <path class="background" aria-hidden="true" d="M581.5 216.5Z"/>
                <g class="mark-rule role-axis-tick" stroke="#888">
                    <path d="M581.5 216.5v5M623.5 216.5v5M664.5 216.5v5M706.5 216.5v5M748.5 216.5v5"/>
                </g>
                <g class="mark-text role-axis-label" font-family="sans-serif" font-size="10" fill="#000">
                    <text transform="translate(581.5 231.5)">0</text>
                    <text text-anchor="middle" transform="translate(664.833 231.5)">10,000,000</text>
                    <text text-anchor="middle" transform="translate(748.167 231.5)">20,000,000</text>
                </g>
                <path stroke="#888" d="M581.5 216.5h200" class="mark-rule role-axis-domain"/>
                <text text-anchor="middle" transform="translate(681.5 246.5)" font-family="sans-serif" font-size="11" font-weight="bold" fill="#000" class="mark-text role-axis-title">Strict Assertion</text>
            </g>
            <g pointer-events="none" class="mark-group role-axis" aria-roledescription="axis" aria-label="Y-axis for a discrete scale with 4 values: @sinclair/typebox, ts-runtime-checks, typia, (median)">
                <path class="background" aria-hidden="true" d="M581.5 156.5Z"/>
                <g class="mark-rule role-axis-tick" stroke="#888">
                    <path d="M581.5 163.5h-5M581.5 178.5h-5M581.5 193.5h-5M581.5 208.5h-5"/>
                </g>
                <g class="mark-text role-axis-label" text-anchor="end" font-family="sans-serif" font-size="10" fill="#000">
                    <text transform="translate(574.5 166.5)">@sinclair/typebox</text>
                    <text transform="translate(574.5 181.5)">ts-runtime-checks</text>
                    <text transform="translate(574.5 196.5)">typia</text>
                    <text transform="translate(574.5 211.5)">(median)</text>
                </g>
                <path stroke="#888" d="M581.5 156.5v60" class="mark-rule role-axis-domain"/>
            </g>
            <g class="mark-rect role-mark child__Strict_Assertion_marks" aria-roledescription="rect mark container">
                <path d="M581 156.75h196.318v13.5H581Z" fill="#f58518"/>
                <path d="M581 171.75h193.957v13.5H581Z" fill="#54a24b"/>
                <path d="M581 186.75h157.998v13.5H581Z" fill="#eeca3b"/>
                <path d="M581 201.75h5.613v13.5H581Z" fill="#4c78a8"/>
            </g>
        </g>
        <g class="mark-group role-title">
            <path class="background" aria-hidden="true" d="M421.333 5Z" pointer-events="none"/>
            <text text-anchor="middle" transform="translate(421.333 18)" font-family="sans-serif" font-size="16" fill="#000" class="mark-text role-title-text" aria-roledescription="title" aria-label="Title text 'Top 3 packages for each benchmark + median, (ops count, better ⯈)'" pointer-events="none">Top 3 packages for each benchmark + median, (ops count, better ⯈)</text>
        </g>
    </g>
</svg>
