<svg xmlns="http://www.w3.org/2000/svg" width="843" height="254" class="marks">
    <path fill="#fff" d="M0 0h843v254H0z"/>
    <g fill="none" stroke-miterlimit="10" aria-roledescription="group mark container" class="mark-group role-frame root">
        <path d="M197 42" aria-hidden="true" class="background"/>
        <g aria-roledescription="group mark container" class="mark-group role-scope child__Safe_Parsing_group">
            <path stroke="#ddd" d="M197.5 42.5h200v60h-200Z" aria-hidden="true" class="background"/>
            <g aria-hidden="true" class="mark-group role-axis">
                <path d="M197.5 102.5" aria-hidden="true" class="background" pointer-events="none"/>
                <g stroke="#ddd" class="mark-rule role-axis-grid" pointer-events="none">
                    <path d="M197.5 102.5v-60M233.5 102.5v-60M270.5 102.5v-60M306.5 102.5v-60M342.5 102.5v-60M379.5 102.5v-60"/>
                </g>
            </g>
            <g aria-label="X-axis titled 'Safe Parsing' for a linear scale with values from 0 to 110,000,000" aria-roledescription="axis" class="mark-group role-axis" pointer-events="none">
                <path d="M197.5 102.5" aria-hidden="true" class="background"/>
                <g stroke="#888" class="mark-rule role-axis-tick">
                    <path d="M197.5 102.5v5M233.5 102.5v5M270.5 102.5v5M306.5 102.5v5M342.5 102.5v5M379.5 102.5v5"/>
                </g>
                <g fill="#000" class="mark-text role-axis-label" font-family="sans-serif" font-size="10">
                    <text transform="translate(197.5 117.5)">0</text>
                    <text text-anchor="middle" transform="translate(379.318 117.5)">100,000,000</text>
                </g>
                <path stroke="#888" d="M197.5 102.5h200" class="mark-rule role-axis-domain"/>
                <text fill="#000" class="mark-text role-axis-title" font-family="sans-serif" font-size="11" font-weight="bold" text-anchor="middle" transform="translate(297.5 132.5)">Safe Parsing</text>
            </g>
            <g aria-label="Y-axis for a discrete scale with 4 values: typia, sury, rescript-schema, (median)" aria-roledescription="axis" class="mark-group role-axis" pointer-events="none">
                <path d="M197.5 42.5" aria-hidden="true" class="background"/>
                <g stroke="#888" class="mark-rule role-axis-tick">
                    <path d="M197.5 49.5h-5M197.5 64.5h-5M197.5 79.5h-5M197.5 94.5h-5"/>
                </g>
                <g fill="#000" class="mark-text role-axis-label" font-family="sans-serif" font-size="10" text-anchor="end">
                    <text transform="translate(190.5 52.5)">typia</text>
                    <text transform="translate(190.5 67.5)">sury</text>
                    <text transform="translate(190.5 82.5)">rescript-schema</text>
                    <text transform="translate(190.5 97.5)">(median)</text>
                </g>
                <path stroke="#888" d="M197.5 42.5v60" class="mark-rule role-axis-domain"/>
            </g>
            <g aria-roledescription="rect mark container" class="mark-rect role-mark child__Safe_Parsing_marks">
                <path fill="#ff9da6" d="M197 42.75h195.152v13.5H197Z" aria-label="Safe Parsing: 107333703; name: typia" aria-roledescription="bar"/>
                <path fill="#54a24b" d="M197 57.75h188.633v13.5H197Z" aria-label="Safe Parsing: 103748105; name: sury" aria-roledescription="bar"/>
                <path fill="#72b7b2" d="M197 72.75h174.892v13.5H197Z" aria-label="Safe Parsing: 96190830; name: rescript-schema" aria-roledescription="bar"/>
                <path fill="#4c78a8" d="M197 87.75h2.956v13.5H197Z" aria-label="Safe Parsing: 1625992; name: (median)" aria-roledescription="bar"/>
            </g>
        </g>
        <g aria-roledescription="group mark container" class="mark-group role-scope child__Strict_Parsing_group">
            <path stroke="#ddd" d="M628.5 42.5h200v60h-200Z" aria-hidden="true" class="background"/>
            <g aria-hidden="true" class="mark-group role-axis">
                <path d="M628.5 102.5" aria-hidden="true" class="background" pointer-events="none"/>
                <g stroke="#ddd" class="mark-rule role-axis-grid" pointer-events="none">
                    <path d="M628.5 102.5v-60M657.5 102.5v-60M685.5 102.5v-60M714.5 102.5v-60M742.5 102.5v-60M771.5 102.5v-60M799.5 102.5v-60M828.5 102.5v-60"/>
                </g>
            </g>
            <g aria-label="X-axis titled 'Strict Parsing' for a linear scale with values from 0 to 35,000,000" aria-roledescription="axis" class="mark-group role-axis" pointer-events="none">
                <path d="M628.5 102.5" aria-hidden="true" class="background"/>
                <g stroke="#888" class="mark-rule role-axis-tick">
                    <path d="M628.5 102.5v5M657.5 102.5v5M685.5 102.5v5M714.5 102.5v5M742.5 102.5v5M771.5 102.5v5M799.5 102.5v5M828.5 102.5v5"/>
                </g>
                <g fill="#000" class="mark-text role-axis-label" font-family="sans-serif" font-size="10">
                    <text transform="translate(628.5 117.5)">0</text>
                    <text text-anchor="end" transform="translate(828.5 117.5)">35,000,000</text>
                </g>
                <path stroke="#888" d="M628.5 102.5h200" class="mark-rule role-axis-domain"/>
                <text fill="#000" class="mark-text role-axis-title" font-family="sans-serif" font-size="11" font-weight="bold" text-anchor="middle" transform="translate(728.5 132.5)">Strict Parsing</text>
            </g>
            <g aria-label="Y-axis for a discrete scale with 4 values: typia, sury, ts-runtime-checks, (median)" aria-roledescription="axis" class="mark-group role-axis" pointer-events="none">
                <path d="M628.5 42.5" aria-hidden="true" class="background"/>
                <g stroke="#888" class="mark-rule role-axis-tick">
                    <path d="M628.5 49.5h-5M628.5 64.5h-5M628.5 79.5h-5M628.5 94.5h-5"/>
                </g>
                <g fill="#000" class="mark-text role-axis-label" font-family="sans-serif" font-size="10" text-anchor="end">
                    <text transform="translate(621.5 52.5)">typia</text>
                    <text transform="translate(621.5 67.5)">sury</text>
                    <text transform="translate(621.5 82.5)">ts-runtime-checks</text>
                    <text transform="translate(621.5 97.5)">(median)</text>
                </g>
                <path stroke="#888" d="M628.5 42.5v60" class="mark-rule role-axis-domain"/>
            </g>
            <g aria-roledescription="rect mark container" class="mark-rect role-mark child__Strict_Parsing_marks">
                <path fill="#ff9da6" d="M628 42.75h197.593v13.5H628Z" aria-label="Strict Parsing: 34578688; name: typia" aria-roledescription="bar"/>
                <path fill="#54a24b" d="M628 57.75h166.67v13.5H628Z" aria-label="Strict Parsing: 29167163; name: sury" aria-roledescription="bar"/>
                <path fill="#eeca3b" d="M628 72.75h196.357v13.5H628Z" aria-label="Strict Parsing: 34362542; name: ts-runtime-checks" aria-roledescription="bar"/>
                <path fill="#4c78a8" d="M628 87.75h8.85v13.5H628Z" aria-label="Strict Parsing: 1548752.5; name: (median)" aria-roledescription="bar"/>
            </g>
        </g>
        <g aria-roledescription="group mark container" class="mark-group role-scope child__Loose_Assertion_group">
            <path stroke="#ddd" d="M197.5 156.5h200v60h-200Z" aria-hidden="true" class="background"/>
            <g aria-hidden="true" class="mark-group role-axis">
                <path d="M197.5 216.5" aria-hidden="true" class="background" pointer-events="none"/>
                <g stroke="#ddd" class="mark-rule role-axis-grid" pointer-events="none">
                    <path d="M197.5 216.5v-60M253.5 216.5v-60M308.5 216.5v-60M364.5 216.5v-60"/>
                </g>
            </g>
            <g aria-label="X-axis titled 'Loose Assertion' for a linear scale with values from 0 to 180,000,000" aria-roledescription="axis" class="mark-group role-axis" pointer-events="none">
                <path d="M197.5 216.5" aria-hidden="true" class="background"/>
                <g stroke="#888" class="mark-rule role-axis-tick">
                    <path d="M197.5 216.5v5M253.5 216.5v5M308.5 216.5v5M364.5 216.5v5"/>
                </g>
                <g fill="#000" class="mark-text role-axis-label" font-family="sans-serif" font-size="10">
                    <text transform="translate(197.5 231.5)">0</text>
                    <text text-anchor="middle" transform="translate(364.167 231.5)">150,000,000</text>
                </g>
                <path stroke="#888" d="M197.5 216.5h200" class="mark-rule role-axis-domain"/>
                <text fill="#000" class="mark-text role-axis-title" font-family="sans-serif" font-size="11" font-weight="bold" text-anchor="middle" transform="translate(297.5 246.5)">Loose Assertion</text>
            </g>
            <g aria-label="Y-axis for a discrete scale with 4 values: ts-runtime-checks, @sinclair/typebox-(ahead-of-time), type-predicate-generator, (median)" aria-roledescription="axis" class="mark-group role-axis" pointer-events="none">
                <path d="M197.5 156.5" aria-hidden="true" class="background"/>
                <g stroke="#888" class="mark-rule role-axis-tick">
                    <path d="M197.5 163.5h-5M197.5 178.5h-5M197.5 193.5h-5M197.5 208.5h-5"/>
                </g>
                <g fill="#000" class="mark-text role-axis-label" font-family="sans-serif" font-size="10" text-anchor="end">
                    <text transform="translate(190.5 166.5)">ts-runtime-checks</text>
                    <text transform="translate(190.5 181.5)">@sinclair/typebox-(ah…</text>
                    <text transform="translate(190.5 196.5)">type-predicate-genera…</text>
                    <text transform="translate(190.5 211.5)">(median)</text>
                </g>
                <path stroke="#888" d="M197.5 156.5v60" class="mark-rule role-axis-domain"/>
            </g>
            <g aria-roledescription="rect mark container" class="mark-rect role-mark child__Loose_Assertion_marks">
                <path fill="#eeca3b" d="M197 156.75h180.603v13.5H197Z" aria-label="Loose Assertion: 162542900; name: ts-runtime-checks" aria-roledescription="bar"/>
                <path fill="#f58518" d="M197 171.75h171.248v13.5H197Z" aria-label="Loose Assertion: 154123496; name: @sinclair/typebox-(ahead-of-time)" aria-roledescription="bar"/>
                <path fill="#b279a2" d="M197 186.75h169.511v13.5H197Z" aria-label="Loose Assertion: 152560339; name: type-predicate-generator" aria-roledescription="bar"/>
                <path fill="#4c78a8" d="M197 201.75h3.408v13.5H197Z" aria-label="Loose Assertion: 3067539; name: (median)" aria-roledescription="bar"/>
            </g>
        </g>
        <g aria-roledescription="group mark container" class="mark-group role-scope child__Strict_Assertion_group">
            <path stroke="#ddd" d="M628.5 156.5h200v60h-200Z" aria-hidden="true" class="background"/>
            <g aria-hidden="true" class="mark-group role-axis">
                <path d="M628.5 216.5" aria-hidden="true" class="background" pointer-events="none"/>
                <g stroke="#ddd" class="mark-rule role-axis-grid" pointer-events="none">
                    <path d="M628.5 216.5v-60M678.5 216.5v-60M728.5 216.5v-60M778.5 216.5v-60M828.5 216.5v-60"/>
                </g>
            </g>
            <g aria-label="X-axis titled 'Strict Assertion' for a linear scale with values from 0 to 40,000,000" aria-roledescription="axis" class="mark-group role-axis" pointer-events="none">
                <path d="M628.5 216.5" aria-hidden="true" class="background"/>
                <g stroke="#888" class="mark-rule role-axis-tick">
                    <path d="M628.5 216.5v5M678.5 216.5v5M728.5 216.5v5M778.5 216.5v5M828.5 216.5v5"/>
                </g>
                <g fill="#000" class="mark-text role-axis-label" font-family="sans-serif" font-size="10">
                    <text transform="translate(628.5 231.5)">0</text>
                    <text text-anchor="end" transform="translate(828.5 231.5)">40,000,000</text>
                </g>
                <path stroke="#888" d="M628.5 216.5h200" class="mark-rule role-axis-domain"/>
                <text fill="#000" class="mark-text role-axis-title" font-family="sans-serif" font-size="11" font-weight="bold" text-anchor="middle" transform="translate(728.5 246.5)">Strict Assertion</text>
            </g>
            <g aria-label="Y-axis for a discrete scale with 4 values: ts-runtime-checks, @sinclair/typebox-(ahead-of-time), @sinclair/typebox-(just-in-time), (median)" aria-roledescription="axis" class="mark-group role-axis" pointer-events="none">
                <path d="M628.5 156.5" aria-hidden="true" class="background"/>
                <g stroke="#888" class="mark-rule role-axis-tick">
                    <path d="M628.5 163.5h-5M628.5 178.5h-5M628.5 193.5h-5M628.5 208.5h-5"/>
                </g>
                <g fill="#000" class="mark-text role-axis-label" font-family="sans-serif" font-size="10" text-anchor="end">
                    <text transform="translate(621.5 166.5)">ts-runtime-checks</text>
                    <text transform="translate(621.5 181.5)">@sinclair/typebox-(ah…</text>
                    <text transform="translate(621.5 196.5)">@sinclair/typebox-(ju…</text>
                    <text transform="translate(621.5 211.5)">(median)</text>
                </g>
                <path stroke="#888" d="M628.5 156.5v60" class="mark-rule role-axis-domain"/>
            </g>
            <g aria-roledescription="rect mark container" class="mark-rect role-mark child__Strict_Assertion_marks">
                <path fill="#eeca3b" d="M628 156.75h171.557v13.5H628Z" aria-label="Strict Assertion: 34311440; name: ts-runtime-checks" aria-roledescription="bar"/>
                <path fill="#f58518" d="M628 171.75h183.395v13.5H628Z" aria-label="Strict Assertion: 36678905; name: @sinclair/typebox-(ahead-of-time)" aria-roledescription="bar"/>
                <path fill="#e45756" d="M628 186.75h169.723v13.5H628Z" aria-label="Strict Assertion: 33944620; name: @sinclair/typebox-(just-in-time)" aria-roledescription="bar"/>
                <path fill="#4c78a8" d="M628 201.75h7.604v13.5H628Z" aria-label="Strict Assertion: 1520868; name: (median)" aria-roledescription="bar"/>
            </g>
        </g>
        <g class="mark-group role-title">
            <path d="M421.5 5" aria-hidden="true" class="background" pointer-events="none"/>
            <text fill="#000" aria-label="Title text 'Top 3 packages for each benchmark + median, (ops count, better ⯈)'" aria-roledescription="title" class="mark-text role-title-text" font-family="sans-serif" font-size="16" pointer-events="none" text-anchor="middle" transform="translate(421.5 18)">Top 3 packages for each benchmark + median, (ops count, better ⯈)</text>
        </g>
    </g>
</svg>
