<svg xmlns="http://www.w3.org/2000/svg" class="marks" width="843" height="254">
    <path fill="#fff" d="M0 0h843v254H0z"/>
    <g class="mark-group role-frame root" aria-roledescription="group mark container" fill="none" stroke-miterlimit="10">
        <path class="background" aria-hidden="true" d="M198 42Z"/>
        <g class="mark-group role-scope child__Safe_Parsing_group" aria-roledescription="group mark container">
            <path class="background" aria-hidden="true" d="M198.5 42.5h200v60h-200Z" stroke="#ddd"/>
            <g class="mark-group role-axis" aria-hidden="true">
                <path class="background" aria-hidden="true" d="M198.5 102.5Z" pointer-events="none"/>
                <g class="mark-rule role-axis-grid" pointer-events="none" stroke="#ddd">
                    <path d="M198.5 102.5v-60M234.5 102.5v-60M269.5 102.5v-60M305.5 102.5v-60M341.5 102.5v-60M377.5 102.5v-60"/>
                </g>
            </g>
            <g pointer-events="none" class="mark-group role-axis" aria-roledescription="axis" aria-label="X-axis titled 'Safe Parsing' for a linear scale with values from 0 to 28,000,000">
                <path class="background" aria-hidden="true" d="M198.5 102.5Z"/>
                <g class="mark-rule role-axis-tick" stroke="#888">
                    <path d="M198.5 102.5v5M234.5 102.5v5M269.5 102.5v5M305.5 102.5v5M341.5 102.5v5M377.5 102.5v5"/>
                </g>
                <g class="mark-text role-axis-label" font-family="sans-serif" font-size="10" fill="#000">
                    <text transform="translate(198.5 117.5)">0</text>
                    <text text-anchor="middle" transform="translate(377.071 117.5)">25,000,000</text>
                </g>
                <path stroke="#888" d="M198.5 102.5h200" class="mark-rule role-axis-domain"/>
                <text text-anchor="middle" transform="translate(298.5 132.5)" font-family="sans-serif" font-size="11" font-weight="bold" fill="#000" class="mark-text role-axis-title">Safe Parsing</text>
            </g>
            <g pointer-events="none" class="mark-group role-axis" aria-roledescription="axis" aria-label="Y-axis for a discrete scale with 4 values: typia, rescript-struct, spectypes, (median)">
                <path class="background" aria-hidden="true" d="M198.5 42.5Z"/>
                <g class="mark-rule role-axis-tick" stroke="#888">
                    <path d="M198.5 49.5h-5M198.5 64.5h-5M198.5 79.5h-5M198.5 94.5h-5"/>
                </g>
                <g class="mark-text role-axis-label" text-anchor="end" font-family="sans-serif" font-size="10" fill="#000">
                    <text transform="translate(191.5 52.5)">typia</text>
                    <text transform="translate(191.5 67.5)">rescript-struct</text>
                    <text transform="translate(191.5 82.5)">spectypes</text>
                    <text transform="translate(191.5 97.5)">(median)</text>
                </g>
                <path stroke="#888" d="M198.5 42.5v60" class="mark-rule role-axis-domain"/>
            </g>
            <g class="mark-rect role-mark child__Safe_Parsing_marks" aria-roledescription="rect mark container">
                <path aria-label="Safe Parsing: 23183941; name: typia" aria-roledescription="bar" d="M198 42.75h165.6v13.5H198Z" fill="#b279a2"/>
                <path aria-label="Safe Parsing: 27030276; name: rescript-struct" aria-roledescription="bar" d="M198 57.75h193.073v13.5H198Z" fill="#72b7b2"/>
                <path aria-label="Safe Parsing: 12958697; name: spectypes" aria-roledescription="bar" d="M198 72.75h92.562v13.5H198Z" fill="#54a24b"/>
                <path aria-label="Safe Parsing: 682815; name: (median)" aria-roledescription="bar" d="M198 87.75h4.877v13.5H198Z" fill="#4c78a8"/>
            </g>
        </g>
        <g class="mark-group role-scope child__Strict_Parsing_group" aria-roledescription="group mark container">
            <path class="background" aria-hidden="true" d="M622.5 42.5h200v60h-200Z" stroke="#ddd"/>
            <g class="mark-group role-axis" aria-hidden="true">
                <path class="background" aria-hidden="true" d="M622.5 102.5Z" pointer-events="none"/>
                <g class="mark-rule role-axis-grid" pointer-events="none" stroke="#ddd">
                    <path d="M622.5 102.5v-60M672.5 102.5v-60M722.5 102.5v-60M772.5 102.5v-60M822.5 102.5v-60"/>
                </g>
            </g>
            <g pointer-events="none" class="mark-group role-axis" aria-roledescription="axis" aria-label="X-axis titled 'Strict Parsing' for a linear scale with values from 0 to 20,000,000">
                <path class="background" aria-hidden="true" d="M622.5 102.5Z"/>
                <g class="mark-rule role-axis-tick" stroke="#888">
                    <path d="M622.5 102.5v5M672.5 102.5v5M722.5 102.5v5M772.5 102.5v5M822.5 102.5v5"/>
                </g>
                <g class="mark-text role-axis-label" font-family="sans-serif" font-size="10" fill="#000">
                    <text transform="translate(622.5 117.5)">0</text>
                    <text text-anchor="end" transform="translate(822.5 117.5)">20,000,000</text>
                </g>
                <path stroke="#888" d="M622.5 102.5h200" class="mark-rule role-axis-domain"/>
                <text text-anchor="middle" transform="translate(722.5 132.5)" font-family="sans-serif" font-size="11" font-weight="bold" fill="#000" class="mark-text role-axis-title">Strict Parsing</text>
            </g>
            <g pointer-events="none" class="mark-group role-axis" aria-roledescription="axis" aria-label="Y-axis for a discrete scale with 4 values: ts-runtime-checks, typia, spectypes, (median)">
                <path class="background" aria-hidden="true" d="M622.5 42.5Z"/>
                <g class="mark-rule role-axis-tick" stroke="#888">
                    <path d="M622.5 49.5h-5M622.5 64.5h-5M622.5 79.5h-5M622.5 94.5h-5"/>
                </g>
                <g class="mark-text role-axis-label" text-anchor="end" font-family="sans-serif" font-size="10" fill="#000">
                    <text transform="translate(615.5 52.5)">ts-runtime-checks</text>
                    <text transform="translate(615.5 67.5)">typia</text>
                    <text transform="translate(615.5 82.5)">spectypes</text>
                    <text transform="translate(615.5 97.5)">(median)</text>
                </g>
                <path stroke="#888" d="M622.5 42.5v60" class="mark-rule role-axis-domain"/>
            </g>
            <g class="mark-rect role-mark child__Strict_Parsing_marks" aria-roledescription="rect mark container">
                <path aria-label="Strict Parsing: 17727839; name: ts-runtime-checks" aria-roledescription="bar" d="M622 42.75h177.278v13.5H622Z" fill="#eeca3b"/>
                <path aria-label="Strict Parsing: 18474354; name: typia" aria-roledescription="bar" d="M622 57.75h184.744v13.5H622Z" fill="#b279a2"/>
                <path aria-label="Strict Parsing: 14757814; name: spectypes" aria-roledescription="bar" d="M622 72.75h147.578v13.5H622Z" fill="#54a24b"/>
                <path aria-label="Strict Parsing: 779408; name: (median)" aria-roledescription="bar" d="M622 87.75h7.794v13.5H622Z" fill="#4c78a8"/>
            </g>
        </g>
        <g class="mark-group role-scope child__Loose_Assertion_group" aria-roledescription="group mark container">
            <path class="background" aria-hidden="true" d="M198.5 156.5h200v60h-200Z" stroke="#ddd"/>
            <g class="mark-group role-axis" aria-hidden="true">
                <path class="background" aria-hidden="true" d="M198.5 216.5Z" pointer-events="none"/>
                <g class="mark-rule role-axis-grid" pointer-events="none" stroke="#ddd">
                    <path d="M198.5 216.5v-60M238.5 216.5v-60M278.5 216.5v-60M318.5 216.5v-60M358.5 216.5v-60M398.5 216.5v-60"/>
                </g>
            </g>
            <g pointer-events="none" class="mark-group role-axis" aria-roledescription="axis" aria-label="X-axis titled 'Loose Assertion' for a linear scale with values from 0 to 100,000,000">
                <path class="background" aria-hidden="true" d="M198.5 216.5Z"/>
                <g class="mark-rule role-axis-tick" stroke="#888">
                    <path d="M198.5 216.5v5M238.5 216.5v5M278.5 216.5v5M318.5 216.5v5M358.5 216.5v5M398.5 216.5v5"/>
                </g>
                <g class="mark-text role-axis-label" font-family="sans-serif" font-size="10" fill="#000">
                    <text transform="translate(198.5 231.5)">0</text>
                    <text text-anchor="middle" transform="translate(278.5 231.5)">40,000,000</text>
                    <text text-anchor="middle" transform="translate(358.5 231.5)">80,000,000</text>
                </g>
                <path stroke="#888" d="M198.5 216.5h200" class="mark-rule role-axis-domain"/>
                <text text-anchor="middle" transform="translate(298.5 246.5)" font-family="sans-serif" font-size="11" font-weight="bold" fill="#000" class="mark-text role-axis-title">Loose Assertion</text>
            </g>
            <g pointer-events="none" class="mark-group role-axis" aria-roledescription="axis" aria-label="Y-axis for a discrete scale with 4 values: ts-runtime-checks, @sinclair/typebox-(ahead-of-time), typia, (median)">
                <path class="background" aria-hidden="true" d="M198.5 156.5Z"/>
                <g class="mark-rule role-axis-tick" stroke="#888">
                    <path d="M198.5 163.5h-5M198.5 178.5h-5M198.5 193.5h-5M198.5 208.5h-5"/>
                </g>
                <g class="mark-text role-axis-label" text-anchor="end" font-family="sans-serif" font-size="10" fill="#000">
                    <text transform="translate(191.5 166.5)">ts-runtime-checks</text>
                    <text transform="translate(191.5 181.5)">@sinclair/typebox-(ah…</text>
                    <text transform="translate(191.5 196.5)">typia</text>
                    <text transform="translate(191.5 211.5)">(median)</text>
                </g>
                <path stroke="#888" d="M198.5 156.5v60" class="mark-rule role-axis-domain"/>
            </g>
            <g class="mark-rect role-mark child__Loose_Assertion_marks" aria-roledescription="rect mark container">
                <path aria-label="Loose Assertion: 99003991; name: ts-runtime-checks" aria-roledescription="bar" d="M198 156.75h198.008v13.5H198Z" fill="#eeca3b"/>
                <path aria-label="Loose Assertion: 87045352; name: @sinclair/typebox-(ahead-of-time)" aria-roledescription="bar" d="M198 171.75h174.09v13.5H198Z" fill="#f58518"/>
                <path aria-label="Loose Assertion: 87033078; name: typia" aria-roledescription="bar" d="M198 186.75h174.066v13.5H198Z" fill="#b279a2"/>
                <path aria-label="Loose Assertion: 886868.5; name: (median)" aria-roledescription="bar" d="M198 201.75h1.774v13.5H198Z" fill="#4c78a8"/>
            </g>
        </g>
        <g class="mark-group role-scope child__Strict_Assertion_group" aria-roledescription="group mark container">
            <path class="background" aria-hidden="true" d="M622.5 156.5h200v60h-200Z" stroke="#ddd"/>
            <g class="mark-group role-axis" aria-hidden="true">
                <path class="background" aria-hidden="true" d="M622.5 216.5Z" pointer-events="none"/>
                <g class="mark-rule role-axis-grid" pointer-events="none" stroke="#ddd">
                    <path d="M622.5 216.5v-60M678.5 216.5v-60M733.5 216.5v-60M789.5 216.5v-60"/>
                </g>
            </g>
            <g pointer-events="none" class="mark-group role-axis" aria-roledescription="axis" aria-label="X-axis titled 'Strict Assertion' for a linear scale with values from 0 to 18,000,000">
                <path class="background" aria-hidden="true" d="M622.5 216.5Z"/>
                <g class="mark-rule role-axis-tick" stroke="#888">
                    <path d="M622.5 216.5v5M678.5 216.5v5M733.5 216.5v5M789.5 216.5v5"/>
                </g>
                <g class="mark-text role-axis-label" font-family="sans-serif" font-size="10" fill="#000">
                    <text transform="translate(622.5 231.5)">0</text>
                    <text text-anchor="middle" transform="translate(789.167 231.5)">15,000,000</text>
                </g>
                <path stroke="#888" d="M622.5 216.5h200" class="mark-rule role-axis-domain"/>
                <text text-anchor="middle" transform="translate(722.5 246.5)" font-family="sans-serif" font-size="11" font-weight="bold" fill="#000" class="mark-text role-axis-title">Strict Assertion</text>
            </g>
            <g pointer-events="none" class="mark-group role-axis" aria-roledescription="axis" aria-label="Y-axis for a discrete scale with 4 values: ts-runtime-checks, @sinclair/typebox-(ahead-of-time), @sinclair/typebox-(just-in-time), (median)">
                <path class="background" aria-hidden="true" d="M622.5 156.5Z"/>
                <g class="mark-rule role-axis-tick" stroke="#888">
                    <path d="M622.5 163.5h-5M622.5 178.5h-5M622.5 193.5h-5M622.5 208.5h-5"/>
                </g>
                <g class="mark-text role-axis-label" text-anchor="end" font-family="sans-serif" font-size="10" fill="#000">
                    <text transform="translate(615.5 166.5)">ts-runtime-checks</text>
                    <text transform="translate(615.5 181.5)">@sinclair/typebox-(ah…</text>
                    <text transform="translate(615.5 196.5)">@sinclair/typebox-(ju…</text>
                    <text transform="translate(615.5 211.5)">(median)</text>
                </g>
                <path stroke="#888" d="M622.5 156.5v60" class="mark-rule role-axis-domain"/>
            </g>
            <g class="mark-rect role-mark child__Strict_Assertion_marks" aria-roledescription="rect mark container">
                <path aria-label="Strict Assertion: 17565390; name: ts-runtime-checks" aria-roledescription="bar" d="M622 156.75h195.171v13.5H622Z" fill="#eeca3b"/>
                <path aria-label="Strict Assertion: 17350740; name: @sinclair/typebox-(ahead-of-time)" aria-roledescription="bar" d="M622 171.75h192.786v13.5H622Z" fill="#f58518"/>
                <path aria-label="Strict Assertion: 16640965; name: @sinclair/typebox-(just-in-time)" aria-roledescription="bar" d="M622 186.75h184.9v13.5H622Z" fill="#e45756"/>
                <path aria-label="Strict Assertion: 607021; name: (median)" aria-roledescription="bar" d="M622 201.75h6.745v13.5H622Z" fill="#4c78a8"/>
            </g>
        </g>
        <g class="mark-group role-title">
            <path class="background" aria-hidden="true" d="M421.833 5Z" pointer-events="none"/>
            <text text-anchor="middle" transform="translate(421.833 18)" font-family="sans-serif" font-size="16" fill="#000" class="mark-text role-title-text" aria-roledescription="title" aria-label="Title text 'Top 3 packages for each benchmark + median, (ops count, better ⯈)'" pointer-events="none">Top 3 packages for each benchmark + median, (ops count, better ⯈)</text>
        </g>
    </g>
</svg>
