<svg xmlns="http://www.w3.org/2000/svg" class="marks" width="733" height="254">
    <path fill="#fff" d="M0 0h733v254H0z"/>
    <g class="mark-group role-frame root" aria-roledescription="group mark container" fill="none" stroke-miterlimit="10">
        <path class="background" aria-hidden="true" d="M149 42Z"/>
        <g class="mark-group role-scope child__Safe_Parsing_group" aria-roledescription="group mark container">
            <path class="background" aria-hidden="true" d="M149.5 42.5h200v60h-200Z" stroke="#ddd"/>
            <g class="mark-group role-axis" aria-roledescription="axis" aria-label="X-axis for a linear scale with values from 0 to 18,000,000">
                <path class="background" aria-hidden="true" d="M149.5 102.5Z" pointer-events="none"/>
                <g class="mark-rule role-axis-grid" pointer-events="none" stroke="#ddd">
                    <path d="M149.5 102.5v-60M205.5 102.5v-60M260.5 102.5v-60M316.5 102.5v-60"/>
                </g>
            </g>
            <g pointer-events="none" class="mark-group role-axis" aria-roledescription="axis" aria-label="X-axis titled 'Safe Parsing' for a linear scale with values from 0 to 18,000,000">
                <path class="background" aria-hidden="true" d="M149.5 102.5Z"/>
                <g class="mark-rule role-axis-tick" stroke="#888">
                    <path d="M149.5 102.5v5M205.5 102.5v5M260.5 102.5v5M316.5 102.5v5"/>
                </g>
                <g class="mark-text role-axis-label" font-family="sans-serif" font-size="10" fill="#000">
                    <text transform="translate(149.5 117.5)">0</text>
                    <text text-anchor="middle" transform="translate(316.167 117.5)">15,000,000</text>
                </g>
                <path stroke="#888" d="M149.5 102.5h200" class="mark-rule role-axis-domain"/>
                <text text-anchor="middle" transform="translate(249.5 132.5)" font-family="sans-serif" font-size="11" font-weight="bold" fill="#000" class="mark-text role-axis-title">Safe Parsing</text>
            </g>
            <g pointer-events="none" class="mark-group role-axis" aria-roledescription="axis" aria-label="Y-axis for a discrete scale with 4 values: ... rest, simple-runtypes, spectypes, valita">
                <path class="background" aria-hidden="true" d="M149.5 42.5Z"/>
                <g class="mark-rule role-axis-tick" stroke="#888">
                    <path d="M149.5 49.5h-5M149.5 64.5h-5M149.5 79.5h-5M149.5 94.5h-5"/>
                </g>
                <g class="mark-text role-axis-label" text-anchor="end" font-family="sans-serif" font-size="10" fill="#000">
                    <text transform="translate(142.5 52.5)">... rest</text>
                    <text transform="translate(142.5 67.5)">simple-runtypes</text>
                    <text transform="translate(142.5 82.5)">spectypes</text>
                    <text transform="translate(142.5 97.5)">valita</text>
                </g>
                <path stroke="#888" d="M149.5 42.5v60" class="mark-rule role-axis-domain"/>
            </g>
            <g class="mark-rect role-mark child__Safe_Parsing_marks" aria-roledescription="rect mark container">
                <path d="M149 72.75h187.968v13.5H149Z" fill="#e45756"/>
                <path d="M149 87.75h38.701v13.5H149Z" fill="#eeca3b"/>
                <path d="M149 57.75h16.722v13.5H149Z" fill="#f58518"/>
                <path d="M149 42.75h7.288v13.5H149Z" fill="#4c78a8"/>
            </g>
        </g>
        <g class="mark-group role-scope child__Strict_Parsing_group" aria-roledescription="group mark container">
            <path class="background" aria-hidden="true" d="M520.5 42.5h200v60h-200Z" stroke="#ddd"/>
            <g class="mark-group role-axis" aria-roledescription="axis" aria-label="X-axis for a linear scale with values from 0 to 18,000,000">
                <path class="background" aria-hidden="true" d="M520.5 102.5Z" pointer-events="none"/>
                <g class="mark-rule role-axis-grid" pointer-events="none" stroke="#ddd">
                    <path d="M520.5 102.5v-60M576.5 102.5v-60M631.5 102.5v-60M687.5 102.5v-60"/>
                </g>
            </g>
            <g pointer-events="none" class="mark-group role-axis" aria-roledescription="axis" aria-label="X-axis titled 'Strict Parsing' for a linear scale with values from 0 to 18,000,000">
                <path class="background" aria-hidden="true" d="M520.5 102.5Z"/>
                <g class="mark-rule role-axis-tick" stroke="#888">
                    <path d="M520.5 102.5v5M576.5 102.5v5M631.5 102.5v5M687.5 102.5v5"/>
                </g>
                <g class="mark-text role-axis-label" font-family="sans-serif" font-size="10" fill="#000">
                    <text transform="translate(520.5 117.5)">0</text>
                    <text text-anchor="middle" transform="translate(687.167 117.5)">15,000,000</text>
                </g>
                <path stroke="#888" d="M520.5 102.5h200" class="mark-rule role-axis-domain"/>
                <text text-anchor="middle" transform="translate(620.5 132.5)" font-family="sans-serif" font-size="11" font-weight="bold" fill="#000" class="mark-text role-axis-title">Strict Parsing</text>
            </g>
            <g pointer-events="none" class="mark-group role-axis" aria-roledescription="axis" aria-label="Y-axis for a discrete scale with 4 values: ... rest, simple-runtypes, spectypes, valita">
                <path class="background" aria-hidden="true" d="M520.5 42.5Z"/>
                <g class="mark-rule role-axis-tick" stroke="#888">
                    <path d="M520.5 49.5h-5M520.5 64.5h-5M520.5 79.5h-5M520.5 94.5h-5"/>
                </g>
                <g class="mark-text role-axis-label" text-anchor="end" font-family="sans-serif" font-size="10" fill="#000">
                    <text transform="translate(513.5 52.5)">... rest</text>
                    <text transform="translate(513.5 67.5)">simple-runtypes</text>
                    <text transform="translate(513.5 82.5)">spectypes</text>
                    <text transform="translate(513.5 97.5)">valita</text>
                </g>
                <path stroke="#888" d="M520.5 42.5v60" class="mark-rule role-axis-domain"/>
            </g>
            <g class="mark-rect role-mark child__Strict_Parsing_marks" aria-roledescription="rect mark container">
                <path d="M520 72.75h192.053v13.5H520Z" fill="#e45756"/>
                <path d="M520 87.75h37.469v13.5H520Z" fill="#eeca3b"/>
                <path d="M520 57.75h23.041v13.5H520Z" fill="#f58518"/>
                <path d="M520 42.75h7.936v13.5H520Z" fill="#4c78a8"/>
            </g>
        </g>
        <g class="mark-group role-scope child__Loose_Assertion_group" aria-roledescription="group mark container">
            <path class="background" aria-hidden="true" d="M149.5 156.5h200v60h-200Z" stroke="#ddd"/>
            <g class="mark-group role-axis" aria-roledescription="axis" aria-label="X-axis for a linear scale with values from 0 to 55,000,000">
                <path class="background" aria-hidden="true" d="M149.5 216.5Z" pointer-events="none"/>
                <g class="mark-rule role-axis-grid" pointer-events="none" stroke="#ddd">
                    <path d="M149.5 216.5v-60M185.5 216.5v-60M222.5 216.5v-60M258.5 216.5v-60M294.5 216.5v-60M331.5 216.5v-60"/>
                </g>
            </g>
            <g pointer-events="none" class="mark-group role-axis" aria-roledescription="axis" aria-label="X-axis titled 'Loose Assertion' for a linear scale with values from 0 to 55,000,000">
                <path class="background" aria-hidden="true" d="M149.5 216.5Z"/>
                <g class="mark-rule role-axis-tick" stroke="#888">
                    <path d="M149.5 216.5v5M185.5 216.5v5M222.5 216.5v5M258.5 216.5v5M294.5 216.5v5M331.5 216.5v5"/>
                </g>
                <g class="mark-text role-axis-label" font-family="sans-serif" font-size="10" fill="#000">
                    <text transform="translate(149.5 231.5)">0</text>
                    <text text-anchor="middle" transform="translate(331.318 231.5)">50,000,000</text>
                </g>
                <path stroke="#888" d="M149.5 216.5h200" class="mark-rule role-axis-domain"/>
                <text text-anchor="middle" transform="translate(249.5 246.5)" font-family="sans-serif" font-size="11" font-weight="bold" fill="#000" class="mark-text role-axis-title">Loose Assertion</text>
            </g>
            <g pointer-events="none" class="mark-group role-axis" aria-roledescription="axis" aria-label="Y-axis for a discrete scale with 4 values: ... rest, spectypes, suretype, ts-json-validator">
                <path class="background" aria-hidden="true" d="M149.5 156.5Z"/>
                <g class="mark-rule role-axis-tick" stroke="#888">
                    <path d="M149.5 163.5h-5M149.5 178.5h-5M149.5 193.5h-5M149.5 208.5h-5"/>
                </g>
                <g class="mark-text role-axis-label" text-anchor="end" font-family="sans-serif" font-size="10" fill="#000">
                    <text transform="translate(142.5 166.5)">... rest</text>
                    <text transform="translate(142.5 181.5)">spectypes</text>
                    <text transform="translate(142.5 196.5)">suretype</text>
                    <text transform="translate(142.5 211.5)">ts-json-validator</text>
                </g>
                <path stroke="#888" d="M149.5 156.5v60" class="mark-rule role-axis-domain"/>
            </g>
            <g class="mark-rect role-mark child__Loose_Assertion_marks" aria-roledescription="rect mark container">
                <path d="M149 171.75h186.39v13.5H149Z" fill="#e45756"/>
                <path d="M149 186.75h100.108v13.5H149Z" fill="#72b7b2"/>
                <path d="M149 201.75h96.39v13.5H149Z" fill="#54a24b"/>
                <path d="M149 156.75h1.698v13.5H149Z" fill="#4c78a8"/>
            </g>
        </g>
        <g class="mark-group role-scope child__Strict_Assertion_group" aria-roledescription="group mark container">
            <path class="background" aria-hidden="true" d="M520.5 156.5h200v60h-200Z" stroke="#ddd"/>
            <g class="mark-group role-axis" aria-roledescription="axis" aria-label="X-axis for a linear scale with values from 0 to 20,000,000">
                <path class="background" aria-hidden="true" d="M520.5 216.5Z" pointer-events="none"/>
                <g class="mark-rule role-axis-grid" pointer-events="none" stroke="#ddd">
                    <path d="M520.5 216.5v-60M570.5 216.5v-60M620.5 216.5v-60M670.5 216.5v-60M720.5 216.5v-60"/>
                </g>
            </g>
            <g pointer-events="none" class="mark-group role-axis" aria-roledescription="axis" aria-label="X-axis titled 'Strict Assertion' for a linear scale with values from 0 to 20,000,000">
                <path class="background" aria-hidden="true" d="M520.5 216.5Z"/>
                <g class="mark-rule role-axis-tick" stroke="#888">
                    <path d="M520.5 216.5v5M570.5 216.5v5M620.5 216.5v5M670.5 216.5v5M720.5 216.5v5"/>
                </g>
                <g class="mark-text role-axis-label" font-family="sans-serif" font-size="10" fill="#000">
                    <text transform="translate(520.5 231.5)">0</text>
                    <text text-anchor="end" transform="translate(720.5 231.5)">20,000,000</text>
                </g>
                <path stroke="#888" d="M520.5 216.5h200" class="mark-rule role-axis-domain"/>
                <text text-anchor="middle" transform="translate(620.5 246.5)" font-family="sans-serif" font-size="11" font-weight="bold" fill="#000" class="mark-text role-axis-title">Strict Assertion</text>
            </g>
            <g pointer-events="none" class="mark-group role-axis" aria-roledescription="axis" aria-label="Y-axis for a discrete scale with 4 values: ... rest, simple-runtypes, spectypes, valita">
                <path class="background" aria-hidden="true" d="M520.5 156.5Z"/>
                <g class="mark-rule role-axis-tick" stroke="#888">
                    <path d="M520.5 163.5h-5M520.5 178.5h-5M520.5 193.5h-5M520.5 208.5h-5"/>
                </g>
                <g class="mark-text role-axis-label" text-anchor="end" font-family="sans-serif" font-size="10" fill="#000">
                    <text transform="translate(513.5 166.5)">... rest</text>
                    <text transform="translate(513.5 181.5)">simple-runtypes</text>
                    <text transform="translate(513.5 196.5)">spectypes</text>
                    <text transform="translate(513.5 211.5)">valita</text>
                </g>
                <path stroke="#888" d="M520.5 156.5v60" class="mark-rule role-axis-domain"/>
            </g>
            <g class="mark-rect role-mark child__Strict_Assertion_marks" aria-roledescription="rect mark container">
                <path d="M520 186.75h190.756v13.5H520Z" fill="#e45756"/>
                <path d="M520 201.75h28.727v13.5H520Z" fill="#eeca3b"/>
                <path d="M520 171.75h23.509v13.5H520Z" fill="#f58518"/>
                <path d="M520 156.75h4.651v13.5H520Z" fill="#4c78a8"/>
            </g>
        </g>
        <g class="mark-group role-title">
            <path class="background" aria-hidden="true" d="M366.333 5Z" pointer-events="none"/>
            <text text-anchor="middle" transform="translate(366.333 18)" font-family="sans-serif" font-size="16" fill="#000" class="mark-text role-title-text" aria-roledescription="title" aria-label="Title text 'Top 3 packages for each benchmark'" pointer-events="none">Top 3 packages for each benchmark</text>
        </g>
    </g>
</svg>
