<svg xmlns="http://www.w3.org/2000/svg" width="842" height="254" class="marks">
    <path fill="#fff" d="M0 0h842v254H0z"/>
    <g fill="none" stroke-miterlimit="10" aria-roledescription="group mark container" class="mark-group role-frame root">
        <path d="M204 42" aria-hidden="true" class="background"/>
        <g aria-roledescription="group mark container" class="mark-group role-scope child__Safe_Parsing_group">
            <path stroke="#ddd" d="M204.5 42.5h200v60h-200Z" aria-hidden="true" class="background"/>
            <g aria-hidden="true" class="mark-group role-axis">
                <path d="M204.5 102.5" aria-hidden="true" class="background" pointer-events="none"/>
                <g stroke="#ddd" class="mark-rule role-axis-grid" pointer-events="none">
                    <path d="M204.5 102.5v-60M237.5 102.5v-60M271.5 102.5v-60M304.5 102.5v-60M337.5 102.5v-60M371.5 102.5v-60M404.5 102.5v-60"/>
                </g>
            </g>
            <g aria-label="X-axis titled 'Safe Parsing' for a linear scale with values from 0 to 120,000,000" aria-roledescription="axis" class="mark-group role-axis" pointer-events="none">
                <path d="M204.5 102.5" aria-hidden="true" class="background"/>
                <g stroke="#888" class="mark-rule role-axis-tick">
                    <path d="M204.5 102.5v5M237.5 102.5v5M271.5 102.5v5M304.5 102.5v5M337.5 102.5v5M371.5 102.5v5M404.5 102.5v5"/>
                </g>
                <g fill="#000" class="mark-text role-axis-label" font-family="sans-serif" font-size="10">
                    <text transform="translate(204.5 117.5)">0</text>
                    <text text-anchor="end" transform="translate(404.5 117.5)">120,000,000</text>
                </g>
                <path stroke="#888" d="M204.5 102.5h200" class="mark-rule role-axis-domain"/>
                <text fill="#000" class="mark-text role-axis-title" font-family="sans-serif" font-size="11" font-weight="bold" text-anchor="middle" transform="translate(304.5 132.5)">Safe Parsing</text>
            </g>
            <g aria-label="Y-axis for a discrete scale with 4 values: typia, rescript-schema, spectypes, (median)" aria-roledescription="axis" class="mark-group role-axis" pointer-events="none">
                <path d="M204.5 42.5" aria-hidden="true" class="background"/>
                <g stroke="#888" class="mark-rule role-axis-tick">
                    <path d="M204.5 49.5h-5M204.5 64.5h-5M204.5 79.5h-5M204.5 94.5h-5"/>
                </g>
                <g fill="#000" class="mark-text role-axis-label" font-family="sans-serif" font-size="10" text-anchor="end">
                    <text transform="translate(197.5 52.5)">typia</text>
                    <text transform="translate(197.5 67.5)">rescript-schema</text>
                    <text transform="translate(197.5 82.5)">spectypes</text>
                    <text transform="translate(197.5 97.5)">(median)</text>
                </g>
                <path stroke="#888" d="M204.5 42.5v60" class="mark-rule role-axis-domain"/>
            </g>
            <g aria-roledescription="rect mark container" class="mark-rect role-mark child__Safe_Parsing_marks">
                <path fill="#9d755d" d="M204 42.75h188.202v13.5H204Z" aria-label="Safe Parsing: 112921464; name: typia" aria-roledescription="bar"/>
                <path fill="#72b7b2" d="M204 57.75h169.486v13.5H204Z" aria-label="Safe Parsing: 101691399; name: rescript-schema" aria-roledescription="bar"/>
                <path fill="#54a24b" d="M204 72.75h60.271v13.5H204Z" aria-label="Safe Parsing: 36162585; name: spectypes" aria-roledescription="bar"/>
                <path fill="#4c78a8" d="M204 87.75h2.518v13.5H204Z" aria-label="Safe Parsing: 1510561; name: (median)" aria-roledescription="bar"/>
            </g>
        </g>
        <g aria-roledescription="group mark container" class="mark-group role-scope child__Strict_Parsing_group">
            <path stroke="#ddd" d="M620.5 42.5h200v60h-200Z" aria-hidden="true" class="background"/>
            <g aria-hidden="true" class="mark-group role-axis">
                <path d="M620.5 102.5" aria-hidden="true" class="background" pointer-events="none"/>
                <g stroke="#ddd" class="mark-rule role-axis-grid" pointer-events="none">
                    <path d="M620.5 102.5v-60M670.5 102.5v-60M720.5 102.5v-60M770.5 102.5v-60M820.5 102.5v-60"/>
                </g>
            </g>
            <g aria-label="X-axis titled 'Strict Parsing' for a linear scale with values from 0 to 40,000,000" aria-roledescription="axis" class="mark-group role-axis" pointer-events="none">
                <path d="M620.5 102.5" aria-hidden="true" class="background"/>
                <g stroke="#888" class="mark-rule role-axis-tick">
                    <path d="M620.5 102.5v5M670.5 102.5v5M720.5 102.5v5M770.5 102.5v5M820.5 102.5v5"/>
                </g>
                <g fill="#000" class="mark-text role-axis-label" font-family="sans-serif" font-size="10">
                    <text transform="translate(620.5 117.5)">0</text>
                    <text text-anchor="end" transform="translate(820.5 117.5)">40,000,000</text>
                </g>
                <path stroke="#888" d="M620.5 102.5h200" class="mark-rule role-axis-domain"/>
                <text fill="#000" class="mark-text role-axis-title" font-family="sans-serif" font-size="11" font-weight="bold" text-anchor="middle" transform="translate(720.5 132.5)">Strict Parsing</text>
            </g>
            <g aria-label="Y-axis for a discrete scale with 4 values: typia, rescript-schema, ts-runtime-checks, (median)" aria-roledescription="axis" class="mark-group role-axis" pointer-events="none">
                <path d="M620.5 42.5" aria-hidden="true" class="background"/>
                <g stroke="#888" class="mark-rule role-axis-tick">
                    <path d="M620.5 49.5h-5M620.5 64.5h-5M620.5 79.5h-5M620.5 94.5h-5"/>
                </g>
                <g fill="#000" class="mark-text role-axis-label" font-family="sans-serif" font-size="10" text-anchor="end">
                    <text transform="translate(613.5 52.5)">typia</text>
                    <text transform="translate(613.5 67.5)">rescript-schema</text>
                    <text transform="translate(613.5 82.5)">ts-runtime-checks</text>
                    <text transform="translate(613.5 97.5)">(median)</text>
                </g>
                <path stroke="#888" d="M620.5 42.5v60" class="mark-rule role-axis-domain"/>
            </g>
            <g aria-roledescription="rect mark container" class="mark-rect role-mark child__Strict_Parsing_marks">
                <path fill="#9d755d" d="M620 42.75h173.496v13.5H620Z" aria-label="Strict Parsing: 34699149; name: typia" aria-roledescription="bar"/>
                <path fill="#72b7b2" d="M620 57.75h151.12v13.5H620Z" aria-label="Strict Parsing: 30224050; name: rescript-schema" aria-roledescription="bar"/>
                <path fill="#b279a2" d="M620 72.75h180.24v13.5H620Z" aria-label="Strict Parsing: 36047915; name: ts-runtime-checks" aria-roledescription="bar"/>
                <path fill="#4c78a8" d="M620 87.75h6.478v13.5H620Z" aria-label="Strict Parsing: 1295519; name: (median)" aria-roledescription="bar"/>
            </g>
        </g>
        <g aria-roledescription="group mark container" class="mark-group role-scope child__Loose_Assertion_group">
            <path stroke="#ddd" d="M204.5 156.5h200v60h-200Z" aria-hidden="true" class="background"/>
            <g aria-hidden="true" class="mark-group role-axis">
                <path d="M204.5 216.5" aria-hidden="true" class="background" pointer-events="none"/>
                <g stroke="#ddd" class="mark-rule role-axis-grid" pointer-events="none">
                    <path d="M204.5 216.5v-60M260.5 216.5v-60M315.5 216.5v-60M371.5 216.5v-60"/>
                </g>
            </g>
            <g aria-label="X-axis titled 'Loose Assertion' for a linear scale with values from 0 to 180,000,000" aria-roledescription="axis" class="mark-group role-axis" pointer-events="none">
                <path d="M204.5 216.5" aria-hidden="true" class="background"/>
                <g stroke="#888" class="mark-rule role-axis-tick">
                    <path d="M204.5 216.5v5M260.5 216.5v5M315.5 216.5v5M371.5 216.5v5"/>
                </g>
                <g fill="#000" class="mark-text role-axis-label" font-family="sans-serif" font-size="10">
                    <text transform="translate(204.5 231.5)">0</text>
                    <text text-anchor="middle" transform="translate(371.167 231.5)">150,000,000</text>
                </g>
                <path stroke="#888" d="M204.5 216.5h200" class="mark-rule role-axis-domain"/>
                <text fill="#000" class="mark-text role-axis-title" font-family="sans-serif" font-size="11" font-weight="bold" text-anchor="middle" transform="translate(304.5 246.5)">Loose Assertion</text>
            </g>
            <g aria-label="Y-axis for a discrete scale with 4 values: ts-runtime-checks, type-predicate-generator, ts-auto-guard, (median)" aria-roledescription="axis" class="mark-group role-axis" pointer-events="none">
                <path d="M204.5 156.5" aria-hidden="true" class="background"/>
                <g stroke="#888" class="mark-rule role-axis-tick">
                    <path d="M204.5 163.5h-5M204.5 178.5h-5M204.5 193.5h-5M204.5 208.5h-5"/>
                </g>
                <g fill="#000" class="mark-text role-axis-label" font-family="sans-serif" font-size="10" text-anchor="end">
                    <text transform="translate(197.5 166.5)">ts-runtime-checks</text>
                    <text transform="translate(197.5 181.5)">type-predicate-genera…</text>
                    <text transform="translate(197.5 196.5)">ts-auto-guard</text>
                    <text transform="translate(197.5 211.5)">(median)</text>
                </g>
                <path stroke="#888" d="M204.5 156.5v60" class="mark-rule role-axis-domain"/>
            </g>
            <g aria-roledescription="rect mark container" class="mark-rect role-mark child__Loose_Assertion_marks">
                <path fill="#b279a2" d="M204 156.75h189.57v13.5H204Z" aria-label="Loose Assertion: 170613775; name: ts-runtime-checks" aria-roledescription="bar"/>
                <path fill="#ff9da6" d="M204 171.75h180.728v13.5H204Z" aria-label="Loose Assertion: 162655452; name: type-predicate-generator" aria-roledescription="bar"/>
                <path fill="#eeca3b" d="M204 186.75h180.41v13.5H204Z" aria-label="Loose Assertion: 162369717; name: ts-auto-guard" aria-roledescription="bar"/>
                <path fill="#4c78a8" d="M204 201.75h3.37v13.5H204Z" aria-label="Loose Assertion: 3032641; name: (median)" aria-roledescription="bar"/>
            </g>
        </g>
        <g aria-roledescription="group mark container" class="mark-group role-scope child__Strict_Assertion_group">
            <path stroke="#ddd" d="M620.5 156.5h200v60h-200Z" aria-hidden="true" class="background"/>
            <g aria-hidden="true" class="mark-group role-axis">
                <path d="M620.5 216.5" aria-hidden="true" class="background" pointer-events="none"/>
                <g stroke="#ddd" class="mark-rule role-axis-grid" pointer-events="none">
                    <path d="M620.5 216.5v-60M670.5 216.5v-60M720.5 216.5v-60M770.5 216.5v-60M820.5 216.5v-60"/>
                </g>
            </g>
            <g aria-label="X-axis titled 'Strict Assertion' for a linear scale with values from 0 to 40,000,000" aria-roledescription="axis" class="mark-group role-axis" pointer-events="none">
                <path d="M620.5 216.5" aria-hidden="true" class="background"/>
                <g stroke="#888" class="mark-rule role-axis-tick">
                    <path d="M620.5 216.5v5M670.5 216.5v5M720.5 216.5v5M770.5 216.5v5M820.5 216.5v5"/>
                </g>
                <g fill="#000" class="mark-text role-axis-label" font-family="sans-serif" font-size="10">
                    <text transform="translate(620.5 231.5)">0</text>
                    <text text-anchor="end" transform="translate(820.5 231.5)">40,000,000</text>
                </g>
                <path stroke="#888" d="M620.5 216.5h200" class="mark-rule role-axis-domain"/>
                <text fill="#000" class="mark-text role-axis-title" font-family="sans-serif" font-size="11" font-weight="bold" text-anchor="middle" transform="translate(720.5 246.5)">Strict Assertion</text>
            </g>
            <g aria-label="Y-axis for a discrete scale with 4 values: ts-runtime-checks, @sinclair/typebox-(ahead-of-time), @sinclair/typebox-(just-in-time), (median)" aria-roledescription="axis" class="mark-group role-axis" pointer-events="none">
                <path d="M620.5 156.5" aria-hidden="true" class="background"/>
                <g stroke="#888" class="mark-rule role-axis-tick">
                    <path d="M620.5 163.5h-5M620.5 178.5h-5M620.5 193.5h-5M620.5 208.5h-5"/>
                </g>
                <g fill="#000" class="mark-text role-axis-label" font-family="sans-serif" font-size="10" text-anchor="end">
                    <text transform="translate(613.5 166.5)">ts-runtime-checks</text>
                    <text transform="translate(613.5 181.5)">@sinclair/typebox-(ah…</text>
                    <text transform="translate(613.5 196.5)">@sinclair/typebox-(ju…</text>
                    <text transform="translate(613.5 211.5)">(median)</text>
                </g>
                <path stroke="#888" d="M620.5 156.5v60" class="mark-rule role-axis-domain"/>
            </g>
            <g aria-roledescription="rect mark container" class="mark-rect role-mark child__Strict_Assertion_marks">
                <path fill="#b279a2" d="M620 156.75h179.485v13.5H620Z" aria-label="Strict Assertion: 35896938; name: ts-runtime-checks" aria-roledescription="bar"/>
                <path fill="#f58518" d="M620 171.75h184.94v13.5H620Z" aria-label="Strict Assertion: 36987948; name: @sinclair/typebox-(ahead-of-time)" aria-roledescription="bar"/>
                <path fill="#e45756" d="M620 186.75h164.648v13.5H620Z" aria-label="Strict Assertion: 32929690; name: @sinclair/typebox-(just-in-time)" aria-roledescription="bar"/>
                <path fill="#4c78a8" d="M620 201.75h6.572v13.5H620Z" aria-label="Strict Assertion: 1314430; name: (median)" aria-roledescription="bar"/>
            </g>
        </g>
        <g class="mark-group role-title">
            <path d="M421 5" aria-hidden="true" class="background" pointer-events="none"/>
            <text fill="#000" aria-label="Title text 'Top 3 packages for each benchmark + median, (ops count, better ⯈)'" aria-roledescription="title" class="mark-text role-title-text" font-family="sans-serif" font-size="16" pointer-events="none" text-anchor="middle" transform="translate(421 18)">Top 3 packages for each benchmark + median, (ops count, better ⯈)</text>
        </g>
    </g>
</svg>
