<svg xmlns="http://www.w3.org/2000/svg" class="marks" width="843" height="254">
    <path fill="#fff" d="M0 0h843v254H0z"/>
    <g class="mark-group role-frame root" aria-roledescription="group mark container" fill="none" stroke-miterlimit="10">
        <path class="background" aria-hidden="true" d="M204 42Z"/>
        <g class="mark-group role-scope child__Safe_Parsing_group" aria-roledescription="group mark container">
            <path class="background" aria-hidden="true" d="M204.5 42.5h200v60h-200Z" stroke="#ddd"/>
            <g class="mark-group role-axis" aria-hidden="true">
                <path class="background" aria-hidden="true" d="M204.5 102.5Z" pointer-events="none"/>
                <g class="mark-rule role-axis-grid" pointer-events="none" stroke="#ddd">
                    <path d="M204.5 102.5v-60M254.5 102.5v-60M304.5 102.5v-60M354.5 102.5v-60M404.5 102.5v-60"/>
                </g>
            </g>
            <g pointer-events="none" class="mark-group role-axis" aria-roledescription="axis" aria-label="X-axis titled 'Safe Parsing' for a linear scale with values from 0 to 40,000,000">
                <path class="background" aria-hidden="true" d="M204.5 102.5Z"/>
                <g class="mark-rule role-axis-tick" stroke="#888">
                    <path d="M204.5 102.5v5M254.5 102.5v5M304.5 102.5v5M354.5 102.5v5M404.5 102.5v5"/>
                </g>
                <g class="mark-text role-axis-label" font-family="sans-serif" font-size="10" fill="#000">
                    <text transform="translate(204.5 117.5)">0</text>
                    <text text-anchor="end" transform="translate(404.5 117.5)">40,000,000</text>
                </g>
                <path stroke="#888" d="M204.5 102.5h200" class="mark-rule role-axis-domain"/>
                <text text-anchor="middle" transform="translate(304.5 132.5)" font-family="sans-serif" font-size="11" font-weight="bold" fill="#000" class="mark-text role-axis-title">Safe Parsing</text>
            </g>
            <g pointer-events="none" class="mark-group role-axis" aria-roledescription="axis" aria-label="Y-axis for a discrete scale with 4 values: typia, spectypes, rescript-struct, (median)">
                <path class="background" aria-hidden="true" d="M204.5 42.5Z"/>
                <g class="mark-rule role-axis-tick" stroke="#888">
                    <path d="M204.5 49.5h-5M204.5 64.5h-5M204.5 79.5h-5M204.5 94.5h-5"/>
                </g>
                <g class="mark-text role-axis-label" text-anchor="end" font-family="sans-serif" font-size="10" fill="#000">
                    <text transform="translate(197.5 52.5)">typia</text>
                    <text transform="translate(197.5 67.5)">spectypes</text>
                    <text transform="translate(197.5 82.5)">rescript-struct</text>
                    <text transform="translate(197.5 97.5)">(median)</text>
                </g>
                <path stroke="#888" d="M204.5 42.5v60" class="mark-rule role-axis-domain"/>
            </g>
            <g class="mark-rect role-mark child__Safe_Parsing_marks" aria-roledescription="rect mark container">
                <path aria-label="Safe Parsing: 30990448; name: typia" aria-roledescription="bar" d="M204 42.75h154.952v13.5H204Z" fill="#eeca3b"/>
                <path aria-label="Safe Parsing: 21689001; name: spectypes" aria-roledescription="bar" d="M204 57.75h108.445v13.5H204Z" fill="#72b7b2"/>
                <path aria-label="Safe Parsing: 36603977; name: rescript-struct" aria-roledescription="bar" d="M204 72.75h183.02v13.5H204Z" fill="#e45756"/>
                <path aria-label="Safe Parsing: 882451; name: (median)" aria-roledescription="bar" d="M204 87.75h4.412v13.5H204Z" fill="#4c78a8"/>
            </g>
        </g>
        <g class="mark-group role-scope child__Strict_Parsing_group" aria-roledescription="group mark container">
            <path class="background" aria-hidden="true" d="M576.5 42.5h200v60h-200Z" stroke="#ddd"/>
            <g class="mark-group role-axis" aria-hidden="true">
                <path class="background" aria-hidden="true" d="M576.5 102.5Z" pointer-events="none"/>
                <g class="mark-rule role-axis-grid" pointer-events="none" stroke="#ddd">
                    <path d="M576.5 102.5v-60M618.5 102.5v-60M659.5 102.5v-60M701.5 102.5v-60M743.5 102.5v-60"/>
                </g>
            </g>
            <g pointer-events="none" class="mark-group role-axis" aria-roledescription="axis" aria-label="X-axis titled 'Strict Parsing' for a linear scale with values from 0 to 24,000,000">
                <path class="background" aria-hidden="true" d="M576.5 102.5Z"/>
                <g class="mark-rule role-axis-tick" stroke="#888">
                    <path d="M576.5 102.5v5M618.5 102.5v5M659.5 102.5v5M701.5 102.5v5M743.5 102.5v5"/>
                </g>
                <g class="mark-text role-axis-label" font-family="sans-serif" font-size="10" fill="#000">
                    <text transform="translate(576.5 117.5)">0</text>
                    <text text-anchor="middle" transform="translate(659.833 117.5)">10,000,000</text>
                    <text text-anchor="middle" transform="translate(743.167 117.5)">20,000,000</text>
                </g>
                <path stroke="#888" d="M576.5 102.5h200" class="mark-rule role-axis-domain"/>
                <text text-anchor="middle" transform="translate(676.5 132.5)" font-family="sans-serif" font-size="11" font-weight="bold" fill="#000" class="mark-text role-axis-title">Strict Parsing</text>
            </g>
            <g pointer-events="none" class="mark-group role-axis" aria-roledescription="axis" aria-label="Y-axis for a discrete scale with 4 values: ts-runtime-checks, typia, spectypes, (median)">
                <path class="background" aria-hidden="true" d="M576.5 42.5Z"/>
                <g class="mark-rule role-axis-tick" stroke="#888">
                    <path d="M576.5 49.5h-5M576.5 64.5h-5M576.5 79.5h-5M576.5 94.5h-5"/>
                </g>
                <g class="mark-text role-axis-label" text-anchor="end" font-family="sans-serif" font-size="10" fill="#000">
                    <text transform="translate(569.5 52.5)">ts-runtime-checks</text>
                    <text transform="translate(569.5 67.5)">typia</text>
                    <text transform="translate(569.5 82.5)">spectypes</text>
                    <text transform="translate(569.5 97.5)">(median)</text>
                </g>
                <path stroke="#888" d="M576.5 42.5v60" class="mark-rule role-axis-domain"/>
            </g>
            <g class="mark-rect role-mark child__Strict_Parsing_marks" aria-roledescription="rect mark container">
                <path aria-label="Strict Parsing: 20846640; name: ts-runtime-checks" aria-roledescription="bar" d="M576 42.75h173.722v13.5H576Z" fill="#54a24b"/>
                <path aria-label="Strict Parsing: 22260539; name: typia" aria-roledescription="bar" d="M576 57.75h185.504v13.5H576Z" fill="#eeca3b"/>
                <path aria-label="Strict Parsing: 17829299; name: spectypes" aria-roledescription="bar" d="M576 72.75h148.577v13.5H576Z" fill="#72b7b2"/>
                <path aria-label="Strict Parsing: 825801; name: (median)" aria-roledescription="bar" d="M576 87.75h6.882v13.5H576Z" fill="#4c78a8"/>
            </g>
        </g>
        <g class="mark-group role-scope child__Loose_Assertion_group" aria-roledescription="group mark container">
            <path class="background" aria-hidden="true" d="M204.5 156.5h200v60h-200Z" stroke="#ddd"/>
            <g class="mark-group role-axis" aria-hidden="true">
                <path class="background" aria-hidden="true" d="M204.5 216.5Z" pointer-events="none"/>
                <g class="mark-rule role-axis-grid" pointer-events="none" stroke="#ddd">
                    <path d="M204.5 216.5v-60M244.5 216.5v-60M284.5 216.5v-60M324.5 216.5v-60M364.5 216.5v-60M404.5 216.5v-60"/>
                </g>
            </g>
            <g pointer-events="none" class="mark-group role-axis" aria-roledescription="axis" aria-label="X-axis titled 'Loose Assertion' for a linear scale with values from 0 to 100,000,000">
                <path class="background" aria-hidden="true" d="M204.5 216.5Z"/>
                <g class="mark-rule role-axis-tick" stroke="#888">
                    <path d="M204.5 216.5v5M244.5 216.5v5M284.5 216.5v5M324.5 216.5v5M364.5 216.5v5M404.5 216.5v5"/>
                </g>
                <g class="mark-text role-axis-label" font-family="sans-serif" font-size="10" fill="#000">
                    <text transform="translate(204.5 231.5)">0</text>
                    <text text-anchor="middle" transform="translate(284.5 231.5)">40,000,000</text>
                    <text text-anchor="middle" transform="translate(364.5 231.5)">80,000,000</text>
                </g>
                <path stroke="#888" d="M204.5 216.5h200" class="mark-rule role-axis-domain"/>
                <text text-anchor="middle" transform="translate(304.5 246.5)" font-family="sans-serif" font-size="11" font-weight="bold" fill="#000" class="mark-text role-axis-title">Loose Assertion</text>
            </g>
            <g pointer-events="none" class="mark-group role-axis" aria-roledescription="axis" aria-label="Y-axis for a discrete scale with 4 values: ts-runtime-checks, typia, spectypes, (median)">
                <path class="background" aria-hidden="true" d="M204.5 156.5Z"/>
                <g class="mark-rule role-axis-tick" stroke="#888">
                    <path d="M204.5 163.5h-5M204.5 178.5h-5M204.5 193.5h-5M204.5 208.5h-5"/>
                </g>
                <g class="mark-text role-axis-label" text-anchor="end" font-family="sans-serif" font-size="10" fill="#000">
                    <text transform="translate(197.5 166.5)">ts-runtime-checks</text>
                    <text transform="translate(197.5 181.5)">typia</text>
                    <text transform="translate(197.5 196.5)">spectypes</text>
                    <text transform="translate(197.5 211.5)">(median)</text>
                </g>
                <path stroke="#888" d="M204.5 156.5v60" class="mark-rule role-axis-domain"/>
            </g>
            <g class="mark-rect role-mark child__Loose_Assertion_marks" aria-roledescription="rect mark container">
                <path aria-label="Loose Assertion: 95261301; name: ts-runtime-checks" aria-roledescription="bar" d="M204 156.75h190.523v13.5H204Z" fill="#54a24b"/>
                <path aria-label="Loose Assertion: 73463402; name: typia" aria-roledescription="bar" d="M204 171.75h146.927v13.5H204Z" fill="#eeca3b"/>
                <path aria-label="Loose Assertion: 71342921; name: spectypes" aria-roledescription="bar" d="M204 186.75h142.686v13.5H204Z" fill="#72b7b2"/>
                <path aria-label="Loose Assertion: 1011742; name: (median)" aria-roledescription="bar" d="M204 201.75h2.023v13.5H204Z" fill="#4c78a8"/>
            </g>
        </g>
        <g class="mark-group role-scope child__Strict_Assertion_group" aria-roledescription="group mark container">
            <path class="background" aria-hidden="true" d="M576.5 156.5h200v60h-200Z" stroke="#ddd"/>
            <g class="mark-group role-axis" aria-hidden="true">
                <path class="background" aria-hidden="true" d="M576.5 216.5Z" pointer-events="none"/>
                <g class="mark-rule role-axis-grid" pointer-events="none" stroke="#ddd">
                    <path d="M576.5 216.5v-60M618.5 216.5v-60M659.5 216.5v-60M701.5 216.5v-60M743.5 216.5v-60"/>
                </g>
            </g>
            <g pointer-events="none" class="mark-group role-axis" aria-roledescription="axis" aria-label="X-axis titled 'Strict Assertion' for a linear scale with values from 0 to 24,000,000">
                <path class="background" aria-hidden="true" d="M576.5 216.5Z"/>
                <g class="mark-rule role-axis-tick" stroke="#888">
                    <path d="M576.5 216.5v5M618.5 216.5v5M659.5 216.5v5M701.5 216.5v5M743.5 216.5v5"/>
                </g>
                <g class="mark-text role-axis-label" font-family="sans-serif" font-size="10" fill="#000">
                    <text transform="translate(576.5 231.5)">0</text>
                    <text text-anchor="middle" transform="translate(659.833 231.5)">10,000,000</text>
                    <text text-anchor="middle" transform="translate(743.167 231.5)">20,000,000</text>
                </g>
                <path stroke="#888" d="M576.5 216.5h200" class="mark-rule role-axis-domain"/>
                <text text-anchor="middle" transform="translate(676.5 246.5)" font-family="sans-serif" font-size="11" font-weight="bold" fill="#000" class="mark-text role-axis-title">Strict Assertion</text>
            </g>
            <g pointer-events="none" class="mark-group role-axis" aria-roledescription="axis" aria-label="Y-axis for a discrete scale with 4 values: ts-runtime-checks, typia, @sinclair/typebox, (median)">
                <path class="background" aria-hidden="true" d="M576.5 156.5Z"/>
                <g class="mark-rule role-axis-tick" stroke="#888">
                    <path d="M576.5 163.5h-5M576.5 178.5h-5M576.5 193.5h-5M576.5 208.5h-5"/>
                </g>
                <g class="mark-text role-axis-label" text-anchor="end" font-family="sans-serif" font-size="10" fill="#000">
                    <text transform="translate(569.5 166.5)">ts-runtime-checks</text>
                    <text transform="translate(569.5 181.5)">typia</text>
                    <text transform="translate(569.5 196.5)">@sinclair/typebox</text>
                    <text transform="translate(569.5 211.5)">(median)</text>
                </g>
                <path stroke="#888" d="M576.5 156.5v60" class="mark-rule role-axis-domain"/>
            </g>
            <g class="mark-rect role-mark child__Strict_Assertion_marks" aria-roledescription="rect mark container">
                <path aria-label="Strict Assertion: 20898747; name: ts-runtime-checks" aria-roledescription="bar" d="M576 156.75h174.156v13.5H576Z" fill="#54a24b"/>
                <path aria-label="Strict Assertion: 20349986; name: typia" aria-roledescription="bar" d="M576 171.75h169.583v13.5H576Z" fill="#eeca3b"/>
                <path aria-label="Strict Assertion: 22930636; name: @sinclair/typebox" aria-roledescription="bar" d="M576 186.75h191.089v13.5H576Z" fill="#f58518"/>
                <path aria-label="Strict Assertion: 697460.5; name: (median)" aria-roledescription="bar" d="M576 201.75h5.812v13.5H576Z" fill="#4c78a8"/>
            </g>
        </g>
        <g class="mark-group role-title">
            <path class="background" aria-hidden="true" d="M421.833 5Z" pointer-events="none"/>
            <text text-anchor="middle" transform="translate(421.833 18)" font-family="sans-serif" font-size="16" fill="#000" class="mark-text role-title-text" aria-roledescription="title" aria-label="Title text 'Top 3 packages for each benchmark + median, (ops count, better ⯈)'" pointer-events="none">Top 3 packages for each benchmark + median, (ops count, better ⯈)</text>
        </g>
    </g>
</svg>
