<svg xmlns="http://www.w3.org/2000/svg" class="marks" width="774" height="254">
    <path fill="#fff" d="M0 0h774v254H0z"/>
    <g class="mark-group role-frame root" aria-roledescription="group mark container" fill="none" stroke-miterlimit="10">
        <path class="background" aria-hidden="true" d="M189 42Z"/>
        <g class="mark-group role-scope child__Safe_Parsing_group" aria-roledescription="group mark container">
            <path class="background" aria-hidden="true" d="M189.5 42.5h200v60h-200Z" stroke="#ddd"/>
            <g class="mark-group role-axis" aria-roledescription="axis" aria-label="X-axis for a linear scale with values from 0 to 2,600,000">
                <path class="background" aria-hidden="true" d="M189.5 102.5Z" pointer-events="none"/>
                <g class="mark-rule role-axis-grid" pointer-events="none" stroke="#ddd">
                    <path d="M189.5 102.5v-60M227.5 102.5v-60M266.5 102.5v-60M304.5 102.5v-60M343.5 102.5v-60M381.5 102.5v-60"/>
                </g>
            </g>
            <g pointer-events="none" class="mark-group role-axis" aria-roledescription="axis" aria-label="X-axis titled 'Safe Parsing' for a linear scale with values from 0 to 2,600,000">
                <path class="background" aria-hidden="true" d="M189.5 102.5Z"/>
                <g class="mark-rule role-axis-tick" stroke="#888">
                    <path d="M189.5 102.5v5M227.5 102.5v5M266.5 102.5v5M304.5 102.5v5M343.5 102.5v5M381.5 102.5v5"/>
                </g>
                <g class="mark-text role-axis-label" font-family="sans-serif" font-size="10" fill="#000">
                    <text transform="translate(189.5 117.5)">0</text>
                    <text text-anchor="middle" transform="translate(266.423 117.5)">1,000,000</text>
                    <text text-anchor="middle" transform="translate(343.346 117.5)">2,000,000</text>
                </g>
                <path stroke="#888" d="M189.5 102.5h200" class="mark-rule role-axis-domain"/>
                <text text-anchor="middle" transform="translate(289.5 132.5)" font-family="sans-serif" font-size="11" font-weight="bold" fill="#000" class="mark-text role-axis-title">Safe Parsing</text>
            </g>
            <g pointer-events="none" class="mark-group role-axis" aria-roledescription="axis" aria-label="Y-axis for a discrete scale with 4 values: ... rest, @mojotech/json-type-validation, simple-runtypes, valita">
                <path class="background" aria-hidden="true" d="M189.5 42.5Z"/>
                <g class="mark-rule role-axis-tick" stroke="#888">
                    <path d="M189.5 49.5h-5M189.5 64.5h-5M189.5 79.5h-5M189.5 94.5h-5"/>
                </g>
                <g class="mark-text role-axis-label" text-anchor="end" font-family="sans-serif" font-size="10" fill="#000">
                    <text transform="translate(182.5 52.5)">... rest</text>
                    <text transform="translate(182.5 67.5)">@mojotech/json-type-v…</text>
                    <text transform="translate(182.5 82.5)">simple-runtypes</text>
                    <text transform="translate(182.5 97.5)">valita</text>
                </g>
                <path stroke="#888" d="M189.5 42.5v60" class="mark-rule role-axis-domain"/>
            </g>
            <g class="mark-rect role-mark child__Safe_Parsing_marks" aria-roledescription="rect mark container">
                <path d="M189 87.75h196.894v13.5H189Z" fill="#ff9da6"/>
                <path d="M189 57.75h107.47v13.5H189Z" fill="#f58518"/>
                <path d="M189 72.75h99.666v13.5H189Z" fill="#54a24b"/>
                <path d="M189 42.75h31.786v13.5H189Z" fill="#4c78a8"/>
            </g>
        </g>
        <g class="mark-group role-scope child__Strict_Parsing_group" aria-roledescription="group mark container">
            <path class="background" aria-hidden="true" d="M553.5 42.5h200v60h-200Z" stroke="#ddd"/>
            <g class="mark-group role-axis" aria-roledescription="axis" aria-label="X-axis for a linear scale with values from 0 to 2,800,000">
                <path class="background" aria-hidden="true" d="M553.5 102.5Z" pointer-events="none"/>
                <g class="mark-rule role-axis-grid" pointer-events="none" stroke="#ddd">
                    <path d="M553.5 102.5v-60M589.5 102.5v-60M624.5 102.5v-60M660.5 102.5v-60M696.5 102.5v-60M732.5 102.5v-60"/>
                </g>
            </g>
            <g pointer-events="none" class="mark-group role-axis" aria-roledescription="axis" aria-label="X-axis titled 'Strict Parsing' for a linear scale with values from 0 to 2,800,000">
                <path class="background" aria-hidden="true" d="M553.5 102.5Z"/>
                <g class="mark-rule role-axis-tick" stroke="#888">
                    <path d="M553.5 102.5v5M589.5 102.5v5M624.5 102.5v5M660.5 102.5v5M696.5 102.5v5M732.5 102.5v5"/>
                </g>
                <g class="mark-text role-axis-label" font-family="sans-serif" font-size="10" fill="#000">
                    <text transform="translate(553.5 117.5)">0</text>
                    <text text-anchor="middle" transform="translate(732.071 117.5)">2,500,000</text>
                </g>
                <path stroke="#888" d="M553.5 102.5h200" class="mark-rule role-axis-domain"/>
                <text text-anchor="middle" transform="translate(653.5 132.5)" font-family="sans-serif" font-size="11" font-weight="bold" fill="#000" class="mark-text role-axis-title">Strict Parsing</text>
            </g>
            <g pointer-events="none" class="mark-group role-axis" aria-roledescription="axis" aria-label="Y-axis for a discrete scale with 4 values: ... rest, myzod, simple-runtypes, valita">
                <path class="background" aria-hidden="true" d="M553.5 42.5Z"/>
                <g class="mark-rule role-axis-tick" stroke="#888">
                    <path d="M553.5 49.5h-5M553.5 64.5h-5M553.5 79.5h-5M553.5 94.5h-5"/>
                </g>
                <g class="mark-text role-axis-label" text-anchor="end" font-family="sans-serif" font-size="10" fill="#000">
                    <text transform="translate(546.5 52.5)">... rest</text>
                    <text transform="translate(546.5 67.5)">myzod</text>
                    <text transform="translate(546.5 82.5)">simple-runtypes</text>
                    <text transform="translate(546.5 97.5)">valita</text>
                </g>
                <path stroke="#888" d="M553.5 42.5v60" class="mark-rule role-axis-domain"/>
            </g>
            <g class="mark-rect role-mark child__Strict_Parsing_marks" aria-roledescription="rect mark container">
                <path d="M553 87.75h186.298v13.5H553Z" fill="#ff9da6"/>
                <path d="M553 72.75h120.321v13.5H553Z" fill="#54a24b"/>
                <path d="M553 57.75h115.144v13.5H553Z" fill="#72b7b2"/>
                <path d="M553 42.75h35.094v13.5H553Z" fill="#4c78a8"/>
            </g>
        </g>
        <g class="mark-group role-scope child__Loose_Assertion_group" aria-roledescription="group mark container">
            <path class="background" aria-hidden="true" d="M189.5 156.5h200v60h-200Z" stroke="#ddd"/>
            <g class="mark-group role-axis" aria-roledescription="axis" aria-label="X-axis for a linear scale with values from 0 to 35,000,000">
                <path class="background" aria-hidden="true" d="M189.5 216.5Z" pointer-events="none"/>
                <g class="mark-rule role-axis-grid" pointer-events="none" stroke="#ddd">
                    <path d="M189.5 216.5v-60M218.5 216.5v-60M246.5 216.5v-60M275.5 216.5v-60M303.5 216.5v-60M332.5 216.5v-60M360.5 216.5v-60M389.5 216.5v-60"/>
                </g>
            </g>
            <g pointer-events="none" class="mark-group role-axis" aria-roledescription="axis" aria-label="X-axis titled 'Loose Assertion' for a linear scale with values from 0 to 35,000,000">
                <path class="background" aria-hidden="true" d="M189.5 216.5Z"/>
                <g class="mark-rule role-axis-tick" stroke="#888">
                    <path d="M189.5 216.5v5M218.5 216.5v5M246.5 216.5v5M275.5 216.5v5M303.5 216.5v5M332.5 216.5v5M360.5 216.5v5M389.5 216.5v5"/>
                </g>
                <g class="mark-text role-axis-label" font-family="sans-serif" font-size="10" fill="#000">
                    <text transform="translate(189.5 231.5)">0</text>
                    <text text-anchor="end" transform="translate(389.5 231.5)">35,000,000</text>
                </g>
                <path stroke="#888" d="M189.5 216.5h200" class="mark-rule role-axis-domain"/>
                <text text-anchor="middle" transform="translate(289.5 246.5)" font-family="sans-serif" font-size="11" font-weight="bold" fill="#000" class="mark-text role-axis-title">Loose Assertion</text>
            </g>
            <g pointer-events="none" class="mark-group role-axis" aria-roledescription="axis" aria-label="Y-axis for a discrete scale with 4 values: ... rest, marshal, suretype, ts-json-validator">
                <path class="background" aria-hidden="true" d="M189.5 156.5Z"/>
                <g class="mark-rule role-axis-tick" stroke="#888">
                    <path d="M189.5 163.5h-5M189.5 178.5h-5M189.5 193.5h-5M189.5 208.5h-5"/>
                </g>
                <g class="mark-text role-axis-label" text-anchor="end" font-family="sans-serif" font-size="10" fill="#000">
                    <text transform="translate(182.5 166.5)">... rest</text>
                    <text transform="translate(182.5 181.5)">marshal</text>
                    <text transform="translate(182.5 196.5)">suretype</text>
                    <text transform="translate(182.5 211.5)">ts-json-validator</text>
                </g>
                <path stroke="#888" d="M189.5 156.5v60" class="mark-rule role-axis-domain"/>
            </g>
            <g class="mark-rect role-mark child__Loose_Assertion_marks" aria-roledescription="rect mark container">
                <path d="M189 186.75h173.232v13.5H189Z" fill="#eeca3b"/>
                <path d="M189 201.75h158.276v13.5H189Z" fill="#b279a2"/>
                <path d="M189 171.75h141.41v13.5H189Z" fill="#e45756"/>
                <path d="M189 156.75h2.113v13.5H189Z" fill="#4c78a8"/>
            </g>
        </g>
        <g class="mark-group role-scope child__Strict_Assertion_group" aria-roledescription="group mark container">
            <path class="background" aria-hidden="true" d="M553.5 156.5h200v60h-200Z" stroke="#ddd"/>
            <g class="mark-group role-axis" aria-roledescription="axis" aria-label="X-axis for a linear scale with values from 0 to 2,600,000">
                <path class="background" aria-hidden="true" d="M553.5 216.5Z" pointer-events="none"/>
                <g class="mark-rule role-axis-grid" pointer-events="none" stroke="#ddd">
                    <path d="M553.5 216.5v-60M591.5 216.5v-60M630.5 216.5v-60M668.5 216.5v-60M707.5 216.5v-60M745.5 216.5v-60"/>
                </g>
            </g>
            <g pointer-events="none" class="mark-group role-axis" aria-roledescription="axis" aria-label="X-axis titled 'Strict Assertion' for a linear scale with values from 0 to 2,600,000">
                <path class="background" aria-hidden="true" d="M553.5 216.5Z"/>
                <g class="mark-rule role-axis-tick" stroke="#888">
                    <path d="M553.5 216.5v5M591.5 216.5v5M630.5 216.5v5M668.5 216.5v5M707.5 216.5v5M745.5 216.5v5"/>
                </g>
                <g class="mark-text role-axis-label" font-family="sans-serif" font-size="10" fill="#000">
                    <text transform="translate(553.5 231.5)">0</text>
                    <text text-anchor="middle" transform="translate(630.423 231.5)">1,000,000</text>
                    <text text-anchor="middle" transform="translate(707.346 231.5)">2,000,000</text>
                </g>
                <path stroke="#888" d="M553.5 216.5h200" class="mark-rule role-axis-domain"/>
                <text text-anchor="middle" transform="translate(653.5 246.5)" font-family="sans-serif" font-size="11" font-weight="bold" fill="#000" class="mark-text role-axis-title">Strict Assertion</text>
            </g>
            <g pointer-events="none" class="mark-group role-axis" aria-roledescription="axis" aria-label="Y-axis for a discrete scale with 4 values: ... rest, myzod, simple-runtypes, valita">
                <path class="background" aria-hidden="true" d="M553.5 156.5Z"/>
                <g class="mark-rule role-axis-tick" stroke="#888">
                    <path d="M553.5 163.5h-5M553.5 178.5h-5M553.5 193.5h-5M553.5 208.5h-5"/>
                </g>
                <g class="mark-text role-axis-label" text-anchor="end" font-family="sans-serif" font-size="10" fill="#000">
                    <text transform="translate(546.5 166.5)">... rest</text>
                    <text transform="translate(546.5 181.5)">myzod</text>
                    <text transform="translate(546.5 196.5)">simple-runtypes</text>
                    <text transform="translate(546.5 211.5)">valita</text>
                </g>
                <path stroke="#888" d="M553.5 156.5v60" class="mark-rule role-axis-domain"/>
            </g>
            <g class="mark-rect role-mark child__Strict_Assertion_marks" aria-roledescription="rect mark container">
                <path d="M553 201.75h198.885v13.5H553Z" fill="#ff9da6"/>
                <path d="M553 186.75h128.959v13.5H553Z" fill="#54a24b"/>
                <path d="M553 171.75h120.117v13.5H553Z" fill="#72b7b2"/>
                <path d="M553 156.75h29.692v13.5H553Z" fill="#4c78a8"/>
            </g>
        </g>
        <g class="mark-group role-title">
            <path class="background" aria-hidden="true" d="M386.786 5Z" pointer-events="none"/>
            <text text-anchor="middle" transform="translate(386.786 18)" font-family="sans-serif" font-size="16" fill="#000" class="mark-text role-title-text" aria-roledescription="title" aria-label="Title text 'Top 3 packages for each benchmark'" pointer-events="none">Top 3 packages for each benchmark</text>
        </g>
    </g>
</svg>
