<svg xmlns="http://www.w3.org/2000/svg" class="marks" width="843" height="254">
    <path fill="#fff" d="M0 0h843v254H0z"/>
    <g class="mark-group role-frame root" aria-roledescription="group mark container" fill="none" stroke-miterlimit="10">
        <path class="background" aria-hidden="true" d="M178 42Z"/>
        <g class="mark-group role-scope child__Safe_Parsing_group" aria-roledescription="group mark container">
            <path class="background" aria-hidden="true" d="M178.5 42.5h200v60h-200Z" stroke="#ddd"/>
            <g class="mark-group role-axis" aria-hidden="true">
                <path class="background" aria-hidden="true" d="M178.5 102.5Z" pointer-events="none"/>
                <g class="mark-rule role-axis-grid" pointer-events="none" stroke="#ddd">
                    <path d="M178.5 102.5v-60M218.5 102.5v-60M258.5 102.5v-60M298.5 102.5v-60M338.5 102.5v-60M378.5 102.5v-60"/>
                </g>
            </g>
            <g pointer-events="none" class="mark-group role-axis" aria-roledescription="axis" aria-label="X-axis titled 'Safe Parsing' for a linear scale with values from 0 to 50,000,000">
                <path class="background" aria-hidden="true" d="M178.5 102.5Z"/>
                <g class="mark-rule role-axis-tick" stroke="#888">
                    <path d="M178.5 102.5v5M218.5 102.5v5M258.5 102.5v5M298.5 102.5v5M338.5 102.5v5M378.5 102.5v5"/>
                </g>
                <g class="mark-text role-axis-label" font-family="sans-serif" font-size="10" fill="#000">
                    <text transform="translate(178.5 117.5)">0</text>
                    <text text-anchor="middle" transform="translate(258.5 117.5)">20,000,000</text>
                    <text text-anchor="middle" transform="translate(338.5 117.5)">40,000,000</text>
                </g>
                <path stroke="#888" d="M178.5 102.5h200" class="mark-rule role-axis-domain"/>
                <text text-anchor="middle" transform="translate(278.5 132.5)" font-family="sans-serif" font-size="11" font-weight="bold" fill="#000" class="mark-text role-axis-title">Safe Parsing</text>
            </g>
            <g pointer-events="none" class="mark-group role-axis" aria-roledescription="axis" aria-label="Y-axis for a discrete scale with 4 values: typia, spectypes, rescript-struct, (median)">
                <path class="background" aria-hidden="true" d="M178.5 42.5Z"/>
                <g class="mark-rule role-axis-tick" stroke="#888">
                    <path d="M178.5 49.5h-5M178.5 64.5h-5M178.5 79.5h-5M178.5 94.5h-5"/>
                </g>
                <g class="mark-text role-axis-label" text-anchor="end" font-family="sans-serif" font-size="10" fill="#000">
                    <text transform="translate(171.5 52.5)">typia</text>
                    <text transform="translate(171.5 67.5)">spectypes</text>
                    <text transform="translate(171.5 82.5)">rescript-struct</text>
                    <text transform="translate(171.5 97.5)">(median)</text>
                </g>
                <path stroke="#888" d="M178.5 42.5v60" class="mark-rule role-axis-domain"/>
            </g>
            <g class="mark-rect role-mark child__Safe_Parsing_marks" aria-roledescription="rect mark container">
                <path aria-label="Safe Parsing: 33413392; name: typia" aria-roledescription="bar" d="M178 42.75h133.654v13.5H178Z" fill="#eeca3b"/>
                <path aria-label="Safe Parsing: 19129439; name: spectypes" aria-roledescription="bar" d="M178 57.75h76.518v13.5H178Z" fill="#72b7b2"/>
                <path aria-label="Safe Parsing: 48868433; name: rescript-struct" aria-roledescription="bar" d="M178 72.75h195.474v13.5H178Z" fill="#e45756"/>
                <path aria-label="Safe Parsing: 911131; name: (median)" aria-roledescription="bar" d="M178 87.75h3.645v13.5H178Z" fill="#4c78a8"/>
            </g>
        </g>
        <g class="mark-group role-scope child__Strict_Parsing_group" aria-roledescription="group mark container">
            <path class="background" aria-hidden="true" d="M576.5 42.5h200v60h-200Z" stroke="#ddd"/>
            <g class="mark-group role-axis" aria-hidden="true">
                <path class="background" aria-hidden="true" d="M576.5 102.5Z" pointer-events="none"/>
                <g class="mark-rule role-axis-grid" pointer-events="none" stroke="#ddd">
                    <path d="M576.5 102.5v-60M614.5 102.5v-60M653.5 102.5v-60M691.5 102.5v-60M730.5 102.5v-60M768.5 102.5v-60"/>
                </g>
            </g>
            <g pointer-events="none" class="mark-group role-axis" aria-roledescription="axis" aria-label="X-axis titled 'Strict Parsing' for a linear scale with values from 0 to 26,000,000">
                <path class="background" aria-hidden="true" d="M576.5 102.5Z"/>
                <g class="mark-rule role-axis-tick" stroke="#888">
                    <path d="M576.5 102.5v5M614.5 102.5v5M653.5 102.5v5M691.5 102.5v5M730.5 102.5v5M768.5 102.5v5"/>
                </g>
                <g class="mark-text role-axis-label" font-family="sans-serif" font-size="10" fill="#000">
                    <text transform="translate(576.5 117.5)">0</text>
                    <text text-anchor="middle" transform="translate(768.808 117.5)">25,000,000</text>
                </g>
                <path stroke="#888" d="M576.5 102.5h200" class="mark-rule role-axis-domain"/>
                <text text-anchor="middle" transform="translate(676.5 132.5)" font-family="sans-serif" font-size="11" font-weight="bold" fill="#000" class="mark-text role-axis-title">Strict Parsing</text>
            </g>
            <g pointer-events="none" class="mark-group role-axis" aria-roledescription="axis" aria-label="Y-axis for a discrete scale with 4 values: ts-runtime-checks, typia, spectypes, (median)">
                <path class="background" aria-hidden="true" d="M576.5 42.5Z"/>
                <g class="mark-rule role-axis-tick" stroke="#888">
                    <path d="M576.5 49.5h-5M576.5 64.5h-5M576.5 79.5h-5M576.5 94.5h-5"/>
                </g>
                <g class="mark-text role-axis-label" text-anchor="end" font-family="sans-serif" font-size="10" fill="#000">
                    <text transform="translate(569.5 52.5)">ts-runtime-checks</text>
                    <text transform="translate(569.5 67.5)">typia</text>
                    <text transform="translate(569.5 82.5)">spectypes</text>
                    <text transform="translate(569.5 97.5)">(median)</text>
                </g>
                <path stroke="#888" d="M576.5 42.5v60" class="mark-rule role-axis-domain"/>
            </g>
            <g class="mark-rect role-mark child__Strict_Parsing_marks" aria-roledescription="rect mark container">
                <path aria-label="Strict Parsing: 20987758; name: ts-runtime-checks" aria-roledescription="bar" d="M576 42.75h161.444v13.5H576Z" fill="#54a24b"/>
                <path aria-label="Strict Parsing: 24620315; name: typia" aria-roledescription="bar" d="M576 57.75h189.387v13.5H576Z" fill="#eeca3b"/>
                <path aria-label="Strict Parsing: 19237937; name: spectypes" aria-roledescription="bar" d="M576 72.75h147.984v13.5H576Z" fill="#72b7b2"/>
                <path aria-label="Strict Parsing: 870924.5; name: (median)" aria-roledescription="bar" d="M576 87.75h6.7v13.5H576Z" fill="#4c78a8"/>
            </g>
        </g>
        <g class="mark-group role-scope child__Loose_Assertion_group" aria-roledescription="group mark container">
            <path class="background" aria-hidden="true" d="M178.5 156.5h200v60h-200Z" stroke="#ddd"/>
            <g class="mark-group role-axis" aria-hidden="true">
                <path class="background" aria-hidden="true" d="M178.5 216.5Z" pointer-events="none"/>
                <g class="mark-rule role-axis-grid" pointer-events="none" stroke="#ddd">
                    <path d="M178.5 216.5v-60M209.5 216.5v-60M240.5 216.5v-60M270.5 216.5v-60M301.5 216.5v-60M332.5 216.5v-60M363.5 216.5v-60"/>
                </g>
            </g>
            <g pointer-events="none" class="mark-group role-axis" aria-roledescription="axis" aria-label="X-axis titled 'Loose Assertion' for a linear scale with values from 0 to 130,000,000">
                <path class="background" aria-hidden="true" d="M178.5 216.5Z"/>
                <g class="mark-rule role-axis-tick" stroke="#888">
                    <path d="M178.5 216.5v5M209.5 216.5v5M240.5 216.5v5M270.5 216.5v5M301.5 216.5v5M332.5 216.5v5M363.5 216.5v5"/>
                </g>
                <g class="mark-text role-axis-label" font-family="sans-serif" font-size="10" fill="#000">
                    <text transform="translate(178.5 231.5)">0</text>
                    <text text-anchor="middle" transform="translate(363.115 231.5)">120,000,000</text>
                </g>
                <path stroke="#888" d="M178.5 216.5h200" class="mark-rule role-axis-domain"/>
                <text text-anchor="middle" transform="translate(278.5 246.5)" font-family="sans-serif" font-size="11" font-weight="bold" fill="#000" class="mark-text role-axis-title">Loose Assertion</text>
            </g>
            <g pointer-events="none" class="mark-group role-axis" aria-roledescription="axis" aria-label="Y-axis for a discrete scale with 4 values: ts-runtime-checks, typia, spectypes, (median)">
                <path class="background" aria-hidden="true" d="M178.5 156.5Z"/>
                <g class="mark-rule role-axis-tick" stroke="#888">
                    <path d="M178.5 163.5h-5M178.5 178.5h-5M178.5 193.5h-5M178.5 208.5h-5"/>
                </g>
                <g class="mark-text role-axis-label" text-anchor="end" font-family="sans-serif" font-size="10" fill="#000">
                    <text transform="translate(171.5 166.5)">ts-runtime-checks</text>
                    <text transform="translate(171.5 181.5)">typia</text>
                    <text transform="translate(171.5 196.5)">spectypes</text>
                    <text transform="translate(171.5 211.5)">(median)</text>
                </g>
                <path stroke="#888" d="M178.5 156.5v60" class="mark-rule role-axis-domain"/>
            </g>
            <g class="mark-rect role-mark child__Loose_Assertion_marks" aria-roledescription="rect mark container">
                <path aria-label="Loose Assertion: 122795315; name: ts-runtime-checks" aria-roledescription="bar" d="M178 156.75h188.916v13.5H178Z" fill="#54a24b"/>
                <path aria-label="Loose Assertion: 107527609; name: typia" aria-roledescription="bar" d="M178 171.75h165.427v13.5H178Z" fill="#eeca3b"/>
                <path aria-label="Loose Assertion: 94051415; name: spectypes" aria-roledescription="bar" d="M178 186.75h144.694v13.5H178Z" fill="#72b7b2"/>
                <path aria-label="Loose Assertion: 953870; name: (median)" aria-roledescription="bar" d="M178 201.75h1.467v13.5H178Z" fill="#4c78a8"/>
            </g>
        </g>
        <g class="mark-group role-scope child__Strict_Assertion_group" aria-roledescription="group mark container">
            <path class="background" aria-hidden="true" d="M576.5 156.5h200v60h-200Z" stroke="#ddd"/>
            <g class="mark-group role-axis" aria-hidden="true">
                <path class="background" aria-hidden="true" d="M576.5 216.5Z" pointer-events="none"/>
                <g class="mark-rule role-axis-grid" pointer-events="none" stroke="#ddd">
                    <path d="M576.5 216.5v-60M618.5 216.5v-60M659.5 216.5v-60M701.5 216.5v-60M743.5 216.5v-60"/>
                </g>
            </g>
            <g pointer-events="none" class="mark-group role-axis" aria-roledescription="axis" aria-label="X-axis titled 'Strict Assertion' for a linear scale with values from 0 to 24,000,000">
                <path class="background" aria-hidden="true" d="M576.5 216.5Z"/>
                <g class="mark-rule role-axis-tick" stroke="#888">
                    <path d="M576.5 216.5v5M618.5 216.5v5M659.5 216.5v5M701.5 216.5v5M743.5 216.5v5"/>
                </g>
                <g class="mark-text role-axis-label" font-family="sans-serif" font-size="10" fill="#000">
                    <text transform="translate(576.5 231.5)">0</text>
                    <text text-anchor="middle" transform="translate(659.833 231.5)">10,000,000</text>
                    <text text-anchor="middle" transform="translate(743.167 231.5)">20,000,000</text>
                </g>
                <path stroke="#888" d="M576.5 216.5h200" class="mark-rule role-axis-domain"/>
                <text text-anchor="middle" transform="translate(676.5 246.5)" font-family="sans-serif" font-size="11" font-weight="bold" fill="#000" class="mark-text role-axis-title">Strict Assertion</text>
            </g>
            <g pointer-events="none" class="mark-group role-axis" aria-roledescription="axis" aria-label="Y-axis for a discrete scale with 4 values: ts-runtime-checks, typia, @sinclair/typebox, (median)">
                <path class="background" aria-hidden="true" d="M576.5 156.5Z"/>
                <g class="mark-rule role-axis-tick" stroke="#888">
                    <path d="M576.5 163.5h-5M576.5 178.5h-5M576.5 193.5h-5M576.5 208.5h-5"/>
                </g>
                <g class="mark-text role-axis-label" text-anchor="end" font-family="sans-serif" font-size="10" fill="#000">
                    <text transform="translate(569.5 166.5)">ts-runtime-checks</text>
                    <text transform="translate(569.5 181.5)">typia</text>
                    <text transform="translate(569.5 196.5)">@sinclair/typebox</text>
                    <text transform="translate(569.5 211.5)">(median)</text>
                </g>
                <path stroke="#888" d="M576.5 156.5v60" class="mark-rule role-axis-domain"/>
            </g>
            <g class="mark-rect role-mark child__Strict_Assertion_marks" aria-roledescription="rect mark container">
                <path aria-label="Strict Assertion: 21443659; name: ts-runtime-checks" aria-roledescription="bar" d="M576 156.75h178.697v13.5H576Z" fill="#54a24b"/>
                <path aria-label="Strict Assertion: 22460394; name: typia" aria-roledescription="bar" d="M576 171.75h187.17v13.5H576Z" fill="#eeca3b"/>
                <path aria-label="Strict Assertion: 23347849; name: @sinclair/typebox" aria-roledescription="bar" d="M576 186.75h194.565v13.5H576Z" fill="#f58518"/>
                <path aria-label="Strict Assertion: 707784.5; name: (median)" aria-roledescription="bar" d="M576 201.75h5.898v13.5H576Z" fill="#4c78a8"/>
            </g>
        </g>
        <g class="mark-group role-title">
            <path class="background" aria-hidden="true" d="M421.654 5Z" pointer-events="none"/>
            <text text-anchor="middle" transform="translate(421.654 18)" font-family="sans-serif" font-size="16" fill="#000" class="mark-text role-title-text" aria-roledescription="title" aria-label="Title text 'Top 3 packages for each benchmark + median, (ops count, better ⯈)'" pointer-events="none">Top 3 packages for each benchmark + median, (ops count, better ⯈)</text>
        </g>
    </g>
</svg>
