<svg xmlns="http://www.w3.org/2000/svg" width="854" height="254" class="marks">
    <path fill="#fff" d="M0 0h854v254H0z"/>
    <g fill="none" stroke-miterlimit="10" aria-roledescription="group mark container" class="mark-group role-frame root">
        <path d="M189 42" aria-hidden="true" class="background"/>
        <g aria-roledescription="group mark container" class="mark-group role-scope child__Safe_Parsing_group">
            <path stroke="#ddd" d="M189.5 42.5h200v60h-200Z" aria-hidden="true" class="background"/>
            <g aria-hidden="true" class="mark-group role-axis">
                <path d="M189.5 102.5" aria-hidden="true" class="background" pointer-events="none"/>
                <g stroke="#ddd" class="mark-rule role-axis-grid" pointer-events="none">
                    <path d="M189.5 102.5v-60M252.5 102.5v-60M314.5 102.5v-60M377.5 102.5v-60"/>
                </g>
            </g>
            <g aria-label="X-axis titled 'Safe Parsing' for a linear scale with values from 0 to 160,000,000" aria-roledescription="axis" class="mark-group role-axis" pointer-events="none">
                <path d="M189.5 102.5" aria-hidden="true" class="background"/>
                <g stroke="#888" class="mark-rule role-axis-tick">
                    <path d="M189.5 102.5v5M252.5 102.5v5M314.5 102.5v5M377.5 102.5v5"/>
                </g>
                <g fill="#000" class="mark-text role-axis-label" font-family="sans-serif" font-size="10">
                    <text transform="translate(189.5 117.5)">0</text>
                    <text text-anchor="middle" transform="translate(377 117.5)">150,000,000</text>
                </g>
                <path stroke="#888" d="M189.5 102.5h200" class="mark-rule role-axis-domain"/>
                <text fill="#000" class="mark-text role-axis-title" font-family="sans-serif" font-size="11" font-weight="bold" text-anchor="middle" transform="translate(289.5 132.5)">Safe Parsing</text>
            </g>
            <g aria-label="Y-axis for a discrete scale with 4 values: typia, @sx3/gate, sury, (median)" aria-roledescription="axis" class="mark-group role-axis" pointer-events="none">
                <path d="M189.5 42.5" aria-hidden="true" class="background"/>
                <g stroke="#888" class="mark-rule role-axis-tick">
                    <path d="M189.5 49.5h-5M189.5 64.5h-5M189.5 79.5h-5M189.5 94.5h-5"/>
                </g>
                <g fill="#000" class="mark-text role-axis-label" font-family="sans-serif" font-size="10" text-anchor="end">
                    <text transform="translate(182.5 52.5)">typia</text>
                    <text transform="translate(182.5 67.5)">@sx3/gate</text>
                    <text transform="translate(182.5 82.5)">sury</text>
                    <text transform="translate(182.5 97.5)">(median)</text>
                </g>
                <path stroke="#888" d="M189.5 42.5v60" class="mark-rule role-axis-domain"/>
            </g>
            <g aria-roledescription="rect mark container" class="mark-rect role-mark child__Safe_Parsing_marks">
                <path fill="#ff9da6" d="M189 42.75h199.404v13.5H189Z" aria-label="Safe Parsing: 159523551; name: typia" aria-roledescription="bar"/>
                <path fill="#72b7b2" d="M189 57.75h171.497v13.5H189Z" aria-label="Safe Parsing: 137197926; name: @sx3/gate" aria-roledescription="bar"/>
                <path fill="#54a24b" d="M189 72.75h166.498v13.5H189Z" aria-label="Safe Parsing: 133198534; name: sury" aria-roledescription="bar"/>
                <path fill="#4c78a8" d="M189 87.75h2.985v13.5H189Z" aria-label="Safe Parsing: 2388089; name: (median)" aria-roledescription="bar"/>
            </g>
        </g>
        <g aria-roledescription="group mark container" class="mark-group role-scope child__Strict_Parsing_group">
            <path stroke="#ddd" d="M626.5 42.5h200v60h-200Z" aria-hidden="true" class="background"/>
            <g aria-hidden="true" class="mark-group role-axis">
                <path d="M626.5 102.5" aria-hidden="true" class="background" pointer-events="none"/>
                <g stroke="#ddd" class="mark-rule role-axis-grid" pointer-events="none">
                    <path d="M626.5 102.5v-60M662.5 102.5v-60M699.5 102.5v-60M735.5 102.5v-60M771.5 102.5v-60M808.5 102.5v-60"/>
                </g>
            </g>
            <g aria-label="X-axis titled 'Strict Parsing' for a linear scale with values from 0 to 55,000,000" aria-roledescription="axis" class="mark-group role-axis" pointer-events="none">
                <path d="M626.5 102.5" aria-hidden="true" class="background"/>
                <g stroke="#888" class="mark-rule role-axis-tick">
                    <path d="M626.5 102.5v5M662.5 102.5v5M699.5 102.5v5M735.5 102.5v5M771.5 102.5v5M808.5 102.5v5"/>
                </g>
                <g fill="#000" class="mark-text role-axis-label" font-family="sans-serif" font-size="10">
                    <text transform="translate(626.5 117.5)">0</text>
                    <text text-anchor="middle" transform="translate(808.318 117.5)">50,000,000</text>
                </g>
                <path stroke="#888" d="M626.5 102.5h200" class="mark-rule role-axis-domain"/>
                <text fill="#000" class="mark-text role-axis-title" font-family="sans-serif" font-size="11" font-weight="bold" text-anchor="middle" transform="translate(726.5 132.5)">Strict Parsing</text>
            </g>
            <g aria-label="Y-axis for a discrete scale with 4 values: typia, @sx3/gate, ts-runtime-checks, (median)" aria-roledescription="axis" class="mark-group role-axis" pointer-events="none">
                <path d="M626.5 42.5" aria-hidden="true" class="background"/>
                <g stroke="#888" class="mark-rule role-axis-tick">
                    <path d="M626.5 49.5h-5M626.5 64.5h-5M626.5 79.5h-5M626.5 94.5h-5"/>
                </g>
                <g fill="#000" class="mark-text role-axis-label" font-family="sans-serif" font-size="10" text-anchor="end">
                    <text transform="translate(619.5 52.5)">typia</text>
                    <text transform="translate(619.5 67.5)">@sx3/gate</text>
                    <text transform="translate(619.5 82.5)">ts-runtime-checks</text>
                    <text transform="translate(619.5 97.5)">(median)</text>
                </g>
                <path stroke="#888" d="M626.5 42.5v60" class="mark-rule role-axis-domain"/>
            </g>
            <g aria-roledescription="rect mark container" class="mark-rect role-mark child__Strict_Parsing_marks">
                <path fill="#ff9da6" d="M626 42.75h184.56v13.5H626Z" aria-label="Strict Parsing: 50753940; name: typia" aria-roledescription="bar"/>
                <path fill="#72b7b2" d="M626 57.75h166.861v13.5H626Z" aria-label="Strict Parsing: 45886848; name: @sx3/gate" aria-roledescription="bar"/>
                <path fill="#eeca3b" d="M626 72.75h156.627v13.5H626Z" aria-label="Strict Parsing: 43072399; name: ts-runtime-checks" aria-roledescription="bar"/>
                <path fill="#4c78a8" d="M626 87.75h8.298v13.5H626Z" aria-label="Strict Parsing: 2281928; name: (median)" aria-roledescription="bar"/>
            </g>
        </g>
        <g aria-roledescription="group mark container" class="mark-group role-scope child__Loose_Assertion_group">
            <path stroke="#ddd" d="M189.5 156.5h200v60h-200Z" aria-hidden="true" class="background"/>
            <g aria-hidden="true" class="mark-group role-axis">
                <path d="M189.5 216.5" aria-hidden="true" class="background" pointer-events="none"/>
                <g stroke="#ddd" class="mark-rule role-axis-grid" pointer-events="none">
                    <path d="M189.5 216.5v-60M231.5 216.5v-60M272.5 216.5v-60M314.5 216.5v-60M356.5 216.5v-60"/>
                </g>
            </g>
            <g aria-label="X-axis titled 'Loose Assertion' for a linear scale with values from 0 to 240,000,000" aria-roledescription="axis" class="mark-group role-axis" pointer-events="none">
                <path d="M189.5 216.5" aria-hidden="true" class="background"/>
                <g stroke="#888" class="mark-rule role-axis-tick">
                    <path d="M189.5 216.5v5M231.5 216.5v5M272.5 216.5v5M314.5 216.5v5M356.5 216.5v5"/>
                </g>
                <g fill="#000" class="mark-text role-axis-label" font-family="sans-serif" font-size="10">
                    <text transform="translate(189.5 231.5)">0</text>
                    <text text-anchor="middle" transform="translate(356.167 231.5)">200,000,000</text>
                </g>
                <path stroke="#888" d="M189.5 216.5h200" class="mark-rule role-axis-domain"/>
                <text fill="#000" class="mark-text role-axis-title" font-family="sans-serif" font-size="11" font-weight="bold" text-anchor="middle" transform="translate(289.5 246.5)">Loose Assertion</text>
            </g>
            <g aria-label="Y-axis for a discrete scale with 4 values: ts-runtime-checks, type-predicate-generator, @sinclair/typebox-(ahead-of-time), (median)" aria-roledescription="axis" class="mark-group role-axis" pointer-events="none">
                <path d="M189.5 156.5" aria-hidden="true" class="background"/>
                <g stroke="#888" class="mark-rule role-axis-tick">
                    <path d="M189.5 163.5h-5M189.5 178.5h-5M189.5 193.5h-5M189.5 208.5h-5"/>
                </g>
                <g fill="#000" class="mark-text role-axis-label" font-family="sans-serif" font-size="10" text-anchor="end">
                    <text transform="translate(182.5 166.5)">ts-runtime-checks</text>
                    <text transform="translate(182.5 181.5)">type-predicate-genera…</text>
                    <text transform="translate(182.5 196.5)">@sinclair/typebox-(ah…</text>
                    <text transform="translate(182.5 211.5)">(median)</text>
                </g>
                <path stroke="#888" d="M189.5 156.5v60" class="mark-rule role-axis-domain"/>
            </g>
            <g aria-roledescription="rect mark container" class="mark-rect role-mark child__Loose_Assertion_marks">
                <path fill="#eeca3b" d="M189 156.75h176.596v13.5H189Z" aria-label="Loose Assertion: 211915224; name: ts-runtime-checks" aria-roledescription="bar"/>
                <path fill="#b279a2" d="M189 171.75h186.484v13.5H189Z" aria-label="Loose Assertion: 223780700; name: type-predicate-generator" aria-roledescription="bar"/>
                <path fill="#f58518" d="M189 186.75h172.358v13.5H189Z" aria-label="Loose Assertion: 206829224; name: @sinclair/typebox-(ahead-of-time)" aria-roledescription="bar"/>
                <path fill="#4c78a8" d="M189 201.75h4.303v13.5H189Z" aria-label="Loose Assertion: 5163388; name: (median)" aria-roledescription="bar"/>
            </g>
        </g>
        <g aria-roledescription="group mark container" class="mark-group role-scope child__Strict_Assertion_group">
            <path stroke="#ddd" d="M626.5 156.5h200v60h-200Z" aria-hidden="true" class="background"/>
            <g aria-hidden="true" class="mark-group role-axis">
                <path d="M626.5 216.5" aria-hidden="true" class="background" pointer-events="none"/>
                <g stroke="#ddd" class="mark-rule role-axis-grid" pointer-events="none">
                    <path d="M626.5 216.5v-60M662.5 216.5v-60M699.5 216.5v-60M735.5 216.5v-60M771.5 216.5v-60M808.5 216.5v-60"/>
                </g>
            </g>
            <g aria-label="X-axis titled 'Strict Assertion' for a linear scale with values from 0 to 55,000,000" aria-roledescription="axis" class="mark-group role-axis" pointer-events="none">
                <path d="M626.5 216.5" aria-hidden="true" class="background"/>
                <g stroke="#888" class="mark-rule role-axis-tick">
                    <path d="M626.5 216.5v5M662.5 216.5v5M699.5 216.5v5M735.5 216.5v5M771.5 216.5v5M808.5 216.5v5"/>
                </g>
                <g fill="#000" class="mark-text role-axis-label" font-family="sans-serif" font-size="10">
                    <text transform="translate(626.5 231.5)">0</text>
                    <text text-anchor="middle" transform="translate(808.318 231.5)">50,000,000</text>
                </g>
                <path stroke="#888" d="M626.5 216.5h200" class="mark-rule role-axis-domain"/>
                <text fill="#000" class="mark-text role-axis-title" font-family="sans-serif" font-size="11" font-weight="bold" text-anchor="middle" transform="translate(726.5 246.5)">Strict Assertion</text>
            </g>
            <g aria-label="Y-axis for a discrete scale with 4 values: typia, @sinclair/typebox-(ahead-of-time), @sinclair/typebox-(just-in-time), (median)" aria-roledescription="axis" class="mark-group role-axis" pointer-events="none">
                <path d="M626.5 156.5" aria-hidden="true" class="background"/>
                <g stroke="#888" class="mark-rule role-axis-tick">
                    <path d="M626.5 163.5h-5M626.5 178.5h-5M626.5 193.5h-5M626.5 208.5h-5"/>
                </g>
                <g fill="#000" class="mark-text role-axis-label" font-family="sans-serif" font-size="10" text-anchor="end">
                    <text transform="translate(619.5 166.5)">typia</text>
                    <text transform="translate(619.5 181.5)">@sinclair/typebox-(ah…</text>
                    <text transform="translate(619.5 196.5)">@sinclair/typebox-(ju…</text>
                    <text transform="translate(619.5 211.5)">(median)</text>
                </g>
                <path stroke="#888" d="M626.5 156.5v60" class="mark-rule role-axis-domain"/>
            </g>
            <g aria-roledescription="rect mark container" class="mark-rect role-mark child__Strict_Assertion_marks">
                <path fill="#ff9da6" d="M626 156.75h166.437v13.5H626Z" aria-label="Strict Assertion: 45770098; name: typia" aria-roledescription="bar"/>
                <path fill="#f58518" d="M626 171.75h188.066v13.5H626Z" aria-label="Strict Assertion: 51718167; name: @sinclair/typebox-(ahead-of-time)" aria-roledescription="bar"/>
                <path fill="#e45756" d="M626 186.75h168.399v13.5H626Z" aria-label="Strict Assertion: 46309608; name: @sinclair/typebox-(just-in-time)" aria-roledescription="bar"/>
                <path fill="#4c78a8" d="M626 201.75h10.059v13.5H626Z" aria-label="Strict Assertion: 2766107; name: (median)" aria-roledescription="bar"/>
            </g>
        </g>
        <g class="mark-group role-title">
            <path d="M426.91 5" aria-hidden="true" class="background" pointer-events="none"/>
            <text fill="#000" aria-label="Title text 'Top 3 packages for each benchmark + median, (ops count, better ⯈)'" aria-roledescription="title" class="mark-text role-title-text" font-family="sans-serif" font-size="16" pointer-events="none" text-anchor="middle" transform="translate(426.91 18)">Top 3 packages for each benchmark + median, (ops count, better ⯈)</text>
        </g>
    </g>
</svg>
