<svg xmlns="http://www.w3.org/2000/svg" class="marks" width="855" height="254">
    <path fill="#fff" d="M0 0h855v254H0z"/>
    <g class="mark-group role-frame root" aria-roledescription="group mark container" fill="none" stroke-miterlimit="10">
        <path class="background" aria-hidden="true" d="M189 42Z"/>
        <g class="mark-group role-scope child__Safe_Parsing_group" aria-roledescription="group mark container">
            <path class="background" aria-hidden="true" d="M189.5 42.5h200v60h-200Z" stroke="#ddd"/>
            <g class="mark-group role-axis" aria-hidden="true">
                <path class="background" aria-hidden="true" d="M189.5 102.5Z" pointer-events="none"/>
                <g class="mark-rule role-axis-grid" pointer-events="none" stroke="#ddd">
                    <path d="M189.5 102.5v-60M227.5 102.5v-60M266.5 102.5v-60M304.5 102.5v-60M343.5 102.5v-60M381.5 102.5v-60"/>
                </g>
            </g>
            <g pointer-events="none" class="mark-group role-axis" aria-roledescription="axis" aria-label="X-axis titled 'Safe Parsing' for a linear scale with values from 0 to 26,000,000">
                <path class="background" aria-hidden="true" d="M189.5 102.5Z"/>
                <g class="mark-rule role-axis-tick" stroke="#888">
                    <path d="M189.5 102.5v5M227.5 102.5v5M266.5 102.5v5M304.5 102.5v5M343.5 102.5v5M381.5 102.5v5"/>
                </g>
                <g class="mark-text role-axis-label" font-family="sans-serif" font-size="10" fill="#000">
                    <text transform="translate(189.5 117.5)">0</text>
                    <text text-anchor="middle" transform="translate(381.808 117.5)">25,000,000</text>
                </g>
                <path stroke="#888" d="M189.5 102.5h200" class="mark-rule role-axis-domain"/>
                <text text-anchor="middle" transform="translate(289.5 132.5)" font-family="sans-serif" font-size="11" font-weight="bold" fill="#000" class="mark-text role-axis-title">Safe Parsing</text>
            </g>
            <g pointer-events="none" class="mark-group role-axis" aria-roledescription="axis" aria-label="Y-axis for a discrete scale with 4 values: typia, rescript-struct, spectypes, (median)">
                <path class="background" aria-hidden="true" d="M189.5 42.5Z"/>
                <g class="mark-rule role-axis-tick" stroke="#888">
                    <path d="M189.5 49.5h-5M189.5 64.5h-5M189.5 79.5h-5M189.5 94.5h-5"/>
                </g>
                <g class="mark-text role-axis-label" text-anchor="end" font-family="sans-serif" font-size="10" fill="#000">
                    <text transform="translate(182.5 52.5)">typia</text>
                    <text transform="translate(182.5 67.5)">rescript-struct</text>
                    <text transform="translate(182.5 82.5)">spectypes</text>
                    <text transform="translate(182.5 97.5)">(median)</text>
                </g>
                <path stroke="#888" d="M189.5 42.5v60" class="mark-rule role-axis-domain"/>
            </g>
            <g class="mark-rect role-mark child__Safe_Parsing_marks" aria-roledescription="rect mark container">
                <path aria-label="Safe Parsing: 25080995; name: typia" aria-roledescription="bar" d="M189 42.75h192.93v13.5H189Z" fill="#b279a2"/>
                <path aria-label="Safe Parsing: 25865541; name: rescript-struct" aria-roledescription="bar" d="M189 57.75h198.966v13.5H189Z" fill="#72b7b2"/>
                <path aria-label="Safe Parsing: 17765186; name: spectypes" aria-roledescription="bar" d="M189 72.75h136.655v13.5H189Z" fill="#54a24b"/>
                <path aria-label="Safe Parsing: 956349.5; name: (median)" aria-roledescription="bar" d="M189 87.75h7.357v13.5H189Z" fill="#4c78a8"/>
            </g>
        </g>
        <g class="mark-group role-scope child__Strict_Parsing_group" aria-roledescription="group mark container">
            <path class="background" aria-hidden="true" d="M627.5 42.5h200v60h-200Z" stroke="#ddd"/>
            <g class="mark-group role-axis" aria-hidden="true">
                <path class="background" aria-hidden="true" d="M627.5 102.5Z" pointer-events="none"/>
                <g class="mark-rule role-axis-grid" pointer-events="none" stroke="#ddd">
                    <path d="M627.5 102.5v-60M672.5 102.5v-60M718.5 102.5v-60M763.5 102.5v-60M809.5 102.5v-60"/>
                </g>
            </g>
            <g pointer-events="none" class="mark-group role-axis" aria-roledescription="axis" aria-label="X-axis titled 'Strict Parsing' for a linear scale with values from 0 to 22,000,000">
                <path class="background" aria-hidden="true" d="M627.5 102.5Z"/>
                <g class="mark-rule role-axis-tick" stroke="#888">
                    <path d="M627.5 102.5v5M672.5 102.5v5M718.5 102.5v5M763.5 102.5v5M809.5 102.5v5"/>
                </g>
                <g class="mark-text role-axis-label" font-family="sans-serif" font-size="10" fill="#000">
                    <text transform="translate(627.5 117.5)">0</text>
                    <text text-anchor="middle" transform="translate(718.41 117.5)">10,000,000</text>
                    <text text-anchor="middle" transform="translate(809.318 117.5)">20,000,000</text>
                </g>
                <path stroke="#888" d="M627.5 102.5h200" class="mark-rule role-axis-domain"/>
                <text text-anchor="middle" transform="translate(727.5 132.5)" font-family="sans-serif" font-size="11" font-weight="bold" fill="#000" class="mark-text role-axis-title">Strict Parsing</text>
            </g>
            <g pointer-events="none" class="mark-group role-axis" aria-roledescription="axis" aria-label="Y-axis for a discrete scale with 4 values: ts-runtime-checks, typia, spectypes, (median)">
                <path class="background" aria-hidden="true" d="M627.5 42.5Z"/>
                <g class="mark-rule role-axis-tick" stroke="#888">
                    <path d="M627.5 49.5h-5M627.5 64.5h-5M627.5 79.5h-5M627.5 94.5h-5"/>
                </g>
                <g class="mark-text role-axis-label" text-anchor="end" font-family="sans-serif" font-size="10" fill="#000">
                    <text transform="translate(620.5 52.5)">ts-runtime-checks</text>
                    <text transform="translate(620.5 67.5)">typia</text>
                    <text transform="translate(620.5 82.5)">spectypes</text>
                    <text transform="translate(620.5 97.5)">(median)</text>
                </g>
                <path stroke="#888" d="M627.5 42.5v60" class="mark-rule role-axis-domain"/>
            </g>
            <g class="mark-rect role-mark child__Strict_Parsing_marks" aria-roledescription="rect mark container">
                <path aria-label="Strict Parsing: 20863620; name: ts-runtime-checks" aria-roledescription="bar" d="M627 42.75h189.67v13.5H627Z" fill="#eeca3b"/>
                <path aria-label="Strict Parsing: 18493405; name: typia" aria-roledescription="bar" d="M627 57.75h168.122v13.5H627Z" fill="#b279a2"/>
                <path aria-label="Strict Parsing: 17562711; name: spectypes" aria-roledescription="bar" d="M627 72.75h159.661v13.5H627Z" fill="#54a24b"/>
                <path aria-label="Strict Parsing: 902798; name: (median)" aria-roledescription="bar" d="M627 87.75h8.207v13.5H627Z" fill="#4c78a8"/>
            </g>
        </g>
        <g class="mark-group role-scope child__Loose_Assertion_group" aria-roledescription="group mark container">
            <path class="background" aria-hidden="true" d="M189.5 156.5h200v60h-200Z" stroke="#ddd"/>
            <g class="mark-group role-axis" aria-hidden="true">
                <path class="background" aria-hidden="true" d="M189.5 216.5Z" pointer-events="none"/>
                <g class="mark-rule role-axis-grid" pointer-events="none" stroke="#ddd">
                    <path d="M189.5 216.5v-60M229.5 216.5v-60M269.5 216.5v-60M309.5 216.5v-60M349.5 216.5v-60M389.5 216.5v-60"/>
                </g>
            </g>
            <g pointer-events="none" class="mark-group role-axis" aria-roledescription="axis" aria-label="X-axis titled 'Loose Assertion' for a linear scale with values from 0 to 100,000,000">
                <path class="background" aria-hidden="true" d="M189.5 216.5Z"/>
                <g class="mark-rule role-axis-tick" stroke="#888">
                    <path d="M189.5 216.5v5M229.5 216.5v5M269.5 216.5v5M309.5 216.5v5M349.5 216.5v5M389.5 216.5v5"/>
                </g>
                <g class="mark-text role-axis-label" font-family="sans-serif" font-size="10" fill="#000">
                    <text transform="translate(189.5 231.5)">0</text>
                    <text text-anchor="middle" transform="translate(269.5 231.5)">40,000,000</text>
                    <text text-anchor="middle" transform="translate(349.5 231.5)">80,000,000</text>
                </g>
                <path stroke="#888" d="M189.5 216.5h200" class="mark-rule role-axis-domain"/>
                <text text-anchor="middle" transform="translate(289.5 246.5)" font-family="sans-serif" font-size="11" font-weight="bold" fill="#000" class="mark-text role-axis-title">Loose Assertion</text>
            </g>
            <g pointer-events="none" class="mark-group role-axis" aria-roledescription="axis" aria-label="Y-axis for a discrete scale with 4 values: ts-runtime-checks, @sinclair/typebox-(ahead-of-time), typia, (median)">
                <path class="background" aria-hidden="true" d="M189.5 156.5Z"/>
                <g class="mark-rule role-axis-tick" stroke="#888">
                    <path d="M189.5 163.5h-5M189.5 178.5h-5M189.5 193.5h-5M189.5 208.5h-5"/>
                </g>
                <g class="mark-text role-axis-label" text-anchor="end" font-family="sans-serif" font-size="10" fill="#000">
                    <text transform="translate(182.5 166.5)">ts-runtime-checks</text>
                    <text transform="translate(182.5 181.5)">@sinclair/typebox-(ah…</text>
                    <text transform="translate(182.5 196.5)">typia</text>
                    <text transform="translate(182.5 211.5)">(median)</text>
                </g>
                <path stroke="#888" d="M189.5 156.5v60" class="mark-rule role-axis-domain"/>
            </g>
            <g class="mark-rect role-mark child__Loose_Assertion_marks" aria-roledescription="rect mark container">
                <path aria-label="Loose Assertion: 95091847; name: ts-runtime-checks" aria-roledescription="bar" d="M189 156.75h190.184v13.5H189Z" fill="#eeca3b"/>
                <path aria-label="Loose Assertion: 86516988; name: @sinclair/typebox-(ahead-of-time)" aria-roledescription="bar" d="M189 171.75h173.034v13.5H189Z" fill="#f58518"/>
                <path aria-label="Loose Assertion: 73176021; name: typia" aria-roledescription="bar" d="M189 186.75h146.352v13.5H189Z" fill="#b279a2"/>
                <path aria-label="Loose Assertion: 1101380; name: (median)" aria-roledescription="bar" d="M189 201.75h2.203v13.5H189Z" fill="#4c78a8"/>
            </g>
        </g>
        <g class="mark-group role-scope child__Strict_Assertion_group" aria-roledescription="group mark container">
            <path class="background" aria-hidden="true" d="M627.5 156.5h200v60h-200Z" stroke="#ddd"/>
            <g class="mark-group role-axis" aria-hidden="true">
                <path class="background" aria-hidden="true" d="M627.5 216.5Z" pointer-events="none"/>
                <g class="mark-rule role-axis-grid" pointer-events="none" stroke="#ddd">
                    <path d="M627.5 216.5v-60M672.5 216.5v-60M718.5 216.5v-60M763.5 216.5v-60M809.5 216.5v-60"/>
                </g>
            </g>
            <g pointer-events="none" class="mark-group role-axis" aria-roledescription="axis" aria-label="X-axis titled 'Strict Assertion' for a linear scale with values from 0 to 22,000,000">
                <path class="background" aria-hidden="true" d="M627.5 216.5Z"/>
                <g class="mark-rule role-axis-tick" stroke="#888">
                    <path d="M627.5 216.5v5M672.5 216.5v5M718.5 216.5v5M763.5 216.5v5M809.5 216.5v5"/>
                </g>
                <g class="mark-text role-axis-label" font-family="sans-serif" font-size="10" fill="#000">
                    <text transform="translate(627.5 231.5)">0</text>
                    <text text-anchor="middle" transform="translate(718.41 231.5)">10,000,000</text>
                    <text text-anchor="middle" transform="translate(809.318 231.5)">20,000,000</text>
                </g>
                <path stroke="#888" d="M627.5 216.5h200" class="mark-rule role-axis-domain"/>
                <text text-anchor="middle" transform="translate(727.5 246.5)" font-family="sans-serif" font-size="11" font-weight="bold" fill="#000" class="mark-text role-axis-title">Strict Assertion</text>
            </g>
            <g pointer-events="none" class="mark-group role-axis" aria-roledescription="axis" aria-label="Y-axis for a discrete scale with 4 values: ts-runtime-checks, @sinclair/typebox-(ahead-of-time), @sinclair/typebox-(just-in-time), (median)">
                <path class="background" aria-hidden="true" d="M627.5 156.5Z"/>
                <g class="mark-rule role-axis-tick" stroke="#888">
                    <path d="M627.5 163.5h-5M627.5 178.5h-5M627.5 193.5h-5M627.5 208.5h-5"/>
                </g>
                <g class="mark-text role-axis-label" text-anchor="end" font-family="sans-serif" font-size="10" fill="#000">
                    <text transform="translate(620.5 166.5)">ts-runtime-checks</text>
                    <text transform="translate(620.5 181.5)">@sinclair/typebox-(ah…</text>
                    <text transform="translate(620.5 196.5)">@sinclair/typebox-(ju…</text>
                    <text transform="translate(620.5 211.5)">(median)</text>
                </g>
                <path stroke="#888" d="M627.5 156.5v60" class="mark-rule role-axis-domain"/>
            </g>
            <g class="mark-rect role-mark child__Strict_Assertion_marks" aria-roledescription="rect mark container">
                <path aria-label="Strict Assertion: 20903080; name: ts-runtime-checks" aria-roledescription="bar" d="M627 156.75h190.028v13.5H627Z" fill="#eeca3b"/>
                <path aria-label="Strict Assertion: 20948678; name: @sinclair/typebox-(ahead-of-time)" aria-roledescription="bar" d="M627 171.75h190.443v13.5H627Z" fill="#f58518"/>
                <path aria-label="Strict Assertion: 19604780; name: @sinclair/typebox-(just-in-time)" aria-roledescription="bar" d="M627 186.75h178.225v13.5H627Z" fill="#e45756"/>
                <path aria-label="Strict Assertion: 768800; name: (median)" aria-roledescription="bar" d="M627 201.75h6.99v13.5H627Z" fill="#4c78a8"/>
            </g>
        </g>
        <g class="mark-group role-title">
            <path class="background" aria-hidden="true" d="M427.41 5Z" pointer-events="none"/>
            <text text-anchor="middle" transform="translate(427.41 18)" font-family="sans-serif" font-size="16" fill="#000" class="mark-text role-title-text" aria-roledescription="title" aria-label="Title text 'Top 3 packages for each benchmark + median, (ops count, better ⯈)'" pointer-events="none">Top 3 packages for each benchmark + median, (ops count, better ⯈)</text>
        </g>
    </g>
</svg>
