<svg xmlns="http://www.w3.org/2000/svg" width="850" height="254" class="marks">
    <path fill="#fff" d="M0 0h850v254H0z"/>
    <g fill="none" stroke-miterlimit="10" aria-roledescription="group mark container" class="mark-group role-frame root">
        <path d="M189 42" aria-hidden="true" class="background"/>
        <g aria-roledescription="group mark container" class="mark-group role-scope child__Safe_Parsing_group">
            <path stroke="#ddd" d="M189.5 42.5h200v60h-200Z" aria-hidden="true" class="background"/>
            <g aria-hidden="true" class="mark-group role-axis">
                <path d="M189.5 102.5" aria-hidden="true" class="background" pointer-events="none"/>
                <g stroke="#ddd" class="mark-rule role-axis-grid" pointer-events="none">
                    <path d="M189.5 102.5v-60M245.5 102.5v-60M300.5 102.5v-60M356.5 102.5v-60"/>
                </g>
            </g>
            <g aria-label="X-axis titled 'Safe Parsing' for a linear scale with values from 0 to 180,000,000" aria-roledescription="axis" class="mark-group role-axis" pointer-events="none">
                <path d="M189.5 102.5" aria-hidden="true" class="background"/>
                <g stroke="#888" class="mark-rule role-axis-tick">
                    <path d="M189.5 102.5v5M245.5 102.5v5M300.5 102.5v5M356.5 102.5v5"/>
                </g>
                <g fill="#000" class="mark-text role-axis-label" font-family="sans-serif" font-size="10">
                    <text transform="translate(189.5 117.5)">0</text>
                    <text text-anchor="middle" transform="translate(356.167 117.5)">150,000,000</text>
                </g>
                <path stroke="#888" d="M189.5 102.5h200" class="mark-rule role-axis-domain"/>
                <text fill="#000" class="mark-text role-axis-title" font-family="sans-serif" font-size="11" font-weight="bold" text-anchor="middle" transform="translate(289.5 132.5)">Safe Parsing</text>
            </g>
            <g aria-label="Y-axis for a discrete scale with 4 values: typia, rescript-schema, paseri-(ahead-of-time), (median)" aria-roledescription="axis" class="mark-group role-axis" pointer-events="none">
                <path d="M189.5 42.5" aria-hidden="true" class="background"/>
                <g stroke="#888" class="mark-rule role-axis-tick">
                    <path d="M189.5 49.5h-5M189.5 64.5h-5M189.5 79.5h-5M189.5 94.5h-5"/>
                </g>
                <g fill="#000" class="mark-text role-axis-label" font-family="sans-serif" font-size="10" text-anchor="end">
                    <text transform="translate(182.5 52.5)">typia</text>
                    <text transform="translate(182.5 67.5)">rescript-schema</text>
                    <text transform="translate(182.5 82.5)">paseri-(ahead-of-time)</text>
                    <text transform="translate(182.5 97.5)">(median)</text>
                </g>
                <path stroke="#888" d="M189.5 42.5v60" class="mark-rule role-axis-domain"/>
            </g>
            <g aria-roledescription="rect mark container" class="mark-rect role-mark child__Safe_Parsing_marks">
                <path fill="#9d755d" d="M189 42.75h196.971v13.5H189Z" aria-label="Safe Parsing: 177274119; name: typia" aria-roledescription="bar"/>
                <path fill="#eeca3b" d="M189 57.75h162.442v13.5H189Z" aria-label="Safe Parsing: 146197565; name: rescript-schema" aria-roledescription="bar"/>
                <path fill="#54a24b" d="M189 72.75h160.315v13.5H189Z" aria-label="Safe Parsing: 144283923; name: paseri-(ahead-of-time)" aria-roledescription="bar"/>
                <path fill="#4c78a8" d="M189 87.75h3.028v13.5H189Z" aria-label="Safe Parsing: 2725283; name: (median)" aria-roledescription="bar"/>
            </g>
        </g>
        <g aria-roledescription="group mark container" class="mark-group role-scope child__Strict_Parsing_group">
            <path stroke="#ddd" d="M619.5 42.5h200v60h-200Z" aria-hidden="true" class="background"/>
            <g aria-hidden="true" class="mark-group role-axis">
                <path d="M619.5 102.5" aria-hidden="true" class="background" pointer-events="none"/>
                <g stroke="#ddd" class="mark-rule role-axis-grid" pointer-events="none">
                    <path d="M619.5 102.5v-60M652.5 102.5v-60M686.5 102.5v-60M719.5 102.5v-60M752.5 102.5v-60M786.5 102.5v-60M819.5 102.5v-60"/>
                </g>
            </g>
            <g aria-label="X-axis titled 'Strict Parsing' for a linear scale with values from 0 to 60,000,000" aria-roledescription="axis" class="mark-group role-axis" pointer-events="none">
                <path d="M619.5 102.5" aria-hidden="true" class="background"/>
                <g stroke="#888" class="mark-rule role-axis-tick">
                    <path d="M619.5 102.5v5M652.5 102.5v5M686.5 102.5v5M719.5 102.5v5M752.5 102.5v5M786.5 102.5v5M819.5 102.5v5"/>
                </g>
                <g fill="#000" class="mark-text role-axis-label" font-family="sans-serif" font-size="10">
                    <text transform="translate(619.5 117.5)">0</text>
                    <text text-anchor="end" transform="translate(819.5 117.5)">60,000,000</text>
                </g>
                <path stroke="#888" d="M619.5 102.5h200" class="mark-rule role-axis-domain"/>
                <text fill="#000" class="mark-text role-axis-title" font-family="sans-serif" font-size="11" font-weight="bold" text-anchor="middle" transform="translate(719.5 132.5)">Strict Parsing</text>
            </g>
            <g aria-label="Y-axis for a discrete scale with 4 values: typia, @sx3/gate, ts-runtime-checks, (median)" aria-roledescription="axis" class="mark-group role-axis" pointer-events="none">
                <path d="M619.5 42.5" aria-hidden="true" class="background"/>
                <g stroke="#888" class="mark-rule role-axis-tick">
                    <path d="M619.5 49.5h-5M619.5 64.5h-5M619.5 79.5h-5M619.5 94.5h-5"/>
                </g>
                <g fill="#000" class="mark-text role-axis-label" font-family="sans-serif" font-size="10" text-anchor="end">
                    <text transform="translate(612.5 52.5)">typia</text>
                    <text transform="translate(612.5 67.5)">@sx3/gate</text>
                    <text transform="translate(612.5 82.5)">ts-runtime-checks</text>
                    <text transform="translate(612.5 97.5)">(median)</text>
                </g>
                <path stroke="#888" d="M619.5 42.5v60" class="mark-rule role-axis-domain"/>
            </g>
            <g aria-roledescription="rect mark container" class="mark-rect role-mark child__Strict_Parsing_marks">
                <path fill="#9d755d" d="M619 42.75h185.05v13.5H619Z" aria-label="Strict Parsing: 55514876; name: typia" aria-roledescription="bar"/>
                <path fill="#72b7b2" d="M619 57.75h157.705v13.5H619Z" aria-label="Strict Parsing: 47311358; name: @sx3/gate" aria-roledescription="bar"/>
                <path fill="#b279a2" d="M619 72.75h157.69v13.5H619Z" aria-label="Strict Parsing: 47307043; name: ts-runtime-checks" aria-roledescription="bar"/>
                <path fill="#4c78a8" d="M619 87.75h8.92v13.5H619Z" aria-label="Strict Parsing: 2676235.5; name: (median)" aria-roledescription="bar"/>
            </g>
        </g>
        <g aria-roledescription="group mark container" class="mark-group role-scope child__Loose_Assertion_group">
            <path stroke="#ddd" d="M189.5 156.5h200v60h-200Z" aria-hidden="true" class="background"/>
            <g aria-hidden="true" class="mark-group role-axis">
                <path d="M189.5 216.5" aria-hidden="true" class="background" pointer-events="none"/>
                <g stroke="#ddd" class="mark-rule role-axis-grid" pointer-events="none">
                    <path d="M189.5 216.5v-60M231.5 216.5v-60M272.5 216.5v-60M314.5 216.5v-60M356.5 216.5v-60"/>
                </g>
            </g>
            <g aria-label="X-axis titled 'Loose Assertion' for a linear scale with values from 0 to 240,000,000" aria-roledescription="axis" class="mark-group role-axis" pointer-events="none">
                <path d="M189.5 216.5" aria-hidden="true" class="background"/>
                <g stroke="#888" class="mark-rule role-axis-tick">
                    <path d="M189.5 216.5v5M231.5 216.5v5M272.5 216.5v5M314.5 216.5v5M356.5 216.5v5"/>
                </g>
                <g fill="#000" class="mark-text role-axis-label" font-family="sans-serif" font-size="10">
                    <text transform="translate(189.5 231.5)">0</text>
                    <text text-anchor="middle" transform="translate(356.167 231.5)">200,000,000</text>
                </g>
                <path stroke="#888" d="M189.5 216.5h200" class="mark-rule role-axis-domain"/>
                <text fill="#000" class="mark-text role-axis-title" font-family="sans-serif" font-size="11" font-weight="bold" text-anchor="middle" transform="translate(289.5 246.5)">Loose Assertion</text>
            </g>
            <g aria-label="Y-axis for a discrete scale with 4 values: ts-runtime-checks, @sinclair/typebox-(ahead-of-time), type-predicate-generator, (median)" aria-roledescription="axis" class="mark-group role-axis" pointer-events="none">
                <path d="M189.5 156.5" aria-hidden="true" class="background"/>
                <g stroke="#888" class="mark-rule role-axis-tick">
                    <path d="M189.5 163.5h-5M189.5 178.5h-5M189.5 193.5h-5M189.5 208.5h-5"/>
                </g>
                <g fill="#000" class="mark-text role-axis-label" font-family="sans-serif" font-size="10" text-anchor="end">
                    <text transform="translate(182.5 166.5)">ts-runtime-checks</text>
                    <text transform="translate(182.5 181.5)">@sinclair/typebox-(ah…</text>
                    <text transform="translate(182.5 196.5)">type-predicate-genera…</text>
                    <text transform="translate(182.5 211.5)">(median)</text>
                </g>
                <path stroke="#888" d="M189.5 156.5v60" class="mark-rule role-axis-domain"/>
            </g>
            <g aria-roledescription="rect mark container" class="mark-rect role-mark child__Loose_Assertion_marks">
                <path fill="#b279a2" d="M189 156.75h193.471v13.5H189Z" aria-label="Loose Assertion: 232165328; name: ts-runtime-checks" aria-roledescription="bar"/>
                <path fill="#f58518" d="M189 171.75h193.15v13.5H189Z" aria-label="Loose Assertion: 231779045; name: @sinclair/typebox-(ahead-of-time)" aria-roledescription="bar"/>
                <path fill="#ff9da6" d="M189 186.75h189.87v13.5H189Z" aria-label="Loose Assertion: 227844513; name: type-predicate-generator" aria-roledescription="bar"/>
                <path fill="#4c78a8" d="M189 201.75h5.002v13.5H189Z" aria-label="Loose Assertion: 6002131; name: (median)" aria-roledescription="bar"/>
            </g>
        </g>
        <g aria-roledescription="group mark container" class="mark-group role-scope child__Strict_Assertion_group">
            <path stroke="#ddd" d="M619.5 156.5h200v60h-200Z" aria-hidden="true" class="background"/>
            <g aria-hidden="true" class="mark-group role-axis">
                <path d="M619.5 216.5" aria-hidden="true" class="background" pointer-events="none"/>
                <g stroke="#ddd" class="mark-rule role-axis-grid" pointer-events="none">
                    <path d="M619.5 216.5v-60M650.5 216.5v-60M681.5 216.5v-60M711.5 216.5v-60M742.5 216.5v-60M773.5 216.5v-60M804.5 216.5v-60"/>
                </g>
            </g>
            <g aria-label="X-axis titled 'Strict Assertion' for a linear scale with values from 0 to 65,000,000" aria-roledescription="axis" class="mark-group role-axis" pointer-events="none">
                <path d="M619.5 216.5" aria-hidden="true" class="background"/>
                <g stroke="#888" class="mark-rule role-axis-tick">
                    <path d="M619.5 216.5v5M650.5 216.5v5M681.5 216.5v5M711.5 216.5v5M742.5 216.5v5M773.5 216.5v5M804.5 216.5v5"/>
                </g>
                <g fill="#000" class="mark-text role-axis-label" font-family="sans-serif" font-size="10">
                    <text transform="translate(619.5 231.5)">0</text>
                    <text text-anchor="middle" transform="translate(804.115 231.5)">60,000,000</text>
                </g>
                <path stroke="#888" d="M619.5 216.5h200" class="mark-rule role-axis-domain"/>
                <text fill="#000" class="mark-text role-axis-title" font-family="sans-serif" font-size="11" font-weight="bold" text-anchor="middle" transform="translate(719.5 246.5)">Strict Assertion</text>
            </g>
            <g aria-label="Y-axis for a discrete scale with 4 values: typia, @sinclair/typebox-(ahead-of-time), @sinclair/typebox-(just-in-time), (median)" aria-roledescription="axis" class="mark-group role-axis" pointer-events="none">
                <path d="M619.5 156.5" aria-hidden="true" class="background"/>
                <g stroke="#888" class="mark-rule role-axis-tick">
                    <path d="M619.5 163.5h-5M619.5 178.5h-5M619.5 193.5h-5M619.5 208.5h-5"/>
                </g>
                <g fill="#000" class="mark-text role-axis-label" font-family="sans-serif" font-size="10" text-anchor="end">
                    <text transform="translate(612.5 166.5)">typia</text>
                    <text transform="translate(612.5 181.5)">@sinclair/typebox-(ah…</text>
                    <text transform="translate(612.5 196.5)">@sinclair/typebox-(ju…</text>
                    <text transform="translate(612.5 211.5)">(median)</text>
                </g>
                <path stroke="#888" d="M619.5 156.5v60" class="mark-rule role-axis-domain"/>
            </g>
            <g aria-roledescription="rect mark container" class="mark-rect role-mark child__Strict_Assertion_marks">
                <path fill="#9d755d" d="M619 156.75h164.314v13.5H619Z" aria-label="Strict Assertion: 53402133; name: typia" aria-roledescription="bar"/>
                <path fill="#f58518" d="M619 171.75h199.52v13.5H619Z" aria-label="Strict Assertion: 64843840; name: @sinclair/typebox-(ahead-of-time)" aria-roledescription="bar"/>
                <path fill="#e45756" d="M619 186.75h171.798v13.5H619Z" aria-label="Strict Assertion: 55834512; name: @sinclair/typebox-(just-in-time)" aria-roledescription="bar"/>
                <path fill="#4c78a8" d="M619 201.75h9.822v13.5H619Z" aria-label="Strict Assertion: 3192122.5; name: (median)" aria-roledescription="bar"/>
            </g>
        </g>
        <g class="mark-group role-title">
            <path d="M424.808 5" aria-hidden="true" class="background" pointer-events="none"/>
            <text fill="#000" aria-label="Title text 'Top 3 packages for each benchmark + median, (ops count, better ⯈)'" aria-roledescription="title" class="mark-text role-title-text" font-family="sans-serif" font-size="16" pointer-events="none" text-anchor="middle" transform="translate(424.808 18)">Top 3 packages for each benchmark + median, (ops count, better ⯈)</text>
        </g>
    </g>
</svg>
