<svg xmlns="http://www.w3.org/2000/svg" class="marks" width="764" height="254">
    <path fill="#fff" d="M0 0h764v254H0z"/>
    <g class="mark-group role-frame root" aria-roledescription="group mark container" fill="none" stroke-miterlimit="10">
        <path class="background" aria-hidden="true" d="M149 42Z"/>
        <g class="mark-group role-scope child__Safe_Parsing_group" aria-roledescription="group mark container">
            <path class="background" aria-hidden="true" d="M149.5 42.5h200v60h-200Z" stroke="#ddd"/>
            <g class="mark-group role-axis" aria-roledescription="axis" aria-label="X-axis for a linear scale with values from 0 to 28,000,000">
                <path class="background" aria-hidden="true" d="M149.5 102.5Z" pointer-events="none"/>
                <g class="mark-rule role-axis-grid" pointer-events="none" stroke="#ddd">
                    <path d="M149.5 102.5v-60M185.5 102.5v-60M220.5 102.5v-60M256.5 102.5v-60M292.5 102.5v-60M328.5 102.5v-60"/>
                </g>
            </g>
            <g pointer-events="none" class="mark-group role-axis" aria-roledescription="axis" aria-label="X-axis titled 'Safe Parsing' for a linear scale with values from 0 to 28,000,000">
                <path class="background" aria-hidden="true" d="M149.5 102.5Z"/>
                <g class="mark-rule role-axis-tick" stroke="#888">
                    <path d="M149.5 102.5v5M185.5 102.5v5M220.5 102.5v5M256.5 102.5v5M292.5 102.5v5M328.5 102.5v5"/>
                </g>
                <g class="mark-text role-axis-label" font-family="sans-serif" font-size="10" fill="#000">
                    <text transform="translate(149.5 117.5)">0</text>
                    <text text-anchor="middle" transform="translate(328.071 117.5)">25,000,000</text>
                </g>
                <path stroke="#888" d="M149.5 102.5h200" class="mark-rule role-axis-domain"/>
                <text text-anchor="middle" transform="translate(249.5 132.5)" font-family="sans-serif" font-size="11" font-weight="bold" fill="#000" class="mark-text role-axis-title">Safe Parsing</text>
            </g>
            <g pointer-events="none" class="mark-group role-axis" aria-roledescription="axis" aria-label="Y-axis for a discrete scale with 4 values: ... rest, simple-runtypes, spectypes, valita">
                <path class="background" aria-hidden="true" d="M149.5 42.5Z"/>
                <g class="mark-rule role-axis-tick" stroke="#888">
                    <path d="M149.5 49.5h-5M149.5 64.5h-5M149.5 79.5h-5M149.5 94.5h-5"/>
                </g>
                <g class="mark-text role-axis-label" text-anchor="end" font-family="sans-serif" font-size="10" fill="#000">
                    <text transform="translate(142.5 52.5)">... rest</text>
                    <text transform="translate(142.5 67.5)">simple-runtypes</text>
                    <text transform="translate(142.5 82.5)">spectypes</text>
                    <text transform="translate(142.5 97.5)">valita</text>
                </g>
                <path stroke="#888" d="M149.5 42.5v60" class="mark-rule role-axis-domain"/>
            </g>
            <g class="mark-rect role-mark child__Safe_Parsing_marks" aria-roledescription="rect mark container">
                <path d="M149 72.75h196.04v13.5H149Z" fill="#72b7b2"/>
                <path d="M149 87.75h27.96v13.5H149Z" fill="#eeca3b"/>
                <path d="M149 57.75h12.716v13.5H149Z" fill="#e45756"/>
                <path d="M149 42.75h3.948v13.5H149Z" fill="#4c78a8"/>
            </g>
        </g>
        <g class="mark-group role-scope child__Strict_Parsing_group" aria-roledescription="group mark container">
            <path class="background" aria-hidden="true" d="M536.5 42.5h200v60h-200Z" stroke="#ddd"/>
            <g class="mark-group role-axis" aria-roledescription="axis" aria-label="X-axis for a linear scale with values from 0 to 22,000,000">
                <path class="background" aria-hidden="true" d="M536.5 102.5Z" pointer-events="none"/>
                <g class="mark-rule role-axis-grid" pointer-events="none" stroke="#ddd">
                    <path d="M536.5 102.5v-60M581.5 102.5v-60M627.5 102.5v-60M672.5 102.5v-60M718.5 102.5v-60"/>
                </g>
            </g>
            <g pointer-events="none" class="mark-group role-axis" aria-roledescription="axis" aria-label="X-axis titled 'Strict Parsing' for a linear scale with values from 0 to 22,000,000">
                <path class="background" aria-hidden="true" d="M536.5 102.5Z"/>
                <g class="mark-rule role-axis-tick" stroke="#888">
                    <path d="M536.5 102.5v5M581.5 102.5v5M627.5 102.5v5M672.5 102.5v5M718.5 102.5v5"/>
                </g>
                <g class="mark-text role-axis-label" font-family="sans-serif" font-size="10" fill="#000">
                    <text transform="translate(536.5 117.5)">0</text>
                    <text text-anchor="middle" transform="translate(627.41 117.5)">10,000,000</text>
                    <text text-anchor="middle" transform="translate(718.318 117.5)">20,000,000</text>
                </g>
                <path stroke="#888" d="M536.5 102.5h200" class="mark-rule role-axis-domain"/>
                <text text-anchor="middle" transform="translate(636.5 132.5)" font-family="sans-serif" font-size="11" font-weight="bold" fill="#000" class="mark-text role-axis-title">Strict Parsing</text>
            </g>
            <g pointer-events="none" class="mark-group role-axis" aria-roledescription="axis" aria-label="Y-axis for a discrete scale with 4 values: ... rest, simple-runtypes, spectypes, valita">
                <path class="background" aria-hidden="true" d="M536.5 42.5Z"/>
                <g class="mark-rule role-axis-tick" stroke="#888">
                    <path d="M536.5 49.5h-5M536.5 64.5h-5M536.5 79.5h-5M536.5 94.5h-5"/>
                </g>
                <g class="mark-text role-axis-label" text-anchor="end" font-family="sans-serif" font-size="10" fill="#000">
                    <text transform="translate(529.5 52.5)">... rest</text>
                    <text transform="translate(529.5 67.5)">simple-runtypes</text>
                    <text transform="translate(529.5 82.5)">spectypes</text>
                    <text transform="translate(529.5 97.5)">valita</text>
                </g>
                <path stroke="#888" d="M536.5 42.5v60" class="mark-rule role-axis-domain"/>
            </g>
            <g class="mark-rect role-mark child__Strict_Parsing_marks" aria-roledescription="rect mark container">
                <path d="M536 72.75h196.598v13.5H536Z" fill="#72b7b2"/>
                <path d="M536 87.75h35.54v13.5H536Z" fill="#eeca3b"/>
                <path d="M536 57.75h22.447v13.5H536Z" fill="#e45756"/>
                <path d="M536 42.75h6.102v13.5H536Z" fill="#4c78a8"/>
            </g>
        </g>
        <g class="mark-group role-scope child__Loose_Assertion_group" aria-roledescription="group mark container">
            <path class="background" aria-hidden="true" d="M149.5 156.5h200v60h-200Z" stroke="#ddd"/>
            <g class="mark-group role-axis" aria-roledescription="axis" aria-label="X-axis for a linear scale with values from 0 to 120,000,000">
                <path class="background" aria-hidden="true" d="M149.5 216.5Z" pointer-events="none"/>
                <g class="mark-rule role-axis-grid" pointer-events="none" stroke="#ddd">
                    <path d="M149.5 216.5v-60M182.5 216.5v-60M216.5 216.5v-60M249.5 216.5v-60M282.5 216.5v-60M316.5 216.5v-60M349.5 216.5v-60"/>
                </g>
            </g>
            <g pointer-events="none" class="mark-group role-axis" aria-roledescription="axis" aria-label="X-axis titled 'Loose Assertion' for a linear scale with values from 0 to 120,000,000">
                <path class="background" aria-hidden="true" d="M149.5 216.5Z"/>
                <g class="mark-rule role-axis-tick" stroke="#888">
                    <path d="M149.5 216.5v5M182.5 216.5v5M216.5 216.5v5M249.5 216.5v5M282.5 216.5v5M316.5 216.5v5M349.5 216.5v5"/>
                </g>
                <g class="mark-text role-axis-label" font-family="sans-serif" font-size="10" fill="#000">
                    <text transform="translate(149.5 231.5)">0</text>
                    <text text-anchor="end" transform="translate(349.5 231.5)">120,000,000</text>
                </g>
                <path stroke="#888" d="M149.5 216.5h200" class="mark-rule role-axis-domain"/>
                <text text-anchor="middle" transform="translate(249.5 246.5)" font-family="sans-serif" font-size="11" font-weight="bold" fill="#000" class="mark-text role-axis-title">Loose Assertion</text>
            </g>
            <g pointer-events="none" class="mark-group role-axis" aria-roledescription="axis" aria-label="Y-axis for a discrete scale with 4 values: ... rest, @sinclair/typebox, spectypes, ts-runtime-checks">
                <path class="background" aria-hidden="true" d="M149.5 156.5Z"/>
                <g class="mark-rule role-axis-tick" stroke="#888">
                    <path d="M149.5 163.5h-5M149.5 178.5h-5M149.5 193.5h-5M149.5 208.5h-5"/>
                </g>
                <g class="mark-text role-axis-label" text-anchor="end" font-family="sans-serif" font-size="10" fill="#000">
                    <text transform="translate(142.5 166.5)">... rest</text>
                    <text transform="translate(142.5 181.5)">@sinclair/typebox</text>
                    <text transform="translate(142.5 196.5)">spectypes</text>
                    <text transform="translate(142.5 211.5)">ts-runtime-checks</text>
                </g>
                <path stroke="#888" d="M149.5 156.5v60" class="mark-rule role-axis-domain"/>
            </g>
            <g class="mark-rect role-mark child__Loose_Assertion_marks" aria-roledescription="rect mark container">
                <path d="M149 201.75h191.44v13.5H149Z" fill="#54a24b"/>
                <path d="M149 186.75h173.895v13.5H149Z" fill="#72b7b2"/>
                <path d="M149 171.75h129.394v13.5H149Z" fill="#f58518"/>
                <path d="M149 156.75h1.221v13.5H149Z" fill="#4c78a8"/>
            </g>
        </g>
        <g class="mark-group role-scope child__Strict_Assertion_group" aria-roledescription="group mark container">
            <path class="background" aria-hidden="true" d="M536.5 156.5h200v60h-200Z" stroke="#ddd"/>
            <g class="mark-group role-axis" aria-roledescription="axis" aria-label="X-axis for a linear scale with values from 0 to 28,000,000">
                <path class="background" aria-hidden="true" d="M536.5 216.5Z" pointer-events="none"/>
                <g class="mark-rule role-axis-grid" pointer-events="none" stroke="#ddd">
                    <path d="M536.5 216.5v-60M572.5 216.5v-60M607.5 216.5v-60M643.5 216.5v-60M679.5 216.5v-60M715.5 216.5v-60"/>
                </g>
            </g>
            <g pointer-events="none" class="mark-group role-axis" aria-roledescription="axis" aria-label="X-axis titled 'Strict Assertion' for a linear scale with values from 0 to 28,000,000">
                <path class="background" aria-hidden="true" d="M536.5 216.5Z"/>
                <g class="mark-rule role-axis-tick" stroke="#888">
                    <path d="M536.5 216.5v5M572.5 216.5v5M607.5 216.5v5M643.5 216.5v5M679.5 216.5v5M715.5 216.5v5"/>
                </g>
                <g class="mark-text role-axis-label" font-family="sans-serif" font-size="10" fill="#000">
                    <text transform="translate(536.5 231.5)">0</text>
                    <text text-anchor="middle" transform="translate(715.071 231.5)">25,000,000</text>
                </g>
                <path stroke="#888" d="M536.5 216.5h200" class="mark-rule role-axis-domain"/>
                <text text-anchor="middle" transform="translate(636.5 246.5)" font-family="sans-serif" font-size="11" font-weight="bold" fill="#000" class="mark-text role-axis-title">Strict Assertion</text>
            </g>
            <g pointer-events="none" class="mark-group role-axis" aria-roledescription="axis" aria-label="Y-axis for a discrete scale with 4 values: ... rest, @sinclair/typebox, spectypes, valita">
                <path class="background" aria-hidden="true" d="M536.5 156.5Z"/>
                <g class="mark-rule role-axis-tick" stroke="#888">
                    <path d="M536.5 163.5h-5M536.5 178.5h-5M536.5 193.5h-5M536.5 208.5h-5"/>
                </g>
                <g class="mark-text role-axis-label" text-anchor="end" font-family="sans-serif" font-size="10" fill="#000">
                    <text transform="translate(529.5 166.5)">... rest</text>
                    <text transform="translate(529.5 181.5)">@sinclair/typebox</text>
                    <text transform="translate(529.5 196.5)">spectypes</text>
                    <text transform="translate(529.5 211.5)">valita</text>
                </g>
                <path stroke="#888" d="M536.5 156.5v60" class="mark-rule role-axis-domain"/>
            </g>
            <g class="mark-rect role-mark child__Strict_Assertion_marks" aria-roledescription="rect mark container">
                <path d="M536 171.75h186.487v13.5H536Z" fill="#f58518"/>
                <path d="M536 186.75h146.52v13.5H536Z" fill="#72b7b2"/>
                <path d="M536 201.75h27.454v13.5H536Z" fill="#eeca3b"/>
                <path d="M536 156.75h3.98v13.5H536Z" fill="#4c78a8"/>
            </g>
        </g>
        <g class="mark-group role-title">
            <path class="background" aria-hidden="true" d="M381.91 5Z" pointer-events="none"/>
            <text text-anchor="middle" transform="translate(381.91 18)" font-family="sans-serif" font-size="16" fill="#000" class="mark-text role-title-text" aria-roledescription="title" aria-label="Title text 'Top 3 packages for each benchmark'" pointer-events="none">Top 3 packages for each benchmark</text>
        </g>
    </g>
</svg>
