<svg xmlns="http://www.w3.org/2000/svg" class="marks" width="843" height="254">
    <path fill="#fff" d="M0 0h843v254H0z"/>
    <g class="mark-group role-frame root" aria-roledescription="group mark container" fill="none" stroke-miterlimit="10">
        <path class="background" aria-hidden="true" d="M187 42Z"/>
        <g class="mark-group role-scope child__Safe_Parsing_group" aria-roledescription="group mark container">
            <path class="background" aria-hidden="true" d="M187.5 42.5h200v60h-200Z" stroke="#ddd"/>
            <g class="mark-group role-axis" aria-hidden="true">
                <path class="background" aria-hidden="true" d="M187.5 102.5Z" pointer-events="none"/>
                <g class="mark-rule role-axis-grid" pointer-events="none" stroke="#ddd">
                    <path d="M187.5 102.5v-60M223.5 102.5v-60M260.5 102.5v-60M296.5 102.5v-60M332.5 102.5v-60M369.5 102.5v-60"/>
                </g>
            </g>
            <g pointer-events="none" class="mark-group role-axis" aria-roledescription="axis" aria-label="X-axis titled 'Safe Parsing' for a linear scale with values from 0 to 55,000,000">
                <path class="background" aria-hidden="true" d="M187.5 102.5Z"/>
                <g class="mark-rule role-axis-tick" stroke="#888">
                    <path d="M187.5 102.5v5M223.5 102.5v5M260.5 102.5v5M296.5 102.5v5M332.5 102.5v5M369.5 102.5v5"/>
                </g>
                <g class="mark-text role-axis-label" font-family="sans-serif" font-size="10" fill="#000">
                    <text transform="translate(187.5 117.5)">0</text>
                    <text text-anchor="middle" transform="translate(369.318 117.5)">50,000,000</text>
                </g>
                <path stroke="#888" d="M187.5 102.5h200" class="mark-rule role-axis-domain"/>
                <text text-anchor="middle" transform="translate(287.5 132.5)" font-family="sans-serif" font-size="11" font-weight="bold" fill="#000" class="mark-text role-axis-title">Safe Parsing</text>
            </g>
            <g pointer-events="none" class="mark-group role-axis" aria-roledescription="axis" aria-label="Y-axis for a discrete scale with 4 values: typia, spectypes, rescript-struct, (median)">
                <path class="background" aria-hidden="true" d="M187.5 42.5Z"/>
                <g class="mark-rule role-axis-tick" stroke="#888">
                    <path d="M187.5 49.5h-5M187.5 64.5h-5M187.5 79.5h-5M187.5 94.5h-5"/>
                </g>
                <g class="mark-text role-axis-label" text-anchor="end" font-family="sans-serif" font-size="10" fill="#000">
                    <text transform="translate(180.5 52.5)">typia</text>
                    <text transform="translate(180.5 67.5)">spectypes</text>
                    <text transform="translate(180.5 82.5)">rescript-struct</text>
                    <text transform="translate(180.5 97.5)">(median)</text>
                </g>
                <path stroke="#888" d="M187.5 42.5v60" class="mark-rule role-axis-domain"/>
            </g>
            <g class="mark-rect role-mark child__Safe_Parsing_marks" aria-roledescription="rect mark container">
                <path aria-label="Safe Parsing: 39154989; name: typia" aria-roledescription="bar" d="M187 42.75h142.382v13.5H187Z" fill="#eeca3b"/>
                <path aria-label="Safe Parsing: 18589843; name: spectypes" aria-roledescription="bar" d="M187 57.75h67.6v13.5H187Z" fill="#72b7b2"/>
                <path aria-label="Safe Parsing: 54632614; name: rescript-struct" aria-roledescription="bar" d="M187 72.75h198.664v13.5H187Z" fill="#e45756"/>
                <path aria-label="Safe Parsing: 1050146; name: (median)" aria-roledescription="bar" d="M187 87.75h3.819v13.5H187Z" fill="#4c78a8"/>
            </g>
        </g>
        <g class="mark-group role-scope child__Strict_Parsing_group" aria-roledescription="group mark container">
            <path class="background" aria-hidden="true" d="M581.5 42.5h200v60h-200Z" stroke="#ddd"/>
            <g class="mark-group role-axis" aria-hidden="true">
                <path class="background" aria-hidden="true" d="M581.5 102.5Z" pointer-events="none"/>
                <g class="mark-rule role-axis-grid" pointer-events="none" stroke="#ddd">
                    <path d="M581.5 102.5v-60M617.5 102.5v-60M652.5 102.5v-60M688.5 102.5v-60M724.5 102.5v-60M760.5 102.5v-60"/>
                </g>
            </g>
            <g pointer-events="none" class="mark-group role-axis" aria-roledescription="axis" aria-label="X-axis titled 'Strict Parsing' for a linear scale with values from 0 to 28,000,000">
                <path class="background" aria-hidden="true" d="M581.5 102.5Z"/>
                <g class="mark-rule role-axis-tick" stroke="#888">
                    <path d="M581.5 102.5v5M617.5 102.5v5M652.5 102.5v5M688.5 102.5v5M724.5 102.5v5M760.5 102.5v5"/>
                </g>
                <g class="mark-text role-axis-label" font-family="sans-serif" font-size="10" fill="#000">
                    <text transform="translate(581.5 117.5)">0</text>
                    <text text-anchor="middle" transform="translate(760.071 117.5)">25,000,000</text>
                </g>
                <path stroke="#888" d="M581.5 102.5h200" class="mark-rule role-axis-domain"/>
                <text text-anchor="middle" transform="translate(681.5 132.5)" font-family="sans-serif" font-size="11" font-weight="bold" fill="#000" class="mark-text role-axis-title">Strict Parsing</text>
            </g>
            <g pointer-events="none" class="mark-group role-axis" aria-roledescription="axis" aria-label="Y-axis for a discrete scale with 4 values: ts-runtime-checks, typia, spectypes, (median)">
                <path class="background" aria-hidden="true" d="M581.5 42.5Z"/>
                <g class="mark-rule role-axis-tick" stroke="#888">
                    <path d="M581.5 49.5h-5M581.5 64.5h-5M581.5 79.5h-5M581.5 94.5h-5"/>
                </g>
                <g class="mark-text role-axis-label" text-anchor="end" font-family="sans-serif" font-size="10" fill="#000">
                    <text transform="translate(574.5 52.5)">ts-runtime-checks</text>
                    <text transform="translate(574.5 67.5)">typia</text>
                    <text transform="translate(574.5 82.5)">spectypes</text>
                    <text transform="translate(574.5 97.5)">(median)</text>
                </g>
                <path stroke="#888" d="M581.5 42.5v60" class="mark-rule role-axis-domain"/>
            </g>
            <g class="mark-rect role-mark child__Strict_Parsing_marks" aria-roledescription="rect mark container">
                <path aria-label="Strict Parsing: 23427381; name: ts-runtime-checks" aria-roledescription="bar" d="M581 42.75h167.338v13.5H581Z" fill="#54a24b"/>
                <path aria-label="Strict Parsing: 27455219; name: typia" aria-roledescription="bar" d="M581 57.75h196.109v13.5H581Z" fill="#eeca3b"/>
                <path aria-label="Strict Parsing: 20567183; name: spectypes" aria-roledescription="bar" d="M581 72.75h146.908v13.5H581Z" fill="#72b7b2"/>
                <path aria-label="Strict Parsing: 909459.5; name: (median)" aria-roledescription="bar" d="M581 87.75h6.496v13.5H581Z" fill="#4c78a8"/>
            </g>
        </g>
        <g class="mark-group role-scope child__Loose_Assertion_group" aria-roledescription="group mark container">
            <path class="background" aria-hidden="true" d="M187.5 156.5h200v60h-200Z" stroke="#ddd"/>
            <g class="mark-group role-axis" aria-hidden="true">
                <path class="background" aria-hidden="true" d="M187.5 216.5Z" pointer-events="none"/>
                <g class="mark-rule role-axis-grid" pointer-events="none" stroke="#ddd">
                    <path d="M187.5 216.5v-60M218.5 216.5v-60M249.5 216.5v-60M279.5 216.5v-60M310.5 216.5v-60M341.5 216.5v-60M372.5 216.5v-60"/>
                </g>
            </g>
            <g pointer-events="none" class="mark-group role-axis" aria-roledescription="axis" aria-label="X-axis titled 'Loose Assertion' for a linear scale with values from 0 to 130,000,000">
                <path class="background" aria-hidden="true" d="M187.5 216.5Z"/>
                <g class="mark-rule role-axis-tick" stroke="#888">
                    <path d="M187.5 216.5v5M218.5 216.5v5M249.5 216.5v5M279.5 216.5v5M310.5 216.5v5M341.5 216.5v5M372.5 216.5v5"/>
                </g>
                <g class="mark-text role-axis-label" font-family="sans-serif" font-size="10" fill="#000">
                    <text transform="translate(187.5 231.5)">0</text>
                    <text text-anchor="middle" transform="translate(372.115 231.5)">120,000,000</text>
                </g>
                <path stroke="#888" d="M187.5 216.5h200" class="mark-rule role-axis-domain"/>
                <text text-anchor="middle" transform="translate(287.5 246.5)" font-family="sans-serif" font-size="11" font-weight="bold" fill="#000" class="mark-text role-axis-title">Loose Assertion</text>
            </g>
            <g pointer-events="none" class="mark-group role-axis" aria-roledescription="axis" aria-label="Y-axis for a discrete scale with 4 values: ts-runtime-checks, typia, spectypes, (median)">
                <path class="background" aria-hidden="true" d="M187.5 156.5Z"/>
                <g class="mark-rule role-axis-tick" stroke="#888">
                    <path d="M187.5 163.5h-5M187.5 178.5h-5M187.5 193.5h-5M187.5 208.5h-5"/>
                </g>
                <g class="mark-text role-axis-label" text-anchor="end" font-family="sans-serif" font-size="10" fill="#000">
                    <text transform="translate(180.5 166.5)">ts-runtime-checks</text>
                    <text transform="translate(180.5 181.5)">typia</text>
                    <text transform="translate(180.5 196.5)">spectypes</text>
                    <text transform="translate(180.5 211.5)">(median)</text>
                </g>
                <path stroke="#888" d="M187.5 156.5v60" class="mark-rule role-axis-domain"/>
            </g>
            <g class="mark-rect role-mark child__Loose_Assertion_marks" aria-roledescription="rect mark container">
                <path aria-label="Loose Assertion: 126805363; name: ts-runtime-checks" aria-roledescription="bar" d="M187 156.75h195.085v13.5H187Z" fill="#54a24b"/>
                <path aria-label="Loose Assertion: 122269569; name: typia" aria-roledescription="bar" d="M187 171.75h188.107v13.5H187Z" fill="#eeca3b"/>
                <path aria-label="Loose Assertion: 99829359; name: spectypes" aria-roledescription="bar" d="M187 186.75h153.584v13.5H187Z" fill="#72b7b2"/>
                <path aria-label="Loose Assertion: 1169682; name: (median)" aria-roledescription="bar" d="M187 201.75h1.8v13.5H187Z" fill="#4c78a8"/>
            </g>
        </g>
        <g class="mark-group role-scope child__Strict_Assertion_group" aria-roledescription="group mark container">
            <path class="background" aria-hidden="true" d="M581.5 156.5h200v60h-200Z" stroke="#ddd"/>
            <g class="mark-group role-axis" aria-hidden="true">
                <path class="background" aria-hidden="true" d="M581.5 216.5Z" pointer-events="none"/>
                <g class="mark-rule role-axis-grid" pointer-events="none" stroke="#ddd">
                    <path d="M581.5 216.5v-60M617.5 216.5v-60M652.5 216.5v-60M688.5 216.5v-60M724.5 216.5v-60M760.5 216.5v-60"/>
                </g>
            </g>
            <g pointer-events="none" class="mark-group role-axis" aria-roledescription="axis" aria-label="X-axis titled 'Strict Assertion' for a linear scale with values from 0 to 28,000,000">
                <path class="background" aria-hidden="true" d="M581.5 216.5Z"/>
                <g class="mark-rule role-axis-tick" stroke="#888">
                    <path d="M581.5 216.5v5M617.5 216.5v5M652.5 216.5v5M688.5 216.5v5M724.5 216.5v5M760.5 216.5v5"/>
                </g>
                <g class="mark-text role-axis-label" font-family="sans-serif" font-size="10" fill="#000">
                    <text transform="translate(581.5 231.5)">0</text>
                    <text text-anchor="middle" transform="translate(760.071 231.5)">25,000,000</text>
                </g>
                <path stroke="#888" d="M581.5 216.5h200" class="mark-rule role-axis-domain"/>
                <text text-anchor="middle" transform="translate(681.5 246.5)" font-family="sans-serif" font-size="11" font-weight="bold" fill="#000" class="mark-text role-axis-title">Strict Assertion</text>
            </g>
            <g pointer-events="none" class="mark-group role-axis" aria-roledescription="axis" aria-label="Y-axis for a discrete scale with 4 values: ts-runtime-checks, typia, @sinclair/typebox, (median)">
                <path class="background" aria-hidden="true" d="M581.5 156.5Z"/>
                <g class="mark-rule role-axis-tick" stroke="#888">
                    <path d="M581.5 163.5h-5M581.5 178.5h-5M581.5 193.5h-5M581.5 208.5h-5"/>
                </g>
                <g class="mark-text role-axis-label" text-anchor="end" font-family="sans-serif" font-size="10" fill="#000">
                    <text transform="translate(574.5 166.5)">ts-runtime-checks</text>
                    <text transform="translate(574.5 181.5)">typia</text>
                    <text transform="translate(574.5 196.5)">@sinclair/typebox</text>
                    <text transform="translate(574.5 211.5)">(median)</text>
                </g>
                <path stroke="#888" d="M581.5 156.5v60" class="mark-rule role-axis-domain"/>
            </g>
            <g class="mark-rect role-mark child__Strict_Assertion_marks" aria-roledescription="rect mark container">
                <path aria-label="Strict Assertion: 23396007; name: ts-runtime-checks" aria-roledescription="bar" d="M581 156.75h167.114v13.5H581Z" fill="#54a24b"/>
                <path aria-label="Strict Assertion: 26266768; name: typia" aria-roledescription="bar" d="M581 171.75h187.62v13.5H581Z" fill="#eeca3b"/>
                <path aria-label="Strict Assertion: 24027852; name: @sinclair/typebox" aria-roledescription="bar" d="M581 186.75h171.628v13.5H581Z" fill="#f58518"/>
                <path aria-label="Strict Assertion: 779320.5; name: (median)" aria-roledescription="bar" d="M581 201.75h5.567v13.5H581Z" fill="#4c78a8"/>
            </g>
        </g>
        <g class="mark-group role-title">
            <path class="background" aria-hidden="true" d="M421.786 5Z" pointer-events="none"/>
            <text text-anchor="middle" transform="translate(421.786 18)" font-family="sans-serif" font-size="16" fill="#000" class="mark-text role-title-text" aria-roledescription="title" aria-label="Title text 'Top 3 packages for each benchmark + median, (ops count, better ⯈)'" pointer-events="none">Top 3 packages for each benchmark + median, (ops count, better ⯈)</text>
        </g>
    </g>
</svg>
