<svg xmlns="http://www.w3.org/2000/svg" width="847" height="254" class="marks">
    <path fill="#fff" d="M0 0h847v254H0z"/>
    <g fill="none" stroke-miterlimit="10" aria-roledescription="group mark container" class="mark-group role-frame root">
        <path d="M189 42" aria-hidden="true" class="background"/>
        <g aria-roledescription="group mark container" class="mark-group role-scope child__Safe_Parsing_group">
            <path stroke="#ddd" d="M189.5 42.5h200v60h-200Z" aria-hidden="true" class="background"/>
            <g aria-hidden="true" class="mark-group role-axis">
                <path d="M189.5 102.5" aria-hidden="true" class="background" pointer-events="none"/>
                <g stroke="#ddd" class="mark-rule role-axis-grid" pointer-events="none">
                    <path d="M189.5 102.5v-60M220.5 102.5v-60M251.5 102.5v-60M281.5 102.5v-60M312.5 102.5v-60M343.5 102.5v-60M374.5 102.5v-60"/>
                </g>
            </g>
            <g aria-label="X-axis titled 'Safe Parsing' for a linear scale with values from 0 to 130,000,000" aria-roledescription="axis" class="mark-group role-axis" pointer-events="none">
                <path d="M189.5 102.5" aria-hidden="true" class="background"/>
                <g stroke="#888" class="mark-rule role-axis-tick">
                    <path d="M189.5 102.5v5M220.5 102.5v5M251.5 102.5v5M281.5 102.5v5M312.5 102.5v5M343.5 102.5v5M374.5 102.5v5"/>
                </g>
                <g fill="#000" class="mark-text role-axis-label" font-family="sans-serif" font-size="10">
                    <text transform="translate(189.5 117.5)">0</text>
                    <text text-anchor="middle" transform="translate(374.115 117.5)">120,000,000</text>
                </g>
                <path stroke="#888" d="M189.5 102.5h200" class="mark-rule role-axis-domain"/>
                <text fill="#000" class="mark-text role-axis-title" font-family="sans-serif" font-size="11" font-weight="bold" text-anchor="middle" transform="translate(289.5 132.5)">Safe Parsing</text>
            </g>
            <g aria-label="Y-axis for a discrete scale with 4 values: rescript-schema, typia, spectypes, (median)" aria-roledescription="axis" class="mark-group role-axis" pointer-events="none">
                <path d="M189.5 42.5" aria-hidden="true" class="background"/>
                <g stroke="#888" class="mark-rule role-axis-tick">
                    <path d="M189.5 49.5h-5M189.5 64.5h-5M189.5 79.5h-5M189.5 94.5h-5"/>
                </g>
                <g fill="#000" class="mark-text role-axis-label" font-family="sans-serif" font-size="10" text-anchor="end">
                    <text transform="translate(182.5 52.5)">rescript-schema</text>
                    <text transform="translate(182.5 67.5)">typia</text>
                    <text transform="translate(182.5 82.5)">spectypes</text>
                    <text transform="translate(182.5 97.5)">(median)</text>
                </g>
                <path stroke="#888" d="M189.5 42.5v60" class="mark-rule role-axis-domain"/>
            </g>
            <g aria-roledescription="rect mark container" class="mark-rect role-mark child__Safe_Parsing_marks">
                <path fill="#72b7b2" d="M189 42.75h189.666v13.5H189Z" aria-label="Safe Parsing: 123283177; name: rescript-schema" aria-roledescription="bar"/>
                <path fill="#9d755d" d="M189 57.75h174.995v13.5H189Z" aria-label="Safe Parsing: 113746805; name: typia" aria-roledescription="bar"/>
                <path fill="#54a24b" d="M189 72.75h62.337v13.5H189Z" aria-label="Safe Parsing: 40519118; name: spectypes" aria-roledescription="bar"/>
                <path fill="#4c78a8" d="M189 87.75h2.896v13.5H189Z" aria-label="Safe Parsing: 1882488; name: (median)" aria-roledescription="bar"/>
            </g>
        </g>
        <g aria-roledescription="group mark container" class="mark-group role-scope child__Strict_Parsing_group">
            <path stroke="#ddd" d="M623.5 42.5h200v60h-200Z" aria-hidden="true" class="background"/>
            <g aria-hidden="true" class="mark-group role-axis">
                <path d="M623.5 102.5" aria-hidden="true" class="background" pointer-events="none"/>
                <g stroke="#ddd" class="mark-rule role-axis-grid" pointer-events="none">
                    <path d="M623.5 102.5v-60M673.5 102.5v-60M723.5 102.5v-60M773.5 102.5v-60M823.5 102.5v-60"/>
                </g>
            </g>
            <g aria-label="X-axis titled 'Strict Parsing' for a linear scale with values from 0 to 40,000,000" aria-roledescription="axis" class="mark-group role-axis" pointer-events="none">
                <path d="M623.5 102.5" aria-hidden="true" class="background"/>
                <g stroke="#888" class="mark-rule role-axis-tick">
                    <path d="M623.5 102.5v5M673.5 102.5v5M723.5 102.5v5M773.5 102.5v5M823.5 102.5v5"/>
                </g>
                <g fill="#000" class="mark-text role-axis-label" font-family="sans-serif" font-size="10">
                    <text transform="translate(623.5 117.5)">0</text>
                    <text text-anchor="end" transform="translate(823.5 117.5)">40,000,000</text>
                </g>
                <path stroke="#888" d="M623.5 102.5h200" class="mark-rule role-axis-domain"/>
                <text fill="#000" class="mark-text role-axis-title" font-family="sans-serif" font-size="11" font-weight="bold" text-anchor="middle" transform="translate(723.5 132.5)">Strict Parsing</text>
            </g>
            <g aria-label="Y-axis for a discrete scale with 4 values: rescript-schema, typia, ts-runtime-checks, (median)" aria-roledescription="axis" class="mark-group role-axis" pointer-events="none">
                <path d="M623.5 42.5" aria-hidden="true" class="background"/>
                <g stroke="#888" class="mark-rule role-axis-tick">
                    <path d="M623.5 49.5h-5M623.5 64.5h-5M623.5 79.5h-5M623.5 94.5h-5"/>
                </g>
                <g fill="#000" class="mark-text role-axis-label" font-family="sans-serif" font-size="10" text-anchor="end">
                    <text transform="translate(616.5 52.5)">rescript-schema</text>
                    <text transform="translate(616.5 67.5)">typia</text>
                    <text transform="translate(616.5 82.5)">ts-runtime-checks</text>
                    <text transform="translate(616.5 97.5)">(median)</text>
                </g>
                <path stroke="#888" d="M623.5 42.5v60" class="mark-rule role-axis-domain"/>
            </g>
            <g aria-roledescription="rect mark container" class="mark-rect role-mark child__Strict_Parsing_marks">
                <path fill="#72b7b2" d="M623 42.75h166.107v13.5H623Z" aria-label="Strict Parsing: 33221493; name: rescript-schema" aria-roledescription="bar"/>
                <path fill="#9d755d" d="M623 57.75h186.981v13.5H623Z" aria-label="Strict Parsing: 37396261; name: typia" aria-roledescription="bar"/>
                <path fill="#b279a2" d="M623 72.75h180.828v13.5H623Z" aria-label="Strict Parsing: 36165544; name: ts-runtime-checks" aria-roledescription="bar"/>
                <path fill="#4c78a8" d="M623 87.75h8.453v13.5H623Z" aria-label="Strict Parsing: 1690646; name: (median)" aria-roledescription="bar"/>
            </g>
        </g>
        <g aria-roledescription="group mark container" class="mark-group role-scope child__Loose_Assertion_group">
            <path stroke="#ddd" d="M189.5 156.5h200v60h-200Z" aria-hidden="true" class="background"/>
            <g aria-hidden="true" class="mark-group role-axis">
                <path d="M189.5 216.5" aria-hidden="true" class="background" pointer-events="none"/>
                <g stroke="#ddd" class="mark-rule role-axis-grid" pointer-events="none">
                    <path d="M189.5 216.5v-60M245.5 216.5v-60M300.5 216.5v-60M356.5 216.5v-60"/>
                </g>
            </g>
            <g aria-label="X-axis titled 'Loose Assertion' for a linear scale with values from 0 to 180,000,000" aria-roledescription="axis" class="mark-group role-axis" pointer-events="none">
                <path d="M189.5 216.5" aria-hidden="true" class="background"/>
                <g stroke="#888" class="mark-rule role-axis-tick">
                    <path d="M189.5 216.5v5M245.5 216.5v5M300.5 216.5v5M356.5 216.5v5"/>
                </g>
                <g fill="#000" class="mark-text role-axis-label" font-family="sans-serif" font-size="10">
                    <text transform="translate(189.5 231.5)">0</text>
                    <text text-anchor="middle" transform="translate(356.167 231.5)">150,000,000</text>
                </g>
                <path stroke="#888" d="M189.5 216.5h200" class="mark-rule role-axis-domain"/>
                <text fill="#000" class="mark-text role-axis-title" font-family="sans-serif" font-size="11" font-weight="bold" text-anchor="middle" transform="translate(289.5 246.5)">Loose Assertion</text>
            </g>
            <g aria-label="Y-axis for a discrete scale with 4 values: ts-runtime-checks, type-predicate-generator, ts-auto-guard, (median)" aria-roledescription="axis" class="mark-group role-axis" pointer-events="none">
                <path d="M189.5 156.5" aria-hidden="true" class="background"/>
                <g stroke="#888" class="mark-rule role-axis-tick">
                    <path d="M189.5 163.5h-5M189.5 178.5h-5M189.5 193.5h-5M189.5 208.5h-5"/>
                </g>
                <g fill="#000" class="mark-text role-axis-label" font-family="sans-serif" font-size="10" text-anchor="end">
                    <text transform="translate(182.5 166.5)">ts-runtime-checks</text>
                    <text transform="translate(182.5 181.5)">type-predicate-genera…</text>
                    <text transform="translate(182.5 196.5)">ts-auto-guard</text>
                    <text transform="translate(182.5 211.5)">(median)</text>
                </g>
                <path stroke="#888" d="M189.5 156.5v60" class="mark-rule role-axis-domain"/>
            </g>
            <g aria-roledescription="rect mark container" class="mark-rect role-mark child__Loose_Assertion_marks">
                <path fill="#b279a2" d="M189 156.75h189.68v13.5H189Z" aria-label="Loose Assertion: 170711432; name: ts-runtime-checks" aria-roledescription="bar"/>
                <path fill="#ff9da6" d="M189 171.75h181.95v13.5H189Z" aria-label="Loose Assertion: 163755622; name: type-predicate-generator" aria-roledescription="bar"/>
                <path fill="#eeca3b" d="M189 186.75h180.758v13.5H189Z" aria-label="Loose Assertion: 162682525; name: ts-auto-guard" aria-roledescription="bar"/>
                <path fill="#4c78a8" d="M189 201.75h3.592v13.5H189Z" aria-label="Loose Assertion: 3233195; name: (median)" aria-roledescription="bar"/>
            </g>
        </g>
        <g aria-roledescription="group mark container" class="mark-group role-scope child__Strict_Assertion_group">
            <path stroke="#ddd" d="M623.5 156.5h200v60h-200Z" aria-hidden="true" class="background"/>
            <g aria-hidden="true" class="mark-group role-axis">
                <path d="M623.5 216.5" aria-hidden="true" class="background" pointer-events="none"/>
                <g stroke="#ddd" class="mark-rule role-axis-grid" pointer-events="none">
                    <path d="M623.5 216.5v-60M667.5 216.5v-60M712.5 216.5v-60M756.5 216.5v-60M801.5 216.5v-60"/>
                </g>
            </g>
            <g aria-label="X-axis titled 'Strict Assertion' for a linear scale with values from 0 to 45,000,000" aria-roledescription="axis" class="mark-group role-axis" pointer-events="none">
                <path d="M623.5 216.5" aria-hidden="true" class="background"/>
                <g stroke="#888" class="mark-rule role-axis-tick">
                    <path d="M623.5 216.5v5M667.5 216.5v5M712.5 216.5v5M756.5 216.5v5M801.5 216.5v5"/>
                </g>
                <g fill="#000" class="mark-text role-axis-label" font-family="sans-serif" font-size="10">
                    <text transform="translate(623.5 231.5)">0</text>
                    <text text-anchor="middle" transform="translate(712.389 231.5)">20,000,000</text>
                    <text text-anchor="middle" transform="translate(801.278 231.5)">40,000,000</text>
                </g>
                <path stroke="#888" d="M623.5 216.5h200" class="mark-rule role-axis-domain"/>
                <text fill="#000" class="mark-text role-axis-title" font-family="sans-serif" font-size="11" font-weight="bold" text-anchor="middle" transform="translate(723.5 246.5)">Strict Assertion</text>
            </g>
            <g aria-label="Y-axis for a discrete scale with 4 values: ts-runtime-checks, @sinclair/typebox-(ahead-of-time), @sinclair/typebox-(just-in-time), (median)" aria-roledescription="axis" class="mark-group role-axis" pointer-events="none">
                <path d="M623.5 156.5" aria-hidden="true" class="background"/>
                <g stroke="#888" class="mark-rule role-axis-tick">
                    <path d="M623.5 163.5h-5M623.5 178.5h-5M623.5 193.5h-5M623.5 208.5h-5"/>
                </g>
                <g fill="#000" class="mark-text role-axis-label" font-family="sans-serif" font-size="10" text-anchor="end">
                    <text transform="translate(616.5 166.5)">ts-runtime-checks</text>
                    <text transform="translate(616.5 181.5)">@sinclair/typebox-(ah…</text>
                    <text transform="translate(616.5 196.5)">@sinclair/typebox-(ju…</text>
                    <text transform="translate(616.5 211.5)">(median)</text>
                </g>
                <path stroke="#888" d="M623.5 156.5v60" class="mark-rule role-axis-domain"/>
            </g>
            <g aria-roledescription="rect mark container" class="mark-rect role-mark child__Strict_Assertion_marks">
                <path fill="#b279a2" d="M623 156.75h159.856v13.5H623Z" aria-label="Strict Assertion: 35967531; name: ts-runtime-checks" aria-roledescription="bar"/>
                <path fill="#f58518" d="M623 171.75h179.796v13.5H623Z" aria-label="Strict Assertion: 40454123; name: @sinclair/typebox-(ahead-of-time)" aria-roledescription="bar"/>
                <path fill="#e45756" d="M623 186.75h161.221v13.5H623Z" aria-label="Strict Assertion: 36274797; name: @sinclair/typebox-(just-in-time)" aria-roledescription="bar"/>
                <path fill="#4c78a8" d="M623 201.75h6.931v13.5H623Z" aria-label="Strict Assertion: 1559555; name: (median)" aria-roledescription="bar"/>
            </g>
        </g>
        <g class="mark-group role-title">
            <path d="M423.389 5" aria-hidden="true" class="background" pointer-events="none"/>
            <text fill="#000" aria-label="Title text 'Top 3 packages for each benchmark + median, (ops count, better ⯈)'" aria-roledescription="title" class="mark-text role-title-text" font-family="sans-serif" font-size="16" pointer-events="none" text-anchor="middle" transform="translate(423.389 18)">Top 3 packages for each benchmark + median, (ops count, better ⯈)</text>
        </g>
    </g>
</svg>
