<svg xmlns="http://www.w3.org/2000/svg" class="marks" width="843" height="254">
    <path fill="#fff" d="M0 0h843v254H0z"/>
    <g class="mark-group role-frame root" aria-roledescription="group mark container" fill="none" stroke-miterlimit="10">
        <path class="background" aria-hidden="true" d="M189 42Z"/>
        <g class="mark-group role-scope child__Safe_Parsing_group" aria-roledescription="group mark container">
            <path class="background" aria-hidden="true" d="M189.5 42.5h200v60h-200Z" stroke="#ddd"/>
            <g class="mark-group role-axis" aria-roledescription="axis" aria-label="X-axis for a linear scale with values from 0 to 28,000,000">
                <path class="background" aria-hidden="true" d="M189.5 102.5Z" pointer-events="none"/>
                <g class="mark-rule role-axis-grid" pointer-events="none" stroke="#ddd">
                    <path d="M189.5 102.5v-60M225.5 102.5v-60M260.5 102.5v-60M296.5 102.5v-60M332.5 102.5v-60M368.5 102.5v-60"/>
                </g>
            </g>
            <g pointer-events="none" class="mark-group role-axis" aria-roledescription="axis" aria-label="X-axis titled 'Safe Parsing' for a linear scale with values from 0 to 28,000,000">
                <path class="background" aria-hidden="true" d="M189.5 102.5Z"/>
                <g class="mark-rule role-axis-tick" stroke="#888">
                    <path d="M189.5 102.5v5M225.5 102.5v5M260.5 102.5v5M296.5 102.5v5M332.5 102.5v5M368.5 102.5v5"/>
                </g>
                <g class="mark-text role-axis-label" font-family="sans-serif" font-size="10" fill="#000">
                    <text transform="translate(189.5 117.5)">0</text>
                    <text text-anchor="middle" transform="translate(368.071 117.5)">25,000,000</text>
                </g>
                <path stroke="#888" d="M189.5 102.5h200" class="mark-rule role-axis-domain"/>
                <text text-anchor="middle" transform="translate(289.5 132.5)" font-family="sans-serif" font-size="11" font-weight="bold" fill="#000" class="mark-text role-axis-title">Safe Parsing</text>
            </g>
            <g pointer-events="none" class="mark-group role-axis" aria-roledescription="axis" aria-label="Y-axis for a discrete scale with 4 values: rescript-struct, spectypes, valita, (median)">
                <path class="background" aria-hidden="true" d="M189.5 42.5Z"/>
                <g class="mark-rule role-axis-tick" stroke="#888">
                    <path d="M189.5 49.5h-5M189.5 64.5h-5M189.5 79.5h-5M189.5 94.5h-5"/>
                </g>
                <g class="mark-text role-axis-label" text-anchor="end" font-family="sans-serif" font-size="10" fill="#000">
                    <text transform="translate(182.5 52.5)">rescript-struct</text>
                    <text transform="translate(182.5 67.5)">spectypes</text>
                    <text transform="translate(182.5 82.5)">valita</text>
                    <text transform="translate(182.5 97.5)">(median)</text>
                </g>
                <path stroke="#888" d="M189.5 42.5v60" class="mark-rule role-axis-domain"/>
            </g>
            <g class="mark-rect role-mark child__Safe_Parsing_marks" aria-roledescription="rect mark container">
                <path d="M189 42.75h199.533v13.5H189Z" fill="#f58518"/>
                <path d="M189 57.75h134.815v13.5H189Z" fill="#e45756"/>
                <path d="M189 72.75h22.146v13.5H189Z" fill="#eeca3b"/>
                <path d="M189 87.75h4.481v13.5H189Z" fill="#4c78a8"/>
            </g>
        </g>
        <g class="mark-group role-scope child__Strict_Parsing_group" aria-roledescription="group mark container">
            <path class="background" aria-hidden="true" d="M576.5 42.5h200v60h-200Z" stroke="#ddd"/>
            <g class="mark-group role-axis" aria-roledescription="axis" aria-label="X-axis for a linear scale with values from 0 to 22,000,000">
                <path class="background" aria-hidden="true" d="M576.5 102.5Z" pointer-events="none"/>
                <g class="mark-rule role-axis-grid" pointer-events="none" stroke="#ddd">
                    <path d="M576.5 102.5v-60M621.5 102.5v-60M667.5 102.5v-60M712.5 102.5v-60M758.5 102.5v-60"/>
                </g>
            </g>
            <g pointer-events="none" class="mark-group role-axis" aria-roledescription="axis" aria-label="X-axis titled 'Strict Parsing' for a linear scale with values from 0 to 22,000,000">
                <path class="background" aria-hidden="true" d="M576.5 102.5Z"/>
                <g class="mark-rule role-axis-tick" stroke="#888">
                    <path d="M576.5 102.5v5M621.5 102.5v5M667.5 102.5v5M712.5 102.5v5M758.5 102.5v5"/>
                </g>
                <g class="mark-text role-axis-label" font-family="sans-serif" font-size="10" fill="#000">
                    <text transform="translate(576.5 117.5)">0</text>
                    <text text-anchor="middle" transform="translate(667.41 117.5)">10,000,000</text>
                    <text text-anchor="middle" transform="translate(758.318 117.5)">20,000,000</text>
                </g>
                <path stroke="#888" d="M576.5 102.5h200" class="mark-rule role-axis-domain"/>
                <text text-anchor="middle" transform="translate(676.5 132.5)" font-family="sans-serif" font-size="11" font-weight="bold" fill="#000" class="mark-text role-axis-title">Strict Parsing</text>
            </g>
            <g pointer-events="none" class="mark-group role-axis" aria-roledescription="axis" aria-label="Y-axis for a discrete scale with 4 values: ts-runtime-checks, typia, spectypes, (median)">
                <path class="background" aria-hidden="true" d="M576.5 42.5Z"/>
                <g class="mark-rule role-axis-tick" stroke="#888">
                    <path d="M576.5 49.5h-5M576.5 64.5h-5M576.5 79.5h-5M576.5 94.5h-5"/>
                </g>
                <g class="mark-text role-axis-label" text-anchor="end" font-family="sans-serif" font-size="10" fill="#000">
                    <text transform="translate(569.5 52.5)">ts-runtime-checks</text>
                    <text transform="translate(569.5 67.5)">typia</text>
                    <text transform="translate(569.5 82.5)">spectypes</text>
                    <text transform="translate(569.5 97.5)">(median)</text>
                </g>
                <path stroke="#888" d="M576.5 42.5v60" class="mark-rule role-axis-domain"/>
            </g>
            <g class="mark-rect role-mark child__Strict_Parsing_marks" aria-roledescription="rect mark container">
                <path d="M576 42.75h187.547v13.5H576Z" fill="#72b7b2"/>
                <path d="M576 57.75h171.26v13.5H576Z" fill="#54a24b"/>
                <path d="M576 72.75h146.807v13.5H576Z" fill="#e45756"/>
                <path d="M576 87.75h5.865v13.5H576Z" fill="#4c78a8"/>
            </g>
        </g>
        <g class="mark-group role-scope child__Loose_Assertion_group" aria-roledescription="group mark container">
            <path class="background" aria-hidden="true" d="M189.5 156.5h200v60h-200Z" stroke="#ddd"/>
            <g class="mark-group role-axis" aria-roledescription="axis" aria-label="X-axis for a linear scale with values from 0 to 70,000,000">
                <path class="background" aria-hidden="true" d="M189.5 216.5Z" pointer-events="none"/>
                <g class="mark-rule role-axis-grid" pointer-events="none" stroke="#ddd">
                    <path d="M189.5 216.5v-60M218.5 216.5v-60M246.5 216.5v-60M275.5 216.5v-60M303.5 216.5v-60M332.5 216.5v-60M360.5 216.5v-60M389.5 216.5v-60"/>
                </g>
            </g>
            <g pointer-events="none" class="mark-group role-axis" aria-roledescription="axis" aria-label="X-axis titled 'Loose Assertion' for a linear scale with values from 0 to 70,000,000">
                <path class="background" aria-hidden="true" d="M189.5 216.5Z"/>
                <g class="mark-rule role-axis-tick" stroke="#888">
                    <path d="M189.5 216.5v5M218.5 216.5v5M246.5 216.5v5M275.5 216.5v5M303.5 216.5v5M332.5 216.5v5M360.5 216.5v5M389.5 216.5v5"/>
                </g>
                <g class="mark-text role-axis-label" font-family="sans-serif" font-size="10" fill="#000">
                    <text transform="translate(189.5 231.5)">0</text>
                    <text text-anchor="end" transform="translate(389.5 231.5)">70,000,000</text>
                </g>
                <path stroke="#888" d="M189.5 216.5h200" class="mark-rule role-axis-domain"/>
                <text text-anchor="middle" transform="translate(289.5 246.5)" font-family="sans-serif" font-size="11" font-weight="bold" fill="#000" class="mark-text role-axis-title">Loose Assertion</text>
            </g>
            <g pointer-events="none" class="mark-group role-axis" aria-roledescription="axis" aria-label="Y-axis for a discrete scale with 4 values: ts-runtime-checks, typia, spectypes, (median)">
                <path class="background" aria-hidden="true" d="M189.5 156.5Z"/>
                <g class="mark-rule role-axis-tick" stroke="#888">
                    <path d="M189.5 163.5h-5M189.5 178.5h-5M189.5 193.5h-5M189.5 208.5h-5"/>
                </g>
                <g class="mark-text role-axis-label" text-anchor="end" font-family="sans-serif" font-size="10" fill="#000">
                    <text transform="translate(182.5 166.5)">ts-runtime-checks</text>
                    <text transform="translate(182.5 181.5)">typia</text>
                    <text transform="translate(182.5 196.5)">spectypes</text>
                    <text transform="translate(182.5 211.5)">(median)</text>
                </g>
                <path stroke="#888" d="M189.5 156.5v60" class="mark-rule role-axis-domain"/>
            </g>
            <g class="mark-rect role-mark child__Loose_Assertion_marks" aria-roledescription="rect mark container">
                <path d="M189 156.75h191.715v13.5H189Z" fill="#72b7b2"/>
                <path d="M189 171.75h151.341v13.5H189Z" fill="#54a24b"/>
                <path d="M189 186.75h130.09v13.5H189Z" fill="#e45756"/>
                <path d="M189 201.75h2.397v13.5H189Z" fill="#4c78a8"/>
            </g>
        </g>
        <g class="mark-group role-scope child__Strict_Assertion_group" aria-roledescription="group mark container">
            <path class="background" aria-hidden="true" d="M576.5 156.5h200v60h-200Z" stroke="#ddd"/>
            <g class="mark-group role-axis" aria-roledescription="axis" aria-label="X-axis for a linear scale with values from 0 to 22,000,000">
                <path class="background" aria-hidden="true" d="M576.5 216.5Z" pointer-events="none"/>
                <g class="mark-rule role-axis-grid" pointer-events="none" stroke="#ddd">
                    <path d="M576.5 216.5v-60M621.5 216.5v-60M667.5 216.5v-60M712.5 216.5v-60M758.5 216.5v-60"/>
                </g>
            </g>
            <g pointer-events="none" class="mark-group role-axis" aria-roledescription="axis" aria-label="X-axis titled 'Strict Assertion' for a linear scale with values from 0 to 22,000,000">
                <path class="background" aria-hidden="true" d="M576.5 216.5Z"/>
                <g class="mark-rule role-axis-tick" stroke="#888">
                    <path d="M576.5 216.5v5M621.5 216.5v5M667.5 216.5v5M712.5 216.5v5M758.5 216.5v5"/>
                </g>
                <g class="mark-text role-axis-label" font-family="sans-serif" font-size="10" fill="#000">
                    <text transform="translate(576.5 231.5)">0</text>
                    <text text-anchor="middle" transform="translate(667.41 231.5)">10,000,000</text>
                    <text text-anchor="middle" transform="translate(758.318 231.5)">20,000,000</text>
                </g>
                <path stroke="#888" d="M576.5 216.5h200" class="mark-rule role-axis-domain"/>
                <text text-anchor="middle" transform="translate(676.5 246.5)" font-family="sans-serif" font-size="11" font-weight="bold" fill="#000" class="mark-text role-axis-title">Strict Assertion</text>
            </g>
            <g pointer-events="none" class="mark-group role-axis" aria-roledescription="axis" aria-label="Y-axis for a discrete scale with 4 values: ts-runtime-checks, typia, spectypes, (median)">
                <path class="background" aria-hidden="true" d="M576.5 156.5Z"/>
                <g class="mark-rule role-axis-tick" stroke="#888">
                    <path d="M576.5 163.5h-5M576.5 178.5h-5M576.5 193.5h-5M576.5 208.5h-5"/>
                </g>
                <g class="mark-text role-axis-label" text-anchor="end" font-family="sans-serif" font-size="10" fill="#000">
                    <text transform="translate(569.5 166.5)">ts-runtime-checks</text>
                    <text transform="translate(569.5 181.5)">typia</text>
                    <text transform="translate(569.5 196.5)">spectypes</text>
                    <text transform="translate(569.5 211.5)">(median)</text>
                </g>
                <path stroke="#888" d="M576.5 156.5v60" class="mark-rule role-axis-domain"/>
            </g>
            <g class="mark-rect role-mark child__Strict_Assertion_marks" aria-roledescription="rect mark container">
                <path d="M576 156.75h185.566v13.5H576Z" fill="#72b7b2"/>
                <path d="M576 171.75h170.96v13.5H576Z" fill="#54a24b"/>
                <path d="M576 186.75h148.092v13.5H576Z" fill="#e45756"/>
                <path d="M576 201.75h5.243v13.5H576Z" fill="#4c78a8"/>
            </g>
        </g>
        <g class="mark-group role-title">
            <path class="background" aria-hidden="true" d="M421.91 5Z" pointer-events="none"/>
            <text text-anchor="middle" transform="translate(421.91 18)" font-family="sans-serif" font-size="16" fill="#000" class="mark-text role-title-text" aria-roledescription="title" aria-label="Title text 'Top 3 packages for each benchmark + median, (ops count, better ⯈)'" pointer-events="none">Top 3 packages for each benchmark + median, (ops count, better ⯈)</text>
        </g>
    </g>
</svg>
