<svg xmlns="http://www.w3.org/2000/svg" class="marks" width="843" height="254">
    <path fill="#fff" d="M0 0h843v254H0z"/>
    <g class="mark-group role-frame root" aria-roledescription="group mark container" fill="none" stroke-miterlimit="10">
        <path class="background" aria-hidden="true" d="M189 42Z"/>
        <g class="mark-group role-scope child__Safe_Parsing_group" aria-roledescription="group mark container">
            <path class="background" aria-hidden="true" d="M189.5 42.5h200v60h-200Z" stroke="#ddd"/>
            <g class="mark-group role-axis" aria-hidden="true">
                <path class="background" aria-hidden="true" d="M189.5 102.5Z" pointer-events="none"/>
                <g class="mark-rule role-axis-grid" pointer-events="none" stroke="#ddd">
                    <path d="M189.5 102.5v-60M220.5 102.5v-60M251.5 102.5v-60M281.5 102.5v-60M312.5 102.5v-60M343.5 102.5v-60M374.5 102.5v-60"/>
                </g>
            </g>
            <g pointer-events="none" class="mark-group role-axis" aria-roledescription="axis" aria-label="X-axis titled 'Safe Parsing' for a linear scale with values from 0 to 65,000,000">
                <path class="background" aria-hidden="true" d="M189.5 102.5Z"/>
                <g class="mark-rule role-axis-tick" stroke="#888">
                    <path d="M189.5 102.5v5M220.5 102.5v5M251.5 102.5v5M281.5 102.5v5M312.5 102.5v5M343.5 102.5v5M374.5 102.5v5"/>
                </g>
                <g class="mark-text role-axis-label" font-family="sans-serif" font-size="10" fill="#000">
                    <text transform="translate(189.5 117.5)">0</text>
                    <text text-anchor="middle" transform="translate(374.115 117.5)">60,000,000</text>
                </g>
                <path stroke="#888" d="M189.5 102.5h200" class="mark-rule role-axis-domain"/>
                <text text-anchor="middle" transform="translate(289.5 132.5)" font-family="sans-serif" font-size="11" font-weight="bold" fill="#000" class="mark-text role-axis-title">Safe Parsing</text>
            </g>
            <g pointer-events="none" class="mark-group role-axis" aria-roledescription="axis" aria-label="Y-axis for a discrete scale with 4 values: typia, spectypes, rescript-schema, (median)">
                <path class="background" aria-hidden="true" d="M189.5 42.5Z"/>
                <g class="mark-rule role-axis-tick" stroke="#888">
                    <path d="M189.5 49.5h-5M189.5 64.5h-5M189.5 79.5h-5M189.5 94.5h-5"/>
                </g>
                <g class="mark-text role-axis-label" text-anchor="end" font-family="sans-serif" font-size="10" fill="#000">
                    <text transform="translate(182.5 52.5)">typia</text>
                    <text transform="translate(182.5 67.5)">spectypes</text>
                    <text transform="translate(182.5 82.5)">rescript-schema</text>
                    <text transform="translate(182.5 97.5)">(median)</text>
                </g>
                <path stroke="#888" d="M189.5 42.5v60" class="mark-rule role-axis-domain"/>
            </g>
            <g class="mark-rect role-mark child__Safe_Parsing_marks" aria-roledescription="rect mark container">
                <path aria-label="Safe Parsing: 61630643; name: typia" aria-roledescription="bar" d="M189 42.75h189.633v13.5H189Z" fill="#b279a2"/>
                <path aria-label="Safe Parsing: 41238023; name: spectypes" aria-roledescription="bar" d="M189 57.75h126.886v13.5H189Z" fill="#54a24b"/>
                <path aria-label="Safe Parsing: 35279368; name: rescript-schema" aria-roledescription="bar" d="M189 72.75h108.552v13.5H189Z" fill="#72b7b2"/>
                <path aria-label="Safe Parsing: 1691349.5; name: (median)" aria-roledescription="bar" d="M189 87.75h5.204v13.5H189Z" fill="#4c78a8"/>
            </g>
        </g>
        <g class="mark-group role-scope child__Strict_Parsing_group" aria-roledescription="group mark container">
            <path class="background" aria-hidden="true" d="M619.5 42.5h200v60h-200Z" stroke="#ddd"/>
            <g class="mark-group role-axis" aria-hidden="true">
                <path class="background" aria-hidden="true" d="M619.5 102.5Z" pointer-events="none"/>
                <g class="mark-rule role-axis-grid" pointer-events="none" stroke="#ddd">
                    <path d="M619.5 102.5v-60M669.5 102.5v-60M719.5 102.5v-60M769.5 102.5v-60M819.5 102.5v-60"/>
                </g>
            </g>
            <g pointer-events="none" class="mark-group role-axis" aria-roledescription="axis" aria-label="X-axis titled 'Strict Parsing' for a linear scale with values from 0 to 40,000,000">
                <path class="background" aria-hidden="true" d="M619.5 102.5Z"/>
                <g class="mark-rule role-axis-tick" stroke="#888">
                    <path d="M619.5 102.5v5M669.5 102.5v5M719.5 102.5v5M769.5 102.5v5M819.5 102.5v5"/>
                </g>
                <g class="mark-text role-axis-label" font-family="sans-serif" font-size="10" fill="#000">
                    <text transform="translate(619.5 117.5)">0</text>
                    <text text-anchor="end" transform="translate(819.5 117.5)">40,000,000</text>
                </g>
                <path stroke="#888" d="M619.5 102.5h200" class="mark-rule role-axis-domain"/>
                <text text-anchor="middle" transform="translate(719.5 132.5)" font-family="sans-serif" font-size="11" font-weight="bold" fill="#000" class="mark-text role-axis-title">Strict Parsing</text>
            </g>
            <g pointer-events="none" class="mark-group role-axis" aria-roledescription="axis" aria-label="Y-axis for a discrete scale with 4 values: ts-runtime-checks, typia, spectypes, (median)">
                <path class="background" aria-hidden="true" d="M619.5 42.5Z"/>
                <g class="mark-rule role-axis-tick" stroke="#888">
                    <path d="M619.5 49.5h-5M619.5 64.5h-5M619.5 79.5h-5M619.5 94.5h-5"/>
                </g>
                <g class="mark-text role-axis-label" text-anchor="end" font-family="sans-serif" font-size="10" fill="#000">
                    <text transform="translate(612.5 52.5)">ts-runtime-checks</text>
                    <text transform="translate(612.5 67.5)">typia</text>
                    <text transform="translate(612.5 82.5)">spectypes</text>
                    <text transform="translate(612.5 97.5)">(median)</text>
                </g>
                <path stroke="#888" d="M619.5 42.5v60" class="mark-rule role-axis-domain"/>
            </g>
            <g class="mark-rect role-mark child__Strict_Parsing_marks" aria-roledescription="rect mark container">
                <path aria-label="Strict Parsing: 35374615; name: ts-runtime-checks" aria-roledescription="bar" d="M619 42.75h176.873v13.5H619Z" fill="#eeca3b"/>
                <path aria-label="Strict Parsing: 39525781; name: typia" aria-roledescription="bar" d="M619 57.75h197.629v13.5H619Z" fill="#b279a2"/>
                <path aria-label="Strict Parsing: 30460310; name: spectypes" aria-roledescription="bar" d="M619 72.75h152.302v13.5H619Z" fill="#54a24b"/>
                <path aria-label="Strict Parsing: 1325948.5; name: (median)" aria-roledescription="bar" d="M619 87.75h6.63v13.5H619Z" fill="#4c78a8"/>
            </g>
        </g>
        <g class="mark-group role-scope child__Loose_Assertion_group" aria-roledescription="group mark container">
            <path class="background" aria-hidden="true" d="M189.5 156.5h200v60h-200Z" stroke="#ddd"/>
            <g class="mark-group role-axis" aria-hidden="true">
                <path class="background" aria-hidden="true" d="M189.5 216.5Z" pointer-events="none"/>
                <g class="mark-rule role-axis-grid" pointer-events="none" stroke="#ddd">
                    <path d="M189.5 216.5v-60M245.5 216.5v-60M300.5 216.5v-60M356.5 216.5v-60"/>
                </g>
            </g>
            <g pointer-events="none" class="mark-group role-axis" aria-roledescription="axis" aria-label="X-axis titled 'Loose Assertion' for a linear scale with values from 0 to 180,000,000">
                <path class="background" aria-hidden="true" d="M189.5 216.5Z"/>
                <g class="mark-rule role-axis-tick" stroke="#888">
                    <path d="M189.5 216.5v5M245.5 216.5v5M300.5 216.5v5M356.5 216.5v5"/>
                </g>
                <g class="mark-text role-axis-label" font-family="sans-serif" font-size="10" fill="#000">
                    <text transform="translate(189.5 231.5)">0</text>
                    <text text-anchor="middle" transform="translate(356.167 231.5)">150,000,000</text>
                </g>
                <path stroke="#888" d="M189.5 216.5h200" class="mark-rule role-axis-domain"/>
                <text text-anchor="middle" transform="translate(289.5 246.5)" font-family="sans-serif" font-size="11" font-weight="bold" fill="#000" class="mark-text role-axis-title">Loose Assertion</text>
            </g>
            <g pointer-events="none" class="mark-group role-axis" aria-roledescription="axis" aria-label="Y-axis for a discrete scale with 4 values: ts-runtime-checks, @sinclair/typebox-(ahead-of-time), typia, (median)">
                <path class="background" aria-hidden="true" d="M189.5 156.5Z"/>
                <g class="mark-rule role-axis-tick" stroke="#888">
                    <path d="M189.5 163.5h-5M189.5 178.5h-5M189.5 193.5h-5M189.5 208.5h-5"/>
                </g>
                <g class="mark-text role-axis-label" text-anchor="end" font-family="sans-serif" font-size="10" fill="#000">
                    <text transform="translate(182.5 166.5)">ts-runtime-checks</text>
                    <text transform="translate(182.5 181.5)">@sinclair/typebox-(ah…</text>
                    <text transform="translate(182.5 196.5)">typia</text>
                    <text transform="translate(182.5 211.5)">(median)</text>
                </g>
                <path stroke="#888" d="M189.5 156.5v60" class="mark-rule role-axis-domain"/>
            </g>
            <g class="mark-rect role-mark child__Loose_Assertion_marks" aria-roledescription="rect mark container">
                <path aria-label="Loose Assertion: 164050277; name: ts-runtime-checks" aria-roledescription="bar" d="M189 156.75h182.278v13.5H189Z" fill="#eeca3b"/>
                <path aria-label="Loose Assertion: 163809902; name: @sinclair/typebox-(ahead-of-time)" aria-roledescription="bar" d="M189 171.75h182.011v13.5H189Z" fill="#f58518"/>
                <path aria-label="Loose Assertion: 141094061; name: typia" aria-roledescription="bar" d="M189 186.75h156.771v13.5H189Z" fill="#b279a2"/>
                <path aria-label="Loose Assertion: 1811160; name: (median)" aria-roledescription="bar" d="M189 201.75h2.012v13.5H189Z" fill="#4c78a8"/>
            </g>
        </g>
        <g class="mark-group role-scope child__Strict_Assertion_group" aria-roledescription="group mark container">
            <path class="background" aria-hidden="true" d="M619.5 156.5h200v60h-200Z" stroke="#ddd"/>
            <g class="mark-group role-axis" aria-hidden="true">
                <path class="background" aria-hidden="true" d="M619.5 216.5Z" pointer-events="none"/>
                <g class="mark-rule role-axis-grid" pointer-events="none" stroke="#ddd">
                    <path d="M619.5 216.5v-60M663.5 216.5v-60M708.5 216.5v-60M752.5 216.5v-60M797.5 216.5v-60"/>
                </g>
            </g>
            <g pointer-events="none" class="mark-group role-axis" aria-roledescription="axis" aria-label="X-axis titled 'Strict Assertion' for a linear scale with values from 0 to 45,000,000">
                <path class="background" aria-hidden="true" d="M619.5 216.5Z"/>
                <g class="mark-rule role-axis-tick" stroke="#888">
                    <path d="M619.5 216.5v5M663.5 216.5v5M708.5 216.5v5M752.5 216.5v5M797.5 216.5v5"/>
                </g>
                <g class="mark-text role-axis-label" font-family="sans-serif" font-size="10" fill="#000">
                    <text transform="translate(619.5 231.5)">0</text>
                    <text text-anchor="middle" transform="translate(708.389 231.5)">20,000,000</text>
                    <text text-anchor="middle" transform="translate(797.278 231.5)">40,000,000</text>
                </g>
                <path stroke="#888" d="M619.5 216.5h200" class="mark-rule role-axis-domain"/>
                <text text-anchor="middle" transform="translate(719.5 246.5)" font-family="sans-serif" font-size="11" font-weight="bold" fill="#000" class="mark-text role-axis-title">Strict Assertion</text>
            </g>
            <g pointer-events="none" class="mark-group role-axis" aria-roledescription="axis" aria-label="Y-axis for a discrete scale with 4 values: @sinclair/typebox-(ahead-of-time), typia, @sinclair/typebox-(just-in-time), (median)">
                <path class="background" aria-hidden="true" d="M619.5 156.5Z"/>
                <g class="mark-rule role-axis-tick" stroke="#888">
                    <path d="M619.5 163.5h-5M619.5 178.5h-5M619.5 193.5h-5M619.5 208.5h-5"/>
                </g>
                <g class="mark-text role-axis-label" text-anchor="end" font-family="sans-serif" font-size="10" fill="#000">
                    <text transform="translate(612.5 166.5)">@sinclair/typebox-(ah…</text>
                    <text transform="translate(612.5 181.5)">typia</text>
                    <text transform="translate(612.5 196.5)">@sinclair/typebox-(ju…</text>
                    <text transform="translate(612.5 211.5)">(median)</text>
                </g>
                <path stroke="#888" d="M619.5 156.5v60" class="mark-rule role-axis-domain"/>
            </g>
            <g class="mark-rect role-mark child__Strict_Assertion_marks" aria-roledescription="rect mark container">
                <path aria-label="Strict Assertion: 41046760; name: @sinclair/typebox-(ahead-of-time)" aria-roledescription="bar" d="M619 156.75h182.43v13.5H619Z" fill="#f58518"/>
                <path aria-label="Strict Assertion: 36345629; name: typia" aria-roledescription="bar" d="M619 171.75h161.536v13.5H619Z" fill="#b279a2"/>
                <path aria-label="Strict Assertion: 37612326; name: @sinclair/typebox-(just-in-time)" aria-roledescription="bar" d="M619 186.75h167.166v13.5H619Z" fill="#e45756"/>
                <path aria-label="Strict Assertion: 1215308.5; name: (median)" aria-roledescription="bar" d="M619 201.75h5.401v13.5H619Z" fill="#4c78a8"/>
            </g>
        </g>
        <g class="mark-group role-title">
            <path class="background" aria-hidden="true" d="M421.389 5Z" pointer-events="none"/>
            <text text-anchor="middle" transform="translate(421.389 18)" font-family="sans-serif" font-size="16" fill="#000" class="mark-text role-title-text" aria-roledescription="title" aria-label="Title text 'Top 3 packages for each benchmark + median, (ops count, better ⯈)'" pointer-events="none">Top 3 packages for each benchmark + median, (ops count, better ⯈)</text>
        </g>
    </g>
</svg>
