<svg xmlns="http://www.w3.org/2000/svg" class="marks" width="843" height="254">
    <path fill="#fff" d="M0 0h843v254H0z"/>
    <g class="mark-group role-frame root" aria-roledescription="group mark container" fill="none" stroke-miterlimit="10">
        <path class="background" aria-hidden="true" d="M193 42Z"/>
        <g class="mark-group role-scope child__Safe_Parsing_group" aria-roledescription="group mark container">
            <path class="background" aria-hidden="true" d="M193.5 42.5h200v60h-200Z" stroke="#ddd"/>
            <g class="mark-group role-axis" aria-hidden="true">
                <path class="background" aria-hidden="true" d="M193.5 102.5Z" pointer-events="none"/>
                <g class="mark-rule role-axis-grid" pointer-events="none" stroke="#ddd">
                    <path d="M193.5 102.5v-60M226.5 102.5v-60M260.5 102.5v-60M293.5 102.5v-60M326.5 102.5v-60M360.5 102.5v-60M393.5 102.5v-60"/>
                </g>
            </g>
            <g pointer-events="none" class="mark-group role-axis" aria-roledescription="axis" aria-label="X-axis titled 'Safe Parsing' for a linear scale with values from 0 to 120,000,000">
                <path class="background" aria-hidden="true" d="M193.5 102.5Z"/>
                <g class="mark-rule role-axis-tick" stroke="#888">
                    <path d="M193.5 102.5v5M226.5 102.5v5M260.5 102.5v5M293.5 102.5v5M326.5 102.5v5M360.5 102.5v5M393.5 102.5v5"/>
                </g>
                <g class="mark-text role-axis-label" font-family="sans-serif" font-size="10" fill="#000">
                    <text transform="translate(193.5 117.5)">0</text>
                    <text text-anchor="end" transform="translate(393.5 117.5)">120,000,000</text>
                </g>
                <path stroke="#888" d="M193.5 102.5h200" class="mark-rule role-axis-domain"/>
                <text text-anchor="middle" transform="translate(293.5 132.5)" font-family="sans-serif" font-size="11" font-weight="bold" fill="#000" class="mark-text role-axis-title">Safe Parsing</text>
            </g>
            <g pointer-events="none" class="mark-group role-axis" aria-roledescription="axis" aria-label="Y-axis for a discrete scale with 4 values: spectypes, rescript-schema, typia, (median)">
                <path class="background" aria-hidden="true" d="M193.5 42.5Z"/>
                <g class="mark-rule role-axis-tick" stroke="#888">
                    <path d="M193.5 49.5h-5M193.5 64.5h-5M193.5 79.5h-5M193.5 94.5h-5"/>
                </g>
                <g class="mark-text role-axis-label" text-anchor="end" font-family="sans-serif" font-size="10" fill="#000">
                    <text transform="translate(186.5 52.5)">spectypes</text>
                    <text transform="translate(186.5 67.5)">rescript-schema</text>
                    <text transform="translate(186.5 82.5)">typia</text>
                    <text transform="translate(186.5 97.5)">(median)</text>
                </g>
                <path stroke="#888" d="M193.5 42.5v60" class="mark-rule role-axis-domain"/>
            </g>
            <g class="mark-rect role-mark child__Safe_Parsing_marks" aria-roledescription="rect mark container">
                <path aria-label="Safe Parsing: 41750650; name: spectypes" aria-roledescription="bar" d="M193 42.75h69.584v13.5H193Z" fill="#54a24b"/>
                <path aria-label="Safe Parsing: 119894518; name: rescript-schema" aria-roledescription="bar" d="M193 57.75h199.824v13.5H193Z" fill="#72b7b2"/>
                <path aria-label="Safe Parsing: 114611080; name: typia" aria-roledescription="bar" d="M193 72.75h191.018v13.5H193Z" fill="#b279a2"/>
                <path aria-label="Safe Parsing: 1597493; name: (median)" aria-roledescription="bar" d="M193 87.75h2.662v13.5H193Z" fill="#4c78a8"/>
            </g>
        </g>
        <g class="mark-group role-scope child__Strict_Parsing_group" aria-roledescription="group mark container">
            <path class="background" aria-hidden="true" d="M616.5 42.5h200v60h-200Z" stroke="#ddd"/>
            <g class="mark-group role-axis" aria-hidden="true">
                <path class="background" aria-hidden="true" d="M616.5 102.5Z" pointer-events="none"/>
                <g class="mark-rule role-axis-grid" pointer-events="none" stroke="#ddd">
                    <path d="M616.5 102.5v-60M666.5 102.5v-60M716.5 102.5v-60M766.5 102.5v-60M816.5 102.5v-60"/>
                </g>
            </g>
            <g pointer-events="none" class="mark-group role-axis" aria-roledescription="axis" aria-label="X-axis titled 'Strict Parsing' for a linear scale with values from 0 to 40,000,000">
                <path class="background" aria-hidden="true" d="M616.5 102.5Z"/>
                <g class="mark-rule role-axis-tick" stroke="#888">
                    <path d="M616.5 102.5v5M666.5 102.5v5M716.5 102.5v5M766.5 102.5v5M816.5 102.5v5"/>
                </g>
                <g class="mark-text role-axis-label" font-family="sans-serif" font-size="10" fill="#000">
                    <text transform="translate(616.5 117.5)">0</text>
                    <text text-anchor="end" transform="translate(816.5 117.5)">40,000,000</text>
                </g>
                <path stroke="#888" d="M616.5 102.5h200" class="mark-rule role-axis-domain"/>
                <text text-anchor="middle" transform="translate(716.5 132.5)" font-family="sans-serif" font-size="11" font-weight="bold" fill="#000" class="mark-text role-axis-title">Strict Parsing</text>
            </g>
            <g pointer-events="none" class="mark-group role-axis" aria-roledescription="axis" aria-label="Y-axis for a discrete scale with 4 values: ts-runtime-checks, spectypes, typia, (median)">
                <path class="background" aria-hidden="true" d="M616.5 42.5Z"/>
                <g class="mark-rule role-axis-tick" stroke="#888">
                    <path d="M616.5 49.5h-5M616.5 64.5h-5M616.5 79.5h-5M616.5 94.5h-5"/>
                </g>
                <g class="mark-text role-axis-label" text-anchor="end" font-family="sans-serif" font-size="10" fill="#000">
                    <text transform="translate(609.5 52.5)">ts-runtime-checks</text>
                    <text transform="translate(609.5 67.5)">spectypes</text>
                    <text transform="translate(609.5 82.5)">typia</text>
                    <text transform="translate(609.5 97.5)">(median)</text>
                </g>
                <path stroke="#888" d="M616.5 42.5v60" class="mark-rule role-axis-domain"/>
            </g>
            <g class="mark-rect role-mark child__Strict_Parsing_marks" aria-roledescription="rect mark container">
                <path aria-label="Strict Parsing: 35215550; name: ts-runtime-checks" aria-roledescription="bar" d="M616 42.75h176.078v13.5H616Z" fill="#eeca3b"/>
                <path aria-label="Strict Parsing: 30758808; name: spectypes" aria-roledescription="bar" d="M616 57.75h153.794v13.5H616Z" fill="#54a24b"/>
                <path aria-label="Strict Parsing: 38206171; name: typia" aria-roledescription="bar" d="M616 72.75h191.03v13.5H616Z" fill="#b279a2"/>
                <path aria-label="Strict Parsing: 1362130.5; name: (median)" aria-roledescription="bar" d="M616 87.75h6.81v13.5H616Z" fill="#4c78a8"/>
            </g>
        </g>
        <g class="mark-group role-scope child__Loose_Assertion_group" aria-roledescription="group mark container">
            <path class="background" aria-hidden="true" d="M193.5 156.5h200v60h-200Z" stroke="#ddd"/>
            <g class="mark-group role-axis" aria-hidden="true">
                <path class="background" aria-hidden="true" d="M193.5 216.5Z" pointer-events="none"/>
                <g class="mark-rule role-axis-grid" pointer-events="none" stroke="#ddd">
                    <path d="M193.5 216.5v-60M249.5 216.5v-60M304.5 216.5v-60M360.5 216.5v-60"/>
                </g>
            </g>
            <g pointer-events="none" class="mark-group role-axis" aria-roledescription="axis" aria-label="X-axis titled 'Loose Assertion' for a linear scale with values from 0 to 180,000,000">
                <path class="background" aria-hidden="true" d="M193.5 216.5Z"/>
                <g class="mark-rule role-axis-tick" stroke="#888">
                    <path d="M193.5 216.5v5M249.5 216.5v5M304.5 216.5v5M360.5 216.5v5"/>
                </g>
                <g class="mark-text role-axis-label" font-family="sans-serif" font-size="10" fill="#000">
                    <text transform="translate(193.5 231.5)">0</text>
                    <text text-anchor="middle" transform="translate(360.167 231.5)">150,000,000</text>
                </g>
                <path stroke="#888" d="M193.5 216.5h200" class="mark-rule role-axis-domain"/>
                <text text-anchor="middle" transform="translate(293.5 246.5)" font-family="sans-serif" font-size="11" font-weight="bold" fill="#000" class="mark-text role-axis-title">Loose Assertion</text>
            </g>
            <g pointer-events="none" class="mark-group role-axis" aria-roledescription="axis" aria-label="Y-axis for a discrete scale with 4 values: @sinclair/typebox-(ahead-of-time), ts-runtime-checks, spectypes, (median)">
                <path class="background" aria-hidden="true" d="M193.5 156.5Z"/>
                <g class="mark-rule role-axis-tick" stroke="#888">
                    <path d="M193.5 163.5h-5M193.5 178.5h-5M193.5 193.5h-5M193.5 208.5h-5"/>
                </g>
                <g class="mark-text role-axis-label" text-anchor="end" font-family="sans-serif" font-size="10" fill="#000">
                    <text transform="translate(186.5 166.5)">@sinclair/typebox-(ah…</text>
                    <text transform="translate(186.5 181.5)">ts-runtime-checks</text>
                    <text transform="translate(186.5 196.5)">spectypes</text>
                    <text transform="translate(186.5 211.5)">(median)</text>
                </g>
                <path stroke="#888" d="M193.5 156.5v60" class="mark-rule role-axis-domain"/>
            </g>
            <g class="mark-rect role-mark child__Loose_Assertion_marks" aria-roledescription="rect mark container">
                <path aria-label="Loose Assertion: 164783595; name: @sinclair/typebox-(ahead-of-time)" aria-roledescription="bar" d="M193 156.75h183.093v13.5H193Z" fill="#f58518"/>
                <path aria-label="Loose Assertion: 164563594; name: ts-runtime-checks" aria-roledescription="bar" d="M193 171.75h182.848v13.5H193Z" fill="#eeca3b"/>
                <path aria-label="Loose Assertion: 141367879; name: spectypes" aria-roledescription="bar" d="M193 186.75h157.075v13.5H193Z" fill="#54a24b"/>
                <path aria-label="Loose Assertion: 2089622.5; name: (median)" aria-roledescription="bar" d="M193 201.75h2.322v13.5H193Z" fill="#4c78a8"/>
            </g>
        </g>
        <g class="mark-group role-scope child__Strict_Assertion_group" aria-roledescription="group mark container">
            <path class="background" aria-hidden="true" d="M616.5 156.5h200v60h-200Z" stroke="#ddd"/>
            <g class="mark-group role-axis" aria-hidden="true">
                <path class="background" aria-hidden="true" d="M616.5 216.5Z" pointer-events="none"/>
                <g class="mark-rule role-axis-grid" pointer-events="none" stroke="#ddd">
                    <path d="M616.5 216.5v-60M660.5 216.5v-60M705.5 216.5v-60M749.5 216.5v-60M794.5 216.5v-60"/>
                </g>
            </g>
            <g pointer-events="none" class="mark-group role-axis" aria-roledescription="axis" aria-label="X-axis titled 'Strict Assertion' for a linear scale with values from 0 to 45,000,000">
                <path class="background" aria-hidden="true" d="M616.5 216.5Z"/>
                <g class="mark-rule role-axis-tick" stroke="#888">
                    <path d="M616.5 216.5v5M660.5 216.5v5M705.5 216.5v5M749.5 216.5v5M794.5 216.5v5"/>
                </g>
                <g class="mark-text role-axis-label" font-family="sans-serif" font-size="10" fill="#000">
                    <text transform="translate(616.5 231.5)">0</text>
                    <text text-anchor="middle" transform="translate(705.389 231.5)">20,000,000</text>
                    <text text-anchor="middle" transform="translate(794.278 231.5)">40,000,000</text>
                </g>
                <path stroke="#888" d="M616.5 216.5h200" class="mark-rule role-axis-domain"/>
                <text text-anchor="middle" transform="translate(716.5 246.5)" font-family="sans-serif" font-size="11" font-weight="bold" fill="#000" class="mark-text role-axis-title">Strict Assertion</text>
            </g>
            <g pointer-events="none" class="mark-group role-axis" aria-roledescription="axis" aria-label="Y-axis for a discrete scale with 4 values: @sinclair/typebox-(ahead-of-time), ts-runtime-checks, @sinclair/typebox-(just-in-time), (median)">
                <path class="background" aria-hidden="true" d="M616.5 156.5Z"/>
                <g class="mark-rule role-axis-tick" stroke="#888">
                    <path d="M616.5 163.5h-5M616.5 178.5h-5M616.5 193.5h-5M616.5 208.5h-5"/>
                </g>
                <g class="mark-text role-axis-label" text-anchor="end" font-family="sans-serif" font-size="10" fill="#000">
                    <text transform="translate(609.5 166.5)">@sinclair/typebox-(ah…</text>
                    <text transform="translate(609.5 181.5)">ts-runtime-checks</text>
                    <text transform="translate(609.5 196.5)">@sinclair/typebox-(ju…</text>
                    <text transform="translate(609.5 211.5)">(median)</text>
                </g>
                <path stroke="#888" d="M616.5 156.5v60" class="mark-rule role-axis-domain"/>
            </g>
            <g class="mark-rect role-mark child__Strict_Assertion_marks" aria-roledescription="rect mark container">
                <path aria-label="Strict Assertion: 40552476; name: @sinclair/typebox-(ahead-of-time)" aria-roledescription="bar" d="M616 156.75h180.233v13.5H616Z" fill="#f58518"/>
                <path aria-label="Strict Assertion: 35132588; name: ts-runtime-checks" aria-roledescription="bar" d="M616 171.75h156.145v13.5H616Z" fill="#eeca3b"/>
                <path aria-label="Strict Assertion: 37842857; name: @sinclair/typebox-(just-in-time)" aria-roledescription="bar" d="M616 186.75h168.19v13.5H616Z" fill="#e45756"/>
                <path aria-label="Strict Assertion: 1108516.5; name: (median)" aria-roledescription="bar" d="M616 201.75h4.927v13.5H616Z" fill="#4c78a8"/>
            </g>
        </g>
        <g class="mark-group role-title">
            <path class="background" aria-hidden="true" d="M421.889 5Z" pointer-events="none"/>
            <text text-anchor="middle" transform="translate(421.889 18)" font-family="sans-serif" font-size="16" fill="#000" class="mark-text role-title-text" aria-roledescription="title" aria-label="Title text 'Top 3 packages for each benchmark + median, (ops count, better ⯈)'" pointer-events="none">Top 3 packages for each benchmark + median, (ops count, better ⯈)</text>
        </g>
    </g>
</svg>
