<svg xmlns="http://www.w3.org/2000/svg" class="marks" width="843" height="254">
    <path fill="#fff" d="M0 0h843v254H0z"/>
    <g class="mark-group role-frame root" aria-roledescription="group mark container" fill="none" stroke-miterlimit="10">
        <path class="background" aria-hidden="true" d="M199 42Z"/>
        <g class="mark-group role-scope child__Safe_Parsing_group" aria-roledescription="group mark container">
            <path class="background" aria-hidden="true" d="M199.5 42.5h200v60h-200Z" stroke="#ddd"/>
            <g class="mark-group role-axis" aria-hidden="true">
                <path class="background" aria-hidden="true" d="M199.5 102.5Z" pointer-events="none"/>
                <g class="mark-rule role-axis-grid" pointer-events="none" stroke="#ddd">
                    <path d="M199.5 102.5v-60M235.5 102.5v-60M272.5 102.5v-60M308.5 102.5v-60M344.5 102.5v-60M381.5 102.5v-60"/>
                </g>
            </g>
            <g pointer-events="none" class="mark-group role-axis" aria-roledescription="axis" aria-label="X-axis titled 'Safe Parsing' for a linear scale with values from 0 to 55,000,000">
                <path class="background" aria-hidden="true" d="M199.5 102.5Z"/>
                <g class="mark-rule role-axis-tick" stroke="#888">
                    <path d="M199.5 102.5v5M235.5 102.5v5M272.5 102.5v5M308.5 102.5v5M344.5 102.5v5M381.5 102.5v5"/>
                </g>
                <g class="mark-text role-axis-label" font-family="sans-serif" font-size="10" fill="#000">
                    <text transform="translate(199.5 117.5)">0</text>
                    <text text-anchor="middle" transform="translate(381.318 117.5)">50,000,000</text>
                </g>
                <path stroke="#888" d="M199.5 102.5h200" class="mark-rule role-axis-domain"/>
                <text text-anchor="middle" transform="translate(299.5 132.5)" font-family="sans-serif" font-size="11" font-weight="bold" fill="#000" class="mark-text role-axis-title">Safe Parsing</text>
            </g>
            <g pointer-events="none" class="mark-group role-axis" aria-roledescription="axis" aria-label="Y-axis for a discrete scale with 4 values: rescript-struct, typia, spectypes, (median)">
                <path class="background" aria-hidden="true" d="M199.5 42.5Z"/>
                <g class="mark-rule role-axis-tick" stroke="#888">
                    <path d="M199.5 49.5h-5M199.5 64.5h-5M199.5 79.5h-5M199.5 94.5h-5"/>
                </g>
                <g class="mark-text role-axis-label" text-anchor="end" font-family="sans-serif" font-size="10" fill="#000">
                    <text transform="translate(192.5 52.5)">rescript-struct</text>
                    <text transform="translate(192.5 67.5)">typia</text>
                    <text transform="translate(192.5 82.5)">spectypes</text>
                    <text transform="translate(192.5 97.5)">(median)</text>
                </g>
                <path stroke="#888" d="M199.5 42.5v60" class="mark-rule role-axis-domain"/>
            </g>
            <g class="mark-rect role-mark child__Safe_Parsing_marks" aria-roledescription="rect mark container">
                <path aria-label="Safe Parsing: 50150114; name: rescript-struct" aria-roledescription="bar" d="M199 42.75h182.364v13.5H199Z" fill="#e45756"/>
                <path aria-label="Safe Parsing: 39309335; name: typia" aria-roledescription="bar" d="M199 57.75v13.5Z" fill="#eeca3b"/>
                <path aria-label="Safe Parsing: 23636531; name: spectypes" aria-roledescription="bar" d="M199 72.75v13.5Z" fill="#72b7b2"/>
                <path aria-label="Safe Parsing: 984142; name: (median)" aria-roledescription="bar" d="M199 87.75v13.5Z" fill="#4c78a8"/>
            </g>
        </g>
        <g class="mark-group role-scope child__Strict_Parsing_group" aria-roledescription="group mark container">
            <path class="background" aria-hidden="true" d="M586.5 42.5h200v60h-200Z" stroke="#ddd"/>
            <g class="mark-group role-axis" aria-hidden="true">
                <path class="background" aria-hidden="true" d="M586.5 102.5Z" pointer-events="none"/>
                <path stroke="#ddd" d="M686.5 102.5v-60" class="mark-rule role-axis-grid" pointer-events="none"/>
            </g>
            <g pointer-events="none" class="mark-group role-axis" aria-roledescription="axis" aria-label="X-axis titled 'Strict Parsing' for a linear scale with values from 0 to 0">
                <path class="background" aria-hidden="true" d="M586.5 102.5Z"/>
                <path stroke="#888" d="M686.5 102.5v5" class="mark-rule role-axis-tick"/>
                <text text-anchor="middle" transform="translate(686.5 117.5)" font-family="sans-serif" font-size="10" fill="#000" class="mark-text role-axis-label">0</text>
                <path stroke="#888" d="M586.5 102.5h200" class="mark-rule role-axis-domain"/>
                <text text-anchor="middle" transform="translate(686.5 132.5)" font-family="sans-serif" font-size="11" font-weight="bold" fill="#000" class="mark-text role-axis-title">Strict Parsing</text>
            </g>
            <g pointer-events="none" class="mark-group role-axis" aria-roledescription="axis" aria-label="Y-axis for a discrete scale with 4 values: typia, ts-runtime-checks, spectypes, (median)">
                <path class="background" aria-hidden="true" d="M586.5 42.5Z"/>
                <g class="mark-rule role-axis-tick" stroke="#888">
                    <path d="M586.5 49.5h-5M586.5 64.5h-5M586.5 79.5h-5M586.5 94.5h-5"/>
                </g>
                <g class="mark-text role-axis-label" text-anchor="end" font-family="sans-serif" font-size="10" fill="#000">
                    <text transform="translate(579.5 52.5)">typia</text>
                    <text transform="translate(579.5 67.5)">ts-runtime-checks</text>
                    <text transform="translate(579.5 82.5)">spectypes</text>
                    <text transform="translate(579.5 97.5)">(median)</text>
                </g>
                <path stroke="#888" d="M586.5 42.5v60" class="mark-rule role-axis-domain"/>
            </g>
            <g class="mark-rect role-mark child__Strict_Parsing_marks" aria-roledescription="rect mark container">
                <path aria-label="Strict Parsing: 31188424; name: typia" aria-roledescription="bar" d="M586 42.75v13.5Z" fill="#eeca3b"/>
                <path aria-label="Strict Parsing: 24931481; name: ts-runtime-checks" aria-roledescription="bar" d="M586 57.75v13.5Z" fill="#54a24b"/>
                <path aria-label="Strict Parsing: 23140928; name: spectypes" aria-roledescription="bar" d="M586 72.75v13.5Z" fill="#72b7b2"/>
                <path aria-label="Strict Parsing: 1017364.5; name: (median)" aria-roledescription="bar" d="M586 87.75v13.5Z" fill="#4c78a8"/>
            </g>
        </g>
        <g class="mark-group role-scope child__Loose_Assertion_group" aria-roledescription="group mark container">
            <path class="background" aria-hidden="true" d="M199.5 156.5h200v60h-200Z" stroke="#ddd"/>
            <g class="mark-group role-axis" aria-hidden="true">
                <path class="background" aria-hidden="true" d="M199.5 216.5Z" pointer-events="none"/>
                <g class="mark-rule role-axis-grid" pointer-events="none" stroke="#ddd">
                    <path d="M199.5 216.5v-60M232.5 216.5v-60M266.5 216.5v-60M299.5 216.5v-60M332.5 216.5v-60M366.5 216.5v-60M399.5 216.5v-60"/>
                </g>
            </g>
            <g pointer-events="none" class="mark-group role-axis" aria-roledescription="axis" aria-label="X-axis titled 'Loose Assertion' for a linear scale with values from 0 to 120,000,000">
                <path class="background" aria-hidden="true" d="M199.5 216.5Z"/>
                <g class="mark-rule role-axis-tick" stroke="#888">
                    <path d="M199.5 216.5v5M232.5 216.5v5M266.5 216.5v5M299.5 216.5v5M332.5 216.5v5M366.5 216.5v5M399.5 216.5v5"/>
                </g>
                <g class="mark-text role-axis-label" font-family="sans-serif" font-size="10" fill="#000">
                    <text transform="translate(199.5 231.5)">0</text>
                    <text text-anchor="end" transform="translate(399.5 231.5)">120,000,000</text>
                </g>
                <path stroke="#888" d="M199.5 216.5h200" class="mark-rule role-axis-domain"/>
                <text text-anchor="middle" transform="translate(299.5 246.5)" font-family="sans-serif" font-size="11" font-weight="bold" fill="#000" class="mark-text role-axis-title">Loose Assertion</text>
            </g>
            <g pointer-events="none" class="mark-group role-axis" aria-roledescription="axis" aria-label="Y-axis for a discrete scale with 4 values: ts-runtime-checks, typia, spectypes, (median)">
                <path class="background" aria-hidden="true" d="M199.5 156.5Z"/>
                <g class="mark-rule role-axis-tick" stroke="#888">
                    <path d="M199.5 163.5h-5M199.5 178.5h-5M199.5 193.5h-5M199.5 208.5h-5"/>
                </g>
                <g class="mark-text role-axis-label" text-anchor="end" font-family="sans-serif" font-size="10" fill="#000">
                    <text transform="translate(192.5 166.5)">ts-runtime-checks</text>
                    <text transform="translate(192.5 181.5)">typia</text>
                    <text transform="translate(192.5 196.5)">spectypes</text>
                    <text transform="translate(192.5 211.5)">(median)</text>
                </g>
                <path stroke="#888" d="M199.5 156.5v60" class="mark-rule role-axis-domain"/>
            </g>
            <g class="mark-rect role-mark child__Loose_Assertion_marks" aria-roledescription="rect mark container">
                <path aria-label="Loose Assertion: 117893445; name: ts-runtime-checks" aria-roledescription="bar" d="M199 156.75h196.49v13.5H199Z" fill="#54a24b"/>
                <path aria-label="Loose Assertion: 116258803; name: typia" aria-roledescription="bar" d="M199 171.75h193.765v13.5H199Z" fill="#eeca3b"/>
                <path aria-label="Loose Assertion: 110564367; name: spectypes" aria-roledescription="bar" d="M199 186.75h184.274v13.5H199Z" fill="#72b7b2"/>
                <path aria-label="Loose Assertion: 1295875; name: (median)" aria-roledescription="bar" d="M199 201.75h2.16v13.5H199Z" fill="#4c78a8"/>
            </g>
        </g>
        <g class="mark-group role-scope child__Strict_Assertion_group" aria-roledescription="group mark container">
            <path class="background" aria-hidden="true" d="M586.5 156.5h200v60h-200Z" stroke="#ddd"/>
            <g class="mark-group role-axis" aria-hidden="true">
                <path class="background" aria-hidden="true" d="M586.5 216.5Z" pointer-events="none"/>
                <g class="mark-rule role-axis-grid" pointer-events="none" stroke="#ddd">
                    <path d="M586.5 216.5v-60M619.5 216.5v-60M653.5 216.5v-60M686.5 216.5v-60M719.5 216.5v-60M753.5 216.5v-60M786.5 216.5v-60"/>
                </g>
            </g>
            <g pointer-events="none" class="mark-group role-axis" aria-roledescription="axis" aria-label="X-axis titled 'Strict Assertion' for a linear scale with values from 0 to 30,000,000">
                <path class="background" aria-hidden="true" d="M586.5 216.5Z"/>
                <g class="mark-rule role-axis-tick" stroke="#888">
                    <path d="M586.5 216.5v5M619.5 216.5v5M653.5 216.5v5M686.5 216.5v5M719.5 216.5v5M753.5 216.5v5M786.5 216.5v5"/>
                </g>
                <g class="mark-text role-axis-label" font-family="sans-serif" font-size="10" fill="#000">
                    <text transform="translate(586.5 231.5)">0</text>
                    <text text-anchor="end" transform="translate(786.5 231.5)">30,000,000</text>
                </g>
                <path stroke="#888" d="M586.5 216.5h200" class="mark-rule role-axis-domain"/>
                <text text-anchor="middle" transform="translate(686.5 246.5)" font-family="sans-serif" font-size="11" font-weight="bold" fill="#000" class="mark-text role-axis-title">Strict Assertion</text>
            </g>
            <g pointer-events="none" class="mark-group role-axis" aria-roledescription="axis" aria-label="Y-axis for a discrete scale with 4 values: @sinclair/typebox, typia, ts-runtime-checks, (median)">
                <path class="background" aria-hidden="true" d="M586.5 156.5Z"/>
                <g class="mark-rule role-axis-tick" stroke="#888">
                    <path d="M586.5 163.5h-5M586.5 178.5h-5M586.5 193.5h-5M586.5 208.5h-5"/>
                </g>
                <g class="mark-text role-axis-label" text-anchor="end" font-family="sans-serif" font-size="10" fill="#000">
                    <text transform="translate(579.5 166.5)">@sinclair/typebox</text>
                    <text transform="translate(579.5 181.5)">typia</text>
                    <text transform="translate(579.5 196.5)">ts-runtime-checks</text>
                    <text transform="translate(579.5 211.5)">(median)</text>
                </g>
                <path stroke="#888" d="M586.5 156.5v60" class="mark-rule role-axis-domain"/>
            </g>
            <g class="mark-rect role-mark child__Strict_Assertion_marks" aria-roledescription="rect mark container">
                <path aria-label="Strict Assertion: 29633795; name: @sinclair/typebox" aria-roledescription="bar" d="M586 156.75h197.559v13.5H586Z" fill="#f58518"/>
                <path aria-label="Strict Assertion: 27189677; name: typia" aria-roledescription="bar" d="M586 171.75v13.5Z" fill="#eeca3b"/>
                <path aria-label="Strict Assertion: 25144521; name: ts-runtime-checks" aria-roledescription="bar" d="M586 186.75v13.5Z" fill="#54a24b"/>
                <path aria-label="Strict Assertion: 857446; name: (median)" aria-roledescription="bar" d="M586 201.75v13.5Z" fill="#4c78a8"/>
            </g>
        </g>
        <g class="mark-group role-title">
            <path class="background" aria-hidden="true" d="M421.5 5Z" pointer-events="none"/>
            <text text-anchor="middle" transform="translate(421.5 18)" font-family="sans-serif" font-size="16" fill="#000" class="mark-text role-title-text" aria-roledescription="title" aria-label="Title text 'Top 3 packages for each benchmark + median, (ops count, better ⯈)'" pointer-events="none">Top 3 packages for each benchmark + median, (ops count, better ⯈)</text>
        </g>
    </g>
</svg>
