<svg xmlns="http://www.w3.org/2000/svg" class="marks" width="750" height="254">
    <path fill="#fff" d="M0 0h750v254H0z"/>
    <g class="mark-group role-frame root" aria-roledescription="group mark container" fill="none" stroke-miterlimit="10">
        <path class="background" aria-hidden="true" d="M149 42Z"/>
        <g class="mark-group role-scope child__Safe_Parsing_group" aria-roledescription="group mark container">
            <path class="background" aria-hidden="true" d="M149.5 42.5h200v60h-200Z" stroke="#ddd"/>
            <g class="mark-group role-axis" aria-roledescription="axis" aria-label="X-axis for a linear scale with values from 0 to 16,000,000">
                <path class="background" aria-hidden="true" d="M149.5 102.5Z" pointer-events="none"/>
                <g class="mark-rule role-axis-grid" pointer-events="none" stroke="#ddd">
                    <path d="M149.5 102.5v-60M212.5 102.5v-60M274.5 102.5v-60M337.5 102.5v-60"/>
                </g>
            </g>
            <g pointer-events="none" class="mark-group role-axis" aria-roledescription="axis" aria-label="X-axis titled 'Safe Parsing' for a linear scale with values from 0 to 16,000,000">
                <path class="background" aria-hidden="true" d="M149.5 102.5Z"/>
                <g class="mark-rule role-axis-tick" stroke="#888">
                    <path d="M149.5 102.5v5M212.5 102.5v5M274.5 102.5v5M337.5 102.5v5"/>
                </g>
                <g class="mark-text role-axis-label" font-family="sans-serif" font-size="10" fill="#000">
                    <text transform="translate(149.5 117.5)">0</text>
                    <text text-anchor="middle" transform="translate(337 117.5)">15,000,000</text>
                </g>
                <path stroke="#888" d="M149.5 102.5h200" class="mark-rule role-axis-domain"/>
                <text text-anchor="middle" transform="translate(249.5 132.5)" font-family="sans-serif" font-size="11" font-weight="bold" fill="#000" class="mark-text role-axis-title">Safe Parsing</text>
            </g>
            <g pointer-events="none" class="mark-group role-axis" aria-roledescription="axis" aria-label="Y-axis for a discrete scale with 4 values: ... rest, simple-runtypes, spectypes, valita">
                <path class="background" aria-hidden="true" d="M149.5 42.5Z"/>
                <g class="mark-rule role-axis-tick" stroke="#888">
                    <path d="M149.5 49.5h-5M149.5 64.5h-5M149.5 79.5h-5M149.5 94.5h-5"/>
                </g>
                <g class="mark-text role-axis-label" text-anchor="end" font-family="sans-serif" font-size="10" fill="#000">
                    <text transform="translate(142.5 52.5)">... rest</text>
                    <text transform="translate(142.5 67.5)">simple-runtypes</text>
                    <text transform="translate(142.5 82.5)">spectypes</text>
                    <text transform="translate(142.5 97.5)">valita</text>
                </g>
                <path stroke="#888" d="M149.5 42.5v60" class="mark-rule role-axis-domain"/>
            </g>
            <g class="mark-rect role-mark child__Safe_Parsing_marks" aria-roledescription="rect mark container">
                <path d="M149 72.75h195.437v13.5H149Z" fill="#72b7b2"/>
                <path d="M149 87.75h39.857v13.5H149Z" fill="#eeca3b"/>
                <path d="M149 57.75h19.49v13.5H149Z" fill="#e45756"/>
                <path d="M149 42.75h5.773v13.5H149Z" fill="#4c78a8"/>
            </g>
        </g>
        <g class="mark-group role-scope child__Strict_Parsing_group" aria-roledescription="group mark container">
            <path class="background" aria-hidden="true" d="M543.5 42.5h200v60h-200Z" stroke="#ddd"/>
            <g class="mark-group role-axis" aria-roledescription="axis" aria-label="X-axis for a linear scale with values from 0 to 20,000,000">
                <path class="background" aria-hidden="true" d="M543.5 102.5Z" pointer-events="none"/>
                <g class="mark-rule role-axis-grid" pointer-events="none" stroke="#ddd">
                    <path d="M543.5 102.5v-60M593.5 102.5v-60M643.5 102.5v-60M693.5 102.5v-60M743.5 102.5v-60"/>
                </g>
            </g>
            <g pointer-events="none" class="mark-group role-axis" aria-roledescription="axis" aria-label="X-axis titled 'Strict Parsing' for a linear scale with values from 0 to 20,000,000">
                <path class="background" aria-hidden="true" d="M543.5 102.5Z"/>
                <g class="mark-rule role-axis-tick" stroke="#888">
                    <path d="M543.5 102.5v5M593.5 102.5v5M643.5 102.5v5M693.5 102.5v5M743.5 102.5v5"/>
                </g>
                <g class="mark-text role-axis-label" font-family="sans-serif" font-size="10" fill="#000">
                    <text transform="translate(543.5 117.5)">0</text>
                    <text text-anchor="end" transform="translate(743.5 117.5)">20,000,000</text>
                </g>
                <path stroke="#888" d="M543.5 102.5h200" class="mark-rule role-axis-domain"/>
                <text text-anchor="middle" transform="translate(643.5 132.5)" font-family="sans-serif" font-size="11" font-weight="bold" fill="#000" class="mark-text role-axis-title">Strict Parsing</text>
            </g>
            <g pointer-events="none" class="mark-group role-axis" aria-roledescription="axis" aria-label="Y-axis for a discrete scale with 4 values: ... rest, simple-runtypes, spectypes, valita">
                <path class="background" aria-hidden="true" d="M543.5 42.5Z"/>
                <g class="mark-rule role-axis-tick" stroke="#888">
                    <path d="M543.5 49.5h-5M543.5 64.5h-5M543.5 79.5h-5M543.5 94.5h-5"/>
                </g>
                <g class="mark-text role-axis-label" text-anchor="end" font-family="sans-serif" font-size="10" fill="#000">
                    <text transform="translate(536.5 52.5)">... rest</text>
                    <text transform="translate(536.5 67.5)">simple-runtypes</text>
                    <text transform="translate(536.5 82.5)">spectypes</text>
                    <text transform="translate(536.5 97.5)">valita</text>
                </g>
                <path stroke="#888" d="M543.5 42.5v60" class="mark-rule role-axis-domain"/>
            </g>
            <g class="mark-rect role-mark child__Strict_Parsing_marks" aria-roledescription="rect mark container">
                <path d="M543 72.75h186.273v13.5H543Z" fill="#72b7b2"/>
                <path d="M543 87.75h32.524v13.5H543Z" fill="#eeca3b"/>
                <path d="M543 57.75h22.61v13.5H543Z" fill="#e45756"/>
                <path d="M543 42.75h5.23v13.5H543Z" fill="#4c78a8"/>
            </g>
        </g>
        <g class="mark-group role-scope child__Loose_Assertion_group" aria-roledescription="group mark container">
            <path class="background" aria-hidden="true" d="M149.5 156.5h200v60h-200Z" stroke="#ddd"/>
            <g class="mark-group role-axis" aria-roledescription="axis" aria-label="X-axis for a linear scale with values from 0 to 130,000,000">
                <path class="background" aria-hidden="true" d="M149.5 216.5Z" pointer-events="none"/>
                <g class="mark-rule role-axis-grid" pointer-events="none" stroke="#ddd">
                    <path d="M149.5 216.5v-60M180.5 216.5v-60M211.5 216.5v-60M241.5 216.5v-60M272.5 216.5v-60M303.5 216.5v-60M334.5 216.5v-60"/>
                </g>
            </g>
            <g pointer-events="none" class="mark-group role-axis" aria-roledescription="axis" aria-label="X-axis titled 'Loose Assertion' for a linear scale with values from 0 to 130,000,000">
                <path class="background" aria-hidden="true" d="M149.5 216.5Z"/>
                <g class="mark-rule role-axis-tick" stroke="#888">
                    <path d="M149.5 216.5v5M180.5 216.5v5M211.5 216.5v5M241.5 216.5v5M272.5 216.5v5M303.5 216.5v5M334.5 216.5v5"/>
                </g>
                <g class="mark-text role-axis-label" font-family="sans-serif" font-size="10" fill="#000">
                    <text transform="translate(149.5 231.5)">0</text>
                    <text text-anchor="middle" transform="translate(334.115 231.5)">120,000,000</text>
                </g>
                <path stroke="#888" d="M149.5 216.5h200" class="mark-rule role-axis-domain"/>
                <text text-anchor="middle" transform="translate(249.5 246.5)" font-family="sans-serif" font-size="11" font-weight="bold" fill="#000" class="mark-text role-axis-title">Loose Assertion</text>
            </g>
            <g pointer-events="none" class="mark-group role-axis" aria-roledescription="axis" aria-label="Y-axis for a discrete scale with 4 values: ... rest, @sinclair/typebox, spectypes, ts-runtime-checks">
                <path class="background" aria-hidden="true" d="M149.5 156.5Z"/>
                <g class="mark-rule role-axis-tick" stroke="#888">
                    <path d="M149.5 163.5h-5M149.5 178.5h-5M149.5 193.5h-5M149.5 208.5h-5"/>
                </g>
                <g class="mark-text role-axis-label" text-anchor="end" font-family="sans-serif" font-size="10" fill="#000">
                    <text transform="translate(142.5 166.5)">... rest</text>
                    <text transform="translate(142.5 181.5)">@sinclair/typebox</text>
                    <text transform="translate(142.5 196.5)">spectypes</text>
                    <text transform="translate(142.5 211.5)">ts-runtime-checks</text>
                </g>
                <path stroke="#888" d="M149.5 156.5v60" class="mark-rule role-axis-domain"/>
            </g>
            <g class="mark-rect role-mark child__Loose_Assertion_marks" aria-roledescription="rect mark container">
                <path d="M149 201.75h188.045v13.5H149Z" fill="#54a24b"/>
                <path d="M149 186.75h132.821v13.5H149Z" fill="#72b7b2"/>
                <path d="M149 171.75h109.482v13.5H149Z" fill="#f58518"/>
                <path d="M149 156.75h1.063v13.5H149Z" fill="#4c78a8"/>
            </g>
        </g>
        <g class="mark-group role-scope child__Strict_Assertion_group" aria-roledescription="group mark container">
            <path class="background" aria-hidden="true" d="M543.5 156.5h200v60h-200Z" stroke="#ddd"/>
            <g class="mark-group role-axis" aria-roledescription="axis" aria-label="X-axis for a linear scale with values from 0 to 20,000,000">
                <path class="background" aria-hidden="true" d="M543.5 216.5Z" pointer-events="none"/>
                <g class="mark-rule role-axis-grid" pointer-events="none" stroke="#ddd">
                    <path d="M543.5 216.5v-60M593.5 216.5v-60M643.5 216.5v-60M693.5 216.5v-60M743.5 216.5v-60"/>
                </g>
            </g>
            <g pointer-events="none" class="mark-group role-axis" aria-roledescription="axis" aria-label="X-axis titled 'Strict Assertion' for a linear scale with values from 0 to 20,000,000">
                <path class="background" aria-hidden="true" d="M543.5 216.5Z"/>
                <g class="mark-rule role-axis-tick" stroke="#888">
                    <path d="M543.5 216.5v5M593.5 216.5v5M643.5 216.5v5M693.5 216.5v5M743.5 216.5v5"/>
                </g>
                <g class="mark-text role-axis-label" font-family="sans-serif" font-size="10" fill="#000">
                    <text transform="translate(543.5 231.5)">0</text>
                    <text text-anchor="end" transform="translate(743.5 231.5)">20,000,000</text>
                </g>
                <path stroke="#888" d="M543.5 216.5h200" class="mark-rule role-axis-domain"/>
                <text text-anchor="middle" transform="translate(643.5 246.5)" font-family="sans-serif" font-size="11" font-weight="bold" fill="#000" class="mark-text role-axis-title">Strict Assertion</text>
            </g>
            <g pointer-events="none" class="mark-group role-axis" aria-roledescription="axis" aria-label="Y-axis for a discrete scale with 4 values: ... rest, @sinclair/typebox, spectypes, valita">
                <path class="background" aria-hidden="true" d="M543.5 156.5Z"/>
                <g class="mark-rule role-axis-tick" stroke="#888">
                    <path d="M543.5 163.5h-5M543.5 178.5h-5M543.5 193.5h-5M543.5 208.5h-5"/>
                </g>
                <g class="mark-text role-axis-label" text-anchor="end" font-family="sans-serif" font-size="10" fill="#000">
                    <text transform="translate(536.5 166.5)">... rest</text>
                    <text transform="translate(536.5 181.5)">@sinclair/typebox</text>
                    <text transform="translate(536.5 196.5)">spectypes</text>
                    <text transform="translate(536.5 211.5)">valita</text>
                </g>
                <path stroke="#888" d="M543.5 156.5v60" class="mark-rule role-axis-domain"/>
            </g>
            <g class="mark-rect role-mark child__Strict_Assertion_marks" aria-roledescription="rect mark container">
                <path d="M543 171.75h193.713v13.5H543Z" fill="#f58518"/>
                <path d="M543 186.75h176.31v13.5H543Z" fill="#72b7b2"/>
                <path d="M543 201.75h32.125v13.5H543Z" fill="#eeca3b"/>
                <path d="M543 156.75h4.934v13.5H543Z" fill="#4c78a8"/>
            </g>
        </g>
        <g class="mark-group role-title">
            <path class="background" aria-hidden="true" d="M375 5Z" pointer-events="none"/>
            <text text-anchor="middle" transform="translate(375 18)" font-family="sans-serif" font-size="16" fill="#000" class="mark-text role-title-text" aria-roledescription="title" aria-label="Title text 'Top 3 packages for each benchmark'" pointer-events="none">Top 3 packages for each benchmark</text>
        </g>
    </g>
</svg>
