<svg xmlns="http://www.w3.org/2000/svg" class="marks" width="866" height="254">
    <path fill="#fff" d="M0 0h866v254H0z"/>
    <g class="mark-group role-frame root" aria-roledescription="group mark container" fill="none" stroke-miterlimit="10">
        <path class="background" aria-hidden="true" d="M189 42Z"/>
        <g class="mark-group role-scope child__Safe_Parsing_group" aria-roledescription="group mark container">
            <path class="background" aria-hidden="true" d="M189.5 42.5h200v60h-200Z" stroke="#ddd"/>
            <g class="mark-group role-axis" aria-hidden="true">
                <path class="background" aria-hidden="true" d="M189.5 102.5Z" pointer-events="none"/>
                <g class="mark-rule role-axis-grid" pointer-events="none" stroke="#ddd">
                    <path d="M189.5 102.5v-60M218.5 102.5v-60M246.5 102.5v-60M275.5 102.5v-60M303.5 102.5v-60M332.5 102.5v-60M360.5 102.5v-60M389.5 102.5v-60"/>
                </g>
            </g>
            <g pointer-events="none" class="mark-group role-axis" aria-roledescription="axis" aria-label="X-axis titled 'Safe Parsing' for a linear scale with values from 0 to 35,000,000">
                <path class="background" aria-hidden="true" d="M189.5 102.5Z"/>
                <g class="mark-rule role-axis-tick" stroke="#888">
                    <path d="M189.5 102.5v5M218.5 102.5v5M246.5 102.5v5M275.5 102.5v5M303.5 102.5v5M332.5 102.5v5M360.5 102.5v5M389.5 102.5v5"/>
                </g>
                <g class="mark-text role-axis-label" font-family="sans-serif" font-size="10" fill="#000">
                    <text transform="translate(189.5 117.5)">0</text>
                    <text text-anchor="end" transform="translate(389.5 117.5)">35,000,000</text>
                </g>
                <path stroke="#888" d="M189.5 102.5h200" class="mark-rule role-axis-domain"/>
                <text text-anchor="middle" transform="translate(289.5 132.5)" font-family="sans-serif" font-size="11" font-weight="bold" fill="#000" class="mark-text role-axis-title">Safe Parsing</text>
            </g>
            <g pointer-events="none" class="mark-group role-axis" aria-roledescription="axis" aria-label="Y-axis for a discrete scale with 4 values: typia, spectypes, rescript-struct, (median)">
                <path class="background" aria-hidden="true" d="M189.5 42.5Z"/>
                <g class="mark-rule role-axis-tick" stroke="#888">
                    <path d="M189.5 49.5h-5M189.5 64.5h-5M189.5 79.5h-5M189.5 94.5h-5"/>
                </g>
                <g class="mark-text role-axis-label" text-anchor="end" font-family="sans-serif" font-size="10" fill="#000">
                    <text transform="translate(182.5 52.5)">typia</text>
                    <text transform="translate(182.5 67.5)">spectypes</text>
                    <text transform="translate(182.5 82.5)">rescript-struct</text>
                    <text transform="translate(182.5 97.5)">(median)</text>
                </g>
                <path stroke="#888" d="M189.5 42.5v60" class="mark-rule role-axis-domain"/>
            </g>
            <g class="mark-rect role-mark child__Safe_Parsing_marks" aria-roledescription="rect mark container">
                <path aria-label="Safe Parsing: 31174449; name: typia" aria-roledescription="bar" d="M189 42.75h178.14v13.5H189Z" fill="#b279a2"/>
                <path aria-label="Safe Parsing: 21042494; name: spectypes" aria-roledescription="bar" d="M189 57.75h120.243v13.5H189Z" fill="#54a24b"/>
                <path aria-label="Safe Parsing: 13091352; name: rescript-struct" aria-roledescription="bar" d="M189 72.75h74.808v13.5H189Z" fill="#72b7b2"/>
                <path aria-label="Safe Parsing: 891856; name: (median)" aria-roledescription="bar" d="M189 87.75h5.096v13.5H189Z" fill="#4c78a8"/>
            </g>
        </g>
        <g class="mark-group role-scope child__Strict_Parsing_group" aria-roledescription="group mark container">
            <path class="background" aria-hidden="true" d="M627.5 42.5h200v60h-200Z" stroke="#ddd"/>
            <g class="mark-group role-axis" aria-hidden="true">
                <path class="background" aria-hidden="true" d="M627.5 102.5Z" pointer-events="none"/>
                <g class="mark-rule role-axis-grid" pointer-events="none" stroke="#ddd">
                    <path d="M627.5 102.5v-60M669.5 102.5v-60M710.5 102.5v-60M752.5 102.5v-60M794.5 102.5v-60"/>
                </g>
            </g>
            <g pointer-events="none" class="mark-group role-axis" aria-roledescription="axis" aria-label="X-axis titled 'Strict Parsing' for a linear scale with values from 0 to 24,000,000">
                <path class="background" aria-hidden="true" d="M627.5 102.5Z"/>
                <g class="mark-rule role-axis-tick" stroke="#888">
                    <path d="M627.5 102.5v5M669.5 102.5v5M710.5 102.5v5M752.5 102.5v5M794.5 102.5v5"/>
                </g>
                <g class="mark-text role-axis-label" font-family="sans-serif" font-size="10" fill="#000">
                    <text transform="translate(627.5 117.5)">0</text>
                    <text text-anchor="middle" transform="translate(710.833 117.5)">10,000,000</text>
                    <text text-anchor="middle" transform="translate(794.167 117.5)">20,000,000</text>
                </g>
                <path stroke="#888" d="M627.5 102.5h200" class="mark-rule role-axis-domain"/>
                <text text-anchor="middle" transform="translate(727.5 132.5)" font-family="sans-serif" font-size="11" font-weight="bold" fill="#000" class="mark-text role-axis-title">Strict Parsing</text>
            </g>
            <g pointer-events="none" class="mark-group role-axis" aria-roledescription="axis" aria-label="Y-axis for a discrete scale with 4 values: ts-runtime-checks, typia, spectypes, (median)">
                <path class="background" aria-hidden="true" d="M627.5 42.5Z"/>
                <g class="mark-rule role-axis-tick" stroke="#888">
                    <path d="M627.5 49.5h-5M627.5 64.5h-5M627.5 79.5h-5M627.5 94.5h-5"/>
                </g>
                <g class="mark-text role-axis-label" text-anchor="end" font-family="sans-serif" font-size="10" fill="#000">
                    <text transform="translate(620.5 52.5)">ts-runtime-checks</text>
                    <text transform="translate(620.5 67.5)">typia</text>
                    <text transform="translate(620.5 82.5)">spectypes</text>
                    <text transform="translate(620.5 97.5)">(median)</text>
                </g>
                <path stroke="#888" d="M627.5 42.5v60" class="mark-rule role-axis-domain"/>
            </g>
            <g class="mark-rect role-mark child__Strict_Parsing_marks" aria-roledescription="rect mark container">
                <path aria-label="Strict Parsing: 20709879; name: ts-runtime-checks" aria-roledescription="bar" d="M627 42.75h172.582v13.5H627Z" fill="#eeca3b"/>
                <path aria-label="Strict Parsing: 22144516; name: typia" aria-roledescription="bar" d="M627 57.75h184.538v13.5H627Z" fill="#b279a2"/>
                <path aria-label="Strict Parsing: 17598267; name: spectypes" aria-roledescription="bar" d="M627 72.75h146.652v13.5H627Z" fill="#54a24b"/>
                <path aria-label="Strict Parsing: 911602; name: (median)" aria-roledescription="bar" d="M627 87.75h7.597v13.5H627Z" fill="#4c78a8"/>
            </g>
        </g>
        <g class="mark-group role-scope child__Loose_Assertion_group" aria-roledescription="group mark container">
            <path class="background" aria-hidden="true" d="M189.5 156.5h200v60h-200Z" stroke="#ddd"/>
            <g class="mark-group role-axis" aria-hidden="true">
                <path class="background" aria-hidden="true" d="M189.5 216.5Z" pointer-events="none"/>
                <g class="mark-rule role-axis-grid" pointer-events="none" stroke="#ddd">
                    <path d="M189.5 216.5v-60M229.5 216.5v-60M269.5 216.5v-60M309.5 216.5v-60M349.5 216.5v-60M389.5 216.5v-60"/>
                </g>
            </g>
            <g pointer-events="none" class="mark-group role-axis" aria-roledescription="axis" aria-label="X-axis titled 'Loose Assertion' for a linear scale with values from 0 to 100,000,000">
                <path class="background" aria-hidden="true" d="M189.5 216.5Z"/>
                <g class="mark-rule role-axis-tick" stroke="#888">
                    <path d="M189.5 216.5v5M229.5 216.5v5M269.5 216.5v5M309.5 216.5v5M349.5 216.5v5M389.5 216.5v5"/>
                </g>
                <g class="mark-text role-axis-label" font-family="sans-serif" font-size="10" fill="#000">
                    <text transform="translate(189.5 231.5)">0</text>
                    <text text-anchor="middle" transform="translate(269.5 231.5)">40,000,000</text>
                    <text text-anchor="middle" transform="translate(349.5 231.5)">80,000,000</text>
                </g>
                <path stroke="#888" d="M189.5 216.5h200" class="mark-rule role-axis-domain"/>
                <text text-anchor="middle" transform="translate(289.5 246.5)" font-family="sans-serif" font-size="11" font-weight="bold" fill="#000" class="mark-text role-axis-title">Loose Assertion</text>
            </g>
            <g pointer-events="none" class="mark-group role-axis" aria-roledescription="axis" aria-label="Y-axis for a discrete scale with 4 values: ts-runtime-checks, @sinclair/typebox-(ahead-of-time), typia, (median)">
                <path class="background" aria-hidden="true" d="M189.5 156.5Z"/>
                <g class="mark-rule role-axis-tick" stroke="#888">
                    <path d="M189.5 163.5h-5M189.5 178.5h-5M189.5 193.5h-5M189.5 208.5h-5"/>
                </g>
                <g class="mark-text role-axis-label" text-anchor="end" font-family="sans-serif" font-size="10" fill="#000">
                    <text transform="translate(182.5 166.5)">ts-runtime-checks</text>
                    <text transform="translate(182.5 181.5)">@sinclair/typebox-(ah…</text>
                    <text transform="translate(182.5 196.5)">typia</text>
                    <text transform="translate(182.5 211.5)">(median)</text>
                </g>
                <path stroke="#888" d="M189.5 156.5v60" class="mark-rule role-axis-domain"/>
            </g>
            <g class="mark-rect role-mark child__Loose_Assertion_marks" aria-roledescription="rect mark container">
                <path aria-label="Loose Assertion: 95037332; name: ts-runtime-checks" aria-roledescription="bar" d="M189 156.75h190.075v13.5H189Z" fill="#eeca3b"/>
                <path aria-label="Loose Assertion: 86953395; name: @sinclair/typebox-(ahead-of-time)" aria-roledescription="bar" d="M189 171.75h173.907v13.5H189Z" fill="#f58518"/>
                <path aria-label="Loose Assertion: 73486525; name: typia" aria-roledescription="bar" d="M189 186.75h146.973v13.5H189Z" fill="#b279a2"/>
                <path aria-label="Loose Assertion: 1114610; name: (median)" aria-roledescription="bar" d="M189 201.75h2.23v13.5H189Z" fill="#4c78a8"/>
            </g>
        </g>
        <g class="mark-group role-scope child__Strict_Assertion_group" aria-roledescription="group mark container">
            <path class="background" aria-hidden="true" d="M627.5 156.5h200v60h-200Z" stroke="#ddd"/>
            <g class="mark-group role-axis" aria-hidden="true">
                <path class="background" aria-hidden="true" d="M627.5 216.5Z" pointer-events="none"/>
                <g class="mark-rule role-axis-grid" pointer-events="none" stroke="#ddd">
                    <path d="M627.5 216.5v-60M665.5 216.5v-60M704.5 216.5v-60M742.5 216.5v-60M781.5 216.5v-60M819.5 216.5v-60"/>
                </g>
            </g>
            <g pointer-events="none" class="mark-group role-axis" aria-roledescription="axis" aria-label="X-axis titled 'Strict Assertion' for a linear scale with values from 0 to 26,000,000">
                <path class="background" aria-hidden="true" d="M627.5 216.5Z"/>
                <g class="mark-rule role-axis-tick" stroke="#888">
                    <path d="M627.5 216.5v5M665.5 216.5v5M704.5 216.5v5M742.5 216.5v5M781.5 216.5v5M819.5 216.5v5"/>
                </g>
                <g class="mark-text role-axis-label" font-family="sans-serif" font-size="10" fill="#000">
                    <text transform="translate(627.5 231.5)">0</text>
                    <text text-anchor="middle" transform="translate(819.808 231.5)">25,000,000</text>
                </g>
                <path stroke="#888" d="M627.5 216.5h200" class="mark-rule role-axis-domain"/>
                <text text-anchor="middle" transform="translate(727.5 246.5)" font-family="sans-serif" font-size="11" font-weight="bold" fill="#000" class="mark-text role-axis-title">Strict Assertion</text>
            </g>
            <g pointer-events="none" class="mark-group role-axis" aria-roledescription="axis" aria-label="Y-axis for a discrete scale with 4 values: ts-runtime-checks, @sinclair/typebox-(ahead-of-time), @sinclair/typebox-(just-in-time), (median)">
                <path class="background" aria-hidden="true" d="M627.5 156.5Z"/>
                <g class="mark-rule role-axis-tick" stroke="#888">
                    <path d="M627.5 163.5h-5M627.5 178.5h-5M627.5 193.5h-5M627.5 208.5h-5"/>
                </g>
                <g class="mark-text role-axis-label" text-anchor="end" font-family="sans-serif" font-size="10" fill="#000">
                    <text transform="translate(620.5 166.5)">ts-runtime-checks</text>
                    <text transform="translate(620.5 181.5)">@sinclair/typebox-(ah…</text>
                    <text transform="translate(620.5 196.5)">@sinclair/typebox-(ju…</text>
                    <text transform="translate(620.5 211.5)">(median)</text>
                </g>
                <path stroke="#888" d="M627.5 156.5v60" class="mark-rule role-axis-domain"/>
            </g>
            <g class="mark-rect role-mark child__Strict_Assertion_marks" aria-roledescription="rect mark container">
                <path aria-label="Strict Assertion: 20949019; name: ts-runtime-checks" aria-roledescription="bar" d="M627 156.75h161.146v13.5H627Z" fill="#eeca3b"/>
                <path aria-label="Strict Assertion: 24439507; name: @sinclair/typebox-(ahead-of-time)" aria-roledescription="bar" d="M627 171.75h187.996v13.5H627Z" fill="#f58518"/>
                <path aria-label="Strict Assertion: 22454459; name: @sinclair/typebox-(just-in-time)" aria-roledescription="bar" d="M627 186.75h172.727v13.5H627Z" fill="#e45756"/>
                <path aria-label="Strict Assertion: 840887; name: (median)" aria-roledescription="bar" d="M627 201.75h6.468v13.5H627Z" fill="#4c78a8"/>
            </g>
        </g>
        <g class="mark-group role-title">
            <path class="background" aria-hidden="true" d="M432.654 5Z" pointer-events="none"/>
            <text text-anchor="middle" transform="translate(432.654 18)" font-family="sans-serif" font-size="16" fill="#000" class="mark-text role-title-text" aria-roledescription="title" aria-label="Title text 'Top 3 packages for each benchmark + median, (ops count, better ⯈)'" pointer-events="none">Top 3 packages for each benchmark + median, (ops count, better ⯈)</text>
        </g>
    </g>
</svg>
