<svg xmlns="http://www.w3.org/2000/svg" class="marks" width="843" height="254">
    <path fill="#fff" d="M0 0h843v254H0z"/>
    <g class="mark-group role-frame root" aria-roledescription="group mark container" fill="none" stroke-miterlimit="10">
        <path class="background" aria-hidden="true" d="M191 42Z"/>
        <g class="mark-group role-scope child__Safe_Parsing_group" aria-roledescription="group mark container">
            <path class="background" aria-hidden="true" d="M191.5 42.5h200v60h-200Z" stroke="#ddd"/>
            <g class="mark-group role-axis" aria-hidden="true">
                <path class="background" aria-hidden="true" d="M191.5 102.5Z" pointer-events="none"/>
                <g class="mark-rule role-axis-grid" pointer-events="none" stroke="#ddd">
                    <path d="M191.5 102.5v-60M229.5 102.5v-60M268.5 102.5v-60M306.5 102.5v-60M345.5 102.5v-60M383.5 102.5v-60"/>
                </g>
            </g>
            <g pointer-events="none" class="mark-group role-axis" aria-roledescription="axis" aria-label="X-axis titled 'Safe Parsing' for a linear scale with values from 0 to 26,000,000">
                <path class="background" aria-hidden="true" d="M191.5 102.5Z"/>
                <g class="mark-rule role-axis-tick" stroke="#888">
                    <path d="M191.5 102.5v5M229.5 102.5v5M268.5 102.5v5M306.5 102.5v5M345.5 102.5v5M383.5 102.5v5"/>
                </g>
                <g class="mark-text role-axis-label" font-family="sans-serif" font-size="10" fill="#000">
                    <text transform="translate(191.5 117.5)">0</text>
                    <text text-anchor="middle" transform="translate(383.808 117.5)">25,000,000</text>
                </g>
                <path stroke="#888" d="M191.5 102.5h200" class="mark-rule role-axis-domain"/>
                <text text-anchor="middle" transform="translate(291.5 132.5)" font-family="sans-serif" font-size="11" font-weight="bold" fill="#000" class="mark-text role-axis-title">Safe Parsing</text>
            </g>
            <g pointer-events="none" class="mark-group role-axis" aria-roledescription="axis" aria-label="Y-axis for a discrete scale with 4 values: typia, spectypes, rescript-struct, (median)">
                <path class="background" aria-hidden="true" d="M191.5 42.5Z"/>
                <g class="mark-rule role-axis-tick" stroke="#888">
                    <path d="M191.5 49.5h-5M191.5 64.5h-5M191.5 79.5h-5M191.5 94.5h-5"/>
                </g>
                <g class="mark-text role-axis-label" text-anchor="end" font-family="sans-serif" font-size="10" fill="#000">
                    <text transform="translate(184.5 52.5)">typia</text>
                    <text transform="translate(184.5 67.5)">spectypes</text>
                    <text transform="translate(184.5 82.5)">rescript-struct</text>
                    <text transform="translate(184.5 97.5)">(median)</text>
                </g>
                <path stroke="#888" d="M191.5 42.5v60" class="mark-rule role-axis-domain"/>
            </g>
            <g class="mark-rect role-mark child__Safe_Parsing_marks" aria-roledescription="rect mark container">
                <path aria-label="Safe Parsing: 24903237; name: typia" aria-roledescription="bar" d="M191 42.75h191.563v13.5H191Z" fill="#b279a2"/>
                <path aria-label="Safe Parsing: 17189594; name: spectypes" aria-roledescription="bar" d="M191 57.75h132.228v13.5H191Z" fill="#54a24b"/>
                <path aria-label="Safe Parsing: 10052662; name: rescript-struct" aria-roledescription="bar" d="M191 72.75h77.328v13.5H191Z" fill="#72b7b2"/>
                <path aria-label="Safe Parsing: 716218; name: (median)" aria-roledescription="bar" d="M191 87.75h5.51v13.5H191Z" fill="#4c78a8"/>
            </g>
        </g>
        <g class="mark-group role-scope child__Strict_Parsing_group" aria-roledescription="group mark container">
            <path class="background" aria-hidden="true" d="M629.5 42.5h200v60h-200Z" stroke="#ddd"/>
            <g class="mark-group role-axis" aria-hidden="true">
                <path class="background" aria-hidden="true" d="M629.5 102.5Z" pointer-events="none"/>
                <g class="mark-rule role-axis-grid" pointer-events="none" stroke="#ddd">
                    <path d="M629.5 102.5v-60M685.5 102.5v-60M740.5 102.5v-60M796.5 102.5v-60"/>
                </g>
            </g>
            <g pointer-events="none" class="mark-group role-axis" aria-roledescription="axis" aria-label="X-axis titled 'Strict Parsing' for a linear scale with values from 0 to 18,000,000">
                <path class="background" aria-hidden="true" d="M629.5 102.5Z"/>
                <g class="mark-rule role-axis-tick" stroke="#888">
                    <path d="M629.5 102.5v5M685.5 102.5v5M740.5 102.5v5M796.5 102.5v5"/>
                </g>
                <g class="mark-text role-axis-label" font-family="sans-serif" font-size="10" fill="#000">
                    <text transform="translate(629.5 117.5)">0</text>
                    <text text-anchor="middle" transform="translate(796.167 117.5)">15,000,000</text>
                </g>
                <path stroke="#888" d="M629.5 102.5h200" class="mark-rule role-axis-domain"/>
                <text text-anchor="middle" transform="translate(729.5 132.5)" font-family="sans-serif" font-size="11" font-weight="bold" fill="#000" class="mark-text role-axis-title">Strict Parsing</text>
            </g>
            <g pointer-events="none" class="mark-group role-axis" aria-roledescription="axis" aria-label="Y-axis for a discrete scale with 4 values: ts-runtime-checks, typia, spectypes, (median)">
                <path class="background" aria-hidden="true" d="M629.5 42.5Z"/>
                <g class="mark-rule role-axis-tick" stroke="#888">
                    <path d="M629.5 49.5h-5M629.5 64.5h-5M629.5 79.5h-5M629.5 94.5h-5"/>
                </g>
                <g class="mark-text role-axis-label" text-anchor="end" font-family="sans-serif" font-size="10" fill="#000">
                    <text transform="translate(622.5 52.5)">ts-runtime-checks</text>
                    <text transform="translate(622.5 67.5)">typia</text>
                    <text transform="translate(622.5 82.5)">spectypes</text>
                    <text transform="translate(622.5 97.5)">(median)</text>
                </g>
                <path stroke="#888" d="M629.5 42.5v60" class="mark-rule role-axis-domain"/>
            </g>
            <g class="mark-rect role-mark child__Strict_Parsing_marks" aria-roledescription="rect mark container">
                <path aria-label="Strict Parsing: 16548872; name: ts-runtime-checks" aria-roledescription="bar" d="M629 42.75h183.876v13.5H629Z" fill="#eeca3b"/>
                <path aria-label="Strict Parsing: 17648726; name: typia" aria-roledescription="bar" d="M629 57.75h196.097v13.5H629Z" fill="#b279a2"/>
                <path aria-label="Strict Parsing: 14047724; name: spectypes" aria-roledescription="bar" d="M629 72.75h156.086v13.5H629Z" fill="#54a24b"/>
                <path aria-label="Strict Parsing: 569052; name: (median)" aria-roledescription="bar" d="M629 87.75h6.323v13.5H629Z" fill="#4c78a8"/>
            </g>
        </g>
        <g class="mark-group role-scope child__Loose_Assertion_group" aria-roledescription="group mark container">
            <path class="background" aria-hidden="true" d="M191.5 156.5h200v60h-200Z" stroke="#ddd"/>
            <g class="mark-group role-axis" aria-hidden="true">
                <path class="background" aria-hidden="true" d="M191.5 216.5Z" pointer-events="none"/>
                <g class="mark-rule role-axis-grid" pointer-events="none" stroke="#ddd">
                    <path d="M191.5 216.5v-60M241.5 216.5v-60M291.5 216.5v-60M341.5 216.5v-60M391.5 216.5v-60"/>
                </g>
            </g>
            <g pointer-events="none" class="mark-group role-axis" aria-roledescription="axis" aria-label="X-axis titled 'Loose Assertion' for a linear scale with values from 0 to 80,000,000">
                <path class="background" aria-hidden="true" d="M191.5 216.5Z"/>
                <g class="mark-rule role-axis-tick" stroke="#888">
                    <path d="M191.5 216.5v5M241.5 216.5v5M291.5 216.5v5M341.5 216.5v5M391.5 216.5v5"/>
                </g>
                <g class="mark-text role-axis-label" font-family="sans-serif" font-size="10" fill="#000">
                    <text transform="translate(191.5 231.5)">0</text>
                    <text text-anchor="end" transform="translate(391.5 231.5)">80,000,000</text>
                </g>
                <path stroke="#888" d="M191.5 216.5h200" class="mark-rule role-axis-domain"/>
                <text text-anchor="middle" transform="translate(291.5 246.5)" font-family="sans-serif" font-size="11" font-weight="bold" fill="#000" class="mark-text role-axis-title">Loose Assertion</text>
            </g>
            <g pointer-events="none" class="mark-group role-axis" aria-roledescription="axis" aria-label="Y-axis for a discrete scale with 4 values: ts-runtime-checks, @sinclair/typebox-(ahead-of-time), typia, (median)">
                <path class="background" aria-hidden="true" d="M191.5 156.5Z"/>
                <g class="mark-rule role-axis-tick" stroke="#888">
                    <path d="M191.5 163.5h-5M191.5 178.5h-5M191.5 193.5h-5M191.5 208.5h-5"/>
                </g>
                <g class="mark-text role-axis-label" text-anchor="end" font-family="sans-serif" font-size="10" fill="#000">
                    <text transform="translate(184.5 166.5)">ts-runtime-checks</text>
                    <text transform="translate(184.5 181.5)">@sinclair/typebox-(ah…</text>
                    <text transform="translate(184.5 196.5)">typia</text>
                    <text transform="translate(184.5 211.5)">(median)</text>
                </g>
                <path stroke="#888" d="M191.5 156.5v60" class="mark-rule role-axis-domain"/>
            </g>
            <g class="mark-rect role-mark child__Loose_Assertion_marks" aria-roledescription="rect mark container">
                <path aria-label="Loose Assertion: 74231993; name: ts-runtime-checks" aria-roledescription="bar" d="M191 156.75h185.58v13.5H191Z" fill="#eeca3b"/>
                <path aria-label="Loose Assertion: 68304063; name: @sinclair/typebox-(ahead-of-time)" aria-roledescription="bar" d="M191 171.75h170.76v13.5H191Z" fill="#f58518"/>
                <path aria-label="Loose Assertion: 57709071; name: typia" aria-roledescription="bar" d="M191 186.75h144.273v13.5H191Z" fill="#b279a2"/>
                <path aria-label="Loose Assertion: 879184; name: (median)" aria-roledescription="bar" d="M191 201.75h2.198v13.5H191Z" fill="#4c78a8"/>
            </g>
        </g>
        <g class="mark-group role-scope child__Strict_Assertion_group" aria-roledescription="group mark container">
            <path class="background" aria-hidden="true" d="M629.5 156.5h200v60h-200Z" stroke="#ddd"/>
            <g class="mark-group role-axis" aria-hidden="true">
                <path class="background" aria-hidden="true" d="M629.5 216.5Z" pointer-events="none"/>
                <g class="mark-rule role-axis-grid" pointer-events="none" stroke="#ddd">
                    <path d="M629.5 216.5v-60M679.5 216.5v-60M729.5 216.5v-60M779.5 216.5v-60M829.5 216.5v-60"/>
                </g>
            </g>
            <g pointer-events="none" class="mark-group role-axis" aria-roledescription="axis" aria-label="X-axis titled 'Strict Assertion' for a linear scale with values from 0 to 20,000,000">
                <path class="background" aria-hidden="true" d="M629.5 216.5Z"/>
                <g class="mark-rule role-axis-tick" stroke="#888">
                    <path d="M629.5 216.5v5M679.5 216.5v5M729.5 216.5v5M779.5 216.5v5M829.5 216.5v5"/>
                </g>
                <g class="mark-text role-axis-label" font-family="sans-serif" font-size="10" fill="#000">
                    <text transform="translate(629.5 231.5)">0</text>
                    <text text-anchor="end" transform="translate(829.5 231.5)">20,000,000</text>
                </g>
                <path stroke="#888" d="M629.5 216.5h200" class="mark-rule role-axis-domain"/>
                <text text-anchor="middle" transform="translate(729.5 246.5)" font-family="sans-serif" font-size="11" font-weight="bold" fill="#000" class="mark-text role-axis-title">Strict Assertion</text>
            </g>
            <g pointer-events="none" class="mark-group role-axis" aria-roledescription="axis" aria-label="Y-axis for a discrete scale with 4 values: @sinclair/typebox-(ahead-of-time), typia, @sinclair/typebox-(just-in-time), (median)">
                <path class="background" aria-hidden="true" d="M629.5 156.5Z"/>
                <g class="mark-rule role-axis-tick" stroke="#888">
                    <path d="M629.5 163.5h-5M629.5 178.5h-5M629.5 193.5h-5M629.5 208.5h-5"/>
                </g>
                <g class="mark-text role-axis-label" text-anchor="end" font-family="sans-serif" font-size="10" fill="#000">
                    <text transform="translate(622.5 166.5)">@sinclair/typebox-(ah…</text>
                    <text transform="translate(622.5 181.5)">typia</text>
                    <text transform="translate(622.5 196.5)">@sinclair/typebox-(ju…</text>
                    <text transform="translate(622.5 211.5)">(median)</text>
                </g>
                <path stroke="#888" d="M629.5 156.5v60" class="mark-rule role-axis-domain"/>
            </g>
            <g class="mark-rect role-mark child__Strict_Assertion_marks" aria-roledescription="rect mark container">
                <path aria-label="Strict Assertion: 19532520; name: @sinclair/typebox-(ahead-of-time)" aria-roledescription="bar" d="M629 156.75h195.325v13.5H629Z" fill="#f58518"/>
                <path aria-label="Strict Assertion: 17696304; name: typia" aria-roledescription="bar" d="M629 171.75h176.963v13.5H629Z" fill="#b279a2"/>
                <path aria-label="Strict Assertion: 18021336; name: @sinclair/typebox-(just-in-time)" aria-roledescription="bar" d="M629 186.75h180.213v13.5H629Z" fill="#e45756"/>
                <path aria-label="Strict Assertion: 620522.5; name: (median)" aria-roledescription="bar" d="M629 201.75h6.205v13.5H629Z" fill="#4c78a8"/>
            </g>
        </g>
        <g class="mark-group role-title">
            <path class="background" aria-hidden="true" d="M421.833 5Z" pointer-events="none"/>
            <text text-anchor="middle" transform="translate(421.833 18)" font-family="sans-serif" font-size="16" fill="#000" class="mark-text role-title-text" aria-roledescription="title" aria-label="Title text 'Top 3 packages for each benchmark + median, (ops count, better ⯈)'" pointer-events="none">Top 3 packages for each benchmark + median, (ops count, better ⯈)</text>
        </g>
    </g>
</svg>
