<svg xmlns="http://www.w3.org/2000/svg" class="marks" width="743" height="254">
    <path fill="#fff" d="M0 0h743v254H0z"/>
    <g class="mark-group role-frame root" aria-roledescription="group mark container" fill="none" stroke-miterlimit="10">
        <path class="background" aria-hidden="true" d="M149 42Z"/>
        <g class="mark-group role-scope child__Safe_Parsing_group" aria-roledescription="group mark container">
            <path class="background" aria-hidden="true" d="M149.5 42.5h200v60h-200Z" stroke="#ddd"/>
            <g class="mark-group role-axis" aria-roledescription="axis" aria-label="X-axis for a linear scale with values from 0 to 22,000,000">
                <path class="background" aria-hidden="true" d="M149.5 102.5Z" pointer-events="none"/>
                <g class="mark-rule role-axis-grid" pointer-events="none" stroke="#ddd">
                    <path d="M149.5 102.5v-60M194.5 102.5v-60M240.5 102.5v-60M285.5 102.5v-60M331.5 102.5v-60"/>
                </g>
            </g>
            <g pointer-events="none" class="mark-group role-axis" aria-roledescription="axis" aria-label="X-axis titled 'Safe Parsing' for a linear scale with values from 0 to 22,000,000">
                <path class="background" aria-hidden="true" d="M149.5 102.5Z"/>
                <g class="mark-rule role-axis-tick" stroke="#888">
                    <path d="M149.5 102.5v5M194.5 102.5v5M240.5 102.5v5M285.5 102.5v5M331.5 102.5v5"/>
                </g>
                <g class="mark-text role-axis-label" font-family="sans-serif" font-size="10" fill="#000">
                    <text transform="translate(149.5 117.5)">0</text>
                    <text text-anchor="middle" transform="translate(240.41 117.5)">10,000,000</text>
                    <text text-anchor="middle" transform="translate(331.318 117.5)">20,000,000</text>
                </g>
                <path stroke="#888" d="M149.5 102.5h200" class="mark-rule role-axis-domain"/>
                <text text-anchor="middle" transform="translate(249.5 132.5)" font-family="sans-serif" font-size="11" font-weight="bold" fill="#000" class="mark-text role-axis-title">Safe Parsing</text>
            </g>
            <g pointer-events="none" class="mark-group role-axis" aria-roledescription="axis" aria-label="Y-axis for a discrete scale with 4 values: ... rest, simple-runtypes, spectypes, valita">
                <path class="background" aria-hidden="true" d="M149.5 42.5Z"/>
                <g class="mark-rule role-axis-tick" stroke="#888">
                    <path d="M149.5 49.5h-5M149.5 64.5h-5M149.5 79.5h-5M149.5 94.5h-5"/>
                </g>
                <g class="mark-text role-axis-label" text-anchor="end" font-family="sans-serif" font-size="10" fill="#000">
                    <text transform="translate(142.5 52.5)">... rest</text>
                    <text transform="translate(142.5 67.5)">simple-runtypes</text>
                    <text transform="translate(142.5 82.5)">spectypes</text>
                    <text transform="translate(142.5 97.5)">valita</text>
                </g>
                <path stroke="#888" d="M149.5 42.5v60" class="mark-rule role-axis-domain"/>
            </g>
            <g class="mark-rect role-mark child__Safe_Parsing_marks" aria-roledescription="rect mark container">
                <path d="M149 72.75h182.73v13.5H149Z" fill="#72b7b2"/>
                <path d="M149 87.75h29.988v13.5H149Z" fill="#b279a2"/>
                <path d="M149 57.75h13.895v13.5H149Z" fill="#e45756"/>
                <path d="M149 42.75h4.814v13.5H149Z" fill="#4c78a8"/>
            </g>
        </g>
        <g class="mark-group role-scope child__Strict_Parsing_group" aria-roledescription="group mark container">
            <path class="background" aria-hidden="true" d="M536.5 42.5h200v60h-200Z" stroke="#ddd"/>
            <g class="mark-group role-axis" aria-roledescription="axis" aria-label="X-axis for a linear scale with values from 0 to 20,000,000">
                <path class="background" aria-hidden="true" d="M536.5 102.5Z" pointer-events="none"/>
                <g class="mark-rule role-axis-grid" pointer-events="none" stroke="#ddd">
                    <path d="M536.5 102.5v-60M586.5 102.5v-60M636.5 102.5v-60M686.5 102.5v-60M736.5 102.5v-60"/>
                </g>
            </g>
            <g pointer-events="none" class="mark-group role-axis" aria-roledescription="axis" aria-label="X-axis titled 'Strict Parsing' for a linear scale with values from 0 to 20,000,000">
                <path class="background" aria-hidden="true" d="M536.5 102.5Z"/>
                <g class="mark-rule role-axis-tick" stroke="#888">
                    <path d="M536.5 102.5v5M586.5 102.5v5M636.5 102.5v5M686.5 102.5v5M736.5 102.5v5"/>
                </g>
                <g class="mark-text role-axis-label" font-family="sans-serif" font-size="10" fill="#000">
                    <text transform="translate(536.5 117.5)">0</text>
                    <text text-anchor="end" transform="translate(736.5 117.5)">20,000,000</text>
                </g>
                <path stroke="#888" d="M536.5 102.5h200" class="mark-rule role-axis-domain"/>
                <text text-anchor="middle" transform="translate(636.5 132.5)" font-family="sans-serif" font-size="11" font-weight="bold" fill="#000" class="mark-text role-axis-title">Strict Parsing</text>
            </g>
            <g pointer-events="none" class="mark-group role-axis" aria-roledescription="axis" aria-label="Y-axis for a discrete scale with 4 values: ... rest, spectypes, to-typed, valita">
                <path class="background" aria-hidden="true" d="M536.5 42.5Z"/>
                <g class="mark-rule role-axis-tick" stroke="#888">
                    <path d="M536.5 49.5h-5M536.5 64.5h-5M536.5 79.5h-5M536.5 94.5h-5"/>
                </g>
                <g class="mark-text role-axis-label" text-anchor="end" font-family="sans-serif" font-size="10" fill="#000">
                    <text transform="translate(529.5 52.5)">... rest</text>
                    <text transform="translate(529.5 67.5)">spectypes</text>
                    <text transform="translate(529.5 82.5)">to-typed</text>
                    <text transform="translate(529.5 97.5)">valita</text>
                </g>
                <path stroke="#888" d="M536.5 42.5v60" class="mark-rule role-axis-domain"/>
            </g>
            <g class="mark-rect role-mark child__Strict_Parsing_marks" aria-roledescription="rect mark container">
                <path d="M536 57.75h192.305v13.5H536Z" fill="#72b7b2"/>
                <path d="M536 87.75h32.881v13.5H536Z" fill="#b279a2"/>
                <path d="M536 72.75h22.363v13.5H536Z" fill="#54a24b"/>
                <path d="M536 42.75h6.127v13.5H536Z" fill="#4c78a8"/>
            </g>
        </g>
        <g class="mark-group role-scope child__Loose_Assertion_group" aria-roledescription="group mark container">
            <path class="background" aria-hidden="true" d="M149.5 156.5h200v60h-200Z" stroke="#ddd"/>
            <g class="mark-group role-axis" aria-roledescription="axis" aria-label="X-axis for a linear scale with values from 0 to 80,000,000">
                <path class="background" aria-hidden="true" d="M149.5 216.5Z" pointer-events="none"/>
                <g class="mark-rule role-axis-grid" pointer-events="none" stroke="#ddd">
                    <path d="M149.5 216.5v-60M199.5 216.5v-60M249.5 216.5v-60M299.5 216.5v-60M349.5 216.5v-60"/>
                </g>
            </g>
            <g pointer-events="none" class="mark-group role-axis" aria-roledescription="axis" aria-label="X-axis titled 'Loose Assertion' for a linear scale with values from 0 to 80,000,000">
                <path class="background" aria-hidden="true" d="M149.5 216.5Z"/>
                <g class="mark-rule role-axis-tick" stroke="#888">
                    <path d="M149.5 216.5v5M199.5 216.5v5M249.5 216.5v5M299.5 216.5v5M349.5 216.5v5"/>
                </g>
                <g class="mark-text role-axis-label" font-family="sans-serif" font-size="10" fill="#000">
                    <text transform="translate(149.5 231.5)">0</text>
                    <text text-anchor="end" transform="translate(349.5 231.5)">80,000,000</text>
                </g>
                <path stroke="#888" d="M149.5 216.5h200" class="mark-rule role-axis-domain"/>
                <text text-anchor="middle" transform="translate(249.5 246.5)" font-family="sans-serif" font-size="11" font-weight="bold" fill="#000" class="mark-text role-axis-title">Loose Assertion</text>
            </g>
            <g pointer-events="none" class="mark-group role-axis" aria-roledescription="axis" aria-label="Y-axis for a discrete scale with 4 values: ... rest, @sinclair/typebox, spectypes, ts-runtime-checks">
                <path class="background" aria-hidden="true" d="M149.5 156.5Z"/>
                <g class="mark-rule role-axis-tick" stroke="#888">
                    <path d="M149.5 163.5h-5M149.5 178.5h-5M149.5 193.5h-5M149.5 208.5h-5"/>
                </g>
                <g class="mark-text role-axis-label" text-anchor="end" font-family="sans-serif" font-size="10" fill="#000">
                    <text transform="translate(142.5 166.5)">... rest</text>
                    <text transform="translate(142.5 181.5)">@sinclair/typebox</text>
                    <text transform="translate(142.5 196.5)">spectypes</text>
                    <text transform="translate(142.5 211.5)">ts-runtime-checks</text>
                </g>
                <path stroke="#888" d="M149.5 156.5v60" class="mark-rule role-axis-domain"/>
            </g>
            <g class="mark-rect role-mark child__Loose_Assertion_marks" aria-roledescription="rect mark container">
                <path d="M149 201.75h191.595v13.5H149Z" fill="#eeca3b"/>
                <path d="M149 186.75h135.283v13.5H149Z" fill="#72b7b2"/>
                <path d="M149 171.75h97.928v13.5H149Z" fill="#f58518"/>
                <path d="M149 156.75h1.72v13.5H149Z" fill="#4c78a8"/>
            </g>
        </g>
        <g class="mark-group role-scope child__Strict_Assertion_group" aria-roledescription="group mark container">
            <path class="background" aria-hidden="true" d="M536.5 156.5h200v60h-200Z" stroke="#ddd"/>
            <g class="mark-group role-axis" aria-roledescription="axis" aria-label="X-axis for a linear scale with values from 0 to 20,000,000">
                <path class="background" aria-hidden="true" d="M536.5 216.5Z" pointer-events="none"/>
                <g class="mark-rule role-axis-grid" pointer-events="none" stroke="#ddd">
                    <path d="M536.5 216.5v-60M586.5 216.5v-60M636.5 216.5v-60M686.5 216.5v-60M736.5 216.5v-60"/>
                </g>
            </g>
            <g pointer-events="none" class="mark-group role-axis" aria-roledescription="axis" aria-label="X-axis titled 'Strict Assertion' for a linear scale with values from 0 to 20,000,000">
                <path class="background" aria-hidden="true" d="M536.5 216.5Z"/>
                <g class="mark-rule role-axis-tick" stroke="#888">
                    <path d="M536.5 216.5v5M586.5 216.5v5M636.5 216.5v5M686.5 216.5v5M736.5 216.5v5"/>
                </g>
                <g class="mark-text role-axis-label" font-family="sans-serif" font-size="10" fill="#000">
                    <text transform="translate(536.5 231.5)">0</text>
                    <text text-anchor="end" transform="translate(736.5 231.5)">20,000,000</text>
                </g>
                <path stroke="#888" d="M536.5 216.5h200" class="mark-rule role-axis-domain"/>
                <text text-anchor="middle" transform="translate(636.5 246.5)" font-family="sans-serif" font-size="11" font-weight="bold" fill="#000" class="mark-text role-axis-title">Strict Assertion</text>
            </g>
            <g pointer-events="none" class="mark-group role-axis" aria-roledescription="axis" aria-label="Y-axis for a discrete scale with 4 values: ... rest, @sinclair/typebox, spectypes, valita">
                <path class="background" aria-hidden="true" d="M536.5 156.5Z"/>
                <g class="mark-rule role-axis-tick" stroke="#888">
                    <path d="M536.5 163.5h-5M536.5 178.5h-5M536.5 193.5h-5M536.5 208.5h-5"/>
                </g>
                <g class="mark-text role-axis-label" text-anchor="end" font-family="sans-serif" font-size="10" fill="#000">
                    <text transform="translate(529.5 166.5)">... rest</text>
                    <text transform="translate(529.5 181.5)">@sinclair/typebox</text>
                    <text transform="translate(529.5 196.5)">spectypes</text>
                    <text transform="translate(529.5 211.5)">valita</text>
                </g>
                <path stroke="#888" d="M536.5 156.5v60" class="mark-rule role-axis-domain"/>
            </g>
            <g class="mark-rect role-mark child__Strict_Assertion_marks" aria-roledescription="rect mark container">
                <path d="M536 186.75h183.297v13.5H536Z" fill="#72b7b2"/>
                <path d="M536 171.75h173.643v13.5H536Z" fill="#f58518"/>
                <path d="M536 201.75h32.881v13.5H536Z" fill="#b279a2"/>
                <path d="M536 156.75h5.556v13.5H536Z" fill="#4c78a8"/>
            </g>
        </g>
        <g class="mark-group role-title">
            <path class="background" aria-hidden="true" d="M371.5 5Z" pointer-events="none"/>
            <text text-anchor="middle" transform="translate(371.5 18)" font-family="sans-serif" font-size="16" fill="#000" class="mark-text role-title-text" aria-roledescription="title" aria-label="Title text 'Top 3 packages for each benchmark'" pointer-events="none">Top 3 packages for each benchmark</text>
        </g>
    </g>
</svg>
