<svg xmlns="http://www.w3.org/2000/svg" class="marks" width="843" height="254">
    <path fill="#fff" d="M0 0h843v254H0z"/>
    <g class="mark-group role-frame root" aria-roledescription="group mark container" fill="none" stroke-miterlimit="10">
        <path class="background" aria-hidden="true" d="M196 42Z"/>
        <g class="mark-group role-scope child__Safe_Parsing_group" aria-roledescription="group mark container">
            <path class="background" aria-hidden="true" d="M196.5 42.5h200v60h-200Z" stroke="#ddd"/>
            <g class="mark-group role-axis" aria-roledescription="axis" aria-label="X-axis for a linear scale with values from 0 to 22,000,000">
                <path class="background" aria-hidden="true" d="M196.5 102.5Z" pointer-events="none"/>
                <g class="mark-rule role-axis-grid" pointer-events="none" stroke="#ddd">
                    <path d="M196.5 102.5v-60M241.5 102.5v-60M287.5 102.5v-60M332.5 102.5v-60M378.5 102.5v-60"/>
                </g>
            </g>
            <g pointer-events="none" class="mark-group role-axis" aria-roledescription="axis" aria-label="X-axis titled 'Safe Parsing' for a linear scale with values from 0 to 22,000,000">
                <path class="background" aria-hidden="true" d="M196.5 102.5Z"/>
                <g class="mark-rule role-axis-tick" stroke="#888">
                    <path d="M196.5 102.5v5M241.5 102.5v5M287.5 102.5v5M332.5 102.5v5M378.5 102.5v5"/>
                </g>
                <g class="mark-text role-axis-label" font-family="sans-serif" font-size="10" fill="#000">
                    <text transform="translate(196.5 117.5)">0</text>
                    <text text-anchor="middle" transform="translate(287.41 117.5)">10,000,000</text>
                    <text text-anchor="middle" transform="translate(378.318 117.5)">20,000,000</text>
                </g>
                <path stroke="#888" d="M196.5 102.5h200" class="mark-rule role-axis-domain"/>
                <text text-anchor="middle" transform="translate(296.5 132.5)" font-family="sans-serif" font-size="11" font-weight="bold" fill="#000" class="mark-text role-axis-title">Safe Parsing</text>
            </g>
            <g pointer-events="none" class="mark-group role-axis" aria-roledescription="axis" aria-label="Y-axis for a discrete scale with 4 values: rescript-struct, spectypes, valita, (median)">
                <path class="background" aria-hidden="true" d="M196.5 42.5Z"/>
                <g class="mark-rule role-axis-tick" stroke="#888">
                    <path d="M196.5 49.5h-5M196.5 64.5h-5M196.5 79.5h-5M196.5 94.5h-5"/>
                </g>
                <g class="mark-text role-axis-label" text-anchor="end" font-family="sans-serif" font-size="10" fill="#000">
                    <text transform="translate(189.5 52.5)">rescript-struct</text>
                    <text transform="translate(189.5 67.5)">spectypes</text>
                    <text transform="translate(189.5 82.5)">valita</text>
                    <text transform="translate(189.5 97.5)">(median)</text>
                </g>
                <path stroke="#888" d="M196.5 42.5v60" class="mark-rule role-axis-domain"/>
            </g>
            <g class="mark-rect role-mark child__Safe_Parsing_marks" aria-roledescription="rect mark container">
                <path d="M196 42.75h190.978v13.5H196Z" fill="#e45756"/>
                <path d="M196 57.75h152.33v13.5H196Z" fill="#72b7b2"/>
                <path d="M196 72.75h23.347v13.5H196Z" fill="#b279a2"/>
                <path d="M196 87.75h4.872v13.5H196Z" fill="#4c78a8"/>
            </g>
        </g>
        <g class="mark-group role-scope child__Strict_Parsing_group" aria-roledescription="group mark container">
            <path class="background" aria-hidden="true" d="M583.5 42.5h200v60h-200Z" stroke="#ddd"/>
            <g class="mark-group role-axis" aria-roledescription="axis" aria-label="X-axis for a linear scale with values from 0 to 18,000,000">
                <path class="background" aria-hidden="true" d="M583.5 102.5Z" pointer-events="none"/>
                <g class="mark-rule role-axis-grid" pointer-events="none" stroke="#ddd">
                    <path d="M583.5 102.5v-60M639.5 102.5v-60M694.5 102.5v-60M750.5 102.5v-60"/>
                </g>
            </g>
            <g pointer-events="none" class="mark-group role-axis" aria-roledescription="axis" aria-label="X-axis titled 'Strict Parsing' for a linear scale with values from 0 to 18,000,000">
                <path class="background" aria-hidden="true" d="M583.5 102.5Z"/>
                <g class="mark-rule role-axis-tick" stroke="#888">
                    <path d="M583.5 102.5v5M639.5 102.5v5M694.5 102.5v5M750.5 102.5v5"/>
                </g>
                <g class="mark-text role-axis-label" font-family="sans-serif" font-size="10" fill="#000">
                    <text transform="translate(583.5 117.5)">0</text>
                    <text text-anchor="middle" transform="translate(750.167 117.5)">15,000,000</text>
                </g>
                <path stroke="#888" d="M583.5 102.5h200" class="mark-rule role-axis-domain"/>
                <text text-anchor="middle" transform="translate(683.5 132.5)" font-family="sans-serif" font-size="11" font-weight="bold" fill="#000" class="mark-text role-axis-title">Strict Parsing</text>
            </g>
            <g pointer-events="none" class="mark-group role-axis" aria-roledescription="axis" aria-label="Y-axis for a discrete scale with 4 values: ts-runtime-checks, typia, spectypes, (median)">
                <path class="background" aria-hidden="true" d="M583.5 42.5Z"/>
                <g class="mark-rule role-axis-tick" stroke="#888">
                    <path d="M583.5 49.5h-5M583.5 64.5h-5M583.5 79.5h-5M583.5 94.5h-5"/>
                </g>
                <g class="mark-text role-axis-label" text-anchor="end" font-family="sans-serif" font-size="10" fill="#000">
                    <text transform="translate(576.5 52.5)">ts-runtime-checks</text>
                    <text transform="translate(576.5 67.5)">typia</text>
                    <text transform="translate(576.5 82.5)">spectypes</text>
                    <text transform="translate(576.5 97.5)">(median)</text>
                </g>
                <path stroke="#888" d="M583.5 42.5v60" class="mark-rule role-axis-domain"/>
            </g>
            <g class="mark-rect role-mark child__Strict_Parsing_marks" aria-roledescription="rect mark container">
                <path d="M583 42.75h190.89v13.5H583Z" fill="#54a24b"/>
                <path d="M583 57.75h187.006v13.5H583Z" fill="#eeca3b"/>
                <path d="M583 72.75h141.52v13.5H583Z" fill="#72b7b2"/>
                <path d="M583 87.75h5.848v13.5H583Z" fill="#4c78a8"/>
            </g>
        </g>
        <g class="mark-group role-scope child__Loose_Assertion_group" aria-roledescription="group mark container">
            <path class="background" aria-hidden="true" d="M196.5 156.5h200v60h-200Z" stroke="#ddd"/>
            <g class="mark-group role-axis" aria-roledescription="axis" aria-label="X-axis for a linear scale with values from 0 to 60,000,000">
                <path class="background" aria-hidden="true" d="M196.5 216.5Z" pointer-events="none"/>
                <g class="mark-rule role-axis-grid" pointer-events="none" stroke="#ddd">
                    <path d="M196.5 216.5v-60M229.5 216.5v-60M263.5 216.5v-60M296.5 216.5v-60M329.5 216.5v-60M363.5 216.5v-60M396.5 216.5v-60"/>
                </g>
            </g>
            <g pointer-events="none" class="mark-group role-axis" aria-roledescription="axis" aria-label="X-axis titled 'Loose Assertion' for a linear scale with values from 0 to 60,000,000">
                <path class="background" aria-hidden="true" d="M196.5 216.5Z"/>
                <g class="mark-rule role-axis-tick" stroke="#888">
                    <path d="M196.5 216.5v5M229.5 216.5v5M263.5 216.5v5M296.5 216.5v5M329.5 216.5v5M363.5 216.5v5M396.5 216.5v5"/>
                </g>
                <g class="mark-text role-axis-label" font-family="sans-serif" font-size="10" fill="#000">
                    <text transform="translate(196.5 231.5)">0</text>
                    <text text-anchor="end" transform="translate(396.5 231.5)">60,000,000</text>
                </g>
                <path stroke="#888" d="M196.5 216.5h200" class="mark-rule role-axis-domain"/>
                <text text-anchor="middle" transform="translate(296.5 246.5)" font-family="sans-serif" font-size="11" font-weight="bold" fill="#000" class="mark-text role-axis-title">Loose Assertion</text>
            </g>
            <g pointer-events="none" class="mark-group role-axis" aria-roledescription="axis" aria-label="Y-axis for a discrete scale with 4 values: ts-runtime-checks, typia, @sinclair/typebox, (median)">
                <path class="background" aria-hidden="true" d="M196.5 156.5Z"/>
                <g class="mark-rule role-axis-tick" stroke="#888">
                    <path d="M196.5 163.5h-5M196.5 178.5h-5M196.5 193.5h-5M196.5 208.5h-5"/>
                </g>
                <g class="mark-text role-axis-label" text-anchor="end" font-family="sans-serif" font-size="10" fill="#000">
                    <text transform="translate(189.5 166.5)">ts-runtime-checks</text>
                    <text transform="translate(189.5 181.5)">typia</text>
                    <text transform="translate(189.5 196.5)">@sinclair/typebox</text>
                    <text transform="translate(189.5 211.5)">(median)</text>
                </g>
                <path stroke="#888" d="M196.5 156.5v60" class="mark-rule role-axis-domain"/>
            </g>
            <g class="mark-rect role-mark child__Loose_Assertion_marks" aria-roledescription="rect mark container">
                <path d="M196 156.75h197.182v13.5H196Z" fill="#54a24b"/>
                <path d="M196 171.75h187.192v13.5H196Z" fill="#eeca3b"/>
                <path d="M196 186.75h138.634v13.5H196Z" fill="#f58518"/>
                <path d="M196 201.75h2.503v13.5H196Z" fill="#4c78a8"/>
            </g>
        </g>
        <g class="mark-group role-scope child__Strict_Assertion_group" aria-roledescription="group mark container">
            <path class="background" aria-hidden="true" d="M583.5 156.5h200v60h-200Z" stroke="#ddd"/>
            <g class="mark-group role-axis" aria-roledescription="axis" aria-label="X-axis for a linear scale with values from 0 to 18,000,000">
                <path class="background" aria-hidden="true" d="M583.5 216.5Z" pointer-events="none"/>
                <g class="mark-rule role-axis-grid" pointer-events="none" stroke="#ddd">
                    <path d="M583.5 216.5v-60M639.5 216.5v-60M694.5 216.5v-60M750.5 216.5v-60"/>
                </g>
            </g>
            <g pointer-events="none" class="mark-group role-axis" aria-roledescription="axis" aria-label="X-axis titled 'Strict Assertion' for a linear scale with values from 0 to 18,000,000">
                <path class="background" aria-hidden="true" d="M583.5 216.5Z"/>
                <g class="mark-rule role-axis-tick" stroke="#888">
                    <path d="M583.5 216.5v5M639.5 216.5v5M694.5 216.5v5M750.5 216.5v5"/>
                </g>
                <g class="mark-text role-axis-label" font-family="sans-serif" font-size="10" fill="#000">
                    <text transform="translate(583.5 231.5)">0</text>
                    <text text-anchor="middle" transform="translate(750.167 231.5)">15,000,000</text>
                </g>
                <path stroke="#888" d="M583.5 216.5h200" class="mark-rule role-axis-domain"/>
                <text text-anchor="middle" transform="translate(683.5 246.5)" font-family="sans-serif" font-size="11" font-weight="bold" fill="#000" class="mark-text role-axis-title">Strict Assertion</text>
            </g>
            <g pointer-events="none" class="mark-group role-axis" aria-roledescription="axis" aria-label="Y-axis for a discrete scale with 4 values: ts-runtime-checks, typia, @sinclair/typebox, (median)">
                <path class="background" aria-hidden="true" d="M583.5 156.5Z"/>
                <g class="mark-rule role-axis-tick" stroke="#888">
                    <path d="M583.5 163.5h-5M583.5 178.5h-5M583.5 193.5h-5M583.5 208.5h-5"/>
                </g>
                <g class="mark-text role-axis-label" text-anchor="end" font-family="sans-serif" font-size="10" fill="#000">
                    <text transform="translate(576.5 166.5)">ts-runtime-checks</text>
                    <text transform="translate(576.5 181.5)">typia</text>
                    <text transform="translate(576.5 196.5)">@sinclair/typebox</text>
                    <text transform="translate(576.5 211.5)">(median)</text>
                </g>
                <path stroke="#888" d="M583.5 156.5v60" class="mark-rule role-axis-domain"/>
            </g>
            <g class="mark-rect role-mark child__Strict_Assertion_marks" aria-roledescription="rect mark container">
                <path d="M583 156.75h199.19v13.5H583Z" fill="#54a24b"/>
                <path d="M583 171.75h186.987v13.5H583Z" fill="#eeca3b"/>
                <path d="M583 186.75h171.72v13.5H583Z" fill="#f58518"/>
                <path d="M583 201.75h5.412v13.5H583Z" fill="#4c78a8"/>
            </g>
        </g>
        <g class="mark-group role-title">
            <path class="background" aria-hidden="true" d="M421.333 5Z" pointer-events="none"/>
            <text text-anchor="middle" transform="translate(421.333 18)" font-family="sans-serif" font-size="16" fill="#000" class="mark-text role-title-text" aria-roledescription="title" aria-label="Title text 'Top 3 packages for each benchmark + median, (ops count, better ⯈)'" pointer-events="none">Top 3 packages for each benchmark + median, (ops count, better ⯈)</text>
        </g>
    </g>
</svg>
