<svg xmlns="http://www.w3.org/2000/svg" class="marks" width="744" height="254">
    <path fill="#fff" d="M0 0h744v254H0z"/>
    <g class="mark-group role-frame root" aria-roledescription="group mark container" fill="none" stroke-miterlimit="10">
        <path class="background" aria-hidden="true" d="M133 42Z"/>
        <g class="mark-group role-scope child__Safe_Parsing_group" aria-roledescription="group mark container">
            <path class="background" aria-hidden="true" d="M133.5 42.5h200v60h-200Z" stroke="#ddd"/>
            <g class="mark-group role-axis" aria-roledescription="axis" aria-label="X-axis for a linear scale with values from 0 to 18,000,000">
                <path class="background" aria-hidden="true" d="M133.5 102.5Z" pointer-events="none"/>
                <g class="mark-rule role-axis-grid" pointer-events="none" stroke="#ddd">
                    <path d="M133.5 102.5v-60M189.5 102.5v-60M244.5 102.5v-60M300.5 102.5v-60"/>
                </g>
            </g>
            <g pointer-events="none" class="mark-group role-axis" aria-roledescription="axis" aria-label="X-axis titled 'Safe Parsing' for a linear scale with values from 0 to 18,000,000">
                <path class="background" aria-hidden="true" d="M133.5 102.5Z"/>
                <g class="mark-rule role-axis-tick" stroke="#888">
                    <path d="M133.5 102.5v5M189.5 102.5v5M244.5 102.5v5M300.5 102.5v5"/>
                </g>
                <g class="mark-text role-axis-label" font-family="sans-serif" font-size="10" fill="#000">
                    <text transform="translate(133.5 117.5)">0</text>
                    <text text-anchor="middle" transform="translate(300.167 117.5)">15,000,000</text>
                </g>
                <path stroke="#888" d="M133.5 102.5h200" class="mark-rule role-axis-domain"/>
                <text text-anchor="middle" transform="translate(233.5 132.5)" font-family="sans-serif" font-size="11" font-weight="bold" fill="#000" class="mark-text role-axis-title">Safe Parsing</text>
            </g>
            <g pointer-events="none" class="mark-group role-axis" aria-roledescription="axis" aria-label="Y-axis for a discrete scale with 4 values: ... rest, simple-runtypes, spectypes, valita">
                <path class="background" aria-hidden="true" d="M133.5 42.5Z"/>
                <g class="mark-rule role-axis-tick" stroke="#888">
                    <path d="M133.5 49.5h-5M133.5 64.5h-5M133.5 79.5h-5M133.5 94.5h-5"/>
                </g>
                <g class="mark-text role-axis-label" text-anchor="end" font-family="sans-serif" font-size="10" fill="#000">
                    <text transform="translate(126.5 52.5)">... rest</text>
                    <text transform="translate(126.5 67.5)">simple-runtypes</text>
                    <text transform="translate(126.5 82.5)">spectypes</text>
                    <text transform="translate(126.5 97.5)">valita</text>
                </g>
                <path stroke="#888" d="M133.5 42.5v60" class="mark-rule role-axis-domain"/>
            </g>
            <g class="mark-rect role-mark child__Safe_Parsing_marks" aria-roledescription="rect mark container">
                <path d="M133 72.75h185.57v13.5H133Z" fill="#72b7b2"/>
                <path d="M133 87.75h26.518v13.5H133Z" fill="#eeca3b"/>
                <path d="M133 57.75h13.57v13.5H133Z" fill="#e45756"/>
                <path d="M133 42.75h5.354v13.5H133Z" fill="#4c78a8"/>
            </g>
        </g>
        <g class="mark-group role-scope child__Strict_Parsing_group" aria-roledescription="group mark container">
            <path class="background" aria-hidden="true" d="M510.5 42.5h200v60h-200Z" stroke="#ddd"/>
            <g class="mark-group role-axis" aria-roledescription="axis" aria-label="X-axis for a linear scale with values from 0 to 16,000,000">
                <path class="background" aria-hidden="true" d="M510.5 102.5Z" pointer-events="none"/>
                <g class="mark-rule role-axis-grid" pointer-events="none" stroke="#ddd">
                    <path d="M510.5 102.5v-60M573.5 102.5v-60M635.5 102.5v-60M698.5 102.5v-60"/>
                </g>
            </g>
            <g pointer-events="none" class="mark-group role-axis" aria-roledescription="axis" aria-label="X-axis titled 'Strict Parsing' for a linear scale with values from 0 to 16,000,000">
                <path class="background" aria-hidden="true" d="M510.5 102.5Z"/>
                <g class="mark-rule role-axis-tick" stroke="#888">
                    <path d="M510.5 102.5v5M573.5 102.5v5M635.5 102.5v5M698.5 102.5v5"/>
                </g>
                <g class="mark-text role-axis-label" font-family="sans-serif" font-size="10" fill="#000">
                    <text transform="translate(510.5 117.5)">0</text>
                    <text text-anchor="middle" transform="translate(698 117.5)">15,000,000</text>
                </g>
                <path stroke="#888" d="M510.5 102.5h200" class="mark-rule role-axis-domain"/>
                <text text-anchor="middle" transform="translate(610.5 132.5)" font-family="sans-serif" font-size="11" font-weight="bold" fill="#000" class="mark-text role-axis-title">Strict Parsing</text>
            </g>
            <g pointer-events="none" class="mark-group role-axis" aria-roledescription="axis" aria-label="Y-axis for a discrete scale with 4 values: ... rest, simple-runtypes, spectypes, valita">
                <path class="background" aria-hidden="true" d="M510.5 42.5Z"/>
                <g class="mark-rule role-axis-tick" stroke="#888">
                    <path d="M510.5 49.5h-5M510.5 64.5h-5M510.5 79.5h-5M510.5 94.5h-5"/>
                </g>
                <g class="mark-text role-axis-label" text-anchor="end" font-family="sans-serif" font-size="10" fill="#000">
                    <text transform="translate(503.5 52.5)">... rest</text>
                    <text transform="translate(503.5 67.5)">simple-runtypes</text>
                    <text transform="translate(503.5 82.5)">spectypes</text>
                    <text transform="translate(503.5 97.5)">valita</text>
                </g>
                <path stroke="#888" d="M510.5 42.5v60" class="mark-rule role-axis-domain"/>
            </g>
            <g class="mark-rect role-mark child__Strict_Parsing_marks" aria-roledescription="rect mark container">
                <path d="M510 72.75h180.224v13.5H510Z" fill="#72b7b2"/>
                <path d="M510 87.75h28.8v13.5H510Z" fill="#eeca3b"/>
                <path d="M510 57.75h21.14v13.5H510Z" fill="#e45756"/>
                <path d="M510 42.75h6.62v13.5H510Z" fill="#4c78a8"/>
            </g>
        </g>
        <g class="mark-group role-scope child__Loose_Assertion_group" aria-roledescription="group mark container">
            <path class="background" aria-hidden="true" d="M133.5 156.5h200v60h-200Z" stroke="#ddd"/>
            <g class="mark-group role-axis" aria-roledescription="axis" aria-label="X-axis for a linear scale with values from 0 to 55,000,000">
                <path class="background" aria-hidden="true" d="M133.5 216.5Z" pointer-events="none"/>
                <g class="mark-rule role-axis-grid" pointer-events="none" stroke="#ddd">
                    <path d="M133.5 216.5v-60M169.5 216.5v-60M206.5 216.5v-60M242.5 216.5v-60M278.5 216.5v-60M315.5 216.5v-60"/>
                </g>
            </g>
            <g pointer-events="none" class="mark-group role-axis" aria-roledescription="axis" aria-label="X-axis titled 'Loose Assertion' for a linear scale with values from 0 to 55,000,000">
                <path class="background" aria-hidden="true" d="M133.5 216.5Z"/>
                <g class="mark-rule role-axis-tick" stroke="#888">
                    <path d="M133.5 216.5v5M169.5 216.5v5M206.5 216.5v5M242.5 216.5v5M278.5 216.5v5M315.5 216.5v5"/>
                </g>
                <g class="mark-text role-axis-label" font-family="sans-serif" font-size="10" fill="#000">
                    <text transform="translate(133.5 231.5)">0</text>
                    <text text-anchor="middle" transform="translate(315.318 231.5)">50,000,000</text>
                </g>
                <path stroke="#888" d="M133.5 216.5h200" class="mark-rule role-axis-domain"/>
                <text text-anchor="middle" transform="translate(233.5 246.5)" font-family="sans-serif" font-size="11" font-weight="bold" fill="#000" class="mark-text role-axis-title">Loose Assertion</text>
            </g>
            <g pointer-events="none" class="mark-group role-axis" aria-roledescription="axis" aria-label="Y-axis for a discrete scale with 4 values: ... rest, marshal, spectypes, suretype">
                <path class="background" aria-hidden="true" d="M133.5 156.5Z"/>
                <g class="mark-rule role-axis-tick" stroke="#888">
                    <path d="M133.5 163.5h-5M133.5 178.5h-5M133.5 193.5h-5M133.5 208.5h-5"/>
                </g>
                <g class="mark-text role-axis-label" text-anchor="end" font-family="sans-serif" font-size="10" fill="#000">
                    <text transform="translate(126.5 166.5)">... rest</text>
                    <text transform="translate(126.5 181.5)">marshal</text>
                    <text transform="translate(126.5 196.5)">spectypes</text>
                    <text transform="translate(126.5 211.5)">suretype</text>
                </g>
                <path stroke="#888" d="M133.5 156.5v60" class="mark-rule role-axis-domain"/>
            </g>
            <g class="mark-rect role-mark child__Loose_Assertion_marks" aria-roledescription="rect mark container">
                <path d="M133 186.75h188.685v13.5H133Z" fill="#72b7b2"/>
                <path d="M133 171.75h74.525v13.5H133Z" fill="#f58518"/>
                <path d="M133 201.75h72.528v13.5H133Z" fill="#54a24b"/>
                <path d="M133 156.75h1.46v13.5H133Z" fill="#4c78a8"/>
            </g>
        </g>
        <g class="mark-group role-scope child__Strict_Assertion_group" aria-roledescription="group mark container">
            <path class="background" aria-hidden="true" d="M510.5 156.5h200v60h-200Z" stroke="#ddd"/>
            <g class="mark-group role-axis" aria-roledescription="axis" aria-label="X-axis for a linear scale with values from 0 to 16,000,000">
                <path class="background" aria-hidden="true" d="M510.5 216.5Z" pointer-events="none"/>
                <g class="mark-rule role-axis-grid" pointer-events="none" stroke="#ddd">
                    <path d="M510.5 216.5v-60M573.5 216.5v-60M635.5 216.5v-60M698.5 216.5v-60"/>
                </g>
            </g>
            <g pointer-events="none" class="mark-group role-axis" aria-roledescription="axis" aria-label="X-axis titled 'Strict Assertion' for a linear scale with values from 0 to 16,000,000">
                <path class="background" aria-hidden="true" d="M510.5 216.5Z"/>
                <g class="mark-rule role-axis-tick" stroke="#888">
                    <path d="M510.5 216.5v5M573.5 216.5v5M635.5 216.5v5M698.5 216.5v5"/>
                </g>
                <g class="mark-text role-axis-label" font-family="sans-serif" font-size="10" fill="#000">
                    <text transform="translate(510.5 231.5)">0</text>
                    <text text-anchor="middle" transform="translate(698 231.5)">15,000,000</text>
                </g>
                <path stroke="#888" d="M510.5 216.5h200" class="mark-rule role-axis-domain"/>
                <text text-anchor="middle" transform="translate(610.5 246.5)" font-family="sans-serif" font-size="11" font-weight="bold" fill="#000" class="mark-text role-axis-title">Strict Assertion</text>
            </g>
            <g pointer-events="none" class="mark-group role-axis" aria-roledescription="axis" aria-label="Y-axis for a discrete scale with 4 values: ... rest, simple-runtypes, spectypes, valita">
                <path class="background" aria-hidden="true" d="M510.5 156.5Z"/>
                <g class="mark-rule role-axis-tick" stroke="#888">
                    <path d="M510.5 163.5h-5M510.5 178.5h-5M510.5 193.5h-5M510.5 208.5h-5"/>
                </g>
                <g class="mark-text role-axis-label" text-anchor="end" font-family="sans-serif" font-size="10" fill="#000">
                    <text transform="translate(503.5 166.5)">... rest</text>
                    <text transform="translate(503.5 181.5)">simple-runtypes</text>
                    <text transform="translate(503.5 196.5)">spectypes</text>
                    <text transform="translate(503.5 211.5)">valita</text>
                </g>
                <path stroke="#888" d="M510.5 156.5v60" class="mark-rule role-axis-domain"/>
            </g>
            <g class="mark-rect role-mark child__Strict_Assertion_marks" aria-roledescription="rect mark container">
                <path d="M510 186.75h179.394v13.5H510Z" fill="#72b7b2"/>
                <path d="M510 201.75h28.424v13.5H510Z" fill="#eeca3b"/>
                <path d="M510 171.75h23.003v13.5H510Z" fill="#e45756"/>
                <path d="M510 156.75h5.029v13.5H510Z" fill="#4c78a8"/>
            </g>
        </g>
        <g class="mark-group role-title">
            <path class="background" aria-hidden="true" d="M371.75 5Z" pointer-events="none"/>
            <text text-anchor="middle" transform="translate(371.75 18)" font-family="sans-serif" font-size="16" fill="#000" class="mark-text role-title-text" aria-roledescription="title" aria-label="Title text 'Top 3 packages for each benchmark'" pointer-events="none">Top 3 packages for each benchmark</text>
        </g>
    </g>
</svg>
