<svg xmlns="http://www.w3.org/2000/svg" width="843" height="254" class="marks">
    <path fill="#fff" d="M0 0h843v254H0z"/>
    <g fill="none" stroke-miterlimit="10" aria-roledescription="group mark container" class="mark-group role-frame root">
        <path d="M194 42" aria-hidden="true" class="background"/>
        <g aria-roledescription="group mark container" class="mark-group role-scope child__Safe_Parsing_group">
            <path stroke="#ddd" d="M194.5 42.5h200v60h-200Z" aria-hidden="true" class="background"/>
            <g aria-hidden="true" class="mark-group role-axis">
                <path d="M194.5 102.5" aria-hidden="true" class="background" pointer-events="none"/>
                <g stroke="#ddd" class="mark-rule role-axis-grid" pointer-events="none">
                    <path d="M194.5 102.5v-60M257.5 102.5v-60M319.5 102.5v-60M382.5 102.5v-60"/>
                </g>
            </g>
            <g aria-label="X-axis titled 'Safe Parsing' for a linear scale with values from 0 to 160,000,000" aria-roledescription="axis" class="mark-group role-axis" pointer-events="none">
                <path d="M194.5 102.5" aria-hidden="true" class="background"/>
                <g stroke="#888" class="mark-rule role-axis-tick">
                    <path d="M194.5 102.5v5M257.5 102.5v5M319.5 102.5v5M382.5 102.5v5"/>
                </g>
                <g fill="#000" class="mark-text role-axis-label" font-family="sans-serif" font-size="10">
                    <text transform="translate(194.5 117.5)">0</text>
                    <text text-anchor="middle" transform="translate(382 117.5)">150,000,000</text>
                </g>
                <path stroke="#888" d="M194.5 102.5h200" class="mark-rule role-axis-domain"/>
                <text fill="#000" class="mark-text role-axis-title" font-family="sans-serif" font-size="11" font-weight="bold" text-anchor="middle" transform="translate(294.5 132.5)">Safe Parsing</text>
            </g>
            <g aria-label="Y-axis for a discrete scale with 4 values: typia, rescript-schema, sury, (median)" aria-roledescription="axis" class="mark-group role-axis" pointer-events="none">
                <path d="M194.5 42.5" aria-hidden="true" class="background"/>
                <g stroke="#888" class="mark-rule role-axis-tick">
                    <path d="M194.5 49.5h-5M194.5 64.5h-5M194.5 79.5h-5M194.5 94.5h-5"/>
                </g>
                <g fill="#000" class="mark-text role-axis-label" font-family="sans-serif" font-size="10" text-anchor="end">
                    <text transform="translate(187.5 52.5)">typia</text>
                    <text transform="translate(187.5 67.5)">rescript-schema</text>
                    <text transform="translate(187.5 82.5)">sury</text>
                    <text transform="translate(187.5 97.5)">(median)</text>
                </g>
                <path stroke="#888" d="M194.5 42.5v60" class="mark-rule role-axis-domain"/>
            </g>
            <g aria-roledescription="rect mark container" class="mark-rect role-mark child__Safe_Parsing_marks">
                <path fill="#9d755d" d="M194 42.75h191.52v13.5H194Z" aria-label="Safe Parsing: 153216552; name: typia" aria-roledescription="bar"/>
                <path fill="#54a24b" d="M194 57.75h157.677v13.5H194Z" aria-label="Safe Parsing: 126141734; name: rescript-schema" aria-roledescription="bar"/>
                <path fill="#eeca3b" d="M194 72.75h153.19v13.5H194Z" aria-label="Safe Parsing: 122552016; name: sury" aria-roledescription="bar"/>
                <path fill="#4c78a8" d="M194 87.75h2.892v13.5H194Z" aria-label="Safe Parsing: 2313627; name: (median)" aria-roledescription="bar"/>
            </g>
        </g>
        <g aria-roledescription="group mark container" class="mark-group role-scope child__Strict_Parsing_group">
            <path stroke="#ddd" d="M631.5 42.5h200v60h-200Z" aria-hidden="true" class="background"/>
            <g aria-hidden="true" class="mark-group role-axis">
                <path d="M631.5 102.5" aria-hidden="true" class="background" pointer-events="none"/>
                <g stroke="#ddd" class="mark-rule role-axis-grid" pointer-events="none">
                    <path d="M631.5 102.5v-60M671.5 102.5v-60M711.5 102.5v-60M751.5 102.5v-60M791.5 102.5v-60M831.5 102.5v-60"/>
                </g>
            </g>
            <g aria-label="X-axis titled 'Strict Parsing' for a linear scale with values from 0 to 50,000,000" aria-roledescription="axis" class="mark-group role-axis" pointer-events="none">
                <path d="M631.5 102.5" aria-hidden="true" class="background"/>
                <g stroke="#888" class="mark-rule role-axis-tick">
                    <path d="M631.5 102.5v5M671.5 102.5v5M711.5 102.5v5M751.5 102.5v5M791.5 102.5v5M831.5 102.5v5"/>
                </g>
                <g fill="#000" class="mark-text role-axis-label" font-family="sans-serif" font-size="10">
                    <text transform="translate(631.5 117.5)">0</text>
                    <text text-anchor="middle" transform="translate(711.5 117.5)">20,000,000</text>
                    <text text-anchor="middle" transform="translate(791.5 117.5)">40,000,000</text>
                </g>
                <path stroke="#888" d="M631.5 102.5h200" class="mark-rule role-axis-domain"/>
                <text fill="#000" class="mark-text role-axis-title" font-family="sans-serif" font-size="11" font-weight="bold" text-anchor="middle" transform="translate(731.5 132.5)">Strict Parsing</text>
            </g>
            <g aria-label="Y-axis for a discrete scale with 4 values: typia, @sx3/gate, ts-runtime-checks, (median)" aria-roledescription="axis" class="mark-group role-axis" pointer-events="none">
                <path d="M631.5 42.5" aria-hidden="true" class="background"/>
                <g stroke="#888" class="mark-rule role-axis-tick">
                    <path d="M631.5 49.5h-5M631.5 64.5h-5M631.5 79.5h-5M631.5 94.5h-5"/>
                </g>
                <g fill="#000" class="mark-text role-axis-label" font-family="sans-serif" font-size="10" text-anchor="end">
                    <text transform="translate(624.5 52.5)">typia</text>
                    <text transform="translate(624.5 67.5)">@sx3/gate</text>
                    <text transform="translate(624.5 82.5)">ts-runtime-checks</text>
                    <text transform="translate(624.5 97.5)">(median)</text>
                </g>
                <path stroke="#888" d="M631.5 42.5v60" class="mark-rule role-axis-domain"/>
            </g>
            <g aria-roledescription="rect mark container" class="mark-rect role-mark child__Strict_Parsing_marks">
                <path fill="#9d755d" d="M631 42.75h188.32v13.5H631Z" aria-label="Strict Parsing: 47080078; name: typia" aria-roledescription="bar"/>
                <path fill="#72b7b2" d="M631 57.75h159.74v13.5H631Z" aria-label="Strict Parsing: 39935218; name: @sx3/gate" aria-roledescription="bar"/>
                <path fill="#b279a2" d="M631 72.75h150.19v13.5H631Z" aria-label="Strict Parsing: 37547552; name: ts-runtime-checks" aria-roledescription="bar"/>
                <path fill="#4c78a8" d="M631 87.75h8.913v13.5H631Z" aria-label="Strict Parsing: 2228131; name: (median)" aria-roledescription="bar"/>
            </g>
        </g>
        <g aria-roledescription="group mark container" class="mark-group role-scope child__Loose_Assertion_group">
            <path stroke="#ddd" d="M194.5 156.5h200v60h-200Z" aria-hidden="true" class="background"/>
            <g aria-hidden="true" class="mark-group role-axis">
                <path d="M194.5 216.5" aria-hidden="true" class="background" pointer-events="none"/>
                <g stroke="#ddd" class="mark-rule role-axis-grid" pointer-events="none">
                    <path d="M194.5 216.5v-60M244.5 216.5v-60M294.5 216.5v-60M344.5 216.5v-60M394.5 216.5v-60"/>
                </g>
            </g>
            <g aria-label="X-axis titled 'Loose Assertion' for a linear scale with values from 0 to 200,000,000" aria-roledescription="axis" class="mark-group role-axis" pointer-events="none">
                <path d="M194.5 216.5" aria-hidden="true" class="background"/>
                <g stroke="#888" class="mark-rule role-axis-tick">
                    <path d="M194.5 216.5v5M244.5 216.5v5M294.5 216.5v5M344.5 216.5v5M394.5 216.5v5"/>
                </g>
                <g fill="#000" class="mark-text role-axis-label" font-family="sans-serif" font-size="10">
                    <text transform="translate(194.5 231.5)">0</text>
                    <text text-anchor="end" transform="translate(394.5 231.5)">200,000,000</text>
                </g>
                <path stroke="#888" d="M194.5 216.5h200" class="mark-rule role-axis-domain"/>
                <text fill="#000" class="mark-text role-axis-title" font-family="sans-serif" font-size="11" font-weight="bold" text-anchor="middle" transform="translate(294.5 246.5)">Loose Assertion</text>
            </g>
            <g aria-label="Y-axis for a discrete scale with 4 values: ts-runtime-checks, @sinclair/typebox-(ahead-of-time), type-predicate-generator, (median)" aria-roledescription="axis" class="mark-group role-axis" pointer-events="none">
                <path d="M194.5 156.5" aria-hidden="true" class="background"/>
                <g stroke="#888" class="mark-rule role-axis-tick">
                    <path d="M194.5 163.5h-5M194.5 178.5h-5M194.5 193.5h-5M194.5 208.5h-5"/>
                </g>
                <g fill="#000" class="mark-text role-axis-label" font-family="sans-serif" font-size="10" text-anchor="end">
                    <text transform="translate(187.5 166.5)">ts-runtime-checks</text>
                    <text transform="translate(187.5 181.5)">@sinclair/typebox-(ah…</text>
                    <text transform="translate(187.5 196.5)">type-predicate-genera…</text>
                    <text transform="translate(187.5 211.5)">(median)</text>
                </g>
                <path stroke="#888" d="M194.5 156.5v60" class="mark-rule role-axis-domain"/>
            </g>
            <g aria-roledescription="rect mark container" class="mark-rect role-mark child__Loose_Assertion_marks">
                <path fill="#b279a2" d="M194 156.75h198.23v13.5H194Z" aria-label="Loose Assertion: 198230120; name: ts-runtime-checks" aria-roledescription="bar"/>
                <path fill="#f58518" d="M194 171.75h197.929v13.5H194Z" aria-label="Loose Assertion: 197928989; name: @sinclair/typebox-(ahead-of-time)" aria-roledescription="bar"/>
                <path fill="#ff9da6" d="M194 186.75h195.617v13.5H194Z" aria-label="Loose Assertion: 195617189; name: type-predicate-generator" aria-roledescription="bar"/>
                <path fill="#4c78a8" d="M194 201.75h5.048v13.5H194Z" aria-label="Loose Assertion: 5048147; name: (median)" aria-roledescription="bar"/>
            </g>
        </g>
        <g aria-roledescription="group mark container" class="mark-group role-scope child__Strict_Assertion_group">
            <path stroke="#ddd" d="M631.5 156.5h200v60h-200Z" aria-hidden="true" class="background"/>
            <g aria-hidden="true" class="mark-group role-axis">
                <path d="M631.5 216.5" aria-hidden="true" class="background" pointer-events="none"/>
                <g stroke="#ddd" class="mark-rule role-axis-grid" pointer-events="none">
                    <path d="M631.5 216.5v-60M664.5 216.5v-60M698.5 216.5v-60M731.5 216.5v-60M764.5 216.5v-60M798.5 216.5v-60M831.5 216.5v-60"/>
                </g>
            </g>
            <g aria-label="X-axis titled 'Strict Assertion' for a linear scale with values from 0 to 60,000,000" aria-roledescription="axis" class="mark-group role-axis" pointer-events="none">
                <path d="M631.5 216.5" aria-hidden="true" class="background"/>
                <g stroke="#888" class="mark-rule role-axis-tick">
                    <path d="M631.5 216.5v5M664.5 216.5v5M698.5 216.5v5M731.5 216.5v5M764.5 216.5v5M798.5 216.5v5M831.5 216.5v5"/>
                </g>
                <g fill="#000" class="mark-text role-axis-label" font-family="sans-serif" font-size="10">
                    <text transform="translate(631.5 231.5)">0</text>
                    <text text-anchor="end" transform="translate(831.5 231.5)">60,000,000</text>
                </g>
                <path stroke="#888" d="M631.5 216.5h200" class="mark-rule role-axis-domain"/>
                <text fill="#000" class="mark-text role-axis-title" font-family="sans-serif" font-size="11" font-weight="bold" text-anchor="middle" transform="translate(731.5 246.5)">Strict Assertion</text>
            </g>
            <g aria-label="Y-axis for a discrete scale with 4 values: typia, @sinclair/typebox-(ahead-of-time), @sinclair/typebox-(just-in-time), (median)" aria-roledescription="axis" class="mark-group role-axis" pointer-events="none">
                <path d="M631.5 156.5" aria-hidden="true" class="background"/>
                <g stroke="#888" class="mark-rule role-axis-tick">
                    <path d="M631.5 163.5h-5M631.5 178.5h-5M631.5 193.5h-5M631.5 208.5h-5"/>
                </g>
                <g fill="#000" class="mark-text role-axis-label" font-family="sans-serif" font-size="10" text-anchor="end">
                    <text transform="translate(624.5 166.5)">typia</text>
                    <text transform="translate(624.5 181.5)">@sinclair/typebox-(ah…</text>
                    <text transform="translate(624.5 196.5)">@sinclair/typebox-(ju…</text>
                    <text transform="translate(624.5 211.5)">(median)</text>
                </g>
                <path stroke="#888" d="M631.5 156.5v60" class="mark-rule role-axis-domain"/>
            </g>
            <g aria-roledescription="rect mark container" class="mark-rect role-mark child__Strict_Assertion_marks">
                <path fill="#9d755d" d="M631 156.75h148.478v13.5H631Z" aria-label="Strict Assertion: 44543530; name: typia" aria-roledescription="bar"/>
                <path fill="#f58518" d="M631 171.75h189.963v13.5H631Z" aria-label="Strict Assertion: 56988952; name: @sinclair/typebox-(ahead-of-time)" aria-roledescription="bar"/>
                <path fill="#e45756" d="M631 186.75h158.705v13.5H631Z" aria-label="Strict Assertion: 47611533; name: @sinclair/typebox-(just-in-time)" aria-roledescription="bar"/>
                <path fill="#4c78a8" d="M631 201.75h8.964v13.5H631Z" aria-label="Strict Assertion: 2689227; name: (median)" aria-roledescription="bar"/>
            </g>
        </g>
        <g class="mark-group role-title">
            <path d="M421.5 5" aria-hidden="true" class="background" pointer-events="none"/>
            <text fill="#000" aria-label="Title text 'Top 3 packages for each benchmark + median, (ops count, better ⯈)'" aria-roledescription="title" class="mark-text role-title-text" font-family="sans-serif" font-size="16" pointer-events="none" text-anchor="middle" transform="translate(421.5 18)">Top 3 packages for each benchmark + median, (ops count, better ⯈)</text>
        </g>
    </g>
</svg>
