<svg xmlns="http://www.w3.org/2000/svg" class="marks" width="843" height="254">
    <path fill="#fff" d="M0 0h843v254H0z"/>
    <g class="mark-group role-frame root" aria-roledescription="group mark container" fill="none" stroke-miterlimit="10">
        <path class="background" aria-hidden="true" d="M201 42Z"/>
        <g class="mark-group role-scope child__Safe_Parsing_group" aria-roledescription="group mark container">
            <path class="background" aria-hidden="true" d="M201.5 42.5h200v60h-200Z" stroke="#ddd"/>
            <g class="mark-group role-axis" aria-roledescription="axis" aria-label="X-axis for a linear scale with values from 0 to 45,000,000">
                <path class="background" aria-hidden="true" d="M201.5 102.5Z" pointer-events="none"/>
                <g class="mark-rule role-axis-grid" pointer-events="none" stroke="#ddd">
                    <path d="M201.5 102.5v-60M245.5 102.5v-60M290.5 102.5v-60M334.5 102.5v-60M379.5 102.5v-60"/>
                </g>
            </g>
            <g pointer-events="none" class="mark-group role-axis" aria-roledescription="axis" aria-label="X-axis titled 'Safe Parsing' for a linear scale with values from 0 to 45,000,000">
                <path class="background" aria-hidden="true" d="M201.5 102.5Z"/>
                <g class="mark-rule role-axis-tick" stroke="#888">
                    <path d="M201.5 102.5v5M245.5 102.5v5M290.5 102.5v5M334.5 102.5v5M379.5 102.5v5"/>
                </g>
                <g class="mark-text role-axis-label" font-family="sans-serif" font-size="10" fill="#000">
                    <text transform="translate(201.5 117.5)">0</text>
                    <text text-anchor="middle" transform="translate(290.389 117.5)">20,000,000</text>
                    <text text-anchor="middle" transform="translate(379.278 117.5)">40,000,000</text>
                </g>
                <path stroke="#888" d="M201.5 102.5h200" class="mark-rule role-axis-domain"/>
                <text text-anchor="middle" transform="translate(301.5 132.5)" font-family="sans-serif" font-size="11" font-weight="bold" fill="#000" class="mark-text role-axis-title">Safe Parsing</text>
            </g>
            <g pointer-events="none" class="mark-group role-axis" aria-roledescription="axis" aria-label="Y-axis for a discrete scale with 4 values: rescript-struct, typia, spectypes, (median)">
                <path class="background" aria-hidden="true" d="M201.5 42.5Z"/>
                <g class="mark-rule role-axis-tick" stroke="#888">
                    <path d="M201.5 49.5h-5M201.5 64.5h-5M201.5 79.5h-5M201.5 94.5h-5"/>
                </g>
                <g class="mark-text role-axis-label" text-anchor="end" font-family="sans-serif" font-size="10" fill="#000">
                    <text transform="translate(194.5 52.5)">rescript-struct</text>
                    <text transform="translate(194.5 67.5)">typia</text>
                    <text transform="translate(194.5 82.5)">spectypes</text>
                    <text transform="translate(194.5 97.5)">(median)</text>
                </g>
                <path stroke="#888" d="M201.5 42.5v60" class="mark-rule role-axis-domain"/>
            </g>
            <g class="mark-rect role-mark child__Safe_Parsing_marks" aria-roledescription="rect mark container">
                <path d="M201 42.75h183.687v13.5H201Z" fill="#e45756"/>
                <path d="M201 57.75h79.595v13.5H201Z" fill="#eeca3b"/>
                <path d="M201 72.75h70.624v13.5H201Z" fill="#72b7b2"/>
                <path d="M201 87.75h3.289v13.5H201Z" fill="#4c78a8"/>
            </g>
        </g>
        <g class="mark-group role-scope child__Strict_Parsing_group" aria-roledescription="group mark container">
            <path class="background" aria-hidden="true" d="M584.5 42.5h200v60h-200Z" stroke="#ddd"/>
            <g class="mark-group role-axis" aria-roledescription="axis" aria-label="X-axis for a linear scale with values from 0 to 20,000,000">
                <path class="background" aria-hidden="true" d="M584.5 102.5Z" pointer-events="none"/>
                <g class="mark-rule role-axis-grid" pointer-events="none" stroke="#ddd">
                    <path d="M584.5 102.5v-60M634.5 102.5v-60M684.5 102.5v-60M734.5 102.5v-60M784.5 102.5v-60"/>
                </g>
            </g>
            <g pointer-events="none" class="mark-group role-axis" aria-roledescription="axis" aria-label="X-axis titled 'Strict Parsing' for a linear scale with values from 0 to 20,000,000">
                <path class="background" aria-hidden="true" d="M584.5 102.5Z"/>
                <g class="mark-rule role-axis-tick" stroke="#888">
                    <path d="M584.5 102.5v5M634.5 102.5v5M684.5 102.5v5M734.5 102.5v5M784.5 102.5v5"/>
                </g>
                <g class="mark-text role-axis-label" font-family="sans-serif" font-size="10" fill="#000">
                    <text transform="translate(584.5 117.5)">0</text>
                    <text text-anchor="end" transform="translate(784.5 117.5)">20,000,000</text>
                </g>
                <path stroke="#888" d="M584.5 102.5h200" class="mark-rule role-axis-domain"/>
                <text text-anchor="middle" transform="translate(684.5 132.5)" font-family="sans-serif" font-size="11" font-weight="bold" fill="#000" class="mark-text role-axis-title">Strict Parsing</text>
            </g>
            <g pointer-events="none" class="mark-group role-axis" aria-roledescription="axis" aria-label="Y-axis for a discrete scale with 4 values: ts-runtime-checks, spectypes, typia, (median)">
                <path class="background" aria-hidden="true" d="M584.5 42.5Z"/>
                <g class="mark-rule role-axis-tick" stroke="#888">
                    <path d="M584.5 49.5h-5M584.5 64.5h-5M584.5 79.5h-5M584.5 94.5h-5"/>
                </g>
                <g class="mark-text role-axis-label" text-anchor="end" font-family="sans-serif" font-size="10" fill="#000">
                    <text transform="translate(577.5 52.5)">ts-runtime-checks</text>
                    <text transform="translate(577.5 67.5)">spectypes</text>
                    <text transform="translate(577.5 82.5)">typia</text>
                    <text transform="translate(577.5 97.5)">(median)</text>
                </g>
                <path stroke="#888" d="M584.5 42.5v60" class="mark-rule role-axis-domain"/>
            </g>
            <g class="mark-rect role-mark child__Strict_Parsing_marks" aria-roledescription="rect mark container">
                <path d="M584 42.75h196.881v13.5H584Z" fill="#54a24b"/>
                <path d="M584 57.75h172.592v13.5H584Z" fill="#72b7b2"/>
                <path d="M584 72.75h172.36v13.5H584Z" fill="#eeca3b"/>
                <path d="M584 87.75h6.182v13.5H584Z" fill="#4c78a8"/>
            </g>
        </g>
        <g class="mark-group role-scope child__Loose_Assertion_group" aria-roledescription="group mark container">
            <path class="background" aria-hidden="true" d="M201.5 156.5h200v60h-200Z" stroke="#ddd"/>
            <g class="mark-group role-axis" aria-roledescription="axis" aria-label="X-axis for a linear scale with values from 0 to 120,000,000">
                <path class="background" aria-hidden="true" d="M201.5 216.5Z" pointer-events="none"/>
                <g class="mark-rule role-axis-grid" pointer-events="none" stroke="#ddd">
                    <path d="M201.5 216.5v-60M234.5 216.5v-60M268.5 216.5v-60M301.5 216.5v-60M334.5 216.5v-60M368.5 216.5v-60M401.5 216.5v-60"/>
                </g>
            </g>
            <g pointer-events="none" class="mark-group role-axis" aria-roledescription="axis" aria-label="X-axis titled 'Loose Assertion' for a linear scale with values from 0 to 120,000,000">
                <path class="background" aria-hidden="true" d="M201.5 216.5Z"/>
                <g class="mark-rule role-axis-tick" stroke="#888">
                    <path d="M201.5 216.5v5M234.5 216.5v5M268.5 216.5v5M301.5 216.5v5M334.5 216.5v5M368.5 216.5v5M401.5 216.5v5"/>
                </g>
                <g class="mark-text role-axis-label" font-family="sans-serif" font-size="10" fill="#000">
                    <text transform="translate(201.5 231.5)">0</text>
                    <text text-anchor="end" transform="translate(401.5 231.5)">120,000,000</text>
                </g>
                <path stroke="#888" d="M201.5 216.5h200" class="mark-rule role-axis-domain"/>
                <text text-anchor="middle" transform="translate(301.5 246.5)" font-family="sans-serif" font-size="11" font-weight="bold" fill="#000" class="mark-text role-axis-title">Loose Assertion</text>
            </g>
            <g pointer-events="none" class="mark-group role-axis" aria-roledescription="axis" aria-label="Y-axis for a discrete scale with 4 values: ts-runtime-checks, typia, spectypes, (median)">
                <path class="background" aria-hidden="true" d="M201.5 156.5Z"/>
                <g class="mark-rule role-axis-tick" stroke="#888">
                    <path d="M201.5 163.5h-5M201.5 178.5h-5M201.5 193.5h-5M201.5 208.5h-5"/>
                </g>
                <g class="mark-text role-axis-label" text-anchor="end" font-family="sans-serif" font-size="10" fill="#000">
                    <text transform="translate(194.5 166.5)">ts-runtime-checks</text>
                    <text transform="translate(194.5 181.5)">typia</text>
                    <text transform="translate(194.5 196.5)">spectypes</text>
                    <text transform="translate(194.5 211.5)">(median)</text>
                </g>
                <path stroke="#888" d="M201.5 156.5v60" class="mark-rule role-axis-domain"/>
            </g>
            <g class="mark-rect role-mark child__Loose_Assertion_marks" aria-roledescription="rect mark container">
                <path d="M201 156.75h188.72v13.5H201Z" fill="#54a24b"/>
                <path d="M201 171.75h153.293v13.5H201Z" fill="#eeca3b"/>
                <path d="M201 186.75h141.813v13.5H201Z" fill="#72b7b2"/>
                <path d="M201 201.75h1.339v13.5H201Z" fill="#4c78a8"/>
            </g>
        </g>
        <g class="mark-group role-scope child__Strict_Assertion_group" aria-roledescription="group mark container">
            <path class="background" aria-hidden="true" d="M584.5 156.5h200v60h-200Z" stroke="#ddd"/>
            <g class="mark-group role-axis" aria-roledescription="axis" aria-label="X-axis for a linear scale with values from 0 to 20,000,000">
                <path class="background" aria-hidden="true" d="M584.5 216.5Z" pointer-events="none"/>
                <g class="mark-rule role-axis-grid" pointer-events="none" stroke="#ddd">
                    <path d="M584.5 216.5v-60M634.5 216.5v-60M684.5 216.5v-60M734.5 216.5v-60M784.5 216.5v-60"/>
                </g>
            </g>
            <g pointer-events="none" class="mark-group role-axis" aria-roledescription="axis" aria-label="X-axis titled 'Strict Assertion' for a linear scale with values from 0 to 20,000,000">
                <path class="background" aria-hidden="true" d="M584.5 216.5Z"/>
                <g class="mark-rule role-axis-tick" stroke="#888">
                    <path d="M584.5 216.5v5M634.5 216.5v5M684.5 216.5v5M734.5 216.5v5M784.5 216.5v5"/>
                </g>
                <g class="mark-text role-axis-label" font-family="sans-serif" font-size="10" fill="#000">
                    <text transform="translate(584.5 231.5)">0</text>
                    <text text-anchor="end" transform="translate(784.5 231.5)">20,000,000</text>
                </g>
                <path stroke="#888" d="M584.5 216.5h200" class="mark-rule role-axis-domain"/>
                <text text-anchor="middle" transform="translate(684.5 246.5)" font-family="sans-serif" font-size="11" font-weight="bold" fill="#000" class="mark-text role-axis-title">Strict Assertion</text>
            </g>
            <g pointer-events="none" class="mark-group role-axis" aria-roledescription="axis" aria-label="Y-axis for a discrete scale with 4 values: @sinclair/typebox, ts-runtime-checks, spectypes, (median)">
                <path class="background" aria-hidden="true" d="M584.5 156.5Z"/>
                <g class="mark-rule role-axis-tick" stroke="#888">
                    <path d="M584.5 163.5h-5M584.5 178.5h-5M584.5 193.5h-5M584.5 208.5h-5"/>
                </g>
                <g class="mark-text role-axis-label" text-anchor="end" font-family="sans-serif" font-size="10" fill="#000">
                    <text transform="translate(577.5 166.5)">@sinclair/typebox</text>
                    <text transform="translate(577.5 181.5)">ts-runtime-checks</text>
                    <text transform="translate(577.5 196.5)">spectypes</text>
                    <text transform="translate(577.5 211.5)">(median)</text>
                </g>
                <path stroke="#888" d="M584.5 156.5v60" class="mark-rule role-axis-domain"/>
            </g>
            <g class="mark-rect role-mark child__Strict_Assertion_marks" aria-roledescription="rect mark container">
                <path d="M584 156.75h198.875v13.5H584Z" fill="#f58518"/>
                <path d="M584 171.75h198.46v13.5H584Z" fill="#54a24b"/>
                <path d="M584 186.75h164.45v13.5H584Z" fill="#72b7b2"/>
                <path d="M584 201.75h5.619v13.5H584Z" fill="#4c78a8"/>
            </g>
        </g>
        <g class="mark-group role-title">
            <path class="background" aria-hidden="true" d="M421.5 5Z" pointer-events="none"/>
            <text text-anchor="middle" transform="translate(421.5 18)" font-family="sans-serif" font-size="16" fill="#000" class="mark-text role-title-text" aria-roledescription="title" aria-label="Title text 'Top 3 packages for each benchmark + median, (ops count, better ⯈)'" pointer-events="none">Top 3 packages for each benchmark + median, (ops count, better ⯈)</text>
        </g>
    </g>
</svg>
