<svg xmlns="http://www.w3.org/2000/svg" class="marks" width="843" height="254">
    <path fill="#fff" d="M0 0h843v254H0z"/>
    <g class="mark-group role-frame root" aria-roledescription="group mark container" fill="none" stroke-miterlimit="10">
        <path class="background" aria-hidden="true" d="M178 42Z"/>
        <g class="mark-group role-scope child__Safe_Parsing_group" aria-roledescription="group mark container">
            <path class="background" aria-hidden="true" d="M178.5 42.5h200v60h-200Z" stroke="#ddd"/>
            <g class="mark-group role-axis" aria-hidden="true">
                <path class="background" aria-hidden="true" d="M178.5 102.5Z" pointer-events="none"/>
                <g class="mark-rule role-axis-grid" pointer-events="none" stroke="#ddd">
                    <path d="M178.5 102.5v-60M228.5 102.5v-60M278.5 102.5v-60M328.5 102.5v-60M378.5 102.5v-60"/>
                </g>
            </g>
            <g pointer-events="none" class="mark-group role-axis" aria-roledescription="axis" aria-label="X-axis titled 'Safe Parsing' for a linear scale with values from 0 to 40,000,000">
                <path class="background" aria-hidden="true" d="M178.5 102.5Z"/>
                <g class="mark-rule role-axis-tick" stroke="#888">
                    <path d="M178.5 102.5v5M228.5 102.5v5M278.5 102.5v5M328.5 102.5v5M378.5 102.5v5"/>
                </g>
                <g class="mark-text role-axis-label" font-family="sans-serif" font-size="10" fill="#000">
                    <text transform="translate(178.5 117.5)">0</text>
                    <text text-anchor="end" transform="translate(378.5 117.5)">40,000,000</text>
                </g>
                <path stroke="#888" d="M178.5 102.5h200" class="mark-rule role-axis-domain"/>
                <text text-anchor="middle" transform="translate(278.5 132.5)" font-family="sans-serif" font-size="11" font-weight="bold" fill="#000" class="mark-text role-axis-title">Safe Parsing</text>
            </g>
            <g pointer-events="none" class="mark-group role-axis" aria-roledescription="axis" aria-label="Y-axis for a discrete scale with 4 values: typia, spectypes, rescript-struct, (median)">
                <path class="background" aria-hidden="true" d="M178.5 42.5Z"/>
                <g class="mark-rule role-axis-tick" stroke="#888">
                    <path d="M178.5 49.5h-5M178.5 64.5h-5M178.5 79.5h-5M178.5 94.5h-5"/>
                </g>
                <g class="mark-text role-axis-label" text-anchor="end" font-family="sans-serif" font-size="10" fill="#000">
                    <text transform="translate(171.5 52.5)">typia</text>
                    <text transform="translate(171.5 67.5)">spectypes</text>
                    <text transform="translate(171.5 82.5)">rescript-struct</text>
                    <text transform="translate(171.5 97.5)">(median)</text>
                </g>
                <path stroke="#888" d="M178.5 42.5v60" class="mark-rule role-axis-domain"/>
            </g>
            <g class="mark-rect role-mark child__Safe_Parsing_marks" aria-roledescription="rect mark container">
                <path aria-label="Safe Parsing: 35008346; name: typia" aria-roledescription="bar" d="M178 42.75h175.042v13.5H178Z" fill="#eeca3b"/>
                <path aria-label="Safe Parsing: 21493294; name: spectypes" aria-roledescription="bar" d="M178 57.75h107.466v13.5H178Z" fill="#72b7b2"/>
                <path aria-label="Safe Parsing: 14177695; name: rescript-struct" aria-roledescription="bar" d="M178 72.75h70.888v13.5H178Z" fill="#e45756"/>
                <path aria-label="Safe Parsing: 971371; name: (median)" aria-roledescription="bar" d="M178 87.75h4.857v13.5H178Z" fill="#4c78a8"/>
            </g>
        </g>
        <g class="mark-group role-scope child__Strict_Parsing_group" aria-roledescription="group mark container">
            <path class="background" aria-hidden="true" d="M576.5 42.5h200v60h-200Z" stroke="#ddd"/>
            <g class="mark-group role-axis" aria-hidden="true">
                <path class="background" aria-hidden="true" d="M576.5 102.5Z" pointer-events="none"/>
                <g class="mark-rule role-axis-grid" pointer-events="none" stroke="#ddd">
                    <path d="M576.5 102.5v-60M612.5 102.5v-60M647.5 102.5v-60M683.5 102.5v-60M719.5 102.5v-60M755.5 102.5v-60"/>
                </g>
            </g>
            <g pointer-events="none" class="mark-group role-axis" aria-roledescription="axis" aria-label="X-axis titled 'Strict Parsing' for a linear scale with values from 0 to 28,000,000">
                <path class="background" aria-hidden="true" d="M576.5 102.5Z"/>
                <g class="mark-rule role-axis-tick" stroke="#888">
                    <path d="M576.5 102.5v5M612.5 102.5v5M647.5 102.5v5M683.5 102.5v5M719.5 102.5v5M755.5 102.5v5"/>
                </g>
                <g class="mark-text role-axis-label" font-family="sans-serif" font-size="10" fill="#000">
                    <text transform="translate(576.5 117.5)">0</text>
                    <text text-anchor="middle" transform="translate(755.071 117.5)">25,000,000</text>
                </g>
                <path stroke="#888" d="M576.5 102.5h200" class="mark-rule role-axis-domain"/>
                <text text-anchor="middle" transform="translate(676.5 132.5)" font-family="sans-serif" font-size="11" font-weight="bold" fill="#000" class="mark-text role-axis-title">Strict Parsing</text>
            </g>
            <g pointer-events="none" class="mark-group role-axis" aria-roledescription="axis" aria-label="Y-axis for a discrete scale with 4 values: ts-runtime-checks, typia, spectypes, (median)">
                <path class="background" aria-hidden="true" d="M576.5 42.5Z"/>
                <g class="mark-rule role-axis-tick" stroke="#888">
                    <path d="M576.5 49.5h-5M576.5 64.5h-5M576.5 79.5h-5M576.5 94.5h-5"/>
                </g>
                <g class="mark-text role-axis-label" text-anchor="end" font-family="sans-serif" font-size="10" fill="#000">
                    <text transform="translate(569.5 52.5)">ts-runtime-checks</text>
                    <text transform="translate(569.5 67.5)">typia</text>
                    <text transform="translate(569.5 82.5)">spectypes</text>
                    <text transform="translate(569.5 97.5)">(median)</text>
                </g>
                <path stroke="#888" d="M576.5 42.5v60" class="mark-rule role-axis-domain"/>
            </g>
            <g class="mark-rect role-mark child__Strict_Parsing_marks" aria-roledescription="rect mark container">
                <path aria-label="Strict Parsing: 25820698; name: ts-runtime-checks" aria-roledescription="bar" d="M576 42.75h184.434v13.5H576Z" fill="#54a24b"/>
                <path aria-label="Strict Parsing: 26261269; name: typia" aria-roledescription="bar" d="M576 57.75h187.58v13.5H576Z" fill="#eeca3b"/>
                <path aria-label="Strict Parsing: 22912996; name: spectypes" aria-roledescription="bar" d="M576 72.75h163.664v13.5H576Z" fill="#72b7b2"/>
                <path aria-label="Strict Parsing: 851245; name: (median)" aria-roledescription="bar" d="M576 87.75h6.08v13.5H576Z" fill="#4c78a8"/>
            </g>
        </g>
        <g class="mark-group role-scope child__Loose_Assertion_group" aria-roledescription="group mark container">
            <path class="background" aria-hidden="true" d="M178.5 156.5h200v60h-200Z" stroke="#ddd"/>
            <g class="mark-group role-axis" aria-hidden="true">
                <path class="background" aria-hidden="true" d="M178.5 216.5Z" pointer-events="none"/>
                <g class="mark-rule role-axis-grid" pointer-events="none" stroke="#ddd">
                    <path d="M178.5 216.5v-60M211.5 216.5v-60M245.5 216.5v-60M278.5 216.5v-60M311.5 216.5v-60M345.5 216.5v-60M378.5 216.5v-60"/>
                </g>
            </g>
            <g pointer-events="none" class="mark-group role-axis" aria-roledescription="axis" aria-label="X-axis titled 'Loose Assertion' for a linear scale with values from 0 to 120,000,000">
                <path class="background" aria-hidden="true" d="M178.5 216.5Z"/>
                <g class="mark-rule role-axis-tick" stroke="#888">
                    <path d="M178.5 216.5v5M211.5 216.5v5M245.5 216.5v5M278.5 216.5v5M311.5 216.5v5M345.5 216.5v5M378.5 216.5v5"/>
                </g>
                <g class="mark-text role-axis-label" font-family="sans-serif" font-size="10" fill="#000">
                    <text transform="translate(178.5 231.5)">0</text>
                    <text text-anchor="end" transform="translate(378.5 231.5)">120,000,000</text>
                </g>
                <path stroke="#888" d="M178.5 216.5h200" class="mark-rule role-axis-domain"/>
                <text text-anchor="middle" transform="translate(278.5 246.5)" font-family="sans-serif" font-size="11" font-weight="bold" fill="#000" class="mark-text role-axis-title">Loose Assertion</text>
            </g>
            <g pointer-events="none" class="mark-group role-axis" aria-roledescription="axis" aria-label="Y-axis for a discrete scale with 4 values: ts-runtime-checks, typia, spectypes, (median)">
                <path class="background" aria-hidden="true" d="M178.5 156.5Z"/>
                <g class="mark-rule role-axis-tick" stroke="#888">
                    <path d="M178.5 163.5h-5M178.5 178.5h-5M178.5 193.5h-5M178.5 208.5h-5"/>
                </g>
                <g class="mark-text role-axis-label" text-anchor="end" font-family="sans-serif" font-size="10" fill="#000">
                    <text transform="translate(171.5 166.5)">ts-runtime-checks</text>
                    <text transform="translate(171.5 181.5)">typia</text>
                    <text transform="translate(171.5 196.5)">spectypes</text>
                    <text transform="translate(171.5 211.5)">(median)</text>
                </g>
                <path stroke="#888" d="M178.5 156.5v60" class="mark-rule role-axis-domain"/>
            </g>
            <g class="mark-rect role-mark child__Loose_Assertion_marks" aria-roledescription="rect mark container">
                <path aria-label="Loose Assertion: 116840439; name: ts-runtime-checks" aria-roledescription="bar" d="M178 156.75h194.734v13.5H178Z" fill="#54a24b"/>
                <path aria-label="Loose Assertion: 115618856; name: typia" aria-roledescription="bar" d="M178 171.75h192.698v13.5H178Z" fill="#eeca3b"/>
                <path aria-label="Loose Assertion: 109659281; name: spectypes" aria-roledescription="bar" d="M178 186.75h182.765v13.5H178Z" fill="#72b7b2"/>
                <path aria-label="Loose Assertion: 1230402; name: (median)" aria-roledescription="bar" d="M178 201.75h2.05v13.5H178Z" fill="#4c78a8"/>
            </g>
        </g>
        <g class="mark-group role-scope child__Strict_Assertion_group" aria-roledescription="group mark container">
            <path class="background" aria-hidden="true" d="M576.5 156.5h200v60h-200Z" stroke="#ddd"/>
            <g class="mark-group role-axis" aria-hidden="true">
                <path class="background" aria-hidden="true" d="M576.5 216.5Z" pointer-events="none"/>
                <g class="mark-rule role-axis-grid" pointer-events="none" stroke="#ddd">
                    <path d="M576.5 216.5v-60M614.5 216.5v-60M653.5 216.5v-60M691.5 216.5v-60M730.5 216.5v-60M768.5 216.5v-60"/>
                </g>
            </g>
            <g pointer-events="none" class="mark-group role-axis" aria-roledescription="axis" aria-label="X-axis titled 'Strict Assertion' for a linear scale with values from 0 to 26,000,000">
                <path class="background" aria-hidden="true" d="M576.5 216.5Z"/>
                <g class="mark-rule role-axis-tick" stroke="#888">
                    <path d="M576.5 216.5v5M614.5 216.5v5M653.5 216.5v5M691.5 216.5v5M730.5 216.5v5M768.5 216.5v5"/>
                </g>
                <g class="mark-text role-axis-label" font-family="sans-serif" font-size="10" fill="#000">
                    <text transform="translate(576.5 231.5)">0</text>
                    <text text-anchor="middle" transform="translate(768.808 231.5)">25,000,000</text>
                </g>
                <path stroke="#888" d="M576.5 216.5h200" class="mark-rule role-axis-domain"/>
                <text text-anchor="middle" transform="translate(676.5 246.5)" font-family="sans-serif" font-size="11" font-weight="bold" fill="#000" class="mark-text role-axis-title">Strict Assertion</text>
            </g>
            <g pointer-events="none" class="mark-group role-axis" aria-roledescription="axis" aria-label="Y-axis for a discrete scale with 4 values: ts-runtime-checks, typia, @sinclair/typebox, (median)">
                <path class="background" aria-hidden="true" d="M576.5 156.5Z"/>
                <g class="mark-rule role-axis-tick" stroke="#888">
                    <path d="M576.5 163.5h-5M576.5 178.5h-5M576.5 193.5h-5M576.5 208.5h-5"/>
                </g>
                <g class="mark-text role-axis-label" text-anchor="end" font-family="sans-serif" font-size="10" fill="#000">
                    <text transform="translate(569.5 166.5)">ts-runtime-checks</text>
                    <text transform="translate(569.5 181.5)">typia</text>
                    <text transform="translate(569.5 196.5)">@sinclair/typebox</text>
                    <text transform="translate(569.5 211.5)">(median)</text>
                </g>
                <path stroke="#888" d="M576.5 156.5v60" class="mark-rule role-axis-domain"/>
            </g>
            <g class="mark-rect role-mark child__Strict_Assertion_marks" aria-roledescription="rect mark container">
                <path aria-label="Strict Assertion: 25272387; name: ts-runtime-checks" aria-roledescription="bar" d="M576 156.75h194.403v13.5H576Z" fill="#54a24b"/>
                <path aria-label="Strict Assertion: 23590091; name: typia" aria-roledescription="bar" d="M576 171.75h181.462v13.5H576Z" fill="#eeca3b"/>
                <path aria-label="Strict Assertion: 24989827; name: @sinclair/typebox" aria-roledescription="bar" d="M576 186.75h192.23v13.5H576Z" fill="#f58518"/>
                <path aria-label="Strict Assertion: 824798; name: (median)" aria-roledescription="bar" d="M576 201.75h6.345v13.5H576Z" fill="#4c78a8"/>
            </g>
        </g>
        <g class="mark-group role-title">
            <path class="background" aria-hidden="true" d="M421.654 5Z" pointer-events="none"/>
            <text text-anchor="middle" transform="translate(421.654 18)" font-family="sans-serif" font-size="16" fill="#000" class="mark-text role-title-text" aria-roledescription="title" aria-label="Title text 'Top 3 packages for each benchmark + median, (ops count, better ⯈)'" pointer-events="none">Top 3 packages for each benchmark + median, (ops count, better ⯈)</text>
        </g>
    </g>
</svg>
