<svg xmlns="http://www.w3.org/2000/svg" class="marks" width="1011" height="809">
    <path fill="#fff" d="M0 0h1011v809H0z"/>
    <g class="mark-group role-frame root" aria-roledescription="group mark container" fill="none" stroke-miterlimit="10">
        <path class="background" aria-hidden="true" d="M126.5 11.5h880v600h-880Z" stroke="#ddd"/>
        <g class="mark-group role-axis" aria-roledescription="axis" aria-label="Y-axis for a linear scale with values from 0 to 12,000,000">
            <path class="background" aria-hidden="true" d="M126.5 11.5Z" pointer-events="none"/>
            <g class="mark-rule role-axis-grid" pointer-events="none" stroke="#ddd">
                <path d="M126.5 611.5h880M126.5 561.5h880M126.5 511.5h880M126.5 461.5h880M126.5 411.5h880M126.5 361.5h880M126.5 311.5h880M126.5 261.5h880M126.5 211.5h880M126.5 161.5h880M126.5 111.5h880M126.5 61.5h880M126.5 11.5h880"/>
            </g>
        </g>
        <g pointer-events="none" class="mark-group role-axis" aria-roledescription="axis" aria-label="X-axis titled 'module' for a discrete scale with 11 values: ajv, bueno, computed-types, decoders, jointz, ending with zod">
            <path class="background" aria-hidden="true" d="M126.5 611.5Z"/>
            <g class="mark-rule role-axis-tick" stroke="#888">
                <path d="M166.5 611.5v5M246.5 611.5v5M326.5 611.5v5M406.5 611.5v5M486.5 611.5v5M566.5 611.5v5M646.5 611.5v5M726.5 611.5v5M806.5 611.5v5M886.5 611.5v5M966.5 611.5v5"/>
            </g>
            <g class="mark-text role-axis-label" font-family="sans-serif" font-size="14" fill="#000">
                <text transform="rotate(90 -228.25 390.25)">ajv</text>
                <text transform="rotate(90 -188.25 430.25)">bueno</text>
                <text transform="rotate(90 -148.25 470.25)">computed-types</text>
                <text transform="rotate(90 -108.25 510.25)">decoders</text>
                <text transform="rotate(90 -68.25 550.25)">jointz</text>
                <text transform="rotate(90 -28.25 590.25)">myzod</text>
                <text transform="rotate(90 11.75 630.25)">simple-runtypes</text>
                <text transform="rotate(90 51.75 670.25)">superstruct</text>
                <text transform="rotate(90 91.75 710.25)">toi</text>
                <text transform="rotate(90 131.75 750.25)">valita</text>
                <text transform="rotate(90 171.75 790.25)">zod</text>
            </g>
            <path stroke="#888" d="M126.5 611.5h880" class="mark-rule role-axis-domain"/>
            <text text-anchor="middle" transform="translate(566.5 801.5)" font-family="sans-serif" font-size="14" fill="#000" class="mark-text role-axis-title">module</text>
        </g>
        <g pointer-events="none" class="mark-group role-axis" aria-roledescription="axis" aria-label="Y-axis titled 'operations / sec' for a linear scale with values from 0 to 12,000,000">
            <path class="background" aria-hidden="true" d="M126.5 11.5Z"/>
            <g class="mark-rule role-axis-tick" stroke="#888">
                <path d="M126.5 611.5h-5M126.5 561.5h-5M126.5 511.5h-5M126.5 461.5h-5M126.5 411.5h-5M126.5 361.5h-5M126.5 311.5h-5M126.5 261.5h-5M126.5 211.5h-5M126.5 161.5h-5M126.5 111.5h-5M126.5 61.5h-5M126.5 11.5h-5"/>
            </g>
            <g class="mark-text role-axis-label" text-anchor="end" font-family="sans-serif" font-size="12" fill="#000">
                <text transform="translate(119.5 615.5)">0</text>
                <text transform="translate(119.5 565.5)">1,000,000</text>
                <text transform="translate(119.5 515.5)">2,000,000</text>
                <text transform="translate(119.5 465.5)">3,000,000</text>
                <text transform="translate(119.5 415.5)">4,000,000</text>
                <text transform="translate(119.5 365.5)">5,000,000</text>
                <text transform="translate(119.5 315.5)">6,000,000</text>
                <text transform="translate(119.5 265.5)">7,000,000</text>
                <text transform="translate(119.5 215.5)">8,000,000</text>
                <text transform="translate(119.5 165.5)">9,000,000</text>
                <text transform="translate(119.5 115.5)">10,000,000</text>
                <text transform="translate(119.5 65.5)">11,000,000</text>
                <text transform="translate(119.5 15.5)">12,000,000</text>
            </g>
            <path stroke="#888" d="M126.5 611.5v-600" class="mark-rule role-axis-domain"/>
            <text text-anchor="middle" transform="rotate(-90 164 147.5)" font-family="sans-serif" font-size="14" fill="#000" class="mark-text role-axis-title">operations / sec</text>
        </g>
        <g class="mark-rect role-mark marks" aria-roledescription="rect mark container" fill="#4c78a8">
            <path d="M130 50.653h72V611h-72ZM210 595.29h72V611h-72ZM290 576.212h72V611h-72ZM370 604.04h72V611h-72ZM450 574.008h72V611h-72ZM530 536.576h72V611h-72ZM610 523.333h72V611h-72ZM690 605.646h72V611h-72ZM770 580.893h72V611h-72ZM850 473.56h72V611h-72ZM930 588.534h72V611h-72Z"/>
        </g>
    </g>
</svg>
