<svg class="marks" width="987" height="812" xmlns="http://www.w3.org/2000/svg">
    <path fill="#fff" d="M0 0h987v812H0z"/>
    <g class="mark-group role-frame root">
        <path class="background" d="M102.5 5.5h880v600h-880z" fill="none" stroke="#ddd"/>
        <g class="mark-group role-axis">
            <path class="background" d="M102.5 5.5z" pointer-events="none" fill="none"/>
            <g class="mark-rule role-axis-grid" pointer-events="none" fill="none" stroke="#ddd">
                <path d="M102.5 605.5h880M102.5 571.5h880M102.5 536.5h880M102.5 502.5h880M102.5 468.5h880M102.5 434.5h880M102.5 399.5h880M102.5 365.5h880M102.5 331.5h880M102.5 296.5h880M102.5 262.5h880M102.5 228.5h880M102.5 194.5h880M102.5 159.5h880M102.5 125.5h880M102.5 91.5h880M102.5 56.5h880M102.5 22.5h880"/>
            </g>
        </g>
        <g class="mark-group role-axis">
            <path class="background" d="M102.5 605.5z" pointer-events="none" fill="none"/>
            <g class="mark-rule role-axis-tick" pointer-events="none" fill="none" stroke="#888">
                <path d="M138.5 605.5v5M212.5 605.5v5M285.5 605.5v5M358.5 605.5v5M432.5 605.5v5M505.5 605.5v5M578.5 605.5v5M652.5 605.5v5M725.5 605.5v5M798.5 605.5v5M872.5 605.5v5M945.5 605.5v5"/>
            </g>
            <g class="mark-text role-axis-label" pointer-events="none" font-family="sans-serif" font-size="14">
                <text transform="rotate(90 -238.917 373.583)">
                    class-transformer-valid…
                </text>
                <text transform="rotate(90 -202.25 410.25)">
                    class-transformer-valid…
                </text>
                <text transform="rotate(90 -165.583 446.917)">
                    funval
                </text>
                <text transform="rotate(90 -128.917 483.583)">
                    io-ts
                </text>
                <text transform="rotate(90 -92.25 520.25)">
                    json-decoder
                </text>
                <text transform="rotate(90 -55.583 556.917)">
                    marshal
                </text>
                <text transform="rotate(90 -18.917 593.583)">
                    purify-ts
                </text>
                <text transform="rotate(90 17.75 630.25)">
                    runtypes
                </text>
                <text transform="rotate(90 54.417 666.917)">
                    toi
                </text>
                <text transform="rotate(90 91.083 703.583)">
                    ts-json-validator
                </text>
                <text transform="rotate(90 127.75 740.25)">
                    ts-utils
                </text>
                <text transform="rotate(90 164.417 776.917)">
                    zod
                </text>
            </g>
            <path fill="none" stroke="#888" d="M102.5 605.5h880" pointer-events="none"/>
            <text text-anchor="middle" transform="translate(542.5 804.5)" font-family="sans-serif" font-size="14" font-weight="400" pointer-events="none">
                module
            </text>
        </g>
        <g class="mark-group role-axis">
            <path class="background" d="M102.5 5.5z" pointer-events="none" fill="none"/>
            <g class="mark-rule role-axis-tick" pointer-events="none" fill="none" stroke="#888">
                <path d="M102.5 605.5h-5M102.5 571.5h-5M102.5 536.5h-5M102.5 502.5h-5M102.5 468.5h-5M102.5 434.5h-5M102.5 399.5h-5M102.5 365.5h-5M102.5 331.5h-5M102.5 296.5h-5M102.5 262.5h-5M102.5 228.5h-5M102.5 194.5h-5M102.5 159.5h-5M102.5 125.5h-5M102.5 91.5h-5M102.5 56.5h-5M102.5 22.5h-5"/>
            </g>
            <g class="mark-text role-axis-label" pointer-events="none" text-anchor="end" font-family="sans-serif" font-size="12">
                <text transform="translate(95.5 609.5)">
                    0
                </text>
                <text transform="translate(95.5 575.214)">
                    2,000,000
                </text>
                <text transform="translate(95.5 540.929)">
                    4,000,000
                </text>
                <text transform="translate(95.5 506.643)">
                    6,000,000
                </text>
                <text transform="translate(95.5 472.357)">
                    8,000,000
                </text>
                <text transform="translate(95.5 438.071)">
                    10,000,000
                </text>
                <text transform="translate(95.5 403.786)">
                    12,000,000
                </text>
                <text transform="translate(95.5 369.5)">
                    14,000,000
                </text>
                <text transform="translate(95.5 335.214)">
                    16,000,000
                </text>
                <text transform="translate(95.5 300.929)">
                    18,000,000
                </text>
                <text transform="translate(95.5 266.643)">
                    20,000,000
                </text>
                <text transform="translate(95.5 232.357)">
                    22,000,000
                </text>
                <text transform="translate(95.5 198.071)">
                    24,000,000
                </text>
                <text transform="translate(95.5 163.786)">
                    26,000,000
                </text>
                <text transform="translate(95.5 129.5)">
                    28,000,000
                </text>
                <text transform="translate(95.5 95.214)">
                    30,000,000
                </text>
                <text transform="translate(95.5 60.929)">
                    32,000,000
                </text>
                <text transform="translate(95.5 26.643)">
                    34,000,000
                </text>
            </g>
            <path fill="none" stroke="#888" d="M102.5 605.5V5.5" pointer-events="none"/>
            <text text-anchor="middle" transform="rotate(-90 161 144.5)" font-family="sans-serif" font-size="14" font-weight="400" pointer-events="none">
                operations / sec
            </text>
        </g>
        <g class="mark-rect role-mark marks" fill="#4c78a8">
            <path d="M105.667 604.544h66V605h-66zM179 604.365h66V605h-66zM252.333 592.287h66V605h-66zM325.667 562.672h66V605h-66zM399 594.343h66V605h-66zM472.333 543.834h66V605h-66zM545.667 593.786h66V605h-66zM619 593.762h66V605h-66zM692.333 598.43h66V605h-66zM765.667 63.384h66V605h-66zM839 603.19h66V605h-66zM912.333 604.134h66V605h-66z"/>
        </g>
    </g>
</svg>

