<svg class="marks" width="1027" height="741" xmlns="http://www.w3.org/2000/svg">
    <path fill="#fff" d="M0 0h1027v741H0z"/>
    <g class="mark-group role-frame root">
        <path class="background" d="M94.5 11.5h880v600h-880z" fill="none" stroke="#ddd"/>
        <g class="mark-group role-axis">
            <path class="background" d="M94.5 11.5z" pointer-events="none" fill="none"/>
            <g class="mark-rule role-axis-grid" pointer-events="none" fill="none" stroke="#ddd">
                <path d="M94.5 611.5h880M94.5 565.5h880M94.5 519.5h880M94.5 473.5h880M94.5 426.5h880M94.5 380.5h880M94.5 334.5h880M94.5 288.5h880M94.5 242.5h880M94.5 196.5h880M94.5 149.5h880M94.5 103.5h880M94.5 57.5h880M94.5 11.5h880"/>
            </g>
        </g>
        <g class="mark-group role-axis">
            <path class="background" d="M94.5 611.5z" pointer-events="none" fill="none"/>
            <g class="mark-rule role-axis-tick" pointer-events="none" fill="none" stroke="#888">
                <path d="M156.5 611.5v5M282.5 611.5v5M408.5 611.5v5M533.5 611.5v5M659.5 611.5v5M785.5 611.5v5M911.5 611.5v5"/>
            </g>
            <g class="mark-text role-axis-label" pointer-events="none" font-family="sans-serif" font-size="16">
                <text transform="rotate(30 -1099.966 595.45)">
                    class-transformer-v…
                </text>
                <text transform="rotate(30 -1037.11 830.035)">
                    class-transformer-v…
                </text>
                <text transform="rotate(30 -974.252 1064.622)">
                    io-ts
                </text>
                <text transform="rotate(30 -911.395 1299.208)">
                    marshal
                </text>
                <text transform="rotate(30 -848.538 1533.794)">
                    runtypes
                </text>
                <text transform="rotate(30 -785.68 1768.38)">
                    toi
                </text>
                <text transform="rotate(30 -722.824 2002.966)">
                    ts-json-validator
                </text>
            </g>
            <path fill="none" stroke="#888" d="M94.5 611.5h880" pointer-events="none"/>
            <text text-anchor="middle" transform="translate(534.5 733.356)" font-family="sans-serif" font-size="14" font-weight="400" pointer-events="none">
                module
            </text>
        </g>
        <g class="mark-group role-axis">
            <path class="background" d="M94.5 11.5z" pointer-events="none" fill="none"/>
            <g class="mark-rule role-axis-tick" pointer-events="none" fill="none" stroke="#888">
                <path d="M94.5 611.5h-5M94.5 565.5h-5M94.5 519.5h-5M94.5 473.5h-5M94.5 426.5h-5M94.5 380.5h-5M94.5 334.5h-5M94.5 288.5h-5M94.5 242.5h-5M94.5 196.5h-5M94.5 149.5h-5M94.5 103.5h-5M94.5 57.5h-5M94.5 11.5h-5"/>
            </g>
            <g class="mark-text role-axis-label" pointer-events="none" text-anchor="end" font-family="sans-serif" font-size="12">
                <text transform="translate(87.5 615.5)">
                    0
                </text>
                <text transform="translate(87.5 569.346)">
                    500,000
                </text>
                <text transform="translate(87.5 523.192)">
                    1,000,000
                </text>
                <text transform="translate(87.5 477.038)">
                    1,500,000
                </text>
                <text transform="translate(87.5 430.885)">
                    2,000,000
                </text>
                <text transform="translate(87.5 384.73)">
                    2,500,000
                </text>
                <text transform="translate(87.5 338.577)">
                    3,000,000
                </text>
                <text transform="translate(87.5 292.423)">
                    3,500,000
                </text>
                <text transform="translate(87.5 246.27)">
                    4,000,000
                </text>
                <text transform="translate(87.5 200.115)">
                    4,500,000
                </text>
                <text transform="translate(87.5 153.962)">
                    5,000,000
                </text>
                <text transform="translate(87.5 107.808)">
                    5,500,000
                </text>
                <text transform="translate(87.5 61.654)">
                    6,000,000
                </text>
                <text transform="translate(87.5 15.5)">
                    6,500,000
                </text>
            </g>
            <path fill="none" stroke="#888" d="M94.5 611.5v-600" pointer-events="none"/>
            <text text-anchor="middle" transform="rotate(-90 164 147.5)" font-family="sans-serif" font-size="14" font-weight="400" pointer-events="none">
                operations / sec
            </text>
        </g>
        <g class="mark-rect role-mark marks" fill="#4c78a8">
            <path d="M100.286 608.862h113.143V611H100.286zM226 607.375h113.143V611H226zM351.714 548.4h113.143V611H351.714zM477.429 29.03H590.57V611H477.43zM603.143 502.47h113.143V611H603.143zM728.857 589.14H842V611H728.857zM854.571 602.554h113.143V611H854.571z"/>
        </g>
    </g>
</svg>

