<svg class="marks" width="967" height="740" viewBox="0 0 967 740" version="1.1" xmlns="http://www.w3.org/2000/svg" xmlns:xlink="http://www.w3.org/1999/xlink"><g transform="translate(82,11)"><g class="mark-group role-frame root"><g transform="translate(0,0)"><path class="background" d="M0.5,0.5h880v600h-880Z" style="fill: none; stroke: #ddd;"></path><g><g class="mark-group role-axis"><g transform="translate(0.5,0.5)"><path class="background" d="M0,0h0v0h0Z" style="pointer-events: none; fill: none;"></path><g><g class="mark-rule role-axis-grid" style="pointer-events: none;"><line transform="translate(0,600)" x2="880" y2="0" style="fill: none; stroke: #ddd; stroke-width: 1; opacity: 1;"></line><line transform="translate(0,540)" x2="880" y2="0" style="fill: none; stroke: #ddd; stroke-width: 1; opacity: 1;"></line><line transform="translate(0,480)" x2="880" y2="0" style="fill: none; stroke: #ddd; stroke-width: 1; opacity: 1;"></line><line transform="translate(0,420)" x2="880" y2="0" style="fill: none; stroke: #ddd; stroke-width: 1; opacity: 1;"></line><line transform="translate(0,360)" x2="880" y2="0" style="fill: none; stroke: #ddd; stroke-width: 1; opacity: 1;"></line><line transform="translate(0,300)" x2="880" y2="0" style="fill: none; stroke: #ddd; stroke-width: 1; opacity: 1;"></line><line transform="translate(0,240)" x2="880" y2="0" style="fill: none; stroke: #ddd; stroke-width: 1; opacity: 1;"></line><line transform="translate(0,180)" x2="880" y2="0" style="fill: none; stroke: #ddd; stroke-width: 1; opacity: 1;"></line><line transform="translate(0,120)" x2="880" y2="0" style="fill: none; stroke: #ddd; stroke-width: 1; opacity: 1;"></line><line transform="translate(0,60)" x2="880" y2="0" style="fill: none; stroke: #ddd; stroke-width: 1; opacity: 1;"></line><line transform="translate(0,0)" x2="880" y2="0" style="fill: none; stroke: #ddd; stroke-width: 1; opacity: 1;"></line></g></g></g></g><g class="mark-group role-axis"><g transform="translate(0.5,600.5)"><path class="background" d="M0,0h0v0h0Z" style="pointer-events: none; fill: none;"></path><g><g class="mark-rule role-axis-tick" style="pointer-events: none;"><line transform="translate(87,0)" x2="0" y2="5" style="fill: none; stroke: #888; stroke-width: 1; opacity: 1;"></line><line transform="translate(263,0)" x2="0" y2="5" style="fill: none; stroke: #888; stroke-width: 1; opacity: 1;"></line><line transform="translate(439,0)" x2="0" y2="5" style="fill: none; stroke: #888; stroke-width: 1; opacity: 1;"></line><line transform="translate(615,0)" x2="0" y2="5" style="fill: none; stroke: #888; stroke-width: 1; opacity: 1;"></line><line transform="translate(791,0)" x2="0" y2="5" style="fill: none; stroke: #888; stroke-width: 1; opacity: 1;"></line></g><g class="mark-text role-axis-label" style="pointer-events: none;"><text text-anchor="start" transform="translate(86.99999999999996,7) rotate(30) translate(0,13)" style="font-family: sans-serif; font-size: 16px; fill: #000; opacity: 1;">JSON Encode Decode</text><text text-anchor="start" transform="translate(262.99999999999994,7) rotate(30) translate(0,13)" style="font-family: sans-serif; font-size: 16px; fill: #000; opacity: 1;">class-validator async</text><text text-anchor="start" transform="translate(438.99999999999994,7) rotate(30) translate(0,13)" style="font-family: sans-serif; font-size: 16px; fill: #000; opacity: 1;">class-validator sync</text><text text-anchor="start" transform="translate(615,7) rotate(30) translate(0,13)" style="font-family: sans-serif; font-size: 16px; fill: #000; opacity: 1;">io-ts</text><text text-anchor="start" transform="translate(791,7) rotate(30) translate(0,13)" style="font-family: sans-serif; font-size: 16px; fill: #000; opacity: 1;">runtypes</text></g><g class="mark-rule role-axis-domain" style="pointer-events: none;"><line transform="translate(0,0)" x2="880" y2="0" style="fill: none; stroke: #888; stroke-width: 1; opacity: 1;"></line></g><g class="mark-text role-axis-title" style="pointer-events: none;"><text text-anchor="middle" transform="translate(440,120.85640646055097)" style="font-family: sans-serif; font-size: 14px; font-weight: normal; fill: #000; opacity: 1;">method / module</text></g></g></g></g><g class="mark-group role-axis"><g transform="translate(0.5,0.5)"><path class="background" d="M0,0h0v0h0Z" style="pointer-events: none; fill: none;"></path><g><g class="mark-rule role-axis-tick" style="pointer-events: none;"><line transform="translate(0,600)" x2="-5" y2="0" style="fill: none; stroke: #888; stroke-width: 1; opacity: 1;"></line><line transform="translate(0,540)" x2="-5" y2="0" style="fill: none; stroke: #888; stroke-width: 1; opacity: 1;"></line><line transform="translate(0,480)" x2="-5" y2="0" style="fill: none; stroke: #888; stroke-width: 1; opacity: 1;"></line><line transform="translate(0,420)" x2="-5" y2="0" style="fill: none; stroke: #888; stroke-width: 1; opacity: 1;"></line><line transform="translate(0,360)" x2="-5" y2="0" style="fill: none; stroke: #888; stroke-width: 1; opacity: 1;"></line><line transform="translate(0,300)" x2="-5" y2="0" style="fill: none; stroke: #888; stroke-width: 1; opacity: 1;"></line><line transform="translate(0,240)" x2="-5" y2="0" style="fill: none; stroke: #888; stroke-width: 1; opacity: 1;"></line><line transform="translate(0,180)" x2="-5" y2="0" style="fill: none; stroke: #888; stroke-width: 1; opacity: 1;"></line><line transform="translate(0,120)" x2="-5" y2="0" style="fill: none; stroke: #888; stroke-width: 1; opacity: 1;"></line><line transform="translate(0,60)" x2="-5" y2="0" style="fill: none; stroke: #888; stroke-width: 1; opacity: 1;"></line><line transform="translate(0,0)" x2="-5" y2="0" style="fill: none; stroke: #888; stroke-width: 1; opacity: 1;"></line></g><g class="mark-text role-axis-label" style="pointer-events: none;"><text text-anchor="end" transform="translate(-7,604)" style="font-family: sans-serif; font-size: 12px; fill: #000; opacity: 1;">0</text><text text-anchor="end" transform="translate(-7,544)" style="font-family: sans-serif; font-size: 12px; fill: #000; opacity: 1;">50,000</text><text text-anchor="end" transform="translate(-7,484)" style="font-family: sans-serif; font-size: 12px; fill: #000; opacity: 1;">100,000</text><text text-anchor="end" transform="translate(-7,424)" style="font-family: sans-serif; font-size: 12px; fill: #000; opacity: 1;">150,000</text><text text-anchor="end" transform="translate(-7,364)" style="font-family: sans-serif; font-size: 12px; fill: #000; opacity: 1;">200,000</text><text text-anchor="end" transform="translate(-7,304)" style="font-family: sans-serif; font-size: 12px; fill: #000; opacity: 1;">250,000</text><text text-anchor="end" transform="translate(-7,244)" style="font-family: sans-serif; font-size: 12px; fill: #000; opacity: 1;">300,000</text><text text-anchor="end" transform="translate(-7,184)" style="font-family: sans-serif; font-size: 12px; fill: #000; opacity: 1;">350,000</text><text text-anchor="end" transform="translate(-7,124)" style="font-family: sans-serif; font-size: 12px; fill: #000; opacity: 1;">400,000</text><text text-anchor="end" transform="translate(-7,64)" style="font-family: sans-serif; font-size: 12px; fill: #000; opacity: 1;">450,000</text><text text-anchor="end" transform="translate(-7,4)" style="font-family: sans-serif; font-size: 12px; fill: #000; opacity: 1;">500,000</text></g><g class="mark-rule role-axis-domain" style="pointer-events: none;"><line transform="translate(0,600)" x2="0" y2="-600" style="fill: none; stroke: #888; stroke-width: 1; opacity: 1;"></line></g><g class="mark-text role-axis-title" style="pointer-events: none;"><text text-anchor="middle" transform="translate(-63,300) rotate(-90) translate(0,-3)" style="font-family: sans-serif; font-size: 14px; font-weight: normal; fill: #000; opacity: 1;">hertz (operations / sec)</text></g></g></g></g><g class="mark-rect role-mark marks"><path d="M8.799999999999955,473.0625655795216h158.4v126.93743442047838h-158.4Z" style="fill: #4c78a8;"></path><path d="M712.8,539.3242233691227h158.4v60.675776630877294h-158.4Z" style="fill: #4c78a8;"></path><path d="M536.8,50.27957649702637h158.4v549.7204235029736h-158.4Z" style="fill: #4c78a8;"></path><path d="M360.79999999999995,520.6816830395101h158.4v79.31831696048994h-158.4Z" style="fill: #4c78a8;"></path><path d="M184.79999999999995,540.0379038833969h158.4v59.96209611660311h-158.4Z" style="fill: #4c78a8;"></path></g></g></g></g></g></svg>