<svg class="marks" width="979" height="740" viewBox="0 0 979 740" version="1.1" xmlns="http://www.w3.org/2000/svg" xmlns:xlink="http://www.w3.org/1999/xlink"><g transform="translate(94,11)"><g class="mark-group role-frame root"><g transform="translate(0,0)"><path class="background" d="M0.5,0.5h880v600h-880Z" style="fill: none; stroke: #ddd;"></path><g><g class="mark-group role-axis"><g transform="translate(0.5,0.5)"><path class="background" d="M0,0h0v0h0Z" style="pointer-events: none; fill: none;"></path><g><g class="mark-rule role-axis-grid" style="pointer-events: none;"><line transform="translate(0,600)" x2="880" y2="0" style="fill: none; stroke: #ddd; stroke-width: 1; opacity: 1;"></line><line transform="translate(0,567)" x2="880" y2="0" style="fill: none; stroke: #ddd; stroke-width: 1; opacity: 1;"></line><line transform="translate(0,533)" x2="880" y2="0" style="fill: none; stroke: #ddd; stroke-width: 1; opacity: 1;"></line><line transform="translate(0,500)" x2="880" y2="0" style="fill: none; stroke: #ddd; stroke-width: 1; opacity: 1;"></line><line transform="translate(0,467)" x2="880" y2="0" style="fill: none; stroke: #ddd; stroke-width: 1; opacity: 1;"></line><line transform="translate(0,433)" x2="880" y2="0" style="fill: none; stroke: #ddd; stroke-width: 1; opacity: 1;"></line><line transform="translate(0,400)" x2="880" y2="0" style="fill: none; stroke: #ddd; stroke-width: 1; opacity: 1;"></line><line transform="translate(0,367)" x2="880" y2="0" style="fill: none; stroke: #ddd; stroke-width: 1; opacity: 1;"></line><line transform="translate(0,333)" x2="880" y2="0" style="fill: none; stroke: #ddd; stroke-width: 1; opacity: 1;"></line><line transform="translate(0,300)" x2="880" y2="0" style="fill: none; stroke: #ddd; stroke-width: 1; opacity: 1;"></line><line transform="translate(0,267)" x2="880" y2="0" style="fill: none; stroke: #ddd; stroke-width: 1; opacity: 1;"></line><line transform="translate(0,233)" x2="880" y2="0" style="fill: none; stroke: #ddd; stroke-width: 1; opacity: 1;"></line><line transform="translate(0,200)" x2="880" y2="0" style="fill: none; stroke: #ddd; stroke-width: 1; opacity: 1;"></line><line transform="translate(0,167)" x2="880" y2="0" style="fill: none; stroke: #ddd; stroke-width: 1; opacity: 1;"></line><line transform="translate(0,133)" x2="880" y2="0" style="fill: none; stroke: #ddd; stroke-width: 1; opacity: 1;"></line><line transform="translate(0,100)" x2="880" y2="0" style="fill: none; stroke: #ddd; stroke-width: 1; opacity: 1;"></line><line transform="translate(0,67)" x2="880" y2="0" style="fill: none; stroke: #ddd; stroke-width: 1; opacity: 1;"></line><line transform="translate(0,33)" x2="880" y2="0" style="fill: none; stroke: #ddd; stroke-width: 1; opacity: 1;"></line><line transform="translate(0,0)" x2="880" y2="0" style="fill: none; stroke: #ddd; stroke-width: 1; opacity: 1;"></line></g></g></g></g><g class="mark-group role-axis"><g transform="translate(0.5,600.5)"><path class="background" d="M0,0h0v0h0Z" style="pointer-events: none; fill: none;"></path><g><g class="mark-rule role-axis-tick" style="pointer-events: none;"><line transform="translate(87,0)" x2="0" y2="5" style="fill: none; stroke: #888; stroke-width: 1; opacity: 1;"></line><line transform="translate(263,0)" x2="0" y2="5" style="fill: none; stroke: #888; stroke-width: 1; opacity: 1;"></line><line transform="translate(439,0)" x2="0" y2="5" style="fill: none; stroke: #888; stroke-width: 1; opacity: 1;"></line><line transform="translate(615,0)" x2="0" y2="5" style="fill: none; stroke: #888; stroke-width: 1; opacity: 1;"></line><line transform="translate(791,0)" x2="0" y2="5" style="fill: none; stroke: #888; stroke-width: 1; opacity: 1;"></line></g><g class="mark-text role-axis-label" style="pointer-events: none;"><text text-anchor="start" transform="translate(86.99999999999996,7) rotate(30) translate(0,13)" style="font-family: sans-serif; font-size: 16px; fill: #000; opacity: 1;">JSON Encode Decode</text><text text-anchor="start" transform="translate(262.99999999999994,7) rotate(30) translate(0,13)" style="font-family: sans-serif; font-size: 16px; fill: #000; opacity: 1;">class-validator async</text><text text-anchor="start" transform="translate(438.99999999999994,7) rotate(30) translate(0,13)" style="font-family: sans-serif; font-size: 16px; fill: #000; opacity: 1;">class-validator sync</text><text text-anchor="start" transform="translate(615,7) rotate(30) translate(0,13)" style="font-family: sans-serif; font-size: 16px; fill: #000; opacity: 1;">io-ts</text><text text-anchor="start" transform="translate(791,7) rotate(30) translate(0,13)" style="font-family: sans-serif; font-size: 16px; fill: #000; opacity: 1;">runtypes</text></g><g class="mark-rule role-axis-domain" style="pointer-events: none;"><line transform="translate(0,0)" x2="880" y2="0" style="fill: none; stroke: #888; stroke-width: 1; opacity: 1;"></line></g><g class="mark-text role-axis-title" style="pointer-events: none;"><text text-anchor="middle" transform="translate(440,120.85640646055097)" style="font-family: sans-serif; font-size: 14px; font-weight: normal; fill: #000; opacity: 1;">method / module</text></g></g></g></g><g class="mark-group role-axis"><g transform="translate(0.5,0.5)"><path class="background" d="M0,0h0v0h0Z" style="pointer-events: none; fill: none;"></path><g><g class="mark-rule role-axis-tick" style="pointer-events: none;"><line transform="translate(0,600)" x2="-5" y2="0" style="fill: none; stroke: #888; stroke-width: 1; opacity: 1;"></line><line transform="translate(0,567)" x2="-5" y2="0" style="fill: none; stroke: #888; stroke-width: 1; opacity: 1;"></line><line transform="translate(0,533)" x2="-5" y2="0" style="fill: none; stroke: #888; stroke-width: 1; opacity: 1;"></line><line transform="translate(0,500)" x2="-5" y2="0" style="fill: none; stroke: #888; stroke-width: 1; opacity: 1;"></line><line transform="translate(0,467)" x2="-5" y2="0" style="fill: none; stroke: #888; stroke-width: 1; opacity: 1;"></line><line transform="translate(0,433)" x2="-5" y2="0" style="fill: none; stroke: #888; stroke-width: 1; opacity: 1;"></line><line transform="translate(0,400)" x2="-5" y2="0" style="fill: none; stroke: #888; stroke-width: 1; opacity: 1;"></line><line transform="translate(0,367)" x2="-5" y2="0" style="fill: none; stroke: #888; stroke-width: 1; opacity: 1;"></line><line transform="translate(0,333)" x2="-5" y2="0" style="fill: none; stroke: #888; stroke-width: 1; opacity: 1;"></line><line transform="translate(0,300)" x2="-5" y2="0" style="fill: none; stroke: #888; stroke-width: 1; opacity: 1;"></line><line transform="translate(0,267)" x2="-5" y2="0" style="fill: none; stroke: #888; stroke-width: 1; opacity: 1;"></line><line transform="translate(0,233)" x2="-5" y2="0" style="fill: none; stroke: #888; stroke-width: 1; opacity: 1;"></line><line transform="translate(0,200)" x2="-5" y2="0" style="fill: none; stroke: #888; stroke-width: 1; opacity: 1;"></line><line transform="translate(0,167)" x2="-5" y2="0" style="fill: none; stroke: #888; stroke-width: 1; opacity: 1;"></line><line transform="translate(0,133)" x2="-5" y2="0" style="fill: none; stroke: #888; stroke-width: 1; opacity: 1;"></line><line transform="translate(0,100)" x2="-5" y2="0" style="fill: none; stroke: #888; stroke-width: 1; opacity: 1;"></line><line transform="translate(0,67)" x2="-5" y2="0" style="fill: none; stroke: #888; stroke-width: 1; opacity: 1;"></line><line transform="translate(0,33)" x2="-5" y2="0" style="fill: none; stroke: #888; stroke-width: 1; opacity: 1;"></line><line transform="translate(0,0)" x2="-5" y2="0" style="fill: none; stroke: #888; stroke-width: 1; opacity: 1;"></line></g><g class="mark-text role-axis-label" style="pointer-events: none;"><text text-anchor="end" transform="translate(-7,604)" style="font-family: sans-serif; font-size: 12px; fill: #000; opacity: 1;">0</text><text text-anchor="end" transform="translate(-7,570.6666666666666)" style="font-family: sans-serif; font-size: 12px; fill: #000; opacity: 1;">100,000</text><text text-anchor="end" transform="translate(-7,537.3333333333334)" style="font-family: sans-serif; font-size: 12px; fill: #000; opacity: 1;">200,000</text><text text-anchor="end" transform="translate(-7,504)" style="font-family: sans-serif; font-size: 12px; fill: #000; opacity: 1;">300,000</text><text text-anchor="end" transform="translate(-7,470.6666666666667)" style="font-family: sans-serif; font-size: 12px; fill: #000; opacity: 1;">400,000</text><text text-anchor="end" transform="translate(-7,437.3333333333333)" style="font-family: sans-serif; font-size: 12px; fill: #000; opacity: 1;">500,000</text><text text-anchor="end" transform="translate(-7,404)" style="font-family: sans-serif; font-size: 12px; fill: #000; opacity: 1;">600,000</text><text text-anchor="end" transform="translate(-7,370.66666666666663)" style="font-family: sans-serif; font-size: 12px; fill: #000; opacity: 1;">700,000</text><text text-anchor="end" transform="translate(-7,337.33333333333337)" style="font-family: sans-serif; font-size: 12px; fill: #000; opacity: 1;">800,000</text><text text-anchor="end" transform="translate(-7,304)" style="font-family: sans-serif; font-size: 12px; fill: #000; opacity: 1;">900,000</text><text text-anchor="end" transform="translate(-7,270.66666666666663)" style="font-family: sans-serif; font-size: 12px; fill: #000; opacity: 1;">1,000,000</text><text text-anchor="end" transform="translate(-7,237.33333333333331)" style="font-family: sans-serif; font-size: 12px; fill: #000; opacity: 1;">1,100,000</text><text text-anchor="end" transform="translate(-7,204)" style="font-family: sans-serif; font-size: 12px; fill: #000; opacity: 1;">1,200,000</text><text text-anchor="end" transform="translate(-7,170.66666666666669)" style="font-family: sans-serif; font-size: 12px; fill: #000; opacity: 1;">1,300,000</text><text text-anchor="end" transform="translate(-7,137.33333333333331)" style="font-family: sans-serif; font-size: 12px; fill: #000; opacity: 1;">1,400,000</text><text text-anchor="end" transform="translate(-7,104)" style="font-family: sans-serif; font-size: 12px; fill: #000; opacity: 1;">1,500,000</text><text text-anchor="end" transform="translate(-7,70.66666666666674)" style="font-family: sans-serif; font-size: 12px; fill: #000; opacity: 1;">1,600,000</text><text text-anchor="end" transform="translate(-7,37.33333333333337)" style="font-family: sans-serif; font-size: 12px; fill: #000; opacity: 1;">1,700,000</text><text text-anchor="end" transform="translate(-7,4)" style="font-family: sans-serif; font-size: 12px; fill: #000; opacity: 1;">1,800,000</text></g><g class="mark-rule role-axis-domain" style="pointer-events: none;"><line transform="translate(0,600)" x2="0" y2="-600" style="fill: none; stroke: #888; stroke-width: 1; opacity: 1;"></line></g><g class="mark-text role-axis-title" style="pointer-events: none;"><text text-anchor="middle" transform="translate(-75,300) rotate(-90) translate(0,-3)" style="font-family: sans-serif; font-size: 14px; font-weight: normal; fill: #000; opacity: 1;">hertz (operations / sec)</text></g></g></g></g><g class="mark-rect role-mark marks"><path d="M8.799999999999955,563.9373240498752h158.4v36.0626759501248h-158.4Z" style="fill: #4c78a8;"></path><path d="M712.8,54.61181165344988h158.4v545.3881883465501h-158.4Z" style="fill: #4c78a8;"></path><path d="M536.8,380.13803367783686h158.4v219.86196632216314h-158.4Z" style="fill: #4c78a8;"></path><path d="M360.79999999999995,578.1533275804244h158.4v21.84667241957561h-158.4Z" style="fill: #4c78a8;"></path><path d="M184.79999999999995,584.5381770370766h158.4v15.461822962923407h-158.4Z" style="fill: #4c78a8;"></path></g></g></g></g></g></svg>