<svg class="marks" width="987" height="812" xmlns="http://www.w3.org/2000/svg">
    <path fill="#fff" d="M0 0h987v812H0z"/>
    <g class="mark-group role-frame root">
        <path class="background" d="M102.5 5.5h880v600h-880z" fill="none" stroke="#ddd"/>
        <g class="mark-group role-axis">
            <path class="background" d="M102.5 5.5z" pointer-events="none" fill="none"/>
            <g class="mark-rule role-axis-grid" pointer-events="none" fill="none" stroke="#ddd">
                <path d="M102.5 605.5h880M102.5 571.5h880M102.5 536.5h880M102.5 502.5h880M102.5 468.5h880M102.5 434.5h880M102.5 399.5h880M102.5 365.5h880M102.5 331.5h880M102.5 296.5h880M102.5 262.5h880M102.5 228.5h880M102.5 194.5h880M102.5 159.5h880M102.5 125.5h880M102.5 91.5h880M102.5 56.5h880M102.5 22.5h880"/>
            </g>
        </g>
        <g class="mark-group role-axis">
            <path class="background" d="M102.5 605.5z" pointer-events="none" fill="none"/>
            <g class="mark-rule role-axis-tick" pointer-events="none" fill="none" stroke="#888">
                <path d="M135.5 605.5v5M203.5 605.5v5M271.5 605.5v5M338.5 605.5v5M406.5 605.5v5M474.5 605.5v5M542.5 605.5v5M609.5 605.5v5M677.5 605.5v5M745.5 605.5v5M812.5 605.5v5M880.5 605.5v5M948.5 605.5v5"/>
            </g>
            <g class="mark-text role-axis-label" pointer-events="none" font-family="sans-serif" font-size="14">
                <text transform="rotate(90 -240.327 372.173)">
                    class-transformer-valid…
                </text>
                <text transform="rotate(90 -206.48 406.02)">
                    class-transformer-valid…
                </text>
                <text transform="rotate(90 -172.635 439.865)">
                    funval
                </text>
                <text transform="rotate(90 -138.788 473.712)">
                    io-ts
                </text>
                <text transform="rotate(90 -104.942 507.558)">
                    json-decoder
                </text>
                <text transform="rotate(90 -71.096 541.404)">
                    marshal
                </text>
                <text transform="rotate(90 -37.25 575.25)">
                    myzod
                </text>
                <text transform="rotate(90 -3.404 609.096)">
                    purify-ts
                </text>
                <text transform="rotate(90 30.442 642.942)">
                    runtypes
                </text>
                <text transform="rotate(90 64.288 676.788)">
                    toi
                </text>
                <text transform="rotate(90 98.135 710.635)">
                    ts-json-validator
                </text>
                <text transform="rotate(90 131.98 744.48)">
                    ts-utils
                </text>
                <text transform="rotate(90 165.827 778.327)">
                    zod
                </text>
            </g>
            <path fill="none" stroke="#888" d="M102.5 605.5h880" pointer-events="none"/>
            <text text-anchor="middle" transform="translate(542.5 804.5)" font-family="sans-serif" font-size="14" font-weight="400" pointer-events="none">
                module
            </text>
        </g>
        <g class="mark-group role-axis">
            <path class="background" d="M102.5 5.5z" pointer-events="none" fill="none"/>
            <g class="mark-rule role-axis-tick" pointer-events="none" fill="none" stroke="#888">
                <path d="M102.5 605.5h-5M102.5 571.5h-5M102.5 536.5h-5M102.5 502.5h-5M102.5 468.5h-5M102.5 434.5h-5M102.5 399.5h-5M102.5 365.5h-5M102.5 331.5h-5M102.5 296.5h-5M102.5 262.5h-5M102.5 228.5h-5M102.5 194.5h-5M102.5 159.5h-5M102.5 125.5h-5M102.5 91.5h-5M102.5 56.5h-5M102.5 22.5h-5"/>
            </g>
            <g class="mark-text role-axis-label" pointer-events="none" text-anchor="end" font-family="sans-serif" font-size="12">
                <text transform="translate(95.5 609.5)">
                    0
                </text>
                <text transform="translate(95.5 575.214)">
                    2,000,000
                </text>
                <text transform="translate(95.5 540.929)">
                    4,000,000
                </text>
                <text transform="translate(95.5 506.643)">
                    6,000,000
                </text>
                <text transform="translate(95.5 472.357)">
                    8,000,000
                </text>
                <text transform="translate(95.5 438.071)">
                    10,000,000
                </text>
                <text transform="translate(95.5 403.786)">
                    12,000,000
                </text>
                <text transform="translate(95.5 369.5)">
                    14,000,000
                </text>
                <text transform="translate(95.5 335.214)">
                    16,000,000
                </text>
                <text transform="translate(95.5 300.929)">
                    18,000,000
                </text>
                <text transform="translate(95.5 266.643)">
                    20,000,000
                </text>
                <text transform="translate(95.5 232.357)">
                    22,000,000
                </text>
                <text transform="translate(95.5 198.071)">
                    24,000,000
                </text>
                <text transform="translate(95.5 163.786)">
                    26,000,000
                </text>
                <text transform="translate(95.5 129.5)">
                    28,000,000
                </text>
                <text transform="translate(95.5 95.214)">
                    30,000,000
                </text>
                <text transform="translate(95.5 60.929)">
                    32,000,000
                </text>
                <text transform="translate(95.5 26.643)">
                    34,000,000
                </text>
            </g>
            <path fill="none" stroke="#888" d="M102.5 605.5V5.5" pointer-events="none"/>
            <text text-anchor="middle" transform="rotate(-90 161 144.5)" font-family="sans-serif" font-size="14" font-weight="400" pointer-events="none">
                operations / sec
            </text>
        </g>
        <g class="mark-rect role-mark marks" fill="#4c78a8">
            <path d="M105.385 604.466h60.923V605h-60.923zM173.077 604.291H234V605h-60.923zM240.77 591.734h60.922V605H240.77zM308.462 558.444h60.923V605h-60.923zM376.154 593.366h60.923V605h-60.923zM443.846 538.984h60.923V605h-60.923zM511.538 595.925h60.924V605h-60.924zM579.23 593.145h60.924V605H579.23zM646.923 596.575h60.923V605h-60.923zM714.615 598.07h60.923V605h-60.923zM782.308 21.515h60.923V605h-60.923zM850 603.015h60.923V605H850zM917.692 604.11h60.923v.89h-60.923z"/>
        </g>
    </g>
</svg>

