<svg class="marks" width="1035" height="741" xmlns="http://www.w3.org/2000/svg">
    <path fill="#fff" d="M0 0h1035v741H0z"/>
    <g class="mark-group role-frame root">
        <path class="background" d="M102.5 11.5h880v600h-880z" fill="none" stroke="#ddd"/>
        <g class="mark-group role-axis">
            <path class="background" d="M102.5 11.5z" pointer-events="none" fill="none"/>
            <g class="mark-rule role-axis-grid" pointer-events="none" fill="none" stroke="#ddd">
                <path d="M102.5 611.5h880M102.5 578.5h880M102.5 544.5h880M102.5 511.5h880M102.5 478.5h880M102.5 444.5h880M102.5 411.5h880M102.5 378.5h880M102.5 344.5h880M102.5 311.5h880M102.5 278.5h880M102.5 244.5h880M102.5 211.5h880M102.5 178.5h880M102.5 144.5h880M102.5 111.5h880M102.5 78.5h880M102.5 44.5h880M102.5 11.5h880"/>
            </g>
        </g>
        <g class="mark-group role-axis">
            <path class="background" d="M102.5 611.5z" pointer-events="none" fill="none"/>
            <g class="mark-rule role-axis-tick" pointer-events="none" fill="none" stroke="#888">
                <path d="M164.5 611.5v5M290.5 611.5v5M416.5 611.5v5M541.5 611.5v5M667.5 611.5v5M793.5 611.5v5M919.5 611.5v5"/>
            </g>
            <g class="mark-text role-axis-label" pointer-events="none" font-family="sans-serif" font-size="16">
                <text transform="rotate(30 -1095.966 610.378)">
                    class-transformer-v…
                </text>
                <text transform="rotate(30 -1033.11 844.964)">
                    class-transformer-v…
                </text>
                <text transform="rotate(30 -970.252 1079.55)">
                    io-ts
                </text>
                <text transform="rotate(30 -907.395 1314.136)">
                    marshal
                </text>
                <text transform="rotate(30 -844.538 1548.722)">
                    runtypes
                </text>
                <text transform="rotate(30 -781.68 1783.308)">
                    toi
                </text>
                <text transform="rotate(30 -718.824 2017.894)">
                    ts-json-validator
                </text>
            </g>
            <path fill="none" stroke="#888" d="M102.5 611.5h880" pointer-events="none"/>
            <text text-anchor="middle" transform="translate(542.5 733.356)" font-family="sans-serif" font-size="14" font-weight="400" pointer-events="none">
                module
            </text>
        </g>
        <g class="mark-group role-axis">
            <path class="background" d="M102.5 11.5z" pointer-events="none" fill="none"/>
            <g class="mark-rule role-axis-tick" pointer-events="none" fill="none" stroke="#888">
                <path d="M102.5 611.5h-5M102.5 578.5h-5M102.5 544.5h-5M102.5 511.5h-5M102.5 478.5h-5M102.5 444.5h-5M102.5 411.5h-5M102.5 378.5h-5M102.5 344.5h-5M102.5 311.5h-5M102.5 278.5h-5M102.5 244.5h-5M102.5 211.5h-5M102.5 178.5h-5M102.5 144.5h-5M102.5 111.5h-5M102.5 78.5h-5M102.5 44.5h-5M102.5 11.5h-5"/>
            </g>
            <g class="mark-text role-axis-label" pointer-events="none" text-anchor="end" font-family="sans-serif" font-size="12">
                <text transform="translate(95.5 615.5)">
                    0
                </text>
                <text transform="translate(95.5 582.167)">
                    1,000,000
                </text>
                <text transform="translate(95.5 548.833)">
                    2,000,000
                </text>
                <text transform="translate(95.5 515.5)">
                    3,000,000
                </text>
                <text transform="translate(95.5 482.167)">
                    4,000,000
                </text>
                <text transform="translate(95.5 448.833)">
                    5,000,000
                </text>
                <text transform="translate(95.5 415.5)">
                    6,000,000
                </text>
                <text transform="translate(95.5 382.167)">
                    7,000,000
                </text>
                <text transform="translate(95.5 348.833)">
                    8,000,000
                </text>
                <text transform="translate(95.5 315.5)">
                    9,000,000
                </text>
                <text transform="translate(95.5 282.167)">
                    10,000,000
                </text>
                <text transform="translate(95.5 248.833)">
                    11,000,000
                </text>
                <text transform="translate(95.5 215.5)">
                    12,000,000
                </text>
                <text transform="translate(95.5 182.167)">
                    13,000,000
                </text>
                <text transform="translate(95.5 148.833)">
                    14,000,000
                </text>
                <text transform="translate(95.5 115.5)">
                    15,000,000
                </text>
                <text transform="translate(95.5 82.167)">
                    16,000,000
                </text>
                <text transform="translate(95.5 48.833)">
                    17,000,000
                </text>
                <text transform="translate(95.5 15.5)">
                    18,000,000
                </text>
            </g>
            <path fill="none" stroke="#888" d="M102.5 611.5v-600" pointer-events="none"/>
            <text text-anchor="middle" transform="rotate(-90 164 147.5)" font-family="sans-serif" font-size="14" font-weight="400" pointer-events="none">
                operations / sec
            </text>
        </g>
        <g class="mark-rect role-mark marks" fill="#4c78a8">
            <path d="M108.286 608.834h113.143V611H108.286zM234 608.543h113.143V611H234zM359.714 581.787h113.143V611H359.714zM485.429 38.61H598.57V611H485.43zM611.143 550.127h113.143V611H611.143zM736.857 596.523H850V611H736.857zM862.571 599.405h113.143V611H862.571z"/>
        </g>
    </g>
</svg>

