<svg class="marks" width="987" height="812" xmlns="http://www.w3.org/2000/svg">
    <path fill="#fff" d="M0 0h987v812H0z"/>
    <g class="mark-group role-frame root">
        <path class="background" d="M102.5 5.5h880v600h-880z" fill="none" stroke="#ddd"/>
        <g class="mark-group role-axis">
            <path class="background" d="M102.5 5.5z" pointer-events="none" fill="none"/>
            <g class="mark-rule role-axis-grid" pointer-events="none" fill="none" stroke="#ddd">
                <path d="M102.5 605.5h880M102.5 571.5h880M102.5 536.5h880M102.5 502.5h880M102.5 468.5h880M102.5 434.5h880M102.5 399.5h880M102.5 365.5h880M102.5 331.5h880M102.5 296.5h880M102.5 262.5h880M102.5 228.5h880M102.5 194.5h880M102.5 159.5h880M102.5 125.5h880M102.5 91.5h880M102.5 56.5h880M102.5 22.5h880"/>
            </g>
        </g>
        <g class="mark-group role-axis">
            <path class="background" d="M102.5 605.5z" pointer-events="none" fill="none"/>
            <g class="mark-rule role-axis-tick" pointer-events="none" fill="none" stroke="#888">
                <path d="M142.5 605.5v5M222.5 605.5v5M302.5 605.5v5M382.5 605.5v5M462.5 605.5v5M542.5 605.5v5M622.5 605.5v5M702.5 605.5v5M782.5 605.5v5M862.5 605.5v5M942.5 605.5v5"/>
            </g>
            <g class="mark-text role-axis-label" pointer-events="none" font-family="sans-serif" font-size="14">
                <text transform="rotate(90 -237.25 375.25)">
                    class-transformer-valid…
                </text>
                <text transform="rotate(90 -197.25 415.25)">
                    class-transformer-valid…
                </text>
                <text transform="rotate(90 -157.25 455.25)">
                    funval
                </text>
                <text transform="rotate(90 -117.25 495.25)">
                    io-ts
                </text>
                <text transform="rotate(90 -77.25 535.25)">
                    marshal
                </text>
                <text transform="rotate(90 -37.25 575.25)">
                    purify-ts
                </text>
                <text transform="rotate(90 2.75 615.25)">
                    runtypes
                </text>
                <text transform="rotate(90 42.75 655.25)">
                    toi
                </text>
                <text transform="rotate(90 82.75 695.25)">
                    ts-json-validator
                </text>
                <text transform="rotate(90 122.75 735.25)">
                    ts-utils
                </text>
                <text transform="rotate(90 162.75 775.25)">
                    zod
                </text>
            </g>
            <path fill="none" stroke="#888" d="M102.5 605.5h880" pointer-events="none"/>
            <text text-anchor="middle" transform="translate(542.5 804.5)" font-family="sans-serif" font-size="14" font-weight="400" pointer-events="none">
                module
            </text>
        </g>
        <g class="mark-group role-axis">
            <path class="background" d="M102.5 5.5z" pointer-events="none" fill="none"/>
            <g class="mark-rule role-axis-tick" pointer-events="none" fill="none" stroke="#888">
                <path d="M102.5 605.5h-5M102.5 571.5h-5M102.5 536.5h-5M102.5 502.5h-5M102.5 468.5h-5M102.5 434.5h-5M102.5 399.5h-5M102.5 365.5h-5M102.5 331.5h-5M102.5 296.5h-5M102.5 262.5h-5M102.5 228.5h-5M102.5 194.5h-5M102.5 159.5h-5M102.5 125.5h-5M102.5 91.5h-5M102.5 56.5h-5M102.5 22.5h-5"/>
            </g>
            <g class="mark-text role-axis-label" pointer-events="none" text-anchor="end" font-family="sans-serif" font-size="12">
                <text transform="translate(95.5 609.5)">
                    0
                </text>
                <text transform="translate(95.5 575.214)">
                    2,000,000
                </text>
                <text transform="translate(95.5 540.929)">
                    4,000,000
                </text>
                <text transform="translate(95.5 506.643)">
                    6,000,000
                </text>
                <text transform="translate(95.5 472.357)">
                    8,000,000
                </text>
                <text transform="translate(95.5 438.071)">
                    10,000,000
                </text>
                <text transform="translate(95.5 403.786)">
                    12,000,000
                </text>
                <text transform="translate(95.5 369.5)">
                    14,000,000
                </text>
                <text transform="translate(95.5 335.214)">
                    16,000,000
                </text>
                <text transform="translate(95.5 300.929)">
                    18,000,000
                </text>
                <text transform="translate(95.5 266.643)">
                    20,000,000
                </text>
                <text transform="translate(95.5 232.357)">
                    22,000,000
                </text>
                <text transform="translate(95.5 198.071)">
                    24,000,000
                </text>
                <text transform="translate(95.5 163.786)">
                    26,000,000
                </text>
                <text transform="translate(95.5 129.5)">
                    28,000,000
                </text>
                <text transform="translate(95.5 95.214)">
                    30,000,000
                </text>
                <text transform="translate(95.5 60.929)">
                    32,000,000
                </text>
                <text transform="translate(95.5 26.643)">
                    34,000,000
                </text>
            </g>
            <path fill="none" stroke="#888" d="M102.5 605.5V5.5" pointer-events="none"/>
            <text text-anchor="middle" transform="rotate(-90 161 144.5)" font-family="sans-serif" font-size="14" font-weight="400" pointer-events="none">
                operations / sec
            </text>
        </g>
        <g class="mark-rect role-mark marks" fill="#4c78a8">
            <path d="M106 604.317h72V605h-72zM186 604.173h72V605h-72zM266 591.346h72V605h-72zM346 564.57h72V605h-72zM426 524.843h72V605h-72zM506 590.627h72V605h-72zM586 592.552h72V605h-72zM666 596.802h72V605h-72zM746 17.756h72V605h-72zM826 602.529h72V605h-72zM906 574.873h72V605h-72z"/>
        </g>
    </g>
</svg>

