<svg class="marks" width="727" height="620" viewBox="0 0 727 620" version="1.1" xmlns="http://www.w3.org/2000/svg" xmlns:xlink="http://www.w3.org/1999/xlink"><g transform="translate(82,11)"><g class="mark-group role-frame root"><g transform="translate(0,0)"><path class="background" d="M0.5,0.5h640v480h-640Z" style="fill: none; stroke: #ddd;"></path><g><g class="mark-group role-axis"><g transform="translate(0.5,0.5)"><path class="background" d="M0,0h0v0h0Z" style="pointer-events: none; fill: none;"></path><g><g class="mark-rule role-axis-grid" style="pointer-events: none;"><line transform="translate(0,480)" x2="640" y2="0" style="fill: none; stroke: #ddd; stroke-width: 1; opacity: 1;"></line><line transform="translate(0,448)" x2="640" y2="0" style="fill: none; stroke: #ddd; stroke-width: 1; opacity: 1;"></line><line transform="translate(0,416)" x2="640" y2="0" style="fill: none; stroke: #ddd; stroke-width: 1; opacity: 1;"></line><line transform="translate(0,384)" x2="640" y2="0" style="fill: none; stroke: #ddd; stroke-width: 1; opacity: 1;"></line><line transform="translate(0,352)" x2="640" y2="0" style="fill: none; stroke: #ddd; stroke-width: 1; opacity: 1;"></line><line transform="translate(0,320)" x2="640" y2="0" style="fill: none; stroke: #ddd; stroke-width: 1; opacity: 1;"></line><line transform="translate(0,288)" x2="640" y2="0" style="fill: none; stroke: #ddd; stroke-width: 1; opacity: 1;"></line><line transform="translate(0,256)" x2="640" y2="0" style="fill: none; stroke: #ddd; stroke-width: 1; opacity: 1;"></line><line transform="translate(0,224)" x2="640" y2="0" style="fill: none; stroke: #ddd; stroke-width: 1; opacity: 1;"></line><line transform="translate(0,192)" x2="640" y2="0" style="fill: none; stroke: #ddd; stroke-width: 1; opacity: 1;"></line><line transform="translate(0,160)" x2="640" y2="0" style="fill: none; stroke: #ddd; stroke-width: 1; opacity: 1;"></line><line transform="translate(0,128)" x2="640" y2="0" style="fill: none; stroke: #ddd; stroke-width: 1; opacity: 1;"></line><line transform="translate(0,96)" x2="640" y2="0" style="fill: none; stroke: #ddd; stroke-width: 1; opacity: 1;"></line><line transform="translate(0,64)" x2="640" y2="0" style="fill: none; stroke: #ddd; stroke-width: 1; opacity: 1;"></line><line transform="translate(0,32)" x2="640" y2="0" style="fill: none; stroke: #ddd; stroke-width: 1; opacity: 1;"></line><line transform="translate(0,0)" x2="640" y2="0" style="fill: none; stroke: #ddd; stroke-width: 1; opacity: 1;"></line></g></g></g></g><g class="mark-group role-axis"><g transform="translate(0.5,480.5)"><path class="background" d="M0,0h0v0h0Z" style="pointer-events: none; fill: none;"></path><g><g class="mark-rule role-axis-tick" style="pointer-events: none;"><line transform="translate(63,0)" x2="0" y2="5" style="fill: none; stroke: #888; stroke-width: 1; opacity: 1;"></line><line transform="translate(191,0)" x2="0" y2="5" style="fill: none; stroke: #888; stroke-width: 1; opacity: 1;"></line><line transform="translate(319,0)" x2="0" y2="5" style="fill: none; stroke: #888; stroke-width: 1; opacity: 1;"></line><line transform="translate(447,0)" x2="0" y2="5" style="fill: none; stroke: #888; stroke-width: 1; opacity: 1;"></line><line transform="translate(575,0)" x2="0" y2="5" style="fill: none; stroke: #888; stroke-width: 1; opacity: 1;"></line></g><g class="mark-text role-axis-label" style="pointer-events: none;"><text text-anchor="start" transform="translate(62.99999999999998,7) rotate(30) translate(0,13)" style="font-family: sans-serif; font-size: 16px; fill: #000; opacity: 1;">JSON Encode Decode</text><text text-anchor="start" transform="translate(190.99999999999997,7) rotate(30) translate(0,13)" style="font-family: sans-serif; font-size: 16px; fill: #000; opacity: 1;">class-validator async</text><text text-anchor="start" transform="translate(319,7) rotate(30) translate(0,13)" style="font-family: sans-serif; font-size: 16px; fill: #000; opacity: 1;">class-validator sync</text><text text-anchor="start" transform="translate(447,7) rotate(30) translate(0,13)" style="font-family: sans-serif; font-size: 16px; fill: #000; opacity: 1;">io-ts</text><text text-anchor="start" transform="translate(575,7) rotate(30) translate(0,13)" style="font-family: sans-serif; font-size: 16px; fill: #000; opacity: 1;">runtypes</text></g><g class="mark-rule role-axis-domain" style="pointer-events: none;"><line transform="translate(0,0)" x2="640" y2="0" style="fill: none; stroke: #888; stroke-width: 1; opacity: 1;"></line></g><g class="mark-text role-axis-title" style="pointer-events: none;"><text text-anchor="middle" transform="translate(320,120.856406460551)" style="font-family: sans-serif; font-size: 14px; font-weight: bold; fill: #000; opacity: 1;">method / module</text></g></g></g></g><g class="mark-group role-axis"><g transform="translate(0.5,0.5)"><path class="background" d="M0,0h0v0h0Z" style="pointer-events: none; fill: none;"></path><g><g class="mark-rule role-axis-tick" style="pointer-events: none;"><line transform="translate(0,480)" x2="-5" y2="0" style="fill: none; stroke: #888; stroke-width: 1; opacity: 1;"></line><line transform="translate(0,448)" x2="-5" y2="0" style="fill: none; stroke: #888; stroke-width: 1; opacity: 1;"></line><line transform="translate(0,416)" x2="-5" y2="0" style="fill: none; stroke: #888; stroke-width: 1; opacity: 1;"></line><line transform="translate(0,384)" x2="-5" y2="0" style="fill: none; stroke: #888; stroke-width: 1; opacity: 1;"></line><line transform="translate(0,352)" x2="-5" y2="0" style="fill: none; stroke: #888; stroke-width: 1; opacity: 1;"></line><line transform="translate(0,320)" x2="-5" y2="0" style="fill: none; stroke: #888; stroke-width: 1; opacity: 1;"></line><line transform="translate(0,288)" x2="-5" y2="0" style="fill: none; stroke: #888; stroke-width: 1; opacity: 1;"></line><line transform="translate(0,256)" x2="-5" y2="0" style="fill: none; stroke: #888; stroke-width: 1; opacity: 1;"></line><line transform="translate(0,224)" x2="-5" y2="0" style="fill: none; stroke: #888; stroke-width: 1; opacity: 1;"></line><line transform="translate(0,192)" x2="-5" y2="0" style="fill: none; stroke: #888; stroke-width: 1; opacity: 1;"></line><line transform="translate(0,160)" x2="-5" y2="0" style="fill: none; stroke: #888; stroke-width: 1; opacity: 1;"></line><line transform="translate(0,128)" x2="-5" y2="0" style="fill: none; stroke: #888; stroke-width: 1; opacity: 1;"></line><line transform="translate(0,96)" x2="-5" y2="0" style="fill: none; stroke: #888; stroke-width: 1; opacity: 1;"></line><line transform="translate(0,64)" x2="-5" y2="0" style="fill: none; stroke: #888; stroke-width: 1; opacity: 1;"></line><line transform="translate(0,32)" x2="-5" y2="0" style="fill: none; stroke: #888; stroke-width: 1; opacity: 1;"></line><line transform="translate(0,0)" x2="-5" y2="0" style="fill: none; stroke: #888; stroke-width: 1; opacity: 1;"></line></g><g class="mark-text role-axis-label" style="pointer-events: none;"><text text-anchor="end" transform="translate(-7,484)" style="font-family: sans-serif; font-size: 12px; fill: #000; opacity: 1;">0</text><text text-anchor="end" transform="translate(-7,452)" style="font-family: sans-serif; font-size: 12px; fill: #000; opacity: 1;">20,000</text><text text-anchor="end" transform="translate(-7,420)" style="font-family: sans-serif; font-size: 12px; fill: #000; opacity: 1;">40,000</text><text text-anchor="end" transform="translate(-7,388)" style="font-family: sans-serif; font-size: 12px; fill: #000; opacity: 1;">60,000</text><text text-anchor="end" transform="translate(-7,356)" style="font-family: sans-serif; font-size: 12px; fill: #000; opacity: 1;">80,000</text><text text-anchor="end" transform="translate(-7,324)" style="font-family: sans-serif; font-size: 12px; fill: #000; opacity: 1;">100,000</text><text text-anchor="end" transform="translate(-7,292)" style="font-family: sans-serif; font-size: 12px; fill: #000; opacity: 1;">120,000</text><text text-anchor="end" transform="translate(-7,260)" style="font-family: sans-serif; font-size: 12px; fill: #000; opacity: 1;">140,000</text><text text-anchor="end" transform="translate(-7,228)" style="font-family: sans-serif; font-size: 12px; fill: #000; opacity: 1;">160,000</text><text text-anchor="end" transform="translate(-7,196)" style="font-family: sans-serif; font-size: 12px; fill: #000; opacity: 1;">180,000</text><text text-anchor="end" transform="translate(-7,164)" style="font-family: sans-serif; font-size: 12px; fill: #000; opacity: 1;">200,000</text><text text-anchor="end" transform="translate(-7,132)" style="font-family: sans-serif; font-size: 12px; fill: #000; opacity: 1;">220,000</text><text text-anchor="end" transform="translate(-7,100)" style="font-family: sans-serif; font-size: 12px; fill: #000; opacity: 1;">240,000</text><text text-anchor="end" transform="translate(-7,68)" style="font-family: sans-serif; font-size: 12px; fill: #000; opacity: 1;">260,000</text><text text-anchor="end" transform="translate(-7,36)" style="font-family: sans-serif; font-size: 12px; fill: #000; opacity: 1;">280,000</text><text text-anchor="end" transform="translate(-7,4)" style="font-family: sans-serif; font-size: 12px; fill: #000; opacity: 1;">300,000</text></g><g class="mark-rule role-axis-domain" style="pointer-events: none;"><line transform="translate(0,480)" x2="0" y2="-480" style="fill: none; stroke: #888; stroke-width: 1; opacity: 1;"></line></g><g class="mark-text role-axis-title" style="pointer-events: none;"><text text-anchor="middle" transform="translate(-63,240) rotate(-90) translate(0,-3)" style="font-family: sans-serif; font-size: 14px; fill: #000; opacity: 1;">hertz (operations / sec)</text></g></g></g></g><g class="mark-rect role-mark marks"><path d="M6.399999999999977,351.4810589176298h115.2v128.5189410823702h-115.2Z" style="fill: #4c78a8;"></path><path d="M518.4,398.7293439507778h115.2v81.27065604922223h-115.2Z" style="fill: #4c78a8;"></path><path d="M390.4,7.46520624665294h115.2v472.53479375334706h-115.2Z" style="fill: #4c78a8;"></path><path d="M262.4,424.34227787144135h115.2v55.657722128558646h-115.2Z" style="fill: #4c78a8;"></path><path d="M134.39999999999998,420.1589514890529h115.2v59.841048510947076h-115.2Z" style="fill: #4c78a8;"></path></g></g></g></g></g></svg>