<svg class="marks" width="1035" height="741" xmlns="http://www.w3.org/2000/svg">
    <path fill="#fff" d="M0 0h1035v741H0z"/>
    <g class="mark-group role-frame root">
        <path class="background" d="M102.5 11.5h880v600h-880z" fill="none" stroke="#ddd"/>
        <g class="mark-group role-axis">
            <path class="background" d="M102.5 11.5z" pointer-events="none" fill="none"/>
            <g class="mark-rule role-axis-grid" pointer-events="none" fill="none" stroke="#ddd">
                <path d="M102.5 611.5h880M102.5 556.5h880M102.5 502.5h880M102.5 447.5h880M102.5 393.5h880M102.5 338.5h880M102.5 284.5h880M102.5 229.5h880M102.5 175.5h880M102.5 120.5h880M102.5 66.5h880M102.5 11.5h880"/>
            </g>
        </g>
        <g class="mark-group role-axis">
            <path class="background" d="M102.5 611.5z" pointer-events="none" fill="none"/>
            <g class="mark-rule role-axis-tick" pointer-events="none" fill="none" stroke="#888">
                <path d="M164.5 611.5v5M290.5 611.5v5M416.5 611.5v5M541.5 611.5v5M667.5 611.5v5M793.5 611.5v5M919.5 611.5v5"/>
            </g>
            <g class="mark-text role-axis-label" pointer-events="none" font-family="sans-serif" font-size="16">
                <text transform="rotate(30 -1095.966 610.378)">
                    class-transformer-v…
                </text>
                <text transform="rotate(30 -1033.11 844.964)">
                    class-transformer-v…
                </text>
                <text transform="rotate(30 -970.252 1079.55)">
                    io-ts
                </text>
                <text transform="rotate(30 -907.395 1314.136)">
                    marshal
                </text>
                <text transform="rotate(30 -844.538 1548.722)">
                    runtypes
                </text>
                <text transform="rotate(30 -781.68 1783.308)">
                    toi
                </text>
                <text transform="rotate(30 -718.824 2017.894)">
                    ts-json-validator
                </text>
            </g>
            <path fill="none" stroke="#888" d="M102.5 611.5h880" pointer-events="none"/>
            <text text-anchor="middle" transform="translate(542.5 733.356)" font-family="sans-serif" font-size="14" font-weight="400" pointer-events="none">
                module
            </text>
        </g>
        <g class="mark-group role-axis">
            <path class="background" d="M102.5 11.5z" pointer-events="none" fill="none"/>
            <g class="mark-rule role-axis-tick" pointer-events="none" fill="none" stroke="#888">
                <path d="M102.5 611.5h-5M102.5 556.5h-5M102.5 502.5h-5M102.5 447.5h-5M102.5 393.5h-5M102.5 338.5h-5M102.5 284.5h-5M102.5 229.5h-5M102.5 175.5h-5M102.5 120.5h-5M102.5 66.5h-5M102.5 11.5h-5"/>
            </g>
            <g class="mark-text role-axis-label" pointer-events="none" text-anchor="end" font-family="sans-serif" font-size="12">
                <text transform="translate(95.5 615.5)">
                    0
                </text>
                <text transform="translate(95.5 560.955)">
                    2,000,000
                </text>
                <text transform="translate(95.5 506.41)">
                    4,000,000
                </text>
                <text transform="translate(95.5 451.864)">
                    6,000,000
                </text>
                <text transform="translate(95.5 397.318)">
                    8,000,000
                </text>
                <text transform="translate(95.5 342.773)">
                    10,000,000
                </text>
                <text transform="translate(95.5 288.227)">
                    12,000,000
                </text>
                <text transform="translate(95.5 233.682)">
                    14,000,000
                </text>
                <text transform="translate(95.5 179.136)">
                    16,000,000
                </text>
                <text transform="translate(95.5 124.59)">
                    18,000,000
                </text>
                <text transform="translate(95.5 70.045)">
                    20,000,000
                </text>
                <text transform="translate(95.5 15.5)">
                    22,000,000
                </text>
            </g>
            <path fill="none" stroke="#888" d="M102.5 611.5v-600" pointer-events="none"/>
            <text text-anchor="middle" transform="rotate(-90 164 147.5)" font-family="sans-serif" font-size="14" font-weight="400" pointer-events="none">
                operations / sec
            </text>
        </g>
        <g class="mark-rect role-mark marks" fill="#4c78a8">
            <path d="M108.286 609.183h113.143V611H108.286zM234 609.023h113.143V611H234zM359.714 587.662h113.143V611H359.714zM485.429 48.097H598.57V611H485.43zM611.143 563.834h113.143V611H611.143zM736.857 599.429H850V611H736.857zM862.571 605.231h113.143V611H862.571z"/>
        </g>
    </g>
</svg>

