<svg class="marks" width="1035" height="735" xmlns="http://www.w3.org/2000/svg">
    <path fill="#fff" d="M0 0h1035v735H0z"/>
    <g class="mark-group role-frame root">
        <path class="background" d="M102.5 5.5h880v600h-880z" fill="none" stroke="#ddd"/>
        <g class="mark-group role-axis">
            <path class="background" d="M102.5 5.5z" pointer-events="none" fill="none"/>
            <g class="mark-rule role-axis-grid" pointer-events="none" fill="none" stroke="#ddd">
                <path d="M102.5 605.5h880M102.5 571.5h880M102.5 536.5h880M102.5 502.5h880M102.5 468.5h880M102.5 434.5h880M102.5 399.5h880M102.5 365.5h880M102.5 331.5h880M102.5 296.5h880M102.5 262.5h880M102.5 228.5h880M102.5 194.5h880M102.5 159.5h880M102.5 125.5h880M102.5 91.5h880M102.5 56.5h880M102.5 22.5h880"/>
            </g>
        </g>
        <g class="mark-group role-axis">
            <path class="background" d="M102.5 605.5z" pointer-events="none" fill="none"/>
            <g class="mark-rule role-axis-tick" pointer-events="none" fill="none" stroke="#888">
                <path d="M164.5 605.5v5M290.5 605.5v5M416.5 605.5v5M541.5 605.5v5M667.5 605.5v5M793.5 605.5v5M919.5 605.5v5"/>
            </g>
            <g class="mark-text role-axis-label" pointer-events="none" font-family="sans-serif" font-size="16">
                <text transform="rotate(30 -1084.77 607.378)">
                    class-transformer-v…
                </text>
                <text transform="rotate(30 -1021.913 841.964)">
                    class-transformer-v…
                </text>
                <text transform="rotate(30 -959.056 1076.55)">
                    io-ts
                </text>
                <text transform="rotate(30 -896.199 1311.136)">
                    marshal
                </text>
                <text transform="rotate(30 -833.342 1545.722)">
                    runtypes
                </text>
                <text transform="rotate(30 -770.485 1780.308)">
                    toi
                </text>
                <text transform="rotate(30 -707.627 2014.894)">
                    ts-json-validator
                </text>
            </g>
            <path fill="none" stroke="#888" d="M102.5 605.5h880" pointer-events="none"/>
            <text text-anchor="middle" transform="translate(542.5 727.356)" font-family="sans-serif" font-size="14" font-weight="400" pointer-events="none">
                module
            </text>
        </g>
        <g class="mark-group role-axis">
            <path class="background" d="M102.5 5.5z" pointer-events="none" fill="none"/>
            <g class="mark-rule role-axis-tick" pointer-events="none" fill="none" stroke="#888">
                <path d="M102.5 605.5h-5M102.5 571.5h-5M102.5 536.5h-5M102.5 502.5h-5M102.5 468.5h-5M102.5 434.5h-5M102.5 399.5h-5M102.5 365.5h-5M102.5 331.5h-5M102.5 296.5h-5M102.5 262.5h-5M102.5 228.5h-5M102.5 194.5h-5M102.5 159.5h-5M102.5 125.5h-5M102.5 91.5h-5M102.5 56.5h-5M102.5 22.5h-5"/>
            </g>
            <g class="mark-text role-axis-label" pointer-events="none" text-anchor="end" font-family="sans-serif" font-size="12">
                <text transform="translate(95.5 609.5)">
                    0
                </text>
                <text transform="translate(95.5 575.214)">
                    2,000,000
                </text>
                <text transform="translate(95.5 540.929)">
                    4,000,000
                </text>
                <text transform="translate(95.5 506.643)">
                    6,000,000
                </text>
                <text transform="translate(95.5 472.357)">
                    8,000,000
                </text>
                <text transform="translate(95.5 438.071)">
                    10,000,000
                </text>
                <text transform="translate(95.5 403.786)">
                    12,000,000
                </text>
                <text transform="translate(95.5 369.5)">
                    14,000,000
                </text>
                <text transform="translate(95.5 335.214)">
                    16,000,000
                </text>
                <text transform="translate(95.5 300.929)">
                    18,000,000
                </text>
                <text transform="translate(95.5 266.643)">
                    20,000,000
                </text>
                <text transform="translate(95.5 232.357)">
                    22,000,000
                </text>
                <text transform="translate(95.5 198.071)">
                    24,000,000
                </text>
                <text transform="translate(95.5 163.786)">
                    26,000,000
                </text>
                <text transform="translate(95.5 129.5)">
                    28,000,000
                </text>
                <text transform="translate(95.5 95.214)">
                    30,000,000
                </text>
                <text transform="translate(95.5 60.929)">
                    32,000,000
                </text>
                <text transform="translate(95.5 26.643)">
                    34,000,000
                </text>
            </g>
            <path fill="none" stroke="#888" d="M102.5 605.5V5.5" pointer-events="none"/>
            <text text-anchor="middle" transform="rotate(-90 161 144.5)" font-family="sans-serif" font-size="14" font-weight="400" pointer-events="none">
                operations / sec
            </text>
        </g>
        <g class="mark-rect role-mark marks" fill="#4c78a8">
            <path d="M108.286 604.517h113.143V605H108.286zM234 604.23h113.143v.77H234zM359.714 573.2h113.143V605H359.714zM485.429 536.653H598.57V605H485.43zM611.143 573.427h113.143V605H611.143zM736.857 598.046H850V605H736.857zM862.571 19.47h113.143V605H862.571z"/>
        </g>
    </g>
</svg>

