<svg class="marks" width="987" height="818" xmlns="http://www.w3.org/2000/svg">
    <path fill="#fff" d="M0 0h987v818H0z"/>
    <g class="mark-group role-frame root">
        <path class="background" d="M102.5 11.5h880v600h-880z" fill="none" stroke="#ddd"/>
        <g class="mark-group role-axis">
            <path class="background" d="M102.5 11.5z" pointer-events="none" fill="none"/>
            <g class="mark-rule role-axis-grid" pointer-events="none" fill="none" stroke="#ddd">
                <path d="M102.5 611.5h880M102.5 571.5h880M102.5 531.5h880M102.5 491.5h880M102.5 451.5h880M102.5 411.5h880M102.5 371.5h880M102.5 331.5h880M102.5 291.5h880M102.5 251.5h880M102.5 211.5h880M102.5 171.5h880M102.5 131.5h880M102.5 91.5h880M102.5 51.5h880M102.5 11.5h880"/>
            </g>
        </g>
        <g class="mark-group role-axis">
            <path class="background" d="M102.5 611.5z" pointer-events="none" fill="none"/>
            <g class="mark-rule role-axis-tick" pointer-events="none" fill="none" stroke="#888">
                <path d="M142.5 611.5v5M222.5 611.5v5M302.5 611.5v5M382.5 611.5v5M462.5 611.5v5M542.5 611.5v5M622.5 611.5v5M702.5 611.5v5M782.5 611.5v5M862.5 611.5v5M942.5 611.5v5"/>
            </g>
            <g class="mark-text role-axis-label" pointer-events="none" font-family="sans-serif" font-size="14">
                <text transform="rotate(90 -240.25 378.25)">
                    class-transformer-valid…
                </text>
                <text transform="rotate(90 -200.25 418.25)">
                    class-transformer-valid…
                </text>
                <text transform="rotate(90 -160.25 458.25)">
                    funval
                </text>
                <text transform="rotate(90 -120.25 498.25)">
                    io-ts
                </text>
                <text transform="rotate(90 -80.25 538.25)">
                    marshal
                </text>
                <text transform="rotate(90 -40.25 578.25)">
                    purify-ts
                </text>
                <text transform="rotate(90 -.25 618.25)">
                    runtypes
                </text>
                <text transform="rotate(90 39.75 658.25)">
                    toi
                </text>
                <text transform="rotate(90 79.75 698.25)">
                    ts-json-validator
                </text>
                <text transform="rotate(90 119.75 738.25)">
                    ts-utils
                </text>
                <text transform="rotate(90 159.75 778.25)">
                    zod
                </text>
            </g>
            <path fill="none" stroke="#888" d="M102.5 611.5h880" pointer-events="none"/>
            <text text-anchor="middle" transform="translate(542.5 810.5)" font-family="sans-serif" font-size="14" font-weight="400" pointer-events="none">
                module
            </text>
        </g>
        <g class="mark-group role-axis">
            <path class="background" d="M102.5 11.5z" pointer-events="none" fill="none"/>
            <g class="mark-rule role-axis-tick" pointer-events="none" fill="none" stroke="#888">
                <path d="M102.5 611.5h-5M102.5 571.5h-5M102.5 531.5h-5M102.5 491.5h-5M102.5 451.5h-5M102.5 411.5h-5M102.5 371.5h-5M102.5 331.5h-5M102.5 291.5h-5M102.5 251.5h-5M102.5 211.5h-5M102.5 171.5h-5M102.5 131.5h-5M102.5 91.5h-5M102.5 51.5h-5M102.5 11.5h-5"/>
            </g>
            <g class="mark-text role-axis-label" pointer-events="none" text-anchor="end" font-family="sans-serif" font-size="12">
                <text transform="translate(95.5 615.5)">
                    0
                </text>
                <text transform="translate(95.5 575.5)">
                    2,000,000
                </text>
                <text transform="translate(95.5 535.5)">
                    4,000,000
                </text>
                <text transform="translate(95.5 495.5)">
                    6,000,000
                </text>
                <text transform="translate(95.5 455.5)">
                    8,000,000
                </text>
                <text transform="translate(95.5 415.5)">
                    10,000,000
                </text>
                <text transform="translate(95.5 375.5)">
                    12,000,000
                </text>
                <text transform="translate(95.5 335.5)">
                    14,000,000
                </text>
                <text transform="translate(95.5 295.5)">
                    16,000,000
                </text>
                <text transform="translate(95.5 255.5)">
                    18,000,000
                </text>
                <text transform="translate(95.5 215.5)">
                    20,000,000
                </text>
                <text transform="translate(95.5 175.5)">
                    22,000,000
                </text>
                <text transform="translate(95.5 135.5)">
                    24,000,000
                </text>
                <text transform="translate(95.5 95.5)">
                    26,000,000
                </text>
                <text transform="translate(95.5 55.5)">
                    28,000,000
                </text>
                <text transform="translate(95.5 15.5)">
                    30,000,000
                </text>
            </g>
            <path fill="none" stroke="#888" d="M102.5 611.5v-600" pointer-events="none"/>
            <text text-anchor="middle" transform="rotate(-90 164 147.5)" font-family="sans-serif" font-size="14" font-weight="400" pointer-events="none">
                operations / sec
            </text>
        </g>
        <g class="mark-rect role-mark marks" fill="#4c78a8">
            <path d="M106 610.348h72V611h-72zM186 610.218h72V611h-72zM266 597.035h72V611h-72zM346 570.435h72V611h-72zM426 530.996h72V611h-72zM506 596.233h72V611h-72zM586 596.87h72V611h-72zM666 602.44h72V611h-72zM746 11.669h72V611h-72zM826 608.318h72V611h-72zM906 581.593h72V611h-72z"/>
        </g>
    </g>
</svg>

