<svg class="marks" width="979" height="740" xmlns="http://www.w3.org/2000/svg">
    <g class="mark-group role-frame root">
        <path class="background" d="M94.5 11.5h880v600h-880z" fill="none" stroke="#ddd"/>
        <g class="mark-group role-axis">
            <path class="background" d="M94.5 11.5z" pointer-events="none" fill="none"/>
            <g class="mark-rule role-axis-grid" pointer-events="none" fill="none" stroke="#ddd">
                <path d="M94.5 611.5h880M94.5 568.5h880M94.5 525.5h880M94.5 482.5h880M94.5 440.5h880M94.5 397.5h880M94.5 354.5h880M94.5 311.5h880M94.5 268.5h880M94.5 225.5h880M94.5 182.5h880M94.5 140.5h880M94.5 97.5h880M94.5 54.5h880M94.5 11.5h880"/>
            </g>
        </g>
        <g class="mark-group role-axis">
            <path class="background" d="M94.5 611.5z" pointer-events="none" fill="none"/>
            <g class="mark-rule role-axis-tick" pointer-events="none" fill="none" stroke="#888">
                <path d="M181.5 611.5v5M357.5 611.5v5M533.5 611.5v5M709.5 611.5v5M885.5 611.5v5"/>
            </g>
            <g class="mark-text role-axis-label" pointer-events="none" font-family="sans-serif" font-size="16">
                <text transform="rotate(30 -1087.645 641.434)">
                    JSON Encode Decode
                </text>
                <text transform="rotate(30 -999.645 969.854)">
                    class-validator async
                </text>
                <text transform="rotate(30 -911.645 1298.275)">
                    class-validator sync
                </text>
                <text transform="rotate(30 -823.645 1626.695)">
                    io-ts
                </text>
                <text transform="rotate(30 -735.645 1955.115)">
                    runtypes
                </text>
            </g>
            <path fill="none" stroke="#888" d="M94.5 611.5h880" pointer-events="none"/>
            <text text-anchor="middle" transform="translate(534.5 732.356)" font-family="sans-serif" font-size="14" font-weight="400" pointer-events="none">
                method / module
            </text>
        </g>
        <g class="mark-group role-axis">
            <path class="background" d="M94.5 11.5z" pointer-events="none" fill="none"/>
            <g class="mark-rule role-axis-tick" pointer-events="none" fill="none" stroke="#888">
                <path d="M94.5 611.5h-5M94.5 568.5h-5M94.5 525.5h-5M94.5 482.5h-5M94.5 440.5h-5M94.5 397.5h-5M94.5 354.5h-5M94.5 311.5h-5M94.5 268.5h-5M94.5 225.5h-5M94.5 182.5h-5M94.5 140.5h-5M94.5 97.5h-5M94.5 54.5h-5M94.5 11.5h-5"/>
            </g>
            <g class="mark-text role-axis-label" pointer-events="none" text-anchor="end" font-family="sans-serif" font-size="12">
                <text transform="translate(87.5 615.5)">
                    0
                </text>
                <text transform="translate(87.5 572.643)">
                    100,000
                </text>
                <text transform="translate(87.5 529.786)">
                    200,000
                </text>
                <text transform="translate(87.5 486.929)">
                    300,000
                </text>
                <text transform="translate(87.5 444.071)">
                    400,000
                </text>
                <text transform="translate(87.5 401.214)">
                    500,000
                </text>
                <text transform="translate(87.5 358.357)">
                    600,000
                </text>
                <text transform="translate(87.5 315.5)">
                    700,000
                </text>
                <text transform="translate(87.5 272.643)">
                    800,000
                </text>
                <text transform="translate(87.5 229.786)">
                    900,000
                </text>
                <text transform="translate(87.5 186.929)">
                    1,000,000
                </text>
                <text transform="translate(87.5 144.071)">
                    1,100,000
                </text>
                <text transform="translate(87.5 101.214)">
                    1,200,000
                </text>
                <text transform="translate(87.5 58.357)">
                    1,300,000
                </text>
                <text transform="translate(87.5 15.5)">
                    1,400,000
                </text>
            </g>
            <path fill="none" stroke="#888" d="M94.5 611.5v-600" pointer-events="none"/>
            <text text-anchor="middle" transform="rotate(-90 164 147.5)" font-family="sans-serif" font-size="14" font-weight="400" pointer-events="none">
                operations / sec
            </text>
        </g>
        <g class="mark-rect role-mark marks" fill="#4c78a8">
            <path d="M102.8 577.235h158.4V611H102.8zM806.8 32.874h158.4V611H806.8zM630.8 336.625h158.4V611H630.8zM454.8 587.363h158.4V611H454.8zM278.8 593.996h158.4V611H278.8z"/>
        </g>
    </g>
</svg>

