<svg class="marks" width="979" height="740" viewBox="0 0 979 740" version="1.1" xmlns="http://www.w3.org/2000/svg" xmlns:xlink="http://www.w3.org/1999/xlink"><g transform="translate(94,11)"><g class="mark-group role-frame root"><g transform="translate(0,0)"><path class="background" d="M0.5,0.5h880v600h-880Z" style="fill: none; stroke: #ddd;"></path><g><g class="mark-group role-axis"><g transform="translate(0.5,0.5)"><path class="background" d="M0,0h0v0h0Z" style="pointer-events: none; fill: none;"></path><g><g class="mark-rule role-axis-grid" style="pointer-events: none;"><line transform="translate(0,600)" x2="880" y2="0" style="fill: none; stroke: #ddd; stroke-width: 1; opacity: 1;"></line><line transform="translate(0,557)" x2="880" y2="0" style="fill: none; stroke: #ddd; stroke-width: 1; opacity: 1;"></line><line transform="translate(0,514)" x2="880" y2="0" style="fill: none; stroke: #ddd; stroke-width: 1; opacity: 1;"></line><line transform="translate(0,471)" x2="880" y2="0" style="fill: none; stroke: #ddd; stroke-width: 1; opacity: 1;"></line><line transform="translate(0,429)" x2="880" y2="0" style="fill: none; stroke: #ddd; stroke-width: 1; opacity: 1;"></line><line transform="translate(0,386)" x2="880" y2="0" style="fill: none; stroke: #ddd; stroke-width: 1; opacity: 1;"></line><line transform="translate(0,343)" x2="880" y2="0" style="fill: none; stroke: #ddd; stroke-width: 1; opacity: 1;"></line><line transform="translate(0,300)" x2="880" y2="0" style="fill: none; stroke: #ddd; stroke-width: 1; opacity: 1;"></line><line transform="translate(0,257)" x2="880" y2="0" style="fill: none; stroke: #ddd; stroke-width: 1; opacity: 1;"></line><line transform="translate(0,214)" x2="880" y2="0" style="fill: none; stroke: #ddd; stroke-width: 1; opacity: 1;"></line><line transform="translate(0,171)" x2="880" y2="0" style="fill: none; stroke: #ddd; stroke-width: 1; opacity: 1;"></line><line transform="translate(0,129)" x2="880" y2="0" style="fill: none; stroke: #ddd; stroke-width: 1; opacity: 1;"></line><line transform="translate(0,86)" x2="880" y2="0" style="fill: none; stroke: #ddd; stroke-width: 1; opacity: 1;"></line><line transform="translate(0,43)" x2="880" y2="0" style="fill: none; stroke: #ddd; stroke-width: 1; opacity: 1;"></line><line transform="translate(0,0)" x2="880" y2="0" style="fill: none; stroke: #ddd; stroke-width: 1; opacity: 1;"></line></g></g></g></g><g class="mark-group role-axis"><g transform="translate(0.5,600.5)"><path class="background" d="M0,0h0v0h0Z" style="pointer-events: none; fill: none;"></path><g><g class="mark-rule role-axis-tick" style="pointer-events: none;"><line transform="translate(87,0)" x2="0" y2="5" style="fill: none; stroke: #888; stroke-width: 1; opacity: 1;"></line><line transform="translate(263,0)" x2="0" y2="5" style="fill: none; stroke: #888; stroke-width: 1; opacity: 1;"></line><line transform="translate(439,0)" x2="0" y2="5" style="fill: none; stroke: #888; stroke-width: 1; opacity: 1;"></line><line transform="translate(615,0)" x2="0" y2="5" style="fill: none; stroke: #888; stroke-width: 1; opacity: 1;"></line><line transform="translate(791,0)" x2="0" y2="5" style="fill: none; stroke: #888; stroke-width: 1; opacity: 1;"></line></g><g class="mark-text role-axis-label" style="pointer-events: none;"><text text-anchor="start" transform="translate(86.99999999999996,7) rotate(30) translate(0,13)" style="font-family: sans-serif; font-size: 16px; fill: #000; opacity: 1;">JSON Encode Decode</text><text text-anchor="start" transform="translate(262.99999999999994,7) rotate(30) translate(0,13)" style="font-family: sans-serif; font-size: 16px; fill: #000; opacity: 1;">class-validator async</text><text text-anchor="start" transform="translate(438.99999999999994,7) rotate(30) translate(0,13)" style="font-family: sans-serif; font-size: 16px; fill: #000; opacity: 1;">class-validator sync</text><text text-anchor="start" transform="translate(615,7) rotate(30) translate(0,13)" style="font-family: sans-serif; font-size: 16px; fill: #000; opacity: 1;">io-ts</text><text text-anchor="start" transform="translate(791,7) rotate(30) translate(0,13)" style="font-family: sans-serif; font-size: 16px; fill: #000; opacity: 1;">runtypes</text></g><g class="mark-rule role-axis-domain" style="pointer-events: none;"><line transform="translate(0,0)" x2="880" y2="0" style="fill: none; stroke: #888; stroke-width: 1; opacity: 1;"></line></g><g class="mark-text role-axis-title" style="pointer-events: none;"><text text-anchor="middle" transform="translate(440,120.85640646055097)" style="font-family: sans-serif; font-size: 14px; font-weight: normal; fill: #000; opacity: 1;">method / module</text></g></g></g></g><g class="mark-group role-axis"><g transform="translate(0.5,0.5)"><path class="background" d="M0,0h0v0h0Z" style="pointer-events: none; fill: none;"></path><g><g class="mark-rule role-axis-tick" style="pointer-events: none;"><line transform="translate(0,600)" x2="-5" y2="0" style="fill: none; stroke: #888; stroke-width: 1; opacity: 1;"></line><line transform="translate(0,557)" x2="-5" y2="0" style="fill: none; stroke: #888; stroke-width: 1; opacity: 1;"></line><line transform="translate(0,514)" x2="-5" y2="0" style="fill: none; stroke: #888; stroke-width: 1; opacity: 1;"></line><line transform="translate(0,471)" x2="-5" y2="0" style="fill: none; stroke: #888; stroke-width: 1; opacity: 1;"></line><line transform="translate(0,429)" x2="-5" y2="0" style="fill: none; stroke: #888; stroke-width: 1; opacity: 1;"></line><line transform="translate(0,386)" x2="-5" y2="0" style="fill: none; stroke: #888; stroke-width: 1; opacity: 1;"></line><line transform="translate(0,343)" x2="-5" y2="0" style="fill: none; stroke: #888; stroke-width: 1; opacity: 1;"></line><line transform="translate(0,300)" x2="-5" y2="0" style="fill: none; stroke: #888; stroke-width: 1; opacity: 1;"></line><line transform="translate(0,257)" x2="-5" y2="0" style="fill: none; stroke: #888; stroke-width: 1; opacity: 1;"></line><line transform="translate(0,214)" x2="-5" y2="0" style="fill: none; stroke: #888; stroke-width: 1; opacity: 1;"></line><line transform="translate(0,171)" x2="-5" y2="0" style="fill: none; stroke: #888; stroke-width: 1; opacity: 1;"></line><line transform="translate(0,129)" x2="-5" y2="0" style="fill: none; stroke: #888; stroke-width: 1; opacity: 1;"></line><line transform="translate(0,86)" x2="-5" y2="0" style="fill: none; stroke: #888; stroke-width: 1; opacity: 1;"></line><line transform="translate(0,43)" x2="-5" y2="0" style="fill: none; stroke: #888; stroke-width: 1; opacity: 1;"></line><line transform="translate(0,0)" x2="-5" y2="0" style="fill: none; stroke: #888; stroke-width: 1; opacity: 1;"></line></g><g class="mark-text role-axis-label" style="pointer-events: none;"><text text-anchor="end" transform="translate(-7,604)" style="font-family: sans-serif; font-size: 12px; fill: #000; opacity: 1;">0</text><text text-anchor="end" transform="translate(-7,561.1428571428571)" style="font-family: sans-serif; font-size: 12px; fill: #000; opacity: 1;">100,000</text><text text-anchor="end" transform="translate(-7,518.2857142857143)" style="font-family: sans-serif; font-size: 12px; fill: #000; opacity: 1;">200,000</text><text text-anchor="end" transform="translate(-7,475.42857142857144)" style="font-family: sans-serif; font-size: 12px; fill: #000; opacity: 1;">300,000</text><text text-anchor="end" transform="translate(-7,432.57142857142856)" style="font-family: sans-serif; font-size: 12px; fill: #000; opacity: 1;">400,000</text><text text-anchor="end" transform="translate(-7,389.7142857142857)" style="font-family: sans-serif; font-size: 12px; fill: #000; opacity: 1;">500,000</text><text text-anchor="end" transform="translate(-7,346.8571428571429)" style="font-family: sans-serif; font-size: 12px; fill: #000; opacity: 1;">600,000</text><text text-anchor="end" transform="translate(-7,304)" style="font-family: sans-serif; font-size: 12px; fill: #000; opacity: 1;">700,000</text><text text-anchor="end" transform="translate(-7,261.14285714285717)" style="font-family: sans-serif; font-size: 12px; fill: #000; opacity: 1;">800,000</text><text text-anchor="end" transform="translate(-7,218.28571428571428)" style="font-family: sans-serif; font-size: 12px; fill: #000; opacity: 1;">900,000</text><text text-anchor="end" transform="translate(-7,175.42857142857144)" style="font-family: sans-serif; font-size: 12px; fill: #000; opacity: 1;">1,000,000</text><text text-anchor="end" transform="translate(-7,132.57142857142856)" style="font-family: sans-serif; font-size: 12px; fill: #000; opacity: 1;">1,100,000</text><text text-anchor="end" transform="translate(-7,89.71428571428578)" style="font-family: sans-serif; font-size: 12px; fill: #000; opacity: 1;">1,200,000</text><text text-anchor="end" transform="translate(-7,46.85714285714289)" style="font-family: sans-serif; font-size: 12px; fill: #000; opacity: 1;">1,300,000</text><text text-anchor="end" transform="translate(-7,4)" style="font-family: sans-serif; font-size: 12px; fill: #000; opacity: 1;">1,400,000</text></g><g class="mark-rule role-axis-domain" style="pointer-events: none;"><line transform="translate(0,600)" x2="0" y2="-600" style="fill: none; stroke: #888; stroke-width: 1; opacity: 1;"></line></g><g class="mark-text role-axis-title" style="pointer-events: none;"><text text-anchor="middle" transform="translate(-75,300) rotate(-90) translate(0,-3)" style="font-family: sans-serif; font-size: 14px; font-weight: normal; fill: #000; opacity: 1;">hertz (operations / sec)</text></g></g></g></g><g class="mark-rect role-mark marks"><path d="M8.799999999999955,565.3470887627428h158.4v34.65291123725717h-158.4Z" style="fill: #4c78a8;"></path><path d="M712.8,1.7120574936317325h158.4v598.2879425063683h-158.4Z" style="fill: #4c78a8;"></path><path d="M536.8,308.26840960337825h158.4v291.73159039662175h-158.4Z" style="fill: #4c78a8;"></path><path d="M360.79999999999995,574.2726084785245h158.4v25.72739152147551h-158.4Z" style="fill: #4c78a8;"></path><path d="M184.79999999999995,581.0991480251415h158.4v18.900851974858483h-158.4Z" style="fill: #4c78a8;"></path></g></g></g></g></g></svg>