<svg class="marks" width="987" height="818" xmlns="http://www.w3.org/2000/svg">
    <path fill="#fff" d="M0 0h987v818H0z"/>
    <g class="mark-group role-frame root">
        <path class="background" d="M102.5 11.5h880v600h-880z" fill="none" stroke="#ddd"/>
        <g class="mark-group role-axis">
            <path class="background" d="M102.5 11.5z" pointer-events="none" fill="none"/>
            <g class="mark-rule role-axis-grid" pointer-events="none" fill="none" stroke="#ddd">
                <path d="M102.5 611.5h880M102.5 581.5h880M102.5 551.5h880M102.5 521.5h880M102.5 491.5h880M102.5 461.5h880M102.5 431.5h880M102.5 401.5h880M102.5 371.5h880M102.5 341.5h880M102.5 311.5h880M102.5 281.5h880M102.5 251.5h880M102.5 221.5h880M102.5 191.5h880M102.5 161.5h880M102.5 131.5h880M102.5 101.5h880M102.5 71.5h880M102.5 41.5h880M102.5 11.5h880"/>
            </g>
        </g>
        <g class="mark-group role-axis">
            <path class="background" d="M102.5 611.5z" pointer-events="none" fill="none"/>
            <g class="mark-rule role-axis-tick" pointer-events="none" fill="none" stroke="#888">
                <path d="M157.5 611.5v5M267.5 611.5v5M377.5 611.5v5M487.5 611.5v5M597.5 611.5v5M707.5 611.5v5M817.5 611.5v5M927.5 611.5v5"/>
            </g>
            <g class="mark-text role-axis-label" pointer-events="none" font-family="sans-serif" font-size="14">
                <text transform="rotate(90 -232.75 385.75)">
                    class-transformer-valid…
                </text>
                <text transform="rotate(90 -177.75 440.75)">
                    class-transformer-valid…
                </text>
                <text transform="rotate(90 -122.75 495.75)">
                    io-ts
                </text>
                <text transform="rotate(90 -67.75 550.75)">
                    marshal
                </text>
                <text transform="rotate(90 -12.75 605.75)">
                    runtypes
                </text>
                <text transform="rotate(90 42.25 660.75)">
                    toi
                </text>
                <text transform="rotate(90 97.25 715.75)">
                    ts-json-validator
                </text>
                <text transform="rotate(90 152.25 770.75)">
                    zod
                </text>
            </g>
            <path fill="none" stroke="#888" d="M102.5 611.5h880" pointer-events="none"/>
            <text text-anchor="middle" transform="translate(542.5 810.5)" font-family="sans-serif" font-size="14" font-weight="400" pointer-events="none">
                module
            </text>
        </g>
        <g class="mark-group role-axis">
            <path class="background" d="M102.5 11.5z" pointer-events="none" fill="none"/>
            <g class="mark-rule role-axis-tick" pointer-events="none" fill="none" stroke="#888">
                <path d="M102.5 611.5h-5M102.5 581.5h-5M102.5 551.5h-5M102.5 521.5h-5M102.5 491.5h-5M102.5 461.5h-5M102.5 431.5h-5M102.5 401.5h-5M102.5 371.5h-5M102.5 341.5h-5M102.5 311.5h-5M102.5 281.5h-5M102.5 251.5h-5M102.5 221.5h-5M102.5 191.5h-5M102.5 161.5h-5M102.5 131.5h-5M102.5 101.5h-5M102.5 71.5h-5M102.5 41.5h-5M102.5 11.5h-5"/>
            </g>
            <g class="mark-text role-axis-label" pointer-events="none" text-anchor="end" font-family="sans-serif" font-size="12">
                <text transform="translate(95.5 615.5)">
                    0
                </text>
                <text transform="translate(95.5 585.5)">
                    2,000,000
                </text>
                <text transform="translate(95.5 555.5)">
                    4,000,000
                </text>
                <text transform="translate(95.5 525.5)">
                    6,000,000
                </text>
                <text transform="translate(95.5 495.5)">
                    8,000,000
                </text>
                <text transform="translate(95.5 465.5)">
                    10,000,000
                </text>
                <text transform="translate(95.5 435.5)">
                    12,000,000
                </text>
                <text transform="translate(95.5 405.5)">
                    14,000,000
                </text>
                <text transform="translate(95.5 375.5)">
                    16,000,000
                </text>
                <text transform="translate(95.5 345.5)">
                    18,000,000
                </text>
                <text transform="translate(95.5 315.5)">
                    20,000,000
                </text>
                <text transform="translate(95.5 285.5)">
                    22,000,000
                </text>
                <text transform="translate(95.5 255.5)">
                    24,000,000
                </text>
                <text transform="translate(95.5 225.5)">
                    26,000,000
                </text>
                <text transform="translate(95.5 195.5)">
                    28,000,000
                </text>
                <text transform="translate(95.5 165.5)">
                    30,000,000
                </text>
                <text transform="translate(95.5 135.5)">
                    32,000,000
                </text>
                <text transform="translate(95.5 105.5)">
                    34,000,000
                </text>
                <text transform="translate(95.5 75.5)">
                    36,000,000
                </text>
                <text transform="translate(95.5 45.5)">
                    38,000,000
                </text>
                <text transform="translate(95.5 15.5)">
                    40,000,000
                </text>
            </g>
            <path fill="none" stroke="#888" d="M102.5 611.5v-600" pointer-events="none"/>
            <text text-anchor="middle" transform="rotate(-90 164 147.5)" font-family="sans-serif" font-size="14" font-weight="400" pointer-events="none">
                operations / sec
            </text>
        </g>
        <g class="mark-rect role-mark marks" fill="#4c78a8">
            <path d="M107.5 610.52h99v.48h-99zM217.5 610.24h99v.76h-99zM327.5 579.475h99V611h-99zM437.5 542.247h99V611h-99zM547.5 579.87h99V611h-99zM657.5 604.38h99V611h-99zM767.5 27.733h99V611h-99zM877.5 584.09h99V611h-99z"/>
        </g>
    </g>
</svg>

