<svg class="marks" width="1035" height="740" xmlns="http://www.w3.org/2000/svg">
    <path fill="#fff" d="M0 0h1035v740H0z"/>
    <g class="mark-group role-frame root">
        <path class="background" d="M94.5 11.5h880v600h-880z" fill="none" stroke="#ddd"/>
        <g class="mark-group role-axis">
            <path class="background" d="M94.5 11.5z" pointer-events="none" fill="none"/>
            <g class="mark-rule role-axis-grid" pointer-events="none" fill="none" stroke="#ddd">
                <path d="M94.5 611.5h880M94.5 578.5h880M94.5 544.5h880M94.5 511.5h880M94.5 478.5h880M94.5 444.5h880M94.5 411.5h880M94.5 378.5h880M94.5 344.5h880M94.5 311.5h880M94.5 278.5h880M94.5 244.5h880M94.5 211.5h880M94.5 178.5h880M94.5 144.5h880M94.5 111.5h880M94.5 78.5h880M94.5 44.5h880M94.5 11.5h880"/>
            </g>
        </g>
        <g class="mark-group role-axis">
            <path class="background" d="M94.5 611.5z" pointer-events="none" fill="none"/>
            <g class="mark-rule role-axis-tick" pointer-events="none" fill="none" stroke="#888">
                <path d="M149.5 611.5v5M259.5 611.5v5M369.5 611.5v5M479.5 611.5v5M589.5 611.5v5M699.5 611.5v5M809.5 611.5v5M919.5 611.5v5"/>
            </g>
            <g class="mark-text role-axis-label" pointer-events="none" font-family="sans-serif" font-size="16">
                <text transform="rotate(30 -1103.895 580.788)">
                    JSON Encode Decode
                </text>
                <text transform="rotate(30 -1048.895 786.05)">
                    class-validator async
                </text>
                <text transform="rotate(30 -993.895 991.313)">
                    class-validator sync
                </text>
                <text transform="rotate(30 -938.895 1196.576)">
                    io-ts
                </text>
                <text transform="rotate(30 -883.895 1401.839)">
                    mashal
                </text>
                <text transform="rotate(30 -828.895 1607.102)">
                    runtypes
                </text>
                <text transform="rotate(30 -773.895 1812.365)">
                    toi
                </text>
                <text transform="rotate(30 -718.895 2017.627)">
                    ts-json-validator
                </text>
            </g>
            <path fill="none" stroke="#888" d="M94.5 611.5h880" pointer-events="none"/>
            <text text-anchor="middle" transform="translate(534.5 732.356)" font-family="sans-serif" font-size="14" font-weight="400" pointer-events="none">
                module
            </text>
        </g>
        <g class="mark-group role-axis">
            <path class="background" d="M94.5 11.5z" pointer-events="none" fill="none"/>
            <g class="mark-rule role-axis-tick" pointer-events="none" fill="none" stroke="#888">
                <path d="M94.5 611.5h-5M94.5 578.5h-5M94.5 544.5h-5M94.5 511.5h-5M94.5 478.5h-5M94.5 444.5h-5M94.5 411.5h-5M94.5 378.5h-5M94.5 344.5h-5M94.5 311.5h-5M94.5 278.5h-5M94.5 244.5h-5M94.5 211.5h-5M94.5 178.5h-5M94.5 144.5h-5M94.5 111.5h-5M94.5 78.5h-5M94.5 44.5h-5M94.5 11.5h-5"/>
            </g>
            <g class="mark-text role-axis-label" pointer-events="none" text-anchor="end" font-family="sans-serif" font-size="12">
                <text transform="translate(87.5 615.5)">
                    0
                </text>
                <text transform="translate(87.5 582.167)">
                    100,000
                </text>
                <text transform="translate(87.5 548.833)">
                    200,000
                </text>
                <text transform="translate(87.5 515.5)">
                    300,000
                </text>
                <text transform="translate(87.5 482.167)">
                    400,000
                </text>
                <text transform="translate(87.5 448.833)">
                    500,000
                </text>
                <text transform="translate(87.5 415.5)">
                    600,000
                </text>
                <text transform="translate(87.5 382.167)">
                    700,000
                </text>
                <text transform="translate(87.5 348.833)">
                    800,000
                </text>
                <text transform="translate(87.5 315.5)">
                    900,000
                </text>
                <text transform="translate(87.5 282.167)">
                    1,000,000
                </text>
                <text transform="translate(87.5 248.833)">
                    1,100,000
                </text>
                <text transform="translate(87.5 215.5)">
                    1,200,000
                </text>
                <text transform="translate(87.5 182.167)">
                    1,300,000
                </text>
                <text transform="translate(87.5 148.833)">
                    1,400,000
                </text>
                <text transform="translate(87.5 115.5)">
                    1,500,000
                </text>
                <text transform="translate(87.5 82.167)">
                    1,600,000
                </text>
                <text transform="translate(87.5 48.833)">
                    1,700,000
                </text>
                <text transform="translate(87.5 15.5)">
                    1,800,000
                </text>
            </g>
            <path fill="none" stroke="#888" d="M94.5 611.5v-600" pointer-events="none"/>
            <text text-anchor="middle" transform="rotate(-90 164 147.5)" font-family="sans-serif" font-size="14" font-weight="400" pointer-events="none">
                operations / sec
            </text>
        </g>
        <g class="mark-rect role-mark marks" fill="#4c78a8">
            <path d="M99.5 575.513h99V611h-99zM649.5 68.393h99V611h-99zM429.5 367.643h99V611h-99zM319.5 589.56h99V611h-99zM209.5 594.963h99V611h-99zM869.5 502.235h99V611h-99zM759.5 446.786h99V611h-99zM539.5 518.13h99V611h-99z"/>
        </g>
    </g>
</svg>

