<svg class="marks" width="987" height="818" xmlns="http://www.w3.org/2000/svg">
    <path fill="#fff" d="M0 0h987v818H0z"/>
    <g class="mark-group role-frame root">
        <path class="background" d="M102.5 11.5h880v600h-880z" fill="none" stroke="#ddd"/>
        <g class="mark-group role-axis">
            <path class="background" d="M102.5 11.5z" pointer-events="none" fill="none"/>
            <g class="mark-rule role-axis-grid" pointer-events="none" fill="none" stroke="#ddd">
                <path d="M102.5 611.5h880M102.5 551.5h880M102.5 491.5h880M102.5 431.5h880M102.5 371.5h880M102.5 311.5h880M102.5 251.5h880M102.5 191.5h880M102.5 131.5h880M102.5 71.5h880M102.5 11.5h880"/>
            </g>
        </g>
        <g class="mark-group role-axis">
            <path class="background" d="M102.5 611.5z" pointer-events="none" fill="none"/>
            <g class="mark-rule role-axis-tick" pointer-events="none" fill="none" stroke="#888">
                <path d="M150.5 611.5v5M248.5 611.5v5M346.5 611.5v5M444.5 611.5v5M542.5 611.5v5M639.5 611.5v5M737.5 611.5v5M835.5 611.5v5M933.5 611.5v5"/>
            </g>
            <g class="mark-text role-axis-label" pointer-events="none" font-family="sans-serif" font-size="14">
                <text transform="rotate(90 -235.806 382.694)">
                    class-transformer-valid…
                </text>
                <text transform="rotate(90 -186.917 431.583)">
                    class-transformer-valid…
                </text>
                <text transform="rotate(90 -138.028 480.472)">
                    io-ts
                </text>
                <text transform="rotate(90 -89.139 529.361)">
                    marshal
                </text>
                <text transform="rotate(90 -40.25 578.25)">
                    runtypes
                </text>
                <text transform="rotate(90 8.639 627.139)">
                    toi
                </text>
                <text transform="rotate(90 57.528 676.028)">
                    ts-json-validator
                </text>
                <text transform="rotate(90 106.417 724.917)">
                    ts-utils
                </text>
                <text transform="rotate(90 155.306 773.806)">
                    zod
                </text>
            </g>
            <path fill="none" stroke="#888" d="M102.5 611.5h880" pointer-events="none"/>
            <text text-anchor="middle" transform="translate(542.5 810.5)" font-family="sans-serif" font-size="14" font-weight="400" pointer-events="none">
                module
            </text>
        </g>
        <g class="mark-group role-axis">
            <path class="background" d="M102.5 11.5z" pointer-events="none" fill="none"/>
            <g class="mark-rule role-axis-tick" pointer-events="none" fill="none" stroke="#888">
                <path d="M102.5 611.5h-5M102.5 551.5h-5M102.5 491.5h-5M102.5 431.5h-5M102.5 371.5h-5M102.5 311.5h-5M102.5 251.5h-5M102.5 191.5h-5M102.5 131.5h-5M102.5 71.5h-5M102.5 11.5h-5"/>
            </g>
            <g class="mark-text role-axis-label" pointer-events="none" text-anchor="end" font-family="sans-serif" font-size="12">
                <text transform="translate(95.5 615.5)">
                    0
                </text>
                <text transform="translate(95.5 555.5)">
                    5,000,000
                </text>
                <text transform="translate(95.5 495.5)">
                    10,000,000
                </text>
                <text transform="translate(95.5 435.5)">
                    15,000,000
                </text>
                <text transform="translate(95.5 375.5)">
                    20,000,000
                </text>
                <text transform="translate(95.5 315.5)">
                    25,000,000
                </text>
                <text transform="translate(95.5 255.5)">
                    30,000,000
                </text>
                <text transform="translate(95.5 195.5)">
                    35,000,000
                </text>
                <text transform="translate(95.5 135.5)">
                    40,000,000
                </text>
                <text transform="translate(95.5 75.5)">
                    45,000,000
                </text>
                <text transform="translate(95.5 15.5)">
                    50,000,000
                </text>
            </g>
            <path fill="none" stroke="#888" d="M102.5 611.5v-600" pointer-events="none"/>
            <text text-anchor="middle" transform="rotate(-90 164 147.5)" font-family="sans-serif" font-size="14" font-weight="400" pointer-events="none">
                operations / sec
            </text>
        </g>
        <g class="mark-rect role-mark marks" fill="#4c78a8">
            <path d="M106.889 610.392h88V611h-88zM204.667 610.301h88V611h-88zM302.444 579.855h88V611h-88zM400.222 544.14h88V611h-88zM498 581.65h88V611h-88zM595.778 604.616h88V611h-88zM693.556 50.037h88V611h-88zM791.333 609.12h88V611h-88zM889.111 585.328h88V611h-88z"/>
        </g>
    </g>
</svg>

