<svg class="marks" width="1027" height="740" xmlns="http://www.w3.org/2000/svg">
    <path fill="#fff" d="M0 0h1027v740H0z"/>
    <g class="mark-group role-frame root">
        <path class="background" d="M94.5 11.5h880v600h-880z" fill="none" stroke="#ddd"/>
        <g class="mark-group role-axis">
            <path class="background" d="M94.5 11.5z" pointer-events="none" fill="none"/>
            <g class="mark-rule role-axis-grid" pointer-events="none" fill="none" stroke="#ddd">
                <path d="M94.5 611.5h880M94.5 574.5h880M94.5 536.5h880M94.5 499.5h880M94.5 461.5h880M94.5 424.5h880M94.5 386.5h880M94.5 349.5h880M94.5 311.5h880M94.5 274.5h880M94.5 236.5h880M94.5 199.5h880M94.5 161.5h880M94.5 124.5h880M94.5 86.5h880M94.5 49.5h880M94.5 11.5h880"/>
            </g>
        </g>
        <g class="mark-group role-axis">
            <path class="background" d="M94.5 611.5z" pointer-events="none" fill="none"/>
            <g class="mark-rule role-axis-tick" pointer-events="none" fill="none" stroke="#888">
                <path d="M156.5 611.5v5M282.5 611.5v5M408.5 611.5v5M533.5 611.5v5M659.5 611.5v5M785.5 611.5v5M911.5 611.5v5"/>
            </g>
            <g class="mark-text role-axis-label" pointer-events="none" font-family="sans-serif" font-size="16">
                <text transform="rotate(30 -1099.966 595.45)">
                    JSON Encode Decode
                </text>
                <text transform="rotate(30 -1037.11 830.035)">
                    class-validator async
                </text>
                <text transform="rotate(30 -974.252 1064.622)">
                    class-validator sync
                </text>
                <text transform="rotate(30 -911.395 1299.208)">
                    io-ts
                </text>
                <text transform="rotate(30 -848.538 1533.794)">
                    runtypes
                </text>
                <text transform="rotate(30 -785.68 1768.38)">
                    toi
                </text>
                <text transform="rotate(30 -722.824 2002.966)">
                    ts-json-validator
                </text>
            </g>
            <path fill="none" stroke="#888" d="M94.5 611.5h880" pointer-events="none"/>
            <text text-anchor="middle" transform="translate(534.5 732.356)" font-family="sans-serif" font-size="14" font-weight="400" pointer-events="none">
                module
            </text>
        </g>
        <g class="mark-group role-axis">
            <path class="background" d="M94.5 11.5z" pointer-events="none" fill="none"/>
            <g class="mark-rule role-axis-tick" pointer-events="none" fill="none" stroke="#888">
                <path d="M94.5 611.5h-5M94.5 574.5h-5M94.5 536.5h-5M94.5 499.5h-5M94.5 461.5h-5M94.5 424.5h-5M94.5 386.5h-5M94.5 349.5h-5M94.5 311.5h-5M94.5 274.5h-5M94.5 236.5h-5M94.5 199.5h-5M94.5 161.5h-5M94.5 124.5h-5M94.5 86.5h-5M94.5 49.5h-5M94.5 11.5h-5"/>
            </g>
            <g class="mark-text role-axis-label" pointer-events="none" text-anchor="end" font-family="sans-serif" font-size="12">
                <text transform="translate(87.5 615.5)">
                    0
                </text>
                <text transform="translate(87.5 578)">
                    100,000
                </text>
                <text transform="translate(87.5 540.5)">
                    200,000
                </text>
                <text transform="translate(87.5 503)">
                    300,000
                </text>
                <text transform="translate(87.5 465.5)">
                    400,000
                </text>
                <text transform="translate(87.5 428)">
                    500,000
                </text>
                <text transform="translate(87.5 390.5)">
                    600,000
                </text>
                <text transform="translate(87.5 353)">
                    700,000
                </text>
                <text transform="translate(87.5 315.5)">
                    800,000
                </text>
                <text transform="translate(87.5 278)">
                    900,000
                </text>
                <text transform="translate(87.5 240.5)">
                    1,000,000
                </text>
                <text transform="translate(87.5 203)">
                    1,100,000
                </text>
                <text transform="translate(87.5 165.5)">
                    1,200,000
                </text>
                <text transform="translate(87.5 128)">
                    1,300,000
                </text>
                <text transform="translate(87.5 90.5)">
                    1,400,000
                </text>
                <text transform="translate(87.5 53)">
                    1,500,000
                </text>
                <text transform="translate(87.5 15.5)">
                    1,600,000
                </text>
            </g>
            <path fill="none" stroke="#888" d="M94.5 611.5v-600" pointer-events="none"/>
            <text text-anchor="middle" transform="rotate(-90 164 147.5)" font-family="sans-serif" font-size="14" font-weight="400" pointer-events="none">
                operations / sec
            </text>
        </g>
        <g class="mark-rect role-mark marks" fill="#4c78a8">
            <path d="M100.286 572.621h113.143V611H100.286zM603.143 48.438h113.143V611H603.143zM477.429 357.195H590.57V611H477.43zM351.714 591.802h113.143V611H351.714zM226 596.672h113.143V611H226zM854.571 492.497h113.143V611H854.571zM728.857 439.737H842V611H728.857z"/>
        </g>
    </g>
</svg>

