<svg class="marks" width="1016" height="740" xmlns="http://www.w3.org/2000/svg">
    <path fill="#fff" d="M0 0h1016v740H0z"/>
    <g class="mark-group role-frame root">
        <path class="background" d="M94.5 11.5h880v600h-880z" fill="none" stroke="#ddd"/>
        <g class="mark-group role-axis">
            <path class="background" d="M94.5 11.5z" pointer-events="none" fill="none"/>
            <g class="mark-rule role-axis-grid" pointer-events="none" fill="none" stroke="#ddd">
                <path d="M94.5 611.5h880M94.5 561.5h880M94.5 511.5h880M94.5 461.5h880M94.5 411.5h880M94.5 361.5h880M94.5 311.5h880M94.5 261.5h880M94.5 211.5h880M94.5 161.5h880M94.5 111.5h880M94.5 61.5h880M94.5 11.5h880"/>
            </g>
        </g>
        <g class="mark-group role-axis">
            <path class="background" d="M94.5 611.5z" pointer-events="none" fill="none"/>
            <g class="mark-rule role-axis-tick" pointer-events="none" fill="none" stroke="#888">
                <path d="M166.5 611.5v5M313.5 611.5v5M460.5 611.5v5M606.5 611.5v5M753.5 611.5v5M900.5 611.5v5"/>
            </g>
            <g class="mark-text role-axis-label" pointer-events="none" font-family="sans-serif" font-size="16">
                <text transform="rotate(30 -1094.978 614.065)">
                    JSON Encode Decode
                </text>
                <text transform="rotate(30 -1021.645 887.749)">
                    class-validator async
                </text>
                <text transform="rotate(30 -948.312 1161.433)">
                    class-validator sync
                </text>
                <text transform="rotate(30 -874.978 1435.116)">
                    io-ts
                </text>
                <text transform="rotate(30 -801.645 1708.8)">
                    runtypes
                </text>
                <text transform="rotate(30 -728.312 1982.484)">
                    ts-json-validator
                </text>
            </g>
            <path fill="none" stroke="#888" d="M94.5 611.5h880" pointer-events="none"/>
            <text text-anchor="middle" transform="translate(534.5 732.356)" font-family="sans-serif" font-size="14" font-weight="400" pointer-events="none">
                method / module
            </text>
        </g>
        <g class="mark-group role-axis">
            <path class="background" d="M94.5 11.5z" pointer-events="none" fill="none"/>
            <g class="mark-rule role-axis-tick" pointer-events="none" fill="none" stroke="#888">
                <path d="M94.5 611.5h-5M94.5 561.5h-5M94.5 511.5h-5M94.5 461.5h-5M94.5 411.5h-5M94.5 361.5h-5M94.5 311.5h-5M94.5 261.5h-5M94.5 211.5h-5M94.5 161.5h-5M94.5 111.5h-5M94.5 61.5h-5M94.5 11.5h-5"/>
            </g>
            <g class="mark-text role-axis-label" pointer-events="none" text-anchor="end" font-family="sans-serif" font-size="12">
                <text transform="translate(87.5 615.5)">
                    0
                </text>
                <text transform="translate(87.5 565.5)">
                    100,000
                </text>
                <text transform="translate(87.5 515.5)">
                    200,000
                </text>
                <text transform="translate(87.5 465.5)">
                    300,000
                </text>
                <text transform="translate(87.5 415.5)">
                    400,000
                </text>
                <text transform="translate(87.5 365.5)">
                    500,000
                </text>
                <text transform="translate(87.5 315.5)">
                    600,000
                </text>
                <text transform="translate(87.5 265.5)">
                    700,000
                </text>
                <text transform="translate(87.5 215.5)">
                    800,000
                </text>
                <text transform="translate(87.5 165.5)">
                    900,000
                </text>
                <text transform="translate(87.5 115.5)">
                    1,000,000
                </text>
                <text transform="translate(87.5 65.5)">
                    1,100,000
                </text>
                <text transform="translate(87.5 15.5)">
                    1,200,000
                </text>
            </g>
            <path fill="none" stroke="#888" d="M94.5 611.5v-600" pointer-events="none"/>
            <text text-anchor="middle" transform="rotate(-90 164 147.5)" font-family="sans-serif" font-size="14" font-weight="400" pointer-events="none">
                operations / sec
            </text>
        </g>
        <g class="mark-rect role-mark marks" fill="#4c78a8">
            <path d="M101.333 576.994h132V611h-132zM688 30.749h132V611H688zM541.333 278.975h132V611h-132zM394.667 594.283h132V611h-132zM248 602.034h132V611H248zM834.667 572.408h132V611h-132z"/>
        </g>
    </g>
</svg>

