<svg class="marks" width="1027" height="741" xmlns="http://www.w3.org/2000/svg">
    <path fill="#fff" d="M0 0h1027v741H0z"/>
    <g class="mark-group role-frame root">
        <path class="background" d="M94.5 11.5h880v600h-880z" fill="none" stroke="#ddd"/>
        <g class="mark-group role-axis">
            <path class="background" d="M94.5 11.5z" pointer-events="none" fill="none"/>
            <g class="mark-rule role-axis-grid" pointer-events="none" fill="none" stroke="#ddd">
                <path d="M94.5 611.5h880M94.5 581.5h880M94.5 551.5h880M94.5 521.5h880M94.5 491.5h880M94.5 461.5h880M94.5 431.5h880M94.5 401.5h880M94.5 371.5h880M94.5 341.5h880M94.5 311.5h880M94.5 281.5h880M94.5 251.5h880M94.5 221.5h880M94.5 191.5h880M94.5 161.5h880M94.5 131.5h880M94.5 101.5h880M94.5 71.5h880M94.5 41.5h880M94.5 11.5h880"/>
            </g>
        </g>
        <g class="mark-group role-axis">
            <path class="background" d="M94.5 611.5z" pointer-events="none" fill="none"/>
            <g class="mark-rule role-axis-tick" pointer-events="none" fill="none" stroke="#888">
                <path d="M156.5 611.5v5M282.5 611.5v5M408.5 611.5v5M533.5 611.5v5M659.5 611.5v5M785.5 611.5v5M911.5 611.5v5"/>
            </g>
            <g class="mark-text role-axis-label" pointer-events="none" font-family="sans-serif" font-size="16">
                <text transform="rotate(30 -1099.966 595.45)">
                    class-transformer-v…
                </text>
                <text transform="rotate(30 -1037.11 830.035)">
                    class-transformer-v…
                </text>
                <text transform="rotate(30 -974.252 1064.622)">
                    io-ts
                </text>
                <text transform="rotate(30 -911.395 1299.208)">
                    marshal
                </text>
                <text transform="rotate(30 -848.538 1533.794)">
                    runtypes
                </text>
                <text transform="rotate(30 -785.68 1768.38)">
                    toi
                </text>
                <text transform="rotate(30 -722.824 2002.966)">
                    ts-json-validator
                </text>
            </g>
            <path fill="none" stroke="#888" d="M94.5 611.5h880" pointer-events="none"/>
            <text text-anchor="middle" transform="translate(534.5 733.356)" font-family="sans-serif" font-size="14" font-weight="400" pointer-events="none">
                module
            </text>
        </g>
        <g class="mark-group role-axis">
            <path class="background" d="M94.5 11.5z" pointer-events="none" fill="none"/>
            <g class="mark-rule role-axis-tick" pointer-events="none" fill="none" stroke="#888">
                <path d="M94.5 611.5h-5M94.5 581.5h-5M94.5 551.5h-5M94.5 521.5h-5M94.5 491.5h-5M94.5 461.5h-5M94.5 431.5h-5M94.5 401.5h-5M94.5 371.5h-5M94.5 341.5h-5M94.5 311.5h-5M94.5 281.5h-5M94.5 251.5h-5M94.5 221.5h-5M94.5 191.5h-5M94.5 161.5h-5M94.5 131.5h-5M94.5 101.5h-5M94.5 71.5h-5M94.5 41.5h-5M94.5 11.5h-5"/>
            </g>
            <g class="mark-text role-axis-label" pointer-events="none" text-anchor="end" font-family="sans-serif" font-size="12">
                <text transform="translate(87.5 615.5)">
                    0
                </text>
                <text transform="translate(87.5 585.5)">
                    200,000
                </text>
                <text transform="translate(87.5 555.5)">
                    400,000
                </text>
                <text transform="translate(87.5 525.5)">
                    600,000
                </text>
                <text transform="translate(87.5 495.5)">
                    800,000
                </text>
                <text transform="translate(87.5 465.5)">
                    1,000,000
                </text>
                <text transform="translate(87.5 435.5)">
                    1,200,000
                </text>
                <text transform="translate(87.5 405.5)">
                    1,400,000
                </text>
                <text transform="translate(87.5 375.5)">
                    1,600,000
                </text>
                <text transform="translate(87.5 345.5)">
                    1,800,000
                </text>
                <text transform="translate(87.5 315.5)">
                    2,000,000
                </text>
                <text transform="translate(87.5 285.5)">
                    2,200,000
                </text>
                <text transform="translate(87.5 255.5)">
                    2,400,000
                </text>
                <text transform="translate(87.5 225.5)">
                    2,600,000
                </text>
                <text transform="translate(87.5 195.5)">
                    2,800,000
                </text>
                <text transform="translate(87.5 165.5)">
                    3,000,000
                </text>
                <text transform="translate(87.5 135.5)">
                    3,200,000
                </text>
                <text transform="translate(87.5 105.5)">
                    3,400,000
                </text>
                <text transform="translate(87.5 75.5)">
                    3,600,000
                </text>
                <text transform="translate(87.5 45.5)">
                    3,800,000
                </text>
                <text transform="translate(87.5 15.5)">
                    4,000,000
                </text>
            </g>
            <path fill="none" stroke="#888" d="M94.5 611.5v-600" pointer-events="none"/>
            <text text-anchor="middle" transform="rotate(-90 164 147.5)" font-family="sans-serif" font-size="14" font-weight="400" pointer-events="none">
                operations / sec
            </text>
        </g>
        <g class="mark-rect role-mark marks" fill="#4c78a8">
            <path d="M100.286 607.89h113.143V611H100.286zM226 606.254h113.143V611H226zM351.714 382.215h113.143V611H351.714zM477.429 37.214H590.57V611H477.43zM603.143 402.036h113.143V611H603.143zM728.857 554.45H842V611H728.857zM854.571 564.985h113.143V611H854.571z"/>
        </g>
    </g>
</svg>

