<svg class="marks" width="987" height="818" xmlns="http://www.w3.org/2000/svg">
    <path fill="#fff" d="M0 0h987v818H0z"/>
    <g class="mark-group role-frame root">
        <path class="background" d="M102.5 11.5h880v600h-880z" fill="none" stroke="#ddd"/>
        <g class="mark-group role-axis">
            <path class="background" d="M102.5 11.5z" pointer-events="none" fill="none"/>
            <g class="mark-rule role-axis-grid" pointer-events="none" fill="none" stroke="#ddd">
                <path d="M102.5 611.5h880M102.5 571.5h880M102.5 531.5h880M102.5 491.5h880M102.5 451.5h880M102.5 411.5h880M102.5 371.5h880M102.5 331.5h880M102.5 291.5h880M102.5 251.5h880M102.5 211.5h880M102.5 171.5h880M102.5 131.5h880M102.5 91.5h880M102.5 51.5h880M102.5 11.5h880"/>
            </g>
        </g>
        <g class="mark-group role-axis">
            <path class="background" d="M102.5 611.5z" pointer-events="none" fill="none"/>
            <g class="mark-rule role-axis-tick" pointer-events="none" fill="none" stroke="#888">
                <path d="M135.5 611.5v5M203.5 611.5v5M271.5 611.5v5M338.5 611.5v5M406.5 611.5v5M474.5 611.5v5M542.5 611.5v5M609.5 611.5v5M677.5 611.5v5M745.5 611.5v5M812.5 611.5v5M880.5 611.5v5M948.5 611.5v5"/>
            </g>
            <g class="mark-text role-axis-label" pointer-events="none" font-family="sans-serif" font-size="14">
                <text transform="rotate(90 -243.327 375.173)">
                    class-transformer-valid…
                </text>
                <text transform="rotate(90 -209.48 409.02)">
                    class-transformer-valid…
                </text>
                <text transform="rotate(90 -175.635 442.865)">
                    funval
                </text>
                <text transform="rotate(90 -141.788 476.712)">
                    io-ts
                </text>
                <text transform="rotate(90 -107.942 510.558)">
                    json-decoder
                </text>
                <text transform="rotate(90 -74.096 544.404)">
                    marshal
                </text>
                <text transform="rotate(90 -40.25 578.25)">
                    myzod
                </text>
                <text transform="rotate(90 -6.404 612.096)">
                    purify-ts
                </text>
                <text transform="rotate(90 27.442 645.942)">
                    runtypes
                </text>
                <text transform="rotate(90 61.288 679.788)">
                    toi
                </text>
                <text transform="rotate(90 95.135 713.635)">
                    ts-json-validator
                </text>
                <text transform="rotate(90 128.98 747.48)">
                    ts-utils
                </text>
                <text transform="rotate(90 162.827 781.327)">
                    zod
                </text>
            </g>
            <path fill="none" stroke="#888" d="M102.5 611.5h880" pointer-events="none"/>
            <text text-anchor="middle" transform="translate(542.5 810.5)" font-family="sans-serif" font-size="14" font-weight="400" pointer-events="none">
                module
            </text>
        </g>
        <g class="mark-group role-axis">
            <path class="background" d="M102.5 11.5z" pointer-events="none" fill="none"/>
            <g class="mark-rule role-axis-tick" pointer-events="none" fill="none" stroke="#888">
                <path d="M102.5 611.5h-5M102.5 571.5h-5M102.5 531.5h-5M102.5 491.5h-5M102.5 451.5h-5M102.5 411.5h-5M102.5 371.5h-5M102.5 331.5h-5M102.5 291.5h-5M102.5 251.5h-5M102.5 211.5h-5M102.5 171.5h-5M102.5 131.5h-5M102.5 91.5h-5M102.5 51.5h-5M102.5 11.5h-5"/>
            </g>
            <g class="mark-text role-axis-label" pointer-events="none" text-anchor="end" font-family="sans-serif" font-size="12">
                <text transform="translate(95.5 615.5)">
                    0
                </text>
                <text transform="translate(95.5 575.5)">
                    2,000,000
                </text>
                <text transform="translate(95.5 535.5)">
                    4,000,000
                </text>
                <text transform="translate(95.5 495.5)">
                    6,000,000
                </text>
                <text transform="translate(95.5 455.5)">
                    8,000,000
                </text>
                <text transform="translate(95.5 415.5)">
                    10,000,000
                </text>
                <text transform="translate(95.5 375.5)">
                    12,000,000
                </text>
                <text transform="translate(95.5 335.5)">
                    14,000,000
                </text>
                <text transform="translate(95.5 295.5)">
                    16,000,000
                </text>
                <text transform="translate(95.5 255.5)">
                    18,000,000
                </text>
                <text transform="translate(95.5 215.5)">
                    20,000,000
                </text>
                <text transform="translate(95.5 175.5)">
                    22,000,000
                </text>
                <text transform="translate(95.5 135.5)">
                    24,000,000
                </text>
                <text transform="translate(95.5 95.5)">
                    26,000,000
                </text>
                <text transform="translate(95.5 55.5)">
                    28,000,000
                </text>
                <text transform="translate(95.5 15.5)">
                    30,000,000
                </text>
            </g>
            <path fill="none" stroke="#888" d="M102.5 611.5v-600" pointer-events="none"/>
            <text text-anchor="middle" transform="rotate(-90 164 147.5)" font-family="sans-serif" font-size="14" font-weight="400" pointer-events="none">
                operations / sec
            </text>
        </g>
        <g class="mark-rect role-mark marks" fill="#4c78a8">
            <path d="M105.385 610.405h60.923V611h-60.923zM173.077 610.294H234V611h-60.923zM240.77 598.06h60.922V611H240.77zM308.462 571.658h60.923V611h-60.923zM376.154 597.762h60.923V611h-60.923zM443.846 214.038h60.923V611h-60.923zM511.538 606.907h60.924V611h-60.924zM579.23 597.248h60.924V611H579.23zM646.923 597.446h60.923V611h-60.923zM714.615 602.87h60.923V611h-60.923zM782.308 34.48h60.923V611h-60.923zM850 608.54h60.923V611H850zM917.692 609.825h60.923V611h-60.923z"/>
        </g>
    </g>
</svg>

