<svg class="marks" width="1027" height="735" xmlns="http://www.w3.org/2000/svg">
    <path fill="#fff" d="M0 0h1027v735H0z"/>
    <g class="mark-group role-frame root">
        <path class="background" d="M94.5 5.5h880v600h-880z" fill="none" stroke="#ddd"/>
        <g class="mark-group role-axis">
            <path class="background" d="M94.5 5.5z" pointer-events="none" fill="none"/>
            <g class="mark-rule role-axis-grid" pointer-events="none" fill="none" stroke="#ddd">
                <path d="M94.5 605.5h880M94.5 578.5h880M94.5 552.5h880M94.5 525.5h880M94.5 498.5h880M94.5 472.5h880M94.5 445.5h880M94.5 418.5h880M94.5 392.5h880M94.5 365.5h880M94.5 338.5h880M94.5 312.5h880M94.5 285.5h880M94.5 258.5h880M94.5 232.5h880M94.5 205.5h880M94.5 178.5h880M94.5 152.5h880M94.5 125.5h880M94.5 98.5h880M94.5 72.5h880M94.5 45.5h880M94.5 18.5h880"/>
            </g>
        </g>
        <g class="mark-group role-axis">
            <path class="background" d="M94.5 605.5z" pointer-events="none" fill="none"/>
            <g class="mark-rule role-axis-tick" pointer-events="none" fill="none" stroke="#888">
                <path d="M156.5 605.5v5M282.5 605.5v5M408.5 605.5v5M533.5 605.5v5M659.5 605.5v5M785.5 605.5v5M911.5 605.5v5"/>
            </g>
            <g class="mark-text role-axis-label" pointer-events="none" font-family="sans-serif" font-size="16">
                <text transform="rotate(30 -1088.77 592.45)">
                    class-transformer-v…
                </text>
                <text transform="rotate(30 -1025.913 827.035)">
                    class-transformer-v…
                </text>
                <text transform="rotate(30 -963.056 1061.622)">
                    io-ts
                </text>
                <text transform="rotate(30 -900.199 1296.208)">
                    marshal
                </text>
                <text transform="rotate(30 -837.342 1530.794)">
                    runtypes
                </text>
                <text transform="rotate(30 -774.485 1765.38)">
                    toi
                </text>
                <text transform="rotate(30 -711.627 1999.966)">
                    ts-json-validator
                </text>
            </g>
            <path fill="none" stroke="#888" d="M94.5 605.5h880" pointer-events="none"/>
            <text text-anchor="middle" transform="translate(534.5 727.356)" font-family="sans-serif" font-size="14" font-weight="400" pointer-events="none">
                module
            </text>
        </g>
        <g class="mark-group role-axis">
            <path class="background" d="M94.5 5.5z" pointer-events="none" fill="none"/>
            <g class="mark-rule role-axis-tick" pointer-events="none" fill="none" stroke="#888">
                <path d="M94.5 605.5h-5M94.5 578.5h-5M94.5 552.5h-5M94.5 525.5h-5M94.5 498.5h-5M94.5 472.5h-5M94.5 445.5h-5M94.5 418.5h-5M94.5 392.5h-5M94.5 365.5h-5M94.5 338.5h-5M94.5 312.5h-5M94.5 285.5h-5M94.5 258.5h-5M94.5 232.5h-5M94.5 205.5h-5M94.5 178.5h-5M94.5 152.5h-5M94.5 125.5h-5M94.5 98.5h-5M94.5 72.5h-5M94.5 45.5h-5M94.5 18.5h-5"/>
            </g>
            <g class="mark-text role-axis-label" pointer-events="none" text-anchor="end" font-family="sans-serif" font-size="12">
                <text transform="translate(87.5 609.5)">
                    0
                </text>
                <text transform="translate(87.5 582.833)">
                    200,000
                </text>
                <text transform="translate(87.5 556.167)">
                    400,000
                </text>
                <text transform="translate(87.5 529.5)">
                    600,000
                </text>
                <text transform="translate(87.5 502.833)">
                    800,000
                </text>
                <text transform="translate(87.5 476.167)">
                    1,000,000
                </text>
                <text transform="translate(87.5 449.5)">
                    1,200,000
                </text>
                <text transform="translate(87.5 422.833)">
                    1,400,000
                </text>
                <text transform="translate(87.5 396.167)">
                    1,600,000
                </text>
                <text transform="translate(87.5 369.5)">
                    1,800,000
                </text>
                <text transform="translate(87.5 342.833)">
                    2,000,000
                </text>
                <text transform="translate(87.5 316.167)">
                    2,200,000
                </text>
                <text transform="translate(87.5 289.5)">
                    2,400,000
                </text>
                <text transform="translate(87.5 262.833)">
                    2,600,000
                </text>
                <text transform="translate(87.5 236.167)">
                    2,800,000
                </text>
                <text transform="translate(87.5 209.5)">
                    3,000,000
                </text>
                <text transform="translate(87.5 182.833)">
                    3,200,000
                </text>
                <text transform="translate(87.5 156.167)">
                    3,400,000
                </text>
                <text transform="translate(87.5 129.5)">
                    3,600,000
                </text>
                <text transform="translate(87.5 102.833)">
                    3,800,000
                </text>
                <text transform="translate(87.5 76.167)">
                    4,000,000
                </text>
                <text transform="translate(87.5 49.5)">
                    4,200,000
                </text>
                <text transform="translate(87.5 22.833)">
                    4,400,000
                </text>
            </g>
            <path fill="none" stroke="#888" d="M94.5 605.5V5.5" pointer-events="none"/>
            <text text-anchor="middle" transform="rotate(-90 161 144.5)" font-family="sans-serif" font-size="14" font-weight="400" pointer-events="none">
                operations / sec
            </text>
        </g>
        <g class="mark-rect role-mark marks" fill="#4c78a8">
            <path d="M100.286 601.714h113.143V605H100.286zM226 599.663h113.143V605H226zM351.714 362.402h113.143V605H351.714zM477.429 50.883H590.57V605H477.43zM603.143 388.243h113.143V605H603.143zM728.857 551.687H842V605H728.857zM854.571 556.79h113.143V605H854.571z"/>
        </g>
    </g>
</svg>

