<svg class="marks" width="987" height="812" xmlns="http://www.w3.org/2000/svg">
    <path fill="#fff" d="M0 0h987v812H0z"/>
    <g class="mark-group role-frame root">
        <path class="background" d="M102.5 5.5h880v600h-880z" fill="none" stroke="#ddd"/>
        <g class="mark-group role-axis">
            <path class="background" d="M102.5 5.5z" pointer-events="none" fill="none"/>
            <g class="mark-rule role-axis-grid" pointer-events="none" fill="none" stroke="#ddd">
                <path d="M102.5 605.5h880M102.5 578.5h880M102.5 552.5h880M102.5 525.5h880M102.5 498.5h880M102.5 472.5h880M102.5 445.5h880M102.5 418.5h880M102.5 392.5h880M102.5 365.5h880M102.5 338.5h880M102.5 312.5h880M102.5 285.5h880M102.5 258.5h880M102.5 232.5h880M102.5 205.5h880M102.5 178.5h880M102.5 152.5h880M102.5 125.5h880M102.5 98.5h880M102.5 72.5h880M102.5 45.5h880M102.5 18.5h880"/>
            </g>
        </g>
        <g class="mark-group role-axis">
            <path class="background" d="M102.5 605.5z" pointer-events="none" fill="none"/>
            <g class="mark-rule role-axis-tick" pointer-events="none" fill="none" stroke="#888">
                <path d="M142.5 605.5v5M222.5 605.5v5M302.5 605.5v5M382.5 605.5v5M462.5 605.5v5M542.5 605.5v5M622.5 605.5v5M702.5 605.5v5M782.5 605.5v5M862.5 605.5v5M942.5 605.5v5"/>
            </g>
            <g class="mark-text role-axis-label" pointer-events="none" font-family="sans-serif" font-size="14">
                <text transform="rotate(90 -237.25 375.25)">
                    class-transformer-valid…
                </text>
                <text transform="rotate(90 -197.25 415.25)">
                    class-transformer-valid…
                </text>
                <text transform="rotate(90 -157.25 455.25)">
                    funval
                </text>
                <text transform="rotate(90 -117.25 495.25)">
                    io-ts
                </text>
                <text transform="rotate(90 -77.25 535.25)">
                    marshal
                </text>
                <text transform="rotate(90 -37.25 575.25)">
                    purify-ts
                </text>
                <text transform="rotate(90 2.75 615.25)">
                    runtypes
                </text>
                <text transform="rotate(90 42.75 655.25)">
                    toi
                </text>
                <text transform="rotate(90 82.75 695.25)">
                    ts-json-validator
                </text>
                <text transform="rotate(90 122.75 735.25)">
                    ts-utils
                </text>
                <text transform="rotate(90 162.75 775.25)">
                    zod
                </text>
            </g>
            <path fill="none" stroke="#888" d="M102.5 605.5h880" pointer-events="none"/>
            <text text-anchor="middle" transform="translate(542.5 804.5)" font-family="sans-serif" font-size="14" font-weight="400" pointer-events="none">
                module
            </text>
        </g>
        <g class="mark-group role-axis">
            <path class="background" d="M102.5 5.5z" pointer-events="none" fill="none"/>
            <g class="mark-rule role-axis-tick" pointer-events="none" fill="none" stroke="#888">
                <path d="M102.5 605.5h-5M102.5 578.5h-5M102.5 552.5h-5M102.5 525.5h-5M102.5 498.5h-5M102.5 472.5h-5M102.5 445.5h-5M102.5 418.5h-5M102.5 392.5h-5M102.5 365.5h-5M102.5 338.5h-5M102.5 312.5h-5M102.5 285.5h-5M102.5 258.5h-5M102.5 232.5h-5M102.5 205.5h-5M102.5 178.5h-5M102.5 152.5h-5M102.5 125.5h-5M102.5 98.5h-5M102.5 72.5h-5M102.5 45.5h-5M102.5 18.5h-5"/>
            </g>
            <g class="mark-text role-axis-label" pointer-events="none" text-anchor="end" font-family="sans-serif" font-size="12">
                <text transform="translate(95.5 609.5)">
                    0
                </text>
                <text transform="translate(95.5 582.833)">
                    2,000,000
                </text>
                <text transform="translate(95.5 556.167)">
                    4,000,000
                </text>
                <text transform="translate(95.5 529.5)">
                    6,000,000
                </text>
                <text transform="translate(95.5 502.833)">
                    8,000,000
                </text>
                <text transform="translate(95.5 476.167)">
                    10,000,000
                </text>
                <text transform="translate(95.5 449.5)">
                    12,000,000
                </text>
                <text transform="translate(95.5 422.833)">
                    14,000,000
                </text>
                <text transform="translate(95.5 396.167)">
                    16,000,000
                </text>
                <text transform="translate(95.5 369.5)">
                    18,000,000
                </text>
                <text transform="translate(95.5 342.833)">
                    20,000,000
                </text>
                <text transform="translate(95.5 316.167)">
                    22,000,000
                </text>
                <text transform="translate(95.5 289.5)">
                    24,000,000
                </text>
                <text transform="translate(95.5 262.833)">
                    26,000,000
                </text>
                <text transform="translate(95.5 236.167)">
                    28,000,000
                </text>
                <text transform="translate(95.5 209.5)">
                    30,000,000
                </text>
                <text transform="translate(95.5 182.833)">
                    32,000,000
                </text>
                <text transform="translate(95.5 156.167)">
                    34,000,000
                </text>
                <text transform="translate(95.5 129.5)">
                    36,000,000
                </text>
                <text transform="translate(95.5 102.833)">
                    38,000,000
                </text>
                <text transform="translate(95.5 76.167)">
                    40,000,000
                </text>
                <text transform="translate(95.5 49.5)">
                    42,000,000
                </text>
                <text transform="translate(95.5 22.833)">
                    44,000,000
                </text>
            </g>
            <path fill="none" stroke="#888" d="M102.5 605.5V5.5" pointer-events="none"/>
            <text text-anchor="middle" transform="rotate(-90 161 144.5)" font-family="sans-serif" font-size="14" font-weight="400" pointer-events="none">
                operations / sec
            </text>
        </g>
        <g class="mark-rect role-mark marks" fill="#4c78a8">
            <path d="M106 604.577h72V605h-72zM186 604.402h72V605h-72zM266 592.729h72V605h-72zM346 562.043h72V605h-72zM426 547.288h72V605h-72zM506 593.642h72V605h-72zM586 593.683h72V605h-72zM666 598.562h72V605h-72zM746 50.717h72V605h-72zM826 603.101h72V605h-72zM906 580.494h72V605h-72z"/>
        </g>
    </g>
</svg>

