<svg class="marks" width="1027" height="741" xmlns="http://www.w3.org/2000/svg">
    <path fill="#fff" d="M0 0h1027v741H0z"/>
    <g class="mark-group role-frame root">
        <path class="background" d="M94.5 11.5h880v600h-880z" fill="none" stroke="#ddd"/>
        <g class="mark-group role-axis">
            <path class="background" d="M94.5 11.5z" pointer-events="none" fill="none"/>
            <g class="mark-rule role-axis-grid" pointer-events="none" fill="none" stroke="#ddd">
                <path d="M94.5 611.5h880M94.5 561.5h880M94.5 511.5h880M94.5 461.5h880M94.5 411.5h880M94.5 361.5h880M94.5 311.5h880M94.5 261.5h880M94.5 211.5h880M94.5 161.5h880M94.5 111.5h880M94.5 61.5h880M94.5 11.5h880"/>
            </g>
        </g>
        <g class="mark-group role-axis">
            <path class="background" d="M94.5 611.5z" pointer-events="none" fill="none"/>
            <g class="mark-rule role-axis-tick" pointer-events="none" fill="none" stroke="#888">
                <path d="M156.5 611.5v5M282.5 611.5v5M408.5 611.5v5M533.5 611.5v5M659.5 611.5v5M785.5 611.5v5M911.5 611.5v5"/>
            </g>
            <g class="mark-text role-axis-label" pointer-events="none" font-family="sans-serif" font-size="16">
                <text transform="rotate(30 -1099.966 595.45)">
                    class-transformer-v…
                </text>
                <text transform="rotate(30 -1037.11 830.035)">
                    class-transformer-v…
                </text>
                <text transform="rotate(30 -974.252 1064.622)">
                    io-ts
                </text>
                <text transform="rotate(30 -911.395 1299.208)">
                    marshal
                </text>
                <text transform="rotate(30 -848.538 1533.794)">
                    runtypes
                </text>
                <text transform="rotate(30 -785.68 1768.38)">
                    toi
                </text>
                <text transform="rotate(30 -722.824 2002.966)">
                    ts-json-validator
                </text>
            </g>
            <path fill="none" stroke="#888" d="M94.5 611.5h880" pointer-events="none"/>
            <text text-anchor="middle" transform="translate(534.5 733.356)" font-family="sans-serif" font-size="14" font-weight="400" pointer-events="none">
                module
            </text>
        </g>
        <g class="mark-group role-axis">
            <path class="background" d="M94.5 11.5z" pointer-events="none" fill="none"/>
            <g class="mark-rule role-axis-tick" pointer-events="none" fill="none" stroke="#888">
                <path d="M94.5 611.5h-5M94.5 561.5h-5M94.5 511.5h-5M94.5 461.5h-5M94.5 411.5h-5M94.5 361.5h-5M94.5 311.5h-5M94.5 261.5h-5M94.5 211.5h-5M94.5 161.5h-5M94.5 111.5h-5M94.5 61.5h-5M94.5 11.5h-5"/>
            </g>
            <g class="mark-text role-axis-label" pointer-events="none" text-anchor="end" font-family="sans-serif" font-size="12">
                <text transform="translate(87.5 615.5)">
                    0
                </text>
                <text transform="translate(87.5 565.5)">
                    100,000
                </text>
                <text transform="translate(87.5 515.5)">
                    200,000
                </text>
                <text transform="translate(87.5 465.5)">
                    300,000
                </text>
                <text transform="translate(87.5 415.5)">
                    400,000
                </text>
                <text transform="translate(87.5 365.5)">
                    500,000
                </text>
                <text transform="translate(87.5 315.5)">
                    600,000
                </text>
                <text transform="translate(87.5 265.5)">
                    700,000
                </text>
                <text transform="translate(87.5 215.5)">
                    800,000
                </text>
                <text transform="translate(87.5 165.5)">
                    900,000
                </text>
                <text transform="translate(87.5 115.5)">
                    1,000,000
                </text>
                <text transform="translate(87.5 65.5)">
                    1,100,000
                </text>
                <text transform="translate(87.5 15.5)">
                    1,200,000
                </text>
            </g>
            <path fill="none" stroke="#888" d="M94.5 611.5v-600" pointer-events="none"/>
            <text text-anchor="middle" transform="rotate(-90 164 147.5)" font-family="sans-serif" font-size="14" font-weight="400" pointer-events="none">
                operations / sec
            </text>
        </g>
        <g class="mark-rect role-mark marks" fill="#4c78a8">
            <path d="M100.286 600.47h113.143V611H100.286zM226 591.575h113.143V611H226zM351.714 252.976h113.143V611H351.714zM477.429 512.14H590.57V611H477.43zM603.143 13.212h113.143V611H603.143zM728.857 492.708H842V611H728.857zM854.571 567.395h113.143V611H854.571z"/>
        </g>
    </g>
</svg>

