<svg class="marks" width="987" height="818" xmlns="http://www.w3.org/2000/svg">
    <path fill="#fff" d="M0 0h987v818H0z"/>
    <g class="mark-group role-frame root">
        <path class="background" d="M102.5 11.5h880v600h-880z" fill="none" stroke="#ddd"/>
        <g class="mark-group role-axis">
            <path class="background" d="M102.5 11.5z" pointer-events="none" fill="none"/>
            <g class="mark-rule role-axis-grid" pointer-events="none" fill="none" stroke="#ddd">
                <path d="M102.5 611.5h880M102.5 551.5h880M102.5 491.5h880M102.5 431.5h880M102.5 371.5h880M102.5 311.5h880M102.5 251.5h880M102.5 191.5h880M102.5 131.5h880M102.5 71.5h880M102.5 11.5h880"/>
            </g>
        </g>
        <g class="mark-group role-axis">
            <path class="background" d="M102.5 611.5z" pointer-events="none" fill="none"/>
            <g class="mark-rule role-axis-tick" pointer-events="none" fill="none" stroke="#888">
                <path d="M142.5 611.5v5M222.5 611.5v5M302.5 611.5v5M382.5 611.5v5M462.5 611.5v5M542.5 611.5v5M622.5 611.5v5M702.5 611.5v5M782.5 611.5v5M862.5 611.5v5M942.5 611.5v5"/>
            </g>
            <g class="mark-text role-axis-label" pointer-events="none" font-family="sans-serif" font-size="14">
                <text transform="rotate(90 -240.25 378.25)">
                    class-transformer-valid…
                </text>
                <text transform="rotate(90 -200.25 418.25)">
                    class-transformer-valid…
                </text>
                <text transform="rotate(90 -160.25 458.25)">
                    funval
                </text>
                <text transform="rotate(90 -120.25 498.25)">
                    io-ts
                </text>
                <text transform="rotate(90 -80.25 538.25)">
                    marshal
                </text>
                <text transform="rotate(90 -40.25 578.25)">
                    purify-ts
                </text>
                <text transform="rotate(90 -.25 618.25)">
                    runtypes
                </text>
                <text transform="rotate(90 39.75 658.25)">
                    toi
                </text>
                <text transform="rotate(90 79.75 698.25)">
                    ts-json-validator
                </text>
                <text transform="rotate(90 119.75 738.25)">
                    ts-utils
                </text>
                <text transform="rotate(90 159.75 778.25)">
                    zod
                </text>
            </g>
            <path fill="none" stroke="#888" d="M102.5 611.5h880" pointer-events="none"/>
            <text text-anchor="middle" transform="translate(542.5 810.5)" font-family="sans-serif" font-size="14" font-weight="400" pointer-events="none">
                module
            </text>
        </g>
        <g class="mark-group role-axis">
            <path class="background" d="M102.5 11.5z" pointer-events="none" fill="none"/>
            <g class="mark-rule role-axis-tick" pointer-events="none" fill="none" stroke="#888">
                <path d="M102.5 611.5h-5M102.5 551.5h-5M102.5 491.5h-5M102.5 431.5h-5M102.5 371.5h-5M102.5 311.5h-5M102.5 251.5h-5M102.5 191.5h-5M102.5 131.5h-5M102.5 71.5h-5M102.5 11.5h-5"/>
            </g>
            <g class="mark-text role-axis-label" pointer-events="none" text-anchor="end" font-family="sans-serif" font-size="12">
                <text transform="translate(95.5 615.5)">
                    0
                </text>
                <text transform="translate(95.5 555.5)">
                    5,000,000
                </text>
                <text transform="translate(95.5 495.5)">
                    10,000,000
                </text>
                <text transform="translate(95.5 435.5)">
                    15,000,000
                </text>
                <text transform="translate(95.5 375.5)">
                    20,000,000
                </text>
                <text transform="translate(95.5 315.5)">
                    25,000,000
                </text>
                <text transform="translate(95.5 255.5)">
                    30,000,000
                </text>
                <text transform="translate(95.5 195.5)">
                    35,000,000
                </text>
                <text transform="translate(95.5 135.5)">
                    40,000,000
                </text>
                <text transform="translate(95.5 75.5)">
                    45,000,000
                </text>
                <text transform="translate(95.5 15.5)">
                    50,000,000
                </text>
            </g>
            <path fill="none" stroke="#888" d="M102.5 611.5v-600" pointer-events="none"/>
            <text text-anchor="middle" transform="rotate(-90 164 147.5)" font-family="sans-serif" font-size="14" font-weight="400" pointer-events="none">
                operations / sec
            </text>
        </g>
        <g class="mark-rect role-mark marks" fill="#4c78a8">
            <path d="M106 610.415h72V611h-72zM186 610.27h72v.73h-72zM266 598.047h72V611h-72zM346 568.054h72V611h-72zM426 549.008h72V611h-72zM506 599.043h72V611h-72zM586 600.422h72V611h-72zM666 604.396h72V611h-72zM746 31.876h72V611h-72zM826 609.117h72V611h-72zM906 588.373h72V611h-72z"/>
        </g>
    </g>
</svg>

