<svg class="marks" width="1035" height="740" xmlns="http://www.w3.org/2000/svg">
    <path fill="#fff" d="M0 0h1035v740H0z"/>
    <g class="mark-group role-frame root">
        <path class="background" d="M94.5 11.5h880v600h-880z" fill="none" stroke="#ddd"/>
        <g class="mark-group role-axis">
            <path class="background" d="M94.5 11.5z" pointer-events="none" fill="none"/>
            <g class="mark-rule role-axis-grid" pointer-events="none" fill="none" stroke="#ddd">
                <path d="M94.5 611.5h880M94.5 574.5h880M94.5 536.5h880M94.5 499.5h880M94.5 461.5h880M94.5 424.5h880M94.5 386.5h880M94.5 349.5h880M94.5 311.5h880M94.5 274.5h880M94.5 236.5h880M94.5 199.5h880M94.5 161.5h880M94.5 124.5h880M94.5 86.5h880M94.5 49.5h880M94.5 11.5h880"/>
            </g>
        </g>
        <g class="mark-group role-axis">
            <path class="background" d="M94.5 611.5z" pointer-events="none" fill="none"/>
            <g class="mark-rule role-axis-tick" pointer-events="none" fill="none" stroke="#888">
                <path d="M149.5 611.5v5M259.5 611.5v5M369.5 611.5v5M479.5 611.5v5M589.5 611.5v5M699.5 611.5v5M809.5 611.5v5M919.5 611.5v5"/>
            </g>
            <g class="mark-text role-axis-label" pointer-events="none" font-family="sans-serif" font-size="16">
                <text transform="rotate(30 -1103.895 580.788)">
                    JSON Encode Decode
                </text>
                <text transform="rotate(30 -1048.895 786.05)">
                    class-validator async
                </text>
                <text transform="rotate(30 -993.895 991.313)">
                    class-validator sync
                </text>
                <text transform="rotate(30 -938.895 1196.576)">
                    io-ts
                </text>
                <text transform="rotate(30 -883.895 1401.839)">
                    mashal
                </text>
                <text transform="rotate(30 -828.895 1607.102)">
                    runtypes
                </text>
                <text transform="rotate(30 -773.895 1812.365)">
                    toi
                </text>
                <text transform="rotate(30 -718.895 2017.627)">
                    ts-json-validator
                </text>
            </g>
            <path fill="none" stroke="#888" d="M94.5 611.5h880" pointer-events="none"/>
            <text text-anchor="middle" transform="translate(534.5 732.356)" font-family="sans-serif" font-size="14" font-weight="400" pointer-events="none">
                module
            </text>
        </g>
        <g class="mark-group role-axis">
            <path class="background" d="M94.5 11.5z" pointer-events="none" fill="none"/>
            <g class="mark-rule role-axis-tick" pointer-events="none" fill="none" stroke="#888">
                <path d="M94.5 611.5h-5M94.5 574.5h-5M94.5 536.5h-5M94.5 499.5h-5M94.5 461.5h-5M94.5 424.5h-5M94.5 386.5h-5M94.5 349.5h-5M94.5 311.5h-5M94.5 274.5h-5M94.5 236.5h-5M94.5 199.5h-5M94.5 161.5h-5M94.5 124.5h-5M94.5 86.5h-5M94.5 49.5h-5M94.5 11.5h-5"/>
            </g>
            <g class="mark-text role-axis-label" pointer-events="none" text-anchor="end" font-family="sans-serif" font-size="12">
                <text transform="translate(87.5 615.5)">
                    0
                </text>
                <text transform="translate(87.5 578)">
                    100,000
                </text>
                <text transform="translate(87.5 540.5)">
                    200,000
                </text>
                <text transform="translate(87.5 503)">
                    300,000
                </text>
                <text transform="translate(87.5 465.5)">
                    400,000
                </text>
                <text transform="translate(87.5 428)">
                    500,000
                </text>
                <text transform="translate(87.5 390.5)">
                    600,000
                </text>
                <text transform="translate(87.5 353)">
                    700,000
                </text>
                <text transform="translate(87.5 315.5)">
                    800,000
                </text>
                <text transform="translate(87.5 278)">
                    900,000
                </text>
                <text transform="translate(87.5 240.5)">
                    1,000,000
                </text>
                <text transform="translate(87.5 203)">
                    1,100,000
                </text>
                <text transform="translate(87.5 165.5)">
                    1,200,000
                </text>
                <text transform="translate(87.5 128)">
                    1,300,000
                </text>
                <text transform="translate(87.5 90.5)">
                    1,400,000
                </text>
                <text transform="translate(87.5 53)">
                    1,500,000
                </text>
                <text transform="translate(87.5 15.5)">
                    1,600,000
                </text>
            </g>
            <path fill="none" stroke="#888" d="M94.5 611.5v-600" pointer-events="none"/>
            <text text-anchor="middle" transform="rotate(-90 164 147.5)" font-family="sans-serif" font-size="14" font-weight="400" pointer-events="none">
                operations / sec
            </text>
        </g>
        <g class="mark-rect role-mark marks" fill="#4c78a8">
            <path d="M99.5 580.574h99V611h-99zM649.5 79.88h99V611h-99zM429.5 317.37h99V611h-99zM319.5 595.369h99V611h-99zM209.5 602.391h99V611h-99zM869.5 578.45h99V611h-99zM759.5 511.044h99V611h-99zM539.5 536.806h99V611h-99z"/>
        </g>
    </g>
</svg>

