<svg class="marks" width="987" height="812" xmlns="http://www.w3.org/2000/svg">
    <path fill="#fff" d="M0 0h987v812H0z"/>
    <g class="mark-group role-frame root">
        <path class="background" d="M102.5 5.5h880v600h-880z" fill="none" stroke="#ddd"/>
        <g class="mark-group role-axis">
            <path class="background" d="M102.5 5.5z" pointer-events="none" fill="none"/>
            <g class="mark-rule role-axis-grid" pointer-events="none" fill="none" stroke="#ddd">
                <path d="M102.5 605.5h880M102.5 578.5h880M102.5 552.5h880M102.5 525.5h880M102.5 498.5h880M102.5 472.5h880M102.5 445.5h880M102.5 418.5h880M102.5 392.5h880M102.5 365.5h880M102.5 338.5h880M102.5 312.5h880M102.5 285.5h880M102.5 258.5h880M102.5 232.5h880M102.5 205.5h880M102.5 178.5h880M102.5 152.5h880M102.5 125.5h880M102.5 98.5h880M102.5 72.5h880M102.5 45.5h880M102.5 18.5h880"/>
            </g>
        </g>
        <g class="mark-group role-axis">
            <path class="background" d="M102.5 605.5z" pointer-events="none" fill="none"/>
            <g class="mark-rule role-axis-tick" pointer-events="none" fill="none" stroke="#888">
                <path d="M135.5 605.5v5M203.5 605.5v5M271.5 605.5v5M338.5 605.5v5M406.5 605.5v5M474.5 605.5v5M542.5 605.5v5M609.5 605.5v5M677.5 605.5v5M745.5 605.5v5M812.5 605.5v5M880.5 605.5v5M948.5 605.5v5"/>
            </g>
            <g class="mark-text role-axis-label" pointer-events="none" font-family="sans-serif" font-size="14">
                <text transform="rotate(90 -240.327 372.173)">
                    class-transformer-valid…
                </text>
                <text transform="rotate(90 -206.48 406.02)">
                    class-transformer-valid…
                </text>
                <text transform="rotate(90 -172.635 439.865)">
                    funval
                </text>
                <text transform="rotate(90 -138.788 473.712)">
                    io-ts
                </text>
                <text transform="rotate(90 -104.942 507.558)">
                    json-decoder
                </text>
                <text transform="rotate(90 -71.096 541.404)">
                    marshal
                </text>
                <text transform="rotate(90 -37.25 575.25)">
                    myzod
                </text>
                <text transform="rotate(90 -3.404 609.096)">
                    purify-ts
                </text>
                <text transform="rotate(90 30.442 642.942)">
                    runtypes
                </text>
                <text transform="rotate(90 64.288 676.788)">
                    toi
                </text>
                <text transform="rotate(90 98.135 710.635)">
                    ts-json-validator
                </text>
                <text transform="rotate(90 131.98 744.48)">
                    ts-utils
                </text>
                <text transform="rotate(90 165.827 778.327)">
                    zod
                </text>
            </g>
            <path fill="none" stroke="#888" d="M102.5 605.5h880" pointer-events="none"/>
            <text text-anchor="middle" transform="translate(542.5 804.5)" font-family="sans-serif" font-size="14" font-weight="400" pointer-events="none">
                module
            </text>
        </g>
        <g class="mark-group role-axis">
            <path class="background" d="M102.5 5.5z" pointer-events="none" fill="none"/>
            <g class="mark-rule role-axis-tick" pointer-events="none" fill="none" stroke="#888">
                <path d="M102.5 605.5h-5M102.5 578.5h-5M102.5 552.5h-5M102.5 525.5h-5M102.5 498.5h-5M102.5 472.5h-5M102.5 445.5h-5M102.5 418.5h-5M102.5 392.5h-5M102.5 365.5h-5M102.5 338.5h-5M102.5 312.5h-5M102.5 285.5h-5M102.5 258.5h-5M102.5 232.5h-5M102.5 205.5h-5M102.5 178.5h-5M102.5 152.5h-5M102.5 125.5h-5M102.5 98.5h-5M102.5 72.5h-5M102.5 45.5h-5M102.5 18.5h-5"/>
            </g>
            <g class="mark-text role-axis-label" pointer-events="none" text-anchor="end" font-family="sans-serif" font-size="12">
                <text transform="translate(95.5 609.5)">
                    0
                </text>
                <text transform="translate(95.5 582.833)">
                    2,000,000
                </text>
                <text transform="translate(95.5 556.167)">
                    4,000,000
                </text>
                <text transform="translate(95.5 529.5)">
                    6,000,000
                </text>
                <text transform="translate(95.5 502.833)">
                    8,000,000
                </text>
                <text transform="translate(95.5 476.167)">
                    10,000,000
                </text>
                <text transform="translate(95.5 449.5)">
                    12,000,000
                </text>
                <text transform="translate(95.5 422.833)">
                    14,000,000
                </text>
                <text transform="translate(95.5 396.167)">
                    16,000,000
                </text>
                <text transform="translate(95.5 369.5)">
                    18,000,000
                </text>
                <text transform="translate(95.5 342.833)">
                    20,000,000
                </text>
                <text transform="translate(95.5 316.167)">
                    22,000,000
                </text>
                <text transform="translate(95.5 289.5)">
                    24,000,000
                </text>
                <text transform="translate(95.5 262.833)">
                    26,000,000
                </text>
                <text transform="translate(95.5 236.167)">
                    28,000,000
                </text>
                <text transform="translate(95.5 209.5)">
                    30,000,000
                </text>
                <text transform="translate(95.5 182.833)">
                    32,000,000
                </text>
                <text transform="translate(95.5 156.167)">
                    34,000,000
                </text>
                <text transform="translate(95.5 129.5)">
                    36,000,000
                </text>
                <text transform="translate(95.5 102.833)">
                    38,000,000
                </text>
                <text transform="translate(95.5 76.167)">
                    40,000,000
                </text>
                <text transform="translate(95.5 49.5)">
                    42,000,000
                </text>
                <text transform="translate(95.5 22.833)">
                    44,000,000
                </text>
            </g>
            <path fill="none" stroke="#888" d="M102.5 605.5V5.5" pointer-events="none"/>
            <text text-anchor="middle" transform="rotate(-90 161 144.5)" font-family="sans-serif" font-size="14" font-weight="400" pointer-events="none">
                operations / sec
            </text>
        </g>
        <g class="mark-rect role-mark marks" fill="#4c78a8">
            <path d="M105.385 604.53h60.923v.47h-60.923zM173.077 604.304H234V605h-60.923zM240.77 592.093h60.922V605H240.77zM308.462 561.31h60.923V605h-60.923zM376.154 593.163h60.923V605h-60.923zM443.846 544.563h60.923V605h-60.923zM511.538 595.985h60.924V605h-60.924zM579.23 592.438h60.924V605H579.23zM646.923 593.114h60.923V605h-60.923zM714.615 598.065h60.923V605h-60.923zM782.308 48.689h60.923V605h-60.923zM850 603.071h60.923V605H850zM917.692 604.087h60.923V605h-60.923z"/>
        </g>
    </g>
</svg>

