<svg class="marks" width="987" height="812" xmlns="http://www.w3.org/2000/svg">
    <path fill="#fff" d="M0 0h987v812H0z"/>
    <g class="mark-group role-frame root">
        <path class="background" d="M102.5 5.5h880v600h-880z" fill="none" stroke="#ddd"/>
        <g class="mark-group role-axis">
            <path class="background" d="M102.5 5.5z" pointer-events="none" fill="none"/>
            <g class="mark-rule role-axis-grid" pointer-events="none" fill="none" stroke="#ddd">
                <path d="M102.5 605.5h880M102.5 571.5h880M102.5 536.5h880M102.5 502.5h880M102.5 468.5h880M102.5 434.5h880M102.5 399.5h880M102.5 365.5h880M102.5 331.5h880M102.5 296.5h880M102.5 262.5h880M102.5 228.5h880M102.5 194.5h880M102.5 159.5h880M102.5 125.5h880M102.5 91.5h880M102.5 56.5h880M102.5 22.5h880"/>
            </g>
        </g>
        <g class="mark-group role-axis">
            <path class="background" d="M102.5 605.5z" pointer-events="none" fill="none"/>
            <g class="mark-rule role-axis-tick" pointer-events="none" fill="none" stroke="#888">
                <path d="M145.5 605.5v5M233.5 605.5v5M321.5 605.5v5M410.5 605.5v5M498.5 605.5v5M586.5 605.5v5M674.5 605.5v5M762.5 605.5v5M850.5 605.5v5M938.5 605.5v5"/>
            </g>
            <g class="mark-text role-axis-label" pointer-events="none" font-family="sans-serif" font-size="14">
                <text transform="rotate(90 -235.25 377.25)">
                    class-transformer-valid…
                </text>
                <text transform="rotate(90 -191.25 421.25)">
                    class-transformer-valid…
                </text>
                <text transform="rotate(90 -147.25 465.25)">
                    funval
                </text>
                <text transform="rotate(90 -103.25 509.25)">
                    io-ts
                </text>
                <text transform="rotate(90 -59.25 553.25)">
                    marshal
                </text>
                <text transform="rotate(90 -15.25 597.25)">
                    runtypes
                </text>
                <text transform="rotate(90 28.75 641.25)">
                    toi
                </text>
                <text transform="rotate(90 72.75 685.25)">
                    ts-json-validator
                </text>
                <text transform="rotate(90 116.75 729.25)">
                    ts-utils
                </text>
                <text transform="rotate(90 160.75 773.25)">
                    zod
                </text>
            </g>
            <path fill="none" stroke="#888" d="M102.5 605.5h880" pointer-events="none"/>
            <text text-anchor="middle" transform="translate(542.5 804.5)" font-family="sans-serif" font-size="14" font-weight="400" pointer-events="none">
                module
            </text>
        </g>
        <g class="mark-group role-axis">
            <path class="background" d="M102.5 5.5z" pointer-events="none" fill="none"/>
            <g class="mark-rule role-axis-tick" pointer-events="none" fill="none" stroke="#888">
                <path d="M102.5 605.5h-5M102.5 571.5h-5M102.5 536.5h-5M102.5 502.5h-5M102.5 468.5h-5M102.5 434.5h-5M102.5 399.5h-5M102.5 365.5h-5M102.5 331.5h-5M102.5 296.5h-5M102.5 262.5h-5M102.5 228.5h-5M102.5 194.5h-5M102.5 159.5h-5M102.5 125.5h-5M102.5 91.5h-5M102.5 56.5h-5M102.5 22.5h-5"/>
            </g>
            <g class="mark-text role-axis-label" pointer-events="none" text-anchor="end" font-family="sans-serif" font-size="12">
                <text transform="translate(95.5 609.5)">
                    0
                </text>
                <text transform="translate(95.5 575.214)">
                    2,000,000
                </text>
                <text transform="translate(95.5 540.929)">
                    4,000,000
                </text>
                <text transform="translate(95.5 506.643)">
                    6,000,000
                </text>
                <text transform="translate(95.5 472.357)">
                    8,000,000
                </text>
                <text transform="translate(95.5 438.071)">
                    10,000,000
                </text>
                <text transform="translate(95.5 403.786)">
                    12,000,000
                </text>
                <text transform="translate(95.5 369.5)">
                    14,000,000
                </text>
                <text transform="translate(95.5 335.214)">
                    16,000,000
                </text>
                <text transform="translate(95.5 300.929)">
                    18,000,000
                </text>
                <text transform="translate(95.5 266.643)">
                    20,000,000
                </text>
                <text transform="translate(95.5 232.357)">
                    22,000,000
                </text>
                <text transform="translate(95.5 198.071)">
                    24,000,000
                </text>
                <text transform="translate(95.5 163.786)">
                    26,000,000
                </text>
                <text transform="translate(95.5 129.5)">
                    28,000,000
                </text>
                <text transform="translate(95.5 95.214)">
                    30,000,000
                </text>
                <text transform="translate(95.5 60.929)">
                    32,000,000
                </text>
                <text transform="translate(95.5 26.643)">
                    34,000,000
                </text>
            </g>
            <path fill="none" stroke="#888" d="M102.5 605.5V5.5" pointer-events="none"/>
            <text text-anchor="middle" transform="rotate(-90 161 144.5)" font-family="sans-serif" font-size="14" font-weight="400" pointer-events="none">
                operations / sec
            </text>
        </g>
        <g class="mark-rect role-mark marks" fill="#4c78a8">
            <path d="M106.4 604.459h79.2V605h-79.2zM194.4 604.41h79.2v.59h-79.2zM282.4 592.094h79.2V605h-79.2zM370.4 567.814h79.2V605h-79.2zM458.4 530.48h79.2V605h-79.2zM546.4 592.823h79.2V605h-79.2zM634.4 597.554h79.2V605h-79.2zM722.4 32.18h79.2V605h-79.2zM810.4 602.973h79.2V605h-79.2zM898.4 577.84h79.2V605h-79.2z"/>
        </g>
    </g>
</svg>

