<svg class="marks" width="1001" height="820" xmlns="http://www.w3.org/2000/svg">
    <path fill="#fff" d="M0 0h1001v820H0z"/>
    <g class="mark-group role-frame root">
        <path class="background" d="M116.5 11.5h880v600h-880z" fill="none" stroke="#ddd"/>
        <g class="mark-group role-axis">
            <path class="background" d="M116.5 11.5z" pointer-events="none" fill="none"/>
            <g class="mark-rule role-axis-grid" pointer-events="none" fill="none" stroke="#ddd">
                <path d="M116.5 611.5h880M116.5 556.5h880M116.5 502.5h880M116.5 447.5h880M116.5 393.5h880M116.5 338.5h880M116.5 284.5h880M116.5 229.5h880M116.5 175.5h880M116.5 120.5h880M116.5 66.5h880M116.5 11.5h880"/>
            </g>
        </g>
        <g class="mark-group role-axis">
            <path class="background" d="M116.5 611.5z" pointer-events="none" fill="none"/>
            <g class="mark-rule role-axis-tick" pointer-events="none" fill="none" stroke="#888">
                <path d="M149.5 611.5v5M217.5 611.5v5M285.5 611.5v5M352.5 611.5v5M420.5 611.5v5M488.5 611.5v5M556.5 611.5v5M623.5 611.5v5M691.5 611.5v5M759.5 611.5v5M826.5 611.5v5M894.5 611.5v5M962.5 611.5v5"/>
            </g>
            <g class="mark-text role-axis-label" pointer-events="none" font-family="sans-serif" font-size="14">
                <text transform="rotate(90 -236.327 382.173)">
                    class-transform…
                </text>
                <text transform="rotate(90 -202.48 416.02)">
                    class-transform…
                </text>
                <text transform="rotate(90 -168.635 449.865)">
                    funval
                </text>
                <text transform="rotate(90 -134.788 483.712)">
                    io-ts
                </text>
                <text transform="rotate(90 -100.942 517.558)">
                    json-decoder
                </text>
                <text transform="rotate(90 -67.096 551.404)">
                    marshal
                </text>
                <text transform="rotate(90 -33.25 585.25)">
                    myzod
                </text>
                <text transform="rotate(90 .596 619.096)">
                    purify-ts
                </text>
                <text transform="rotate(90 34.442 652.942)">
                    runtypes
                </text>
                <text transform="rotate(90 68.288 686.788)">
                    toi
                </text>
                <text transform="rotate(90 102.135 720.635)">
                    ts-utils
                </text>
                <text transform="rotate(90 135.98 754.48)">
                    yup
                </text>
                <text transform="rotate(90 169.827 788.327)">
                    zod
                </text>
            </g>
            <path fill="none" stroke="#888" d="M116.5 611.5h880" pointer-events="none"/>
            <text text-anchor="middle" transform="translate(556.5 812.5)" font-family="sans-serif" font-size="14" font-weight="400" pointer-events="none">
                module
            </text>
        </g>
        <g class="mark-group role-axis">
            <path class="background" d="M116.5 11.5z" pointer-events="none" fill="none"/>
            <g class="mark-rule role-axis-tick" pointer-events="none" fill="none" stroke="#888">
                <path d="M116.5 611.5h-5M116.5 556.5h-5M116.5 502.5h-5M116.5 447.5h-5M116.5 393.5h-5M116.5 338.5h-5M116.5 284.5h-5M116.5 229.5h-5M116.5 175.5h-5M116.5 120.5h-5M116.5 66.5h-5M116.5 11.5h-5"/>
            </g>
            <g class="mark-text role-axis-label" pointer-events="none" text-anchor="end" font-family="sans-serif" font-size="12">
                <text transform="translate(109.5 615.5)">
                    0
                </text>
                <text transform="translate(109.5 560.955)">
                    500,000
                </text>
                <text transform="translate(109.5 506.41)">
                    1,000,000
                </text>
                <text transform="translate(109.5 451.864)">
                    1,500,000
                </text>
                <text transform="translate(109.5 397.318)">
                    2,000,000
                </text>
                <text transform="translate(109.5 342.773)">
                    2,500,000
                </text>
                <text transform="translate(109.5 288.227)">
                    3,000,000
                </text>
                <text transform="translate(109.5 233.682)">
                    3,500,000
                </text>
                <text transform="translate(109.5 179.136)">
                    4,000,000
                </text>
                <text transform="translate(109.5 124.59)">
                    4,500,000
                </text>
                <text transform="translate(109.5 70.045)">
                    5,000,000
                </text>
                <text transform="translate(109.5 15.5)">
                    5,500,000
                </text>
            </g>
            <path fill="none" stroke="#888" d="M116.5 611.5v-600" pointer-events="none"/>
            <text text-anchor="middle" transform="rotate(-90 164 147.5)" font-family="sans-serif" font-size="14" font-weight="400" pointer-events="none">
                operations / sec
            </text>
        </g>
        <g class="mark-rect role-mark marks" fill="#4c78a8">
            <path d="M119.385 605.882h60.923V611h-60.923zM187.077 605.494H248V611h-60.923zM254.77 519.602h60.922V611H254.77zM322.462 351.003h60.923V611h-60.923zM390.154 548.962h60.923V611h-60.923zM457.846 60.876h60.923V611h-60.923zM525.538 446.705h60.924V611h-60.924zM593.23 520.652h60.924V611H593.23zM660.923 523.168h60.923V611h-60.923zM728.615 558.341h60.923V611h-60.923zM796.308 596.098h60.923V611h-60.923zM864 609.228h60.923V611H864zM931.692 605.284h60.923V611h-60.923z"/>
        </g>
    </g>
</svg>
