<svg xmlns="http://www.w3.org/2000/svg" class="marks" width="1011" height="820">
    <path fill="#fff" d="M0 0h1011v820H0z"/>
    <g class="mark-group role-frame root" aria-roledescription="group mark container" fill="none" stroke-miterlimit="10">
        <path class="background" aria-hidden="true" d="M126.5 11.5h880v600h-880z" stroke="#ddd"/>
        <g class="mark-group role-axis" aria-roledescription="axis" aria-label="Y-axis for a linear scale with values from 0 to 16,000,000">
            <path class="background" aria-hidden="true" d="M126.5 11.5z" pointer-events="none"/>
            <g class="mark-rule role-axis-grid" pointer-events="none" stroke="#ddd">
                <path d="M126.5 611.5h880M126.5 574.5h880M126.5 536.5h880M126.5 499.5h880M126.5 461.5h880M126.5 424.5h880M126.5 386.5h880M126.5 349.5h880M126.5 311.5h880M126.5 274.5h880M126.5 236.5h880M126.5 199.5h880M126.5 161.5h880M126.5 124.5h880M126.5 86.5h880M126.5 49.5h880M126.5 11.5h880"/>
            </g>
        </g>
        <g class="mark-group role-axis" aria-roledescription="axis" aria-label="X-axis titled 'module' for a discrete scale with 3 values: marshal, suretype, ts-json-validator">
            <path class="background" aria-hidden="true" d="M126.5 611.5z" pointer-events="none"/>
            <g class="mark-rule role-axis-tick" pointer-events="none" stroke="#888">
                <path d="M272.5 611.5v5M566.5 611.5v5M859.5 611.5v5"/>
            </g>
            <g class="mark-text role-axis-label" pointer-events="none" font-family="sans-serif" font-size="14" fill="#000">
                <text transform="rotate(90 -174.917 443.583)">marshal</text>
                <text transform="rotate(90 -28.25 590.25)">suretype</text>
                <text transform="rotate(90 118.417 736.917)">ts-json-validat…</text>
            </g>
            <path stroke="#888" d="M126.5 611.5h880" class="mark-rule role-axis-domain" pointer-events="none"/>
            <text text-anchor="middle" transform="translate(566.5 812.5)" font-family="sans-serif" font-size="14" fill="#000" class="mark-text role-axis-title" pointer-events="none">module</text>
        </g>
        <g class="mark-group role-axis" aria-roledescription="axis" aria-label="Y-axis titled 'operations / sec' for a linear scale with values from 0 to 16,000,000">
            <path class="background" aria-hidden="true" d="M126.5 11.5z" pointer-events="none"/>
            <g class="mark-rule role-axis-tick" pointer-events="none" stroke="#888">
                <path d="M126.5 611.5h-5M126.5 574.5h-5M126.5 536.5h-5M126.5 499.5h-5M126.5 461.5h-5M126.5 424.5h-5M126.5 386.5h-5M126.5 349.5h-5M126.5 311.5h-5M126.5 274.5h-5M126.5 236.5h-5M126.5 199.5h-5M126.5 161.5h-5M126.5 124.5h-5M126.5 86.5h-5M126.5 49.5h-5M126.5 11.5h-5"/>
            </g>
            <g class="mark-text role-axis-label" pointer-events="none" text-anchor="end" font-family="sans-serif" font-size="12" fill="#000">
                <text transform="translate(119.5 615.5)">0</text>
                <text transform="translate(119.5 578)">1,000,000</text>
                <text transform="translate(119.5 540.5)">2,000,000</text>
                <text transform="translate(119.5 503)">3,000,000</text>
                <text transform="translate(119.5 465.5)">4,000,000</text>
                <text transform="translate(119.5 428)">5,000,000</text>
                <text transform="translate(119.5 390.5)">6,000,000</text>
                <text transform="translate(119.5 353)">7,000,000</text>
                <text transform="translate(119.5 315.5)">8,000,000</text>
                <text transform="translate(119.5 278)">9,000,000</text>
                <text transform="translate(119.5 240.5)">10,000,000</text>
                <text transform="translate(119.5 203)">11,000,000</text>
                <text transform="translate(119.5 165.5)">12,000,000</text>
                <text transform="translate(119.5 128)">13,000,000</text>
                <text transform="translate(119.5 90.5)">14,000,000</text>
                <text transform="translate(119.5 53)">15,000,000</text>
                <text transform="translate(119.5 15.5)">16,000,000</text>
            </g>
            <path stroke="#888" d="M126.5 611.5v-600" class="mark-rule role-axis-domain" pointer-events="none"/>
            <text text-anchor="middle" transform="rotate(-90 164 147.5)" font-family="sans-serif" font-size="14" fill="#000" class="mark-text role-axis-title" pointer-events="none">operations / sec</text>
        </g>
        <g class="mark-rect role-mark marks" aria-roledescription="rect mark container" fill="#4c78a8">
            <path d="M140.667 196.998h264V611h-264zM434 62.945h264V611H434zM727.333 235.359h264V611h-264z"/>
        </g>
    </g>
</svg>
