<svg class="marks" width="1011" height="820" xmlns="http://www.w3.org/2000/svg">
    <path fill="#fff" d="M0 0h1011v820H0z"/>
    <g class="mark-group role-frame root">
        <path class="background" d="M126.5 11.5h880v600h-880z" fill="none" stroke="#ddd"/>
        <g class="mark-group role-axis">
            <path class="background" d="M126.5 11.5z" pointer-events="none" fill="none"/>
            <g class="mark-rule role-axis-grid" pointer-events="none" fill="none" stroke="#ddd">
                <path d="M126.5 611.5h880M126.5 568.5h880M126.5 525.5h880M126.5 482.5h880M126.5 440.5h880M126.5 397.5h880M126.5 354.5h880M126.5 311.5h880M126.5 268.5h880M126.5 225.5h880M126.5 182.5h880M126.5 140.5h880M126.5 97.5h880M126.5 54.5h880M126.5 11.5h880"/>
            </g>
        </g>
        <g class="mark-group role-axis">
            <path class="background" d="M126.5 611.5z" pointer-events="none" fill="none"/>
            <g class="mark-rule role-axis-tick" pointer-events="none" fill="none" stroke="#888">
                <path d="M155.5 611.5v5M214.5 611.5v5M272.5 611.5v5M331.5 611.5v5M390.5 611.5v5M448.5 611.5v5M507.5 611.5v5M565.5 611.5v5M624.5 611.5v5M683.5 611.5v5M741.5 611.5v5M800.5 611.5v5M859.5 611.5v5M917.5 611.5v5M976.5 611.5v5"/>
            </g>
            <g class="mark-text role-axis-label" pointer-events="none" font-family="sans-serif" font-size="14">
                <text transform="rotate(90 -233.583 384.917)">
                    class-transform…
                </text>
                <text transform="rotate(90 -204.25 414.25)">
                    class-transform…
                </text>
                <text transform="rotate(90 -174.917 443.583)">
                    funval
                </text>
                <text transform="rotate(90 -145.583 472.917)">
                    io-ts
                </text>
                <text transform="rotate(90 -116.25 502.25)">
                    json-decoder
                </text>
                <text transform="rotate(90 -86.917 531.583)">
                    marshal
                </text>
                <text transform="rotate(90 -57.583 560.917)">
                    myzod
                </text>
                <text transform="rotate(90 -28.25 590.25)">
                    purify-ts
                </text>
                <text transform="rotate(90 1.083 619.583)">
                    quartet
                </text>
                <text transform="rotate(90 30.417 648.917)">
                    runtypes
                </text>
                <text transform="rotate(90 59.75 678.25)">
                    toi
                </text>
                <text transform="rotate(90 89.083 707.583)">
                    ts-json-validat…
                </text>
                <text transform="rotate(90 118.417 736.917)">
                    ts-utils
                </text>
                <text transform="rotate(90 147.75 766.25)">
                    yup
                </text>
                <text transform="rotate(90 177.083 795.583)">
                    zod
                </text>
            </g>
            <path fill="none" stroke="#888" d="M126.5 611.5h880" pointer-events="none"/>
            <text text-anchor="middle" transform="translate(566.5 812.5)" font-family="sans-serif" font-size="14" font-weight="400" pointer-events="none">
                module
            </text>
        </g>
        <g class="mark-group role-axis">
            <path class="background" d="M126.5 11.5z" pointer-events="none" fill="none"/>
            <g class="mark-rule role-axis-tick" pointer-events="none" fill="none" stroke="#888">
                <path d="M126.5 611.5h-5M126.5 568.5h-5M126.5 525.5h-5M126.5 482.5h-5M126.5 440.5h-5M126.5 397.5h-5M126.5 354.5h-5M126.5 311.5h-5M126.5 268.5h-5M126.5 225.5h-5M126.5 182.5h-5M126.5 140.5h-5M126.5 97.5h-5M126.5 54.5h-5M126.5 11.5h-5"/>
            </g>
            <g class="mark-text role-axis-label" pointer-events="none" text-anchor="end" font-family="sans-serif" font-size="12">
                <text transform="translate(119.5 615.5)">
                    0
                </text>
                <text transform="translate(119.5 572.643)">
                    2,000,000
                </text>
                <text transform="translate(119.5 529.786)">
                    4,000,000
                </text>
                <text transform="translate(119.5 486.929)">
                    6,000,000
                </text>
                <text transform="translate(119.5 444.071)">
                    8,000,000
                </text>
                <text transform="translate(119.5 401.214)">
                    10,000,000
                </text>
                <text transform="translate(119.5 358.357)">
                    12,000,000
                </text>
                <text transform="translate(119.5 315.5)">
                    14,000,000
                </text>
                <text transform="translate(119.5 272.643)">
                    16,000,000
                </text>
                <text transform="translate(119.5 229.786)">
                    18,000,000
                </text>
                <text transform="translate(119.5 186.929)">
                    20,000,000
                </text>
                <text transform="translate(119.5 144.071)">
                    22,000,000
                </text>
                <text transform="translate(119.5 101.214)">
                    24,000,000
                </text>
                <text transform="translate(119.5 58.357)">
                    26,000,000
                </text>
                <text transform="translate(119.5 15.5)">
                    28,000,000
                </text>
            </g>
            <path fill="none" stroke="#888" d="M126.5 611.5v-600" pointer-events="none"/>
            <text text-anchor="middle" transform="rotate(-90 164 147.5)" font-family="sans-serif" font-size="14" font-weight="400" pointer-events="none">
                operations / sec
            </text>
        </g>
        <g class="mark-rect role-mark marks" fill="#4c78a8">
            <path d="M128.933 610.547h52.8V611h-52.8zM187.6 610.47h52.8v.53h-52.8zM246.267 596.653h52.8V611h-52.8zM304.933 558.088h52.8V611h-52.8zM363.6 598.042h52.8V611h-52.8zM422.267 545.483h52.8V611h-52.8zM480.933 585.434h52.8V611h-52.8zM539.6 596.268h52.8V611h-52.8zM598.267 31.173h52.8V611h-52.8zM656.933 597.036h52.8V611h-52.8zM715.6 602.909h52.8V611h-52.8zM774.267 231.226h52.8V611h-52.8zM832.933 608.548h52.8V611h-52.8zM891.6 610.734h52.8V611h-52.8zM950.267 609.978h52.8V611h-52.8z"/>
        </g>
    </g>
</svg>
