<svg class="marks" width="1011" height="820" xmlns="http://www.w3.org/2000/svg">
    <path fill="#fff" d="M0 0h1011v820H0z"/>
    <g class="mark-group role-frame root">
        <path class="background" d="M126.5 11.5h880v600h-880z" fill="none" stroke="#ddd"/>
        <g class="mark-group role-axis">
            <path class="background" d="M126.5 11.5z" pointer-events="none" fill="none"/>
            <g class="mark-rule role-axis-grid" pointer-events="none" fill="none" stroke="#ddd">
                <path d="M126.5 611.5h880M126.5 578.5h880M126.5 544.5h880M126.5 511.5h880M126.5 478.5h880M126.5 444.5h880M126.5 411.5h880M126.5 378.5h880M126.5 344.5h880M126.5 311.5h880M126.5 278.5h880M126.5 244.5h880M126.5 211.5h880M126.5 178.5h880M126.5 144.5h880M126.5 111.5h880M126.5 78.5h880M126.5 44.5h880M126.5 11.5h880"/>
            </g>
        </g>
        <g class="mark-group role-axis">
            <path class="background" d="M126.5 611.5z" pointer-events="none" fill="none"/>
            <g class="mark-rule role-axis-tick" pointer-events="none" fill="none" stroke="#888">
                <path d="M157.5 611.5v5M220.5 611.5v5M283.5 611.5v5M346.5 611.5v5M408.5 611.5v5M471.5 611.5v5M534.5 611.5v5M597.5 611.5v5M660.5 611.5v5M723.5 611.5v5M786.5 611.5v5M848.5 611.5v5M911.5 611.5v5M974.5 611.5v5"/>
            </g>
            <g class="mark-text role-axis-label" pointer-events="none" font-family="sans-serif" font-size="14">
                <text transform="rotate(90 -232.536 385.964)">
                    class-transform…
                </text>
                <text transform="rotate(90 -201.107 417.393)">
                    class-transform…
                </text>
                <text transform="rotate(90 -169.679 448.821)">
                    funval
                </text>
                <text transform="rotate(90 -138.25 480.25)">
                    io-ts
                </text>
                <text transform="rotate(90 -106.821 511.679)">
                    json-decoder
                </text>
                <text transform="rotate(90 -75.393 543.107)">
                    marshal
                </text>
                <text transform="rotate(90 -43.964 574.536)">
                    myzod
                </text>
                <text transform="rotate(90 -12.536 605.964)">
                    purify-ts
                </text>
                <text transform="rotate(90 18.893 637.393)">
                    runtypes
                </text>
                <text transform="rotate(90 50.321 668.821)">
                    toi
                </text>
                <text transform="rotate(90 81.75 700.25)">
                    ts-json-validat…
                </text>
                <text transform="rotate(90 113.179 731.679)">
                    ts-utils
                </text>
                <text transform="rotate(90 144.607 763.107)">
                    yup
                </text>
                <text transform="rotate(90 176.036 794.536)">
                    zod
                </text>
            </g>
            <path fill="none" stroke="#888" d="M126.5 611.5h880" pointer-events="none"/>
            <text text-anchor="middle" transform="translate(566.5 812.5)" font-family="sans-serif" font-size="14" font-weight="400" pointer-events="none">
                module
            </text>
        </g>
        <g class="mark-group role-axis">
            <path class="background" d="M126.5 11.5z" pointer-events="none" fill="none"/>
            <g class="mark-rule role-axis-tick" pointer-events="none" fill="none" stroke="#888">
                <path d="M126.5 611.5h-5M126.5 578.5h-5M126.5 544.5h-5M126.5 511.5h-5M126.5 478.5h-5M126.5 444.5h-5M126.5 411.5h-5M126.5 378.5h-5M126.5 344.5h-5M126.5 311.5h-5M126.5 278.5h-5M126.5 244.5h-5M126.5 211.5h-5M126.5 178.5h-5M126.5 144.5h-5M126.5 111.5h-5M126.5 78.5h-5M126.5 44.5h-5M126.5 11.5h-5"/>
            </g>
            <g class="mark-text role-axis-label" pointer-events="none" text-anchor="end" font-family="sans-serif" font-size="12">
                <text transform="translate(119.5 615.5)">
                    0
                </text>
                <text transform="translate(119.5 582.167)">
                    1,000,000
                </text>
                <text transform="translate(119.5 548.833)">
                    2,000,000
                </text>
                <text transform="translate(119.5 515.5)">
                    3,000,000
                </text>
                <text transform="translate(119.5 482.167)">
                    4,000,000
                </text>
                <text transform="translate(119.5 448.833)">
                    5,000,000
                </text>
                <text transform="translate(119.5 415.5)">
                    6,000,000
                </text>
                <text transform="translate(119.5 382.167)">
                    7,000,000
                </text>
                <text transform="translate(119.5 348.833)">
                    8,000,000
                </text>
                <text transform="translate(119.5 315.5)">
                    9,000,000
                </text>
                <text transform="translate(119.5 282.167)">
                    10,000,000
                </text>
                <text transform="translate(119.5 248.833)">
                    11,000,000
                </text>
                <text transform="translate(119.5 215.5)">
                    12,000,000
                </text>
                <text transform="translate(119.5 182.167)">
                    13,000,000
                </text>
                <text transform="translate(119.5 148.833)">
                    14,000,000
                </text>
                <text transform="translate(119.5 115.5)">
                    15,000,000
                </text>
                <text transform="translate(119.5 82.167)">
                    16,000,000
                </text>
                <text transform="translate(119.5 48.833)">
                    17,000,000
                </text>
                <text transform="translate(119.5 15.5)">
                    18,000,000
                </text>
            </g>
            <path fill="none" stroke="#888" d="M126.5 611.5v-600" pointer-events="none"/>
            <text text-anchor="middle" transform="rotate(-90 164 147.5)" font-family="sans-serif" font-size="14" font-weight="400" pointer-events="none">
                operations / sec
            </text>
        </g>
        <g class="mark-rect role-mark marks" fill="#4c78a8">
            <path d="M129.143 610.175h56.571V611h-56.571zM192 610.04h56.571v.96H192zM254.857 587.326h56.572V611h-56.572zM317.714 531.206h56.572V611h-56.572zM380.571 589.567h56.572V611H380.57zM443.429 500.52H500V611h-56.571zM506.286 568.003h56.571V611h-56.571zM569.143 587.274h56.571V611h-56.571zM632 588.428h56.571V611H632zM694.857 598.509h56.572V611h-56.572zM757.714 39.06h56.572V611h-56.572zM820.571 607.155h56.572V611H820.57zM883.429 610.599H940V611h-56.571zM946.286 609.442h56.571V611h-56.571z"/>
        </g>
    </g>
</svg>
