<svg class="marks" width="1001" height="820" xmlns="http://www.w3.org/2000/svg">
    <path fill="#fff" d="M0 0h1001v820H0z"/>
    <g class="mark-group role-frame root" aria-roledescription="group mark container" fill="none" stroke-miterlimit="10">
        <path class="background" aria-hidden="true" d="M116.5 11.5h880v600h-880z" stroke="#ddd"/>
        <g class="mark-group role-axis" aria-hidden="true">
            <path class="background" aria-hidden="true" d="M116.5 11.5z" pointer-events="none"/>
            <g class="mark-rule role-axis-grid" pointer-events="none" stroke="#ddd">
                <path d="M116.5 611.5h880M116.5 581.5h880M116.5 551.5h880M116.5 521.5h880M116.5 491.5h880M116.5 461.5h880M116.5 431.5h880M116.5 401.5h880M116.5 371.5h880M116.5 341.5h880M116.5 311.5h880M116.5 281.5h880M116.5 251.5h880M116.5 221.5h880M116.5 191.5h880M116.5 161.5h880M116.5 131.5h880M116.5 101.5h880M116.5 71.5h880M116.5 41.5h880M116.5 11.5h880"/>
            </g>
        </g>
        <g class="mark-group role-axis" aria-roledescription="axis" aria-label="X-axis titled 'module' for a discrete scale with 16 values: bueno, class-transformer-validator-async, class-transformer-validator-sync, computed-types, io-ts, ending with zod">
            <path class="background" aria-hidden="true" d="M116.5 611.5z" pointer-events="none"/>
            <g class="mark-rule role-axis-tick" pointer-events="none" stroke="#888">
                <path d="M143.5 611.5v5M198.5 611.5v5M253.5 611.5v5M308.5 611.5v5M363.5 611.5v5M418.5 611.5v5M473.5 611.5v5M528.5 611.5v5M583.5 611.5v5M638.5 611.5v5M693.5 611.5v5M748.5 611.5v5M803.5 611.5v5M858.5 611.5v5M913.5 611.5v5M968.5 611.5v5"/>
            </g>
            <g class="mark-text role-axis-label" pointer-events="none" font-family="sans-serif" font-size="14" fill="#000">
                <text transform="rotate(90 -239.5 379)">
                    bueno
                </text>
                <text transform="rotate(90 -212 406.5)">
                    class-transform…
                </text>
                <text transform="rotate(90 -184.5 434)">
                    class-transform…
                </text>
                <text transform="rotate(90 -157 461.5)">
                    computed-types
                </text>
                <text transform="rotate(90 -129.5 489)">
                    io-ts
                </text>
                <text transform="rotate(90 -102 516.5)">
                    jointz
                </text>
                <text transform="rotate(90 -74.5 544)">
                    json-decoder
                </text>
                <text transform="rotate(90 -47 571.5)">
                    myzod
                </text>
                <text transform="rotate(90 -19.5 599)">
                    purify-ts
                </text>
                <text transform="rotate(90 8 626.5)">
                    rulr
                </text>
                <text transform="rotate(90 35.5 654)">
                    runtypes
                </text>
                <text transform="rotate(90 63 681.5)">
                    simple-runtypes
                </text>
                <text transform="rotate(90 90.5 709)">
                    toi
                </text>
                <text transform="rotate(90 118 736.5)">
                    ts-utils
                </text>
                <text transform="rotate(90 145.5 764)">
                    yup
                </text>
                <text transform="rotate(90 173 791.5)">
                    zod
                </text>
            </g>
            <path stroke="#888" d="M116.5 611.5h880" pointer-events="none"/>
            <text text-anchor="middle" transform="translate(556.5 812.5)" font-family="sans-serif" font-size="14" fill="#000" pointer-events="none">
                module
            </text>
        </g>
        <g class="mark-group role-axis" aria-roledescription="axis" aria-label="Y-axis titled 'operations / sec' for a linear scale with values from 0 to 2,000,000">
            <path class="background" aria-hidden="true" d="M116.5 11.5z" pointer-events="none"/>
            <g class="mark-rule role-axis-tick" pointer-events="none" stroke="#888">
                <path d="M116.5 611.5h-5M116.5 581.5h-5M116.5 551.5h-5M116.5 521.5h-5M116.5 491.5h-5M116.5 461.5h-5M116.5 431.5h-5M116.5 401.5h-5M116.5 371.5h-5M116.5 341.5h-5M116.5 311.5h-5M116.5 281.5h-5M116.5 251.5h-5M116.5 221.5h-5M116.5 191.5h-5M116.5 161.5h-5M116.5 131.5h-5M116.5 101.5h-5M116.5 71.5h-5M116.5 41.5h-5M116.5 11.5h-5"/>
            </g>
            <g class="mark-text role-axis-label" pointer-events="none" text-anchor="end" font-family="sans-serif" font-size="12" fill="#000">
                <text transform="translate(109.5 615.5)">
                    0
                </text>
                <text transform="translate(109.5 585.5)">
                    100,000
                </text>
                <text transform="translate(109.5 555.5)">
                    200,000
                </text>
                <text transform="translate(109.5 525.5)">
                    300,000
                </text>
                <text transform="translate(109.5 495.5)">
                    400,000
                </text>
                <text transform="translate(109.5 465.5)">
                    500,000
                </text>
                <text transform="translate(109.5 435.5)">
                    600,000
                </text>
                <text transform="translate(109.5 405.5)">
                    700,000
                </text>
                <text transform="translate(109.5 375.5)">
                    800,000
                </text>
                <text transform="translate(109.5 345.5)">
                    900,000
                </text>
                <text transform="translate(109.5 315.5)">
                    1,000,000
                </text>
                <text transform="translate(109.5 285.5)">
                    1,100,000
                </text>
                <text transform="translate(109.5 255.5)">
                    1,200,000
                </text>
                <text transform="translate(109.5 225.5)">
                    1,300,000
                </text>
                <text transform="translate(109.5 195.5)">
                    1,400,000
                </text>
                <text transform="translate(109.5 165.5)">
                    1,500,000
                </text>
                <text transform="translate(109.5 135.5)">
                    1,600,000
                </text>
                <text transform="translate(109.5 105.5)">
                    1,700,000
                </text>
                <text transform="translate(109.5 75.5)">
                    1,800,000
                </text>
                <text transform="translate(109.5 45.5)">
                    1,900,000
                </text>
                <text transform="translate(109.5 15.5)">
                    2,000,000
                </text>
            </g>
            <path stroke="#888" d="M116.5 611.5v-600" pointer-events="none"/>
            <text text-anchor="middle" transform="rotate(-90 164 147.5)" font-family="sans-serif" font-size="14" fill="#000" pointer-events="none">
                operations / sec
            </text>
        </g>
        <g class="mark-rect role-mark marks" aria-roledescription="rect mark container" fill="#4c78a8">
            <path aria-label="operations / sec: 122596; module: bueno" aria-roledescription="bar" d="M118.75 574.221h49.5V611h-49.5z"/>
            <path aria-label="operations / sec: 27101; module: class-transformer-validator-async" aria-roledescription="bar" d="M173.75 602.87h49.5V611h-49.5z"/>
            <path aria-label="operations / sec: 33318; module: class-transformer-validator-sync" aria-roledescription="bar" d="M228.75 601.005h49.5V611h-49.5z"/>
            <path aria-label="operations / sec: 668736; module: computed-types" aria-roledescription="bar" d="M283.75 410.38h49.5V611h-49.5z"/>
            <path aria-label="operations / sec: 1893228; module: io-ts" aria-roledescription="bar" d="M338.75 43.032h49.5V611h-49.5z"/>
            <path aria-label="operations / sec: 821228; module: jointz" aria-roledescription="bar" d="M393.75 364.632h49.5V611h-49.5z"/>
            <path aria-label="operations / sec: 417372; module: json-decoder" aria-roledescription="bar" d="M448.75 485.788h49.5V611h-49.5z"/>
            <path aria-label="operations / sec: 1199136; module: myzod" aria-roledescription="bar" d="M503.75 251.26h49.5V611h-49.5z"/>
            <path aria-label="operations / sec: 698158; module: purify-ts" aria-roledescription="bar" d="M558.75 401.553h49.5V611h-49.5z"/>
            <path aria-label="operations / sec: 615950; module: rulr" aria-roledescription="bar" d="M613.75 426.215h49.5V611h-49.5z"/>
            <path aria-label="operations / sec: 663553; module: runtypes" aria-roledescription="bar" d="M668.75 411.934h49.5V611h-49.5z"/>
            <path aria-label="operations / sec: 1249536; module: simple-runtypes" aria-roledescription="bar" d="M723.75 236.14h49.5V611h-49.5z"/>
            <path aria-label="operations / sec: 387103; module: toi" aria-roledescription="bar" d="M778.75 494.87h49.5V611h-49.5z"/>
            <path aria-label="operations / sec: 121730; module: ts-utils" aria-roledescription="bar" d="M833.75 574.481h49.5V611h-49.5z"/>
            <path aria-label="operations / sec: 11766; module: yup" aria-roledescription="bar" d="M888.75 607.47h49.5V611h-49.5z"/>
            <path aria-label="operations / sec: 7066; module: zod" aria-roledescription="bar" d="M943.75 608.88h49.5V611h-49.5z"/>
        </g>
    </g>
</svg>
