<svg class="marks" width="1011" height="820" viewBox="0 0 1011 820" version="1.1" xmlns="http://www.w3.org/2000/svg" xmlns:xlink="http://www.w3.org/1999/xlink"><rect width="1011" height="820" fill="white"></rect><g fill="none" stroke-miterlimit="10" transform="translate(126,11)"><g class="mark-group role-frame root" role="graphics-object" aria-roledescription="group mark container"><g transform="translate(0,0)"><path class="background" aria-hidden="true" d="M0.5,0.5h880v600h-880Z" stroke="#ddd"></path><g><g class="mark-group role-axis" aria-hidden="true"><g transform="translate(0.5,0.5)"><path class="background" aria-hidden="true" d="M0,0h0v0h0Z" pointer-events="none"></path><g><g class="mark-rule role-axis-grid" pointer-events="none"><line transform="translate(0,600)" x2="880" y2="0" stroke="#ddd" stroke-width="1" opacity="1"></line><line transform="translate(0,550)" x2="880" y2="0" stroke="#ddd" stroke-width="1" opacity="1"></line><line transform="translate(0,500)" x2="880" y2="0" stroke="#ddd" stroke-width="1" opacity="1"></line><line transform="translate(0,450)" x2="880" y2="0" stroke="#ddd" stroke-width="1" opacity="1"></line><line transform="translate(0,400)" x2="880" y2="0" stroke="#ddd" stroke-width="1" opacity="1"></line><line transform="translate(0,350)" x2="880" y2="0" stroke="#ddd" stroke-width="1" opacity="1"></line><line transform="translate(0,300)" x2="880" y2="0" stroke="#ddd" stroke-width="1" opacity="1"></line><line transform="translate(0,250)" x2="880" y2="0" stroke="#ddd" stroke-width="1" opacity="1"></line><line transform="translate(0,200)" x2="880" y2="0" stroke="#ddd" stroke-width="1" opacity="1"></line><line transform="translate(0,150)" x2="880" y2="0" stroke="#ddd" stroke-width="1" opacity="1"></line><line transform="translate(0,100)" x2="880" y2="0" stroke="#ddd" stroke-width="1" opacity="1"></line><line transform="translate(0,50)" x2="880" y2="0" stroke="#ddd" stroke-width="1" opacity="1"></line><line transform="translate(0,0)" x2="880" y2="0" stroke="#ddd" stroke-width="1" opacity="1"></line></g></g><path class="foreground" aria-hidden="true" d="" pointer-events="none" display="none"></path></g></g><g class="mark-group role-axis" role="graphics-symbol" aria-roledescription="axis" aria-label="X-axis titled 'module' for a discrete scale with 14 values: class-transformer-validator-async, class-transformer-validator-sync, computed-types, io-ts, jointz, ending with zod"><g transform="translate(0.5,600.5)"><path class="background" aria-hidden="true" d="M0,0h0v0h0Z" pointer-events="none"></path><g><g class="mark-rule role-axis-tick" pointer-events="none"><line transform="translate(31,0)" x2="0" y2="5" stroke="#888" stroke-width="1" opacity="1"></line><line transform="translate(94,0)" x2="0" y2="5" stroke="#888" stroke-width="1" opacity="1"></line><line transform="translate(157,0)" x2="0" y2="5" stroke="#888" stroke-width="1" opacity="1"></line><line transform="translate(220,0)" x2="0" y2="5" stroke="#888" stroke-width="1" opacity="1"></line><line transform="translate(282,0)" x2="0" y2="5" stroke="#888" stroke-width="1" opacity="1"></line><line transform="translate(345,0)" x2="0" y2="5" stroke="#888" stroke-width="1" opacity="1"></line><line transform="translate(408,0)" x2="0" y2="5" stroke="#888" stroke-width="1" opacity="1"></line><line transform="translate(471,0)" x2="0" y2="5" stroke="#888" stroke-width="1" opacity="1"></line><line transform="translate(534,0)" x2="0" y2="5" stroke="#888" stroke-width="1" opacity="1"></line><line transform="translate(597,0)" x2="0" y2="5" stroke="#888" stroke-width="1" opacity="1"></line><line transform="translate(660,0)" x2="0" y2="5" stroke="#888" stroke-width="1" opacity="1"></line><line transform="translate(722,0)" x2="0" y2="5" stroke="#888" stroke-width="1" opacity="1"></line><line transform="translate(785,0)" x2="0" y2="5" stroke="#888" stroke-width="1" opacity="1"></line><line transform="translate(848,0)" x2="0" y2="5" stroke="#888" stroke-width="1" opacity="1"></line></g><g class="mark-text role-axis-label" pointer-events="none"><text text-anchor="start" transform="translate(30.928571428571452,7) rotate(90) translate(0,4)" font-family="sans-serif" font-size="14px" fill="#000" opacity="1">class-transform…</text><text text-anchor="start" transform="translate(93.7857142857143,7) rotate(90) translate(0,4)" font-family="sans-serif" font-size="14px" fill="#000" opacity="1">class-transform…</text><text text-anchor="start" transform="translate(156.64285714285717,7) rotate(90) translate(0,4)" font-family="sans-serif" font-size="14px" fill="#000" opacity="1">computed-types</text><text text-anchor="start" transform="translate(219.5,7) rotate(90) translate(0,4)" font-family="sans-serif" font-size="14px" fill="#000" opacity="1">io-ts</text><text text-anchor="start" transform="translate(282.3571428571429,7) rotate(90) translate(0,4)" font-family="sans-serif" font-size="14px" fill="#000" opacity="1">jointz</text><text text-anchor="start" transform="translate(345.2142857142857,7) rotate(90) translate(0,4)" font-family="sans-serif" font-size="14px" fill="#000" opacity="1">json-decoder</text><text text-anchor="start" transform="translate(408.07142857142856,7) rotate(90) translate(0,4)" font-family="sans-serif" font-size="14px" fill="#000" opacity="1">marshal</text><text text-anchor="start" transform="translate(470.92857142857144,7) rotate(90) translate(0,4)" font-family="sans-serif" font-size="14px" fill="#000" opacity="1">myzod</text><text text-anchor="start" transform="translate(533.7857142857143,7) rotate(90) translate(0,4)" font-family="sans-serif" font-size="14px" fill="#000" opacity="1">purify-ts</text><text text-anchor="start" transform="translate(596.6428571428572,7) rotate(90) translate(0,4)" font-family="sans-serif" font-size="14px" fill="#000" opacity="1">runtypes</text><text text-anchor="start" transform="translate(659.5000000000001,7) rotate(90) translate(0,4)" font-family="sans-serif" font-size="14px" fill="#000" opacity="1">toi</text><text text-anchor="start" transform="translate(722.357142857143,7) rotate(90) translate(0,4)" font-family="sans-serif" font-size="14px" fill="#000" opacity="1">ts-utils</text><text text-anchor="start" transform="translate(785.2142857142857,7) rotate(90) translate(0,4)" font-family="sans-serif" font-size="14px" fill="#000" opacity="1">yup</text><text text-anchor="start" transform="translate(848.0714285714286,7) rotate(90) translate(0,4)" font-family="sans-serif" font-size="14px" fill="#000" opacity="1">zod</text></g><g class="mark-rule role-axis-domain" pointer-events="none"><line transform="translate(0,0)" x2="880" y2="0" stroke="#888" stroke-width="1" opacity="1"></line></g><g class="mark-text role-axis-title" pointer-events="none"><text text-anchor="middle" transform="translate(440,201.00000000000003)" font-family="sans-serif" font-size="14px" font-weight="normal" fill="#000" opacity="1">module</text></g></g><path class="foreground" aria-hidden="true" d="" pointer-events="none" display="none"></path></g></g><g class="mark-group role-axis" role="graphics-symbol" aria-roledescription="axis" aria-label="Y-axis titled 'operations / sec' for a linear scale with values from 0 to 12,000,000"><g transform="translate(0.5,0.5)"><path class="background" aria-hidden="true" d="M0,0h0v0h0Z" pointer-events="none"></path><g><g class="mark-rule role-axis-tick" pointer-events="none"><line transform="translate(0,600)" x2="-5" y2="0" stroke="#888" stroke-width="1" opacity="1"></line><line transform="translate(0,550)" x2="-5" y2="0" stroke="#888" stroke-width="1" opacity="1"></line><line transform="translate(0,500)" x2="-5" y2="0" stroke="#888" stroke-width="1" opacity="1"></line><line transform="translate(0,450)" x2="-5" y2="0" stroke="#888" stroke-width="1" opacity="1"></line><line transform="translate(0,400)" x2="-5" y2="0" stroke="#888" stroke-width="1" opacity="1"></line><line transform="translate(0,350)" x2="-5" y2="0" stroke="#888" stroke-width="1" opacity="1"></line><line transform="translate(0,300)" x2="-5" y2="0" stroke="#888" stroke-width="1" opacity="1"></line><line transform="translate(0,250)" x2="-5" y2="0" stroke="#888" stroke-width="1" opacity="1"></line><line transform="translate(0,200)" x2="-5" y2="0" stroke="#888" stroke-width="1" opacity="1"></line><line transform="translate(0,150)" x2="-5" y2="0" stroke="#888" stroke-width="1" opacity="1"></line><line transform="translate(0,100)" x2="-5" y2="0" stroke="#888" stroke-width="1" opacity="1"></line><line transform="translate(0,50)" x2="-5" y2="0" stroke="#888" stroke-width="1" opacity="1"></line><line transform="translate(0,0)" x2="-5" y2="0" stroke="#888" stroke-width="1" opacity="1"></line></g><g class="mark-text role-axis-label" pointer-events="none"><text text-anchor="end" transform="translate(-7,604)" font-family="sans-serif" font-size="12px" fill="#000" opacity="1">0</text><text text-anchor="end" transform="translate(-7,554)" font-family="sans-serif" font-size="12px" fill="#000" opacity="1">1,000,000</text><text text-anchor="end" transform="translate(-7,504)" font-family="sans-serif" font-size="12px" fill="#000" opacity="1">2,000,000</text><text text-anchor="end" transform="translate(-7,454)" font-family="sans-serif" font-size="12px" fill="#000" opacity="1">3,000,000</text><text text-anchor="end" transform="translate(-7,404.00000000000006)" font-family="sans-serif" font-size="12px" fill="#000" opacity="1">4,000,000</text><text text-anchor="end" transform="translate(-7,353.99999999999994)" font-family="sans-serif" font-size="12px" fill="#000" opacity="1">5,000,000</text><text text-anchor="end" transform="translate(-7,304)" font-family="sans-serif" font-size="12px" fill="#000" opacity="1">6,000,000</text><text text-anchor="end" transform="translate(-7,253.99999999999997)" font-family="sans-serif" font-size="12px" fill="#000" opacity="1">7,000,000</text><text text-anchor="end" transform="translate(-7,204.00000000000003)" font-family="sans-serif" font-size="12px" fill="#000" opacity="1">8,000,000</text><text text-anchor="end" transform="translate(-7,154)" font-family="sans-serif" font-size="12px" fill="#000" opacity="1">9,000,000</text><text text-anchor="end" transform="translate(-7,103.99999999999997)" font-family="sans-serif" font-size="12px" fill="#000" opacity="1">10,000,000</text><text text-anchor="end" transform="translate(-7,54.00000000000002)" font-family="sans-serif" font-size="12px" fill="#000" opacity="1">11,000,000</text><text text-anchor="end" transform="translate(-7,4)" font-family="sans-serif" font-size="12px" fill="#000" opacity="1">12,000,000</text></g><g class="mark-rule role-axis-domain" pointer-events="none"><line transform="translate(0,600)" x2="0" y2="-600" stroke="#888" stroke-width="1" opacity="1"></line></g><g class="mark-text role-axis-title" pointer-events="none"><text text-anchor="middle" transform="translate(-107,300) rotate(-90) translate(0,-3)" font-family="sans-serif" font-size="14px" font-weight="normal" fill="#000" opacity="1">operations / sec</text></g></g><path class="foreground" aria-hidden="true" d="" pointer-events="none" display="none"></path></g></g><g class="mark-rect role-mark marks" role="graphics-object" aria-roledescription="rect mark container"><path aria-label="operations / sec: 28411; module: class-transformer-validator-async" role="graphics-symbol" aria-roledescription="bar" d="M3.142857142857167,598.5794500000001h56.57142857142857v1.4205499999999347h-56.57142857142857Z" fill="#4c78a8"></path><path aria-label="operations / sec: 33670; module: class-transformer-validator-sync" role="graphics-symbol" aria-roledescription="bar" d="M66.00000000000003,598.3165h56.57142857142857v1.683499999999981h-56.57142857142857Z" fill="#4c78a8"></path><path aria-label="operations / sec: 629947; module: computed-types" role="graphics-symbol" aria-roledescription="bar" d="M128.8571428571429,568.50265h56.57142857142857v31.497349999999983h-56.57142857142857Z" fill="#4c78a8"></path><path aria-label="operations / sec: 2470673; module: io-ts" role="graphics-symbol" aria-roledescription="bar" d="M191.71428571428572,476.46635h56.57142857142857v123.53365000000002h-56.57142857142857Z" fill="#4c78a8"></path><path aria-label="operations / sec: 1443272; module: jointz" role="graphics-symbol" aria-roledescription="bar" d="M254.57142857142858,527.8364h56.57142857142857v72.16359999999997h-56.57142857142857Z" fill="#4c78a8"></path><path aria-label="operations / sec: 710507; module: json-decoder" role="graphics-symbol" aria-roledescription="bar" d="M317.42857142857144,564.47465h56.57142857142857v35.52535h-56.57142857142857Z" fill="#4c78a8"></path><path aria-label="operations / sec: 11124461; module: marshal" role="graphics-symbol" aria-roledescription="bar" d="M380.2857142857143,43.776950000000014h56.57142857142857v556.22305h-56.57142857142857Z" fill="#4c78a8"></path><path aria-label="operations / sec: 1280683; module: myzod" role="graphics-symbol" aria-roledescription="bar" d="M443.14285714285717,535.96585h56.57142857142857v64.03414999999995h-56.57142857142857Z" fill="#4c78a8"></path><path aria-label="operations / sec: 685717; module: purify-ts" role="graphics-symbol" aria-roledescription="bar" d="M506,565.71415h56.57142857142857v34.28584999999998h-56.57142857142857Z" fill="#4c78a8"></path><path aria-label="operations / sec: 700984; module: runtypes" role="graphics-symbol" aria-roledescription="bar" d="M568.8571428571429,564.9508h56.57142857142857v35.04920000000004h-56.57142857142857Z" fill="#4c78a8"></path><path aria-label="operations / sec: 409629; module: toi" role="graphics-symbol" aria-roledescription="bar" d="M631.7142857142858,579.51855h56.57142857142857v20.481449999999995h-56.57142857142857Z" fill="#4c78a8"></path><path aria-label="operations / sec: 98863; module: ts-utils" role="graphics-symbol" aria-roledescription="bar" d="M694.5714285714287,595.0568499999999h56.57142857142857v4.94315000000006h-56.57142857142857Z" fill="#4c78a8"></path><path aria-label="operations / sec: 12302; module: yup" role="graphics-symbol" aria-roledescription="bar" d="M757.4285714285713,599.3849h56.57142857142857v0.615099999999984h-56.57142857142857Z" fill="#4c78a8"></path><path aria-label="operations / sec: 46150; module: zod" role="graphics-symbol" aria-roledescription="bar" d="M820.2857142857142,597.6925h56.57142857142857v2.3075000000000045h-56.57142857142857Z" fill="#4c78a8"></path></g></g><path class="foreground" aria-hidden="true" d="" display="none"></path></g></g></g></svg>