<svg xmlns="http://www.w3.org/2000/svg" class="marks" width="1001" height="814">
    <path fill="#fff" d="M0 0h1001v814H0z"/>
    <g class="mark-group role-frame root" aria-roledescription="group mark container" fill="none" stroke-miterlimit="10">
        <path class="background" aria-hidden="true" d="M116.5 5.5h880v600h-880z" stroke="#ddd"/>
        <g class="mark-group role-axis" aria-roledescription="axis" aria-label="Y-axis for a linear scale with values from 0 to 3,500,000">
            <path class="background" aria-hidden="true" d="M116.5 5.5z" pointer-events="none"/>
            <g class="mark-rule role-axis-grid" pointer-events="none" stroke="#ddd">
                <path d="M116.5 605.5h880M116.5 571.5h880M116.5 536.5h880M116.5 502.5h880M116.5 468.5h880M116.5 434.5h880M116.5 399.5h880M116.5 365.5h880M116.5 331.5h880M116.5 296.5h880M116.5 262.5h880M116.5 228.5h880M116.5 194.5h880M116.5 159.5h880M116.5 125.5h880M116.5 91.5h880M116.5 56.5h880M116.5 22.5h880"/>
            </g>
        </g>
        <g class="mark-group role-axis" aria-roledescription="axis" aria-label="X-axis titled 'module' for a discrete scale with 21 values: @typeofweb/schema, bueno, class-transformer-validator-async, class-transformer-validator-sync, computed-types, ending with zod">
            <path class="background" aria-hidden="true" d="M116.5 605.5z" pointer-events="none"/>
            <g class="mark-rule role-axis-tick" pointer-events="none" stroke="#888">
                <path d="M136.5 605.5v5M178.5 605.5v5M220.5 605.5v5M262.5 605.5v5M304.5 605.5v5M346.5 605.5v5M388.5 605.5v5M430.5 605.5v5M472.5 605.5v5M514.5 605.5v5M556.5 605.5v5M597.5 605.5v5M639.5 605.5v5M681.5 605.5v5M723.5 605.5v5M765.5 605.5v5M807.5 605.5v5M849.5 605.5v5M891.5 605.5v5M933.5 605.5v5M975.5 605.5v5"/>
            </g>
            <g class="mark-text role-axis-label" pointer-events="none" font-family="sans-serif" font-size="14" fill="#000">
                <text transform="rotate(90 -239.774 372.726)">@typeofweb/sche…</text>
                <text transform="rotate(90 -218.821 393.679)">bueno</text>
                <text transform="rotate(90 -197.869 414.631)">class-transform…</text>
                <text transform="rotate(90 -176.917 435.583)">class-transform…</text>
                <text transform="rotate(90 -155.964 456.536)">computed-types</text>
                <text transform="rotate(90 -135.012 477.488)">decoders</text>
                <text transform="rotate(90 -114.06 498.44)">io-ts</text>
                <text transform="rotate(90 -93.107 519.393)">jointz</text>
                <text transform="rotate(90 -72.155 540.345)">json-decoder</text>
                <text transform="rotate(90 -51.202 561.298)">myzod</text>
                <text transform="rotate(90 -30.25 582.25)">purify-ts</text>
                <text transform="rotate(90 -9.298 603.202)">rulr</text>
                <text transform="rotate(90 11.655 624.155)">runtypes</text>
                <text transform="rotate(90 32.607 645.107)">simple-runtypes</text>
                <text transform="rotate(90 53.56 666.06)">superstruct</text>
                <text transform="rotate(90 74.512 687.012)">toi</text>
                <text transform="rotate(90 95.464 707.964)">ts-interface-ch…</text>
                <text transform="rotate(90 116.417 728.917)">ts-utils</text>
                <text transform="rotate(90 137.369 749.869)">valita</text>
                <text transform="rotate(90 158.321 770.821)">yup</text>
                <text transform="rotate(90 179.274 791.774)">zod</text>
            </g>
            <path stroke="#888" d="M116.5 605.5h880" class="mark-rule role-axis-domain" pointer-events="none"/>
            <text text-anchor="middle" transform="translate(556.5 806.5)" font-family="sans-serif" font-size="14" fill="#000" class="mark-text role-axis-title" pointer-events="none">module</text>
        </g>
        <g class="mark-group role-axis" aria-roledescription="axis" aria-label="Y-axis titled 'operations / sec' for a linear scale with values from 0 to 3,500,000">
            <path class="background" aria-hidden="true" d="M116.5 5.5z" pointer-events="none"/>
            <g class="mark-rule role-axis-tick" pointer-events="none" stroke="#888">
                <path d="M116.5 605.5h-5M116.5 571.5h-5M116.5 536.5h-5M116.5 502.5h-5M116.5 468.5h-5M116.5 434.5h-5M116.5 399.5h-5M116.5 365.5h-5M116.5 331.5h-5M116.5 296.5h-5M116.5 262.5h-5M116.5 228.5h-5M116.5 194.5h-5M116.5 159.5h-5M116.5 125.5h-5M116.5 91.5h-5M116.5 56.5h-5M116.5 22.5h-5"/>
            </g>
            <g class="mark-text role-axis-label" pointer-events="none" text-anchor="end" font-family="sans-serif" font-size="12" fill="#000">
                <text transform="translate(109.5 609.5)">0</text>
                <text transform="translate(109.5 575.214)">200,000</text>
                <text transform="translate(109.5 540.929)">400,000</text>
                <text transform="translate(109.5 506.643)">600,000</text>
                <text transform="translate(109.5 472.357)">800,000</text>
                <text transform="translate(109.5 438.071)">1,000,000</text>
                <text transform="translate(109.5 403.786)">1,200,000</text>
                <text transform="translate(109.5 369.5)">1,400,000</text>
                <text transform="translate(109.5 335.214)">1,600,000</text>
                <text transform="translate(109.5 300.929)">1,800,000</text>
                <text transform="translate(109.5 266.643)">2,000,000</text>
                <text transform="translate(109.5 232.357)">2,200,000</text>
                <text transform="translate(109.5 198.071)">2,400,000</text>
                <text transform="translate(109.5 163.786)">2,600,000</text>
                <text transform="translate(109.5 129.5)">2,800,000</text>
                <text transform="translate(109.5 95.214)">3,000,000</text>
                <text transform="translate(109.5 60.929)">3,200,000</text>
                <text transform="translate(109.5 26.643)">3,400,000</text>
            </g>
            <path stroke="#888" d="M116.5 605.5V5.5" class="mark-rule role-axis-domain" pointer-events="none"/>
            <text text-anchor="middle" transform="rotate(-90 161 144.5)" font-family="sans-serif" font-size="14" fill="#000" class="mark-text role-axis-title" pointer-events="none">operations / sec</text>
        </g>
        <g class="mark-rect role-mark marks" aria-roledescription="rect mark container" fill="#4c78a8">
            <path d="M160 582.313h37.714V605H160zM201.905 600.539h37.714V605h-37.714zM243.81 599.59h37.714V605H243.81zM285.714 504.637h37.715V605h-37.715zM327.619 573.994h37.714V605H327.62zM369.524 444.141h37.714V605h-37.714zM411.429 365.94h37.714V605h-37.714zM453.333 485.165h37.715V605h-37.715zM495.238 385.392h37.714V605h-37.714zM537.143 484.054h37.714V605h-37.714zM579.048 492.266h37.714V605h-37.714zM620.952 480.005h37.715V605h-37.715zM662.857 329.542h37.714V605h-37.714zM704.762 590.252h37.714V605h-37.714zM746.667 529.968h37.714V605h-37.714zM788.571 222.883h37.715V605H788.57zM830.476 584.295h37.714V605h-37.714zM118.095 459.751h37.715V605h-37.715zM872.381 90.68h37.714V605h-37.714zM914.286 601.337H952V605h-37.714zM956.19 603.697h37.715V605H956.19z"/>
        </g>
    </g>
</svg>
