<svg xmlns="http://www.w3.org/2000/svg" class="marks" width="1011" height="820">
    <path fill="#fff" d="M0 0h1011v820H0z"/>
    <g class="mark-group role-frame root" aria-roledescription="group mark container" fill="none" stroke-miterlimit="10">
        <path class="background" aria-hidden="true" d="M126.5 11.5h880v600h-880z" stroke="#ddd"/>
        <g class="mark-group role-axis" aria-hidden="true">
            <path class="background" aria-hidden="true" d="M126.5 11.5z" pointer-events="none"/>
            <g class="mark-rule role-axis-grid" pointer-events="none" stroke="#ddd">
                <path d="M126.5 611.5h880M126.5 556.5h880M126.5 502.5h880M126.5 447.5h880M126.5 393.5h880M126.5 338.5h880M126.5 284.5h880M126.5 229.5h880M126.5 175.5h880M126.5 120.5h880M126.5 66.5h880M126.5 11.5h880"/>
            </g>
        </g>
        <g class="mark-group role-axis" aria-roledescription="axis" aria-label="X-axis titled 'module' for a discrete scale with 20 values: bueno, class-transformer-validator-async, class-transformer-validator-sync, computed-types, decoders, ending with zod">
            <path class="background" aria-hidden="true" d="M126.5 611.5z" pointer-events="none"/>
            <g class="mark-rule role-axis-tick" pointer-events="none" stroke="#888">
                <path d="M148.5 611.5v5M192.5 611.5v5M236.5 611.5v5M280.5 611.5v5M324.5 611.5v5M368.5 611.5v5M412.5 611.5v5M456.5 611.5v5M500.5 611.5v5M544.5 611.5v5M588.5 611.5v5M632.5 611.5v5M676.5 611.5v5M720.5 611.5v5M764.5 611.5v5M808.5 611.5v5M852.5 611.5v5M896.5 611.5v5M940.5 611.5v5M984.5 611.5v5"/>
            </g>
            <g class="mark-text role-axis-label" pointer-events="none" font-family="sans-serif" font-size="14" fill="#000">
                <text transform="rotate(90 -237.25 381.25)">
                    bueno
                </text>
                <text transform="rotate(90 -215.25 403.25)">
                    class-transform…
                </text>
                <text transform="rotate(90 -193.25 425.25)">
                    class-transform…
                </text>
                <text transform="rotate(90 -171.25 447.25)">
                    computed-types
                </text>
                <text transform="rotate(90 -149.25 469.25)">
                    decoders
                </text>
                <text transform="rotate(90 -127.25 491.25)">
                    io-ts
                </text>
                <text transform="rotate(90 -105.25 513.25)">
                    jointz
                </text>
                <text transform="rotate(90 -83.25 535.25)">
                    json-decoder
                </text>
                <text transform="rotate(90 -61.25 557.25)">
                    marshal
                </text>
                <text transform="rotate(90 -39.25 579.25)">
                    myzod
                </text>
                <text transform="rotate(90 -17.25 601.25)">
                    purify-ts
                </text>
                <text transform="rotate(90 4.75 623.25)">
                    rulr
                </text>
                <text transform="rotate(90 26.75 645.25)">
                    runtypes
                </text>
                <text transform="rotate(90 48.75 667.25)">
                    simple-runtypes
                </text>
                <text transform="rotate(90 70.75 689.25)">
                    superstruct
                </text>
                <text transform="rotate(90 92.75 711.25)">
                    toi
                </text>
                <text transform="rotate(90 114.75 733.25)">
                    ts-json-validat…
                </text>
                <text transform="rotate(90 136.75 755.25)">
                    ts-utils
                </text>
                <text transform="rotate(90 158.75 777.25)">
                    yup
                </text>
                <text transform="rotate(90 180.75 799.25)">
                    zod
                </text>
            </g>
            <path stroke="#888" d="M126.5 611.5h880" pointer-events="none"/>
            <text text-anchor="middle" transform="translate(566.5 812.5)" font-family="sans-serif" font-size="14" fill="#000" pointer-events="none">
                module
            </text>
        </g>
        <g class="mark-group role-axis" aria-roledescription="axis" aria-label="Y-axis titled 'operations / sec' for a linear scale with values from 0 to 22,000,000">
            <path class="background" aria-hidden="true" d="M126.5 11.5z" pointer-events="none"/>
            <g class="mark-rule role-axis-tick" pointer-events="none" stroke="#888">
                <path d="M126.5 611.5h-5M126.5 556.5h-5M126.5 502.5h-5M126.5 447.5h-5M126.5 393.5h-5M126.5 338.5h-5M126.5 284.5h-5M126.5 229.5h-5M126.5 175.5h-5M126.5 120.5h-5M126.5 66.5h-5M126.5 11.5h-5"/>
            </g>
            <g class="mark-text role-axis-label" pointer-events="none" text-anchor="end" font-family="sans-serif" font-size="12" fill="#000">
                <text transform="translate(119.5 615.5)">
                    0
                </text>
                <text transform="translate(119.5 560.955)">
                    2,000,000
                </text>
                <text transform="translate(119.5 506.41)">
                    4,000,000
                </text>
                <text transform="translate(119.5 451.864)">
                    6,000,000
                </text>
                <text transform="translate(119.5 397.318)">
                    8,000,000
                </text>
                <text transform="translate(119.5 342.773)">
                    10,000,000
                </text>
                <text transform="translate(119.5 288.227)">
                    12,000,000
                </text>
                <text transform="translate(119.5 233.682)">
                    14,000,000
                </text>
                <text transform="translate(119.5 179.136)">
                    16,000,000
                </text>
                <text transform="translate(119.5 124.59)">
                    18,000,000
                </text>
                <text transform="translate(119.5 70.045)">
                    20,000,000
                </text>
                <text transform="translate(119.5 15.5)">
                    22,000,000
                </text>
            </g>
            <path stroke="#888" d="M126.5 611.5v-600" pointer-events="none"/>
            <text text-anchor="middle" transform="rotate(-90 164 147.5)" font-family="sans-serif" font-size="14" fill="#000" pointer-events="none">
                operations / sec
            </text>
        </g>
        <g class="mark-rect role-mark marks" aria-roledescription="rect mark container" fill="#4c78a8">
            <path aria-label="operations / sec: 157651; module: bueno" aria-roledescription="bar" d="M128.2 606.7h39.6v4.3h-39.6z"/>
            <path aria-label="operations / sec: 39512; module: class-transformer-validator-async" aria-roledescription="bar" d="M172.2 609.922h39.6V611h-39.6z"/>
            <path aria-label="operations / sec: 47424; module: class-transformer-validator-sync" aria-roledescription="bar" d="M216.2 609.707h39.6V611h-39.6z"/>
            <path aria-label="operations / sec: 827901; module: computed-types" aria-roledescription="bar" d="M260.2 588.42h39.6V611h-39.6z"/>
            <path aria-label="operations / sec: 239172; module: decoders" aria-roledescription="bar" d="M304.2 604.477h39.6V611h-39.6z"/>
            <path aria-label="operations / sec: 1000151; module: io-ts" aria-roledescription="bar" d="M348.2 583.723h39.6V611h-39.6z"/>
            <path aria-label="operations / sec: 955519; module: jointz" aria-roledescription="bar" d="M392.2 584.94h39.6V611h-39.6z"/>
            <path aria-label="operations / sec: 817537; module: json-decoder" aria-roledescription="bar" d="M436.2 588.704h39.6V611h-39.6z"/>
            <path aria-label="operations / sec: 20914160; module: marshal" aria-roledescription="bar" d="M480.2 40.614h39.6V611h-39.6z"/>
            <path aria-label="operations / sec: 1295924; module: myzod" aria-roledescription="bar" d="M524.2 575.657h39.6V611h-39.6z"/>
            <path aria-label="operations / sec: 807906; module: purify-ts" aria-roledescription="bar" d="M568.2 588.966h39.6V611h-39.6z"/>
            <path aria-label="operations / sec: 693381; module: rulr" aria-roledescription="bar" d="M612.2 592.09h39.6V611h-39.6z"/>
            <path aria-label="operations / sec: 757703; module: runtypes" aria-roledescription="bar" d="M656.2 590.335h39.6V611h-39.6z"/>
            <path aria-label="operations / sec: 1496720; module: simple-runtypes" aria-roledescription="bar" d="M700.2 570.18h39.6V611h-39.6z"/>
            <path aria-label="operations / sec: 75884; module: superstruct" aria-roledescription="bar" d="M744.2 608.93h39.6V611h-39.6z"/>
            <path aria-label="operations / sec: 429456; module: toi" aria-roledescription="bar" d="M788.2 599.288h39.6V611h-39.6z"/>
            <path aria-label="operations / sec: 18685857; module: ts-json-validator" aria-roledescription="bar" d="M832.2 101.386h39.6V611h-39.6z"/>
            <path aria-label="operations / sec: 133856; module: ts-utils" aria-roledescription="bar" d="M876.2 607.35h39.6V611h-39.6z"/>
            <path aria-label="operations / sec: 15046; module: yup" aria-roledescription="bar" d="M920.2 610.59h39.6v.41h-39.6z"/>
            <path aria-label="operations / sec: 11077; module: zod" aria-roledescription="bar" d="M964.2 610.698h39.6V611h-39.6z"/>
        </g>
    </g>
</svg>
