<svg class="marks" width="1001" height="820" xmlns="http://www.w3.org/2000/svg">
    <path fill="#fff" d="M0 0h1001v820H0z"/>
    <g class="mark-group role-frame root" aria-roledescription="group mark container" fill="none" stroke-miterlimit="10">
        <path class="background" aria-hidden="true" d="M116.5 11.5h880v600h-880z" stroke="#ddd"/>
        <g class="mark-group role-axis" aria-hidden="true">
            <path class="background" aria-hidden="true" d="M116.5 11.5z" pointer-events="none"/>
            <g class="mark-rule role-axis-grid" pointer-events="none" stroke="#ddd">
                <path d="M116.5 611.5h880M116.5 556.5h880M116.5 502.5h880M116.5 447.5h880M116.5 393.5h880M116.5 338.5h880M116.5 284.5h880M116.5 229.5h880M116.5 175.5h880M116.5 120.5h880M116.5 66.5h880M116.5 11.5h880"/>
            </g>
        </g>
        <g class="mark-group role-axis" aria-roledescription="axis" aria-label="X-axis titled 'module' for a discrete scale with 14 values: class-transformer-validator-async, class-transformer-validator-sync, computed-types, io-ts, jointz, ending with zod">
            <path class="background" aria-hidden="true" d="M116.5 611.5z" pointer-events="none"/>
            <g class="mark-rule role-axis-tick" pointer-events="none" stroke="#888">
                <path d="M147.5 611.5v5M210.5 611.5v5M273.5 611.5v5M336.5 611.5v5M398.5 611.5v5M461.5 611.5v5M524.5 611.5v5M587.5 611.5v5M650.5 611.5v5M713.5 611.5v5M776.5 611.5v5M838.5 611.5v5M901.5 611.5v5M964.5 611.5v5"/>
            </g>
            <g class="mark-text role-axis-label" pointer-events="none" font-family="sans-serif" font-size="14" fill="#000">
                <text transform="rotate(90 -237.536 380.964)">
                    class-transform…
                </text>
                <text transform="rotate(90 -206.107 412.393)">
                    class-transform…
                </text>
                <text transform="rotate(90 -174.679 443.821)">
                    computed-types
                </text>
                <text transform="rotate(90 -143.25 475.25)">
                    io-ts
                </text>
                <text transform="rotate(90 -111.821 506.679)">
                    jointz
                </text>
                <text transform="rotate(90 -80.393 538.107)">
                    json-decoder
                </text>
                <text transform="rotate(90 -48.964 569.536)">
                    myzod
                </text>
                <text transform="rotate(90 -17.536 600.964)">
                    purify-ts
                </text>
                <text transform="rotate(90 13.893 632.393)">
                    rulr
                </text>
                <text transform="rotate(90 45.321 663.821)">
                    runtypes
                </text>
                <text transform="rotate(90 76.75 695.25)">
                    toi
                </text>
                <text transform="rotate(90 108.179 726.679)">
                    ts-utils
                </text>
                <text transform="rotate(90 139.607 758.107)">
                    yup
                </text>
                <text transform="rotate(90 171.036 789.536)">
                    zod
                </text>
            </g>
            <path stroke="#888" d="M116.5 611.5h880" pointer-events="none"/>
            <text text-anchor="middle" transform="translate(556.5 812.5)" font-family="sans-serif" font-size="14" fill="#000" pointer-events="none">
                module
            </text>
        </g>
        <g class="mark-group role-axis" aria-roledescription="axis" aria-label="Y-axis titled 'operations / sec' for a linear scale with values from 0 to 2,200,000">
            <path class="background" aria-hidden="true" d="M116.5 11.5z" pointer-events="none"/>
            <g class="mark-rule role-axis-tick" pointer-events="none" stroke="#888">
                <path d="M116.5 611.5h-5M116.5 556.5h-5M116.5 502.5h-5M116.5 447.5h-5M116.5 393.5h-5M116.5 338.5h-5M116.5 284.5h-5M116.5 229.5h-5M116.5 175.5h-5M116.5 120.5h-5M116.5 66.5h-5M116.5 11.5h-5"/>
            </g>
            <g class="mark-text role-axis-label" pointer-events="none" text-anchor="end" font-family="sans-serif" font-size="12" fill="#000">
                <text transform="translate(109.5 615.5)">
                    0
                </text>
                <text transform="translate(109.5 560.955)">
                    200,000
                </text>
                <text transform="translate(109.5 506.41)">
                    400,000
                </text>
                <text transform="translate(109.5 451.864)">
                    600,000
                </text>
                <text transform="translate(109.5 397.318)">
                    800,000
                </text>
                <text transform="translate(109.5 342.773)">
                    1,000,000
                </text>
                <text transform="translate(109.5 288.227)">
                    1,200,000
                </text>
                <text transform="translate(109.5 233.682)">
                    1,400,000
                </text>
                <text transform="translate(109.5 179.136)">
                    1,600,000
                </text>
                <text transform="translate(109.5 124.59)">
                    1,800,000
                </text>
                <text transform="translate(109.5 70.045)">
                    2,000,000
                </text>
                <text transform="translate(109.5 15.5)">
                    2,200,000
                </text>
            </g>
            <path stroke="#888" d="M116.5 611.5v-600" pointer-events="none"/>
            <text text-anchor="middle" transform="rotate(-90 164 147.5)" font-family="sans-serif" font-size="14" fill="#000" pointer-events="none">
                operations / sec
            </text>
        </g>
        <g class="mark-rect role-mark marks" aria-roledescription="rect mark container" fill="#4c78a8">
            <path aria-label="operations / sec: 37379; module: class-transformer-validator-async" aria-roledescription="bar" d="M119.143 600.806h56.571V611h-56.571z"/>
            <path aria-label="operations / sec: 44841; module: class-transformer-validator-sync" aria-roledescription="bar" d="M182 598.77h56.571V611H182z"/>
            <path aria-label="operations / sec: 732289; module: computed-types" aria-roledescription="bar" d="M244.857 411.285h56.572V611h-56.572z"/>
            <path aria-label="operations / sec: 2156320; module: io-ts" aria-roledescription="bar" d="M307.714 22.913h56.572V611h-56.572z"/>
            <path aria-label="operations / sec: 905382; module: jointz" aria-roledescription="bar" d="M370.571 364.078h56.572V611H370.57z"/>
            <path aria-label="operations / sec: 470064; module: json-decoder" aria-roledescription="bar" d="M433.429 482.8H490V611h-56.571z"/>
            <path aria-label="operations / sec: 1370647; module: myzod" aria-roledescription="bar" d="M496.286 237.187h56.571V611h-56.571z"/>
            <path aria-label="operations / sec: 816481; module: purify-ts" aria-roledescription="bar" d="M559.143 388.323h56.571V611h-56.571z"/>
            <path aria-label="operations / sec: 696415; module: rulr" aria-roledescription="bar" d="M622 421.069h56.571V611H622z"/>
            <path aria-label="operations / sec: 823095; module: runtypes" aria-roledescription="bar" d="M684.857 386.52h56.572V611h-56.572z"/>
            <path aria-label="operations / sec: 476671; module: toi" aria-roledescription="bar" d="M747.714 480.999h56.572V611h-56.572z"/>
            <path aria-label="operations / sec: 132718; module: ts-utils" aria-roledescription="bar" d="M810.571 574.804h56.572V611H810.57z"/>
            <path aria-label="operations / sec: 16557; module: yup" aria-roledescription="bar" d="M873.429 606.484H930V611h-56.571z"/>
            <path aria-label="operations / sec: 57844; module: zod" aria-roledescription="bar" d="M936.286 595.224h56.571V611h-56.571z"/>
        </g>
    </g>
</svg>
