<svg class="marks" width="1011" height="820" viewBox="0 0 1011 820" version="1.1" xmlns="http://www.w3.org/2000/svg" xmlns:xlink="http://www.w3.org/1999/xlink"><defs><style>.vega-svg-root * { fill: none; } .vega-svg-root tspan { fill: inherit; } .vega-svg-root path { stroke-miterlimit: 10; }</style></defs><rect width="1011" height="820" style="fill: white;"></rect><g class="vega-svg-root" transform="translate(126,11)"><g class="mark-group role-frame root" role="graphics-object" aria-roledescription="group mark container"><g transform="translate(0,0)"><path class="background" aria-hidden="true" d="M0.5,0.5h880v600h-880Z" style="stroke: #ddd;"></path><g><g class="mark-group role-axis" aria-hidden="true"><g transform="translate(0.5,0.5)"><path class="background" aria-hidden="true" d="M0,0h0v0h0Z" style="pointer-events: none;"></path><g><g class="mark-rule role-axis-grid" style="pointer-events: none;"><line transform="translate(0,600)" x2="880" y2="0" style="stroke: #ddd; stroke-width: 1; opacity: 1;"></line><line transform="translate(0,570)" x2="880" y2="0" style="stroke: #ddd; stroke-width: 1; opacity: 1;"></line><line transform="translate(0,540)" x2="880" y2="0" style="stroke: #ddd; stroke-width: 1; opacity: 1;"></line><line transform="translate(0,510)" x2="880" y2="0" style="stroke: #ddd; stroke-width: 1; opacity: 1;"></line><line transform="translate(0,480)" x2="880" y2="0" style="stroke: #ddd; stroke-width: 1; opacity: 1;"></line><line transform="translate(0,450)" x2="880" y2="0" style="stroke: #ddd; stroke-width: 1; opacity: 1;"></line><line transform="translate(0,420)" x2="880" y2="0" style="stroke: #ddd; stroke-width: 1; opacity: 1;"></line><line transform="translate(0,390)" x2="880" y2="0" style="stroke: #ddd; stroke-width: 1; opacity: 1;"></line><line transform="translate(0,360)" x2="880" y2="0" style="stroke: #ddd; stroke-width: 1; opacity: 1;"></line><line transform="translate(0,330)" x2="880" y2="0" style="stroke: #ddd; stroke-width: 1; opacity: 1;"></line><line transform="translate(0,300)" x2="880" y2="0" style="stroke: #ddd; stroke-width: 1; opacity: 1;"></line><line transform="translate(0,270)" x2="880" y2="0" style="stroke: #ddd; stroke-width: 1; opacity: 1;"></line><line transform="translate(0,240)" x2="880" y2="0" style="stroke: #ddd; stroke-width: 1; opacity: 1;"></line><line transform="translate(0,210)" x2="880" y2="0" style="stroke: #ddd; stroke-width: 1; opacity: 1;"></line><line transform="translate(0,180)" x2="880" y2="0" style="stroke: #ddd; stroke-width: 1; opacity: 1;"></line><line transform="translate(0,150)" x2="880" y2="0" style="stroke: #ddd; stroke-width: 1; opacity: 1;"></line><line transform="translate(0,120)" x2="880" y2="0" style="stroke: #ddd; stroke-width: 1; opacity: 1;"></line><line transform="translate(0,90)" x2="880" y2="0" style="stroke: #ddd; stroke-width: 1; opacity: 1;"></line><line transform="translate(0,60)" x2="880" y2="0" style="stroke: #ddd; stroke-width: 1; opacity: 1;"></line><line transform="translate(0,30)" x2="880" y2="0" style="stroke: #ddd; stroke-width: 1; opacity: 1;"></line><line transform="translate(0,0)" x2="880" y2="0" style="stroke: #ddd; stroke-width: 1; opacity: 1;"></line></g></g><path class="foreground" aria-hidden="true" d="" style="pointer-events: none; display: none;"></path></g></g><g class="mark-group role-axis" role="graphics-symbol" aria-roledescription="axis" aria-label="X-axis titled 'module' for a discrete scale with 16 values: class-transformer-validator-async, class-transformer-validator-sync, computed-types, io-ts, jointz, ending with zod"><g transform="translate(0.5,600.5)"><path class="background" aria-hidden="true" d="M0,0h0v0h0Z" style="pointer-events: none;"></path><g><g class="mark-rule role-axis-tick" style="pointer-events: none;"><line transform="translate(27,0)" x2="0" y2="5" style="stroke: #888; stroke-width: 1; opacity: 1;"></line><line transform="translate(82,0)" x2="0" y2="5" style="stroke: #888; stroke-width: 1; opacity: 1;"></line><line transform="translate(137,0)" x2="0" y2="5" style="stroke: #888; stroke-width: 1; opacity: 1;"></line><line transform="translate(192,0)" x2="0" y2="5" style="stroke: #888; stroke-width: 1; opacity: 1;"></line><line transform="translate(247,0)" x2="0" y2="5" style="stroke: #888; stroke-width: 1; opacity: 1;"></line><line transform="translate(302,0)" x2="0" y2="5" style="stroke: #888; stroke-width: 1; opacity: 1;"></line><line transform="translate(357,0)" x2="0" y2="5" style="stroke: #888; stroke-width: 1; opacity: 1;"></line><line transform="translate(412,0)" x2="0" y2="5" style="stroke: #888; stroke-width: 1; opacity: 1;"></line><line transform="translate(467,0)" x2="0" y2="5" style="stroke: #888; stroke-width: 1; opacity: 1;"></line><line transform="translate(522,0)" x2="0" y2="5" style="stroke: #888; stroke-width: 1; opacity: 1;"></line><line transform="translate(577,0)" x2="0" y2="5" style="stroke: #888; stroke-width: 1; opacity: 1;"></line><line transform="translate(632,0)" x2="0" y2="5" style="stroke: #888; stroke-width: 1; opacity: 1;"></line><line transform="translate(687,0)" x2="0" y2="5" style="stroke: #888; stroke-width: 1; opacity: 1;"></line><line transform="translate(742,0)" x2="0" y2="5" style="stroke: #888; stroke-width: 1; opacity: 1;"></line><line transform="translate(797,0)" x2="0" y2="5" style="stroke: #888; stroke-width: 1; opacity: 1;"></line><line transform="translate(852,0)" x2="0" y2="5" style="stroke: #888; stroke-width: 1; opacity: 1;"></line></g><g class="mark-text role-axis-label" style="pointer-events: none;"><text text-anchor="start" transform="translate(27,7) rotate(90) translate(0,4)" style="font-family: sans-serif; font-size: 14px; fill: #000; opacity: 1;">class-transform…</text><text text-anchor="start" transform="translate(82,7) rotate(90) translate(0,4)" style="font-family: sans-serif; font-size: 14px; fill: #000; opacity: 1;">class-transform…</text><text text-anchor="start" transform="translate(137,7) rotate(90) translate(0,4)" style="font-family: sans-serif; font-size: 14px; fill: #000; opacity: 1;">computed-types</text><text text-anchor="start" transform="translate(192,7) rotate(90) translate(0,4)" style="font-family: sans-serif; font-size: 14px; fill: #000; opacity: 1;">io-ts</text><text text-anchor="start" transform="translate(247,7) rotate(90) translate(0,4)" style="font-family: sans-serif; font-size: 14px; fill: #000; opacity: 1;">jointz</text><text text-anchor="start" transform="translate(302,7) rotate(90) translate(0,4)" style="font-family: sans-serif; font-size: 14px; fill: #000; opacity: 1;">json-decoder</text><text text-anchor="start" transform="translate(357,7) rotate(90) translate(0,4)" style="font-family: sans-serif; font-size: 14px; fill: #000; opacity: 1;">marshal</text><text text-anchor="start" transform="translate(412,7) rotate(90) translate(0,4)" style="font-family: sans-serif; font-size: 14px; fill: #000; opacity: 1;">myzod</text><text text-anchor="start" transform="translate(467,7) rotate(90) translate(0,4)" style="font-family: sans-serif; font-size: 14px; fill: #000; opacity: 1;">purify-ts</text><text text-anchor="start" transform="translate(522,7) rotate(90) translate(0,4)" style="font-family: sans-serif; font-size: 14px; fill: #000; opacity: 1;">quartet</text><text text-anchor="start" transform="translate(577,7) rotate(90) translate(0,4)" style="font-family: sans-serif; font-size: 14px; fill: #000; opacity: 1;">runtypes</text><text text-anchor="start" transform="translate(632,7) rotate(90) translate(0,4)" style="font-family: sans-serif; font-size: 14px; fill: #000; opacity: 1;">toi</text><text text-anchor="start" transform="translate(687,7) rotate(90) translate(0,4)" style="font-family: sans-serif; font-size: 14px; fill: #000; opacity: 1;">ts-json-validat…</text><text text-anchor="start" transform="translate(742,7) rotate(90) translate(0,4)" style="font-family: sans-serif; font-size: 14px; fill: #000; opacity: 1;">ts-utils</text><text text-anchor="start" transform="translate(797,7) rotate(90) translate(0,4)" style="font-family: sans-serif; font-size: 14px; fill: #000; opacity: 1;">yup</text><text text-anchor="start" transform="translate(852,7) rotate(90) translate(0,4)" style="font-family: sans-serif; font-size: 14px; fill: #000; opacity: 1;">zod</text></g><g class="mark-rule role-axis-domain" style="pointer-events: none;"><line transform="translate(0,0)" x2="880" y2="0" style="stroke: #888; stroke-width: 1; opacity: 1;"></line></g><g class="mark-text role-axis-title" style="pointer-events: none;"><text text-anchor="middle" transform="translate(440,201)" style="font-family: sans-serif; font-size: 14px; font-weight: normal; fill: #000; opacity: 1;">module</text></g></g><path class="foreground" aria-hidden="true" d="" style="pointer-events: none; display: none;"></path></g></g><g class="mark-group role-axis" role="graphics-symbol" aria-roledescription="axis" aria-label="Y-axis titled 'operations / sec' for a linear scale with values from 0 to 40,000,000"><g transform="translate(0.5,0.5)"><path class="background" aria-hidden="true" d="M0,0h0v0h0Z" style="pointer-events: none;"></path><g><g class="mark-rule role-axis-tick" style="pointer-events: none;"><line transform="translate(0,600)" x2="-5" y2="0" style="stroke: #888; stroke-width: 1; opacity: 1;"></line><line transform="translate(0,570)" x2="-5" y2="0" style="stroke: #888; stroke-width: 1; opacity: 1;"></line><line transform="translate(0,540)" x2="-5" y2="0" style="stroke: #888; stroke-width: 1; opacity: 1;"></line><line transform="translate(0,510)" x2="-5" y2="0" style="stroke: #888; stroke-width: 1; opacity: 1;"></line><line transform="translate(0,480)" x2="-5" y2="0" style="stroke: #888; stroke-width: 1; opacity: 1;"></line><line transform="translate(0,450)" x2="-5" y2="0" style="stroke: #888; stroke-width: 1; opacity: 1;"></line><line transform="translate(0,420)" x2="-5" y2="0" style="stroke: #888; stroke-width: 1; opacity: 1;"></line><line transform="translate(0,390)" x2="-5" y2="0" style="stroke: #888; stroke-width: 1; opacity: 1;"></line><line transform="translate(0,360)" x2="-5" y2="0" style="stroke: #888; stroke-width: 1; opacity: 1;"></line><line transform="translate(0,330)" x2="-5" y2="0" style="stroke: #888; stroke-width: 1; opacity: 1;"></line><line transform="translate(0,300)" x2="-5" y2="0" style="stroke: #888; stroke-width: 1; opacity: 1;"></line><line transform="translate(0,270)" x2="-5" y2="0" style="stroke: #888; stroke-width: 1; opacity: 1;"></line><line transform="translate(0,240)" x2="-5" y2="0" style="stroke: #888; stroke-width: 1; opacity: 1;"></line><line transform="translate(0,210)" x2="-5" y2="0" style="stroke: #888; stroke-width: 1; opacity: 1;"></line><line transform="translate(0,180)" x2="-5" y2="0" style="stroke: #888; stroke-width: 1; opacity: 1;"></line><line transform="translate(0,150)" x2="-5" y2="0" style="stroke: #888; stroke-width: 1; opacity: 1;"></line><line transform="translate(0,120)" x2="-5" y2="0" style="stroke: #888; stroke-width: 1; opacity: 1;"></line><line transform="translate(0,90)" x2="-5" y2="0" style="stroke: #888; stroke-width: 1; opacity: 1;"></line><line transform="translate(0,60)" x2="-5" y2="0" style="stroke: #888; stroke-width: 1; opacity: 1;"></line><line transform="translate(0,30)" x2="-5" y2="0" style="stroke: #888; stroke-width: 1; opacity: 1;"></line><line transform="translate(0,0)" x2="-5" y2="0" style="stroke: #888; stroke-width: 1; opacity: 1;"></line></g><g class="mark-text role-axis-label" style="pointer-events: none;"><text text-anchor="end" transform="translate(-7,604)" style="font-family: sans-serif; font-size: 12px; fill: #000; opacity: 1;">0</text><text text-anchor="end" transform="translate(-7,574)" style="font-family: sans-serif; font-size: 12px; fill: #000; opacity: 1;">2,000,000</text><text text-anchor="end" transform="translate(-7,544)" style="font-family: sans-serif; font-size: 12px; fill: #000; opacity: 1;">4,000,000</text><text text-anchor="end" transform="translate(-7,514)" style="font-family: sans-serif; font-size: 12px; fill: #000; opacity: 1;">6,000,000</text><text text-anchor="end" transform="translate(-7,484)" style="font-family: sans-serif; font-size: 12px; fill: #000; opacity: 1;">8,000,000</text><text text-anchor="end" transform="translate(-7,454)" style="font-family: sans-serif; font-size: 12px; fill: #000; opacity: 1;">10,000,000</text><text text-anchor="end" transform="translate(-7,424)" style="font-family: sans-serif; font-size: 12px; fill: #000; opacity: 1;">12,000,000</text><text text-anchor="end" transform="translate(-7,394)" style="font-family: sans-serif; font-size: 12px; fill: #000; opacity: 1;">14,000,000</text><text text-anchor="end" transform="translate(-7,364)" style="font-family: sans-serif; font-size: 12px; fill: #000; opacity: 1;">16,000,000</text><text text-anchor="end" transform="translate(-7,334)" style="font-family: sans-serif; font-size: 12px; fill: #000; opacity: 1;">18,000,000</text><text text-anchor="end" transform="translate(-7,304)" style="font-family: sans-serif; font-size: 12px; fill: #000; opacity: 1;">20,000,000</text><text text-anchor="end" transform="translate(-7,274)" style="font-family: sans-serif; font-size: 12px; fill: #000; opacity: 1;">22,000,000</text><text text-anchor="end" transform="translate(-7,244)" style="font-family: sans-serif; font-size: 12px; fill: #000; opacity: 1;">24,000,000</text><text text-anchor="end" transform="translate(-7,214)" style="font-family: sans-serif; font-size: 12px; fill: #000; opacity: 1;">26,000,000</text><text text-anchor="end" transform="translate(-7,184.00000000000003)" style="font-family: sans-serif; font-size: 12px; fill: #000; opacity: 1;">28,000,000</text><text text-anchor="end" transform="translate(-7,154)" style="font-family: sans-serif; font-size: 12px; fill: #000; opacity: 1;">30,000,000</text><text text-anchor="end" transform="translate(-7,123.99999999999997)" style="font-family: sans-serif; font-size: 12px; fill: #000; opacity: 1;">32,000,000</text><text text-anchor="end" transform="translate(-7,94.00000000000001)" style="font-family: sans-serif; font-size: 12px; fill: #000; opacity: 1;">34,000,000</text><text text-anchor="end" transform="translate(-7,63.999999999999986)" style="font-family: sans-serif; font-size: 12px; fill: #000; opacity: 1;">36,000,000</text><text text-anchor="end" transform="translate(-7,34.00000000000003)" style="font-family: sans-serif; font-size: 12px; fill: #000; opacity: 1;">38,000,000</text><text text-anchor="end" transform="translate(-7,4)" style="font-family: sans-serif; font-size: 12px; fill: #000; opacity: 1;">40,000,000</text></g><g class="mark-rule role-axis-domain" style="pointer-events: none;"><line transform="translate(0,600)" x2="0" y2="-600" style="stroke: #888; stroke-width: 1; opacity: 1;"></line></g><g class="mark-text role-axis-title" style="pointer-events: none;"><text text-anchor="middle" transform="translate(-107,300) rotate(-90) translate(0,-3)" style="font-family: sans-serif; font-size: 14px; font-weight: normal; fill: #000; opacity: 1;">operations / sec</text></g></g><path class="foreground" aria-hidden="true" d="" style="pointer-events: none; display: none;"></path></g></g><g class="mark-rect role-mark marks" role="graphics-object" aria-roledescription="rect mark container"><path aria-label="operations / sec: 40103; module: class-transformer-validator-async" role="graphics-symbol" aria-roledescription="bar" d="M2.75,599.398455h49.5v0.6015449999999873h-49.5Z" style="fill: #4c78a8;"></path><path aria-label="operations / sec: 49240; module: class-transformer-validator-sync" role="graphics-symbol" aria-roledescription="bar" d="M57.75,599.2614h49.5v0.7386000000000195h-49.5Z" style="fill: #4c78a8;"></path><path aria-label="operations / sec: 883621; module: computed-types" role="graphics-symbol" aria-roledescription="bar" d="M112.75,586.745685h49.5v13.25431500000002h-49.5Z" style="fill: #4c78a8;"></path><path aria-label="operations / sec: 3310131; module: io-ts" role="graphics-symbol" aria-roledescription="bar" d="M167.75,550.348035h49.5v49.65196500000002h-49.5Z" style="fill: #4c78a8;"></path><path aria-label="operations / sec: 1810465; module: jointz" role="graphics-symbol" aria-roledescription="bar" d="M222.75,572.843025h49.5v27.15697499999999h-49.5Z" style="fill: #4c78a8;"></path><path aria-label="operations / sec: 982125; module: json-decoder" role="graphics-symbol" aria-roledescription="bar" d="M277.75,585.268125h49.5v14.731874999999945h-49.5Z" style="fill: #4c78a8;"></path><path aria-label="operations / sec: 16332439; module: marshal" role="graphics-symbol" aria-roledescription="bar" d="M332.75,355.013415h49.5v244.986585h-49.5Z" style="fill: #4c78a8;"></path><path aria-label="operations / sec: 1635296; module: myzod" role="graphics-symbol" aria-roledescription="bar" d="M387.75,575.47056h49.5v24.529440000000022h-49.5Z" style="fill: #4c78a8;"></path><path aria-label="operations / sec: 1016350; module: purify-ts" role="graphics-symbol" aria-roledescription="bar" d="M442.75,584.7547500000001h49.5v15.245249999999942h-49.5Z" style="fill: #4c78a8;"></path><path aria-label="operations / sec: 35669714; module: quartet" role="graphics-symbol" aria-roledescription="bar" d="M497.75,64.95429000000001h49.5v535.04571h-49.5Z" style="fill: #4c78a8;"></path><path aria-label="operations / sec: 924469; module: runtypes" role="graphics-symbol" aria-roledescription="bar" d="M552.75,586.132965h49.5v13.867034999999987h-49.5Z" style="fill: #4c78a8;"></path><path aria-label="operations / sec: 539766; module: toi" role="graphics-symbol" aria-roledescription="bar" d="M607.75,591.90351h49.5v8.096490000000017h-49.5Z" style="fill: #4c78a8;"></path><path aria-label="operations / sec: 23689808; module: ts-json-validator" role="graphics-symbol" aria-roledescription="bar" d="M662.75,244.65287999999998h49.5v355.34712h-49.5Z" style="fill: #4c78a8;"></path><path aria-label="operations / sec: 166212; module: ts-utils" role="graphics-symbol" aria-roledescription="bar" d="M717.75,597.5068200000001h49.5v2.4931799999999384h-49.5Z" style="fill: #4c78a8;"></path><path aria-label="operations / sec: 16577; module: yup" role="graphics-symbol" aria-roledescription="bar" d="M772.75,599.751345h49.5v0.2486549999999852h-49.5Z" style="fill: #4c78a8;"></path><path aria-label="operations / sec: 67509; module: zod" role="graphics-symbol" aria-roledescription="bar" d="M827.75,598.987365h49.5v1.0126350000000457h-49.5Z" style="fill: #4c78a8;"></path></g></g><path class="foreground" aria-hidden="true" d="" style="display: none;"></path></g></g></g></svg>