<svg class="marks" width="1020" height="820" xmlns="http://www.w3.org/2000/svg">
    <path fill="#fff" d="M0 0h1020v820H0z"/>
    <g class="mark-group role-frame root" aria-roledescription="group mark container">
        <path class="background" aria-hidden="true" d="M135.5 11.5h880v600h-880z" fill="none" stroke="#ddd"/>
        <g class="mark-group role-axis" aria-roledescription="axis" aria-label="Y-axis for a linear scale with values from 0 to 100,000,000">
            <path class="background" aria-hidden="true" d="M135.5 11.5z" pointer-events="none" fill="none"/>
            <g class="mark-rule role-axis-grid" pointer-events="none" fill="none" stroke="#ddd">
                <path d="M135.5 611.5h880M135.5 581.5h880M135.5 551.5h880M135.5 521.5h880M135.5 491.5h880M135.5 461.5h880M135.5 431.5h880M135.5 401.5h880M135.5 371.5h880M135.5 341.5h880M135.5 311.5h880M135.5 281.5h880M135.5 251.5h880M135.5 221.5h880M135.5 191.5h880M135.5 161.5h880M135.5 131.5h880M135.5 101.5h880M135.5 71.5h880M135.5 41.5h880M135.5 11.5h880"/>
            </g>
        </g>
        <g class="mark-group role-axis" aria-roledescription="axis" aria-label="X-axis titled 'module' for a discrete scale with 16 values: class-transformer-validator-async, class-transformer-validator-sync, funval, io-ts, jointz, ending with zod">
            <path class="background" aria-hidden="true" d="M135.5 611.5z" pointer-events="none" fill="none"/>
            <g class="mark-rule role-axis-tick" pointer-events="none" fill="none" stroke="#888">
                <path d="M162.5 611.5v5M217.5 611.5v5M272.5 611.5v5M327.5 611.5v5M382.5 611.5v5M437.5 611.5v5M492.5 611.5v5M547.5 611.5v5M602.5 611.5v5M657.5 611.5v5M712.5 611.5v5M767.5 611.5v5M822.5 611.5v5M877.5 611.5v5M932.5 611.5v5M987.5 611.5v5"/>
            </g>
            <g class="mark-text role-axis-label" pointer-events="none" font-family="sans-serif" font-size="14">
                <text transform="rotate(90 -230 388.5)">
                    class-transform…
                </text>
                <text transform="rotate(90 -202.5 416)">
                    class-transform…
                </text>
                <text transform="rotate(90 -175 443.5)">
                    funval
                </text>
                <text transform="rotate(90 -147.5 471)">
                    io-ts
                </text>
                <text transform="rotate(90 -120 498.5)">
                    jointz
                </text>
                <text transform="rotate(90 -92.5 526)">
                    json-decoder
                </text>
                <text transform="rotate(90 -65 553.5)">
                    marshal
                </text>
                <text transform="rotate(90 -37.5 581)">
                    myzod
                </text>
                <text transform="rotate(90 -10 608.5)">
                    purify-ts
                </text>
                <text transform="rotate(90 17.5 636)">
                    quartet
                </text>
                <text transform="rotate(90 45 663.5)">
                    runtypes
                </text>
                <text transform="rotate(90 72.5 691)">
                    toi
                </text>
                <text transform="rotate(90 100 718.5)">
                    ts-json-validat…
                </text>
                <text transform="rotate(90 127.5 746)">
                    ts-utils
                </text>
                <text transform="rotate(90 155 773.5)">
                    yup
                </text>
                <text transform="rotate(90 182.5 801)">
                    zod
                </text>
            </g>
            <path fill="none" stroke="#888" d="M135.5 611.5h880" pointer-events="none"/>
            <text text-anchor="middle" transform="translate(575.5 812.5)" font-family="sans-serif" font-size="14" font-weight="400" pointer-events="none">
                module
            </text>
        </g>
        <g class="mark-group role-axis" aria-roledescription="axis" aria-label="Y-axis titled 'operations / sec' for a linear scale with values from 0 to 100,000,000">
            <path class="background" aria-hidden="true" d="M135.5 11.5z" pointer-events="none" fill="none"/>
            <g class="mark-rule role-axis-tick" pointer-events="none" fill="none" stroke="#888">
                <path d="M135.5 611.5h-5M135.5 581.5h-5M135.5 551.5h-5M135.5 521.5h-5M135.5 491.5h-5M135.5 461.5h-5M135.5 431.5h-5M135.5 401.5h-5M135.5 371.5h-5M135.5 341.5h-5M135.5 311.5h-5M135.5 281.5h-5M135.5 251.5h-5M135.5 221.5h-5M135.5 191.5h-5M135.5 161.5h-5M135.5 131.5h-5M135.5 101.5h-5M135.5 71.5h-5M135.5 41.5h-5M135.5 11.5h-5"/>
            </g>
            <g class="mark-text role-axis-label" pointer-events="none" text-anchor="end" font-family="sans-serif" font-size="12">
                <text transform="translate(128.5 615.5)">
                    0
                </text>
                <text transform="translate(128.5 585.5)">
                    5,000,000
                </text>
                <text transform="translate(128.5 555.5)">
                    10,000,000
                </text>
                <text transform="translate(128.5 525.5)">
                    15,000,000
                </text>
                <text transform="translate(128.5 495.5)">
                    20,000,000
                </text>
                <text transform="translate(128.5 465.5)">
                    25,000,000
                </text>
                <text transform="translate(128.5 435.5)">
                    30,000,000
                </text>
                <text transform="translate(128.5 405.5)">
                    35,000,000
                </text>
                <text transform="translate(128.5 375.5)">
                    40,000,000
                </text>
                <text transform="translate(128.5 345.5)">
                    45,000,000
                </text>
                <text transform="translate(128.5 315.5)">
                    50,000,000
                </text>
                <text transform="translate(128.5 285.5)">
                    55,000,000
                </text>
                <text transform="translate(128.5 255.5)">
                    60,000,000
                </text>
                <text transform="translate(128.5 225.5)">
                    65,000,000
                </text>
                <text transform="translate(128.5 195.5)">
                    70,000,000
                </text>
                <text transform="translate(128.5 165.5)">
                    75,000,000
                </text>
                <text transform="translate(128.5 135.5)">
                    80,000,000
                </text>
                <text transform="translate(128.5 105.5)">
                    85,000,000
                </text>
                <text transform="translate(128.5 75.5)">
                    90,000,000
                </text>
                <text transform="translate(128.5 45.5)">
                    95,000,000
                </text>
                <text transform="translate(128.5 15.5)">
                    100,000,000
                </text>
            </g>
            <path fill="none" stroke="#888" d="M135.5 611.5v-600" pointer-events="none"/>
            <text text-anchor="middle" transform="rotate(-90 164 147.5)" font-family="sans-serif" font-size="14" font-weight="400" pointer-events="none">
                operations / sec
            </text>
        </g>
        <g class="mark-rect role-mark marks" aria-roledescription="rect mark container" fill="#4c78a8">
            <path d="M137.75 610.885h49.5V611h-49.5zM192.75 610.832h49.5V611h-49.5zM247.75 606.41h49.5V611h-49.5zM302.75 597.602h49.5V611h-49.5zM357.75 605.07h49.5V611h-49.5zM412.75 606.326h49.5V611h-49.5zM467.75 584.001h49.5V611h-49.5zM522.75 602.45h49.5V611h-49.5zM577.75 605.963h49.5V611h-49.5zM632.75 51.754h49.5V611h-49.5zM687.75 606.379h49.5V611h-49.5zM742.75 608.332h49.5V611h-49.5zM797.75 416.84h49.5V611h-49.5zM852.75 610.16h49.5v.84h-49.5zM907.75 610.914h49.5V611h-49.5zM962.75 610.648h49.5V611h-49.5z"/>
        </g>
    </g>
</svg>
