<svg class="marks" width="1001" height="820" xmlns="http://www.w3.org/2000/svg">
    <path fill="#fff" d="M0 0h1001v820H0z"/>
    <g class="mark-group role-frame root">
        <path class="background" d="M116.5 11.5h880v600h-880z" fill="none" stroke="#ddd"/>
        <g class="mark-group role-axis">
            <path class="background" d="M116.5 11.5z" pointer-events="none" fill="none"/>
            <g class="mark-rule role-axis-grid" pointer-events="none" fill="none" stroke="#ddd">
                <path d="M116.5 611.5h880M116.5 581.5h880M116.5 551.5h880M116.5 521.5h880M116.5 491.5h880M116.5 461.5h880M116.5 431.5h880M116.5 401.5h880M116.5 371.5h880M116.5 341.5h880M116.5 311.5h880M116.5 281.5h880M116.5 251.5h880M116.5 221.5h880M116.5 191.5h880M116.5 161.5h880M116.5 131.5h880M116.5 101.5h880M116.5 71.5h880M116.5 41.5h880M116.5 11.5h880"/>
            </g>
        </g>
        <g class="mark-group role-axis">
            <path class="background" d="M116.5 611.5z" pointer-events="none" fill="none"/>
            <g class="mark-rule role-axis-tick" pointer-events="none" fill="none" stroke="#888">
                <path d="M149.5 611.5v5M217.5 611.5v5M285.5 611.5v5M352.5 611.5v5M420.5 611.5v5M488.5 611.5v5M556.5 611.5v5M623.5 611.5v5M691.5 611.5v5M759.5 611.5v5M826.5 611.5v5M894.5 611.5v5M962.5 611.5v5"/>
            </g>
            <g class="mark-text role-axis-label" pointer-events="none" font-family="sans-serif" font-size="14">
                <text transform="rotate(90 -236.327 382.173)">
                    class-transform…
                </text>
                <text transform="rotate(90 -202.48 416.02)">
                    class-transform…
                </text>
                <text transform="rotate(90 -168.635 449.865)">
                    funval
                </text>
                <text transform="rotate(90 -134.788 483.712)">
                    io-ts
                </text>
                <text transform="rotate(90 -100.942 517.558)">
                    json-decoder
                </text>
                <text transform="rotate(90 -67.096 551.404)">
                    marshal
                </text>
                <text transform="rotate(90 -33.25 585.25)">
                    myzod
                </text>
                <text transform="rotate(90 .596 619.096)">
                    purify-ts
                </text>
                <text transform="rotate(90 34.442 652.942)">
                    runtypes
                </text>
                <text transform="rotate(90 68.288 686.788)">
                    toi
                </text>
                <text transform="rotate(90 102.135 720.635)">
                    ts-utils
                </text>
                <text transform="rotate(90 135.98 754.48)">
                    yup
                </text>
                <text transform="rotate(90 169.827 788.327)">
                    zod
                </text>
            </g>
            <path fill="none" stroke="#888" d="M116.5 611.5h880" pointer-events="none"/>
            <text text-anchor="middle" transform="translate(556.5 812.5)" font-family="sans-serif" font-size="14" font-weight="400" pointer-events="none">
                module
            </text>
        </g>
        <g class="mark-group role-axis">
            <path class="background" d="M116.5 11.5z" pointer-events="none" fill="none"/>
            <g class="mark-rule role-axis-tick" pointer-events="none" fill="none" stroke="#888">
                <path d="M116.5 611.5h-5M116.5 581.5h-5M116.5 551.5h-5M116.5 521.5h-5M116.5 491.5h-5M116.5 461.5h-5M116.5 431.5h-5M116.5 401.5h-5M116.5 371.5h-5M116.5 341.5h-5M116.5 311.5h-5M116.5 281.5h-5M116.5 251.5h-5M116.5 221.5h-5M116.5 191.5h-5M116.5 161.5h-5M116.5 131.5h-5M116.5 101.5h-5M116.5 71.5h-5M116.5 41.5h-5M116.5 11.5h-5"/>
            </g>
            <g class="mark-text role-axis-label" pointer-events="none" text-anchor="end" font-family="sans-serif" font-size="12">
                <text transform="translate(109.5 615.5)">
                    0
                </text>
                <text transform="translate(109.5 585.5)">
                    200,000
                </text>
                <text transform="translate(109.5 555.5)">
                    400,000
                </text>
                <text transform="translate(109.5 525.5)">
                    600,000
                </text>
                <text transform="translate(109.5 495.5)">
                    800,000
                </text>
                <text transform="translate(109.5 465.5)">
                    1,000,000
                </text>
                <text transform="translate(109.5 435.5)">
                    1,200,000
                </text>
                <text transform="translate(109.5 405.5)">
                    1,400,000
                </text>
                <text transform="translate(109.5 375.5)">
                    1,600,000
                </text>
                <text transform="translate(109.5 345.5)">
                    1,800,000
                </text>
                <text transform="translate(109.5 315.5)">
                    2,000,000
                </text>
                <text transform="translate(109.5 285.5)">
                    2,200,000
                </text>
                <text transform="translate(109.5 255.5)">
                    2,400,000
                </text>
                <text transform="translate(109.5 225.5)">
                    2,600,000
                </text>
                <text transform="translate(109.5 195.5)">
                    2,800,000
                </text>
                <text transform="translate(109.5 165.5)">
                    3,000,000
                </text>
                <text transform="translate(109.5 135.5)">
                    3,200,000
                </text>
                <text transform="translate(109.5 105.5)">
                    3,400,000
                </text>
                <text transform="translate(109.5 75.5)">
                    3,600,000
                </text>
                <text transform="translate(109.5 45.5)">
                    3,800,000
                </text>
                <text transform="translate(109.5 15.5)">
                    4,000,000
                </text>
            </g>
            <path fill="none" stroke="#888" d="M116.5 611.5v-600" pointer-events="none"/>
            <text text-anchor="middle" transform="rotate(-90 164 147.5)" font-family="sans-serif" font-size="14" font-weight="400" pointer-events="none">
                operations / sec
            </text>
        </g>
        <g class="mark-rect role-mark marks" fill="#4c78a8">
            <path d="M119.385 606.604h60.923V611h-60.923zM187.077 606.042H248V611h-60.923zM254.77 487.82h60.922V611H254.77zM322.462 212.248h60.923V611h-60.923zM390.154 498.392h60.923V611h-60.923zM457.846 36.864h60.923V611h-60.923zM525.538 415.008h60.924V611h-60.924zM593.23 494.092h60.924V611H593.23zM660.923 498.999h60.923V611h-60.923zM728.615 543.795h60.923V611h-60.923zM796.308 591.098h60.923V611h-60.923zM864 608.663h60.923V611H864zM931.692 602.607h60.923V611h-60.923z"/>
        </g>
    </g>
</svg>
