<svg xmlns="http://www.w3.org/2000/svg" class="marks" width="1001" height="814">
    <path fill="#fff" d="M0 0h1001v814H0z"/>
    <g class="mark-group role-frame root" aria-roledescription="group mark container" fill="none" stroke-miterlimit="10">
        <path class="background" aria-hidden="true" d="M116.5 5.5h880v600h-880z" stroke="#ddd"/>
        <g class="mark-group role-axis" aria-hidden="true">
            <path class="background" aria-hidden="true" d="M116.5 5.5z" pointer-events="none"/>
            <g class="mark-rule role-axis-grid" pointer-events="none" stroke="#ddd">
                <path d="M116.5 605.5h880M116.5 571.5h880M116.5 536.5h880M116.5 502.5h880M116.5 468.5h880M116.5 434.5h880M116.5 399.5h880M116.5 365.5h880M116.5 331.5h880M116.5 296.5h880M116.5 262.5h880M116.5 228.5h880M116.5 194.5h880M116.5 159.5h880M116.5 125.5h880M116.5 91.5h880M116.5 56.5h880M116.5 22.5h880"/>
            </g>
        </g>
        <g class="mark-group role-axis" aria-roledescription="axis" aria-label="X-axis titled 'module' for a discrete scale with 18 values: bueno, class-transformer-validator-async, class-transformer-validator-sync, computed-types, decoders, ending with zod">
            <path class="background" aria-hidden="true" d="M116.5 605.5z" pointer-events="none"/>
            <g class="mark-rule role-axis-tick" pointer-events="none" stroke="#888">
                <path d="M140.5 605.5v5M189.5 605.5v5M238.5 605.5v5M287.5 605.5v5M336.5 605.5v5M384.5 605.5v5M433.5 605.5v5M482.5 605.5v5M531.5 605.5v5M580.5 605.5v5M629.5 605.5v5M678.5 605.5v5M727.5 605.5v5M776.5 605.5v5M824.5 605.5v5M873.5 605.5v5M922.5 605.5v5M971.5 605.5v5"/>
            </g>
            <g class="mark-text role-axis-label" pointer-events="none" font-family="sans-serif" font-size="14" fill="#000">
                <text transform="rotate(90 -238.028 374.472)">
                    bueno
                </text>
                <text transform="rotate(90 -213.583 398.917)">
                    class-transform…
                </text>
                <text transform="rotate(90 -189.139 423.361)">
                    class-transform…
                </text>
                <text transform="rotate(90 -164.694 447.806)">
                    computed-types
                </text>
                <text transform="rotate(90 -140.25 472.25)">
                    decoders
                </text>
                <text transform="rotate(90 -115.806 496.694)">
                    io-ts
                </text>
                <text transform="rotate(90 -91.361 521.139)">
                    jointz
                </text>
                <text transform="rotate(90 -66.917 545.583)">
                    json-decoder
                </text>
                <text transform="rotate(90 -42.472 570.028)">
                    myzod
                </text>
                <text transform="rotate(90 -18.028 594.472)">
                    purify-ts
                </text>
                <text transform="rotate(90 6.417 618.917)">
                    rulr
                </text>
                <text transform="rotate(90 30.861 643.361)">
                    runtypes
                </text>
                <text transform="rotate(90 55.306 667.806)">
                    simple-runtypes
                </text>
                <text transform="rotate(90 79.75 692.25)">
                    superstruct
                </text>
                <text transform="rotate(90 104.194 716.694)">
                    toi
                </text>
                <text transform="rotate(90 128.639 741.139)">
                    ts-utils
                </text>
                <text transform="rotate(90 153.083 765.583)">
                    yup
                </text>
                <text transform="rotate(90 177.528 790.028)">
                    zod
                </text>
            </g>
            <path stroke="#888" d="M116.5 605.5h880" pointer-events="none"/>
            <text text-anchor="middle" transform="translate(556.5 806.5)" font-family="sans-serif" font-size="14" fill="#000" pointer-events="none">
                module
            </text>
        </g>
        <g class="mark-group role-axis" aria-roledescription="axis" aria-label="Y-axis titled 'operations / sec' for a linear scale with values from 0 to 3,500,000">
            <path class="background" aria-hidden="true" d="M116.5 5.5z" pointer-events="none"/>
            <g class="mark-rule role-axis-tick" pointer-events="none" stroke="#888">
                <path d="M116.5 605.5h-5M116.5 571.5h-5M116.5 536.5h-5M116.5 502.5h-5M116.5 468.5h-5M116.5 434.5h-5M116.5 399.5h-5M116.5 365.5h-5M116.5 331.5h-5M116.5 296.5h-5M116.5 262.5h-5M116.5 228.5h-5M116.5 194.5h-5M116.5 159.5h-5M116.5 125.5h-5M116.5 91.5h-5M116.5 56.5h-5M116.5 22.5h-5"/>
            </g>
            <g class="mark-text role-axis-label" pointer-events="none" text-anchor="end" font-family="sans-serif" font-size="12" fill="#000">
                <text transform="translate(109.5 609.5)">
                    0
                </text>
                <text transform="translate(109.5 575.214)">
                    200,000
                </text>
                <text transform="translate(109.5 540.929)">
                    400,000
                </text>
                <text transform="translate(109.5 506.643)">
                    600,000
                </text>
                <text transform="translate(109.5 472.357)">
                    800,000
                </text>
                <text transform="translate(109.5 438.071)">
                    1,000,000
                </text>
                <text transform="translate(109.5 403.786)">
                    1,200,000
                </text>
                <text transform="translate(109.5 369.5)">
                    1,400,000
                </text>
                <text transform="translate(109.5 335.214)">
                    1,600,000
                </text>
                <text transform="translate(109.5 300.929)">
                    1,800,000
                </text>
                <text transform="translate(109.5 266.643)">
                    2,000,000
                </text>
                <text transform="translate(109.5 232.357)">
                    2,200,000
                </text>
                <text transform="translate(109.5 198.071)">
                    2,400,000
                </text>
                <text transform="translate(109.5 163.786)">
                    2,600,000
                </text>
                <text transform="translate(109.5 129.5)">
                    2,800,000
                </text>
                <text transform="translate(109.5 95.214)">
                    3,000,000
                </text>
                <text transform="translate(109.5 60.929)">
                    3,200,000
                </text>
                <text transform="translate(109.5 26.643)">
                    3,400,000
                </text>
            </g>
            <path stroke="#888" d="M116.5 605.5V5.5" pointer-events="none"/>
            <text text-anchor="middle" transform="rotate(-90 161 144.5)" font-family="sans-serif" font-size="14" fill="#000" pointer-events="none">
                operations / sec
            </text>
        </g>
        <g class="mark-rect role-mark marks" aria-roledescription="rect mark container" fill="#4c78a8">
            <path aria-label="operations / sec: 172508; module: bueno" aria-roledescription="bar" d="M118.444 575.427h44V605h-44z"/>
            <path aria-label="operations / sec: 40716; module: class-transformer-validator-async" aria-roledescription="bar" d="M167.333 598.02h44V605h-44z"/>
            <path aria-label="operations / sec: 50716; module: class-transformer-validator-sync" aria-roledescription="bar" d="M216.222 596.306h44V605h-44z"/>
            <path aria-label="operations / sec: 839553; module: computed-types" aria-roledescription="bar" d="M265.111 461.077h44V605h-44z"/>
            <path aria-label="operations / sec: 248508; module: decoders" aria-roledescription="bar" d="M314 562.399h44V605h-44z"/>
            <path aria-label="operations / sec: 3016452; module: io-ts" aria-roledescription="bar" d="M362.889 87.894h44V605h-44z"/>
            <path aria-label="operations / sec: 1634960; module: jointz" aria-roledescription="bar" d="M411.778 324.721h44V605h-44z"/>
            <path aria-label="operations / sec: 849772; module: json-decoder" aria-roledescription="bar" d="M460.667 459.325h44V605h-44z"/>
            <path aria-label="operations / sec: 1224524; module: myzod" aria-roledescription="bar" d="M509.556 395.082h44V605h-44z"/>
            <path aria-label="operations / sec: 799873; module: purify-ts" aria-roledescription="bar" d="M558.444 467.879h44V605h-44z"/>
            <path aria-label="operations / sec: 764265; module: rulr" aria-roledescription="bar" d="M607.333 473.983h44V605h-44z"/>
            <path aria-label="operations / sec: 794304; module: runtypes" aria-roledescription="bar" d="M656.222 468.834h44V605h-44z"/>
            <path aria-label="operations / sec: 1608023; module: simple-runtypes" aria-roledescription="bar" d="M705.111 329.339h44V605h-44z"/>
            <path aria-label="operations / sec: 71624; module: superstruct" aria-roledescription="bar" d="M754 592.722h44V605h-44z"/>
            <path aria-label="operations / sec: 447733; module: toi" aria-roledescription="bar" d="M802.889 528.246h44V605h-44z"/>
            <path aria-label="operations / sec: 141546; module: ts-utils" aria-roledescription="bar" d="M851.778 580.735h44V605h-44z"/>
            <path aria-label="operations / sec: 16737; module: yup" aria-roledescription="bar" d="M900.667 602.13h44V605h-44z"/>
            <path aria-label="operations / sec: 8328; module: zod" aria-roledescription="bar" d="M949.556 603.572h44V605h-44z"/>
        </g>
    </g>
</svg>
