<svg class="marks" width="1011" height="814" viewBox="0 0 1011 814" version="1.1" xmlns="http://www.w3.org/2000/svg" xmlns:xlink="http://www.w3.org/1999/xlink"><rect width="1011" height="814" fill="white"></rect><g fill="none" stroke-miterlimit="10" transform="translate(126,5)"><g class="mark-group role-frame root" role="graphics-object" aria-roledescription="group mark container"><g transform="translate(0,0)"><path class="background" aria-hidden="true" d="M0.5,0.5h880v600h-880Z" stroke="#ddd"></path><g><g class="mark-group role-axis" aria-hidden="true"><g transform="translate(0.5,0.5)"><path class="background" aria-hidden="true" d="M0,0h0v0h0Z" pointer-events="none"></path><g><g class="mark-rule role-axis-grid" pointer-events="none"><line transform="translate(0,600)" x2="880" y2="0" stroke="#ddd" stroke-width="1" opacity="1"></line><line transform="translate(0,566)" x2="880" y2="0" stroke="#ddd" stroke-width="1" opacity="1"></line><line transform="translate(0,531)" x2="880" y2="0" stroke="#ddd" stroke-width="1" opacity="1"></line><line transform="translate(0,497)" x2="880" y2="0" stroke="#ddd" stroke-width="1" opacity="1"></line><line transform="translate(0,463)" x2="880" y2="0" stroke="#ddd" stroke-width="1" opacity="1"></line><line transform="translate(0,429)" x2="880" y2="0" stroke="#ddd" stroke-width="1" opacity="1"></line><line transform="translate(0,394)" x2="880" y2="0" stroke="#ddd" stroke-width="1" opacity="1"></line><line transform="translate(0,360)" x2="880" y2="0" stroke="#ddd" stroke-width="1" opacity="1"></line><line transform="translate(0,326)" x2="880" y2="0" stroke="#ddd" stroke-width="1" opacity="1"></line><line transform="translate(0,291)" x2="880" y2="0" stroke="#ddd" stroke-width="1" opacity="1"></line><line transform="translate(0,257)" x2="880" y2="0" stroke="#ddd" stroke-width="1" opacity="1"></line><line transform="translate(0,223)" x2="880" y2="0" stroke="#ddd" stroke-width="1" opacity="1"></line><line transform="translate(0,189)" x2="880" y2="0" stroke="#ddd" stroke-width="1" opacity="1"></line><line transform="translate(0,154)" x2="880" y2="0" stroke="#ddd" stroke-width="1" opacity="1"></line><line transform="translate(0,120)" x2="880" y2="0" stroke="#ddd" stroke-width="1" opacity="1"></line><line transform="translate(0,86)" x2="880" y2="0" stroke="#ddd" stroke-width="1" opacity="1"></line><line transform="translate(0,51)" x2="880" y2="0" stroke="#ddd" stroke-width="1" opacity="1"></line><line transform="translate(0,17)" x2="880" y2="0" stroke="#ddd" stroke-width="1" opacity="1"></line></g></g><path class="foreground" aria-hidden="true" d="" pointer-events="none" display="none"></path></g></g><g class="mark-group role-axis" role="graphics-symbol" aria-roledescription="axis" aria-label="X-axis titled 'module' for a discrete scale with 16 values: class-transformer-validator-async, class-transformer-validator-sync, computed-types, io-ts, jointz, ending with zod"><g transform="translate(0.5,600.5)"><path class="background" aria-hidden="true" d="M0,0h0v0h0Z" pointer-events="none"></path><g><g class="mark-rule role-axis-tick" pointer-events="none"><line transform="translate(27,0)" x2="0" y2="5" stroke="#888" stroke-width="1" opacity="1"></line><line transform="translate(82,0)" x2="0" y2="5" stroke="#888" stroke-width="1" opacity="1"></line><line transform="translate(137,0)" x2="0" y2="5" stroke="#888" stroke-width="1" opacity="1"></line><line transform="translate(192,0)" x2="0" y2="5" stroke="#888" stroke-width="1" opacity="1"></line><line transform="translate(247,0)" x2="0" y2="5" stroke="#888" stroke-width="1" opacity="1"></line><line transform="translate(302,0)" x2="0" y2="5" stroke="#888" stroke-width="1" opacity="1"></line><line transform="translate(357,0)" x2="0" y2="5" stroke="#888" stroke-width="1" opacity="1"></line><line transform="translate(412,0)" x2="0" y2="5" stroke="#888" stroke-width="1" opacity="1"></line><line transform="translate(467,0)" x2="0" y2="5" stroke="#888" stroke-width="1" opacity="1"></line><line transform="translate(522,0)" x2="0" y2="5" stroke="#888" stroke-width="1" opacity="1"></line><line transform="translate(577,0)" x2="0" y2="5" stroke="#888" stroke-width="1" opacity="1"></line><line transform="translate(632,0)" x2="0" y2="5" stroke="#888" stroke-width="1" opacity="1"></line><line transform="translate(687,0)" x2="0" y2="5" stroke="#888" stroke-width="1" opacity="1"></line><line transform="translate(742,0)" x2="0" y2="5" stroke="#888" stroke-width="1" opacity="1"></line><line transform="translate(797,0)" x2="0" y2="5" stroke="#888" stroke-width="1" opacity="1"></line><line transform="translate(852,0)" x2="0" y2="5" stroke="#888" stroke-width="1" opacity="1"></line></g><g class="mark-text role-axis-label" pointer-events="none"><text text-anchor="start" transform="translate(27,7) rotate(90) translate(0,4)" font-family="sans-serif" font-size="14px" fill="#000" opacity="1">class-transform…</text><text text-anchor="start" transform="translate(82,7) rotate(90) translate(0,4)" font-family="sans-serif" font-size="14px" fill="#000" opacity="1">class-transform…</text><text text-anchor="start" transform="translate(137,7) rotate(90) translate(0,4)" font-family="sans-serif" font-size="14px" fill="#000" opacity="1">computed-types</text><text text-anchor="start" transform="translate(192,7) rotate(90) translate(0,4)" font-family="sans-serif" font-size="14px" fill="#000" opacity="1">io-ts</text><text text-anchor="start" transform="translate(247,7) rotate(90) translate(0,4)" font-family="sans-serif" font-size="14px" fill="#000" opacity="1">jointz</text><text text-anchor="start" transform="translate(302,7) rotate(90) translate(0,4)" font-family="sans-serif" font-size="14px" fill="#000" opacity="1">json-decoder</text><text text-anchor="start" transform="translate(357,7) rotate(90) translate(0,4)" font-family="sans-serif" font-size="14px" fill="#000" opacity="1">marshal</text><text text-anchor="start" transform="translate(412,7) rotate(90) translate(0,4)" font-family="sans-serif" font-size="14px" fill="#000" opacity="1">myzod</text><text text-anchor="start" transform="translate(467,7) rotate(90) translate(0,4)" font-family="sans-serif" font-size="14px" fill="#000" opacity="1">purify-ts</text><text text-anchor="start" transform="translate(522,7) rotate(90) translate(0,4)" font-family="sans-serif" font-size="14px" fill="#000" opacity="1">quartet</text><text text-anchor="start" transform="translate(577,7) rotate(90) translate(0,4)" font-family="sans-serif" font-size="14px" fill="#000" opacity="1">runtypes</text><text text-anchor="start" transform="translate(632,7) rotate(90) translate(0,4)" font-family="sans-serif" font-size="14px" fill="#000" opacity="1">toi</text><text text-anchor="start" transform="translate(687,7) rotate(90) translate(0,4)" font-family="sans-serif" font-size="14px" fill="#000" opacity="1">ts-json-validat…</text><text text-anchor="start" transform="translate(742,7) rotate(90) translate(0,4)" font-family="sans-serif" font-size="14px" fill="#000" opacity="1">ts-utils</text><text text-anchor="start" transform="translate(797,7) rotate(90) translate(0,4)" font-family="sans-serif" font-size="14px" fill="#000" opacity="1">yup</text><text text-anchor="start" transform="translate(852,7) rotate(90) translate(0,4)" font-family="sans-serif" font-size="14px" fill="#000" opacity="1">zod</text></g><g class="mark-rule role-axis-domain" pointer-events="none"><line transform="translate(0,0)" x2="880" y2="0" stroke="#888" stroke-width="1" opacity="1"></line></g><g class="mark-text role-axis-title" pointer-events="none"><text text-anchor="middle" transform="translate(440,201)" font-family="sans-serif" font-size="14px" font-weight="normal" fill="#000" opacity="1">module</text></g></g><path class="foreground" aria-hidden="true" d="" pointer-events="none" display="none"></path></g></g><g class="mark-group role-axis" role="graphics-symbol" aria-roledescription="axis" aria-label="Y-axis titled 'operations / sec' for a linear scale with values from 0 to 35,000,000"><g transform="translate(0.5,0.5)"><path class="background" aria-hidden="true" d="M0,0h0v0h0Z" pointer-events="none"></path><g><g class="mark-rule role-axis-tick" pointer-events="none"><line transform="translate(0,600)" x2="-5" y2="0" stroke="#888" stroke-width="1" opacity="1"></line><line transform="translate(0,566)" x2="-5" y2="0" stroke="#888" stroke-width="1" opacity="1"></line><line transform="translate(0,531)" x2="-5" y2="0" stroke="#888" stroke-width="1" opacity="1"></line><line transform="translate(0,497)" x2="-5" y2="0" stroke="#888" stroke-width="1" opacity="1"></line><line transform="translate(0,463)" x2="-5" y2="0" stroke="#888" stroke-width="1" opacity="1"></line><line transform="translate(0,429)" x2="-5" y2="0" stroke="#888" stroke-width="1" opacity="1"></line><line transform="translate(0,394)" x2="-5" y2="0" stroke="#888" stroke-width="1" opacity="1"></line><line transform="translate(0,360)" x2="-5" y2="0" stroke="#888" stroke-width="1" opacity="1"></line><line transform="translate(0,326)" x2="-5" y2="0" stroke="#888" stroke-width="1" opacity="1"></line><line transform="translate(0,291)" x2="-5" y2="0" stroke="#888" stroke-width="1" opacity="1"></line><line transform="translate(0,257)" x2="-5" y2="0" stroke="#888" stroke-width="1" opacity="1"></line><line transform="translate(0,223)" x2="-5" y2="0" stroke="#888" stroke-width="1" opacity="1"></line><line transform="translate(0,189)" x2="-5" y2="0" stroke="#888" stroke-width="1" opacity="1"></line><line transform="translate(0,154)" x2="-5" y2="0" stroke="#888" stroke-width="1" opacity="1"></line><line transform="translate(0,120)" x2="-5" y2="0" stroke="#888" stroke-width="1" opacity="1"></line><line transform="translate(0,86)" x2="-5" y2="0" stroke="#888" stroke-width="1" opacity="1"></line><line transform="translate(0,51)" x2="-5" y2="0" stroke="#888" stroke-width="1" opacity="1"></line><line transform="translate(0,17)" x2="-5" y2="0" stroke="#888" stroke-width="1" opacity="1"></line></g><g class="mark-text role-axis-label" pointer-events="none"><text text-anchor="end" transform="translate(-7,604)" font-family="sans-serif" font-size="12px" fill="#000" opacity="1">0</text><text text-anchor="end" transform="translate(-7,569.7142857142857)" font-family="sans-serif" font-size="12px" fill="#000" opacity="1">2,000,000</text><text text-anchor="end" transform="translate(-7,535.4285714285714)" font-family="sans-serif" font-size="12px" fill="#000" opacity="1">4,000,000</text><text text-anchor="end" transform="translate(-7,501.1428571428571)" font-family="sans-serif" font-size="12px" fill="#000" opacity="1">6,000,000</text><text text-anchor="end" transform="translate(-7,466.8571428571429)" font-family="sans-serif" font-size="12px" fill="#000" opacity="1">8,000,000</text><text text-anchor="end" transform="translate(-7,432.57142857142856)" font-family="sans-serif" font-size="12px" fill="#000" opacity="1">10,000,000</text><text text-anchor="end" transform="translate(-7,398.2857142857143)" font-family="sans-serif" font-size="12px" fill="#000" opacity="1">12,000,000</text><text text-anchor="end" transform="translate(-7,364)" font-family="sans-serif" font-size="12px" fill="#000" opacity="1">14,000,000</text><text text-anchor="end" transform="translate(-7,329.7142857142858)" font-family="sans-serif" font-size="12px" fill="#000" opacity="1">16,000,000</text><text text-anchor="end" transform="translate(-7,295.42857142857144)" font-family="sans-serif" font-size="12px" fill="#000" opacity="1">18,000,000</text><text text-anchor="end" transform="translate(-7,261.14285714285717)" font-family="sans-serif" font-size="12px" fill="#000" opacity="1">20,000,000</text><text text-anchor="end" transform="translate(-7,226.85714285714286)" font-family="sans-serif" font-size="12px" fill="#000" opacity="1">22,000,000</text><text text-anchor="end" transform="translate(-7,192.57142857142856)" font-family="sans-serif" font-size="12px" fill="#000" opacity="1">24,000,000</text><text text-anchor="end" transform="translate(-7,158.28571428571428)" font-family="sans-serif" font-size="12px" fill="#000" opacity="1">26,000,000</text><text text-anchor="end" transform="translate(-7,123.99999999999997)" font-family="sans-serif" font-size="12px" fill="#000" opacity="1">28,000,000</text><text text-anchor="end" transform="translate(-7,89.71428571428574)" font-family="sans-serif" font-size="12px" fill="#000" opacity="1">30,000,000</text><text text-anchor="end" transform="translate(-7,55.428571428571445)" font-family="sans-serif" font-size="12px" fill="#000" opacity="1">32,000,000</text><text text-anchor="end" transform="translate(-7,21.14285714285715)" font-family="sans-serif" font-size="12px" fill="#000" opacity="1">34,000,000</text></g><g class="mark-rule role-axis-domain" pointer-events="none"><line transform="translate(0,600)" x2="0" y2="-600" stroke="#888" stroke-width="1" opacity="1"></line></g><g class="mark-text role-axis-title" pointer-events="none"><text text-anchor="middle" transform="translate(-107,300) rotate(-90) translate(0,-3)" font-family="sans-serif" font-size="14px" font-weight="normal" fill="#000" opacity="1">operations / sec</text></g></g><path class="foreground" aria-hidden="true" d="" pointer-events="none" display="none"></path></g></g><g class="mark-rect role-mark marks" role="graphics-object" aria-roledescription="rect mark container"><path aria-label="operations / sec: 23435; module: class-transformer-validator-async" role="graphics-symbol" aria-roledescription="bar" d="M2.75,599.5982571428572h49.5v0.4017428571428354h-49.5Z" fill="#4c78a8"></path><path aria-label="operations / sec: 34087; module: class-transformer-validator-sync" role="graphics-symbol" aria-roledescription="bar" d="M57.75,599.4156514285714h49.5v0.5843485714285634h-49.5Z" fill="#4c78a8"></path><path aria-label="operations / sec: 741449; module: computed-types" role="graphics-symbol" aria-roledescription="bar" d="M112.75,587.2894457142858h49.5v12.710554285714238h-49.5Z" fill="#4c78a8"></path><path aria-label="operations / sec: 2809104; module: io-ts" role="graphics-symbol" aria-roledescription="bar" d="M167.75,551.8439314285715h49.5v48.15606857142848h-49.5Z" fill="#4c78a8"></path><path aria-label="operations / sec: 1595103; module: jointz" role="graphics-symbol" aria-roledescription="bar" d="M222.75,572.6553771428571h49.5v27.344622857142895h-49.5Z" fill="#4c78a8"></path><path aria-label="operations / sec: 763678; module: json-decoder" role="graphics-symbol" aria-roledescription="bar" d="M277.75,586.9083771428571h49.5v13.091622857142852h-49.5Z" fill="#4c78a8"></path><path aria-label="operations / sec: 13846174; module: marshal" role="graphics-symbol" aria-roledescription="bar" d="M332.75,362.63701714285713h49.5v237.36298285714287h-49.5Z" fill="#4c78a8"></path><path aria-label="operations / sec: 1296863; module: myzod" role="graphics-symbol" aria-roledescription="bar" d="M387.75,577.7680628571428h49.5v22.23193714285719h-49.5Z" fill="#4c78a8"></path><path aria-label="operations / sec: 797161; module: purify-ts" role="graphics-symbol" aria-roledescription="bar" d="M442.75,586.3343828571428h49.5v13.665617142857172h-49.5Z" fill="#4c78a8"></path><path aria-label="operations / sec: 30961418; module: quartet" role="graphics-symbol" aria-roledescription="bar" d="M497.75,69.23283428571429h49.5v530.7671657142857h-49.5Z" fill="#4c78a8"></path><path aria-label="operations / sec: 720796; module: runtypes" role="graphics-symbol" aria-roledescription="bar" d="M552.75,587.6434971428571h49.5v12.356502857142914h-49.5Z" fill="#4c78a8"></path><path aria-label="operations / sec: 436382; module: toi" role="graphics-symbol" aria-roledescription="bar" d="M607.75,592.5191657142857h49.5v7.480834285714309h-49.5Z" fill="#4c78a8"></path><path aria-label="operations / sec: 19679220; module: ts-json-validator" role="graphics-symbol" aria-roledescription="bar" d="M662.75,262.6419428571429h49.5v337.3580571428571h-49.5Z" fill="#4c78a8"></path><path aria-label="operations / sec: 118511; module: ts-utils" role="graphics-symbol" aria-roledescription="bar" d="M717.75,597.9683828571428h49.5v2.031617142857158h-49.5Z" fill="#4c78a8"></path><path aria-label="operations / sec: 13509; module: yup" role="graphics-symbol" aria-roledescription="bar" d="M772.75,599.7684171428572h49.5v0.23158285714282556h-49.5Z" fill="#4c78a8"></path><path aria-label="operations / sec: 53398; module: zod" role="graphics-symbol" aria-roledescription="bar" d="M827.75,599.0846057142858h49.5v0.9153942857142283h-49.5Z" fill="#4c78a8"></path></g></g><path class="foreground" aria-hidden="true" d="" display="none"></path></g></g></g></svg>