<svg class="marks" width="1011" height="814" xmlns="http://www.w3.org/2000/svg">
    <defs>
        <style>
            .vega-svg-root *{fill:none}.vega-svg-root path{stroke-miterlimit:10}
        </style>
    </defs>
    <path fill="#fff" d="M0 0h1011v814H0z"/>
    <g class="vega-svg-root">
        <g class="mark-group role-frame root" aria-roledescription="group mark container">
            <path class="background" aria-hidden="true" d="M126.5 5.5h880v600h-880z" stroke="#ddd"/>
            <g class="mark-group role-axis" aria-hidden="true">
                <path class="background" aria-hidden="true" d="M126.5 5.5z" pointer-events="none"/>
                <g class="mark-rule role-axis-grid" pointer-events="none" stroke="#ddd">
                    <path d="M126.5 605.5h880M126.5 571.5h880M126.5 536.5h880M126.5 502.5h880M126.5 468.5h880M126.5 434.5h880M126.5 399.5h880M126.5 365.5h880M126.5 331.5h880M126.5 296.5h880M126.5 262.5h880M126.5 228.5h880M126.5 194.5h880M126.5 159.5h880M126.5 125.5h880M126.5 91.5h880M126.5 56.5h880M126.5 22.5h880"/>
                </g>
            </g>
            <g class="mark-group role-axis" aria-roledescription="axis" aria-label="X-axis titled 'module' for a discrete scale with 16 values: class-transformer-validator-async, class-transformer-validator-sync, computed-types, io-ts, jointz, ending with zod">
                <path class="background" aria-hidden="true" d="M126.5 605.5z" pointer-events="none"/>
                <g class="mark-rule role-axis-tick" pointer-events="none" stroke="#888">
                    <path d="M153.5 605.5v5M208.5 605.5v5M263.5 605.5v5M318.5 605.5v5M373.5 605.5v5M428.5 605.5v5M483.5 605.5v5M538.5 605.5v5M593.5 605.5v5M648.5 605.5v5M703.5 605.5v5M758.5 605.5v5M813.5 605.5v5M868.5 605.5v5M923.5 605.5v5M978.5 605.5v5"/>
                </g>
                <g class="mark-text role-axis-label" pointer-events="none" font-family="sans-serif" font-size="14">
                    <text transform="rotate(90 -231.5 381)">
                        class-transform…
                    </text>
                    <text transform="rotate(90 -204 408.5)">
                        class-transform…
                    </text>
                    <text transform="rotate(90 -176.5 436)">
                        computed-types
                    </text>
                    <text transform="rotate(90 -149 463.5)">
                        io-ts
                    </text>
                    <text transform="rotate(90 -121.5 491)">
                        jointz
                    </text>
                    <text transform="rotate(90 -94 518.5)">
                        json-decoder
                    </text>
                    <text transform="rotate(90 -66.5 546)">
                        marshal
                    </text>
                    <text transform="rotate(90 -39 573.5)">
                        myzod
                    </text>
                    <text transform="rotate(90 -11.5 601)">
                        purify-ts
                    </text>
                    <text transform="rotate(90 16 628.5)">
                        quartet
                    </text>
                    <text transform="rotate(90 43.5 656)">
                        runtypes
                    </text>
                    <text transform="rotate(90 71 683.5)">
                        toi
                    </text>
                    <text transform="rotate(90 98.5 711)">
                        ts-json-validat…
                    </text>
                    <text transform="rotate(90 126 738.5)">
                        ts-utils
                    </text>
                    <text transform="rotate(90 153.5 766)">
                        yup
                    </text>
                    <text transform="rotate(90 181 793.5)">
                        zod
                    </text>
                </g>
                <path stroke="#888" d="M126.5 605.5h880" pointer-events="none"/>
                <text text-anchor="middle" transform="translate(566.5 806.5)" font-family="sans-serif" font-size="14" font-weight="400" pointer-events="none">
                    module
                </text>
            </g>
            <g class="mark-group role-axis" aria-roledescription="axis" aria-label="Y-axis titled 'operations / sec' for a linear scale with values from 0 to 35,000,000">
                <path class="background" aria-hidden="true" d="M126.5 5.5z" pointer-events="none"/>
                <g class="mark-rule role-axis-tick" pointer-events="none" stroke="#888">
                    <path d="M126.5 605.5h-5M126.5 571.5h-5M126.5 536.5h-5M126.5 502.5h-5M126.5 468.5h-5M126.5 434.5h-5M126.5 399.5h-5M126.5 365.5h-5M126.5 331.5h-5M126.5 296.5h-5M126.5 262.5h-5M126.5 228.5h-5M126.5 194.5h-5M126.5 159.5h-5M126.5 125.5h-5M126.5 91.5h-5M126.5 56.5h-5M126.5 22.5h-5"/>
                </g>
                <g class="mark-text role-axis-label" pointer-events="none" text-anchor="end" font-family="sans-serif" font-size="12">
                    <text transform="translate(119.5 609.5)">
                        0
                    </text>
                    <text transform="translate(119.5 575.214)">
                        2,000,000
                    </text>
                    <text transform="translate(119.5 540.929)">
                        4,000,000
                    </text>
                    <text transform="translate(119.5 506.643)">
                        6,000,000
                    </text>
                    <text transform="translate(119.5 472.357)">
                        8,000,000
                    </text>
                    <text transform="translate(119.5 438.071)">
                        10,000,000
                    </text>
                    <text transform="translate(119.5 403.786)">
                        12,000,000
                    </text>
                    <text transform="translate(119.5 369.5)">
                        14,000,000
                    </text>
                    <text transform="translate(119.5 335.214)">
                        16,000,000
                    </text>
                    <text transform="translate(119.5 300.929)">
                        18,000,000
                    </text>
                    <text transform="translate(119.5 266.643)">
                        20,000,000
                    </text>
                    <text transform="translate(119.5 232.357)">
                        22,000,000
                    </text>
                    <text transform="translate(119.5 198.071)">
                        24,000,000
                    </text>
                    <text transform="translate(119.5 163.786)">
                        26,000,000
                    </text>
                    <text transform="translate(119.5 129.5)">
                        28,000,000
                    </text>
                    <text transform="translate(119.5 95.214)">
                        30,000,000
                    </text>
                    <text transform="translate(119.5 60.929)">
                        32,000,000
                    </text>
                    <text transform="translate(119.5 26.643)">
                        34,000,000
                    </text>
                </g>
                <path stroke="#888" d="M126.5 605.5V5.5" pointer-events="none"/>
                <text text-anchor="middle" transform="rotate(-90 161 144.5)" font-family="sans-serif" font-size="14" font-weight="400" pointer-events="none">
                    operations / sec
                </text>
            </g>
            <g class="mark-rect role-mark marks" aria-roledescription="rect mark container" fill="#4c78a8">
                <path aria-label="operations / sec: 32109; module: class-transformer-validator-async" aria-roledescription="bar" d="M128.75 604.45h49.5v.55h-49.5z"/>
                <path aria-label="operations / sec: 40252; module: class-transformer-validator-sync" aria-roledescription="bar" d="M183.75 604.31h49.5v.69h-49.5z"/>
                <path aria-label="operations / sec: 644847; module: computed-types" aria-roledescription="bar" d="M238.75 593.945h49.5V605h-49.5z"/>
                <path aria-label="operations / sec: 2468419; module: io-ts" aria-roledescription="bar" d="M293.75 562.684h49.5V605h-49.5z"/>
                <path aria-label="operations / sec: 1400021; module: jointz" aria-roledescription="bar" d="M348.75 581h49.5v24h-49.5z"/>
                <path aria-label="operations / sec: 689348; module: json-decoder" aria-roledescription="bar" d="M403.75 593.183h49.5V605h-49.5z"/>
                <path aria-label="operations / sec: 3627685; module: marshal" aria-roledescription="bar" d="M458.75 542.811h49.5V605h-49.5z"/>
                <path aria-label="operations / sec: 1243170; module: myzod" aria-roledescription="bar" d="M513.75 583.689h49.5V605h-49.5z"/>
                <path aria-label="operations / sec: 732547; module: purify-ts" aria-roledescription="bar" d="M568.75 592.442h49.5V605h-49.5z"/>
                <path aria-label="operations / sec: 30394788; module: quartet" aria-roledescription="bar" d="M623.75 83.946h49.5V605h-49.5z"/>
                <path aria-label="operations / sec: 690483; module: runtypes" aria-roledescription="bar" d="M678.75 593.163h49.5V605h-49.5z"/>
                <path aria-label="operations / sec: 391892; module: toi" aria-roledescription="bar" d="M733.75 598.282h49.5V605h-49.5z"/>
                <path aria-label="operations / sec: 18178420; module: ts-json-validator" aria-roledescription="bar" d="M788.75 293.37h49.5V605h-49.5z"/>
                <path aria-label="operations / sec: 118928; module: ts-utils" aria-roledescription="bar" d="M843.75 602.961h49.5V605h-49.5z"/>
                <path aria-label="operations / sec: 13331; module: yup" aria-roledescription="bar" d="M898.75 604.771h49.5V605h-49.5z"/>
                <path aria-label="operations / sec: 53379; module: zod" aria-roledescription="bar" d="M953.75 604.085h49.5V605h-49.5z"/>
            </g>
        </g>
    </g>
</svg>
