<svg xmlns="http://www.w3.org/2000/svg" class="marks" width="1011" height="820">
    <path fill="#fff" d="M0 0h1011v820H0z"/>
    <g class="mark-group role-frame root" aria-roledescription="group mark container" fill="none" stroke-miterlimit="10">
        <path class="background" aria-hidden="true" d="M126.5 11.5h880v600h-880z" stroke="#ddd"/>
        <g class="mark-group role-axis" aria-hidden="true">
            <path class="background" aria-hidden="true" d="M126.5 11.5z" pointer-events="none"/>
            <g class="mark-rule role-axis-grid" pointer-events="none" stroke="#ddd">
                <path d="M126.5 611.5h880M126.5 578.5h880M126.5 544.5h880M126.5 511.5h880M126.5 478.5h880M126.5 444.5h880M126.5 411.5h880M126.5 378.5h880M126.5 344.5h880M126.5 311.5h880M126.5 278.5h880M126.5 244.5h880M126.5 211.5h880M126.5 178.5h880M126.5 144.5h880M126.5 111.5h880M126.5 78.5h880M126.5 44.5h880M126.5 11.5h880"/>
            </g>
        </g>
        <g class="mark-group role-axis" aria-roledescription="axis" aria-label="X-axis titled 'module' for a discrete scale with 20 values: bueno, class-transformer-validator-async, class-transformer-validator-sync, computed-types, decoders, ending with zod">
            <path class="background" aria-hidden="true" d="M126.5 611.5z" pointer-events="none"/>
            <g class="mark-rule role-axis-tick" pointer-events="none" stroke="#888">
                <path d="M148.5 611.5v5M192.5 611.5v5M236.5 611.5v5M280.5 611.5v5M324.5 611.5v5M368.5 611.5v5M412.5 611.5v5M456.5 611.5v5M500.5 611.5v5M544.5 611.5v5M588.5 611.5v5M632.5 611.5v5M676.5 611.5v5M720.5 611.5v5M764.5 611.5v5M808.5 611.5v5M852.5 611.5v5M896.5 611.5v5M940.5 611.5v5M984.5 611.5v5"/>
            </g>
            <g class="mark-text role-axis-label" pointer-events="none" font-family="sans-serif" font-size="14" fill="#000">
                <text transform="rotate(90 -237.25 381.25)">
                    bueno
                </text>
                <text transform="rotate(90 -215.25 403.25)">
                    class-transform…
                </text>
                <text transform="rotate(90 -193.25 425.25)">
                    class-transform…
                </text>
                <text transform="rotate(90 -171.25 447.25)">
                    computed-types
                </text>
                <text transform="rotate(90 -149.25 469.25)">
                    decoders
                </text>
                <text transform="rotate(90 -127.25 491.25)">
                    io-ts
                </text>
                <text transform="rotate(90 -105.25 513.25)">
                    jointz
                </text>
                <text transform="rotate(90 -83.25 535.25)">
                    json-decoder
                </text>
                <text transform="rotate(90 -61.25 557.25)">
                    marshal
                </text>
                <text transform="rotate(90 -39.25 579.25)">
                    myzod
                </text>
                <text transform="rotate(90 -17.25 601.25)">
                    purify-ts
                </text>
                <text transform="rotate(90 4.75 623.25)">
                    rulr
                </text>
                <text transform="rotate(90 26.75 645.25)">
                    runtypes
                </text>
                <text transform="rotate(90 48.75 667.25)">
                    simple-runtypes
                </text>
                <text transform="rotate(90 70.75 689.25)">
                    superstruct
                </text>
                <text transform="rotate(90 92.75 711.25)">
                    toi
                </text>
                <text transform="rotate(90 114.75 733.25)">
                    ts-json-validat…
                </text>
                <text transform="rotate(90 136.75 755.25)">
                    ts-utils
                </text>
                <text transform="rotate(90 158.75 777.25)">
                    yup
                </text>
                <text transform="rotate(90 180.75 799.25)">
                    zod
                </text>
            </g>
            <path stroke="#888" d="M126.5 611.5h880" pointer-events="none"/>
            <text text-anchor="middle" transform="translate(566.5 812.5)" font-family="sans-serif" font-size="14" fill="#000" pointer-events="none">
                module
            </text>
        </g>
        <g class="mark-group role-axis" aria-roledescription="axis" aria-label="Y-axis titled 'operations / sec' for a linear scale with values from 0 to 18,000,000">
            <path class="background" aria-hidden="true" d="M126.5 11.5z" pointer-events="none"/>
            <g class="mark-rule role-axis-tick" pointer-events="none" stroke="#888">
                <path d="M126.5 611.5h-5M126.5 578.5h-5M126.5 544.5h-5M126.5 511.5h-5M126.5 478.5h-5M126.5 444.5h-5M126.5 411.5h-5M126.5 378.5h-5M126.5 344.5h-5M126.5 311.5h-5M126.5 278.5h-5M126.5 244.5h-5M126.5 211.5h-5M126.5 178.5h-5M126.5 144.5h-5M126.5 111.5h-5M126.5 78.5h-5M126.5 44.5h-5M126.5 11.5h-5"/>
            </g>
            <g class="mark-text role-axis-label" pointer-events="none" text-anchor="end" font-family="sans-serif" font-size="12" fill="#000">
                <text transform="translate(119.5 615.5)">
                    0
                </text>
                <text transform="translate(119.5 582.167)">
                    1,000,000
                </text>
                <text transform="translate(119.5 548.833)">
                    2,000,000
                </text>
                <text transform="translate(119.5 515.5)">
                    3,000,000
                </text>
                <text transform="translate(119.5 482.167)">
                    4,000,000
                </text>
                <text transform="translate(119.5 448.833)">
                    5,000,000
                </text>
                <text transform="translate(119.5 415.5)">
                    6,000,000
                </text>
                <text transform="translate(119.5 382.167)">
                    7,000,000
                </text>
                <text transform="translate(119.5 348.833)">
                    8,000,000
                </text>
                <text transform="translate(119.5 315.5)">
                    9,000,000
                </text>
                <text transform="translate(119.5 282.167)">
                    10,000,000
                </text>
                <text transform="translate(119.5 248.833)">
                    11,000,000
                </text>
                <text transform="translate(119.5 215.5)">
                    12,000,000
                </text>
                <text transform="translate(119.5 182.167)">
                    13,000,000
                </text>
                <text transform="translate(119.5 148.833)">
                    14,000,000
                </text>
                <text transform="translate(119.5 115.5)">
                    15,000,000
                </text>
                <text transform="translate(119.5 82.167)">
                    16,000,000
                </text>
                <text transform="translate(119.5 48.833)">
                    17,000,000
                </text>
                <text transform="translate(119.5 15.5)">
                    18,000,000
                </text>
            </g>
            <path stroke="#888" d="M126.5 611.5v-600" pointer-events="none"/>
            <text text-anchor="middle" transform="rotate(-90 164 147.5)" font-family="sans-serif" font-size="14" fill="#000" pointer-events="none">
                operations / sec
            </text>
        </g>
        <g class="mark-rect role-mark marks" aria-roledescription="rect mark container" fill="#4c78a8">
            <path aria-label="operations / sec: 132280; module: bueno" aria-roledescription="bar" d="M128.2 606.59h39.6V611h-39.6z"/>
            <path aria-label="operations / sec: 35146; module: class-transformer-validator-async" aria-roledescription="bar" d="M172.2 609.828h39.6V611h-39.6z"/>
            <path aria-label="operations / sec: 40105; module: class-transformer-validator-sync" aria-roledescription="bar" d="M216.2 609.663h39.6V611h-39.6z"/>
            <path aria-label="operations / sec: 674305; module: computed-types" aria-roledescription="bar" d="M260.2 588.523h39.6V611h-39.6z"/>
            <path aria-label="operations / sec: 201057; module: decoders" aria-roledescription="bar" d="M304.2 604.298h39.6V611h-39.6z"/>
            <path aria-label="operations / sec: 877916; module: io-ts" aria-roledescription="bar" d="M348.2 581.736h39.6V611h-39.6z"/>
            <path aria-label="operations / sec: 770991; module: jointz" aria-roledescription="bar" d="M392.2 585.3h39.6V611h-39.6z"/>
            <path aria-label="operations / sec: 693661; module: json-decoder" aria-roledescription="bar" d="M436.2 587.878h39.6V611h-39.6z"/>
            <path aria-label="operations / sec: 15964226; module: marshal" aria-roledescription="bar" d="M480.2 78.86h39.6V611h-39.6z"/>
            <path aria-label="operations / sec: 1118328; module: myzod" aria-roledescription="bar" d="M524.2 573.722h39.6V611h-39.6z"/>
            <path aria-label="operations / sec: 692715; module: purify-ts" aria-roledescription="bar" d="M568.2 587.91h39.6V611h-39.6z"/>
            <path aria-label="operations / sec: 591215; module: rulr" aria-roledescription="bar" d="M612.2 591.293h39.6V611h-39.6z"/>
            <path aria-label="operations / sec: 663446; module: runtypes" aria-roledescription="bar" d="M656.2 588.885h39.6V611h-39.6z"/>
            <path aria-label="operations / sec: 1163823; module: simple-runtypes" aria-roledescription="bar" d="M700.2 572.206h39.6V611h-39.6z"/>
            <path aria-label="operations / sec: 65293; module: superstruct" aria-roledescription="bar" d="M744.2 608.824h39.6V611h-39.6z"/>
            <path aria-label="operations / sec: 410821; module: toi" aria-roledescription="bar" d="M788.2 597.306h39.6V611h-39.6z"/>
            <path aria-label="operations / sec: 17176082; module: ts-json-validator" aria-roledescription="bar" d="M832.2 38.464h39.6V611h-39.6z"/>
            <path aria-label="operations / sec: 110015; module: ts-utils" aria-roledescription="bar" d="M876.2 607.333h39.6V611h-39.6z"/>
            <path aria-label="operations / sec: 14213; module: yup" aria-roledescription="bar" d="M920.2 610.526h39.6V611h-39.6z"/>
            <path aria-label="operations / sec: 10866; module: zod" aria-roledescription="bar" d="M964.2 610.638h39.6V611h-39.6z"/>
        </g>
    </g>
</svg>
