<svg xmlns="http://www.w3.org/2000/svg" class="marks" width="1011" height="820">
    <path fill="#fff" d="M0 0h1011v820H0z"/>
    <g class="mark-group role-frame root" aria-roledescription="group mark container" fill="none" stroke-miterlimit="10">
        <path class="background" aria-hidden="true" d="M126.5 11.5h880v600h-880z" stroke="#ddd"/>
        <g class="mark-group role-axis" aria-roledescription="axis" aria-label="Y-axis for a linear scale with values from 0 to 14,000,000">
            <path class="background" aria-hidden="true" d="M126.5 11.5z" pointer-events="none"/>
            <g class="mark-rule role-axis-grid" pointer-events="none" stroke="#ddd">
                <path d="M126.5 611.5h880M126.5 568.5h880M126.5 525.5h880M126.5 482.5h880M126.5 440.5h880M126.5 397.5h880M126.5 354.5h880M126.5 311.5h880M126.5 268.5h880M126.5 225.5h880M126.5 182.5h880M126.5 140.5h880M126.5 97.5h880M126.5 54.5h880M126.5 11.5h880"/>
            </g>
        </g>
        <g class="mark-group role-axis" aria-roledescription="axis" aria-label="X-axis titled 'module' for a discrete scale with 22 values: @typeofweb/schema, bueno, class-transformer-validator-async, class-transformer-validator-sync, computed-types, ending with zod">
            <path class="background" aria-hidden="true" d="M126.5 611.5z" pointer-events="none"/>
            <g class="mark-rule role-axis-tick" pointer-events="none" stroke="#888">
                <path d="M146.5 611.5v5M186.5 611.5v5M226.5 611.5v5M266.5 611.5v5M306.5 611.5v5M346.5 611.5v5M386.5 611.5v5M426.5 611.5v5M466.5 611.5v5M506.5 611.5v5M546.5 611.5v5M586.5 611.5v5M626.5 611.5v5M666.5 611.5v5M706.5 611.5v5M746.5 611.5v5M786.5 611.5v5M826.5 611.5v5M866.5 611.5v5M906.5 611.5v5M946.5 611.5v5M986.5 611.5v5"/>
            </g>
            <g class="mark-text role-axis-label" pointer-events="none" font-family="sans-serif" font-size="14" fill="#000">
                <text transform="rotate(90 -238.25 380.25)">@typeofweb/sche…</text>
                <text transform="rotate(90 -218.25 400.25)">bueno</text>
                <text transform="rotate(90 -198.25 420.25)">class-transform…</text>
                <text transform="rotate(90 -178.25 440.25)">class-transform…</text>
                <text transform="rotate(90 -158.25 460.25)">computed-types</text>
                <text transform="rotate(90 -138.25 480.25)">decoders</text>
                <text transform="rotate(90 -118.25 500.25)">io-ts</text>
                <text transform="rotate(90 -98.25 520.25)">jointz</text>
                <text transform="rotate(90 -78.25 540.25)">json-decoder</text>
                <text transform="rotate(90 -58.25 560.25)">marshal</text>
                <text transform="rotate(90 -38.25 580.25)">myzod</text>
                <text transform="rotate(90 -18.25 600.25)">purify-ts</text>
                <text transform="rotate(90 1.75 620.25)">rulr</text>
                <text transform="rotate(90 21.75 640.25)">runtypes</text>
                <text transform="rotate(90 41.75 660.25)">simple-runtypes</text>
                <text transform="rotate(90 61.75 680.25)">superstruct</text>
                <text transform="rotate(90 81.75 700.25)">toi</text>
                <text transform="rotate(90 101.75 720.25)">ts-json-validat…</text>
                <text transform="rotate(90 121.75 740.25)">ts-utils</text>
                <text transform="rotate(90 141.75 760.25)">valita</text>
                <text transform="rotate(90 161.75 780.25)">yup</text>
                <text transform="rotate(90 181.75 800.25)">zod</text>
            </g>
            <path stroke="#888" d="M126.5 611.5h880" pointer-events="none"/>
            <text text-anchor="middle" transform="translate(566.5 812.5)" font-family="sans-serif" font-size="14" fill="#000" pointer-events="none">module</text>
        </g>
        <g class="mark-group role-axis" aria-roledescription="axis" aria-label="Y-axis titled 'operations / sec' for a linear scale with values from 0 to 14,000,000">
            <path class="background" aria-hidden="true" d="M126.5 11.5z" pointer-events="none"/>
            <g class="mark-rule role-axis-tick" pointer-events="none" stroke="#888">
                <path d="M126.5 611.5h-5M126.5 568.5h-5M126.5 525.5h-5M126.5 482.5h-5M126.5 440.5h-5M126.5 397.5h-5M126.5 354.5h-5M126.5 311.5h-5M126.5 268.5h-5M126.5 225.5h-5M126.5 182.5h-5M126.5 140.5h-5M126.5 97.5h-5M126.5 54.5h-5M126.5 11.5h-5"/>
            </g>
            <g class="mark-text role-axis-label" pointer-events="none" text-anchor="end" font-family="sans-serif" font-size="12" fill="#000">
                <text transform="translate(119.5 615.5)">0</text>
                <text transform="translate(119.5 572.643)">1,000,000</text>
                <text transform="translate(119.5 529.786)">2,000,000</text>
                <text transform="translate(119.5 486.929)">3,000,000</text>
                <text transform="translate(119.5 444.071)">4,000,000</text>
                <text transform="translate(119.5 401.214)">5,000,000</text>
                <text transform="translate(119.5 358.357)">6,000,000</text>
                <text transform="translate(119.5 315.5)">7,000,000</text>
                <text transform="translate(119.5 272.643)">8,000,000</text>
                <text transform="translate(119.5 229.786)">9,000,000</text>
                <text transform="translate(119.5 186.929)">10,000,000</text>
                <text transform="translate(119.5 144.071)">11,000,000</text>
                <text transform="translate(119.5 101.214)">12,000,000</text>
                <text transform="translate(119.5 58.357)">13,000,000</text>
                <text transform="translate(119.5 15.5)">14,000,000</text>
            </g>
            <path stroke="#888" d="M126.5 611.5v-600" pointer-events="none"/>
            <text text-anchor="middle" transform="rotate(-90 164 147.5)" font-family="sans-serif" font-size="14" fill="#000" pointer-events="none">operations / sec</text>
        </g>
        <g class="mark-rect role-mark marks" aria-roledescription="rect mark container" fill="#4c78a8">
            <path d="M168 604.76h36V611h-36zM208 609.656h36V611h-36zM248 609.385h36V611h-36zM288 583.505h36V611h-36zM328 602.746h36V611h-36zM368 567.54h36V611h-36zM408 556.952h36V611h-36zM448 581.896h36V611h-36zM488 145.908h36V611h-36zM528 562.726h36V611h-36zM568 581.08h36V611h-36zM608 582.98h36V611h-36zM648 583.923h36V611h-36zM688 547.061h36V611h-36zM728 608.617h36V611h-36zM768 593.855h36V611h-36zM808 36.222h36V611h-36zM848 605.58h36V611h-36zM128 577.818h36V611h-36zM888 490.563h36V611h-36zM928 610.67h36v.33h-36zM968 610.63h36v.37h-36z"/>
        </g>
    </g>
</svg>
