<svg class="marks" width="1020" height="820" xmlns="http://www.w3.org/2000/svg">
    <path fill="#fff" d="M0 0h1020v820H0z"/>
    <g class="mark-group role-frame root" aria-roledescription="group mark container">
        <path class="background" aria-hidden="true" d="M135.5 11.5h880v600h-880z" fill="none" stroke="#ddd"/>
        <g class="mark-group role-axis" aria-hidden="true">
            <path class="background" aria-hidden="true" d="M135.5 11.5z" pointer-events="none" fill="none"/>
            <g class="mark-rule role-axis-grid" pointer-events="none" fill="none" stroke="#ddd">
                <path d="M135.5 611.5h880M135.5 556.5h880M135.5 502.5h880M135.5 447.5h880M135.5 393.5h880M135.5 338.5h880M135.5 284.5h880M135.5 229.5h880M135.5 175.5h880M135.5 120.5h880M135.5 66.5h880M135.5 11.5h880"/>
            </g>
        </g>
        <g class="mark-group role-axis" aria-roledescription="axis" aria-label="X-axis titled 'module' for a discrete scale with 16 values: class-transformer-validator-async, class-transformer-validator-sync, funval, io-ts, jointz, ending with zod">
            <path class="background" aria-hidden="true" d="M135.5 611.5z" pointer-events="none" fill="none"/>
            <g class="mark-rule role-axis-tick" pointer-events="none" fill="none" stroke="#888">
                <path d="M162.5 611.5v5M217.5 611.5v5M272.5 611.5v5M327.5 611.5v5M382.5 611.5v5M437.5 611.5v5M492.5 611.5v5M547.5 611.5v5M602.5 611.5v5M657.5 611.5v5M712.5 611.5v5M767.5 611.5v5M822.5 611.5v5M877.5 611.5v5M932.5 611.5v5M987.5 611.5v5"/>
            </g>
            <g class="mark-text role-axis-label" pointer-events="none" font-family="sans-serif" font-size="14">
                <text transform="rotate(90 -230 388.5)">
                    class-transform…
                </text>
                <text transform="rotate(90 -202.5 416)">
                    class-transform…
                </text>
                <text transform="rotate(90 -175 443.5)">
                    funval
                </text>
                <text transform="rotate(90 -147.5 471)">
                    io-ts
                </text>
                <text transform="rotate(90 -120 498.5)">
                    jointz
                </text>
                <text transform="rotate(90 -92.5 526)">
                    json-decoder
                </text>
                <text transform="rotate(90 -65 553.5)">
                    marshal
                </text>
                <text transform="rotate(90 -37.5 581)">
                    myzod
                </text>
                <text transform="rotate(90 -10 608.5)">
                    purify-ts
                </text>
                <text transform="rotate(90 17.5 636)">
                    quartet
                </text>
                <text transform="rotate(90 45 663.5)">
                    runtypes
                </text>
                <text transform="rotate(90 72.5 691)">
                    toi
                </text>
                <text transform="rotate(90 100 718.5)">
                    ts-json-validat…
                </text>
                <text transform="rotate(90 127.5 746)">
                    ts-utils
                </text>
                <text transform="rotate(90 155 773.5)">
                    yup
                </text>
                <text transform="rotate(90 182.5 801)">
                    zod
                </text>
            </g>
            <path fill="none" stroke="#888" d="M135.5 611.5h880" pointer-events="none"/>
            <text text-anchor="middle" transform="translate(575.5 812.5)" font-family="sans-serif" font-size="14" font-weight="400" pointer-events="none">
                module
            </text>
        </g>
        <g class="mark-group role-axis" aria-roledescription="axis" aria-label="Y-axis titled 'operations / sec' for a linear scale with values from 0 to 110,000,000">
            <path class="background" aria-hidden="true" d="M135.5 11.5z" pointer-events="none" fill="none"/>
            <g class="mark-rule role-axis-tick" pointer-events="none" fill="none" stroke="#888">
                <path d="M135.5 611.5h-5M135.5 556.5h-5M135.5 502.5h-5M135.5 447.5h-5M135.5 393.5h-5M135.5 338.5h-5M135.5 284.5h-5M135.5 229.5h-5M135.5 175.5h-5M135.5 120.5h-5M135.5 66.5h-5M135.5 11.5h-5"/>
            </g>
            <g class="mark-text role-axis-label" pointer-events="none" text-anchor="end" font-family="sans-serif" font-size="12">
                <text transform="translate(128.5 615.5)">
                    0
                </text>
                <text transform="translate(128.5 560.955)">
                    10,000,000
                </text>
                <text transform="translate(128.5 506.41)">
                    20,000,000
                </text>
                <text transform="translate(128.5 451.864)">
                    30,000,000
                </text>
                <text transform="translate(128.5 397.318)">
                    40,000,000
                </text>
                <text transform="translate(128.5 342.773)">
                    50,000,000
                </text>
                <text transform="translate(128.5 288.227)">
                    60,000,000
                </text>
                <text transform="translate(128.5 233.682)">
                    70,000,000
                </text>
                <text transform="translate(128.5 179.136)">
                    80,000,000
                </text>
                <text transform="translate(128.5 124.59)">
                    90,000,000
                </text>
                <text transform="translate(128.5 70.045)">
                    100,000,000
                </text>
                <text transform="translate(128.5 15.5)">
                    110,000,000
                </text>
            </g>
            <path fill="none" stroke="#888" d="M135.5 611.5v-600" pointer-events="none"/>
            <text text-anchor="middle" transform="rotate(-90 164 147.5)" font-family="sans-serif" font-size="14" font-weight="400" pointer-events="none">
                operations / sec
            </text>
        </g>
        <g class="mark-rect role-mark marks" aria-roledescription="rect mark container" fill="#4c78a8">
            <path aria-label="operations / sec: 31405; module: class-transformer-validator-async" aria-roledescription="bar" d="M137.75 610.829h49.5V611h-49.5z"/>
            <path aria-label="operations / sec: 31937; module: class-transformer-validator-sync" aria-roledescription="bar" d="M192.75 610.826h49.5V611h-49.5z"/>
            <path aria-label="operations / sec: 763740; module: funval" aria-roledescription="bar" d="M247.75 606.834h49.5V611h-49.5z"/>
            <path aria-label="operations / sec: 2290818; module: io-ts" aria-roledescription="bar" d="M302.75 598.505h49.5V611h-49.5z"/>
            <path aria-label="operations / sec: 936467; module: jointz" aria-roledescription="bar" d="M357.75 605.892h49.5V611h-49.5z"/>
            <path aria-label="operations / sec: 787087; module: json-decoder" aria-roledescription="bar" d="M412.75 606.707h49.5V611h-49.5z"/>
            <path aria-label="operations / sec: 4700603; module: marshal" aria-roledescription="bar" d="M467.75 585.36h49.5V611h-49.5z"/>
            <path aria-label="operations / sec: 1480420; module: myzod" aria-roledescription="bar" d="M522.75 602.925h49.5V611h-49.5z"/>
            <path aria-label="operations / sec: 826593; module: purify-ts" aria-roledescription="bar" d="M577.75 606.491h49.5V611h-49.5z"/>
            <path aria-label="operations / sec: 100918835; module: quartet" aria-roledescription="bar" d="M632.75 60.534h49.5V611h-49.5z"/>
            <path aria-label="operations / sec: 762097; module: runtypes" aria-roledescription="bar" d="M687.75 606.843h49.5V611h-49.5z"/>
            <path aria-label="operations / sec: 464036; module: toi" aria-roledescription="bar" d="M742.75 608.469h49.5V611h-49.5z"/>
            <path aria-label="operations / sec: 27254992; module: ts-json-validator" aria-roledescription="bar" d="M797.75 462.336h49.5V611h-49.5z"/>
            <path aria-label="operations / sec: 128037; module: ts-utils" aria-roledescription="bar" d="M852.75 610.302h49.5V611h-49.5z"/>
            <path aria-label="operations / sec: 15564; module: yup" aria-roledescription="bar" d="M907.75 610.915h49.5V611h-49.5z"/>
            <path aria-label="operations / sec: 61124; module: zod" aria-roledescription="bar" d="M962.75 610.667h49.5V611h-49.5z"/>
        </g>
    </g>
</svg>
