<svg class="marks" width="1011" height="820" xmlns="http://www.w3.org/2000/svg">
    <path fill="#fff" d="M0 0h1011v820H0z"/>
    <g class="mark-group role-frame root">
        <path class="background" d="M126.5 11.5h880v600h-880z" fill="none" stroke="#ddd"/>
        <g class="mark-group role-axis">
            <path class="background" d="M126.5 11.5z" pointer-events="none" fill="none"/>
            <g class="mark-rule role-axis-grid" pointer-events="none" fill="none" stroke="#ddd">
                <path d="M126.5 611.5h880M126.5 556.5h880M126.5 502.5h880M126.5 447.5h880M126.5 393.5h880M126.5 338.5h880M126.5 284.5h880M126.5 229.5h880M126.5 175.5h880M126.5 120.5h880M126.5 66.5h880M126.5 11.5h880"/>
            </g>
        </g>
        <g class="mark-group role-axis">
            <path class="background" d="M126.5 611.5z" pointer-events="none" fill="none"/>
            <g class="mark-rule role-axis-tick" pointer-events="none" fill="none" stroke="#888">
                <path d="M157.5 611.5v5M220.5 611.5v5M283.5 611.5v5M346.5 611.5v5M408.5 611.5v5M471.5 611.5v5M534.5 611.5v5M597.5 611.5v5M660.5 611.5v5M723.5 611.5v5M786.5 611.5v5M848.5 611.5v5M911.5 611.5v5M974.5 611.5v5"/>
            </g>
            <g class="mark-text role-axis-label" pointer-events="none" font-family="sans-serif" font-size="14">
                <text transform="rotate(90 -232.536 385.964)">
                    class-transform…
                </text>
                <text transform="rotate(90 -201.107 417.393)">
                    class-transform…
                </text>
                <text transform="rotate(90 -169.679 448.821)">
                    funval
                </text>
                <text transform="rotate(90 -138.25 480.25)">
                    io-ts
                </text>
                <text transform="rotate(90 -106.821 511.679)">
                    json-decoder
                </text>
                <text transform="rotate(90 -75.393 543.107)">
                    marshal
                </text>
                <text transform="rotate(90 -43.964 574.536)">
                    myzod
                </text>
                <text transform="rotate(90 -12.536 605.964)">
                    purify-ts
                </text>
                <text transform="rotate(90 18.893 637.393)">
                    runtypes
                </text>
                <text transform="rotate(90 50.321 668.821)">
                    toi
                </text>
                <text transform="rotate(90 81.75 700.25)">
                    ts-json-validat…
                </text>
                <text transform="rotate(90 113.179 731.679)">
                    ts-utils
                </text>
                <text transform="rotate(90 144.607 763.107)">
                    yup
                </text>
                <text transform="rotate(90 176.036 794.536)">
                    zod
                </text>
            </g>
            <path fill="none" stroke="#888" d="M126.5 611.5h880" pointer-events="none"/>
            <text text-anchor="middle" transform="translate(566.5 812.5)" font-family="sans-serif" font-size="14" font-weight="400" pointer-events="none">
                module
            </text>
        </g>
        <g class="mark-group role-axis">
            <path class="background" d="M126.5 11.5z" pointer-events="none" fill="none"/>
            <g class="mark-rule role-axis-tick" pointer-events="none" fill="none" stroke="#888">
                <path d="M126.5 611.5h-5M126.5 556.5h-5M126.5 502.5h-5M126.5 447.5h-5M126.5 393.5h-5M126.5 338.5h-5M126.5 284.5h-5M126.5 229.5h-5M126.5 175.5h-5M126.5 120.5h-5M126.5 66.5h-5M126.5 11.5h-5"/>
            </g>
            <g class="mark-text role-axis-label" pointer-events="none" text-anchor="end" font-family="sans-serif" font-size="12">
                <text transform="translate(119.5 615.5)">
                    0
                </text>
                <text transform="translate(119.5 560.955)">
                    2,000,000
                </text>
                <text transform="translate(119.5 506.41)">
                    4,000,000
                </text>
                <text transform="translate(119.5 451.864)">
                    6,000,000
                </text>
                <text transform="translate(119.5 397.318)">
                    8,000,000
                </text>
                <text transform="translate(119.5 342.773)">
                    10,000,000
                </text>
                <text transform="translate(119.5 288.227)">
                    12,000,000
                </text>
                <text transform="translate(119.5 233.682)">
                    14,000,000
                </text>
                <text transform="translate(119.5 179.136)">
                    16,000,000
                </text>
                <text transform="translate(119.5 124.59)">
                    18,000,000
                </text>
                <text transform="translate(119.5 70.045)">
                    20,000,000
                </text>
                <text transform="translate(119.5 15.5)">
                    22,000,000
                </text>
            </g>
            <path fill="none" stroke="#888" d="M126.5 611.5v-600" pointer-events="none"/>
            <text text-anchor="middle" transform="rotate(-90 164 147.5)" font-family="sans-serif" font-size="14" font-weight="400" pointer-events="none">
                operations / sec
            </text>
        </g>
        <g class="mark-rect role-mark marks" fill="#4c78a8">
            <path d="M129.143 610.288h56.571V611h-56.571zM192 609.984h56.571V611H192zM254.857 590.625h56.572V611h-56.572zM317.714 538.505h56.572V611h-56.572zM380.571 591.13h56.572V611H380.57zM443.429 510.326H500V611h-56.571zM506.286 573.769h56.571V611h-56.571zM569.143 590.466h56.571V611h-56.571zM632 591.712h56.571V611H632zM694.857 599.542h56.572V611h-56.572zM757.714 63.505h56.572V611h-56.572zM820.571 607.558h56.572V611H820.57zM883.429 610.58H940v.42h-56.571zM946.286 609.486h56.571V611h-56.571z"/>
        </g>
    </g>
</svg>
