<svg xmlns="http://www.w3.org/2000/svg" class="marks" width="1001" height="814">
    <path fill="#fff" d="M0 0h1001v814H0z"/>
    <g class="mark-group role-frame root" aria-roledescription="group mark container" fill="none" stroke-miterlimit="10">
        <path class="background" aria-hidden="true" d="M116.5 5.5h880v600h-880z" stroke="#ddd"/>
        <g class="mark-group role-axis" aria-roledescription="axis" aria-label="Y-axis for a linear scale with values from 0 to 4,500,000">
            <path class="background" aria-hidden="true" d="M116.5 5.5z" pointer-events="none"/>
            <g class="mark-rule role-axis-grid" pointer-events="none" stroke="#ddd">
                <path d="M116.5 605.5h880M116.5 578.5h880M116.5 552.5h880M116.5 525.5h880M116.5 498.5h880M116.5 472.5h880M116.5 445.5h880M116.5 418.5h880M116.5 392.5h880M116.5 365.5h880M116.5 338.5h880M116.5 312.5h880M116.5 285.5h880M116.5 258.5h880M116.5 232.5h880M116.5 205.5h880M116.5 178.5h880M116.5 152.5h880M116.5 125.5h880M116.5 98.5h880M116.5 72.5h880M116.5 45.5h880M116.5 18.5h880"/>
            </g>
        </g>
        <g class="mark-group role-axis" aria-roledescription="axis" aria-label="X-axis titled 'module' for a discrete scale with 19 values: bueno, class-transformer-validator-async, class-transformer-validator-sync, computed-types, decoders, ending with zod">
            <path class="background" aria-hidden="true" d="M116.5 605.5z" pointer-events="none"/>
            <g class="mark-rule role-axis-tick" pointer-events="none" stroke="#888">
                <path d="M139.5 605.5v5M185.5 605.5v5M231.5 605.5v5M278.5 605.5v5M324.5 605.5v5M370.5 605.5v5M417.5 605.5v5M463.5 605.5v5M509.5 605.5v5M556.5 605.5v5M602.5 605.5v5M648.5 605.5v5M694.5 605.5v5M741.5 605.5v5M787.5 605.5v5M833.5 605.5v5M880.5 605.5v5M926.5 605.5v5M972.5 605.5v5"/>
            </g>
            <g class="mark-text role-axis-label" pointer-events="none" font-family="sans-serif" font-size="14" fill="#000">
                <text transform="rotate(90 -238.671 373.829)">bueno</text>
                <text transform="rotate(90 -215.513 396.987)">class-transform…</text>
                <text transform="rotate(90 -192.355 420.145)">class-transform…</text>
                <text transform="rotate(90 -169.197 443.303)">computed-types</text>
                <text transform="rotate(90 -146.04 466.46)">decoders</text>
                <text transform="rotate(90 -122.882 489.618)">io-ts</text>
                <text transform="rotate(90 -99.724 512.776)">jointz</text>
                <text transform="rotate(90 -76.566 535.934)">json-decoder</text>
                <text transform="rotate(90 -53.408 559.092)">myzod</text>
                <text transform="rotate(90 -30.25 582.25)">purify-ts</text>
                <text transform="rotate(90 -7.092 605.408)">rulr</text>
                <text transform="rotate(90 16.066 628.566)">runtypes</text>
                <text transform="rotate(90 39.224 651.724)">simple-runtypes</text>
                <text transform="rotate(90 62.382 674.882)">superstruct</text>
                <text transform="rotate(90 85.54 698.04)">toi</text>
                <text transform="rotate(90 108.697 721.197)">ts-utils</text>
                <text transform="rotate(90 131.855 744.355)">valita</text>
                <text transform="rotate(90 155.013 767.513)">yup</text>
                <text transform="rotate(90 178.171 790.671)">zod</text>
            </g>
            <path stroke="#888" d="M116.5 605.5h880" pointer-events="none"/>
            <text text-anchor="middle" transform="translate(556.5 806.5)" font-family="sans-serif" font-size="14" fill="#000" pointer-events="none">module</text>
        </g>
        <g class="mark-group role-axis" aria-roledescription="axis" aria-label="Y-axis titled 'operations / sec' for a linear scale with values from 0 to 4,500,000">
            <path class="background" aria-hidden="true" d="M116.5 5.5z" pointer-events="none"/>
            <g class="mark-rule role-axis-tick" pointer-events="none" stroke="#888">
                <path d="M116.5 605.5h-5M116.5 578.5h-5M116.5 552.5h-5M116.5 525.5h-5M116.5 498.5h-5M116.5 472.5h-5M116.5 445.5h-5M116.5 418.5h-5M116.5 392.5h-5M116.5 365.5h-5M116.5 338.5h-5M116.5 312.5h-5M116.5 285.5h-5M116.5 258.5h-5M116.5 232.5h-5M116.5 205.5h-5M116.5 178.5h-5M116.5 152.5h-5M116.5 125.5h-5M116.5 98.5h-5M116.5 72.5h-5M116.5 45.5h-5M116.5 18.5h-5"/>
            </g>
            <g class="mark-text role-axis-label" pointer-events="none" text-anchor="end" font-family="sans-serif" font-size="12" fill="#000">
                <text transform="translate(109.5 609.5)">0</text>
                <text transform="translate(109.5 582.833)">200,000</text>
                <text transform="translate(109.5 556.167)">400,000</text>
                <text transform="translate(109.5 529.5)">600,000</text>
                <text transform="translate(109.5 502.833)">800,000</text>
                <text transform="translate(109.5 476.167)">1,000,000</text>
                <text transform="translate(109.5 449.5)">1,200,000</text>
                <text transform="translate(109.5 422.833)">1,400,000</text>
                <text transform="translate(109.5 396.167)">1,600,000</text>
                <text transform="translate(109.5 369.5)">1,800,000</text>
                <text transform="translate(109.5 342.833)">2,000,000</text>
                <text transform="translate(109.5 316.167)">2,200,000</text>
                <text transform="translate(109.5 289.5)">2,400,000</text>
                <text transform="translate(109.5 262.833)">2,600,000</text>
                <text transform="translate(109.5 236.167)">2,800,000</text>
                <text transform="translate(109.5 209.5)">3,000,000</text>
                <text transform="translate(109.5 182.833)">3,200,000</text>
                <text transform="translate(109.5 156.167)">3,400,000</text>
                <text transform="translate(109.5 129.5)">3,600,000</text>
                <text transform="translate(109.5 102.833)">3,800,000</text>
                <text transform="translate(109.5 76.167)">4,000,000</text>
                <text transform="translate(109.5 49.5)">4,200,000</text>
                <text transform="translate(109.5 22.833)">4,400,000</text>
            </g>
            <path stroke="#888" d="M116.5 605.5V5.5" pointer-events="none"/>
            <text text-anchor="middle" transform="rotate(-90 161 144.5)" font-family="sans-serif" font-size="14" fill="#000" pointer-events="none">operations / sec</text>
        </g>
        <g class="mark-rect role-mark marks" aria-roledescription="rect mark container" fill="#4c78a8">
            <path d="M118.316 579.858H160V605h-41.684zM164.632 599.98h41.684V605h-41.684zM210.947 599.029h41.685V605h-41.685zM257.263 485.499h41.684V605h-41.684zM303.579 571.671h41.684V605H303.58zM349.895 396.126h41.684V605h-41.684zM396.21 372.52h41.685V605H396.21zM442.526 470.682h41.685V605h-41.685zM488.842 399.545h41.684V605h-41.684zM535.158 477.44h41.684V605h-41.684zM581.474 482.466h41.684V605h-41.684zM627.79 449.709h41.684V605h-41.685zM674.105 336.867h41.684V605h-41.684zM720.421 594.802h41.684V605h-41.684zM766.737 520.266h41.684V605h-41.684zM813.053 580.088h41.684V605h-41.684zM859.368 39.295h41.685V605h-41.685zM905.684 603.082h41.684V605h-41.684zM952 603.775h41.684V605H952z"/>
        </g>
    </g>
</svg>
