<svg xmlns="http://www.w3.org/2000/svg" class="marks" width="1011" height="820">
    <path fill="#fff" d="M0 0h1011v820H0z"/>
    <g class="mark-group role-frame root" aria-roledescription="group mark container" fill="none" stroke-miterlimit="10">
        <path class="background" aria-hidden="true" d="M126.5 11.5h880v600h-880Z" stroke="#ddd"/>
        <g class="mark-group role-axis" aria-roledescription="axis" aria-label="Y-axis for a linear scale with values from 0 to 11,000,000">
            <path class="background" aria-hidden="true" d="M126.5 11.5Z" pointer-events="none"/>
            <g class="mark-rule role-axis-grid" pointer-events="none" stroke="#ddd">
                <path d="M126.5 611.5h880M126.5 556.5h880M126.5 502.5h880M126.5 447.5h880M126.5 393.5h880M126.5 338.5h880M126.5 284.5h880M126.5 229.5h880M126.5 175.5h880M126.5 120.5h880M126.5 66.5h880M126.5 11.5h880"/>
            </g>
        </g>
        <g pointer-events="none" class="mark-group role-axis" aria-roledescription="axis" aria-label="X-axis titled 'module' for a discrete scale with 23 values: @mojotech/json-type-validation, @typeofweb/schema, ajv, bueno, class-transformer-validator-async, ending with zod">
            <path class="background" aria-hidden="true" d="M126.5 611.5Z"/>
            <g class="mark-rule role-axis-tick" stroke="#888">
                <path d="M145.5 611.5v5M183.5 611.5v5M221.5 611.5v5M259.5 611.5v5M298.5 611.5v5M336.5 611.5v5M374.5 611.5v5M412.5 611.5v5M451.5 611.5v5M489.5 611.5v5M527.5 611.5v5M566.5 611.5v5M604.5 611.5v5M642.5 611.5v5M680.5 611.5v5M719.5 611.5v5M757.5 611.5v5M795.5 611.5v5M833.5 611.5v5M872.5 611.5v5M910.5 611.5v5M948.5 611.5v5M986.5 611.5v5"/>
            </g>
            <g class="mark-text role-axis-label" font-family="sans-serif" font-size="14" fill="#000">
                <text transform="rotate(90 -238.685 379.815)">@mojotech/json-…</text>
                <text transform="rotate(90 -219.554 398.946)">@typeofweb/sche…</text>
                <text transform="rotate(90 -200.424 418.076)">ajv</text>
                <text transform="rotate(90 -181.293 437.207)">bueno</text>
                <text transform="rotate(90 -162.163 456.337)">class-transform…</text>
                <text transform="rotate(90 -143.033 475.467)">class-transform…</text>
                <text transform="rotate(90 -123.902 494.598)">computed-types</text>
                <text transform="rotate(90 -104.772 513.728)">decoders</text>
                <text transform="rotate(90 -85.641 532.859)">io-ts</text>
                <text transform="rotate(90 -66.51 551.99)">jointz</text>
                <text transform="rotate(90 -47.38 571.12)">json-decoder</text>
                <text transform="rotate(90 -28.25 590.25)">myzod</text>
                <text transform="rotate(90 -9.12 609.38)">purify-ts</text>
                <text transform="rotate(90 10.01 628.51)">rulr</text>
                <text transform="rotate(90 29.141 647.641)">runtypes</text>
                <text transform="rotate(90 48.272 666.772)">simple-runtypes</text>
                <text transform="rotate(90 67.402 685.902)">superstruct</text>
                <text transform="rotate(90 86.533 705.033)">toi</text>
                <text transform="rotate(90 105.663 724.163)">ts-interface-ch…</text>
                <text transform="rotate(90 124.793 743.293)">ts-utils</text>
                <text transform="rotate(90 143.924 762.424)">valita</text>
                <text transform="rotate(90 163.054 781.554)">yup</text>
                <text transform="rotate(90 182.185 800.685)">zod</text>
            </g>
            <path stroke="#888" d="M126.5 611.5h880" class="mark-rule role-axis-domain"/>
            <text text-anchor="middle" transform="translate(566.5 812.5)" font-family="sans-serif" font-size="14" fill="#000" class="mark-text role-axis-title">module</text>
        </g>
        <g pointer-events="none" class="mark-group role-axis" aria-roledescription="axis" aria-label="Y-axis titled 'operations / sec' for a linear scale with values from 0 to 11,000,000">
            <path class="background" aria-hidden="true" d="M126.5 11.5Z"/>
            <g class="mark-rule role-axis-tick" stroke="#888">
                <path d="M126.5 611.5h-5M126.5 556.5h-5M126.5 502.5h-5M126.5 447.5h-5M126.5 393.5h-5M126.5 338.5h-5M126.5 284.5h-5M126.5 229.5h-5M126.5 175.5h-5M126.5 120.5h-5M126.5 66.5h-5M126.5 11.5h-5"/>
            </g>
            <g class="mark-text role-axis-label" text-anchor="end" font-family="sans-serif" font-size="12" fill="#000">
                <text transform="translate(119.5 615.5)">0</text>
                <text transform="translate(119.5 560.955)">1,000,000</text>
                <text transform="translate(119.5 506.41)">2,000,000</text>
                <text transform="translate(119.5 451.864)">3,000,000</text>
                <text transform="translate(119.5 397.318)">4,000,000</text>
                <text transform="translate(119.5 342.773)">5,000,000</text>
                <text transform="translate(119.5 288.227)">6,000,000</text>
                <text transform="translate(119.5 233.682)">7,000,000</text>
                <text transform="translate(119.5 179.136)">8,000,000</text>
                <text transform="translate(119.5 124.59)">9,000,000</text>
                <text transform="translate(119.5 70.045)">10,000,000</text>
                <text transform="translate(119.5 15.5)">11,000,000</text>
            </g>
            <path stroke="#888" d="M126.5 611.5v-600" class="mark-rule role-axis-domain"/>
            <text text-anchor="middle" transform="rotate(-90 164 147.5)" font-family="sans-serif" font-size="14" fill="#000" class="mark-text role-axis-title">operations / sec</text>
        </g>
        <g class="mark-rect role-mark marks" aria-roledescription="rect mark container" fill="#4c78a8">
            <path d="M242.696 603.149h34.434V611h-34.434ZM280.957 609.215h34.434V611h-34.434ZM319.217 608.87h34.435V611h-34.435ZM357.478 574.803h34.435V611h-34.435ZM395.74 601.149h34.434V611h-34.435ZM434 557.568h34.435V611H434ZM472.26 542.598h34.436V611H472.26ZM510.522 576.587h34.435V611h-34.435ZM127.913 552.524h34.435V611h-34.435ZM548.783 555.959h34.434V611h-34.434ZM587.043 575.976h34.435V611h-34.435ZM625.304 575.547h34.435V611h-34.435ZM663.565 579.182H698V611h-34.435ZM701.826 528.955h34.435V611h-34.435ZM740.087 606.388h34.435V611h-34.435ZM778.348 589.571h34.435V611h-34.435ZM816.609 506.593h34.434V611H816.61ZM854.87 605.172h34.434V611H854.87ZM166.174 567.881h34.435V611h-34.435ZM893.13 489.776h34.435V611H893.13ZM931.391 609.817h34.435V611h-34.435ZM969.652 589.98h34.435V611h-34.435ZM204.435 58.102h34.435V611h-34.435Z"/>
        </g>
    </g>
</svg>
