<svg class="marks" width="1020" height="820" xmlns="http://www.w3.org/2000/svg">
    <path fill="#fff" d="M0 0h1020v820H0z"/>
    <g class="mark-group role-frame root" aria-roledescription="group mark container">
        <path class="background" aria-hidden="true" d="M135.5 11.5h880v600h-880z" fill="none" stroke="#ddd"/>
        <g class="mark-group role-axis" aria-roledescription="axis" aria-label="Y-axis for a linear scale with values from 0 to 110,000,000">
            <path class="background" aria-hidden="true" d="M135.5 11.5z" pointer-events="none" fill="none"/>
            <g class="mark-rule role-axis-grid" pointer-events="none" fill="none" stroke="#ddd">
                <path d="M135.5 611.5h880M135.5 556.5h880M135.5 502.5h880M135.5 447.5h880M135.5 393.5h880M135.5 338.5h880M135.5 284.5h880M135.5 229.5h880M135.5 175.5h880M135.5 120.5h880M135.5 66.5h880M135.5 11.5h880"/>
            </g>
        </g>
        <g class="mark-group role-axis" aria-roledescription="axis" aria-label="X-axis titled 'module' for a discrete scale with 16 values: class-transformer-validator-async, class-transformer-validator-sync, funval, io-ts, jointz, ending with zod">
            <path class="background" aria-hidden="true" d="M135.5 611.5z" pointer-events="none" fill="none"/>
            <g class="mark-rule role-axis-tick" pointer-events="none" fill="none" stroke="#888">
                <path d="M162.5 611.5v5M217.5 611.5v5M272.5 611.5v5M327.5 611.5v5M382.5 611.5v5M437.5 611.5v5M492.5 611.5v5M547.5 611.5v5M602.5 611.5v5M657.5 611.5v5M712.5 611.5v5M767.5 611.5v5M822.5 611.5v5M877.5 611.5v5M932.5 611.5v5M987.5 611.5v5"/>
            </g>
            <g class="mark-text role-axis-label" pointer-events="none" font-family="sans-serif" font-size="14">
                <text transform="rotate(90 -230 388.5)">
                    class-transform…
                </text>
                <text transform="rotate(90 -202.5 416)">
                    class-transform…
                </text>
                <text transform="rotate(90 -175 443.5)">
                    funval
                </text>
                <text transform="rotate(90 -147.5 471)">
                    io-ts
                </text>
                <text transform="rotate(90 -120 498.5)">
                    jointz
                </text>
                <text transform="rotate(90 -92.5 526)">
                    json-decoder
                </text>
                <text transform="rotate(90 -65 553.5)">
                    marshal
                </text>
                <text transform="rotate(90 -37.5 581)">
                    myzod
                </text>
                <text transform="rotate(90 -10 608.5)">
                    purify-ts
                </text>
                <text transform="rotate(90 17.5 636)">
                    quartet
                </text>
                <text transform="rotate(90 45 663.5)">
                    runtypes
                </text>
                <text transform="rotate(90 72.5 691)">
                    toi
                </text>
                <text transform="rotate(90 100 718.5)">
                    ts-json-validat…
                </text>
                <text transform="rotate(90 127.5 746)">
                    ts-utils
                </text>
                <text transform="rotate(90 155 773.5)">
                    yup
                </text>
                <text transform="rotate(90 182.5 801)">
                    zod
                </text>
            </g>
            <path fill="none" stroke="#888" d="M135.5 611.5h880" pointer-events="none"/>
            <text text-anchor="middle" transform="translate(575.5 812.5)" font-family="sans-serif" font-size="14" font-weight="400" pointer-events="none">
                module
            </text>
        </g>
        <g class="mark-group role-axis" aria-roledescription="axis" aria-label="Y-axis titled 'operations / sec' for a linear scale with values from 0 to 110,000,000">
            <path class="background" aria-hidden="true" d="M135.5 11.5z" pointer-events="none" fill="none"/>
            <g class="mark-rule role-axis-tick" pointer-events="none" fill="none" stroke="#888">
                <path d="M135.5 611.5h-5M135.5 556.5h-5M135.5 502.5h-5M135.5 447.5h-5M135.5 393.5h-5M135.5 338.5h-5M135.5 284.5h-5M135.5 229.5h-5M135.5 175.5h-5M135.5 120.5h-5M135.5 66.5h-5M135.5 11.5h-5"/>
            </g>
            <g class="mark-text role-axis-label" pointer-events="none" text-anchor="end" font-family="sans-serif" font-size="12">
                <text transform="translate(128.5 615.5)">
                    0
                </text>
                <text transform="translate(128.5 560.955)">
                    10,000,000
                </text>
                <text transform="translate(128.5 506.41)">
                    20,000,000
                </text>
                <text transform="translate(128.5 451.864)">
                    30,000,000
                </text>
                <text transform="translate(128.5 397.318)">
                    40,000,000
                </text>
                <text transform="translate(128.5 342.773)">
                    50,000,000
                </text>
                <text transform="translate(128.5 288.227)">
                    60,000,000
                </text>
                <text transform="translate(128.5 233.682)">
                    70,000,000
                </text>
                <text transform="translate(128.5 179.136)">
                    80,000,000
                </text>
                <text transform="translate(128.5 124.59)">
                    90,000,000
                </text>
                <text transform="translate(128.5 70.045)">
                    100,000,000
                </text>
                <text transform="translate(128.5 15.5)">
                    110,000,000
                </text>
            </g>
            <path fill="none" stroke="#888" d="M135.5 611.5v-600" pointer-events="none"/>
            <text text-anchor="middle" transform="rotate(-90 164 147.5)" font-family="sans-serif" font-size="14" font-weight="400" pointer-events="none">
                operations / sec
            </text>
        </g>
        <g class="mark-rect role-mark marks" aria-roledescription="rect mark container" fill="#4c78a8">
            <path d="M137.75 610.893h49.5V611h-49.5zM192.75 610.83h49.5v.17h-49.5zM247.75 606.888h49.5V611h-49.5zM302.75 598.946h49.5V611h-49.5zM357.75 606.005h49.5V611h-49.5zM412.75 606.84h49.5V611h-49.5zM467.75 587.38h49.5V611h-49.5zM522.75 604.132h49.5V611h-49.5zM577.75 606.877h49.5V611h-49.5zM632.75 51.379h49.5V611h-49.5zM687.75 606.948h49.5V611h-49.5zM742.75 608.571h49.5V611h-49.5zM797.75 440.071h49.5V611h-49.5zM852.75 610.273h49.5V611h-49.5zM907.75 610.913h49.5V611h-49.5zM962.75 610.643h49.5V611h-49.5z"/>
        </g>
    </g>
</svg>
