<svg class="marks" width="1011" height="820" xmlns="http://www.w3.org/2000/svg">
    <path fill="#fff" d="M0 0h1011v820H0z"/>
    <g class="mark-group role-frame root">
        <path class="background" d="M126.5 11.5h880v600h-880z" fill="none" stroke="#ddd"/>
        <g class="mark-group role-axis">
            <path class="background" d="M126.5 11.5z" pointer-events="none" fill="none"/>
            <g class="mark-rule role-axis-grid" pointer-events="none" fill="none" stroke="#ddd">
                <path d="M126.5 611.5h880M126.5 551.5h880M126.5 491.5h880M126.5 431.5h880M126.5 371.5h880M126.5 311.5h880M126.5 251.5h880M126.5 191.5h880M126.5 131.5h880M126.5 71.5h880M126.5 11.5h880"/>
            </g>
        </g>
        <g class="mark-group role-axis">
            <path class="background" d="M126.5 611.5z" pointer-events="none" fill="none"/>
            <g class="mark-rule role-axis-tick" pointer-events="none" fill="none" stroke="#888">
                <path d="M153.5 611.5v5M208.5 611.5v5M263.5 611.5v5M318.5 611.5v5M373.5 611.5v5M428.5 611.5v5M483.5 611.5v5M538.5 611.5v5M593.5 611.5v5M648.5 611.5v5M703.5 611.5v5M758.5 611.5v5M813.5 611.5v5M868.5 611.5v5M923.5 611.5v5M978.5 611.5v5"/>
            </g>
            <g class="mark-text role-axis-label" pointer-events="none" font-family="sans-serif" font-size="14">
                <text transform="rotate(90 -234.5 384)">
                    class-transform…
                </text>
                <text transform="rotate(90 -207 411.5)">
                    class-transform…
                </text>
                <text transform="rotate(90 -179.5 439)">
                    funval
                </text>
                <text transform="rotate(90 -152 466.5)">
                    io-ts
                </text>
                <text transform="rotate(90 -124.5 494)">
                    jointz
                </text>
                <text transform="rotate(90 -97 521.5)">
                    json-decoder
                </text>
                <text transform="rotate(90 -69.5 549)">
                    marshal
                </text>
                <text transform="rotate(90 -42 576.5)">
                    myzod
                </text>
                <text transform="rotate(90 -14.5 604)">
                    purify-ts
                </text>
                <text transform="rotate(90 13 631.5)">
                    quartet
                </text>
                <text transform="rotate(90 40.5 659)">
                    runtypes
                </text>
                <text transform="rotate(90 68 686.5)">
                    toi
                </text>
                <text transform="rotate(90 95.5 714)">
                    ts-json-validat…
                </text>
                <text transform="rotate(90 123 741.5)">
                    ts-utils
                </text>
                <text transform="rotate(90 150.5 769)">
                    yup
                </text>
                <text transform="rotate(90 178 796.5)">
                    zod
                </text>
            </g>
            <path fill="none" stroke="#888" d="M126.5 611.5h880" pointer-events="none"/>
            <text text-anchor="middle" transform="translate(566.5 812.5)" font-family="sans-serif" font-size="14" font-weight="400" pointer-events="none">
                module
            </text>
        </g>
        <g class="mark-group role-axis">
            <path class="background" d="M126.5 11.5z" pointer-events="none" fill="none"/>
            <g class="mark-rule role-axis-tick" pointer-events="none" fill="none" stroke="#888">
                <path d="M126.5 611.5h-5M126.5 551.5h-5M126.5 491.5h-5M126.5 431.5h-5M126.5 371.5h-5M126.5 311.5h-5M126.5 251.5h-5M126.5 191.5h-5M126.5 131.5h-5M126.5 71.5h-5M126.5 11.5h-5"/>
            </g>
            <g class="mark-text role-axis-label" pointer-events="none" text-anchor="end" font-family="sans-serif" font-size="12">
                <text transform="translate(119.5 615.5)">
                    0
                </text>
                <text transform="translate(119.5 555.5)">
                    5,000,000
                </text>
                <text transform="translate(119.5 495.5)">
                    10,000,000
                </text>
                <text transform="translate(119.5 435.5)">
                    15,000,000
                </text>
                <text transform="translate(119.5 375.5)">
                    20,000,000
                </text>
                <text transform="translate(119.5 315.5)">
                    25,000,000
                </text>
                <text transform="translate(119.5 255.5)">
                    30,000,000
                </text>
                <text transform="translate(119.5 195.5)">
                    35,000,000
                </text>
                <text transform="translate(119.5 135.5)">
                    40,000,000
                </text>
                <text transform="translate(119.5 75.5)">
                    45,000,000
                </text>
                <text transform="translate(119.5 15.5)">
                    50,000,000
                </text>
            </g>
            <path fill="none" stroke="#888" d="M126.5 611.5v-600" pointer-events="none"/>
            <text text-anchor="middle" transform="rotate(-90 164 147.5)" font-family="sans-serif" font-size="14" font-weight="400" pointer-events="none">
                operations / sec
            </text>
        </g>
        <g class="mark-rect role-mark marks" fill="#4c78a8">
            <path d="M128.75 610.656h49.5V611h-49.5zM183.75 610.607h49.5V611h-49.5zM238.75 602.985h49.5V611h-49.5zM293.75 587.368h49.5V611h-49.5zM348.75 600.3h49.5V611h-49.5zM403.75 602.373h49.5V611h-49.5zM458.75 563.139h49.5V611h-49.5zM513.75 595.641h49.5V611h-49.5zM568.75 601.967h49.5V611h-49.5zM623.75 12h49.5v599h-49.5zM678.75 602.293h49.5V611h-49.5zM733.75 605.955h49.5V611h-49.5zM788.75 324.454h49.5V611h-49.5zM843.75 609.447h49.5V611h-49.5zM898.75 610.844h49.5V611h-49.5zM953.75 610.324h49.5V611h-49.5z"/>
        </g>
    </g>
</svg>
