<svg xmlns="http://www.w3.org/2000/svg" class="marks" width="1011" height="814">
    <path fill="#fff" d="M0 0h1011v814H0z"/>
    <g class="mark-group role-frame root" aria-roledescription="group mark container" fill="none" stroke-miterlimit="10">
        <path class="background" aria-hidden="true" d="M126.5 5.5h880v600h-880z" stroke="#ddd"/>
        <g class="mark-group role-axis" aria-roledescription="axis" aria-label="Y-axis for a linear scale with values from 0 to 35,000,000">
            <path class="background" aria-hidden="true" d="M126.5 5.5z" pointer-events="none"/>
            <g class="mark-rule role-axis-grid" pointer-events="none" stroke="#ddd">
                <path d="M126.5 605.5h880M126.5 571.5h880M126.5 536.5h880M126.5 502.5h880M126.5 468.5h880M126.5 434.5h880M126.5 399.5h880M126.5 365.5h880M126.5 331.5h880M126.5 296.5h880M126.5 262.5h880M126.5 228.5h880M126.5 194.5h880M126.5 159.5h880M126.5 125.5h880M126.5 91.5h880M126.5 56.5h880M126.5 22.5h880"/>
            </g>
        </g>
        <g class="mark-group role-axis" aria-roledescription="axis" aria-label="X-axis titled 'module' for a discrete scale with 24 values: @typeofweb/schema, bueno, class-transformer-validator-async, class-transformer-validator-sync, computed-types, ending with zod">
            <path class="background" aria-hidden="true" d="M126.5 605.5z" pointer-events="none"/>
            <g class="mark-rule role-axis-tick" pointer-events="none" stroke="#888">
                <path d="M144.5 605.5v5M181.5 605.5v5M217.5 605.5v5M254.5 605.5v5M291.5 605.5v5M327.5 605.5v5M364.5 605.5v5M401.5 605.5v5M437.5 605.5v5M474.5 605.5v5M511.5 605.5v5M547.5 605.5v5M584.5 605.5v5M621.5 605.5v5M657.5 605.5v5M694.5 605.5v5M731.5 605.5v5M767.5 605.5v5M804.5 605.5v5M841.5 605.5v5M877.5 605.5v5M914.5 605.5v5M951.5 605.5v5M987.5 605.5v5"/>
            </g>
            <g class="mark-text role-axis-label" pointer-events="none" font-family="sans-serif" font-size="14" fill="#000">
                <text transform="rotate(90 -236.083 376.417)">@typeofweb/sche…</text>
                <text transform="rotate(90 -217.75 394.75)">bueno</text>
                <text transform="rotate(90 -199.417 413.083)">class-transform…</text>
                <text transform="rotate(90 -181.083 431.417)">class-transform…</text>
                <text transform="rotate(90 -162.75 449.75)">computed-types</text>
                <text transform="rotate(90 -144.417 468.083)">decoders</text>
                <text transform="rotate(90 -126.083 486.417)">io-ts</text>
                <text transform="rotate(90 -107.75 504.75)">jointz</text>
                <text transform="rotate(90 -89.417 523.083)">json-decoder</text>
                <text transform="rotate(90 -71.083 541.417)">marshal</text>
                <text transform="rotate(90 -52.75 559.75)">myzod</text>
                <text transform="rotate(90 -34.417 578.083)">purify-ts</text>
                <text transform="rotate(90 -16.083 596.417)">rulr</text>
                <text transform="rotate(90 2.25 614.75)">runtypes</text>
                <text transform="rotate(90 20.583 633.083)">simple-runtypes</text>
                <text transform="rotate(90 38.917 651.417)">superstruct</text>
                <text transform="rotate(90 57.25 669.75)">suretype</text>
                <text transform="rotate(90 75.583 688.083)">toi</text>
                <text transform="rotate(90 93.917 706.417)">ts-interface-ch…</text>
                <text transform="rotate(90 112.25 724.75)">ts-json-validat…</text>
                <text transform="rotate(90 130.583 743.083)">ts-utils</text>
                <text transform="rotate(90 148.917 761.417)">valita</text>
                <text transform="rotate(90 167.25 779.75)">yup</text>
                <text transform="rotate(90 185.583 798.083)">zod</text>
            </g>
            <path stroke="#888" d="M126.5 605.5h880" class="mark-rule role-axis-domain" pointer-events="none"/>
            <text text-anchor="middle" transform="translate(566.5 806.5)" font-family="sans-serif" font-size="14" fill="#000" class="mark-text role-axis-title" pointer-events="none">module</text>
        </g>
        <g class="mark-group role-axis" aria-roledescription="axis" aria-label="Y-axis titled 'operations / sec' for a linear scale with values from 0 to 35,000,000">
            <path class="background" aria-hidden="true" d="M126.5 5.5z" pointer-events="none"/>
            <g class="mark-rule role-axis-tick" pointer-events="none" stroke="#888">
                <path d="M126.5 605.5h-5M126.5 571.5h-5M126.5 536.5h-5M126.5 502.5h-5M126.5 468.5h-5M126.5 434.5h-5M126.5 399.5h-5M126.5 365.5h-5M126.5 331.5h-5M126.5 296.5h-5M126.5 262.5h-5M126.5 228.5h-5M126.5 194.5h-5M126.5 159.5h-5M126.5 125.5h-5M126.5 91.5h-5M126.5 56.5h-5M126.5 22.5h-5"/>
            </g>
            <g class="mark-text role-axis-label" pointer-events="none" text-anchor="end" font-family="sans-serif" font-size="12" fill="#000">
                <text transform="translate(119.5 609.5)">0</text>
                <text transform="translate(119.5 575.214)">2,000,000</text>
                <text transform="translate(119.5 540.929)">4,000,000</text>
                <text transform="translate(119.5 506.643)">6,000,000</text>
                <text transform="translate(119.5 472.357)">8,000,000</text>
                <text transform="translate(119.5 438.071)">10,000,000</text>
                <text transform="translate(119.5 403.786)">12,000,000</text>
                <text transform="translate(119.5 369.5)">14,000,000</text>
                <text transform="translate(119.5 335.214)">16,000,000</text>
                <text transform="translate(119.5 300.929)">18,000,000</text>
                <text transform="translate(119.5 266.643)">20,000,000</text>
                <text transform="translate(119.5 232.357)">22,000,000</text>
                <text transform="translate(119.5 198.071)">24,000,000</text>
                <text transform="translate(119.5 163.786)">26,000,000</text>
                <text transform="translate(119.5 129.5)">28,000,000</text>
                <text transform="translate(119.5 95.214)">30,000,000</text>
                <text transform="translate(119.5 60.929)">32,000,000</text>
                <text transform="translate(119.5 26.643)">34,000,000</text>
            </g>
            <path stroke="#888" d="M126.5 605.5V5.5" class="mark-rule role-axis-domain" pointer-events="none"/>
            <text text-anchor="middle" transform="rotate(-90 161 144.5)" font-family="sans-serif" font-size="14" fill="#000" class="mark-text role-axis-title" pointer-events="none">operations / sec</text>
        </g>
        <g class="mark-rect role-mark marks" aria-roledescription="rect mark container" fill="#4c78a8">
            <path d="M164.5 602.434h33V605h-33zM201.167 604.51h33v.49h-33zM237.833 604.443h33V605h-33zM274.5 591.162h33V605h-33zM311.167 600.847h33V605h-33zM347.833 587.227h33V605h-33zM384.5 586.78h33V605h-33zM421.167 590.23h33V605h-33zM457.833 213.013h33V605h-33zM494.5 582.722h33V605h-33zM531.167 596.927h33V605h-33zM567.833 592.278h33V605h-33zM604.5 591.368h33V605h-33zM641.167 574.82h33V605h-33zM677.833 603.219h33V605h-33zM714.5 64.872h33V605h-33zM751.167 596.223h33V605h-33zM787.833 560.08h33V605h-33zM824.5 129.923h33V605h-33zM861.167 602.73h33V605h-33zM127.833 592.998h33V605h-33zM897.833 539.047h33V605h-33zM934.5 604.609h33V605h-33zM971.167 604.794h33V605h-33z"/>
        </g>
    </g>
</svg>
