<svg class="marks" width="1011" height="814" xmlns="http://www.w3.org/2000/svg">
    <path fill="#fff" d="M0 0h1011v814H0z"/>
    <g class="mark-group role-frame root" aria-roledescription="group mark container">
        <path class="background" aria-hidden="true" d="M126.5 5.5h880v600h-880z" fill="none" stroke="#ddd"/>
        <g class="mark-group role-axis" aria-hidden="true">
            <path class="background" aria-hidden="true" d="M126.5 5.5z" pointer-events="none" fill="none"/>
            <g class="mark-rule role-axis-grid" pointer-events="none" fill="none" stroke="#ddd">
                <path d="M126.5 605.5h880M126.5 571.5h880M126.5 536.5h880M126.5 502.5h880M126.5 468.5h880M126.5 434.5h880M126.5 399.5h880M126.5 365.5h880M126.5 331.5h880M126.5 296.5h880M126.5 262.5h880M126.5 228.5h880M126.5 194.5h880M126.5 159.5h880M126.5 125.5h880M126.5 91.5h880M126.5 56.5h880M126.5 22.5h880"/>
            </g>
        </g>
        <g class="mark-group role-axis" aria-roledescription="axis" aria-label="X-axis titled 'module' for a discrete scale with 16 values: class-transformer-validator-async, class-transformer-validator-sync, funval, io-ts, jointz, ending with zod">
            <path class="background" aria-hidden="true" d="M126.5 605.5z" pointer-events="none" fill="none"/>
            <g class="mark-rule role-axis-tick" pointer-events="none" fill="none" stroke="#888">
                <path d="M153.5 605.5v5M208.5 605.5v5M263.5 605.5v5M318.5 605.5v5M373.5 605.5v5M428.5 605.5v5M483.5 605.5v5M538.5 605.5v5M593.5 605.5v5M648.5 605.5v5M703.5 605.5v5M758.5 605.5v5M813.5 605.5v5M868.5 605.5v5M923.5 605.5v5M978.5 605.5v5"/>
            </g>
            <g class="mark-text role-axis-label" pointer-events="none" font-family="sans-serif" font-size="14">
                <text transform="rotate(90 -231.5 381)">
                    class-transform…
                </text>
                <text transform="rotate(90 -204 408.5)">
                    class-transform…
                </text>
                <text transform="rotate(90 -176.5 436)">
                    funval
                </text>
                <text transform="rotate(90 -149 463.5)">
                    io-ts
                </text>
                <text transform="rotate(90 -121.5 491)">
                    jointz
                </text>
                <text transform="rotate(90 -94 518.5)">
                    json-decoder
                </text>
                <text transform="rotate(90 -66.5 546)">
                    marshal
                </text>
                <text transform="rotate(90 -39 573.5)">
                    myzod
                </text>
                <text transform="rotate(90 -11.5 601)">
                    purify-ts
                </text>
                <text transform="rotate(90 16 628.5)">
                    quartet
                </text>
                <text transform="rotate(90 43.5 656)">
                    runtypes
                </text>
                <text transform="rotate(90 71 683.5)">
                    toi
                </text>
                <text transform="rotate(90 98.5 711)">
                    ts-json-validat…
                </text>
                <text transform="rotate(90 126 738.5)">
                    ts-utils
                </text>
                <text transform="rotate(90 153.5 766)">
                    yup
                </text>
                <text transform="rotate(90 181 793.5)">
                    zod
                </text>
            </g>
            <path fill="none" stroke="#888" d="M126.5 605.5h880" pointer-events="none"/>
            <text text-anchor="middle" transform="translate(566.5 806.5)" font-family="sans-serif" font-size="14" font-weight="400" pointer-events="none">
                module
            </text>
        </g>
        <g class="mark-group role-axis" aria-roledescription="axis" aria-label="Y-axis titled 'operations / sec' for a linear scale with values from 0 to 35,000,000">
            <path class="background" aria-hidden="true" d="M126.5 5.5z" pointer-events="none" fill="none"/>
            <g class="mark-rule role-axis-tick" pointer-events="none" fill="none" stroke="#888">
                <path d="M126.5 605.5h-5M126.5 571.5h-5M126.5 536.5h-5M126.5 502.5h-5M126.5 468.5h-5M126.5 434.5h-5M126.5 399.5h-5M126.5 365.5h-5M126.5 331.5h-5M126.5 296.5h-5M126.5 262.5h-5M126.5 228.5h-5M126.5 194.5h-5M126.5 159.5h-5M126.5 125.5h-5M126.5 91.5h-5M126.5 56.5h-5M126.5 22.5h-5"/>
            </g>
            <g class="mark-text role-axis-label" pointer-events="none" text-anchor="end" font-family="sans-serif" font-size="12">
                <text transform="translate(119.5 609.5)">
                    0
                </text>
                <text transform="translate(119.5 575.214)">
                    2,000,000
                </text>
                <text transform="translate(119.5 540.929)">
                    4,000,000
                </text>
                <text transform="translate(119.5 506.643)">
                    6,000,000
                </text>
                <text transform="translate(119.5 472.357)">
                    8,000,000
                </text>
                <text transform="translate(119.5 438.071)">
                    10,000,000
                </text>
                <text transform="translate(119.5 403.786)">
                    12,000,000
                </text>
                <text transform="translate(119.5 369.5)">
                    14,000,000
                </text>
                <text transform="translate(119.5 335.214)">
                    16,000,000
                </text>
                <text transform="translate(119.5 300.929)">
                    18,000,000
                </text>
                <text transform="translate(119.5 266.643)">
                    20,000,000
                </text>
                <text transform="translate(119.5 232.357)">
                    22,000,000
                </text>
                <text transform="translate(119.5 198.071)">
                    24,000,000
                </text>
                <text transform="translate(119.5 163.786)">
                    26,000,000
                </text>
                <text transform="translate(119.5 129.5)">
                    28,000,000
                </text>
                <text transform="translate(119.5 95.214)">
                    30,000,000
                </text>
                <text transform="translate(119.5 60.929)">
                    32,000,000
                </text>
                <text transform="translate(119.5 26.643)">
                    34,000,000
                </text>
            </g>
            <path fill="none" stroke="#888" d="M126.5 605.5V5.5" pointer-events="none"/>
            <text text-anchor="middle" transform="rotate(-90 161 144.5)" font-family="sans-serif" font-size="14" font-weight="400" pointer-events="none">
                operations / sec
            </text>
        </g>
        <g class="mark-rect role-mark marks" aria-roledescription="rect mark container" fill="#4c78a8">
            <path aria-label="operations / sec: 39055; module: class-transformer-validator-async" aria-roledescription="bar" d="M128.75 604.33h49.5v.67h-49.5z"/>
            <path aria-label="operations / sec: 47402; module: class-transformer-validator-sync" aria-roledescription="bar" d="M183.75 604.187h49.5V605h-49.5z"/>
            <path aria-label="operations / sec: 915977; module: funval" aria-roledescription="bar" d="M238.75 589.298h49.5V605h-49.5z"/>
            <path aria-label="operations / sec: 3131114; module: io-ts" aria-roledescription="bar" d="M293.75 551.324h49.5V605h-49.5z"/>
            <path aria-label="operations / sec: 1702429; module: jointz" aria-roledescription="bar" d="M348.75 575.816h49.5V605h-49.5z"/>
            <path aria-label="operations / sec: 892923; module: json-decoder" aria-roledescription="bar" d="M403.75 589.693h49.5V605h-49.5z"/>
            <path aria-label="operations / sec: 4554963; module: marshal" aria-roledescription="bar" d="M458.75 526.915h49.5V605h-49.5z"/>
            <path aria-label="operations / sec: 1589536; module: myzod" aria-roledescription="bar" d="M513.75 577.75h49.5V605h-49.5z"/>
            <path aria-label="operations / sec: 952644; module: purify-ts" aria-roledescription="bar" d="M568.75 588.669h49.5V605h-49.5z"/>
            <path aria-label="operations / sec: 34927037; module: quartet" aria-roledescription="bar" d="M623.75 6.25h49.5V605h-49.5z"/>
            <path aria-label="operations / sec: 905835; module: runtypes" aria-roledescription="bar" d="M678.75 589.471h49.5V605h-49.5z"/>
            <path aria-label="operations / sec: 486763; module: toi" aria-roledescription="bar" d="M733.75 596.655h49.5V605h-49.5z"/>
            <path aria-label="operations / sec: 21762063; module: ts-json-validator" aria-roledescription="bar" d="M788.75 231.936h49.5V605h-49.5z"/>
            <path aria-label="operations / sec: 152151; module: ts-utils" aria-roledescription="bar" d="M843.75 602.392h49.5V605h-49.5z"/>
            <path aria-label="operations / sec: 17742; module: yup" aria-roledescription="bar" d="M898.75 604.696h49.5V605h-49.5z"/>
            <path aria-label="operations / sec: 60383; module: zod" aria-roledescription="bar" d="M953.75 603.965h49.5V605h-49.5z"/>
        </g>
    </g>
</svg>
