<svg class="marks" width="1011" height="820" xmlns="http://www.w3.org/2000/svg">
    <path fill="#fff" d="M0 0h1011v820H0z"/>
    <g class="mark-group role-frame root" aria-roledescription="group mark container" fill="none" stroke-miterlimit="10">
        <path class="background" aria-hidden="true" d="M126.5 11.5h880v600h-880z" stroke="#ddd"/>
        <g class="mark-group role-axis" aria-hidden="true">
            <path class="background" aria-hidden="true" d="M126.5 11.5z" pointer-events="none"/>
            <g class="mark-rule role-axis-grid" pointer-events="none" stroke="#ddd">
                <path d="M126.5 611.5h880M126.5 556.5h880M126.5 502.5h880M126.5 447.5h880M126.5 393.5h880M126.5 338.5h880M126.5 284.5h880M126.5 229.5h880M126.5 175.5h880M126.5 120.5h880M126.5 66.5h880M126.5 11.5h880"/>
            </g>
        </g>
        <g class="mark-group role-axis" aria-roledescription="axis" aria-label="X-axis titled 'module' for a discrete scale with 18 values: class-transformer-validator-async, class-transformer-validator-sync, computed-types, io-ts, jointz, ending with zod">
            <path class="background" aria-hidden="true" d="M126.5 611.5z" pointer-events="none"/>
            <g class="mark-rule role-axis-tick" pointer-events="none" stroke="#888">
                <path d="M150.5 611.5v5M199.5 611.5v5M248.5 611.5v5M297.5 611.5v5M346.5 611.5v5M394.5 611.5v5M443.5 611.5v5M492.5 611.5v5M541.5 611.5v5M590.5 611.5v5M639.5 611.5v5M688.5 611.5v5M737.5 611.5v5M786.5 611.5v5M834.5 611.5v5M883.5 611.5v5M932.5 611.5v5M981.5 611.5v5"/>
            </g>
            <g class="mark-text role-axis-label" pointer-events="none" font-family="sans-serif" font-size="14" fill="#000">
                <text transform="rotate(90 -236.028 382.472)">
                    class-transform…
                </text>
                <text transform="rotate(90 -211.583 406.917)">
                    class-transform…
                </text>
                <text transform="rotate(90 -187.139 431.361)">
                    computed-types
                </text>
                <text transform="rotate(90 -162.694 455.806)">
                    io-ts
                </text>
                <text transform="rotate(90 -138.25 480.25)">
                    jointz
                </text>
                <text transform="rotate(90 -113.806 504.694)">
                    json-decoder
                </text>
                <text transform="rotate(90 -89.361 529.139)">
                    marshal
                </text>
                <text transform="rotate(90 -64.917 553.583)">
                    myzod
                </text>
                <text transform="rotate(90 -40.472 578.028)">
                    purify-ts
                </text>
                <text transform="rotate(90 -16.028 602.472)">
                    quartet
                </text>
                <text transform="rotate(90 8.417 626.917)">
                    rulr
                </text>
                <text transform="rotate(90 32.861 651.361)">
                    runtypes
                </text>
                <text transform="rotate(90 57.306 675.806)">
                    simple-runtypes
                </text>
                <text transform="rotate(90 81.75 700.25)">
                    toi
                </text>
                <text transform="rotate(90 106.194 724.694)">
                    ts-json-validat…
                </text>
                <text transform="rotate(90 130.639 749.139)">
                    ts-utils
                </text>
                <text transform="rotate(90 155.083 773.583)">
                    yup
                </text>
                <text transform="rotate(90 179.528 798.028)">
                    zod
                </text>
            </g>
            <path stroke="#888" d="M126.5 611.5h880" pointer-events="none"/>
            <text text-anchor="middle" transform="translate(566.5 812.5)" font-family="sans-serif" font-size="14" fill="#000" pointer-events="none">
                module
            </text>
        </g>
        <g class="mark-group role-axis" aria-roledescription="axis" aria-label="Y-axis titled 'operations / sec' for a linear scale with values from 0 to 22,000,000">
            <path class="background" aria-hidden="true" d="M126.5 11.5z" pointer-events="none"/>
            <g class="mark-rule role-axis-tick" pointer-events="none" stroke="#888">
                <path d="M126.5 611.5h-5M126.5 556.5h-5M126.5 502.5h-5M126.5 447.5h-5M126.5 393.5h-5M126.5 338.5h-5M126.5 284.5h-5M126.5 229.5h-5M126.5 175.5h-5M126.5 120.5h-5M126.5 66.5h-5M126.5 11.5h-5"/>
            </g>
            <g class="mark-text role-axis-label" pointer-events="none" text-anchor="end" font-family="sans-serif" font-size="12" fill="#000">
                <text transform="translate(119.5 615.5)">
                    0
                </text>
                <text transform="translate(119.5 560.955)">
                    2,000,000
                </text>
                <text transform="translate(119.5 506.41)">
                    4,000,000
                </text>
                <text transform="translate(119.5 451.864)">
                    6,000,000
                </text>
                <text transform="translate(119.5 397.318)">
                    8,000,000
                </text>
                <text transform="translate(119.5 342.773)">
                    10,000,000
                </text>
                <text transform="translate(119.5 288.227)">
                    12,000,000
                </text>
                <text transform="translate(119.5 233.682)">
                    14,000,000
                </text>
                <text transform="translate(119.5 179.136)">
                    16,000,000
                </text>
                <text transform="translate(119.5 124.59)">
                    18,000,000
                </text>
                <text transform="translate(119.5 70.045)">
                    20,000,000
                </text>
                <text transform="translate(119.5 15.5)">
                    22,000,000
                </text>
            </g>
            <path stroke="#888" d="M126.5 611.5v-600" pointer-events="none"/>
            <text text-anchor="middle" transform="rotate(-90 164 147.5)" font-family="sans-serif" font-size="14" fill="#000" pointer-events="none">
                operations / sec
            </text>
        </g>
        <g class="mark-rect role-mark marks" aria-roledescription="rect mark container" fill="#4c78a8">
            <path aria-label="operations / sec: 24548; module: class-transformer-validator-async" aria-roledescription="bar" d="M128.444 610.33h44v.67h-44z"/>
            <path aria-label="operations / sec: 33555; module: class-transformer-validator-sync" aria-roledescription="bar" d="M177.333 610.085h44V611h-44z"/>
            <path aria-label="operations / sec: 629659; module: computed-types" aria-roledescription="bar" d="M226.222 593.827h44V611h-44z"/>
            <path aria-label="operations / sec: 2354089; module: io-ts" aria-roledescription="bar" d="M275.111 546.798h44V611h-44z"/>
            <path aria-label="operations / sec: 1354107; module: jointz" aria-roledescription="bar" d="M324 574.07h44V611h-44z"/>
            <path aria-label="operations / sec: 674008; module: json-decoder" aria-roledescription="bar" d="M372.889 592.618h44V611h-44z"/>
            <path aria-label="operations / sec: 12394371; module: marshal" aria-roledescription="bar" d="M421.778 272.972h44V611h-44z"/>
            <path aria-label="operations / sec: 1254340; module: myzod" aria-roledescription="bar" d="M470.667 576.79h44V611h-44z"/>
            <path aria-label="operations / sec: 709413; module: purify-ts" aria-roledescription="bar" d="M519.556 591.652h44V611h-44z"/>
            <path aria-label="operations / sec: 20672385; module: quartet" aria-roledescription="bar" d="M568.444 47.208h44V611h-44z"/>
            <path aria-label="operations / sec: 658330; module: rulr" aria-roledescription="bar" d="M617.333 593.046h44V611h-44z"/>
            <path aria-label="operations / sec: 641190; module: runtypes" aria-roledescription="bar" d="M666.222 593.513h44V611h-44z"/>
            <path aria-label="operations / sec: 1474369; module: simple-runtypes" aria-roledescription="bar" d="M715.111 570.79h44V611h-44z"/>
            <path aria-label="operations / sec: 392086; module: toi" aria-roledescription="bar" d="M764 600.307h44V611h-44z"/>
            <path aria-label="operations / sec: 14463797; module: ts-json-validator" aria-roledescription="bar" d="M812.889 216.533h44V611h-44z"/>
            <path aria-label="operations / sec: 117016; module: ts-utils" aria-roledescription="bar" d="M861.778 607.809h44V611h-44z"/>
            <path aria-label="operations / sec: 11403; module: yup" aria-roledescription="bar" d="M910.667 610.689h44V611h-44z"/>
            <path aria-label="operations / sec: 8022; module: zod" aria-roledescription="bar" d="M959.556 610.781h44V611h-44z"/>
        </g>
    </g>
</svg>
