<svg class="marks" width="1011" height="820" xmlns="http://www.w3.org/2000/svg">
    <path fill="#fff" d="M0 0h1011v820H0z"/>
    <g class="mark-group role-frame root" aria-roledescription="group mark container" fill="none" stroke-miterlimit="10">
        <path class="background" aria-hidden="true" d="M126.5 11.5h880v600h-880z" stroke="#ddd"/>
        <g class="mark-group role-axis" aria-hidden="true">
            <path class="background" aria-hidden="true" d="M126.5 11.5z" pointer-events="none"/>
            <g class="mark-rule role-axis-grid" pointer-events="none" stroke="#ddd">
                <path d="M126.5 611.5h880M126.5 561.5h880M126.5 511.5h880M126.5 461.5h880M126.5 411.5h880M126.5 361.5h880M126.5 311.5h880M126.5 261.5h880M126.5 211.5h880M126.5 161.5h880M126.5 111.5h880M126.5 61.5h880M126.5 11.5h880"/>
            </g>
        </g>
        <g class="mark-group role-axis" aria-roledescription="axis" aria-label="X-axis titled 'module' for a discrete scale with 17 values: class-transformer-validator-async, class-transformer-validator-sync, computed-types, io-ts, jointz, ending with zod">
            <path class="background" aria-hidden="true" d="M126.5 611.5z" pointer-events="none"/>
            <g class="mark-rule role-axis-tick" pointer-events="none" stroke="#888">
                <path d="M151.5 611.5v5M203.5 611.5v5M255.5 611.5v5M307.5 611.5v5M358.5 611.5v5M410.5 611.5v5M462.5 611.5v5M514.5 611.5v5M566.5 611.5v5M617.5 611.5v5M669.5 611.5v5M721.5 611.5v5M773.5 611.5v5M824.5 611.5v5M876.5 611.5v5M928.5 611.5v5M980.5 611.5v5"/>
            </g>
            <g class="mark-text role-axis-label" pointer-events="none" font-family="sans-serif" font-size="14" fill="#000">
                <text transform="rotate(90 -235.309 383.191)">
                    class-transform…
                </text>
                <text transform="rotate(90 -209.426 409.074)">
                    class-transform…
                </text>
                <text transform="rotate(90 -183.544 434.956)">
                    computed-types
                </text>
                <text transform="rotate(90 -157.662 460.838)">
                    io-ts
                </text>
                <text transform="rotate(90 -131.78 486.72)">
                    jointz
                </text>
                <text transform="rotate(90 -105.897 512.603)">
                    json-decoder
                </text>
                <text transform="rotate(90 -80.015 538.485)">
                    marshal
                </text>
                <text transform="rotate(90 -54.132 564.368)">
                    myzod
                </text>
                <text transform="rotate(90 -28.25 590.25)">
                    purify-ts
                </text>
                <text transform="rotate(90 -2.368 616.132)">
                    quartet
                </text>
                <text transform="rotate(90 23.515 642.015)">
                    rulr
                </text>
                <text transform="rotate(90 49.397 667.897)">
                    runtypes
                </text>
                <text transform="rotate(90 75.28 693.78)">
                    toi
                </text>
                <text transform="rotate(90 101.162 719.662)">
                    ts-json-validat…
                </text>
                <text transform="rotate(90 127.044 745.544)">
                    ts-utils
                </text>
                <text transform="rotate(90 152.926 771.426)">
                    yup
                </text>
                <text transform="rotate(90 178.809 797.309)">
                    zod
                </text>
            </g>
            <path stroke="#888" d="M126.5 611.5h880" pointer-events="none"/>
            <text text-anchor="middle" transform="translate(566.5 812.5)" font-family="sans-serif" font-size="14" fill="#000" pointer-events="none">
                module
            </text>
        </g>
        <g class="mark-group role-axis" aria-roledescription="axis" aria-label="Y-axis titled 'operations / sec' for a linear scale with values from 0 to 60,000,000">
            <path class="background" aria-hidden="true" d="M126.5 11.5z" pointer-events="none"/>
            <g class="mark-rule role-axis-tick" pointer-events="none" stroke="#888">
                <path d="M126.5 611.5h-5M126.5 561.5h-5M126.5 511.5h-5M126.5 461.5h-5M126.5 411.5h-5M126.5 361.5h-5M126.5 311.5h-5M126.5 261.5h-5M126.5 211.5h-5M126.5 161.5h-5M126.5 111.5h-5M126.5 61.5h-5M126.5 11.5h-5"/>
            </g>
            <g class="mark-text role-axis-label" pointer-events="none" text-anchor="end" font-family="sans-serif" font-size="12" fill="#000">
                <text transform="translate(119.5 615.5)">
                    0
                </text>
                <text transform="translate(119.5 565.5)">
                    5,000,000
                </text>
                <text transform="translate(119.5 515.5)">
                    10,000,000
                </text>
                <text transform="translate(119.5 465.5)">
                    15,000,000
                </text>
                <text transform="translate(119.5 415.5)">
                    20,000,000
                </text>
                <text transform="translate(119.5 365.5)">
                    25,000,000
                </text>
                <text transform="translate(119.5 315.5)">
                    30,000,000
                </text>
                <text transform="translate(119.5 265.5)">
                    35,000,000
                </text>
                <text transform="translate(119.5 215.5)">
                    40,000,000
                </text>
                <text transform="translate(119.5 165.5)">
                    45,000,000
                </text>
                <text transform="translate(119.5 115.5)">
                    50,000,000
                </text>
                <text transform="translate(119.5 65.5)">
                    55,000,000
                </text>
                <text transform="translate(119.5 15.5)">
                    60,000,000
                </text>
            </g>
            <path stroke="#888" d="M126.5 611.5v-600" pointer-events="none"/>
            <text text-anchor="middle" transform="rotate(-90 164 147.5)" font-family="sans-serif" font-size="14" fill="#000" pointer-events="none">
                operations / sec
            </text>
        </g>
        <g class="mark-rect role-mark marks" aria-roledescription="rect mark container" fill="#4c78a8">
            <path aria-label="operations / sec: 27034; module: class-transformer-validator-async" aria-roledescription="bar" d="M128.588 610.73h46.588v.27h-46.588z"/>
            <path aria-label="operations / sec: 32201; module: class-transformer-validator-sync" aria-roledescription="bar" d="M180.353 610.678h46.588V611h-46.588z"/>
            <path aria-label="operations / sec: 700656; module: computed-types" aria-roledescription="bar" d="M232.118 603.993h46.588V611h-46.588z"/>
            <path aria-label="operations / sec: 2174893; module: io-ts" aria-roledescription="bar" d="M283.882 589.251h46.589V611h-46.589z"/>
            <path aria-label="operations / sec: 927753; module: jointz" aria-roledescription="bar" d="M335.647 601.722h46.588V611h-46.588z"/>
            <path aria-label="operations / sec: 724239; module: json-decoder" aria-roledescription="bar" d="M387.412 603.758H434V611h-46.588z"/>
            <path aria-label="operations / sec: 20531488; module: marshal" aria-roledescription="bar" d="M439.176 405.685h46.589V611h-46.589z"/>
            <path aria-label="operations / sec: 1373213; module: myzod" aria-roledescription="bar" d="M490.941 597.268h46.588V611h-46.588z"/>
            <path aria-label="operations / sec: 748982; module: purify-ts" aria-roledescription="bar" d="M542.706 603.51h46.588V611h-46.588z"/>
            <path aria-label="operations / sec: 57124157; module: quartet" aria-roledescription="bar" d="M594.47 39.758h46.589V611H594.47z"/>
            <path aria-label="operations / sec: 585959; module: rulr" aria-roledescription="bar" d="M646.235 605.14h46.589V611h-46.589z"/>
            <path aria-label="operations / sec: 686134; module: runtypes" aria-roledescription="bar" d="M698 604.139h46.588V611H698z"/>
            <path aria-label="operations / sec: 403900; module: toi" aria-roledescription="bar" d="M749.765 606.961h46.588V611h-46.588z"/>
            <path aria-label="operations / sec: 29529243; module: ts-json-validator" aria-roledescription="bar" d="M801.53 315.708h46.588V611h-46.589z"/>
            <path aria-label="operations / sec: 128137; module: ts-utils" aria-roledescription="bar" d="M853.294 609.719h46.588V611h-46.588z"/>
            <path aria-label="operations / sec: 12443; module: yup" aria-roledescription="bar" d="M905.059 610.876h46.588V611H905.06z"/>
            <path aria-label="operations / sec: 9444; module: zod" aria-roledescription="bar" d="M956.824 610.906h46.588V611h-46.588z"/>
        </g>
    </g>
</svg>
