<svg class="marks" width="1011" height="820" viewBox="0 0 1011 820" version="1.1" xmlns="http://www.w3.org/2000/svg" xmlns:xlink="http://www.w3.org/1999/xlink"><rect width="1011" height="820" fill="white"></rect><g fill="none" stroke-miterlimit="10" transform="translate(126,11)"><g class="mark-group role-frame root" role="graphics-object" aria-roledescription="group mark container"><g transform="translate(0,0)"><path class="background" aria-hidden="true" d="M0.5,0.5h880v600h-880Z" stroke="#ddd"></path><g><g class="mark-group role-axis" aria-hidden="true"><g transform="translate(0.5,0.5)"><path class="background" aria-hidden="true" d="M0,0h0v0h0Z" pointer-events="none"></path><g><g class="mark-rule role-axis-grid" pointer-events="none"><line transform="translate(0,600)" x2="880" y2="0" stroke="#ddd" stroke-width="1" opacity="1"></line><line transform="translate(0,545)" x2="880" y2="0" stroke="#ddd" stroke-width="1" opacity="1"></line><line transform="translate(0,491)" x2="880" y2="0" stroke="#ddd" stroke-width="1" opacity="1"></line><line transform="translate(0,436)" x2="880" y2="0" stroke="#ddd" stroke-width="1" opacity="1"></line><line transform="translate(0,382)" x2="880" y2="0" stroke="#ddd" stroke-width="1" opacity="1"></line><line transform="translate(0,327)" x2="880" y2="0" stroke="#ddd" stroke-width="1" opacity="1"></line><line transform="translate(0,273)" x2="880" y2="0" stroke="#ddd" stroke-width="1" opacity="1"></line><line transform="translate(0,218)" x2="880" y2="0" stroke="#ddd" stroke-width="1" opacity="1"></line><line transform="translate(0,164)" x2="880" y2="0" stroke="#ddd" stroke-width="1" opacity="1"></line><line transform="translate(0,109)" x2="880" y2="0" stroke="#ddd" stroke-width="1" opacity="1"></line><line transform="translate(0,55)" x2="880" y2="0" stroke="#ddd" stroke-width="1" opacity="1"></line><line transform="translate(0,0)" x2="880" y2="0" stroke="#ddd" stroke-width="1" opacity="1"></line></g></g><path class="foreground" aria-hidden="true" d="" pointer-events="none" display="none"></path></g></g><g class="mark-group role-axis" role="graphics-symbol" aria-roledescription="axis" aria-label="X-axis titled 'module' for a discrete scale with 16 values: class-transformer-validator-async, class-transformer-validator-sync, computed-types, io-ts, jointz, ending with zod"><g transform="translate(0.5,600.5)"><path class="background" aria-hidden="true" d="M0,0h0v0h0Z" pointer-events="none"></path><g><g class="mark-rule role-axis-tick" pointer-events="none"><line transform="translate(27,0)" x2="0" y2="5" stroke="#888" stroke-width="1" opacity="1"></line><line transform="translate(82,0)" x2="0" y2="5" stroke="#888" stroke-width="1" opacity="1"></line><line transform="translate(137,0)" x2="0" y2="5" stroke="#888" stroke-width="1" opacity="1"></line><line transform="translate(192,0)" x2="0" y2="5" stroke="#888" stroke-width="1" opacity="1"></line><line transform="translate(247,0)" x2="0" y2="5" stroke="#888" stroke-width="1" opacity="1"></line><line transform="translate(302,0)" x2="0" y2="5" stroke="#888" stroke-width="1" opacity="1"></line><line transform="translate(357,0)" x2="0" y2="5" stroke="#888" stroke-width="1" opacity="1"></line><line transform="translate(412,0)" x2="0" y2="5" stroke="#888" stroke-width="1" opacity="1"></line><line transform="translate(467,0)" x2="0" y2="5" stroke="#888" stroke-width="1" opacity="1"></line><line transform="translate(522,0)" x2="0" y2="5" stroke="#888" stroke-width="1" opacity="1"></line><line transform="translate(577,0)" x2="0" y2="5" stroke="#888" stroke-width="1" opacity="1"></line><line transform="translate(632,0)" x2="0" y2="5" stroke="#888" stroke-width="1" opacity="1"></line><line transform="translate(687,0)" x2="0" y2="5" stroke="#888" stroke-width="1" opacity="1"></line><line transform="translate(742,0)" x2="0" y2="5" stroke="#888" stroke-width="1" opacity="1"></line><line transform="translate(797,0)" x2="0" y2="5" stroke="#888" stroke-width="1" opacity="1"></line><line transform="translate(852,0)" x2="0" y2="5" stroke="#888" stroke-width="1" opacity="1"></line></g><g class="mark-text role-axis-label" pointer-events="none"><text text-anchor="start" transform="translate(27,7) rotate(90) translate(0,4)" font-family="sans-serif" font-size="14px" fill="#000" opacity="1">class-transform…</text><text text-anchor="start" transform="translate(82,7) rotate(90) translate(0,4)" font-family="sans-serif" font-size="14px" fill="#000" opacity="1">class-transform…</text><text text-anchor="start" transform="translate(137,7) rotate(90) translate(0,4)" font-family="sans-serif" font-size="14px" fill="#000" opacity="1">computed-types</text><text text-anchor="start" transform="translate(192,7) rotate(90) translate(0,4)" font-family="sans-serif" font-size="14px" fill="#000" opacity="1">io-ts</text><text text-anchor="start" transform="translate(247,7) rotate(90) translate(0,4)" font-family="sans-serif" font-size="14px" fill="#000" opacity="1">jointz</text><text text-anchor="start" transform="translate(302,7) rotate(90) translate(0,4)" font-family="sans-serif" font-size="14px" fill="#000" opacity="1">json-decoder</text><text text-anchor="start" transform="translate(357,7) rotate(90) translate(0,4)" font-family="sans-serif" font-size="14px" fill="#000" opacity="1">marshal</text><text text-anchor="start" transform="translate(412,7) rotate(90) translate(0,4)" font-family="sans-serif" font-size="14px" fill="#000" opacity="1">myzod</text><text text-anchor="start" transform="translate(467,7) rotate(90) translate(0,4)" font-family="sans-serif" font-size="14px" fill="#000" opacity="1">purify-ts</text><text text-anchor="start" transform="translate(522,7) rotate(90) translate(0,4)" font-family="sans-serif" font-size="14px" fill="#000" opacity="1">quartet</text><text text-anchor="start" transform="translate(577,7) rotate(90) translate(0,4)" font-family="sans-serif" font-size="14px" fill="#000" opacity="1">runtypes</text><text text-anchor="start" transform="translate(632,7) rotate(90) translate(0,4)" font-family="sans-serif" font-size="14px" fill="#000" opacity="1">toi</text><text text-anchor="start" transform="translate(687,7) rotate(90) translate(0,4)" font-family="sans-serif" font-size="14px" fill="#000" opacity="1">ts-json-validat…</text><text text-anchor="start" transform="translate(742,7) rotate(90) translate(0,4)" font-family="sans-serif" font-size="14px" fill="#000" opacity="1">ts-utils</text><text text-anchor="start" transform="translate(797,7) rotate(90) translate(0,4)" font-family="sans-serif" font-size="14px" fill="#000" opacity="1">yup</text><text text-anchor="start" transform="translate(852,7) rotate(90) translate(0,4)" font-family="sans-serif" font-size="14px" fill="#000" opacity="1">zod</text></g><g class="mark-rule role-axis-domain" pointer-events="none"><line transform="translate(0,0)" x2="880" y2="0" stroke="#888" stroke-width="1" opacity="1"></line></g><g class="mark-text role-axis-title" pointer-events="none"><text text-anchor="middle" transform="translate(440,201)" font-family="sans-serif" font-size="14px" font-weight="normal" fill="#000" opacity="1">module</text></g></g><path class="foreground" aria-hidden="true" d="" pointer-events="none" display="none"></path></g></g><g class="mark-group role-axis" role="graphics-symbol" aria-roledescription="axis" aria-label="Y-axis titled 'operations / sec' for a linear scale with values from 0 to 55,000,000"><g transform="translate(0.5,0.5)"><path class="background" aria-hidden="true" d="M0,0h0v0h0Z" pointer-events="none"></path><g><g class="mark-rule role-axis-tick" pointer-events="none"><line transform="translate(0,600)" x2="-5" y2="0" stroke="#888" stroke-width="1" opacity="1"></line><line transform="translate(0,545)" x2="-5" y2="0" stroke="#888" stroke-width="1" opacity="1"></line><line transform="translate(0,491)" x2="-5" y2="0" stroke="#888" stroke-width="1" opacity="1"></line><line transform="translate(0,436)" x2="-5" y2="0" stroke="#888" stroke-width="1" opacity="1"></line><line transform="translate(0,382)" x2="-5" y2="0" stroke="#888" stroke-width="1" opacity="1"></line><line transform="translate(0,327)" x2="-5" y2="0" stroke="#888" stroke-width="1" opacity="1"></line><line transform="translate(0,273)" x2="-5" y2="0" stroke="#888" stroke-width="1" opacity="1"></line><line transform="translate(0,218)" x2="-5" y2="0" stroke="#888" stroke-width="1" opacity="1"></line><line transform="translate(0,164)" x2="-5" y2="0" stroke="#888" stroke-width="1" opacity="1"></line><line transform="translate(0,109)" x2="-5" y2="0" stroke="#888" stroke-width="1" opacity="1"></line><line transform="translate(0,55)" x2="-5" y2="0" stroke="#888" stroke-width="1" opacity="1"></line><line transform="translate(0,0)" x2="-5" y2="0" stroke="#888" stroke-width="1" opacity="1"></line></g><g class="mark-text role-axis-label" pointer-events="none"><text text-anchor="end" transform="translate(-7,604)" font-family="sans-serif" font-size="12px" fill="#000" opacity="1">0</text><text text-anchor="end" transform="translate(-7,549.4545454545454)" font-family="sans-serif" font-size="12px" fill="#000" opacity="1">5,000,000</text><text text-anchor="end" transform="translate(-7,494.9090909090909)" font-family="sans-serif" font-size="12px" fill="#000" opacity="1">10,000,000</text><text text-anchor="end" transform="translate(-7,440.3636363636364)" font-family="sans-serif" font-size="12px" fill="#000" opacity="1">15,000,000</text><text text-anchor="end" transform="translate(-7,385.8181818181818)" font-family="sans-serif" font-size="12px" fill="#000" opacity="1">20,000,000</text><text text-anchor="end" transform="translate(-7,331.27272727272725)" font-family="sans-serif" font-size="12px" fill="#000" opacity="1">25,000,000</text><text text-anchor="end" transform="translate(-7,276.72727272727275)" font-family="sans-serif" font-size="12px" fill="#000" opacity="1">30,000,000</text><text text-anchor="end" transform="translate(-7,222.1818181818182)" font-family="sans-serif" font-size="12px" fill="#000" opacity="1">35,000,000</text><text text-anchor="end" transform="translate(-7,167.63636363636363)" font-family="sans-serif" font-size="12px" fill="#000" opacity="1">40,000,000</text><text text-anchor="end" transform="translate(-7,113.09090909090907)" font-family="sans-serif" font-size="12px" fill="#000" opacity="1">45,000,000</text><text text-anchor="end" transform="translate(-7,58.54545454545456)" font-family="sans-serif" font-size="12px" fill="#000" opacity="1">50,000,000</text><text text-anchor="end" transform="translate(-7,4)" font-family="sans-serif" font-size="12px" fill="#000" opacity="1">55,000,000</text></g><g class="mark-rule role-axis-domain" pointer-events="none"><line transform="translate(0,600)" x2="0" y2="-600" stroke="#888" stroke-width="1" opacity="1"></line></g><g class="mark-text role-axis-title" pointer-events="none"><text text-anchor="middle" transform="translate(-107,300) rotate(-90) translate(0,-3)" font-family="sans-serif" font-size="14px" font-weight="normal" fill="#000" opacity="1">operations / sec</text></g></g><path class="foreground" aria-hidden="true" d="" pointer-events="none" display="none"></path></g></g><g class="mark-rect role-mark marks" role="graphics-object" aria-roledescription="rect mark container"><path aria-label="operations / sec: 37520; module: class-transformer-validator-async" role="graphics-symbol" aria-roledescription="bar" d="M2.75,599.5906909090909h49.5v0.4093090909091188h-49.5Z" fill="#4c78a8"></path><path aria-label="operations / sec: 41334; module: class-transformer-validator-sync" role="graphics-symbol" aria-roledescription="bar" d="M57.75,599.5490836363637h49.5v0.45091636363633825h-49.5Z" fill="#4c78a8"></path><path aria-label="operations / sec: 696184; module: computed-types" role="graphics-symbol" aria-roledescription="bar" d="M112.75,592.4052654545454h49.5v7.594734545454571h-49.5Z" fill="#4c78a8"></path><path aria-label="operations / sec: 2146541; module: io-ts" role="graphics-symbol" aria-roledescription="bar" d="M167.75,576.5831890909091h49.5v23.41681090909094h-49.5Z" fill="#4c78a8"></path><path aria-label="operations / sec: 864709; module: jointz" role="graphics-symbol" aria-roledescription="bar" d="M222.75,590.5668109090909h49.5v9.433189090909082h-49.5Z" fill="#4c78a8"></path><path aria-label="operations / sec: 745082; module: json-decoder" role="graphics-symbol" aria-roledescription="bar" d="M277.75,591.8718327272727h49.5v8.128167272727296h-49.5Z" fill="#4c78a8"></path><path aria-label="operations / sec: 22255956; module: marshal" role="graphics-symbol" aria-roledescription="bar" d="M332.75,357.20775272727275h49.5v242.79224727272725h-49.5Z" fill="#4c78a8"></path><path aria-label="operations / sec: 1323792; module: myzod" role="graphics-symbol" aria-roledescription="bar" d="M387.75,585.5586327272728h49.5v14.441367272727234h-49.5Z" fill="#4c78a8"></path><path aria-label="operations / sec: 740991; module: purify-ts" role="graphics-symbol" aria-roledescription="bar" d="M442.75,591.9164618181818h49.5v8.083538181818199h-49.5Z" fill="#4c78a8"></path><path aria-label="operations / sec: 54904210; module: quartet" role="graphics-symbol" aria-roledescription="bar" d="M497.75,1.0449818181818005h49.5v598.9550181818182h-49.5Z" fill="#4c78a8"></path><path aria-label="operations / sec: 715619; module: runtypes" role="graphics-symbol" aria-roledescription="bar" d="M552.75,592.1932472727273h49.5v7.8067527272727375h-49.5Z" fill="#4c78a8"></path><path aria-label="operations / sec: 422244; module: toi" role="graphics-symbol" aria-roledescription="bar" d="M607.75,595.3937018181819h49.5v4.606298181818147h-49.5Z" fill="#4c78a8"></path><path aria-label="operations / sec: 30872292; module: ts-json-validator" role="graphics-symbol" aria-roledescription="bar" d="M662.75,263.21136h49.5v336.78864h-49.5Z" fill="#4c78a8"></path><path aria-label="operations / sec: 126671; module: ts-utils" role="graphics-symbol" aria-roledescription="bar" d="M717.75,598.6181345454545h49.5v1.3818654545455047h-49.5Z" fill="#4c78a8"></path><path aria-label="operations / sec: 15382; module: yup" role="graphics-symbol" aria-roledescription="bar" d="M772.75,599.8321963636364h49.5v0.16780363636360107h-49.5Z" fill="#4c78a8"></path><path aria-label="operations / sec: 60839; module: zod" role="graphics-symbol" aria-roledescription="bar" d="M827.75,599.3363018181818h49.5v0.6636981818181766h-49.5Z" fill="#4c78a8"></path></g></g><path class="foreground" aria-hidden="true" d="" display="none"></path></g></g></g></svg>