<svg xmlns="http://www.w3.org/2000/svg" class="marks" width="1001" height="820">
    <path fill="#fff" d="M0 0h1001v820H0z"/>
    <g class="mark-group role-frame root" aria-roledescription="group mark container" fill="none" stroke-miterlimit="10">
        <path class="background" aria-hidden="true" d="M116.5 11.5h880v600h-880z" stroke="#ddd"/>
        <g class="mark-group role-axis" aria-roledescription="axis" aria-label="Y-axis for a linear scale with values from 0 to 4,000,000">
            <path class="background" aria-hidden="true" d="M116.5 11.5z" pointer-events="none"/>
            <g class="mark-rule role-axis-grid" pointer-events="none" stroke="#ddd">
                <path d="M116.5 611.5h880M116.5 581.5h880M116.5 551.5h880M116.5 521.5h880M116.5 491.5h880M116.5 461.5h880M116.5 431.5h880M116.5 401.5h880M116.5 371.5h880M116.5 341.5h880M116.5 311.5h880M116.5 281.5h880M116.5 251.5h880M116.5 221.5h880M116.5 191.5h880M116.5 161.5h880M116.5 131.5h880M116.5 101.5h880M116.5 71.5h880M116.5 41.5h880M116.5 11.5h880"/>
            </g>
        </g>
        <g class="mark-group role-axis" aria-roledescription="axis" aria-label="X-axis titled 'module' for a discrete scale with 22 values: @mojotech/json-type-validation, @typeofweb/schema, bueno, class-transformer-validator-async, class-transformer-validator-sync, ending with zod">
            <path class="background" aria-hidden="true" d="M116.5 611.5z" pointer-events="none"/>
            <g class="mark-rule role-axis-tick" pointer-events="none" stroke="#888">
                <path d="M136.5 611.5v5M176.5 611.5v5M216.5 611.5v5M256.5 611.5v5M296.5 611.5v5M336.5 611.5v5M376.5 611.5v5M416.5 611.5v5M456.5 611.5v5M496.5 611.5v5M536.5 611.5v5M576.5 611.5v5M616.5 611.5v5M656.5 611.5v5M696.5 611.5v5M736.5 611.5v5M776.5 611.5v5M816.5 611.5v5M856.5 611.5v5M896.5 611.5v5M936.5 611.5v5M976.5 611.5v5"/>
            </g>
            <g class="mark-text role-axis-label" pointer-events="none" font-family="sans-serif" font-size="14" fill="#000">
                <text transform="rotate(90 -243.25 375.25)">@mojotech/json-…</text>
                <text transform="rotate(90 -223.25 395.25)">@typeofweb/sche…</text>
                <text transform="rotate(90 -203.25 415.25)">bueno</text>
                <text transform="rotate(90 -183.25 435.25)">class-transform…</text>
                <text transform="rotate(90 -163.25 455.25)">class-transform…</text>
                <text transform="rotate(90 -143.25 475.25)">computed-types</text>
                <text transform="rotate(90 -123.25 495.25)">decoders</text>
                <text transform="rotate(90 -103.25 515.25)">io-ts</text>
                <text transform="rotate(90 -83.25 535.25)">jointz</text>
                <text transform="rotate(90 -63.25 555.25)">json-decoder</text>
                <text transform="rotate(90 -43.25 575.25)">myzod</text>
                <text transform="rotate(90 -23.25 595.25)">purify-ts</text>
                <text transform="rotate(90 -3.25 615.25)">rulr</text>
                <text transform="rotate(90 16.75 635.25)">runtypes</text>
                <text transform="rotate(90 36.75 655.25)">simple-runtypes</text>
                <text transform="rotate(90 56.75 675.25)">superstruct</text>
                <text transform="rotate(90 76.75 695.25)">toi</text>
                <text transform="rotate(90 96.75 715.25)">ts-interface-ch…</text>
                <text transform="rotate(90 116.75 735.25)">ts-utils</text>
                <text transform="rotate(90 136.75 755.25)">valita</text>
                <text transform="rotate(90 156.75 775.25)">yup</text>
                <text transform="rotate(90 176.75 795.25)">zod</text>
            </g>
            <path stroke="#888" d="M116.5 611.5h880" class="mark-rule role-axis-domain" pointer-events="none"/>
            <text text-anchor="middle" transform="translate(556.5 812.5)" font-family="sans-serif" font-size="14" fill="#000" class="mark-text role-axis-title" pointer-events="none">module</text>
        </g>
        <g class="mark-group role-axis" aria-roledescription="axis" aria-label="Y-axis titled 'operations / sec' for a linear scale with values from 0 to 4,000,000">
            <path class="background" aria-hidden="true" d="M116.5 11.5z" pointer-events="none"/>
            <g class="mark-rule role-axis-tick" pointer-events="none" stroke="#888">
                <path d="M116.5 611.5h-5M116.5 581.5h-5M116.5 551.5h-5M116.5 521.5h-5M116.5 491.5h-5M116.5 461.5h-5M116.5 431.5h-5M116.5 401.5h-5M116.5 371.5h-5M116.5 341.5h-5M116.5 311.5h-5M116.5 281.5h-5M116.5 251.5h-5M116.5 221.5h-5M116.5 191.5h-5M116.5 161.5h-5M116.5 131.5h-5M116.5 101.5h-5M116.5 71.5h-5M116.5 41.5h-5M116.5 11.5h-5"/>
            </g>
            <g class="mark-text role-axis-label" pointer-events="none" text-anchor="end" font-family="sans-serif" font-size="12" fill="#000">
                <text transform="translate(109.5 615.5)">0</text>
                <text transform="translate(109.5 585.5)">200,000</text>
                <text transform="translate(109.5 555.5)">400,000</text>
                <text transform="translate(109.5 525.5)">600,000</text>
                <text transform="translate(109.5 495.5)">800,000</text>
                <text transform="translate(109.5 465.5)">1,000,000</text>
                <text transform="translate(109.5 435.5)">1,200,000</text>
                <text transform="translate(109.5 405.5)">1,400,000</text>
                <text transform="translate(109.5 375.5)">1,600,000</text>
                <text transform="translate(109.5 345.5)">1,800,000</text>
                <text transform="translate(109.5 315.5)">2,000,000</text>
                <text transform="translate(109.5 285.5)">2,200,000</text>
                <text transform="translate(109.5 255.5)">2,400,000</text>
                <text transform="translate(109.5 225.5)">2,600,000</text>
                <text transform="translate(109.5 195.5)">2,800,000</text>
                <text transform="translate(109.5 165.5)">3,000,000</text>
                <text transform="translate(109.5 135.5)">3,200,000</text>
                <text transform="translate(109.5 105.5)">3,400,000</text>
                <text transform="translate(109.5 75.5)">3,600,000</text>
                <text transform="translate(109.5 45.5)">3,800,000</text>
                <text transform="translate(109.5 15.5)">4,000,000</text>
            </g>
            <path stroke="#888" d="M116.5 611.5v-600" class="mark-rule role-axis-domain" pointer-events="none"/>
            <text text-anchor="middle" transform="rotate(-90 164 147.5)" font-family="sans-serif" font-size="14" fill="#000" class="mark-text role-axis-title" pointer-events="none">operations / sec</text>
        </g>
        <g class="mark-rect role-mark marks" aria-roledescription="rect mark container" fill="#4c78a8">
            <path d="M198 588.55h36V611h-36zM238 605.56h36V611h-36zM278 605.223h36V611h-36zM318 493.495h36V611h-36zM358 576.023h36V611h-36zM398 457.52h36V611h-36zM438 471.577h36V611h-36zM478 536.148h36V611h-36zM118 415.671h36V611h-36zM518 436.308h36V611h-36zM558 540.776h36V611h-36zM598 489.566h36V611h-36zM638 491.876h36V611h-36zM678 379.811h36V611h-36zM718 596.098h36V611h-36zM758 537.794h36V611h-36zM798 248.85h36V611h-36zM838 588.321h36V611h-36zM158 516.55h36V611h-36zM878 85.49h36V611h-36zM918 608.006h36V611h-36zM958 609.411h36V611h-36z"/>
        </g>
    </g>
</svg>
