<svg class="marks" width="1011" height="820" xmlns="http://www.w3.org/2000/svg">
    <defs>
        <style>
            .vega-svg-root *{fill:none}.vega-svg-root path{stroke-miterlimit:10}
        </style>
    </defs>
    <path fill="#fff" d="M0 0h1011v820H0z"/>
    <g class="vega-svg-root">
        <g class="mark-group role-frame root" aria-roledescription="group mark container">
            <path class="background" aria-hidden="true" d="M126.5 11.5h880v600h-880z" stroke="#ddd"/>
            <g class="mark-group role-axis" aria-hidden="true">
                <path class="background" aria-hidden="true" d="M126.5 11.5z" pointer-events="none"/>
                <g class="mark-rule role-axis-grid" pointer-events="none" stroke="#ddd">
                    <path d="M126.5 611.5h880M126.5 568.5h880M126.5 525.5h880M126.5 482.5h880M126.5 440.5h880M126.5 397.5h880M126.5 354.5h880M126.5 311.5h880M126.5 268.5h880M126.5 225.5h880M126.5 182.5h880M126.5 140.5h880M126.5 97.5h880M126.5 54.5h880M126.5 11.5h880"/>
                </g>
            </g>
            <g class="mark-group role-axis" aria-roledescription="axis" aria-label="X-axis titled 'module' for a discrete scale with 16 values: class-transformer-validator-async, class-transformer-validator-sync, computed-types, io-ts, jointz, ending with zod">
                <path class="background" aria-hidden="true" d="M126.5 611.5z" pointer-events="none"/>
                <g class="mark-rule role-axis-tick" pointer-events="none" stroke="#888">
                    <path d="M153.5 611.5v5M208.5 611.5v5M263.5 611.5v5M318.5 611.5v5M373.5 611.5v5M428.5 611.5v5M483.5 611.5v5M538.5 611.5v5M593.5 611.5v5M648.5 611.5v5M703.5 611.5v5M758.5 611.5v5M813.5 611.5v5M868.5 611.5v5M923.5 611.5v5M978.5 611.5v5"/>
                </g>
                <g class="mark-text role-axis-label" pointer-events="none" font-family="sans-serif" font-size="14">
                    <text transform="rotate(90 -234.5 384)">
                        class-transform…
                    </text>
                    <text transform="rotate(90 -207 411.5)">
                        class-transform…
                    </text>
                    <text transform="rotate(90 -179.5 439)">
                        computed-types
                    </text>
                    <text transform="rotate(90 -152 466.5)">
                        io-ts
                    </text>
                    <text transform="rotate(90 -124.5 494)">
                        jointz
                    </text>
                    <text transform="rotate(90 -97 521.5)">
                        json-decoder
                    </text>
                    <text transform="rotate(90 -69.5 549)">
                        marshal
                    </text>
                    <text transform="rotate(90 -42 576.5)">
                        myzod
                    </text>
                    <text transform="rotate(90 -14.5 604)">
                        purify-ts
                    </text>
                    <text transform="rotate(90 13 631.5)">
                        quartet
                    </text>
                    <text transform="rotate(90 40.5 659)">
                        runtypes
                    </text>
                    <text transform="rotate(90 68 686.5)">
                        toi
                    </text>
                    <text transform="rotate(90 95.5 714)">
                        ts-json-validat…
                    </text>
                    <text transform="rotate(90 123 741.5)">
                        ts-utils
                    </text>
                    <text transform="rotate(90 150.5 769)">
                        yup
                    </text>
                    <text transform="rotate(90 178 796.5)">
                        zod
                    </text>
                </g>
                <path stroke="#888" d="M126.5 611.5h880" pointer-events="none"/>
                <text text-anchor="middle" transform="translate(566.5 812.5)" font-family="sans-serif" font-size="14" font-weight="400" pointer-events="none">
                    module
                </text>
            </g>
            <g class="mark-group role-axis" aria-roledescription="axis" aria-label="Y-axis titled 'operations / sec' for a linear scale with values from 0 to 28,000,000">
                <path class="background" aria-hidden="true" d="M126.5 11.5z" pointer-events="none"/>
                <g class="mark-rule role-axis-tick" pointer-events="none" stroke="#888">
                    <path d="M126.5 611.5h-5M126.5 568.5h-5M126.5 525.5h-5M126.5 482.5h-5M126.5 440.5h-5M126.5 397.5h-5M126.5 354.5h-5M126.5 311.5h-5M126.5 268.5h-5M126.5 225.5h-5M126.5 182.5h-5M126.5 140.5h-5M126.5 97.5h-5M126.5 54.5h-5M126.5 11.5h-5"/>
                </g>
                <g class="mark-text role-axis-label" pointer-events="none" text-anchor="end" font-family="sans-serif" font-size="12">
                    <text transform="translate(119.5 615.5)">
                        0
                    </text>
                    <text transform="translate(119.5 572.643)">
                        2,000,000
                    </text>
                    <text transform="translate(119.5 529.786)">
                        4,000,000
                    </text>
                    <text transform="translate(119.5 486.929)">
                        6,000,000
                    </text>
                    <text transform="translate(119.5 444.071)">
                        8,000,000
                    </text>
                    <text transform="translate(119.5 401.214)">
                        10,000,000
                    </text>
                    <text transform="translate(119.5 358.357)">
                        12,000,000
                    </text>
                    <text transform="translate(119.5 315.5)">
                        14,000,000
                    </text>
                    <text transform="translate(119.5 272.643)">
                        16,000,000
                    </text>
                    <text transform="translate(119.5 229.786)">
                        18,000,000
                    </text>
                    <text transform="translate(119.5 186.929)">
                        20,000,000
                    </text>
                    <text transform="translate(119.5 144.071)">
                        22,000,000
                    </text>
                    <text transform="translate(119.5 101.214)">
                        24,000,000
                    </text>
                    <text transform="translate(119.5 58.357)">
                        26,000,000
                    </text>
                    <text transform="translate(119.5 15.5)">
                        28,000,000
                    </text>
                </g>
                <path stroke="#888" d="M126.5 611.5v-600" pointer-events="none"/>
                <text text-anchor="middle" transform="rotate(-90 164 147.5)" font-family="sans-serif" font-size="14" font-weight="400" pointer-events="none">
                    operations / sec
                </text>
            </g>
            <g class="mark-rect role-mark marks" aria-roledescription="rect mark container" fill="#4c78a8">
                <path aria-label="operations / sec: 23855; module: class-transformer-validator-async" aria-roledescription="bar" d="M128.75 610.489h49.5V611h-49.5z"/>
                <path aria-label="operations / sec: 27320; module: class-transformer-validator-sync" aria-roledescription="bar" d="M183.75 610.415h49.5V611h-49.5z"/>
                <path aria-label="operations / sec: 619490; module: computed-types" aria-roledescription="bar" d="M238.75 597.725h49.5V611h-49.5z"/>
                <path aria-label="operations / sec: 2468586; module: io-ts" aria-roledescription="bar" d="M293.75 558.102h49.5V611h-49.5z"/>
                <path aria-label="operations / sec: 1431507; module: jointz" aria-roledescription="bar" d="M348.75 580.325h49.5V611h-49.5z"/>
                <path aria-label="operations / sec: 682918; module: json-decoder" aria-roledescription="bar" d="M403.75 596.366h49.5V611h-49.5z"/>
                <path aria-label="operations / sec: 3738464; module: marshal" aria-roledescription="bar" d="M458.75 530.89h49.5V611h-49.5z"/>
                <path aria-label="operations / sec: 1285279; module: myzod" aria-roledescription="bar" d="M513.75 583.458h49.5V611h-49.5z"/>
                <path aria-label="operations / sec: 744284; module: purify-ts" aria-roledescription="bar" d="M568.75 595.051h49.5V611h-49.5z"/>
                <path aria-label="operations / sec: 26746475; module: quartet" aria-roledescription="bar" d="M623.75 37.861h49.5V611h-49.5z"/>
                <path aria-label="operations / sec: 726105; module: runtypes" aria-roledescription="bar" d="M678.75 595.44h49.5V611h-49.5z"/>
                <path aria-label="operations / sec: 430136; module: toi" aria-roledescription="bar" d="M733.75 601.783h49.5V611h-49.5z"/>
                <path aria-label="operations / sec: 18764367; module: ts-json-validator" aria-roledescription="bar" d="M788.75 208.906h49.5V611h-49.5z"/>
                <path aria-label="operations / sec: 134526; module: ts-utils" aria-roledescription="bar" d="M843.75 608.117h49.5V611h-49.5z"/>
                <path aria-label="operations / sec: 12584; module: yup" aria-roledescription="bar" d="M898.75 610.73h49.5v.27h-49.5z"/>
                <path aria-label="operations / sec: 49966; module: zod" aria-roledescription="bar" d="M953.75 609.93h49.5V611h-49.5z"/>
            </g>
        </g>
    </g>
</svg>
