<svg class="marks" width="1011" height="820" xmlns="http://www.w3.org/2000/svg">
    <path fill="#fff" d="M0 0h1011v820H0z"/>
    <g class="mark-group role-frame root" aria-roledescription="group mark container" fill="none" stroke-miterlimit="10">
        <path class="background" aria-hidden="true" d="M126.5 11.5h880v600h-880z" stroke="#ddd"/>
        <g class="mark-group role-axis" aria-hidden="true">
            <path class="background" aria-hidden="true" d="M126.5 11.5z" pointer-events="none"/>
            <g class="mark-rule role-axis-grid" pointer-events="none" stroke="#ddd">
                <path d="M126.5 611.5h880M126.5 581.5h880M126.5 551.5h880M126.5 521.5h880M126.5 491.5h880M126.5 461.5h880M126.5 431.5h880M126.5 401.5h880M126.5 371.5h880M126.5 341.5h880M126.5 311.5h880M126.5 281.5h880M126.5 251.5h880M126.5 221.5h880M126.5 191.5h880M126.5 161.5h880M126.5 131.5h880M126.5 101.5h880M126.5 71.5h880M126.5 41.5h880M126.5 11.5h880"/>
            </g>
        </g>
        <g class="mark-group role-axis" aria-roledescription="axis" aria-label="X-axis titled 'module' for a discrete scale with 17 values: class-transformer-validator-async, class-transformer-validator-sync, computed-types, io-ts, jointz, ending with zod">
            <path class="background" aria-hidden="true" d="M126.5 611.5z" pointer-events="none"/>
            <g class="mark-rule role-axis-tick" pointer-events="none" stroke="#888">
                <path d="M151.5 611.5v5M203.5 611.5v5M255.5 611.5v5M307.5 611.5v5M358.5 611.5v5M410.5 611.5v5M462.5 611.5v5M514.5 611.5v5M566.5 611.5v5M617.5 611.5v5M669.5 611.5v5M721.5 611.5v5M773.5 611.5v5M824.5 611.5v5M876.5 611.5v5M928.5 611.5v5M980.5 611.5v5"/>
            </g>
            <g class="mark-text role-axis-label" pointer-events="none" font-family="sans-serif" font-size="14" fill="#000">
                <text transform="rotate(90 -235.309 383.191)">
                    class-transform…
                </text>
                <text transform="rotate(90 -209.426 409.074)">
                    class-transform…
                </text>
                <text transform="rotate(90 -183.544 434.956)">
                    computed-types
                </text>
                <text transform="rotate(90 -157.662 460.838)">
                    io-ts
                </text>
                <text transform="rotate(90 -131.78 486.72)">
                    jointz
                </text>
                <text transform="rotate(90 -105.897 512.603)">
                    json-decoder
                </text>
                <text transform="rotate(90 -80.015 538.485)">
                    marshal
                </text>
                <text transform="rotate(90 -54.132 564.368)">
                    myzod
                </text>
                <text transform="rotate(90 -28.25 590.25)">
                    purify-ts
                </text>
                <text transform="rotate(90 -2.368 616.132)">
                    quartet
                </text>
                <text transform="rotate(90 23.515 642.015)">
                    rulr
                </text>
                <text transform="rotate(90 49.397 667.897)">
                    runtypes
                </text>
                <text transform="rotate(90 75.28 693.78)">
                    toi
                </text>
                <text transform="rotate(90 101.162 719.662)">
                    ts-json-validat…
                </text>
                <text transform="rotate(90 127.044 745.544)">
                    ts-utils
                </text>
                <text transform="rotate(90 152.926 771.426)">
                    yup
                </text>
                <text transform="rotate(90 178.809 797.309)">
                    zod
                </text>
            </g>
            <path stroke="#888" d="M126.5 611.5h880" pointer-events="none"/>
            <text text-anchor="middle" transform="translate(566.5 812.5)" font-family="sans-serif" font-size="14" fill="#000" pointer-events="none">
                module
            </text>
        </g>
        <g class="mark-group role-axis" aria-roledescription="axis" aria-label="Y-axis titled 'operations / sec' for a linear scale with values from 0 to 40,000,000">
            <path class="background" aria-hidden="true" d="M126.5 11.5z" pointer-events="none"/>
            <g class="mark-rule role-axis-tick" pointer-events="none" stroke="#888">
                <path d="M126.5 611.5h-5M126.5 581.5h-5M126.5 551.5h-5M126.5 521.5h-5M126.5 491.5h-5M126.5 461.5h-5M126.5 431.5h-5M126.5 401.5h-5M126.5 371.5h-5M126.5 341.5h-5M126.5 311.5h-5M126.5 281.5h-5M126.5 251.5h-5M126.5 221.5h-5M126.5 191.5h-5M126.5 161.5h-5M126.5 131.5h-5M126.5 101.5h-5M126.5 71.5h-5M126.5 41.5h-5M126.5 11.5h-5"/>
            </g>
            <g class="mark-text role-axis-label" pointer-events="none" text-anchor="end" font-family="sans-serif" font-size="12" fill="#000">
                <text transform="translate(119.5 615.5)">
                    0
                </text>
                <text transform="translate(119.5 585.5)">
                    2,000,000
                </text>
                <text transform="translate(119.5 555.5)">
                    4,000,000
                </text>
                <text transform="translate(119.5 525.5)">
                    6,000,000
                </text>
                <text transform="translate(119.5 495.5)">
                    8,000,000
                </text>
                <text transform="translate(119.5 465.5)">
                    10,000,000
                </text>
                <text transform="translate(119.5 435.5)">
                    12,000,000
                </text>
                <text transform="translate(119.5 405.5)">
                    14,000,000
                </text>
                <text transform="translate(119.5 375.5)">
                    16,000,000
                </text>
                <text transform="translate(119.5 345.5)">
                    18,000,000
                </text>
                <text transform="translate(119.5 315.5)">
                    20,000,000
                </text>
                <text transform="translate(119.5 285.5)">
                    22,000,000
                </text>
                <text transform="translate(119.5 255.5)">
                    24,000,000
                </text>
                <text transform="translate(119.5 225.5)">
                    26,000,000
                </text>
                <text transform="translate(119.5 195.5)">
                    28,000,000
                </text>
                <text transform="translate(119.5 165.5)">
                    30,000,000
                </text>
                <text transform="translate(119.5 135.5)">
                    32,000,000
                </text>
                <text transform="translate(119.5 105.5)">
                    34,000,000
                </text>
                <text transform="translate(119.5 75.5)">
                    36,000,000
                </text>
                <text transform="translate(119.5 45.5)">
                    38,000,000
                </text>
                <text transform="translate(119.5 15.5)">
                    40,000,000
                </text>
            </g>
            <path stroke="#888" d="M126.5 611.5v-600" pointer-events="none"/>
            <text text-anchor="middle" transform="rotate(-90 164 147.5)" font-family="sans-serif" font-size="14" fill="#000" pointer-events="none">
                operations / sec
            </text>
        </g>
        <g class="mark-rect role-mark marks" aria-roledescription="rect mark container" fill="#4c78a8">
            <path aria-label="operations / sec: 38518; module: class-transformer-validator-async" aria-roledescription="bar" d="M128.588 610.422h46.588V611h-46.588z"/>
            <path aria-label="operations / sec: 50527; module: class-transformer-validator-sync" aria-roledescription="bar" d="M180.353 610.242h46.588V611h-46.588z"/>
            <path aria-label="operations / sec: 815884; module: computed-types" aria-roledescription="bar" d="M232.118 598.762h46.588V611h-46.588z"/>
            <path aria-label="operations / sec: 2995156; module: io-ts" aria-roledescription="bar" d="M283.882 566.073h46.589V611h-46.589z"/>
            <path aria-label="operations / sec: 1779082; module: jointz" aria-roledescription="bar" d="M335.647 584.314h46.588V611h-46.588z"/>
            <path aria-label="operations / sec: 939361; module: json-decoder" aria-roledescription="bar" d="M387.412 596.91H434V611h-46.588z"/>
            <path aria-label="operations / sec: 16311514; module: marshal" aria-roledescription="bar" d="M439.176 366.327h46.589V611h-46.589z"/>
            <path aria-label="operations / sec: 1630606; module: myzod" aria-roledescription="bar" d="M490.941 586.54h46.588V611h-46.588z"/>
            <path aria-label="operations / sec: 921392; module: purify-ts" aria-roledescription="bar" d="M542.706 597.18h46.588V611h-46.588z"/>
            <path aria-label="operations / sec: 37087267; module: quartet" aria-roledescription="bar" d="M594.47 54.691h46.589V611H594.47z"/>
            <path aria-label="operations / sec: 870564; module: rulr" aria-roledescription="bar" d="M646.235 597.942h46.589V611h-46.589z"/>
            <path aria-label="operations / sec: 878510; module: runtypes" aria-roledescription="bar" d="M698 597.822h46.588V611H698z"/>
            <path aria-label="operations / sec: 521047; module: toi" aria-roledescription="bar" d="M749.765 603.184h46.588V611h-46.588z"/>
            <path aria-label="operations / sec: 22728157; module: ts-json-validator" aria-roledescription="bar" d="M801.53 270.078h46.588V611h-46.589z"/>
            <path aria-label="operations / sec: 152802; module: ts-utils" aria-roledescription="bar" d="M853.294 608.708h46.588V611h-46.588z"/>
            <path aria-label="operations / sec: 17963; module: yup" aria-roledescription="bar" d="M905.059 610.73h46.588v.27H905.06z"/>
            <path aria-label="operations / sec: 9985; module: zod" aria-roledescription="bar" d="M956.824 610.85h46.588v.15h-46.588z"/>
        </g>
    </g>
</svg>
