<svg xmlns="http://www.w3.org/2000/svg" class="marks" width="1001" height="814">
    <path fill="#fff" d="M0 0h1001v814H0z"/>
    <g class="mark-group role-frame root" aria-roledescription="group mark container" fill="none" stroke-miterlimit="10">
        <path class="background" aria-hidden="true" d="M116.5 5.5h880v600h-880z" stroke="#ddd"/>
        <g class="mark-group role-axis" aria-roledescription="axis" aria-label="Y-axis for a linear scale with values from 0 to 3,500,000">
            <path class="background" aria-hidden="true" d="M116.5 5.5z" pointer-events="none"/>
            <g class="mark-rule role-axis-grid" pointer-events="none" stroke="#ddd">
                <path d="M116.5 605.5h880M116.5 571.5h880M116.5 536.5h880M116.5 502.5h880M116.5 468.5h880M116.5 434.5h880M116.5 399.5h880M116.5 365.5h880M116.5 331.5h880M116.5 296.5h880M116.5 262.5h880M116.5 228.5h880M116.5 194.5h880M116.5 159.5h880M116.5 125.5h880M116.5 91.5h880M116.5 56.5h880M116.5 22.5h880"/>
            </g>
        </g>
        <g class="mark-group role-axis" aria-roledescription="axis" aria-label="X-axis titled 'module' for a discrete scale with 22 values: @mojotech/json-type-validation, @typeofweb/schema, bueno, class-transformer-validator-async, class-transformer-validator-sync, ending with zod">
            <path class="background" aria-hidden="true" d="M116.5 605.5z" pointer-events="none"/>
            <g class="mark-rule role-axis-tick" pointer-events="none" stroke="#888">
                <path d="M136.5 605.5v5M176.5 605.5v5M216.5 605.5v5M256.5 605.5v5M296.5 605.5v5M336.5 605.5v5M376.5 605.5v5M416.5 605.5v5M456.5 605.5v5M496.5 605.5v5M536.5 605.5v5M576.5 605.5v5M616.5 605.5v5M656.5 605.5v5M696.5 605.5v5M736.5 605.5v5M776.5 605.5v5M816.5 605.5v5M856.5 605.5v5M896.5 605.5v5M936.5 605.5v5M976.5 605.5v5"/>
            </g>
            <g class="mark-text role-axis-label" pointer-events="none" font-family="sans-serif" font-size="14" fill="#000">
                <text transform="rotate(90 -240.25 372.25)">@mojotech/json-…</text>
                <text transform="rotate(90 -220.25 392.25)">@typeofweb/sche…</text>
                <text transform="rotate(90 -200.25 412.25)">bueno</text>
                <text transform="rotate(90 -180.25 432.25)">class-transform…</text>
                <text transform="rotate(90 -160.25 452.25)">class-transform…</text>
                <text transform="rotate(90 -140.25 472.25)">computed-types</text>
                <text transform="rotate(90 -120.25 492.25)">decoders</text>
                <text transform="rotate(90 -100.25 512.25)">io-ts</text>
                <text transform="rotate(90 -80.25 532.25)">jointz</text>
                <text transform="rotate(90 -60.25 552.25)">json-decoder</text>
                <text transform="rotate(90 -40.25 572.25)">myzod</text>
                <text transform="rotate(90 -20.25 592.25)">purify-ts</text>
                <text transform="rotate(90 -.25 612.25)">rulr</text>
                <text transform="rotate(90 19.75 632.25)">runtypes</text>
                <text transform="rotate(90 39.75 652.25)">simple-runtypes</text>
                <text transform="rotate(90 59.75 672.25)">superstruct</text>
                <text transform="rotate(90 79.75 692.25)">toi</text>
                <text transform="rotate(90 99.75 712.25)">ts-interface-ch…</text>
                <text transform="rotate(90 119.75 732.25)">ts-utils</text>
                <text transform="rotate(90 139.75 752.25)">valita</text>
                <text transform="rotate(90 159.75 772.25)">yup</text>
                <text transform="rotate(90 179.75 792.25)">zod</text>
            </g>
            <path stroke="#888" d="M116.5 605.5h880" class="mark-rule role-axis-domain" pointer-events="none"/>
            <text text-anchor="middle" transform="translate(556.5 806.5)" font-family="sans-serif" font-size="14" fill="#000" class="mark-text role-axis-title" pointer-events="none">module</text>
        </g>
        <g class="mark-group role-axis" aria-roledescription="axis" aria-label="Y-axis titled 'operations / sec' for a linear scale with values from 0 to 3,500,000">
            <path class="background" aria-hidden="true" d="M116.5 5.5z" pointer-events="none"/>
            <g class="mark-rule role-axis-tick" pointer-events="none" stroke="#888">
                <path d="M116.5 605.5h-5M116.5 571.5h-5M116.5 536.5h-5M116.5 502.5h-5M116.5 468.5h-5M116.5 434.5h-5M116.5 399.5h-5M116.5 365.5h-5M116.5 331.5h-5M116.5 296.5h-5M116.5 262.5h-5M116.5 228.5h-5M116.5 194.5h-5M116.5 159.5h-5M116.5 125.5h-5M116.5 91.5h-5M116.5 56.5h-5M116.5 22.5h-5"/>
            </g>
            <g class="mark-text role-axis-label" pointer-events="none" text-anchor="end" font-family="sans-serif" font-size="12" fill="#000">
                <text transform="translate(109.5 609.5)">0</text>
                <text transform="translate(109.5 575.214)">200,000</text>
                <text transform="translate(109.5 540.929)">400,000</text>
                <text transform="translate(109.5 506.643)">600,000</text>
                <text transform="translate(109.5 472.357)">800,000</text>
                <text transform="translate(109.5 438.071)">1,000,000</text>
                <text transform="translate(109.5 403.786)">1,200,000</text>
                <text transform="translate(109.5 369.5)">1,400,000</text>
                <text transform="translate(109.5 335.214)">1,600,000</text>
                <text transform="translate(109.5 300.929)">1,800,000</text>
                <text transform="translate(109.5 266.643)">2,000,000</text>
                <text transform="translate(109.5 232.357)">2,200,000</text>
                <text transform="translate(109.5 198.071)">2,400,000</text>
                <text transform="translate(109.5 163.786)">2,600,000</text>
                <text transform="translate(109.5 129.5)">2,800,000</text>
                <text transform="translate(109.5 95.214)">3,000,000</text>
                <text transform="translate(109.5 60.929)">3,200,000</text>
                <text transform="translate(109.5 26.643)">3,400,000</text>
            </g>
            <path stroke="#888" d="M116.5 605.5V5.5" class="mark-rule role-axis-domain" pointer-events="none"/>
            <text text-anchor="middle" transform="rotate(-90 161 144.5)" font-family="sans-serif" font-size="14" fill="#000" class="mark-text role-axis-title" pointer-events="none">operations / sec</text>
        </g>
        <g class="mark-rect role-mark marks" aria-roledescription="rect mark container" fill="#4c78a8">
            <path d="M198 578.66h36V605h-36zM238 600.447h36V605h-36zM278 599.424h36V605h-36zM318 487.12h36V605h-36zM358 570.564h36V605h-36zM398 424.978h36V605h-36zM438 341.963h36V605h-36zM478 477.575h36V605h-36zM118 382.443h36V605h-36zM518 394.052h36V605h-36zM558 483.338h36V605h-36zM598 483.44h36V605h-36zM638 485.297h36V605h-36zM678 325.218h36V605h-36zM718 590.145h36V605h-36zM758 528.296h36V605h-36zM798 228.614h36V605h-36zM838 582.22h36V605h-36zM158 454.953h36V605h-36zM878 60.496h36V605h-36zM918 601.865h36V605h-36zM958 603.72h36V605h-36z"/>
        </g>
    </g>
</svg>
