<svg xmlns="http://www.w3.org/2000/svg" class="marks" width="1001" height="820">
    <path fill="#fff" d="M0 0h1001v820H0z"/>
    <g class="mark-group role-frame root" aria-roledescription="group mark container" fill="none" stroke-miterlimit="10">
        <path class="background" aria-hidden="true" d="M116.5 11.5h880v600h-880z" stroke="#ddd"/>
        <g class="mark-group role-axis" aria-roledescription="axis" aria-label="Y-axis for a linear scale with values from 0 to 3,000,000">
            <path class="background" aria-hidden="true" d="M116.5 11.5z" pointer-events="none"/>
            <g class="mark-rule role-axis-grid" pointer-events="none" stroke="#ddd">
                <path d="M116.5 611.5h880M116.5 571.5h880M116.5 531.5h880M116.5 491.5h880M116.5 451.5h880M116.5 411.5h880M116.5 371.5h880M116.5 331.5h880M116.5 291.5h880M116.5 251.5h880M116.5 211.5h880M116.5 171.5h880M116.5 131.5h880M116.5 91.5h880M116.5 51.5h880M116.5 11.5h880"/>
            </g>
        </g>
        <g class="mark-group role-axis" aria-roledescription="axis" aria-label="X-axis titled 'module' for a discrete scale with 19 values: bueno, class-transformer-validator-async, class-transformer-validator-sync, computed-types, decoders, ending with zod">
            <path class="background" aria-hidden="true" d="M116.5 611.5z" pointer-events="none"/>
            <g class="mark-rule role-axis-tick" pointer-events="none" stroke="#888">
                <path d="M139.5 611.5v5M185.5 611.5v5M231.5 611.5v5M278.5 611.5v5M324.5 611.5v5M370.5 611.5v5M417.5 611.5v5M463.5 611.5v5M509.5 611.5v5M556.5 611.5v5M602.5 611.5v5M648.5 611.5v5M694.5 611.5v5M741.5 611.5v5M787.5 611.5v5M833.5 611.5v5M880.5 611.5v5M926.5 611.5v5M972.5 611.5v5"/>
            </g>
            <g class="mark-text role-axis-label" pointer-events="none" font-family="sans-serif" font-size="14" fill="#000">
                <text transform="rotate(90 -241.671 376.829)">bueno</text>
                <text transform="rotate(90 -218.513 399.987)">class-transform…</text>
                <text transform="rotate(90 -195.355 423.145)">class-transform…</text>
                <text transform="rotate(90 -172.197 446.303)">computed-types</text>
                <text transform="rotate(90 -149.04 469.46)">decoders</text>
                <text transform="rotate(90 -125.882 492.618)">io-ts</text>
                <text transform="rotate(90 -102.724 515.776)">jointz</text>
                <text transform="rotate(90 -79.566 538.934)">json-decoder</text>
                <text transform="rotate(90 -56.408 562.092)">myzod</text>
                <text transform="rotate(90 -33.25 585.25)">purify-ts</text>
                <text transform="rotate(90 -10.092 608.408)">rulr</text>
                <text transform="rotate(90 13.066 631.566)">runtypes</text>
                <text transform="rotate(90 36.224 654.724)">simple-runtypes</text>
                <text transform="rotate(90 59.382 677.882)">superstruct</text>
                <text transform="rotate(90 82.54 701.04)">toi</text>
                <text transform="rotate(90 105.697 724.197)">ts-utils</text>
                <text transform="rotate(90 128.855 747.355)">valita</text>
                <text transform="rotate(90 152.013 770.513)">yup</text>
                <text transform="rotate(90 175.171 793.671)">zod</text>
            </g>
            <path stroke="#888" d="M116.5 611.5h880" pointer-events="none"/>
            <text text-anchor="middle" transform="translate(556.5 812.5)" font-family="sans-serif" font-size="14" fill="#000" pointer-events="none">module</text>
        </g>
        <g class="mark-group role-axis" aria-roledescription="axis" aria-label="Y-axis titled 'operations / sec' for a linear scale with values from 0 to 3,000,000">
            <path class="background" aria-hidden="true" d="M116.5 11.5z" pointer-events="none"/>
            <g class="mark-rule role-axis-tick" pointer-events="none" stroke="#888">
                <path d="M116.5 611.5h-5M116.5 571.5h-5M116.5 531.5h-5M116.5 491.5h-5M116.5 451.5h-5M116.5 411.5h-5M116.5 371.5h-5M116.5 331.5h-5M116.5 291.5h-5M116.5 251.5h-5M116.5 211.5h-5M116.5 171.5h-5M116.5 131.5h-5M116.5 91.5h-5M116.5 51.5h-5M116.5 11.5h-5"/>
            </g>
            <g class="mark-text role-axis-label" pointer-events="none" text-anchor="end" font-family="sans-serif" font-size="12" fill="#000">
                <text transform="translate(109.5 615.5)">0</text>
                <text transform="translate(109.5 575.5)">200,000</text>
                <text transform="translate(109.5 535.5)">400,000</text>
                <text transform="translate(109.5 495.5)">600,000</text>
                <text transform="translate(109.5 455.5)">800,000</text>
                <text transform="translate(109.5 415.5)">1,000,000</text>
                <text transform="translate(109.5 375.5)">1,200,000</text>
                <text transform="translate(109.5 335.5)">1,400,000</text>
                <text transform="translate(109.5 295.5)">1,600,000</text>
                <text transform="translate(109.5 255.5)">1,800,000</text>
                <text transform="translate(109.5 215.5)">2,000,000</text>
                <text transform="translate(109.5 175.5)">2,200,000</text>
                <text transform="translate(109.5 135.5)">2,400,000</text>
                <text transform="translate(109.5 95.5)">2,600,000</text>
                <text transform="translate(109.5 55.5)">2,800,000</text>
                <text transform="translate(109.5 15.5)">3,000,000</text>
            </g>
            <path stroke="#888" d="M116.5 611.5v-600" pointer-events="none"/>
            <text text-anchor="middle" transform="rotate(-90 164 147.5)" font-family="sans-serif" font-size="14" fill="#000" pointer-events="none">operations / sec</text>
        </g>
        <g class="mark-rect role-mark marks" aria-roledescription="rect mark container" fill="#4c78a8">
            <path d="M118.316 583.677H160V611h-41.684zM164.632 604.767h41.684V611h-41.684zM210.947 603.702h41.685V611h-41.685zM257.263 489.072h41.684V611h-41.684zM303.579 577.626h41.684V611H303.58zM349.895 418.5h41.684V611h-41.684zM396.21 339.68h41.685V611H396.21zM442.526 478.073h41.685V611h-41.685zM488.842 394.663h41.684V611h-41.684zM535.158 481.052h41.684V611h-41.684zM581.474 481.718h41.684V611h-41.684zM627.79 482.488h41.684V611h-41.685zM674.105 339.972h41.684V611h-41.684zM720.421 600.34h41.684V611h-41.684zM766.737 532.436h41.684V611h-41.684zM813.053 588.352h41.684V611h-41.684zM859.368 31.638h41.685V611h-41.685zM905.684 608.102h41.684V611h-41.684zM952 609.449h41.684V611H952z"/>
        </g>
    </g>
</svg>
