<svg xmlns="http://www.w3.org/2000/svg" class="marks" width="1011" height="814">
    <path fill="#fff" d="M0 0h1011v814H0z"/>
    <g class="mark-group role-frame root" aria-roledescription="group mark container" fill="none" stroke-miterlimit="10">
        <path class="background" aria-hidden="true" d="M126.5 5.5h880v600h-880Z" stroke="#ddd"/>
        <g class="mark-group role-axis" aria-roledescription="axis" aria-label="Y-axis for a linear scale with values from 0 to 35,000,000">
            <path class="background" aria-hidden="true" d="M126.5 5.5Z" pointer-events="none"/>
            <g class="mark-rule role-axis-grid" pointer-events="none" stroke="#ddd">
                <path d="M126.5 605.5h880M126.5 571.5h880M126.5 536.5h880M126.5 502.5h880M126.5 468.5h880M126.5 434.5h880M126.5 399.5h880M126.5 365.5h880M126.5 331.5h880M126.5 296.5h880M126.5 262.5h880M126.5 228.5h880M126.5 194.5h880M126.5 159.5h880M126.5 125.5h880M126.5 91.5h880M126.5 56.5h880M126.5 22.5h880"/>
            </g>
        </g>
        <g pointer-events="none" class="mark-group role-axis" aria-roledescription="axis" aria-label="X-axis titled 'module' for a discrete scale with 25 values: @mojotech/json-type-validation, @typeofweb/schema, bueno, class-transformer-validator-async, class-transformer-validator-sync, ending with zod">
            <path class="background" aria-hidden="true" d="M126.5 605.5Z"/>
            <g class="mark-rule role-axis-tick" stroke="#888">
                <path d="M143.5 605.5v5M178.5 605.5v5M214.5 605.5v5M249.5 605.5v5M284.5 605.5v5M319.5 605.5v5M354.5 605.5v5M390.5 605.5v5M425.5 605.5v5M460.5 605.5v5M495.5 605.5v5M530.5 605.5v5M566.5 605.5v5M601.5 605.5v5M636.5 605.5v5M671.5 605.5v5M706.5 605.5v5M742.5 605.5v5M777.5 605.5v5M812.5 605.5v5M847.5 605.5v5M882.5 605.5v5M918.5 605.5v5M953.5 605.5v5M988.5 605.5v5"/>
            </g>
            <g class="mark-text role-axis-label" font-family="sans-serif" font-size="14" fill="#000">
                <text transform="rotate(90 -236.45 376.05)">@mojotech/json-…</text>
                <text transform="rotate(90 -218.85 393.65)">@typeofweb/sche…</text>
                <text transform="rotate(90 -201.25 411.25)">bueno</text>
                <text transform="rotate(90 -183.65 428.85)">class-transform…</text>
                <text transform="rotate(90 -166.05 446.45)">class-transform…</text>
                <text transform="rotate(90 -148.45 464.05)">computed-types</text>
                <text transform="rotate(90 -130.85 481.65)">decoders</text>
                <text transform="rotate(90 -113.25 499.25)">io-ts</text>
                <text transform="rotate(90 -95.65 516.85)">jointz</text>
                <text transform="rotate(90 -78.05 534.45)">json-decoder</text>
                <text transform="rotate(90 -60.45 552.05)">marshal</text>
                <text transform="rotate(90 -42.85 569.65)">myzod</text>
                <text transform="rotate(90 -25.25 587.25)">purify-ts</text>
                <text transform="rotate(90 -7.65 604.85)">rulr</text>
                <text transform="rotate(90 9.95 622.45)">runtypes</text>
                <text transform="rotate(90 27.55 640.05)">simple-runtypes</text>
                <text transform="rotate(90 45.15 657.65)">superstruct</text>
                <text transform="rotate(90 62.75 675.25)">suretype</text>
                <text transform="rotate(90 80.35 692.85)">toi</text>
                <text transform="rotate(90 97.95 710.45)">ts-interface-ch…</text>
                <text transform="rotate(90 115.55 728.05)">ts-json-validat…</text>
                <text transform="rotate(90 133.15 745.65)">ts-utils</text>
                <text transform="rotate(90 150.75 763.25)">valita</text>
                <text transform="rotate(90 168.35 780.85)">yup</text>
                <text transform="rotate(90 185.95 798.45)">zod</text>
            </g>
            <path stroke="#888" d="M126.5 605.5h880" class="mark-rule role-axis-domain"/>
            <text text-anchor="middle" transform="translate(566.5 806.5)" font-family="sans-serif" font-size="14" fill="#000" class="mark-text role-axis-title">module</text>
        </g>
        <g pointer-events="none" class="mark-group role-axis" aria-roledescription="axis" aria-label="Y-axis titled 'operations / sec' for a linear scale with values from 0 to 35,000,000">
            <path class="background" aria-hidden="true" d="M126.5 5.5Z"/>
            <g class="mark-rule role-axis-tick" stroke="#888">
                <path d="M126.5 605.5h-5M126.5 571.5h-5M126.5 536.5h-5M126.5 502.5h-5M126.5 468.5h-5M126.5 434.5h-5M126.5 399.5h-5M126.5 365.5h-5M126.5 331.5h-5M126.5 296.5h-5M126.5 262.5h-5M126.5 228.5h-5M126.5 194.5h-5M126.5 159.5h-5M126.5 125.5h-5M126.5 91.5h-5M126.5 56.5h-5M126.5 22.5h-5"/>
            </g>
            <g class="mark-text role-axis-label" text-anchor="end" font-family="sans-serif" font-size="12" fill="#000">
                <text transform="translate(119.5 609.5)">0</text>
                <text transform="translate(119.5 575.214)">2,000,000</text>
                <text transform="translate(119.5 540.929)">4,000,000</text>
                <text transform="translate(119.5 506.643)">6,000,000</text>
                <text transform="translate(119.5 472.357)">8,000,000</text>
                <text transform="translate(119.5 438.071)">10,000,000</text>
                <text transform="translate(119.5 403.786)">12,000,000</text>
                <text transform="translate(119.5 369.5)">14,000,000</text>
                <text transform="translate(119.5 335.214)">16,000,000</text>
                <text transform="translate(119.5 300.929)">18,000,000</text>
                <text transform="translate(119.5 266.643)">20,000,000</text>
                <text transform="translate(119.5 232.357)">22,000,000</text>
                <text transform="translate(119.5 198.071)">24,000,000</text>
                <text transform="translate(119.5 163.786)">26,000,000</text>
                <text transform="translate(119.5 129.5)">28,000,000</text>
                <text transform="translate(119.5 95.214)">30,000,000</text>
                <text transform="translate(119.5 60.929)">32,000,000</text>
                <text transform="translate(119.5 26.643)">34,000,000</text>
            </g>
            <path stroke="#888" d="M126.5 605.5V5.5" class="mark-rule role-axis-domain"/>
            <text text-anchor="middle" transform="rotate(-90 161 144.5)" font-family="sans-serif" font-size="14" fill="#000" class="mark-text role-axis-title">operations / sec</text>
        </g>
        <g class="mark-rect role-mark marks" aria-roledescription="rect mark container" fill="#4c78a8">
            <path d="M198.16 602.717h31.68V605h-31.68ZM233.36 604.594h31.68V605h-31.68ZM268.56 604.55h31.68v.45h-31.68ZM303.76 593.532h31.68V605h-31.68ZM338.96 601.776h31.68V605h-31.68ZM374.16 592.164h31.68V605h-31.68ZM409.36 591.611h31.68V605h-31.68ZM444.56 594.429h31.68V605h-31.68ZM479.76 286.997h31.68V605h-31.68ZM127.76 585.205h31.68V605h-31.68ZM514.96 588.227h31.68V605h-31.68ZM550.16 598.27h31.68V605h-31.68ZM585.36 594.455h31.68V605h-31.68ZM620.56 593.275h31.68V605h-31.68ZM655.76 579.818h31.68V605h-31.68ZM690.96 603.645h31.68V605h-31.68ZM726.16 116.584h31.68V605h-31.68ZM761.36 597.565h31.68V605h-31.68ZM796.56 569.077h31.68V605h-31.68ZM831.76 86.987h31.68V605h-31.68ZM866.96 603.265h31.68V605h-31.68ZM162.96 594.8h31.68V605h-31.68ZM902.16 573.715h31.68V605h-31.68ZM937.36 604.684h31.68V605h-31.68ZM972.56 598.42h31.68V605h-31.68Z"/>
        </g>
    </g>
</svg>
