<svg xmlns="http://www.w3.org/2000/svg" class="marks" width="1011" height="820">
    <path fill="#fff" d="M0 0h1011v820H0z"/>
    <g class="mark-group role-frame root" aria-roledescription="group mark container" fill="none" stroke-miterlimit="10">
        <path class="background" aria-hidden="true" d="M126.5 11.5h880v600h-880z" stroke="#ddd"/>
        <g class="mark-group role-axis" aria-roledescription="axis" aria-label="Y-axis for a linear scale with values from 0 to 16,000,000">
            <path class="background" aria-hidden="true" d="M126.5 11.5z" pointer-events="none"/>
            <g class="mark-rule role-axis-grid" pointer-events="none" stroke="#ddd">
                <path d="M126.5 611.5h880M126.5 574.5h880M126.5 536.5h880M126.5 499.5h880M126.5 461.5h880M126.5 424.5h880M126.5 386.5h880M126.5 349.5h880M126.5 311.5h880M126.5 274.5h880M126.5 236.5h880M126.5 199.5h880M126.5 161.5h880M126.5 124.5h880M126.5 86.5h880M126.5 49.5h880M126.5 11.5h880"/>
            </g>
        </g>
        <g class="mark-group role-axis" aria-roledescription="axis" aria-label="X-axis titled 'module' for a discrete scale with 24 values: @typeofweb/schema, bueno, class-transformer-validator-async, class-transformer-validator-sync, computed-types, ending with zod">
            <path class="background" aria-hidden="true" d="M126.5 611.5z" pointer-events="none"/>
            <g class="mark-rule role-axis-tick" pointer-events="none" stroke="#888">
                <path d="M144.5 611.5v5M181.5 611.5v5M217.5 611.5v5M254.5 611.5v5M291.5 611.5v5M327.5 611.5v5M364.5 611.5v5M401.5 611.5v5M437.5 611.5v5M474.5 611.5v5M511.5 611.5v5M547.5 611.5v5M584.5 611.5v5M621.5 611.5v5M657.5 611.5v5M694.5 611.5v5M731.5 611.5v5M767.5 611.5v5M804.5 611.5v5M841.5 611.5v5M877.5 611.5v5M914.5 611.5v5M951.5 611.5v5M987.5 611.5v5"/>
            </g>
            <g class="mark-text role-axis-label" pointer-events="none" font-family="sans-serif" font-size="14" fill="#000">
                <text transform="rotate(90 -239.083 379.417)">@typeofweb/sche…</text>
                <text transform="rotate(90 -220.75 397.75)">bueno</text>
                <text transform="rotate(90 -202.417 416.083)">class-transform…</text>
                <text transform="rotate(90 -184.083 434.417)">class-transform…</text>
                <text transform="rotate(90 -165.75 452.75)">computed-types</text>
                <text transform="rotate(90 -147.417 471.083)">decoders</text>
                <text transform="rotate(90 -129.083 489.417)">io-ts</text>
                <text transform="rotate(90 -110.75 507.75)">jointz</text>
                <text transform="rotate(90 -92.417 526.083)">json-decoder</text>
                <text transform="rotate(90 -74.083 544.417)">marshal</text>
                <text transform="rotate(90 -55.75 562.75)">myzod</text>
                <text transform="rotate(90 -37.417 581.083)">purify-ts</text>
                <text transform="rotate(90 -19.083 599.417)">rulr</text>
                <text transform="rotate(90 -.75 617.75)">runtypes</text>
                <text transform="rotate(90 17.583 636.083)">simple-runtypes</text>
                <text transform="rotate(90 35.917 654.417)">superstruct</text>
                <text transform="rotate(90 54.25 672.75)">suretype</text>
                <text transform="rotate(90 72.583 691.083)">toi</text>
                <text transform="rotate(90 90.917 709.417)">ts-interface-ch…</text>
                <text transform="rotate(90 109.25 727.75)">ts-json-validat…</text>
                <text transform="rotate(90 127.583 746.083)">ts-utils</text>
                <text transform="rotate(90 145.917 764.417)">valita</text>
                <text transform="rotate(90 164.25 782.75)">yup</text>
                <text transform="rotate(90 182.583 801.083)">zod</text>
            </g>
            <path stroke="#888" d="M126.5 611.5h880" class="mark-rule role-axis-domain" pointer-events="none"/>
            <text text-anchor="middle" transform="translate(566.5 812.5)" font-family="sans-serif" font-size="14" fill="#000" class="mark-text role-axis-title" pointer-events="none">module</text>
        </g>
        <g class="mark-group role-axis" aria-roledescription="axis" aria-label="Y-axis titled 'operations / sec' for a linear scale with values from 0 to 16,000,000">
            <path class="background" aria-hidden="true" d="M126.5 11.5z" pointer-events="none"/>
            <g class="mark-rule role-axis-tick" pointer-events="none" stroke="#888">
                <path d="M126.5 611.5h-5M126.5 574.5h-5M126.5 536.5h-5M126.5 499.5h-5M126.5 461.5h-5M126.5 424.5h-5M126.5 386.5h-5M126.5 349.5h-5M126.5 311.5h-5M126.5 274.5h-5M126.5 236.5h-5M126.5 199.5h-5M126.5 161.5h-5M126.5 124.5h-5M126.5 86.5h-5M126.5 49.5h-5M126.5 11.5h-5"/>
            </g>
            <g class="mark-text role-axis-label" pointer-events="none" text-anchor="end" font-family="sans-serif" font-size="12" fill="#000">
                <text transform="translate(119.5 615.5)">0</text>
                <text transform="translate(119.5 578)">1,000,000</text>
                <text transform="translate(119.5 540.5)">2,000,000</text>
                <text transform="translate(119.5 503)">3,000,000</text>
                <text transform="translate(119.5 465.5)">4,000,000</text>
                <text transform="translate(119.5 428)">5,000,000</text>
                <text transform="translate(119.5 390.5)">6,000,000</text>
                <text transform="translate(119.5 353)">7,000,000</text>
                <text transform="translate(119.5 315.5)">8,000,000</text>
                <text transform="translate(119.5 278)">9,000,000</text>
                <text transform="translate(119.5 240.5)">10,000,000</text>
                <text transform="translate(119.5 203)">11,000,000</text>
                <text transform="translate(119.5 165.5)">12,000,000</text>
                <text transform="translate(119.5 128)">13,000,000</text>
                <text transform="translate(119.5 90.5)">14,000,000</text>
                <text transform="translate(119.5 53)">15,000,000</text>
                <text transform="translate(119.5 15.5)">16,000,000</text>
            </g>
            <path stroke="#888" d="M126.5 611.5v-600" class="mark-rule role-axis-domain" pointer-events="none"/>
            <text text-anchor="middle" transform="rotate(-90 164 147.5)" font-family="sans-serif" font-size="14" fill="#000" class="mark-text role-axis-title" pointer-events="none">operations / sec</text>
        </g>
        <g class="mark-rect role-mark marks" aria-roledescription="rect mark container" fill="#4c78a8">
            <path d="M164.5 604.066h33V611h-33zM201.167 609.37h33V611h-33zM237.833 609.245h33V611h-33zM274.5 580.678h33V611h-33zM311.167 601.11h33V611h-33zM347.833 559.853h33V611h-33zM384.5 541.179h33V611h-33zM421.167 578.972h33V611h-33zM457.833 96.777h33V611h-33zM494.5 556.288h33V611h-33zM531.167 577.255h33V611h-33zM567.833 578.206h33V611h-33zM604.5 574.373h33V611h-33zM641.167 541.457h33V611h-33zM677.833 606.93h33V611h-33zM714.5 70.47h33V611h-33zM751.167 589.784h33V611h-33zM787.833 508.56h33V611h-33zM824.5 55.125h33V611h-33zM861.167 605.995h33V611h-33zM127.833 574.163h33V611h-33zM897.833 481.213h33V611h-33zM934.5 609.756h33V611h-33zM971.167 610.564h33V611h-33z"/>
        </g>
    </g>
</svg>
