<svg class="marks" width="1001" height="814" xmlns="http://www.w3.org/2000/svg">
    <path fill="#fff" d="M0 0h1001v814H0z"/>
    <g class="mark-group role-frame root">
        <path class="background" d="M116.5 5.5h880v600h-880z" fill="none" stroke="#ddd"/>
        <g class="mark-group role-axis">
            <path class="background" d="M116.5 5.5z" pointer-events="none" fill="none"/>
            <g class="mark-rule role-axis-grid" pointer-events="none" fill="none" stroke="#ddd">
                <path d="M116.5 605.5h880M116.5 578.5h880M116.5 552.5h880M116.5 525.5h880M116.5 498.5h880M116.5 472.5h880M116.5 445.5h880M116.5 418.5h880M116.5 392.5h880M116.5 365.5h880M116.5 338.5h880M116.5 312.5h880M116.5 285.5h880M116.5 258.5h880M116.5 232.5h880M116.5 205.5h880M116.5 178.5h880M116.5 152.5h880M116.5 125.5h880M116.5 98.5h880M116.5 72.5h880M116.5 45.5h880M116.5 18.5h880"/>
            </g>
        </g>
        <g class="mark-group role-axis">
            <path class="background" d="M116.5 605.5z" pointer-events="none" fill="none"/>
            <g class="mark-rule role-axis-tick" pointer-events="none" fill="none" stroke="#888">
                <path d="M152.5 605.5v5M226.5 605.5v5M299.5 605.5v5M372.5 605.5v5M446.5 605.5v5M519.5 605.5v5M592.5 605.5v5M666.5 605.5v5M739.5 605.5v5M812.5 605.5v5M886.5 605.5v5M959.5 605.5v5"/>
            </g>
            <g class="mark-text role-axis-label" pointer-events="none" font-family="sans-serif" font-size="14">
                <text transform="rotate(90 -231.917 380.583)">
                    class-transform…
                </text>
                <text transform="rotate(90 -195.25 417.25)">
                    class-transform…
                </text>
                <text transform="rotate(90 -158.583 453.917)">
                    funval
                </text>
                <text transform="rotate(90 -121.917 490.583)">
                    io-ts
                </text>
                <text transform="rotate(90 -85.25 527.25)">
                    json-decoder
                </text>
                <text transform="rotate(90 -48.583 563.917)">
                    marshal
                </text>
                <text transform="rotate(90 -11.917 600.583)">
                    myzod
                </text>
                <text transform="rotate(90 24.75 637.25)">
                    purify-ts
                </text>
                <text transform="rotate(90 61.417 673.917)">
                    runtypes
                </text>
                <text transform="rotate(90 98.083 710.583)">
                    toi
                </text>
                <text transform="rotate(90 134.75 747.25)">
                    ts-utils
                </text>
                <text transform="rotate(90 171.417 783.917)">
                    zod
                </text>
            </g>
            <path fill="none" stroke="#888" d="M116.5 605.5h880" pointer-events="none"/>
            <text text-anchor="middle" transform="translate(556.5 806.5)" font-family="sans-serif" font-size="14" font-weight="400" pointer-events="none">
                module
            </text>
        </g>
        <g class="mark-group role-axis">
            <path class="background" d="M116.5 5.5z" pointer-events="none" fill="none"/>
            <g class="mark-rule role-axis-tick" pointer-events="none" fill="none" stroke="#888">
                <path d="M116.5 605.5h-5M116.5 578.5h-5M116.5 552.5h-5M116.5 525.5h-5M116.5 498.5h-5M116.5 472.5h-5M116.5 445.5h-5M116.5 418.5h-5M116.5 392.5h-5M116.5 365.5h-5M116.5 338.5h-5M116.5 312.5h-5M116.5 285.5h-5M116.5 258.5h-5M116.5 232.5h-5M116.5 205.5h-5M116.5 178.5h-5M116.5 152.5h-5M116.5 125.5h-5M116.5 98.5h-5M116.5 72.5h-5M116.5 45.5h-5M116.5 18.5h-5"/>
            </g>
            <g class="mark-text role-axis-label" pointer-events="none" text-anchor="end" font-family="sans-serif" font-size="12">
                <text transform="translate(109.5 609.5)">
                    0
                </text>
                <text transform="translate(109.5 582.833)">
                    200,000
                </text>
                <text transform="translate(109.5 556.167)">
                    400,000
                </text>
                <text transform="translate(109.5 529.5)">
                    600,000
                </text>
                <text transform="translate(109.5 502.833)">
                    800,000
                </text>
                <text transform="translate(109.5 476.167)">
                    1,000,000
                </text>
                <text transform="translate(109.5 449.5)">
                    1,200,000
                </text>
                <text transform="translate(109.5 422.833)">
                    1,400,000
                </text>
                <text transform="translate(109.5 396.167)">
                    1,600,000
                </text>
                <text transform="translate(109.5 369.5)">
                    1,800,000
                </text>
                <text transform="translate(109.5 342.833)">
                    2,000,000
                </text>
                <text transform="translate(109.5 316.167)">
                    2,200,000
                </text>
                <text transform="translate(109.5 289.5)">
                    2,400,000
                </text>
                <text transform="translate(109.5 262.833)">
                    2,600,000
                </text>
                <text transform="translate(109.5 236.167)">
                    2,800,000
                </text>
                <text transform="translate(109.5 209.5)">
                    3,000,000
                </text>
                <text transform="translate(109.5 182.833)">
                    3,200,000
                </text>
                <text transform="translate(109.5 156.167)">
                    3,400,000
                </text>
                <text transform="translate(109.5 129.5)">
                    3,600,000
                </text>
                <text transform="translate(109.5 102.833)">
                    3,800,000
                </text>
                <text transform="translate(109.5 76.167)">
                    4,000,000
                </text>
                <text transform="translate(109.5 49.5)">
                    4,200,000
                </text>
                <text transform="translate(109.5 22.833)">
                    4,400,000
                </text>
            </g>
            <path fill="none" stroke="#888" d="M116.5 605.5V5.5" pointer-events="none"/>
            <text text-anchor="middle" transform="rotate(-90 161 144.5)" font-family="sans-serif" font-size="14" font-weight="400" pointer-events="none">
                operations / sec
            </text>
        </g>
        <g class="mark-rect role-mark marks" fill="#4c78a8">
            <path d="M119.667 600.476h66V605h-66zM193 599.715h66V605h-66zM266.333 495.65h66V605h-66zM339.667 222.972h66V605h-66zM413 500.795h66V605h-66zM486.333 59.634h66V605h-66zM559.667 530.682h66V605h-66zM633 499.642h66V605h-66zM706.333 496.119h66V605h-66zM779.667 541.402h66V605h-66zM853 587.5h66V605h-66zM926.333 597.902h66V605h-66z"/>
        </g>
    </g>
</svg>
