<svg class="marks" width="1001" height="820" xmlns="http://www.w3.org/2000/svg">
    <path fill="#fff" d="M0 0h1001v820H0z"/>
    <g class="mark-group role-frame root" aria-roledescription="group mark container" fill="none" stroke-miterlimit="10">
        <path class="background" aria-hidden="true" d="M116.5 11.5h880v600h-880z" stroke="#ddd"/>
        <g class="mark-group role-axis" aria-hidden="true">
            <path class="background" aria-hidden="true" d="M116.5 11.5z" pointer-events="none"/>
            <g class="mark-rule role-axis-grid" pointer-events="none" stroke="#ddd">
                <path d="M116.5 611.5h880M116.5 556.5h880M116.5 502.5h880M116.5 447.5h880M116.5 393.5h880M116.5 338.5h880M116.5 284.5h880M116.5 229.5h880M116.5 175.5h880M116.5 120.5h880M116.5 66.5h880M116.5 11.5h880"/>
            </g>
        </g>
        <g class="mark-group role-axis" aria-roledescription="axis" aria-label="X-axis titled 'module' for a discrete scale with 16 values: bueno, class-transformer-validator-async, class-transformer-validator-sync, computed-types, io-ts, ending with zod">
            <path class="background" aria-hidden="true" d="M116.5 611.5z" pointer-events="none"/>
            <g class="mark-rule role-axis-tick" pointer-events="none" stroke="#888">
                <path d="M143.5 611.5v5M198.5 611.5v5M253.5 611.5v5M308.5 611.5v5M363.5 611.5v5M418.5 611.5v5M473.5 611.5v5M528.5 611.5v5M583.5 611.5v5M638.5 611.5v5M693.5 611.5v5M748.5 611.5v5M803.5 611.5v5M858.5 611.5v5M913.5 611.5v5M968.5 611.5v5"/>
            </g>
            <g class="mark-text role-axis-label" pointer-events="none" font-family="sans-serif" font-size="14" fill="#000">
                <text transform="rotate(90 -239.5 379)">
                    bueno
                </text>
                <text transform="rotate(90 -212 406.5)">
                    class-transform…
                </text>
                <text transform="rotate(90 -184.5 434)">
                    class-transform…
                </text>
                <text transform="rotate(90 -157 461.5)">
                    computed-types
                </text>
                <text transform="rotate(90 -129.5 489)">
                    io-ts
                </text>
                <text transform="rotate(90 -102 516.5)">
                    jointz
                </text>
                <text transform="rotate(90 -74.5 544)">
                    json-decoder
                </text>
                <text transform="rotate(90 -47 571.5)">
                    myzod
                </text>
                <text transform="rotate(90 -19.5 599)">
                    purify-ts
                </text>
                <text transform="rotate(90 8 626.5)">
                    rulr
                </text>
                <text transform="rotate(90 35.5 654)">
                    runtypes
                </text>
                <text transform="rotate(90 63 681.5)">
                    simple-runtypes
                </text>
                <text transform="rotate(90 90.5 709)">
                    toi
                </text>
                <text transform="rotate(90 118 736.5)">
                    ts-utils
                </text>
                <text transform="rotate(90 145.5 764)">
                    yup
                </text>
                <text transform="rotate(90 173 791.5)">
                    zod
                </text>
            </g>
            <path stroke="#888" d="M116.5 611.5h880" pointer-events="none"/>
            <text text-anchor="middle" transform="translate(556.5 812.5)" font-family="sans-serif" font-size="14" fill="#000" pointer-events="none">
                module
            </text>
        </g>
        <g class="mark-group role-axis" aria-roledescription="axis" aria-label="Y-axis titled 'operations / sec' for a linear scale with values from 0 to 2,200,000">
            <path class="background" aria-hidden="true" d="M116.5 11.5z" pointer-events="none"/>
            <g class="mark-rule role-axis-tick" pointer-events="none" stroke="#888">
                <path d="M116.5 611.5h-5M116.5 556.5h-5M116.5 502.5h-5M116.5 447.5h-5M116.5 393.5h-5M116.5 338.5h-5M116.5 284.5h-5M116.5 229.5h-5M116.5 175.5h-5M116.5 120.5h-5M116.5 66.5h-5M116.5 11.5h-5"/>
            </g>
            <g class="mark-text role-axis-label" pointer-events="none" text-anchor="end" font-family="sans-serif" font-size="12" fill="#000">
                <text transform="translate(109.5 615.5)">
                    0
                </text>
                <text transform="translate(109.5 560.955)">
                    200,000
                </text>
                <text transform="translate(109.5 506.41)">
                    400,000
                </text>
                <text transform="translate(109.5 451.864)">
                    600,000
                </text>
                <text transform="translate(109.5 397.318)">
                    800,000
                </text>
                <text transform="translate(109.5 342.773)">
                    1,000,000
                </text>
                <text transform="translate(109.5 288.227)">
                    1,200,000
                </text>
                <text transform="translate(109.5 233.682)">
                    1,400,000
                </text>
                <text transform="translate(109.5 179.136)">
                    1,600,000
                </text>
                <text transform="translate(109.5 124.59)">
                    1,800,000
                </text>
                <text transform="translate(109.5 70.045)">
                    2,000,000
                </text>
                <text transform="translate(109.5 15.5)">
                    2,200,000
                </text>
            </g>
            <path stroke="#888" d="M116.5 611.5v-600" pointer-events="none"/>
            <text text-anchor="middle" transform="rotate(-90 164 147.5)" font-family="sans-serif" font-size="14" fill="#000" pointer-events="none">
                operations / sec
            </text>
        </g>
        <g class="mark-rect role-mark marks" aria-roledescription="rect mark container" fill="#4c78a8">
            <path aria-label="operations / sec: 106255; module: bueno" aria-roledescription="bar" d="M118.75 582.021h49.5V611h-49.5z"/>
            <path aria-label="operations / sec: 19736; module: class-transformer-validator-async" aria-roledescription="bar" d="M173.75 605.617h49.5V611h-49.5z"/>
            <path aria-label="operations / sec: 27340; module: class-transformer-validator-sync" aria-roledescription="bar" d="M228.75 603.544h49.5V611h-49.5z"/>
            <path aria-label="operations / sec: 506352; module: computed-types" aria-roledescription="bar" d="M283.75 472.904h49.5V611h-49.5z"/>
            <path aria-label="operations / sec: 2010821; module: io-ts" aria-roledescription="bar" d="M338.75 62.594h49.5V611h-49.5z"/>
            <path aria-label="operations / sec: 1176064; module: jointz" aria-roledescription="bar" d="M393.75 290.255h49.5V611h-49.5z"/>
            <path aria-label="operations / sec: 548991; module: json-decoder" aria-roledescription="bar" d="M448.75 461.275h49.5V611h-49.5z"/>
            <path aria-label="operations / sec: 1020081; module: myzod" aria-roledescription="bar" d="M503.75 332.796h49.5V611h-49.5z"/>
            <path aria-label="operations / sec: 519290; module: purify-ts" aria-roledescription="bar" d="M558.75 469.375h49.5V611h-49.5z"/>
            <path aria-label="operations / sec: 526690; module: rulr" aria-roledescription="bar" d="M613.75 467.357h49.5V611h-49.5z"/>
            <path aria-label="operations / sec: 572060; module: runtypes" aria-roledescription="bar" d="M668.75 454.984h49.5V611h-49.5z"/>
            <path aria-label="operations / sec: 1260014; module: simple-runtypes" aria-roledescription="bar" d="M723.75 267.36h49.5V611h-49.5z"/>
            <path aria-label="operations / sec: 339395; module: toi" aria-roledescription="bar" d="M778.75 518.438h49.5V611h-49.5z"/>
            <path aria-label="operations / sec: 94329; module: ts-utils" aria-roledescription="bar" d="M833.75 585.274h49.5V611h-49.5z"/>
            <path aria-label="operations / sec: 9707; module: yup" aria-roledescription="bar" d="M888.75 608.353h49.5V611h-49.5z"/>
            <path aria-label="operations / sec: 6278; module: zod" aria-roledescription="bar" d="M943.75 609.288h49.5V611h-49.5z"/>
        </g>
    </g>
</svg>
