<svg xmlns="http://www.w3.org/2000/svg" class="marks" width="1001" height="814">
    <path fill="#fff" d="M0 0h1001v814H0z"/>
    <g class="mark-group role-frame root" aria-roledescription="group mark container" fill="none" stroke-miterlimit="10">
        <path class="background" aria-hidden="true" d="M116.5 5.5h880v600h-880z" stroke="#ddd"/>
        <g class="mark-group role-axis" aria-roledescription="axis" aria-label="Y-axis for a linear scale with values from 0 to 4,500,000">
            <path class="background" aria-hidden="true" d="M116.5 5.5z" pointer-events="none"/>
            <g class="mark-rule role-axis-grid" pointer-events="none" stroke="#ddd">
                <path d="M116.5 605.5h880M116.5 578.5h880M116.5 552.5h880M116.5 525.5h880M116.5 498.5h880M116.5 472.5h880M116.5 445.5h880M116.5 418.5h880M116.5 392.5h880M116.5 365.5h880M116.5 338.5h880M116.5 312.5h880M116.5 285.5h880M116.5 258.5h880M116.5 232.5h880M116.5 205.5h880M116.5 178.5h880M116.5 152.5h880M116.5 125.5h880M116.5 98.5h880M116.5 72.5h880M116.5 45.5h880M116.5 18.5h880"/>
            </g>
        </g>
        <g class="mark-group role-axis" aria-roledescription="axis" aria-label="X-axis titled 'module' for a discrete scale with 22 values: @mojotech/json-type-validation, @typeofweb/schema, bueno, class-transformer-validator-async, class-transformer-validator-sync, ending with zod">
            <path class="background" aria-hidden="true" d="M116.5 605.5z" pointer-events="none"/>
            <g class="mark-rule role-axis-tick" pointer-events="none" stroke="#888">
                <path d="M136.5 605.5v5M176.5 605.5v5M216.5 605.5v5M256.5 605.5v5M296.5 605.5v5M336.5 605.5v5M376.5 605.5v5M416.5 605.5v5M456.5 605.5v5M496.5 605.5v5M536.5 605.5v5M576.5 605.5v5M616.5 605.5v5M656.5 605.5v5M696.5 605.5v5M736.5 605.5v5M776.5 605.5v5M816.5 605.5v5M856.5 605.5v5M896.5 605.5v5M936.5 605.5v5M976.5 605.5v5"/>
            </g>
            <g class="mark-text role-axis-label" pointer-events="none" font-family="sans-serif" font-size="14" fill="#000">
                <text transform="rotate(90 -240.25 372.25)">@mojotech/json-…</text>
                <text transform="rotate(90 -220.25 392.25)">@typeofweb/sche…</text>
                <text transform="rotate(90 -200.25 412.25)">bueno</text>
                <text transform="rotate(90 -180.25 432.25)">class-transform…</text>
                <text transform="rotate(90 -160.25 452.25)">class-transform…</text>
                <text transform="rotate(90 -140.25 472.25)">computed-types</text>
                <text transform="rotate(90 -120.25 492.25)">decoders</text>
                <text transform="rotate(90 -100.25 512.25)">io-ts</text>
                <text transform="rotate(90 -80.25 532.25)">jointz</text>
                <text transform="rotate(90 -60.25 552.25)">json-decoder</text>
                <text transform="rotate(90 -40.25 572.25)">myzod</text>
                <text transform="rotate(90 -20.25 592.25)">purify-ts</text>
                <text transform="rotate(90 -.25 612.25)">rulr</text>
                <text transform="rotate(90 19.75 632.25)">runtypes</text>
                <text transform="rotate(90 39.75 652.25)">simple-runtypes</text>
                <text transform="rotate(90 59.75 672.25)">superstruct</text>
                <text transform="rotate(90 79.75 692.25)">toi</text>
                <text transform="rotate(90 99.75 712.25)">ts-interface-ch…</text>
                <text transform="rotate(90 119.75 732.25)">ts-utils</text>
                <text transform="rotate(90 139.75 752.25)">valita</text>
                <text transform="rotate(90 159.75 772.25)">yup</text>
                <text transform="rotate(90 179.75 792.25)">zod</text>
            </g>
            <path stroke="#888" d="M116.5 605.5h880" class="mark-rule role-axis-domain" pointer-events="none"/>
            <text text-anchor="middle" transform="translate(556.5 806.5)" font-family="sans-serif" font-size="14" fill="#000" class="mark-text role-axis-title" pointer-events="none">module</text>
        </g>
        <g class="mark-group role-axis" aria-roledescription="axis" aria-label="Y-axis titled 'operations / sec' for a linear scale with values from 0 to 4,500,000">
            <path class="background" aria-hidden="true" d="M116.5 5.5z" pointer-events="none"/>
            <g class="mark-rule role-axis-tick" pointer-events="none" stroke="#888">
                <path d="M116.5 605.5h-5M116.5 578.5h-5M116.5 552.5h-5M116.5 525.5h-5M116.5 498.5h-5M116.5 472.5h-5M116.5 445.5h-5M116.5 418.5h-5M116.5 392.5h-5M116.5 365.5h-5M116.5 338.5h-5M116.5 312.5h-5M116.5 285.5h-5M116.5 258.5h-5M116.5 232.5h-5M116.5 205.5h-5M116.5 178.5h-5M116.5 152.5h-5M116.5 125.5h-5M116.5 98.5h-5M116.5 72.5h-5M116.5 45.5h-5M116.5 18.5h-5"/>
            </g>
            <g class="mark-text role-axis-label" pointer-events="none" text-anchor="end" font-family="sans-serif" font-size="12" fill="#000">
                <text transform="translate(109.5 609.5)">0</text>
                <text transform="translate(109.5 582.833)">200,000</text>
                <text transform="translate(109.5 556.167)">400,000</text>
                <text transform="translate(109.5 529.5)">600,000</text>
                <text transform="translate(109.5 502.833)">800,000</text>
                <text transform="translate(109.5 476.167)">1,000,000</text>
                <text transform="translate(109.5 449.5)">1,200,000</text>
                <text transform="translate(109.5 422.833)">1,400,000</text>
                <text transform="translate(109.5 396.167)">1,600,000</text>
                <text transform="translate(109.5 369.5)">1,800,000</text>
                <text transform="translate(109.5 342.833)">2,000,000</text>
                <text transform="translate(109.5 316.167)">2,200,000</text>
                <text transform="translate(109.5 289.5)">2,400,000</text>
                <text transform="translate(109.5 262.833)">2,600,000</text>
                <text transform="translate(109.5 236.167)">2,800,000</text>
                <text transform="translate(109.5 209.5)">3,000,000</text>
                <text transform="translate(109.5 182.833)">3,200,000</text>
                <text transform="translate(109.5 156.167)">3,400,000</text>
                <text transform="translate(109.5 129.5)">3,600,000</text>
                <text transform="translate(109.5 102.833)">3,800,000</text>
                <text transform="translate(109.5 76.167)">4,000,000</text>
                <text transform="translate(109.5 49.5)">4,200,000</text>
                <text transform="translate(109.5 22.833)">4,400,000</text>
            </g>
            <path stroke="#888" d="M116.5 605.5V5.5" class="mark-rule role-axis-domain" pointer-events="none"/>
            <text text-anchor="middle" transform="rotate(-90 161 144.5)" font-family="sans-serif" font-size="14" fill="#000" class="mark-text role-axis-title" pointer-events="none">operations / sec</text>
        </g>
        <g class="mark-rect role-mark marks" aria-roledescription="rect mark container" fill="#4c78a8">
            <path d="M198 577.014h36V605h-36zM238 598.816h36V605h-36zM278 597.926h36V605h-36zM318 475.833h36V605h-36zM358 569.1h36V605h-36zM398 422.69h36V605h-36zM438 347.141h36V605h-36zM478 479.134h36V605h-36zM518 366.046h36V605h-36zM558 494.112h36V605h-36zM598 464.823h36V605h-36zM638 466.906h36V605h-36zM678 304.763h36V605h-36zM718 589.19h36V605h-36zM758 518.967h36V605h-36zM798 146.682h36V605h-36zM838 580.206h36V605h-36zM158 443.683h36V605h-36zM878 52.598h36V605h-36zM918 600.294h36V605h-36zM958 603.87h36V605h-36zM118 386.157h36V605h-36z"/>
        </g>
    </g>
</svg>
