<svg class="marks" width="1011" height="820" xmlns="http://www.w3.org/2000/svg">
    <path fill="#fff" d="M0 0h1011v820H0z"/>
    <g class="mark-group role-frame root" aria-roledescription="group mark container">
        <path class="background" aria-hidden="true" d="M126.5 11.5h880v600h-880z" fill="none" stroke="#ddd"/>
        <g class="mark-group role-axis" aria-hidden="true">
            <path class="background" aria-hidden="true" d="M126.5 11.5z" pointer-events="none" fill="none"/>
            <g class="mark-rule role-axis-grid" pointer-events="none" fill="none" stroke="#ddd">
                <path d="M126.5 611.5h880M126.5 581.5h880M126.5 551.5h880M126.5 521.5h880M126.5 491.5h880M126.5 461.5h880M126.5 431.5h880M126.5 401.5h880M126.5 371.5h880M126.5 341.5h880M126.5 311.5h880M126.5 281.5h880M126.5 251.5h880M126.5 221.5h880M126.5 191.5h880M126.5 161.5h880M126.5 131.5h880M126.5 101.5h880M126.5 71.5h880M126.5 41.5h880M126.5 11.5h880"/>
            </g>
        </g>
        <g class="mark-group role-axis" aria-roledescription="axis" aria-label="X-axis titled 'module' for a discrete scale with 16 values: class-transformer-validator-async, class-transformer-validator-sync, funval, io-ts, jointz, ending with zod">
            <path class="background" aria-hidden="true" d="M126.5 611.5z" pointer-events="none" fill="none"/>
            <g class="mark-rule role-axis-tick" pointer-events="none" fill="none" stroke="#888">
                <path d="M153.5 611.5v5M208.5 611.5v5M263.5 611.5v5M318.5 611.5v5M373.5 611.5v5M428.5 611.5v5M483.5 611.5v5M538.5 611.5v5M593.5 611.5v5M648.5 611.5v5M703.5 611.5v5M758.5 611.5v5M813.5 611.5v5M868.5 611.5v5M923.5 611.5v5M978.5 611.5v5"/>
            </g>
            <g class="mark-text role-axis-label" pointer-events="none" font-family="sans-serif" font-size="14">
                <text transform="rotate(90 -234.5 384)">
                    class-transform…
                </text>
                <text transform="rotate(90 -207 411.5)">
                    class-transform…
                </text>
                <text transform="rotate(90 -179.5 439)">
                    funval
                </text>
                <text transform="rotate(90 -152 466.5)">
                    io-ts
                </text>
                <text transform="rotate(90 -124.5 494)">
                    jointz
                </text>
                <text transform="rotate(90 -97 521.5)">
                    json-decoder
                </text>
                <text transform="rotate(90 -69.5 549)">
                    marshal
                </text>
                <text transform="rotate(90 -42 576.5)">
                    myzod
                </text>
                <text transform="rotate(90 -14.5 604)">
                    purify-ts
                </text>
                <text transform="rotate(90 13 631.5)">
                    quartet
                </text>
                <text transform="rotate(90 40.5 659)">
                    runtypes
                </text>
                <text transform="rotate(90 68 686.5)">
                    toi
                </text>
                <text transform="rotate(90 95.5 714)">
                    ts-json-validat…
                </text>
                <text transform="rotate(90 123 741.5)">
                    ts-utils
                </text>
                <text transform="rotate(90 150.5 769)">
                    yup
                </text>
                <text transform="rotate(90 178 796.5)">
                    zod
                </text>
            </g>
            <path fill="none" stroke="#888" d="M126.5 611.5h880" pointer-events="none"/>
            <text text-anchor="middle" transform="translate(566.5 812.5)" font-family="sans-serif" font-size="14" font-weight="400" pointer-events="none">
                module
            </text>
        </g>
        <g class="mark-group role-axis" aria-roledescription="axis" aria-label="Y-axis titled 'operations / sec' for a linear scale with values from 0 to 40,000,000">
            <path class="background" aria-hidden="true" d="M126.5 11.5z" pointer-events="none" fill="none"/>
            <g class="mark-rule role-axis-tick" pointer-events="none" fill="none" stroke="#888">
                <path d="M126.5 611.5h-5M126.5 581.5h-5M126.5 551.5h-5M126.5 521.5h-5M126.5 491.5h-5M126.5 461.5h-5M126.5 431.5h-5M126.5 401.5h-5M126.5 371.5h-5M126.5 341.5h-5M126.5 311.5h-5M126.5 281.5h-5M126.5 251.5h-5M126.5 221.5h-5M126.5 191.5h-5M126.5 161.5h-5M126.5 131.5h-5M126.5 101.5h-5M126.5 71.5h-5M126.5 41.5h-5M126.5 11.5h-5"/>
            </g>
            <g class="mark-text role-axis-label" pointer-events="none" text-anchor="end" font-family="sans-serif" font-size="12">
                <text transform="translate(119.5 615.5)">
                    0
                </text>
                <text transform="translate(119.5 585.5)">
                    2,000,000
                </text>
                <text transform="translate(119.5 555.5)">
                    4,000,000
                </text>
                <text transform="translate(119.5 525.5)">
                    6,000,000
                </text>
                <text transform="translate(119.5 495.5)">
                    8,000,000
                </text>
                <text transform="translate(119.5 465.5)">
                    10,000,000
                </text>
                <text transform="translate(119.5 435.5)">
                    12,000,000
                </text>
                <text transform="translate(119.5 405.5)">
                    14,000,000
                </text>
                <text transform="translate(119.5 375.5)">
                    16,000,000
                </text>
                <text transform="translate(119.5 345.5)">
                    18,000,000
                </text>
                <text transform="translate(119.5 315.5)">
                    20,000,000
                </text>
                <text transform="translate(119.5 285.5)">
                    22,000,000
                </text>
                <text transform="translate(119.5 255.5)">
                    24,000,000
                </text>
                <text transform="translate(119.5 225.5)">
                    26,000,000
                </text>
                <text transform="translate(119.5 195.5)">
                    28,000,000
                </text>
                <text transform="translate(119.5 165.5)">
                    30,000,000
                </text>
                <text transform="translate(119.5 135.5)">
                    32,000,000
                </text>
                <text transform="translate(119.5 105.5)">
                    34,000,000
                </text>
                <text transform="translate(119.5 75.5)">
                    36,000,000
                </text>
                <text transform="translate(119.5 45.5)">
                    38,000,000
                </text>
                <text transform="translate(119.5 15.5)">
                    40,000,000
                </text>
            </g>
            <path fill="none" stroke="#888" d="M126.5 611.5v-600" pointer-events="none"/>
            <text text-anchor="middle" transform="rotate(-90 164 147.5)" font-family="sans-serif" font-size="14" font-weight="400" pointer-events="none">
                operations / sec
            </text>
        </g>
        <g class="mark-rect role-mark marks" aria-roledescription="rect mark container" fill="#4c78a8">
            <path aria-label="operations / sec: 32558; module: class-transformer-validator-async" aria-roledescription="bar" d="M128.75 610.512h49.5V611h-49.5z"/>
            <path aria-label="operations / sec: 31248; module: class-transformer-validator-sync" aria-roledescription="bar" d="M183.75 610.531h49.5V611h-49.5z"/>
            <path aria-label="operations / sec: 858325; module: funval" aria-roledescription="bar" d="M238.75 598.125h49.5V611h-49.5z"/>
            <path aria-label="operations / sec: 3182085; module: io-ts" aria-roledescription="bar" d="M293.75 563.269h49.5V611h-49.5z"/>
            <path aria-label="operations / sec: 1795764; module: jointz" aria-roledescription="bar" d="M348.75 584.064h49.5V611h-49.5z"/>
            <path aria-label="operations / sec: 785954; module: json-decoder" aria-roledescription="bar" d="M403.75 599.21h49.5V611h-49.5z"/>
            <path aria-label="operations / sec: 4043569; module: marshal" aria-roledescription="bar" d="M458.75 550.346h49.5V611h-49.5z"/>
            <path aria-label="operations / sec: 1346099; module: myzod" aria-roledescription="bar" d="M513.75 590.809h49.5V611h-49.5z"/>
            <path aria-label="operations / sec: 893637; module: purify-ts" aria-roledescription="bar" d="M568.75 597.595h49.5V611h-49.5z"/>
            <path aria-label="operations / sec: 35658058; module: quartet" aria-roledescription="bar" d="M623.75 76.13h49.5V611h-49.5z"/>
            <path aria-label="operations / sec: 709734; module: runtypes" aria-roledescription="bar" d="M678.75 600.354h49.5V611h-49.5z"/>
            <path aria-label="operations / sec: 409848; module: toi" aria-roledescription="bar" d="M733.75 604.852h49.5V611h-49.5z"/>
            <path aria-label="operations / sec: 20935766; module: ts-json-validator" aria-roledescription="bar" d="M788.75 296.964h49.5V611h-49.5z"/>
            <path aria-label="operations / sec: 133412; module: ts-utils" aria-roledescription="bar" d="M843.75 608.999h49.5V611h-49.5z"/>
            <path aria-label="operations / sec: 15496; module: yup" aria-roledescription="bar" d="M898.75 610.768h49.5V611h-49.5z"/>
            <path aria-label="operations / sec: 51579; module: zod" aria-roledescription="bar" d="M953.75 610.226h49.5V611h-49.5z"/>
        </g>
    </g>
</svg>
