<svg class="marks" width="1011" height="820" xmlns="http://www.w3.org/2000/svg">
    <path fill="#fff" d="M0 0h1011v820H0z"/>
    <g class="mark-group role-frame root" aria-roledescription="group mark container" fill="none" stroke-miterlimit="10">
        <path class="background" aria-hidden="true" d="M126.5 11.5h880v600h-880z" stroke="#ddd"/>
        <g class="mark-group role-axis" aria-hidden="true">
            <path class="background" aria-hidden="true" d="M126.5 11.5z" pointer-events="none"/>
            <g class="mark-rule role-axis-grid" pointer-events="none" stroke="#ddd">
                <path d="M126.5 611.5h880M126.5 571.5h880M126.5 531.5h880M126.5 491.5h880M126.5 451.5h880M126.5 411.5h880M126.5 371.5h880M126.5 331.5h880M126.5 291.5h880M126.5 251.5h880M126.5 211.5h880M126.5 171.5h880M126.5 131.5h880M126.5 91.5h880M126.5 51.5h880M126.5 11.5h880"/>
            </g>
        </g>
        <g class="mark-group role-axis" aria-roledescription="axis" aria-label="X-axis titled 'module' for a discrete scale with 19 values: bueno, class-transformer-validator-async, class-transformer-validator-sync, computed-types, io-ts, ending with zod">
            <path class="background" aria-hidden="true" d="M126.5 611.5z" pointer-events="none"/>
            <g class="mark-rule role-axis-tick" pointer-events="none" stroke="#888">
                <path d="M149.5 611.5v5M195.5 611.5v5M241.5 611.5v5M288.5 611.5v5M334.5 611.5v5M380.5 611.5v5M427.5 611.5v5M473.5 611.5v5M519.5 611.5v5M566.5 611.5v5M612.5 611.5v5M658.5 611.5v5M704.5 611.5v5M751.5 611.5v5M797.5 611.5v5M843.5 611.5v5M890.5 611.5v5M936.5 611.5v5M982.5 611.5v5"/>
            </g>
            <g class="mark-text role-axis-label" pointer-events="none" font-family="sans-serif" font-size="14" fill="#000">
                <text transform="rotate(90 -236.671 381.829)">
                    bueno
                </text>
                <text transform="rotate(90 -213.513 404.987)">
                    class-transform…
                </text>
                <text transform="rotate(90 -190.355 428.145)">
                    class-transform…
                </text>
                <text transform="rotate(90 -167.197 451.303)">
                    computed-types
                </text>
                <text transform="rotate(90 -144.04 474.46)">
                    io-ts
                </text>
                <text transform="rotate(90 -120.882 497.618)">
                    jointz
                </text>
                <text transform="rotate(90 -97.724 520.776)">
                    json-decoder
                </text>
                <text transform="rotate(90 -74.566 543.934)">
                    marshal
                </text>
                <text transform="rotate(90 -51.408 567.092)">
                    myzod
                </text>
                <text transform="rotate(90 -28.25 590.25)">
                    purify-ts
                </text>
                <text transform="rotate(90 -5.092 613.408)">
                    quartet
                </text>
                <text transform="rotate(90 18.066 636.566)">
                    rulr
                </text>
                <text transform="rotate(90 41.224 659.724)">
                    runtypes
                </text>
                <text transform="rotate(90 64.382 682.882)">
                    simple-runtypes
                </text>
                <text transform="rotate(90 87.54 706.04)">
                    toi
                </text>
                <text transform="rotate(90 110.697 729.197)">
                    ts-json-validat…
                </text>
                <text transform="rotate(90 133.855 752.355)">
                    ts-utils
                </text>
                <text transform="rotate(90 157.013 775.513)">
                    yup
                </text>
                <text transform="rotate(90 180.171 798.671)">
                    zod
                </text>
            </g>
            <path stroke="#888" d="M126.5 611.5h880" pointer-events="none"/>
            <text text-anchor="middle" transform="translate(566.5 812.5)" font-family="sans-serif" font-size="14" fill="#000" pointer-events="none">
                module
            </text>
        </g>
        <g class="mark-group role-axis" aria-roledescription="axis" aria-label="Y-axis titled 'operations / sec' for a linear scale with values from 0 to 30,000,000">
            <path class="background" aria-hidden="true" d="M126.5 11.5z" pointer-events="none"/>
            <g class="mark-rule role-axis-tick" pointer-events="none" stroke="#888">
                <path d="M126.5 611.5h-5M126.5 571.5h-5M126.5 531.5h-5M126.5 491.5h-5M126.5 451.5h-5M126.5 411.5h-5M126.5 371.5h-5M126.5 331.5h-5M126.5 291.5h-5M126.5 251.5h-5M126.5 211.5h-5M126.5 171.5h-5M126.5 131.5h-5M126.5 91.5h-5M126.5 51.5h-5M126.5 11.5h-5"/>
            </g>
            <g class="mark-text role-axis-label" pointer-events="none" text-anchor="end" font-family="sans-serif" font-size="12" fill="#000">
                <text transform="translate(119.5 615.5)">
                    0
                </text>
                <text transform="translate(119.5 575.5)">
                    2,000,000
                </text>
                <text transform="translate(119.5 535.5)">
                    4,000,000
                </text>
                <text transform="translate(119.5 495.5)">
                    6,000,000
                </text>
                <text transform="translate(119.5 455.5)">
                    8,000,000
                </text>
                <text transform="translate(119.5 415.5)">
                    10,000,000
                </text>
                <text transform="translate(119.5 375.5)">
                    12,000,000
                </text>
                <text transform="translate(119.5 335.5)">
                    14,000,000
                </text>
                <text transform="translate(119.5 295.5)">
                    16,000,000
                </text>
                <text transform="translate(119.5 255.5)">
                    18,000,000
                </text>
                <text transform="translate(119.5 215.5)">
                    20,000,000
                </text>
                <text transform="translate(119.5 175.5)">
                    22,000,000
                </text>
                <text transform="translate(119.5 135.5)">
                    24,000,000
                </text>
                <text transform="translate(119.5 95.5)">
                    26,000,000
                </text>
                <text transform="translate(119.5 55.5)">
                    28,000,000
                </text>
                <text transform="translate(119.5 15.5)">
                    30,000,000
                </text>
            </g>
            <path stroke="#888" d="M126.5 611.5v-600" pointer-events="none"/>
            <text text-anchor="middle" transform="rotate(-90 164 147.5)" font-family="sans-serif" font-size="14" fill="#000" pointer-events="none">
                operations / sec
            </text>
        </g>
        <g class="mark-rect role-mark marks" aria-roledescription="rect mark container" fill="#4c78a8">
            <path aria-label="operations / sec: 153995; module: bueno" aria-roledescription="bar" d="M128.316 607.92H170V611h-41.684z"/>
            <path aria-label="operations / sec: 28976; module: class-transformer-validator-async" aria-roledescription="bar" d="M174.632 610.42h41.684v.58h-41.684z"/>
            <path aria-label="operations / sec: 34456; module: class-transformer-validator-sync" aria-roledescription="bar" d="M220.947 610.31h41.685v.69h-41.685z"/>
            <path aria-label="operations / sec: 695407; module: computed-types" aria-roledescription="bar" d="M267.263 597.092h41.684V611h-41.684z"/>
            <path aria-label="operations / sec: 2486283; module: io-ts" aria-roledescription="bar" d="M313.579 561.274h41.684V611H313.58z"/>
            <path aria-label="operations / sec: 1501418; module: jointz" aria-roledescription="bar" d="M359.895 580.972h41.684V611h-41.684z"/>
            <path aria-label="operations / sec: 766940; module: json-decoder" aria-roledescription="bar" d="M406.21 595.661h41.685V611H406.21z"/>
            <path aria-label="operations / sec: 12933773; module: marshal" aria-roledescription="bar" d="M452.526 352.325h41.685V611h-41.685z"/>
            <path aria-label="operations / sec: 1394648; module: myzod" aria-roledescription="bar" d="M498.842 583.107h41.684V611h-41.684z"/>
            <path aria-label="operations / sec: 811029; module: purify-ts" aria-roledescription="bar" d="M545.158 594.78h41.684V611h-41.684z"/>
            <path aria-label="operations / sec: 29015420; module: quartet" aria-roledescription="bar" d="M591.474 30.692h41.684V611h-41.684z"/>
            <path aria-label="operations / sec: 697856; module: rulr" aria-roledescription="bar" d="M637.79 597.043h41.684V611h-41.685z"/>
            <path aria-label="operations / sec: 711418; module: runtypes" aria-roledescription="bar" d="M684.105 596.772h41.684V611h-41.684z"/>
            <path aria-label="operations / sec: 1627704; module: simple-runtypes" aria-roledescription="bar" d="M730.421 578.446h41.684V611h-41.684z"/>
            <path aria-label="operations / sec: 411463; module: toi" aria-roledescription="bar" d="M776.737 602.77h41.684V611h-41.684z"/>
            <path aria-label="operations / sec: 18418868; module: ts-json-validator" aria-roledescription="bar" d="M823.053 242.623h41.684V611h-41.684z"/>
            <path aria-label="operations / sec: 127373; module: ts-utils" aria-roledescription="bar" d="M869.368 608.453h41.685V611h-41.685z"/>
            <path aria-label="operations / sec: 11811; module: yup" aria-roledescription="bar" d="M915.684 610.764h41.684V611h-41.684z"/>
            <path aria-label="operations / sec: 8762; module: zod" aria-roledescription="bar" d="M962 610.825h41.684V611H962z"/>
        </g>
    </g>
</svg>
