<svg class="marks" width="1001" height="820" xmlns="http://www.w3.org/2000/svg">
    <path fill="#fff" d="M0 0h1001v820H0z"/>
    <g class="mark-group role-frame root" aria-roledescription="group mark container">
        <path class="background" aria-hidden="true" d="M116.5 11.5h880v600h-880z" fill="none" stroke="#ddd"/>
        <g class="mark-group role-axis" aria-hidden="true">
            <path class="background" aria-hidden="true" d="M116.5 11.5z" pointer-events="none" fill="none"/>
            <g class="mark-rule role-axis-grid" pointer-events="none" fill="none" stroke="#ddd">
                <path d="M116.5 611.5h880M116.5 556.5h880M116.5 502.5h880M116.5 447.5h880M116.5 393.5h880M116.5 338.5h880M116.5 284.5h880M116.5 229.5h880M116.5 175.5h880M116.5 120.5h880M116.5 66.5h880M116.5 11.5h880"/>
            </g>
        </g>
        <g class="mark-group role-axis" aria-roledescription="axis" aria-label="X-axis titled 'module' for a discrete scale with 14 values: class-transformer-validator-async, class-transformer-validator-sync, funval, io-ts, jointz, ending with zod">
            <path class="background" aria-hidden="true" d="M116.5 611.5z" pointer-events="none" fill="none"/>
            <g class="mark-rule role-axis-tick" pointer-events="none" fill="none" stroke="#888">
                <path d="M147.5 611.5v5M210.5 611.5v5M273.5 611.5v5M336.5 611.5v5M398.5 611.5v5M461.5 611.5v5M524.5 611.5v5M587.5 611.5v5M650.5 611.5v5M713.5 611.5v5M776.5 611.5v5M838.5 611.5v5M901.5 611.5v5M964.5 611.5v5"/>
            </g>
            <g class="mark-text role-axis-label" pointer-events="none" font-family="sans-serif" font-size="14">
                <text transform="rotate(90 -237.536 380.964)">
                    class-transform…
                </text>
                <text transform="rotate(90 -206.107 412.393)">
                    class-transform…
                </text>
                <text transform="rotate(90 -174.679 443.821)">
                    funval
                </text>
                <text transform="rotate(90 -143.25 475.25)">
                    io-ts
                </text>
                <text transform="rotate(90 -111.821 506.679)">
                    jointz
                </text>
                <text transform="rotate(90 -80.393 538.107)">
                    json-decoder
                </text>
                <text transform="rotate(90 -48.964 569.536)">
                    marshal
                </text>
                <text transform="rotate(90 -17.536 600.964)">
                    myzod
                </text>
                <text transform="rotate(90 13.893 632.393)">
                    purify-ts
                </text>
                <text transform="rotate(90 45.321 663.821)">
                    runtypes
                </text>
                <text transform="rotate(90 76.75 695.25)">
                    toi
                </text>
                <text transform="rotate(90 108.179 726.679)">
                    ts-utils
                </text>
                <text transform="rotate(90 139.607 758.107)">
                    yup
                </text>
                <text transform="rotate(90 171.036 789.536)">
                    zod
                </text>
            </g>
            <path fill="none" stroke="#888" d="M116.5 611.5h880" pointer-events="none"/>
            <text text-anchor="middle" transform="translate(556.5 812.5)" font-family="sans-serif" font-size="14" font-weight="400" pointer-events="none">
                module
            </text>
        </g>
        <g class="mark-group role-axis" aria-roledescription="axis" aria-label="Y-axis titled 'operations / sec' for a linear scale with values from 0 to 5,500,000">
            <path class="background" aria-hidden="true" d="M116.5 11.5z" pointer-events="none" fill="none"/>
            <g class="mark-rule role-axis-tick" pointer-events="none" fill="none" stroke="#888">
                <path d="M116.5 611.5h-5M116.5 556.5h-5M116.5 502.5h-5M116.5 447.5h-5M116.5 393.5h-5M116.5 338.5h-5M116.5 284.5h-5M116.5 229.5h-5M116.5 175.5h-5M116.5 120.5h-5M116.5 66.5h-5M116.5 11.5h-5"/>
            </g>
            <g class="mark-text role-axis-label" pointer-events="none" text-anchor="end" font-family="sans-serif" font-size="12">
                <text transform="translate(109.5 615.5)">
                    0
                </text>
                <text transform="translate(109.5 560.955)">
                    500,000
                </text>
                <text transform="translate(109.5 506.41)">
                    1,000,000
                </text>
                <text transform="translate(109.5 451.864)">
                    1,500,000
                </text>
                <text transform="translate(109.5 397.318)">
                    2,000,000
                </text>
                <text transform="translate(109.5 342.773)">
                    2,500,000
                </text>
                <text transform="translate(109.5 288.227)">
                    3,000,000
                </text>
                <text transform="translate(109.5 233.682)">
                    3,500,000
                </text>
                <text transform="translate(109.5 179.136)">
                    4,000,000
                </text>
                <text transform="translate(109.5 124.59)">
                    4,500,000
                </text>
                <text transform="translate(109.5 70.045)">
                    5,000,000
                </text>
                <text transform="translate(109.5 15.5)">
                    5,500,000
                </text>
            </g>
            <path fill="none" stroke="#888" d="M116.5 611.5v-600" pointer-events="none"/>
            <text text-anchor="middle" transform="rotate(-90 164 147.5)" font-family="sans-serif" font-size="14" font-weight="400" pointer-events="none">
                operations / sec
            </text>
        </g>
        <g class="mark-rect role-mark marks" aria-roledescription="rect mark container" fill="#4c78a8">
            <path aria-label="operations / sec: 37494; module: class-transformer-validator-async" aria-roledescription="bar" d="M119.143 606.91h56.571V611h-56.571z"/>
            <path aria-label="operations / sec: 43514; module: class-transformer-validator-sync" aria-roledescription="bar" d="M182 606.253h56.571V611H182z"/>
            <path aria-label="operations / sec: 829376; module: funval" aria-roledescription="bar" d="M244.857 520.523h56.572V611h-56.572z"/>
            <path aria-label="operations / sec: 2620461; module: io-ts" aria-roledescription="bar" d="M307.714 325.132h56.572V611h-56.572z"/>
            <path aria-label="operations / sec: 1146633; module: jointz" aria-roledescription="bar" d="M370.571 485.913h56.572V611H370.57z"/>
            <path aria-label="operations / sec: 547938; module: json-decoder" aria-roledescription="bar" d="M433.429 551.225H490V611h-56.571z"/>
            <path aria-label="operations / sec: 5299182; module: marshal" aria-roledescription="bar" d="M496.286 32.907h56.571V611h-56.571z"/>
            <path aria-label="operations / sec: 1635228; module: myzod" aria-roledescription="bar" d="M559.143 432.611h56.571V611h-56.571z"/>
            <path aria-label="operations / sec: 998252; module: purify-ts" aria-roledescription="bar" d="M622 502.1h56.571V611H622z"/>
            <path aria-label="operations / sec: 913121; module: runtypes" aria-roledescription="bar" d="M684.857 511.387h56.572V611h-56.572z"/>
            <path aria-label="operations / sec: 550513; module: toi" aria-roledescription="bar" d="M747.714 550.944h56.572V611h-56.572z"/>
            <path aria-label="operations / sec: 165412; module: ts-utils" aria-roledescription="bar" d="M810.571 592.955h56.572V611H810.57z"/>
            <path aria-label="operations / sec: 16044; module: yup" aria-roledescription="bar" d="M873.429 609.25H930V611h-56.571z"/>
            <path aria-label="operations / sec: 73123; module: zod" aria-roledescription="bar" d="M936.286 603.023h56.571V611h-56.571z"/>
        </g>
    </g>
</svg>
