<svg class="marks" width="1001" height="814" xmlns="http://www.w3.org/2000/svg">
    <path fill="#fff" d="M0 0h1001v814H0z"/>
    <g class="mark-group role-frame root" aria-roledescription="group mark container">
        <path class="background" aria-hidden="true" d="M116.5 5.5h880v600h-880z" fill="none" stroke="#ddd"/>
        <g class="mark-group role-axis" aria-hidden="true">
            <path class="background" aria-hidden="true" d="M116.5 5.5z" pointer-events="none" fill="none"/>
            <g class="mark-rule role-axis-grid" pointer-events="none" fill="none" stroke="#ddd">
                <path d="M116.5 605.5h880M116.5 571.5h880M116.5 536.5h880M116.5 502.5h880M116.5 468.5h880M116.5 434.5h880M116.5 399.5h880M116.5 365.5h880M116.5 331.5h880M116.5 296.5h880M116.5 262.5h880M116.5 228.5h880M116.5 194.5h880M116.5 159.5h880M116.5 125.5h880M116.5 91.5h880M116.5 56.5h880M116.5 22.5h880"/>
            </g>
        </g>
        <g class="mark-group role-axis" aria-roledescription="axis" aria-label="X-axis titled 'module' for a discrete scale with 14 values: class-transformer-validator-async, class-transformer-validator-sync, computed-types, io-ts, jointz, ending with zod">
            <path class="background" aria-hidden="true" d="M116.5 605.5z" pointer-events="none" fill="none"/>
            <g class="mark-rule role-axis-tick" pointer-events="none" fill="none" stroke="#888">
                <path d="M147.5 605.5v5M210.5 605.5v5M273.5 605.5v5M336.5 605.5v5M398.5 605.5v5M461.5 605.5v5M524.5 605.5v5M587.5 605.5v5M650.5 605.5v5M713.5 605.5v5M776.5 605.5v5M838.5 605.5v5M901.5 605.5v5M964.5 605.5v5"/>
            </g>
            <g class="mark-text role-axis-label" pointer-events="none" font-family="sans-serif" font-size="14">
                <text transform="rotate(90 -234.536 377.964)">
                    class-transform…
                </text>
                <text transform="rotate(90 -203.107 409.393)">
                    class-transform…
                </text>
                <text transform="rotate(90 -171.679 440.821)">
                    computed-types
                </text>
                <text transform="rotate(90 -140.25 472.25)">
                    io-ts
                </text>
                <text transform="rotate(90 -108.821 503.679)">
                    jointz
                </text>
                <text transform="rotate(90 -77.393 535.107)">
                    json-decoder
                </text>
                <text transform="rotate(90 -45.964 566.536)">
                    marshal
                </text>
                <text transform="rotate(90 -14.536 597.964)">
                    myzod
                </text>
                <text transform="rotate(90 16.893 629.393)">
                    purify-ts
                </text>
                <text transform="rotate(90 48.321 660.821)">
                    runtypes
                </text>
                <text transform="rotate(90 79.75 692.25)">
                    toi
                </text>
                <text transform="rotate(90 111.179 723.679)">
                    ts-utils
                </text>
                <text transform="rotate(90 142.607 755.107)">
                    yup
                </text>
                <text transform="rotate(90 174.036 786.536)">
                    zod
                </text>
            </g>
            <path fill="none" stroke="#888" d="M116.5 605.5h880" pointer-events="none"/>
            <text text-anchor="middle" transform="translate(556.5 806.5)" font-family="sans-serif" font-size="14" font-weight="400" pointer-events="none">
                module
            </text>
        </g>
        <g class="mark-group role-axis" aria-roledescription="axis" aria-label="Y-axis titled 'operations / sec' for a linear scale with values from 0 to 3,500,000">
            <path class="background" aria-hidden="true" d="M116.5 5.5z" pointer-events="none" fill="none"/>
            <g class="mark-rule role-axis-tick" pointer-events="none" fill="none" stroke="#888">
                <path d="M116.5 605.5h-5M116.5 571.5h-5M116.5 536.5h-5M116.5 502.5h-5M116.5 468.5h-5M116.5 434.5h-5M116.5 399.5h-5M116.5 365.5h-5M116.5 331.5h-5M116.5 296.5h-5M116.5 262.5h-5M116.5 228.5h-5M116.5 194.5h-5M116.5 159.5h-5M116.5 125.5h-5M116.5 91.5h-5M116.5 56.5h-5M116.5 22.5h-5"/>
            </g>
            <g class="mark-text role-axis-label" pointer-events="none" text-anchor="end" font-family="sans-serif" font-size="12">
                <text transform="translate(109.5 609.5)">
                    0
                </text>
                <text transform="translate(109.5 575.214)">
                    200,000
                </text>
                <text transform="translate(109.5 540.929)">
                    400,000
                </text>
                <text transform="translate(109.5 506.643)">
                    600,000
                </text>
                <text transform="translate(109.5 472.357)">
                    800,000
                </text>
                <text transform="translate(109.5 438.071)">
                    1,000,000
                </text>
                <text transform="translate(109.5 403.786)">
                    1,200,000
                </text>
                <text transform="translate(109.5 369.5)">
                    1,400,000
                </text>
                <text transform="translate(109.5 335.214)">
                    1,600,000
                </text>
                <text transform="translate(109.5 300.929)">
                    1,800,000
                </text>
                <text transform="translate(109.5 266.643)">
                    2,000,000
                </text>
                <text transform="translate(109.5 232.357)">
                    2,200,000
                </text>
                <text transform="translate(109.5 198.071)">
                    2,400,000
                </text>
                <text transform="translate(109.5 163.786)">
                    2,600,000
                </text>
                <text transform="translate(109.5 129.5)">
                    2,800,000
                </text>
                <text transform="translate(109.5 95.214)">
                    3,000,000
                </text>
                <text transform="translate(109.5 60.929)">
                    3,200,000
                </text>
                <text transform="translate(109.5 26.643)">
                    3,400,000
                </text>
            </g>
            <path fill="none" stroke="#888" d="M116.5 605.5V5.5" pointer-events="none"/>
            <text text-anchor="middle" transform="rotate(-90 161 144.5)" font-family="sans-serif" font-size="14" font-weight="400" pointer-events="none">
                operations / sec
            </text>
        </g>
        <g class="mark-rect role-mark marks" aria-roledescription="rect mark container" fill="#4c78a8">
            <path aria-label="operations / sec: 28297; module: class-transformer-validator-async" aria-roledescription="bar" d="M119.143 600.15h56.571V605h-56.571z"/>
            <path aria-label="operations / sec: 29965; module: class-transformer-validator-sync" aria-roledescription="bar" d="M182 599.863h56.571V605H182z"/>
            <path aria-label="operations / sec: 605662; module: computed-types" aria-roledescription="bar" d="M244.857 501.172h56.572V605h-56.572z"/>
            <path aria-label="operations / sec: 2323185; module: io-ts" aria-roledescription="bar" d="M307.714 206.74h56.572V605h-56.572z"/>
            <path aria-label="operations / sec: 1341784; module: jointz" aria-roledescription="bar" d="M370.571 374.98h56.572V605H370.57z"/>
            <path aria-label="operations / sec: 657110; module: json-decoder" aria-roledescription="bar" d="M433.429 492.353H490V605h-56.571z"/>
            <path aria-label="operations / sec: 3434560; module: marshal" aria-roledescription="bar" d="M496.286 16.218h56.571V605h-56.571z"/>
            <path aria-label="operations / sec: 1092647; module: myzod" aria-roledescription="bar" d="M559.143 417.69h56.571V605h-56.571z"/>
            <path aria-label="operations / sec: 707430; module: purify-ts" aria-roledescription="bar" d="M622 483.726h56.571V605H622z"/>
            <path aria-label="operations / sec: 652596; module: runtypes" aria-roledescription="bar" d="M684.857 493.126h56.572V605h-56.572z"/>
            <path aria-label="operations / sec: 387136; module: toi" aria-roledescription="bar" d="M747.714 538.634h56.572V605h-56.572z"/>
            <path aria-label="operations / sec: 116568; module: ts-utils" aria-roledescription="bar" d="M810.571 585.017h56.572V605H810.57z"/>
            <path aria-label="operations / sec: 14326; module: yup" aria-roledescription="bar" d="M873.429 602.544H930V605h-56.571z"/>
            <path aria-label="operations / sec: 45520; module: zod" aria-roledescription="bar" d="M936.286 597.197h56.571V605h-56.571z"/>
        </g>
    </g>
</svg>
