<svg class="marks" width="1011" height="814" xmlns="http://www.w3.org/2000/svg">
    <path fill="#fff" d="M0 0h1011v814H0z"/>
    <g class="mark-group role-frame root">
        <path class="background" d="M126.5 5.5h880v600h-880z" fill="none" stroke="#ddd"/>
        <g class="mark-group role-axis">
            <path class="background" d="M126.5 5.5z" pointer-events="none" fill="none"/>
            <g class="mark-rule role-axis-grid" pointer-events="none" fill="none" stroke="#ddd">
                <path d="M126.5 605.5h880M126.5 571.5h880M126.5 536.5h880M126.5 502.5h880M126.5 468.5h880M126.5 434.5h880M126.5 399.5h880M126.5 365.5h880M126.5 331.5h880M126.5 296.5h880M126.5 262.5h880M126.5 228.5h880M126.5 194.5h880M126.5 159.5h880M126.5 125.5h880M126.5 91.5h880M126.5 56.5h880M126.5 22.5h880"/>
            </g>
        </g>
        <g class="mark-group role-axis">
            <path class="background" d="M126.5 605.5z" pointer-events="none" fill="none"/>
            <g class="mark-rule role-axis-tick" pointer-events="none" fill="none" stroke="#888">
                <path d="M159.5 605.5v5M227.5 605.5v5M295.5 605.5v5M362.5 605.5v5M430.5 605.5v5M498.5 605.5v5M566.5 605.5v5M633.5 605.5v5M701.5 605.5v5M769.5 605.5v5M836.5 605.5v5M904.5 605.5v5M972.5 605.5v5"/>
            </g>
            <g class="mark-text role-axis-label" pointer-events="none" font-family="sans-serif" font-size="14">
                <text transform="rotate(90 -228.327 384.173)">
                    class-transform…
                </text>
                <text transform="rotate(90 -194.48 418.02)">
                    class-transform…
                </text>
                <text transform="rotate(90 -160.635 451.865)">
                    funval
                </text>
                <text transform="rotate(90 -126.788 485.712)">
                    io-ts
                </text>
                <text transform="rotate(90 -92.942 519.558)">
                    json-decoder
                </text>
                <text transform="rotate(90 -59.096 553.404)">
                    marshal
                </text>
                <text transform="rotate(90 -25.25 587.25)">
                    myzod
                </text>
                <text transform="rotate(90 8.596 621.096)">
                    purify-ts
                </text>
                <text transform="rotate(90 42.442 654.942)">
                    runtypes
                </text>
                <text transform="rotate(90 76.288 688.788)">
                    toi
                </text>
                <text transform="rotate(90 110.135 722.635)">
                    ts-json-validat…
                </text>
                <text transform="rotate(90 143.98 756.48)">
                    ts-utils
                </text>
                <text transform="rotate(90 177.827 790.327)">
                    zod
                </text>
            </g>
            <path fill="none" stroke="#888" d="M126.5 605.5h880" pointer-events="none"/>
            <text text-anchor="middle" transform="translate(566.5 806.5)" font-family="sans-serif" font-size="14" font-weight="400" pointer-events="none">
                module
            </text>
        </g>
        <g class="mark-group role-axis">
            <path class="background" d="M126.5 5.5z" pointer-events="none" fill="none"/>
            <g class="mark-rule role-axis-tick" pointer-events="none" fill="none" stroke="#888">
                <path d="M126.5 605.5h-5M126.5 571.5h-5M126.5 536.5h-5M126.5 502.5h-5M126.5 468.5h-5M126.5 434.5h-5M126.5 399.5h-5M126.5 365.5h-5M126.5 331.5h-5M126.5 296.5h-5M126.5 262.5h-5M126.5 228.5h-5M126.5 194.5h-5M126.5 159.5h-5M126.5 125.5h-5M126.5 91.5h-5M126.5 56.5h-5M126.5 22.5h-5"/>
            </g>
            <g class="mark-text role-axis-label" pointer-events="none" text-anchor="end" font-family="sans-serif" font-size="12">
                <text transform="translate(119.5 609.5)">
                    0
                </text>
                <text transform="translate(119.5 575.214)">
                    2,000,000
                </text>
                <text transform="translate(119.5 540.929)">
                    4,000,000
                </text>
                <text transform="translate(119.5 506.643)">
                    6,000,000
                </text>
                <text transform="translate(119.5 472.357)">
                    8,000,000
                </text>
                <text transform="translate(119.5 438.071)">
                    10,000,000
                </text>
                <text transform="translate(119.5 403.786)">
                    12,000,000
                </text>
                <text transform="translate(119.5 369.5)">
                    14,000,000
                </text>
                <text transform="translate(119.5 335.214)">
                    16,000,000
                </text>
                <text transform="translate(119.5 300.929)">
                    18,000,000
                </text>
                <text transform="translate(119.5 266.643)">
                    20,000,000
                </text>
                <text transform="translate(119.5 232.357)">
                    22,000,000
                </text>
                <text transform="translate(119.5 198.071)">
                    24,000,000
                </text>
                <text transform="translate(119.5 163.786)">
                    26,000,000
                </text>
                <text transform="translate(119.5 129.5)">
                    28,000,000
                </text>
                <text transform="translate(119.5 95.214)">
                    30,000,000
                </text>
                <text transform="translate(119.5 60.929)">
                    32,000,000
                </text>
                <text transform="translate(119.5 26.643)">
                    34,000,000
                </text>
            </g>
            <path fill="none" stroke="#888" d="M126.5 605.5V5.5" pointer-events="none"/>
            <text text-anchor="middle" transform="rotate(-90 161 144.5)" font-family="sans-serif" font-size="14" font-weight="400" pointer-events="none">
                operations / sec
            </text>
        </g>
        <g class="mark-rect role-mark marks" fill="#4c78a8">
            <path d="M129.385 604.182h60.923V605h-60.923zM197.077 604.071H258V605h-60.923zM264.77 590.885h60.922V605H264.77zM332.462 558.65h60.923V605h-60.923zM400.154 589.195h60.923V605h-60.923zM467.846 510.951h60.923V605h-60.923zM535.538 600.285h60.924V605h-60.924zM603.23 588.445h60.924V605H603.23zM670.923 590.063h60.923V605h-60.923zM738.615 595.753h60.923V605h-60.923zM806.308 48.07h60.923V605h-60.923zM874 602.229h60.923V605H874zM941.692 603.536h60.923V605h-60.923z"/>
        </g>
    </g>
</svg>
