<svg class="marks" width="1011" height="820" xmlns="http://www.w3.org/2000/svg">
    <path fill="#fff" d="M0 0h1011v820H0z"/>
    <g class="mark-group role-frame root">
        <path class="background" d="M126.5 11.5h880v600h-880z" fill="none" stroke="#ddd"/>
        <g class="mark-group role-axis">
            <path class="background" d="M126.5 11.5z" pointer-events="none" fill="none"/>
            <g class="mark-rule role-axis-grid" pointer-events="none" fill="none" stroke="#ddd">
                <path d="M126.5 611.5h880M126.5 561.5h880M126.5 511.5h880M126.5 461.5h880M126.5 411.5h880M126.5 361.5h880M126.5 311.5h880M126.5 261.5h880M126.5 211.5h880M126.5 161.5h880M126.5 111.5h880M126.5 61.5h880M126.5 11.5h880"/>
            </g>
        </g>
        <g class="mark-group role-axis">
            <path class="background" d="M126.5 611.5z" pointer-events="none" fill="none"/>
            <g class="mark-rule role-axis-tick" pointer-events="none" fill="none" stroke="#888">
                <path d="M159.5 611.5v5M227.5 611.5v5M295.5 611.5v5M362.5 611.5v5M430.5 611.5v5M498.5 611.5v5M566.5 611.5v5M633.5 611.5v5M701.5 611.5v5M769.5 611.5v5M836.5 611.5v5M904.5 611.5v5M972.5 611.5v5"/>
            </g>
            <g class="mark-text role-axis-label" pointer-events="none" font-family="sans-serif" font-size="14">
                <text transform="rotate(90 -231.327 387.173)">
                    class-transform…
                </text>
                <text transform="rotate(90 -197.48 421.02)">
                    class-transform…
                </text>
                <text transform="rotate(90 -163.635 454.865)">
                    funval
                </text>
                <text transform="rotate(90 -129.788 488.712)">
                    io-ts
                </text>
                <text transform="rotate(90 -95.942 522.558)">
                    json-decoder
                </text>
                <text transform="rotate(90 -62.096 556.404)">
                    marshal
                </text>
                <text transform="rotate(90 -28.25 590.25)">
                    myzod
                </text>
                <text transform="rotate(90 5.596 624.096)">
                    purify-ts
                </text>
                <text transform="rotate(90 39.442 657.942)">
                    runtypes
                </text>
                <text transform="rotate(90 73.288 691.788)">
                    toi
                </text>
                <text transform="rotate(90 107.135 725.635)">
                    ts-json-validat…
                </text>
                <text transform="rotate(90 140.98 759.48)">
                    ts-utils
                </text>
                <text transform="rotate(90 174.827 793.327)">
                    zod
                </text>
            </g>
            <path fill="none" stroke="#888" d="M126.5 611.5h880" pointer-events="none"/>
            <text text-anchor="middle" transform="translate(566.5 812.5)" font-family="sans-serif" font-size="14" font-weight="400" pointer-events="none">
                module
            </text>
        </g>
        <g class="mark-group role-axis">
            <path class="background" d="M126.5 11.5z" pointer-events="none" fill="none"/>
            <g class="mark-rule role-axis-tick" pointer-events="none" fill="none" stroke="#888">
                <path d="M126.5 611.5h-5M126.5 561.5h-5M126.5 511.5h-5M126.5 461.5h-5M126.5 411.5h-5M126.5 361.5h-5M126.5 311.5h-5M126.5 261.5h-5M126.5 211.5h-5M126.5 161.5h-5M126.5 111.5h-5M126.5 61.5h-5M126.5 11.5h-5"/>
            </g>
            <g class="mark-text role-axis-label" pointer-events="none" text-anchor="end" font-family="sans-serif" font-size="12">
                <text transform="translate(119.5 615.5)">
                    0
                </text>
                <text transform="translate(119.5 565.5)">
                    2,000,000
                </text>
                <text transform="translate(119.5 515.5)">
                    4,000,000
                </text>
                <text transform="translate(119.5 465.5)">
                    6,000,000
                </text>
                <text transform="translate(119.5 415.5)">
                    8,000,000
                </text>
                <text transform="translate(119.5 365.5)">
                    10,000,000
                </text>
                <text transform="translate(119.5 315.5)">
                    12,000,000
                </text>
                <text transform="translate(119.5 265.5)">
                    14,000,000
                </text>
                <text transform="translate(119.5 215.5)">
                    16,000,000
                </text>
                <text transform="translate(119.5 165.5)">
                    18,000,000
                </text>
                <text transform="translate(119.5 115.5)">
                    20,000,000
                </text>
                <text transform="translate(119.5 65.5)">
                    22,000,000
                </text>
                <text transform="translate(119.5 15.5)">
                    24,000,000
                </text>
            </g>
            <path fill="none" stroke="#888" d="M126.5 611.5v-600" pointer-events="none"/>
            <text text-anchor="middle" transform="rotate(-90 164 147.5)" font-family="sans-serif" font-size="14" font-weight="400" pointer-events="none">
                operations / sec
            </text>
        </g>
        <g class="mark-rect role-mark marks" fill="#4c78a8">
            <path d="M129.385 610.235h60.923V611h-60.923zM197.077 610.058H258V611h-60.923zM264.77 586.374h60.922V611H264.77zM332.462 532.082h60.923V611h-60.923zM400.154 588.329h60.923V611h-60.923zM467.846 495.01h60.923V611h-60.923zM535.538 573.648h60.924V611h-60.924zM603.23 586.777h60.924V611H603.23zM670.923 589.124h60.923V611h-60.923zM738.615 598.267h60.923V611h-60.923zM806.308 26.492h60.923V611h-60.923zM874 606.914h60.923V611H874zM941.692 609.438h60.923V611h-60.923z"/>
        </g>
    </g>
</svg>
