<svg xmlns="http://www.w3.org/2000/svg" class="marks" width="1011" height="820">
    <path fill="#fff" d="M0 0h1011v820H0z"/>
    <g class="mark-group role-frame root" aria-roledescription="group mark container" fill="none" stroke-miterlimit="10">
        <path class="background" aria-hidden="true" d="M126.5 11.5h880v600h-880z" stroke="#ddd"/>
        <g class="mark-group role-axis" aria-roledescription="axis" aria-label="Y-axis for a linear scale with values from 0 to 26,000,000">
            <path class="background" aria-hidden="true" d="M126.5 11.5z" pointer-events="none"/>
            <g class="mark-rule role-axis-grid" pointer-events="none" stroke="#ddd">
                <path d="M126.5 611.5h880M126.5 565.5h880M126.5 519.5h880M126.5 473.5h880M126.5 426.5h880M126.5 380.5h880M126.5 334.5h880M126.5 288.5h880M126.5 242.5h880M126.5 196.5h880M126.5 149.5h880M126.5 103.5h880M126.5 57.5h880M126.5 11.5h880"/>
            </g>
        </g>
        <g class="mark-group role-axis" aria-roledescription="axis" aria-label="X-axis titled 'module' for a discrete scale with 21 values: @typeofweb/schema, bueno, class-transformer-validator-async, class-transformer-validator-sync, computed-types, ending with zod">
            <path class="background" aria-hidden="true" d="M126.5 611.5z" pointer-events="none"/>
            <g class="mark-rule role-axis-tick" pointer-events="none" stroke="#888">
                <path d="M146.5 611.5v5M188.5 611.5v5M230.5 611.5v5M272.5 611.5v5M314.5 611.5v5M356.5 611.5v5M398.5 611.5v5M440.5 611.5v5M482.5 611.5v5M524.5 611.5v5M566.5 611.5v5M607.5 611.5v5M649.5 611.5v5M691.5 611.5v5M733.5 611.5v5M775.5 611.5v5M817.5 611.5v5M859.5 611.5v5M901.5 611.5v5M943.5 611.5v5M985.5 611.5v5"/>
            </g>
            <g class="mark-text role-axis-label" pointer-events="none" font-family="sans-serif" font-size="14" fill="#000">
                <text transform="rotate(90 -237.774 380.726)">@typeofweb/sche…</text>
                <text transform="rotate(90 -216.821 401.679)">bueno</text>
                <text transform="rotate(90 -195.869 422.631)">class-transform…</text>
                <text transform="rotate(90 -174.917 443.583)">class-transform…</text>
                <text transform="rotate(90 -153.964 464.536)">computed-types</text>
                <text transform="rotate(90 -133.012 485.488)">decoders</text>
                <text transform="rotate(90 -112.06 506.44)">io-ts</text>
                <text transform="rotate(90 -91.107 527.393)">jointz</text>
                <text transform="rotate(90 -70.155 548.345)">json-decoder</text>
                <text transform="rotate(90 -49.202 569.298)">myzod</text>
                <text transform="rotate(90 -28.25 590.25)">purify-ts</text>
                <text transform="rotate(90 -7.298 611.202)">rulr</text>
                <text transform="rotate(90 13.655 632.155)">runtypes</text>
                <text transform="rotate(90 34.607 653.107)">simple-runtypes</text>
                <text transform="rotate(90 55.56 674.06)">superstruct</text>
                <text transform="rotate(90 76.512 695.012)">suretype</text>
                <text transform="rotate(90 97.464 715.964)">toi</text>
                <text transform="rotate(90 118.417 736.917)">ts-utils</text>
                <text transform="rotate(90 139.369 757.869)">valita</text>
                <text transform="rotate(90 160.321 778.821)">yup</text>
                <text transform="rotate(90 181.274 799.774)">zod</text>
            </g>
            <path stroke="#888" d="M126.5 611.5h880" class="mark-rule role-axis-domain" pointer-events="none"/>
            <text text-anchor="middle" transform="translate(566.5 812.5)" font-family="sans-serif" font-size="14" fill="#000" class="mark-text role-axis-title" pointer-events="none">module</text>
        </g>
        <g class="mark-group role-axis" aria-roledescription="axis" aria-label="Y-axis titled 'operations / sec' for a linear scale with values from 0 to 26,000,000">
            <path class="background" aria-hidden="true" d="M126.5 11.5z" pointer-events="none"/>
            <g class="mark-rule role-axis-tick" pointer-events="none" stroke="#888">
                <path d="M126.5 611.5h-5M126.5 565.5h-5M126.5 519.5h-5M126.5 473.5h-5M126.5 426.5h-5M126.5 380.5h-5M126.5 334.5h-5M126.5 288.5h-5M126.5 242.5h-5M126.5 196.5h-5M126.5 149.5h-5M126.5 103.5h-5M126.5 57.5h-5M126.5 11.5h-5"/>
            </g>
            <g class="mark-text role-axis-label" pointer-events="none" text-anchor="end" font-family="sans-serif" font-size="12" fill="#000">
                <text transform="translate(119.5 615.5)">0</text>
                <text transform="translate(119.5 569.346)">2,000,000</text>
                <text transform="translate(119.5 523.192)">4,000,000</text>
                <text transform="translate(119.5 477.038)">6,000,000</text>
                <text transform="translate(119.5 430.885)">8,000,000</text>
                <text transform="translate(119.5 384.73)">10,000,000</text>
                <text transform="translate(119.5 338.577)">12,000,000</text>
                <text transform="translate(119.5 292.423)">14,000,000</text>
                <text transform="translate(119.5 246.27)">16,000,000</text>
                <text transform="translate(119.5 200.115)">18,000,000</text>
                <text transform="translate(119.5 153.962)">20,000,000</text>
                <text transform="translate(119.5 107.808)">22,000,000</text>
                <text transform="translate(119.5 61.654)">24,000,000</text>
                <text transform="translate(119.5 15.5)">26,000,000</text>
            </g>
            <path stroke="#888" d="M126.5 611.5v-600" class="mark-rule role-axis-domain" pointer-events="none"/>
            <text text-anchor="middle" transform="rotate(-90 164 147.5)" font-family="sans-serif" font-size="14" fill="#000" class="mark-text role-axis-title" pointer-events="none">operations / sec</text>
        </g>
        <g class="mark-rect role-mark marks" aria-roledescription="rect mark container" fill="#4c78a8">
            <path d="M170 607.753h37.714V611H170zM211.905 610.4h37.714v.6h-37.714zM253.81 610.34h37.714v.66H253.81zM295.714 594.352h37.715V611h-37.715zM337.619 605.95h37.714V611H337.62zM379.524 590.43h37.714V611h-37.714zM421.429 587.504h37.714V611h-37.714zM463.333 600.554h37.715V611h-37.715zM505.238 581.569h37.714V611h-37.714zM547.143 601.678h37.714V611h-37.714zM589.048 595.323h37.714V611h-37.714zM630.952 594.328h37.715V611h-37.715zM672.857 573.37h37.714V611h-37.714zM714.762 609.663h37.714V611h-37.714zM756.667 51.687h37.714V611h-37.714zM798.571 600.21h37.715V611H798.57zM840.476 607.86h37.714V611h-37.714zM128.095 596.747h37.715V611h-37.715zM882.381 528.265h37.714V611h-37.714zM924.286 610.695H962V611h-37.714zM966.19 610.797h37.715V611H966.19z"/>
        </g>
    </g>
</svg>
