<svg class="marks" width="1011" height="814" xmlns="http://www.w3.org/2000/svg">
    <path fill="#fff" d="M0 0h1011v814H0z"/>
    <g class="mark-group role-frame root">
        <path class="background" d="M126.5 5.5h880v600h-880z" fill="none" stroke="#ddd"/>
        <g class="mark-group role-axis">
            <path class="background" d="M126.5 5.5z" pointer-events="none" fill="none"/>
            <g class="mark-rule role-axis-grid" pointer-events="none" fill="none" stroke="#ddd">
                <path d="M126.5 605.5h880M126.5 571.5h880M126.5 536.5h880M126.5 502.5h880M126.5 468.5h880M126.5 434.5h880M126.5 399.5h880M126.5 365.5h880M126.5 331.5h880M126.5 296.5h880M126.5 262.5h880M126.5 228.5h880M126.5 194.5h880M126.5 159.5h880M126.5 125.5h880M126.5 91.5h880M126.5 56.5h880M126.5 22.5h880"/>
            </g>
        </g>
        <g class="mark-group role-axis">
            <path class="background" d="M126.5 605.5z" pointer-events="none" fill="none"/>
            <g class="mark-rule role-axis-tick" pointer-events="none" fill="none" stroke="#888">
                <path d="M157.5 605.5v5M220.5 605.5v5M283.5 605.5v5M346.5 605.5v5M408.5 605.5v5M471.5 605.5v5M534.5 605.5v5M597.5 605.5v5M660.5 605.5v5M723.5 605.5v5M786.5 605.5v5M848.5 605.5v5M911.5 605.5v5M974.5 605.5v5"/>
            </g>
            <g class="mark-text role-axis-label" pointer-events="none" font-family="sans-serif" font-size="14">
                <text transform="rotate(90 -229.536 382.964)">
                    class-transform…
                </text>
                <text transform="rotate(90 -198.107 414.393)">
                    class-transform…
                </text>
                <text transform="rotate(90 -166.679 445.821)">
                    funval
                </text>
                <text transform="rotate(90 -135.25 477.25)">
                    io-ts
                </text>
                <text transform="rotate(90 -103.821 508.679)">
                    json-decoder
                </text>
                <text transform="rotate(90 -72.393 540.107)">
                    marshal
                </text>
                <text transform="rotate(90 -40.964 571.536)">
                    myzod
                </text>
                <text transform="rotate(90 -9.536 602.964)">
                    purify-ts
                </text>
                <text transform="rotate(90 21.893 634.393)">
                    runtypes
                </text>
                <text transform="rotate(90 53.321 665.821)">
                    toi
                </text>
                <text transform="rotate(90 84.75 697.25)">
                    ts-json-validat…
                </text>
                <text transform="rotate(90 116.179 728.679)">
                    ts-utils
                </text>
                <text transform="rotate(90 147.607 760.107)">
                    yup
                </text>
                <text transform="rotate(90 179.036 791.536)">
                    zod
                </text>
            </g>
            <path fill="none" stroke="#888" d="M126.5 605.5h880" pointer-events="none"/>
            <text text-anchor="middle" transform="translate(566.5 806.5)" font-family="sans-serif" font-size="14" font-weight="400" pointer-events="none">
                module
            </text>
        </g>
        <g class="mark-group role-axis">
            <path class="background" d="M126.5 5.5z" pointer-events="none" fill="none"/>
            <g class="mark-rule role-axis-tick" pointer-events="none" fill="none" stroke="#888">
                <path d="M126.5 605.5h-5M126.5 571.5h-5M126.5 536.5h-5M126.5 502.5h-5M126.5 468.5h-5M126.5 434.5h-5M126.5 399.5h-5M126.5 365.5h-5M126.5 331.5h-5M126.5 296.5h-5M126.5 262.5h-5M126.5 228.5h-5M126.5 194.5h-5M126.5 159.5h-5M126.5 125.5h-5M126.5 91.5h-5M126.5 56.5h-5M126.5 22.5h-5"/>
            </g>
            <g class="mark-text role-axis-label" pointer-events="none" text-anchor="end" font-family="sans-serif" font-size="12">
                <text transform="translate(119.5 609.5)">
                    0
                </text>
                <text transform="translate(119.5 575.214)">
                    2,000,000
                </text>
                <text transform="translate(119.5 540.929)">
                    4,000,000
                </text>
                <text transform="translate(119.5 506.643)">
                    6,000,000
                </text>
                <text transform="translate(119.5 472.357)">
                    8,000,000
                </text>
                <text transform="translate(119.5 438.071)">
                    10,000,000
                </text>
                <text transform="translate(119.5 403.786)">
                    12,000,000
                </text>
                <text transform="translate(119.5 369.5)">
                    14,000,000
                </text>
                <text transform="translate(119.5 335.214)">
                    16,000,000
                </text>
                <text transform="translate(119.5 300.929)">
                    18,000,000
                </text>
                <text transform="translate(119.5 266.643)">
                    20,000,000
                </text>
                <text transform="translate(119.5 232.357)">
                    22,000,000
                </text>
                <text transform="translate(119.5 198.071)">
                    24,000,000
                </text>
                <text transform="translate(119.5 163.786)">
                    26,000,000
                </text>
                <text transform="translate(119.5 129.5)">
                    28,000,000
                </text>
                <text transform="translate(119.5 95.214)">
                    30,000,000
                </text>
                <text transform="translate(119.5 60.929)">
                    32,000,000
                </text>
                <text transform="translate(119.5 26.643)">
                    34,000,000
                </text>
            </g>
            <path fill="none" stroke="#888" d="M126.5 605.5V5.5" pointer-events="none"/>
            <text text-anchor="middle" transform="rotate(-90 161 144.5)" font-family="sans-serif" font-size="14" font-weight="400" pointer-events="none">
                operations / sec
            </text>
        </g>
        <g class="mark-rect role-mark marks" fill="#4c78a8">
            <path d="M129.143 604.55h56.571v.45h-56.571zM192 604.506h56.571V605H192zM254.857 594.004h56.572V605h-56.572zM317.714 569.228h56.572V605h-56.572zM380.571 593.511h56.572V605H380.57zM443.429 539.282H500V605h-56.571zM506.286 583.209h56.571V605h-56.571zM569.143 592.851h56.571V605h-56.571zM632 593.615h56.571V605H632zM694.857 597.6h56.572v7.4h-56.572zM757.714 80.104h56.572V605h-56.572zM820.571 602.837h56.572V605H820.57zM883.429 604.757H940V605h-56.571zM946.286 603.993h56.571V605h-56.571z"/>
        </g>
    </g>
</svg>
