<svg xmlns="http://www.w3.org/2000/svg" class="marks" width="1001" height="820">
    <path fill="#fff" d="M0 0h1001v820H0z"/>
    <g class="mark-group role-frame root" aria-roledescription="group mark container" fill="none" stroke-miterlimit="10">
        <path class="background" aria-hidden="true" d="M116.5 11.5h880v600h-880z" stroke="#ddd"/>
        <g class="mark-group role-axis" aria-hidden="true">
            <path class="background" aria-hidden="true" d="M116.5 11.5z" pointer-events="none"/>
            <g class="mark-rule role-axis-grid" pointer-events="none" stroke="#ddd">
                <path d="M116.5 611.5h880M116.5 568.5h880M116.5 525.5h880M116.5 482.5h880M116.5 440.5h880M116.5 397.5h880M116.5 354.5h880M116.5 311.5h880M116.5 268.5h880M116.5 225.5h880M116.5 182.5h880M116.5 140.5h880M116.5 97.5h880M116.5 54.5h880M116.5 11.5h880"/>
            </g>
        </g>
        <g class="mark-group role-axis" aria-roledescription="axis" aria-label="X-axis titled 'module' for a discrete scale with 17 values: bueno, class-transformer-validator-async, class-transformer-validator-sync, computed-types, io-ts, ending with zod">
            <path class="background" aria-hidden="true" d="M116.5 611.5z" pointer-events="none"/>
            <g class="mark-rule role-axis-tick" pointer-events="none" stroke="#888">
                <path d="M141.5 611.5v5M193.5 611.5v5M245.5 611.5v5M297.5 611.5v5M348.5 611.5v5M400.5 611.5v5M452.5 611.5v5M504.5 611.5v5M556.5 611.5v5M607.5 611.5v5M659.5 611.5v5M711.5 611.5v5M763.5 611.5v5M814.5 611.5v5M866.5 611.5v5M918.5 611.5v5M970.5 611.5v5"/>
            </g>
            <g class="mark-text role-axis-label" pointer-events="none" font-family="sans-serif" font-size="14" fill="#000">
                <text transform="rotate(90 -240.309 378.191)">
                    bueno
                </text>
                <text transform="rotate(90 -214.426 404.074)">
                    class-transform…
                </text>
                <text transform="rotate(90 -188.544 429.956)">
                    class-transform…
                </text>
                <text transform="rotate(90 -162.662 455.838)">
                    computed-types
                </text>
                <text transform="rotate(90 -136.78 481.72)">
                    io-ts
                </text>
                <text transform="rotate(90 -110.897 507.603)">
                    jointz
                </text>
                <text transform="rotate(90 -85.015 533.485)">
                    json-decoder
                </text>
                <text transform="rotate(90 -59.132 559.368)">
                    myzod
                </text>
                <text transform="rotate(90 -33.25 585.25)">
                    purify-ts
                </text>
                <text transform="rotate(90 -7.368 611.132)">
                    rulr
                </text>
                <text transform="rotate(90 18.515 637.015)">
                    runtypes
                </text>
                <text transform="rotate(90 44.397 662.897)">
                    simple-runtypes
                </text>
                <text transform="rotate(90 70.28 688.78)">
                    superstruct
                </text>
                <text transform="rotate(90 96.162 714.662)">
                    toi
                </text>
                <text transform="rotate(90 122.044 740.544)">
                    ts-utils
                </text>
                <text transform="rotate(90 147.926 766.426)">
                    yup
                </text>
                <text transform="rotate(90 173.809 792.309)">
                    zod
                </text>
            </g>
            <path stroke="#888" d="M116.5 611.5h880" pointer-events="none"/>
            <text text-anchor="middle" transform="translate(556.5 812.5)" font-family="sans-serif" font-size="14" fill="#000" pointer-events="none">
                module
            </text>
        </g>
        <g class="mark-group role-axis" aria-roledescription="axis" aria-label="Y-axis titled 'operations / sec' for a linear scale with values from 0 to 2,800,000">
            <path class="background" aria-hidden="true" d="M116.5 11.5z" pointer-events="none"/>
            <g class="mark-rule role-axis-tick" pointer-events="none" stroke="#888">
                <path d="M116.5 611.5h-5M116.5 568.5h-5M116.5 525.5h-5M116.5 482.5h-5M116.5 440.5h-5M116.5 397.5h-5M116.5 354.5h-5M116.5 311.5h-5M116.5 268.5h-5M116.5 225.5h-5M116.5 182.5h-5M116.5 140.5h-5M116.5 97.5h-5M116.5 54.5h-5M116.5 11.5h-5"/>
            </g>
            <g class="mark-text role-axis-label" pointer-events="none" text-anchor="end" font-family="sans-serif" font-size="12" fill="#000">
                <text transform="translate(109.5 615.5)">
                    0
                </text>
                <text transform="translate(109.5 572.643)">
                    200,000
                </text>
                <text transform="translate(109.5 529.786)">
                    400,000
                </text>
                <text transform="translate(109.5 486.929)">
                    600,000
                </text>
                <text transform="translate(109.5 444.071)">
                    800,000
                </text>
                <text transform="translate(109.5 401.214)">
                    1,000,000
                </text>
                <text transform="translate(109.5 358.357)">
                    1,200,000
                </text>
                <text transform="translate(109.5 315.5)">
                    1,400,000
                </text>
                <text transform="translate(109.5 272.643)">
                    1,600,000
                </text>
                <text transform="translate(109.5 229.786)">
                    1,800,000
                </text>
                <text transform="translate(109.5 186.929)">
                    2,000,000
                </text>
                <text transform="translate(109.5 144.071)">
                    2,200,000
                </text>
                <text transform="translate(109.5 101.214)">
                    2,400,000
                </text>
                <text transform="translate(109.5 58.357)">
                    2,600,000
                </text>
                <text transform="translate(109.5 15.5)">
                    2,800,000
                </text>
            </g>
            <path stroke="#888" d="M116.5 611.5v-600" pointer-events="none"/>
            <text text-anchor="middle" transform="rotate(-90 164 147.5)" font-family="sans-serif" font-size="14" fill="#000" pointer-events="none">
                operations / sec
            </text>
        </g>
        <g class="mark-rect role-mark marks" aria-roledescription="rect mark container" fill="#4c78a8">
            <path aria-label="operations / sec: 153607; module: bueno" aria-roledescription="bar" d="M118.588 578.084h46.588V611h-46.588z"/>
            <path aria-label="operations / sec: 26933; module: class-transformer-validator-async" aria-roledescription="bar" d="M170.353 605.229h46.588V611h-46.588z"/>
            <path aria-label="operations / sec: 33228; module: class-transformer-validator-sync" aria-roledescription="bar" d="M222.118 603.88h46.588V611h-46.588z"/>
            <path aria-label="operations / sec: 700872; module: computed-types" aria-roledescription="bar" d="M273.882 460.813h46.589V611h-46.589z"/>
            <path aria-label="operations / sec: 2633301; module: io-ts" aria-roledescription="bar" d="M325.647 46.721h46.588V611h-46.588z"/>
            <path aria-label="operations / sec: 1385964; module: jointz" aria-roledescription="bar" d="M377.412 314.008H424V611h-46.588z"/>
            <path aria-label="operations / sec: 809202; module: json-decoder" aria-roledescription="bar" d="M429.176 437.6h46.589V611h-46.589z"/>
            <path aria-label="operations / sec: 1406852; module: myzod" aria-roledescription="bar" d="M480.941 309.532h46.588V611h-46.588z"/>
            <path aria-label="operations / sec: 819643; module: purify-ts" aria-roledescription="bar" d="M532.706 435.362h46.588V611h-46.588z"/>
            <path aria-label="operations / sec: 732495; module: rulr" aria-roledescription="bar" d="M584.47 454.037h46.589V611H584.47z"/>
            <path aria-label="operations / sec: 801751; module: runtypes" aria-roledescription="bar" d="M636.235 439.196h46.589V611h-46.589z"/>
            <path aria-label="operations / sec: 1762893; module: simple-runtypes" aria-roledescription="bar" d="M688 233.237h46.588V611H688z"/>
            <path aria-label="operations / sec: 63658; module: superstruct" aria-roledescription="bar" d="M739.765 597.359h46.588V611h-46.588z"/>
            <path aria-label="operations / sec: 468756; module: toi" aria-roledescription="bar" d="M791.53 510.552h46.588V611h-46.589z"/>
            <path aria-label="operations / sec: 144297; module: ts-utils" aria-roledescription="bar" d="M843.294 580.08h46.588V611h-46.588z"/>
            <path aria-label="operations / sec: 13579; module: yup" aria-roledescription="bar" d="M895.059 608.09h46.588V611H895.06z"/>
            <path aria-label="operations / sec: 7812; module: zod" aria-roledescription="bar" d="M946.824 609.326h46.588V611h-46.588z"/>
        </g>
    </g>
</svg>
