<svg xmlns="http://www.w3.org/2000/svg" class="marks" width="1001" height="820">
    <path fill="#fff" d="M0 0h1001v820H0z"/>
    <g class="mark-group role-frame root" aria-roledescription="group mark container" fill="none" stroke-miterlimit="10">
        <path class="background" aria-hidden="true" d="M116.5 11.5h880v600h-880z" stroke="#ddd"/>
        <g class="mark-group role-axis" aria-hidden="true">
            <path class="background" aria-hidden="true" d="M116.5 11.5z" pointer-events="none"/>
            <g class="mark-rule role-axis-grid" pointer-events="none" stroke="#ddd">
                <path d="M116.5 611.5h880M116.5 565.5h880M116.5 519.5h880M116.5 473.5h880M116.5 426.5h880M116.5 380.5h880M116.5 334.5h880M116.5 288.5h880M116.5 242.5h880M116.5 196.5h880M116.5 149.5h880M116.5 103.5h880M116.5 57.5h880M116.5 11.5h880"/>
            </g>
        </g>
        <g class="mark-group role-axis" aria-roledescription="axis" aria-label="X-axis titled 'module' for a discrete scale with 18 values: bueno, class-transformer-validator-async, class-transformer-validator-sync, computed-types, decoders, ending with zod">
            <path class="background" aria-hidden="true" d="M116.5 611.5z" pointer-events="none"/>
            <g class="mark-rule role-axis-tick" pointer-events="none" stroke="#888">
                <path d="M140.5 611.5v5M189.5 611.5v5M238.5 611.5v5M287.5 611.5v5M336.5 611.5v5M384.5 611.5v5M433.5 611.5v5M482.5 611.5v5M531.5 611.5v5M580.5 611.5v5M629.5 611.5v5M678.5 611.5v5M727.5 611.5v5M776.5 611.5v5M824.5 611.5v5M873.5 611.5v5M922.5 611.5v5M971.5 611.5v5"/>
            </g>
            <g class="mark-text role-axis-label" pointer-events="none" font-family="sans-serif" font-size="14" fill="#000">
                <text transform="rotate(90 -241.028 377.472)">
                    bueno
                </text>
                <text transform="rotate(90 -216.583 401.917)">
                    class-transform…
                </text>
                <text transform="rotate(90 -192.139 426.361)">
                    class-transform…
                </text>
                <text transform="rotate(90 -167.694 450.806)">
                    computed-types
                </text>
                <text transform="rotate(90 -143.25 475.25)">
                    decoders
                </text>
                <text transform="rotate(90 -118.806 499.694)">
                    io-ts
                </text>
                <text transform="rotate(90 -94.361 524.139)">
                    jointz
                </text>
                <text transform="rotate(90 -69.917 548.583)">
                    json-decoder
                </text>
                <text transform="rotate(90 -45.472 573.028)">
                    myzod
                </text>
                <text transform="rotate(90 -21.028 597.472)">
                    purify-ts
                </text>
                <text transform="rotate(90 3.417 621.917)">
                    rulr
                </text>
                <text transform="rotate(90 27.861 646.361)">
                    runtypes
                </text>
                <text transform="rotate(90 52.306 670.806)">
                    simple-runtypes
                </text>
                <text transform="rotate(90 76.75 695.25)">
                    superstruct
                </text>
                <text transform="rotate(90 101.194 719.694)">
                    toi
                </text>
                <text transform="rotate(90 125.639 744.139)">
                    ts-utils
                </text>
                <text transform="rotate(90 150.083 768.583)">
                    yup
                </text>
                <text transform="rotate(90 174.528 793.028)">
                    zod
                </text>
            </g>
            <path stroke="#888" d="M116.5 611.5h880" pointer-events="none"/>
            <text text-anchor="middle" transform="translate(556.5 812.5)" font-family="sans-serif" font-size="14" fill="#000" pointer-events="none">
                module
            </text>
        </g>
        <g class="mark-group role-axis" aria-roledescription="axis" aria-label="Y-axis titled 'operations / sec' for a linear scale with values from 0 to 1,300,000">
            <path class="background" aria-hidden="true" d="M116.5 11.5z" pointer-events="none"/>
            <g class="mark-rule role-axis-tick" pointer-events="none" stroke="#888">
                <path d="M116.5 611.5h-5M116.5 565.5h-5M116.5 519.5h-5M116.5 473.5h-5M116.5 426.5h-5M116.5 380.5h-5M116.5 334.5h-5M116.5 288.5h-5M116.5 242.5h-5M116.5 196.5h-5M116.5 149.5h-5M116.5 103.5h-5M116.5 57.5h-5M116.5 11.5h-5"/>
            </g>
            <g class="mark-text role-axis-label" pointer-events="none" text-anchor="end" font-family="sans-serif" font-size="12" fill="#000">
                <text transform="translate(109.5 615.5)">
                    0
                </text>
                <text transform="translate(109.5 569.346)">
                    100,000
                </text>
                <text transform="translate(109.5 523.192)">
                    200,000
                </text>
                <text transform="translate(109.5 477.038)">
                    300,000
                </text>
                <text transform="translate(109.5 430.885)">
                    400,000
                </text>
                <text transform="translate(109.5 384.73)">
                    500,000
                </text>
                <text transform="translate(109.5 338.577)">
                    600,000
                </text>
                <text transform="translate(109.5 292.423)">
                    700,000
                </text>
                <text transform="translate(109.5 246.27)">
                    800,000
                </text>
                <text transform="translate(109.5 200.115)">
                    900,000
                </text>
                <text transform="translate(109.5 153.962)">
                    1,000,000
                </text>
                <text transform="translate(109.5 107.808)">
                    1,100,000
                </text>
                <text transform="translate(109.5 61.654)">
                    1,200,000
                </text>
                <text transform="translate(109.5 15.5)">
                    1,300,000
                </text>
            </g>
            <path stroke="#888" d="M116.5 611.5v-600" pointer-events="none"/>
            <text text-anchor="middle" transform="rotate(-90 164 147.5)" font-family="sans-serif" font-size="14" fill="#000" pointer-events="none">
                operations / sec
            </text>
        </g>
        <g class="mark-rect role-mark marks" aria-roledescription="rect mark container" fill="#4c78a8">
            <path aria-label="operations / sec: 128961; module: bueno" aria-roledescription="bar" d="M118.444 551.48h44V611h-44z"/>
            <path aria-label="operations / sec: 25904; module: class-transformer-validator-async" aria-roledescription="bar" d="M167.333 599.044h44V611h-44z"/>
            <path aria-label="operations / sec: 31757; module: class-transformer-validator-sync" aria-roledescription="bar" d="M216.222 596.343h44V611h-44z"/>
            <path aria-label="operations / sec: 673246; module: computed-types" aria-roledescription="bar" d="M265.111 300.271h44V611h-44z"/>
            <path aria-label="operations / sec: 205559; module: decoders" aria-roledescription="bar" d="M314 516.127h44V611h-44z"/>
            <path aria-label="operations / sec: 817965; module: io-ts" aria-roledescription="bar" d="M362.889 233.478h44V611h-44z"/>
            <path aria-label="operations / sec: 848319; module: jointz" aria-roledescription="bar" d="M411.778 219.468h44V611h-44z"/>
            <path aria-label="operations / sec: 467169; module: json-decoder" aria-roledescription="bar" d="M460.667 395.384h44V611h-44z"/>
            <path aria-label="operations / sec: 1228216; module: myzod" aria-roledescription="bar" d="M509.556 44.131h44V611h-44z"/>
            <path aria-label="operations / sec: 728822; module: purify-ts" aria-roledescription="bar" d="M558.444 274.62h44V611h-44z"/>
            <path aria-label="operations / sec: 612045; module: rulr" aria-roledescription="bar" d="M607.333 328.518h44V611h-44z"/>
            <path aria-label="operations / sec: 680789; module: runtypes" aria-roledescription="bar" d="M656.222 296.79h44V611h-44z"/>
            <path aria-label="operations / sec: 1259645; module: simple-runtypes" aria-roledescription="bar" d="M705.111 29.625h44V611h-44z"/>
            <path aria-label="operations / sec: 67186; module: superstruct" aria-roledescription="bar" d="M754 579.991h44V611h-44z"/>
            <path aria-label="operations / sec: 394215; module: toi" aria-roledescription="bar" d="M802.889 429.055h44V611h-44z"/>
            <path aria-label="operations / sec: 128287; module: ts-utils" aria-roledescription="bar" d="M851.778 551.79h44V611h-44z"/>
            <path aria-label="operations / sec: 12149; module: yup" aria-roledescription="bar" d="M900.667 605.393h44V611h-44z"/>
            <path aria-label="operations / sec: 7029; module: zod" aria-roledescription="bar" d="M949.556 607.756h44V611h-44z"/>
        </g>
    </g>
</svg>
