<svg xmlns="http://www.w3.org/2000/svg" class="marks" width="1011" height="820">
    <path fill="#fff" d="M0 0h1011v820H0z"/>
    <g class="mark-group role-frame root" aria-roledescription="group mark container" fill="none" stroke-miterlimit="10">
        <path class="background" aria-hidden="true" d="M126.5 11.5h880v600h-880z" stroke="#ddd"/>
        <g class="mark-group role-axis" aria-roledescription="axis" aria-label="Y-axis for a linear scale with values from 0 to 30,000,000">
            <path class="background" aria-hidden="true" d="M126.5 11.5z" pointer-events="none"/>
            <g class="mark-rule role-axis-grid" pointer-events="none" stroke="#ddd">
                <path d="M126.5 611.5h880M126.5 571.5h880M126.5 531.5h880M126.5 491.5h880M126.5 451.5h880M126.5 411.5h880M126.5 371.5h880M126.5 331.5h880M126.5 291.5h880M126.5 251.5h880M126.5 211.5h880M126.5 171.5h880M126.5 131.5h880M126.5 91.5h880M126.5 51.5h880M126.5 11.5h880"/>
            </g>
        </g>
        <g class="mark-group role-axis" aria-roledescription="axis" aria-label="X-axis titled 'module' for a discrete scale with 25 values: @mojotech/json-type-validation, @typeofweb/schema, bueno, class-transformer-validator-async, class-transformer-validator-sync, ending with zod">
            <path class="background" aria-hidden="true" d="M126.5 611.5z" pointer-events="none"/>
            <g class="mark-rule role-axis-tick" pointer-events="none" stroke="#888">
                <path d="M143.5 611.5v5M178.5 611.5v5M214.5 611.5v5M249.5 611.5v5M284.5 611.5v5M319.5 611.5v5M354.5 611.5v5M390.5 611.5v5M425.5 611.5v5M460.5 611.5v5M495.5 611.5v5M530.5 611.5v5M566.5 611.5v5M601.5 611.5v5M636.5 611.5v5M671.5 611.5v5M706.5 611.5v5M742.5 611.5v5M777.5 611.5v5M812.5 611.5v5M847.5 611.5v5M882.5 611.5v5M918.5 611.5v5M953.5 611.5v5M988.5 611.5v5"/>
            </g>
            <g class="mark-text role-axis-label" pointer-events="none" font-family="sans-serif" font-size="14" fill="#000">
                <text transform="rotate(90 -239.45 379.05)">@mojotech/json-…</text>
                <text transform="rotate(90 -221.85 396.65)">@typeofweb/sche…</text>
                <text transform="rotate(90 -204.25 414.25)">bueno</text>
                <text transform="rotate(90 -186.65 431.85)">class-transform…</text>
                <text transform="rotate(90 -169.05 449.45)">class-transform…</text>
                <text transform="rotate(90 -151.45 467.05)">computed-types</text>
                <text transform="rotate(90 -133.85 484.65)">decoders</text>
                <text transform="rotate(90 -116.25 502.25)">io-ts</text>
                <text transform="rotate(90 -98.65 519.85)">jointz</text>
                <text transform="rotate(90 -81.05 537.45)">json-decoder</text>
                <text transform="rotate(90 -63.45 555.05)">marshal</text>
                <text transform="rotate(90 -45.85 572.65)">myzod</text>
                <text transform="rotate(90 -28.25 590.25)">purify-ts</text>
                <text transform="rotate(90 -10.65 607.85)">rulr</text>
                <text transform="rotate(90 6.95 625.45)">runtypes</text>
                <text transform="rotate(90 24.55 643.05)">simple-runtypes</text>
                <text transform="rotate(90 42.15 660.65)">superstruct</text>
                <text transform="rotate(90 59.75 678.25)">suretype</text>
                <text transform="rotate(90 77.35 695.85)">toi</text>
                <text transform="rotate(90 94.95 713.45)">ts-interface-ch…</text>
                <text transform="rotate(90 112.55 731.05)">ts-json-validat…</text>
                <text transform="rotate(90 130.15 748.65)">ts-utils</text>
                <text transform="rotate(90 147.75 766.25)">valita</text>
                <text transform="rotate(90 165.35 783.85)">yup</text>
                <text transform="rotate(90 182.95 801.45)">zod</text>
            </g>
            <path stroke="#888" d="M126.5 611.5h880" class="mark-rule role-axis-domain" pointer-events="none"/>
            <text text-anchor="middle" transform="translate(566.5 812.5)" font-family="sans-serif" font-size="14" fill="#000" class="mark-text role-axis-title" pointer-events="none">module</text>
        </g>
        <g class="mark-group role-axis" aria-roledescription="axis" aria-label="Y-axis titled 'operations / sec' for a linear scale with values from 0 to 30,000,000">
            <path class="background" aria-hidden="true" d="M126.5 11.5z" pointer-events="none"/>
            <g class="mark-rule role-axis-tick" pointer-events="none" stroke="#888">
                <path d="M126.5 611.5h-5M126.5 571.5h-5M126.5 531.5h-5M126.5 491.5h-5M126.5 451.5h-5M126.5 411.5h-5M126.5 371.5h-5M126.5 331.5h-5M126.5 291.5h-5M126.5 251.5h-5M126.5 211.5h-5M126.5 171.5h-5M126.5 131.5h-5M126.5 91.5h-5M126.5 51.5h-5M126.5 11.5h-5"/>
            </g>
            <g class="mark-text role-axis-label" pointer-events="none" text-anchor="end" font-family="sans-serif" font-size="12" fill="#000">
                <text transform="translate(119.5 615.5)">0</text>
                <text transform="translate(119.5 575.5)">2,000,000</text>
                <text transform="translate(119.5 535.5)">4,000,000</text>
                <text transform="translate(119.5 495.5)">6,000,000</text>
                <text transform="translate(119.5 455.5)">8,000,000</text>
                <text transform="translate(119.5 415.5)">10,000,000</text>
                <text transform="translate(119.5 375.5)">12,000,000</text>
                <text transform="translate(119.5 335.5)">14,000,000</text>
                <text transform="translate(119.5 295.5)">16,000,000</text>
                <text transform="translate(119.5 255.5)">18,000,000</text>
                <text transform="translate(119.5 215.5)">20,000,000</text>
                <text transform="translate(119.5 175.5)">22,000,000</text>
                <text transform="translate(119.5 135.5)">24,000,000</text>
                <text transform="translate(119.5 95.5)">26,000,000</text>
                <text transform="translate(119.5 55.5)">28,000,000</text>
                <text transform="translate(119.5 15.5)">30,000,000</text>
            </g>
            <path stroke="#888" d="M126.5 611.5v-600" class="mark-rule role-axis-domain" pointer-events="none"/>
            <text text-anchor="middle" transform="rotate(-90 164 147.5)" font-family="sans-serif" font-size="14" fill="#000" class="mark-text role-axis-title" pointer-events="none">operations / sec</text>
        </g>
        <g class="mark-rect role-mark marks" aria-roledescription="rect mark container" fill="#4c78a8">
            <path d="M198.16 608.469h31.68V611h-31.68zM233.36 610.529h31.68V611h-31.68zM268.56 610.523h31.68V611h-31.68zM303.76 597.55h31.68V611h-31.68zM338.96 607.213h31.68V611h-31.68zM374.16 594.376h31.68V611h-31.68zM409.36 593.28h31.68V611h-31.68zM444.56 597.003h31.68V611h-31.68zM479.76 251.896h31.68V611h-31.68zM127.76 587.603h31.68V611h-31.68zM514.96 590.253h31.68V611h-31.68zM550.16 602.917h31.68V611h-31.68zM585.36 598.663h31.68V611h-31.68zM620.56 597.323h31.68V611h-31.68zM655.76 582.204h31.68V611h-31.68zM690.96 609.393h31.68V611h-31.68zM726.16 43.676h31.68V611h-31.68zM761.36 603.081h31.68V611h-31.68zM796.56 569.735h31.68V611h-31.68zM831.76 145.067h31.68V611h-31.68zM866.96 608.62h31.68V611h-31.68zM162.96 599.771h31.68V611h-31.68zM902.16 548.316h31.68V611h-31.68zM937.36 610.601h31.68V611h-31.68zM972.56 603.54h31.68V611h-31.68z"/>
        </g>
    </g>
</svg>
