<svg xmlns="http://www.w3.org/2000/svg" class="marks" width="1011" height="814">
    <path fill="#fff" d="M0 0h1011v814H0z"/>
    <g class="mark-group role-frame root" aria-roledescription="group mark container" fill="none" stroke-miterlimit="10">
        <path class="background" aria-hidden="true" d="M126.5 5.5h880v600h-880z" stroke="#ddd"/>
        <g class="mark-group role-axis" aria-hidden="true">
            <path class="background" aria-hidden="true" d="M126.5 5.5z" pointer-events="none"/>
            <g class="mark-rule role-axis-grid" pointer-events="none" stroke="#ddd">
                <path d="M126.5 605.5h880M126.5 571.5h880M126.5 536.5h880M126.5 502.5h880M126.5 468.5h880M126.5 434.5h880M126.5 399.5h880M126.5 365.5h880M126.5 331.5h880M126.5 296.5h880M126.5 262.5h880M126.5 228.5h880M126.5 194.5h880M126.5 159.5h880M126.5 125.5h880M126.5 91.5h880M126.5 56.5h880M126.5 22.5h880"/>
            </g>
        </g>
        <g class="mark-group role-axis" aria-roledescription="axis" aria-label="X-axis titled 'module' for a discrete scale with 20 values: bueno, class-transformer-validator-async, class-transformer-validator-sync, computed-types, decoders, ending with zod">
            <path class="background" aria-hidden="true" d="M126.5 605.5z" pointer-events="none"/>
            <g class="mark-rule role-axis-tick" pointer-events="none" stroke="#888">
                <path d="M148.5 605.5v5M192.5 605.5v5M236.5 605.5v5M280.5 605.5v5M324.5 605.5v5M368.5 605.5v5M412.5 605.5v5M456.5 605.5v5M500.5 605.5v5M544.5 605.5v5M588.5 605.5v5M632.5 605.5v5M676.5 605.5v5M720.5 605.5v5M764.5 605.5v5M808.5 605.5v5M852.5 605.5v5M896.5 605.5v5M940.5 605.5v5M984.5 605.5v5"/>
            </g>
            <g class="mark-text role-axis-label" pointer-events="none" font-family="sans-serif" font-size="14" fill="#000">
                <text transform="rotate(90 -234.25 378.25)">
                    bueno
                </text>
                <text transform="rotate(90 -212.25 400.25)">
                    class-transform…
                </text>
                <text transform="rotate(90 -190.25 422.25)">
                    class-transform…
                </text>
                <text transform="rotate(90 -168.25 444.25)">
                    computed-types
                </text>
                <text transform="rotate(90 -146.25 466.25)">
                    decoders
                </text>
                <text transform="rotate(90 -124.25 488.25)">
                    io-ts
                </text>
                <text transform="rotate(90 -102.25 510.25)">
                    jointz
                </text>
                <text transform="rotate(90 -80.25 532.25)">
                    json-decoder
                </text>
                <text transform="rotate(90 -58.25 554.25)">
                    marshal
                </text>
                <text transform="rotate(90 -36.25 576.25)">
                    myzod
                </text>
                <text transform="rotate(90 -14.25 598.25)">
                    purify-ts
                </text>
                <text transform="rotate(90 7.75 620.25)">
                    rulr
                </text>
                <text transform="rotate(90 29.75 642.25)">
                    runtypes
                </text>
                <text transform="rotate(90 51.75 664.25)">
                    simple-runtypes
                </text>
                <text transform="rotate(90 73.75 686.25)">
                    superstruct
                </text>
                <text transform="rotate(90 95.75 708.25)">
                    toi
                </text>
                <text transform="rotate(90 117.75 730.25)">
                    ts-json-validat…
                </text>
                <text transform="rotate(90 139.75 752.25)">
                    ts-utils
                </text>
                <text transform="rotate(90 161.75 774.25)">
                    yup
                </text>
                <text transform="rotate(90 183.75 796.25)">
                    zod
                </text>
            </g>
            <path stroke="#888" d="M126.5 605.5h880" pointer-events="none"/>
            <text text-anchor="middle" transform="translate(566.5 806.5)" font-family="sans-serif" font-size="14" fill="#000" pointer-events="none">
                module
            </text>
        </g>
        <g class="mark-group role-axis" aria-roledescription="axis" aria-label="Y-axis titled 'operations / sec' for a linear scale with values from 0 to 35,000,000">
            <path class="background" aria-hidden="true" d="M126.5 5.5z" pointer-events="none"/>
            <g class="mark-rule role-axis-tick" pointer-events="none" stroke="#888">
                <path d="M126.5 605.5h-5M126.5 571.5h-5M126.5 536.5h-5M126.5 502.5h-5M126.5 468.5h-5M126.5 434.5h-5M126.5 399.5h-5M126.5 365.5h-5M126.5 331.5h-5M126.5 296.5h-5M126.5 262.5h-5M126.5 228.5h-5M126.5 194.5h-5M126.5 159.5h-5M126.5 125.5h-5M126.5 91.5h-5M126.5 56.5h-5M126.5 22.5h-5"/>
            </g>
            <g class="mark-text role-axis-label" pointer-events="none" text-anchor="end" font-family="sans-serif" font-size="12" fill="#000">
                <text transform="translate(119.5 609.5)">
                    0
                </text>
                <text transform="translate(119.5 575.214)">
                    2,000,000
                </text>
                <text transform="translate(119.5 540.929)">
                    4,000,000
                </text>
                <text transform="translate(119.5 506.643)">
                    6,000,000
                </text>
                <text transform="translate(119.5 472.357)">
                    8,000,000
                </text>
                <text transform="translate(119.5 438.071)">
                    10,000,000
                </text>
                <text transform="translate(119.5 403.786)">
                    12,000,000
                </text>
                <text transform="translate(119.5 369.5)">
                    14,000,000
                </text>
                <text transform="translate(119.5 335.214)">
                    16,000,000
                </text>
                <text transform="translate(119.5 300.929)">
                    18,000,000
                </text>
                <text transform="translate(119.5 266.643)">
                    20,000,000
                </text>
                <text transform="translate(119.5 232.357)">
                    22,000,000
                </text>
                <text transform="translate(119.5 198.071)">
                    24,000,000
                </text>
                <text transform="translate(119.5 163.786)">
                    26,000,000
                </text>
                <text transform="translate(119.5 129.5)">
                    28,000,000
                </text>
                <text transform="translate(119.5 95.214)">
                    30,000,000
                </text>
                <text transform="translate(119.5 60.929)">
                    32,000,000
                </text>
                <text transform="translate(119.5 26.643)">
                    34,000,000
                </text>
            </g>
            <path stroke="#888" d="M126.5 605.5V5.5" pointer-events="none"/>
            <text text-anchor="middle" transform="rotate(-90 161 144.5)" font-family="sans-serif" font-size="14" fill="#000" pointer-events="none">
                operations / sec
            </text>
        </g>
        <g class="mark-rect role-mark marks" aria-roledescription="rect mark container" fill="#4c78a8">
            <path aria-label="operations / sec: 130549; module: bueno" aria-roledescription="bar" d="M128.2 602.762h39.6V605h-39.6z"/>
            <path aria-label="operations / sec: 35061; module: class-transformer-validator-async" aria-roledescription="bar" d="M172.2 604.399h39.6V605h-39.6z"/>
            <path aria-label="operations / sec: 39569; module: class-transformer-validator-sync" aria-roledescription="bar" d="M216.2 604.322h39.6V605h-39.6z"/>
            <path aria-label="operations / sec: 702779; module: computed-types" aria-roledescription="bar" d="M260.2 592.952h39.6V605h-39.6z"/>
            <path aria-label="operations / sec: 193223; module: decoders" aria-roledescription="bar" d="M304.2 601.688h39.6V605h-39.6z"/>
            <path aria-label="operations / sec: 868551; module: io-ts" aria-roledescription="bar" d="M348.2 590.11h39.6V605h-39.6z"/>
            <path aria-label="operations / sec: 862405; module: jointz" aria-roledescription="bar" d="M392.2 590.216h39.6V605h-39.6z"/>
            <path aria-label="operations / sec: 712852; module: json-decoder" aria-roledescription="bar" d="M436.2 592.78h39.6V605h-39.6z"/>
            <path aria-label="operations / sec: 20289499; module: marshal" aria-roledescription="bar" d="M480.2 257.18h39.6V605h-39.6z"/>
            <path aria-label="operations / sec: 1291059; module: myzod" aria-roledescription="bar" d="M524.2 582.868h39.6V605h-39.6z"/>
            <path aria-label="operations / sec: 734377; module: purify-ts" aria-roledescription="bar" d="M568.2 592.41h39.6V605h-39.6z"/>
            <path aria-label="operations / sec: 622563; module: rulr" aria-roledescription="bar" d="M612.2 594.327h39.6V605h-39.6z"/>
            <path aria-label="operations / sec: 687901; module: runtypes" aria-roledescription="bar" d="M656.2 593.207h39.6V605h-39.6z"/>
            <path aria-label="operations / sec: 1321735; module: simple-runtypes" aria-roledescription="bar" d="M700.2 582.342h39.6V605h-39.6z"/>
            <path aria-label="operations / sec: 70245; module: superstruct" aria-roledescription="bar" d="M744.2 603.796h39.6V605h-39.6z"/>
            <path aria-label="operations / sec: 432847; module: toi" aria-roledescription="bar" d="M788.2 597.58h39.6V605h-39.6z"/>
            <path aria-label="operations / sec: 31408173; module: ts-json-validator" aria-roledescription="bar" d="M832.2 66.574h39.6V605h-39.6z"/>
            <path aria-label="operations / sec: 126395; module: ts-utils" aria-roledescription="bar" d="M876.2 602.833h39.6V605h-39.6z"/>
            <path aria-label="operations / sec: 14740; module: yup" aria-roledescription="bar" d="M920.2 604.747h39.6V605h-39.6z"/>
            <path aria-label="operations / sec: 10748; module: zod" aria-roledescription="bar" d="M964.2 604.816h39.6V605h-39.6z"/>
        </g>
    </g>
</svg>
