<svg class="marks" width="1011" height="820" xmlns="http://www.w3.org/2000/svg">
    <path fill="#fff" d="M0 0h1011v820H0z"/>
    <g class="mark-group role-frame root">
        <path class="background" d="M126.5 11.5h880v600h-880z" fill="none" stroke="#ddd"/>
        <g class="mark-group role-axis">
            <path class="background" d="M126.5 11.5z" pointer-events="none" fill="none"/>
            <g class="mark-rule role-axis-grid" pointer-events="none" fill="none" stroke="#ddd">
                <path d="M126.5 611.5h880M126.5 574.5h880M126.5 536.5h880M126.5 499.5h880M126.5 461.5h880M126.5 424.5h880M126.5 386.5h880M126.5 349.5h880M126.5 311.5h880M126.5 274.5h880M126.5 236.5h880M126.5 199.5h880M126.5 161.5h880M126.5 124.5h880M126.5 86.5h880M126.5 49.5h880M126.5 11.5h880"/>
            </g>
        </g>
        <g class="mark-group role-axis">
            <path class="background" d="M126.5 611.5z" pointer-events="none" fill="none"/>
            <g class="mark-rule role-axis-tick" pointer-events="none" fill="none" stroke="#888">
                <path d="M153.5 611.5v5M208.5 611.5v5M263.5 611.5v5M318.5 611.5v5M373.5 611.5v5M428.5 611.5v5M483.5 611.5v5M538.5 611.5v5M593.5 611.5v5M648.5 611.5v5M703.5 611.5v5M758.5 611.5v5M813.5 611.5v5M868.5 611.5v5M923.5 611.5v5M978.5 611.5v5"/>
            </g>
            <g class="mark-text role-axis-label" pointer-events="none" font-family="sans-serif" font-size="14">
                <text transform="rotate(90 -234.5 384)">
                    class-transform…
                </text>
                <text transform="rotate(90 -207 411.5)">
                    class-transform…
                </text>
                <text transform="rotate(90 -179.5 439)">
                    funval
                </text>
                <text transform="rotate(90 -152 466.5)">
                    io-ts
                </text>
                <text transform="rotate(90 -124.5 494)">
                    jointz
                </text>
                <text transform="rotate(90 -97 521.5)">
                    json-decoder
                </text>
                <text transform="rotate(90 -69.5 549)">
                    marshal
                </text>
                <text transform="rotate(90 -42 576.5)">
                    myzod
                </text>
                <text transform="rotate(90 -14.5 604)">
                    purify-ts
                </text>
                <text transform="rotate(90 13 631.5)">
                    quartet
                </text>
                <text transform="rotate(90 40.5 659)">
                    runtypes
                </text>
                <text transform="rotate(90 68 686.5)">
                    toi
                </text>
                <text transform="rotate(90 95.5 714)">
                    ts-json-validat…
                </text>
                <text transform="rotate(90 123 741.5)">
                    ts-utils
                </text>
                <text transform="rotate(90 150.5 769)">
                    yup
                </text>
                <text transform="rotate(90 178 796.5)">
                    zod
                </text>
            </g>
            <path fill="none" stroke="#888" d="M126.5 611.5h880" pointer-events="none"/>
            <text text-anchor="middle" transform="translate(566.5 812.5)" font-family="sans-serif" font-size="14" font-weight="400" pointer-events="none">
                module
            </text>
        </g>
        <g class="mark-group role-axis">
            <path class="background" d="M126.5 11.5z" pointer-events="none" fill="none"/>
            <g class="mark-rule role-axis-tick" pointer-events="none" fill="none" stroke="#888">
                <path d="M126.5 611.5h-5M126.5 574.5h-5M126.5 536.5h-5M126.5 499.5h-5M126.5 461.5h-5M126.5 424.5h-5M126.5 386.5h-5M126.5 349.5h-5M126.5 311.5h-5M126.5 274.5h-5M126.5 236.5h-5M126.5 199.5h-5M126.5 161.5h-5M126.5 124.5h-5M126.5 86.5h-5M126.5 49.5h-5M126.5 11.5h-5"/>
            </g>
            <g class="mark-text role-axis-label" pointer-events="none" text-anchor="end" font-family="sans-serif" font-size="12">
                <text transform="translate(119.5 615.5)">
                    0
                </text>
                <text transform="translate(119.5 578)">
                    5,000,000
                </text>
                <text transform="translate(119.5 540.5)">
                    10,000,000
                </text>
                <text transform="translate(119.5 503)">
                    15,000,000
                </text>
                <text transform="translate(119.5 465.5)">
                    20,000,000
                </text>
                <text transform="translate(119.5 428)">
                    25,000,000
                </text>
                <text transform="translate(119.5 390.5)">
                    30,000,000
                </text>
                <text transform="translate(119.5 353)">
                    35,000,000
                </text>
                <text transform="translate(119.5 315.5)">
                    40,000,000
                </text>
                <text transform="translate(119.5 278)">
                    45,000,000
                </text>
                <text transform="translate(119.5 240.5)">
                    50,000,000
                </text>
                <text transform="translate(119.5 203)">
                    55,000,000
                </text>
                <text transform="translate(119.5 165.5)">
                    60,000,000
                </text>
                <text transform="translate(119.5 128)">
                    65,000,000
                </text>
                <text transform="translate(119.5 90.5)">
                    70,000,000
                </text>
                <text transform="translate(119.5 53)">
                    75,000,000
                </text>
                <text transform="translate(119.5 15.5)">
                    80,000,000
                </text>
            </g>
            <path fill="none" stroke="#888" d="M126.5 611.5v-600" pointer-events="none"/>
            <text text-anchor="middle" transform="rotate(-90 164 147.5)" font-family="sans-serif" font-size="14" font-weight="400" pointer-events="none">
                operations / sec
            </text>
        </g>
        <g class="mark-rect role-mark marks" fill="#4c78a8">
            <path d="M128.75 610.867h49.5V611h-49.5zM183.75 610.801h49.5V611h-49.5zM238.75 605.26h49.5V611h-49.5zM293.75 594.144h49.5V611h-49.5zM348.75 609.495h49.5V611h-49.5zM403.75 604.93h49.5V611h-49.5zM458.75 576.417h49.5V611h-49.5zM513.75 600.404h49.5V611h-49.5zM568.75 604.824h49.5V611h-49.5zM623.75 45.981h49.5V611h-49.5zM678.75 604.997h49.5V611h-49.5zM733.75 607.525h49.5V611h-49.5zM788.75 406.175h49.5V611h-49.5zM843.75 610.014h49.5V611h-49.5zM898.75 610.905h49.5V611h-49.5zM953.75 610.5h49.5v.5h-49.5z"/>
        </g>
    </g>
</svg>
