<svg xmlns="http://www.w3.org/2000/svg" class="marks" width="1011" height="820">
    <path fill="#fff" d="M0 0h1011v820H0z"/>
    <g class="mark-group role-frame root" aria-roledescription="group mark container" fill="none" stroke-miterlimit="10">
        <path class="background" aria-hidden="true" d="M126.5 11.5h880v600h-880z" stroke="#ddd"/>
        <g class="mark-group role-axis" aria-roledescription="axis" aria-label="Y-axis for a linear scale with values from 0 to 12,000,000">
            <path class="background" aria-hidden="true" d="M126.5 11.5z" pointer-events="none"/>
            <g class="mark-rule role-axis-grid" pointer-events="none" stroke="#ddd">
                <path d="M126.5 611.5h880M126.5 561.5h880M126.5 511.5h880M126.5 461.5h880M126.5 411.5h880M126.5 361.5h880M126.5 311.5h880M126.5 261.5h880M126.5 211.5h880M126.5 161.5h880M126.5 111.5h880M126.5 61.5h880M126.5 11.5h880"/>
            </g>
        </g>
        <g class="mark-group role-axis" aria-roledescription="axis" aria-label="X-axis titled 'module' for a discrete scale with 24 values: @typeofweb/schema, bueno, class-transformer-validator-async, class-transformer-validator-sync, computed-types, ending with zod">
            <path class="background" aria-hidden="true" d="M126.5 611.5z" pointer-events="none"/>
            <g class="mark-rule role-axis-tick" pointer-events="none" stroke="#888">
                <path d="M144.5 611.5v5M181.5 611.5v5M217.5 611.5v5M254.5 611.5v5M291.5 611.5v5M327.5 611.5v5M364.5 611.5v5M401.5 611.5v5M437.5 611.5v5M474.5 611.5v5M511.5 611.5v5M547.5 611.5v5M584.5 611.5v5M621.5 611.5v5M657.5 611.5v5M694.5 611.5v5M731.5 611.5v5M767.5 611.5v5M804.5 611.5v5M841.5 611.5v5M877.5 611.5v5M914.5 611.5v5M951.5 611.5v5M987.5 611.5v5"/>
            </g>
            <g class="mark-text role-axis-label" pointer-events="none" font-family="sans-serif" font-size="14" fill="#000">
                <text transform="rotate(90 -239.083 379.417)">@typeofweb/sche…</text>
                <text transform="rotate(90 -220.75 397.75)">bueno</text>
                <text transform="rotate(90 -202.417 416.083)">class-transform…</text>
                <text transform="rotate(90 -184.083 434.417)">class-transform…</text>
                <text transform="rotate(90 -165.75 452.75)">computed-types</text>
                <text transform="rotate(90 -147.417 471.083)">decoders</text>
                <text transform="rotate(90 -129.083 489.417)">io-ts</text>
                <text transform="rotate(90 -110.75 507.75)">jointz</text>
                <text transform="rotate(90 -92.417 526.083)">json-decoder</text>
                <text transform="rotate(90 -74.083 544.417)">marshal</text>
                <text transform="rotate(90 -55.75 562.75)">myzod</text>
                <text transform="rotate(90 -37.417 581.083)">purify-ts</text>
                <text transform="rotate(90 -19.083 599.417)">rulr</text>
                <text transform="rotate(90 -.75 617.75)">runtypes</text>
                <text transform="rotate(90 17.583 636.083)">simple-runtypes</text>
                <text transform="rotate(90 35.917 654.417)">superstruct</text>
                <text transform="rotate(90 54.25 672.75)">suretype</text>
                <text transform="rotate(90 72.583 691.083)">toi</text>
                <text transform="rotate(90 90.917 709.417)">ts-interface-ch…</text>
                <text transform="rotate(90 109.25 727.75)">ts-json-validat…</text>
                <text transform="rotate(90 127.583 746.083)">ts-utils</text>
                <text transform="rotate(90 145.917 764.417)">valita</text>
                <text transform="rotate(90 164.25 782.75)">yup</text>
                <text transform="rotate(90 182.583 801.083)">zod</text>
            </g>
            <path stroke="#888" d="M126.5 611.5h880" class="mark-rule role-axis-domain" pointer-events="none"/>
            <text text-anchor="middle" transform="translate(566.5 812.5)" font-family="sans-serif" font-size="14" fill="#000" class="mark-text role-axis-title" pointer-events="none">module</text>
        </g>
        <g class="mark-group role-axis" aria-roledescription="axis" aria-label="Y-axis titled 'operations / sec' for a linear scale with values from 0 to 12,000,000">
            <path class="background" aria-hidden="true" d="M126.5 11.5z" pointer-events="none"/>
            <g class="mark-rule role-axis-tick" pointer-events="none" stroke="#888">
                <path d="M126.5 611.5h-5M126.5 561.5h-5M126.5 511.5h-5M126.5 461.5h-5M126.5 411.5h-5M126.5 361.5h-5M126.5 311.5h-5M126.5 261.5h-5M126.5 211.5h-5M126.5 161.5h-5M126.5 111.5h-5M126.5 61.5h-5M126.5 11.5h-5"/>
            </g>
            <g class="mark-text role-axis-label" pointer-events="none" text-anchor="end" font-family="sans-serif" font-size="12" fill="#000">
                <text transform="translate(119.5 615.5)">0</text>
                <text transform="translate(119.5 565.5)">1,000,000</text>
                <text transform="translate(119.5 515.5)">2,000,000</text>
                <text transform="translate(119.5 465.5)">3,000,000</text>
                <text transform="translate(119.5 415.5)">4,000,000</text>
                <text transform="translate(119.5 365.5)">5,000,000</text>
                <text transform="translate(119.5 315.5)">6,000,000</text>
                <text transform="translate(119.5 265.5)">7,000,000</text>
                <text transform="translate(119.5 215.5)">8,000,000</text>
                <text transform="translate(119.5 165.5)">9,000,000</text>
                <text transform="translate(119.5 115.5)">10,000,000</text>
                <text transform="translate(119.5 65.5)">11,000,000</text>
                <text transform="translate(119.5 15.5)">12,000,000</text>
            </g>
            <path stroke="#888" d="M126.5 611.5v-600" class="mark-rule role-axis-domain" pointer-events="none"/>
            <text text-anchor="middle" transform="rotate(-90 164 147.5)" font-family="sans-serif" font-size="14" fill="#000" class="mark-text role-axis-title" pointer-events="none">operations / sec</text>
        </g>
        <g class="mark-rect role-mark marks" aria-roledescription="rect mark container" fill="#4c78a8">
            <path d="M164.5 603.429h33V611h-33zM201.167 609.22h33V611h-33zM237.833 609.056h33V611h-33zM274.5 578.287h33V611h-33zM311.167 601.192h33V611h-33zM347.833 561.37h33V611h-33zM384.5 548.846h33V611h-33zM421.167 577.302h33V611h-33zM457.833 119.742h33V611h-33zM494.5 558.448h33V611h-33zM531.167 577.916h33V611h-33zM567.833 578.512h33V611h-33zM604.5 578.443h33V611h-33zM641.167 539.25h33V611h-33zM677.833 606.808h33V611h-33zM714.5 54.478h33V611h-33zM751.167 590.628h33V611h-33zM787.833 506.384h33V611h-33zM824.5 51.363h33V611h-33zM861.167 606.65h33V611h-33zM127.833 571.773h33V611h-33zM897.833 478.047h33V611h-33zM934.5 610.496h33V611h-33zM971.167 610.552h33V611h-33z"/>
        </g>
    </g>
</svg>
