<svg xmlns="http://www.w3.org/2000/svg" class="marks" width="1001" height="814">
    <path fill="#fff" d="M0 0h1001v814H0z"/>
    <g class="mark-group role-frame root" aria-roledescription="group mark container" fill="none" stroke-miterlimit="10">
        <path class="background" aria-hidden="true" d="M116.5 5.5h880v600h-880z" stroke="#ddd"/>
        <g class="mark-group role-axis" aria-roledescription="axis" aria-label="Y-axis for a linear scale with values from 0 to 3,500,000">
            <path class="background" aria-hidden="true" d="M116.5 5.5z" pointer-events="none"/>
            <g class="mark-rule role-axis-grid" pointer-events="none" stroke="#ddd">
                <path d="M116.5 605.5h880M116.5 571.5h880M116.5 536.5h880M116.5 502.5h880M116.5 468.5h880M116.5 434.5h880M116.5 399.5h880M116.5 365.5h880M116.5 331.5h880M116.5 296.5h880M116.5 262.5h880M116.5 228.5h880M116.5 194.5h880M116.5 159.5h880M116.5 125.5h880M116.5 91.5h880M116.5 56.5h880M116.5 22.5h880"/>
            </g>
        </g>
        <g class="mark-group role-axis" aria-roledescription="axis" aria-label="X-axis titled 'module' for a discrete scale with 19 values: bueno, class-transformer-validator-async, class-transformer-validator-sync, computed-types, decoders, ending with zod">
            <path class="background" aria-hidden="true" d="M116.5 605.5z" pointer-events="none"/>
            <g class="mark-rule role-axis-tick" pointer-events="none" stroke="#888">
                <path d="M139.5 605.5v5M185.5 605.5v5M231.5 605.5v5M278.5 605.5v5M324.5 605.5v5M370.5 605.5v5M417.5 605.5v5M463.5 605.5v5M509.5 605.5v5M556.5 605.5v5M602.5 605.5v5M648.5 605.5v5M694.5 605.5v5M741.5 605.5v5M787.5 605.5v5M833.5 605.5v5M880.5 605.5v5M926.5 605.5v5M972.5 605.5v5"/>
            </g>
            <g class="mark-text role-axis-label" pointer-events="none" font-family="sans-serif" font-size="14" fill="#000">
                <text transform="rotate(90 -238.671 373.829)">bueno</text>
                <text transform="rotate(90 -215.513 396.987)">class-transform…</text>
                <text transform="rotate(90 -192.355 420.145)">class-transform…</text>
                <text transform="rotate(90 -169.197 443.303)">computed-types</text>
                <text transform="rotate(90 -146.04 466.46)">decoders</text>
                <text transform="rotate(90 -122.882 489.618)">io-ts</text>
                <text transform="rotate(90 -99.724 512.776)">jointz</text>
                <text transform="rotate(90 -76.566 535.934)">json-decoder</text>
                <text transform="rotate(90 -53.408 559.092)">myzod</text>
                <text transform="rotate(90 -30.25 582.25)">purify-ts</text>
                <text transform="rotate(90 -7.092 605.408)">rulr</text>
                <text transform="rotate(90 16.066 628.566)">runtypes</text>
                <text transform="rotate(90 39.224 651.724)">simple-runtypes</text>
                <text transform="rotate(90 62.382 674.882)">superstruct</text>
                <text transform="rotate(90 85.54 698.04)">toi</text>
                <text transform="rotate(90 108.697 721.197)">ts-utils</text>
                <text transform="rotate(90 131.855 744.355)">valita</text>
                <text transform="rotate(90 155.013 767.513)">yup</text>
                <text transform="rotate(90 178.171 790.671)">zod</text>
            </g>
            <path stroke="#888" d="M116.5 605.5h880" pointer-events="none"/>
            <text text-anchor="middle" transform="translate(556.5 806.5)" font-family="sans-serif" font-size="14" fill="#000" pointer-events="none">module</text>
        </g>
        <g class="mark-group role-axis" aria-roledescription="axis" aria-label="Y-axis titled 'operations / sec' for a linear scale with values from 0 to 3,500,000">
            <path class="background" aria-hidden="true" d="M116.5 5.5z" pointer-events="none"/>
            <g class="mark-rule role-axis-tick" pointer-events="none" stroke="#888">
                <path d="M116.5 605.5h-5M116.5 571.5h-5M116.5 536.5h-5M116.5 502.5h-5M116.5 468.5h-5M116.5 434.5h-5M116.5 399.5h-5M116.5 365.5h-5M116.5 331.5h-5M116.5 296.5h-5M116.5 262.5h-5M116.5 228.5h-5M116.5 194.5h-5M116.5 159.5h-5M116.5 125.5h-5M116.5 91.5h-5M116.5 56.5h-5M116.5 22.5h-5"/>
            </g>
            <g class="mark-text role-axis-label" pointer-events="none" text-anchor="end" font-family="sans-serif" font-size="12" fill="#000">
                <text transform="translate(109.5 609.5)">0</text>
                <text transform="translate(109.5 575.214)">200,000</text>
                <text transform="translate(109.5 540.929)">400,000</text>
                <text transform="translate(109.5 506.643)">600,000</text>
                <text transform="translate(109.5 472.357)">800,000</text>
                <text transform="translate(109.5 438.071)">1,000,000</text>
                <text transform="translate(109.5 403.786)">1,200,000</text>
                <text transform="translate(109.5 369.5)">1,400,000</text>
                <text transform="translate(109.5 335.214)">1,600,000</text>
                <text transform="translate(109.5 300.929)">1,800,000</text>
                <text transform="translate(109.5 266.643)">2,000,000</text>
                <text transform="translate(109.5 232.357)">2,200,000</text>
                <text transform="translate(109.5 198.071)">2,400,000</text>
                <text transform="translate(109.5 163.786)">2,600,000</text>
                <text transform="translate(109.5 129.5)">2,800,000</text>
                <text transform="translate(109.5 95.214)">3,000,000</text>
                <text transform="translate(109.5 60.929)">3,200,000</text>
                <text transform="translate(109.5 26.643)">3,400,000</text>
            </g>
            <path stroke="#888" d="M116.5 605.5V5.5" pointer-events="none"/>
            <text text-anchor="middle" transform="rotate(-90 161 144.5)" font-family="sans-serif" font-size="14" fill="#000" pointer-events="none">operations / sec</text>
        </g>
        <g class="mark-rect role-mark marks" aria-roledescription="rect mark container" fill="#4c78a8">
            <path d="M118.316 581.092H160V605h-41.684zM164.632 600.755h41.684V605h-41.684zM210.947 599.914h41.685V605h-41.685zM257.263 489.165h41.684V605h-41.684zM303.579 573.267h41.684V605H303.58zM349.895 445.548h41.684V605h-41.684zM396.21 372.167h41.685V605H396.21zM442.526 483.956h41.685V605h-41.685zM488.842 400.499h41.684V605h-41.684zM535.158 500.394h41.684V605h-41.684zM581.474 495.403h41.684V605h-41.684zM627.79 470.04h41.684V605h-41.685zM674.105 340.487h41.684V605h-41.684zM720.421 596.69h41.684V605h-41.684zM766.737 525.158h41.684V605h-41.684zM813.053 581.05h41.684V605h-41.684zM859.368 75.26h41.685V605h-41.685zM905.684 603.342h41.684V605h-41.684zM952 603.898h41.684V605H952z"/>
        </g>
    </g>
</svg>
