<svg class="marks" width="1001" height="820" xmlns="http://www.w3.org/2000/svg">
    <path fill="#fff" d="M0 0h1001v820H0z"/>
    <g class="mark-group role-frame root">
        <path class="background" d="M116.5 11.5h880v600h-880z" fill="none" stroke="#ddd"/>
        <g class="mark-group role-axis">
            <path class="background" d="M116.5 11.5z" pointer-events="none" fill="none"/>
            <g class="mark-rule role-axis-grid" pointer-events="none" fill="none" stroke="#ddd">
                <path d="M116.5 611.5h880M116.5 551.5h880M116.5 491.5h880M116.5 431.5h880M116.5 371.5h880M116.5 311.5h880M116.5 251.5h880M116.5 191.5h880M116.5 131.5h880M116.5 71.5h880M116.5 11.5h880"/>
            </g>
        </g>
        <g class="mark-group role-axis">
            <path class="background" d="M116.5 611.5z" pointer-events="none" fill="none"/>
            <g class="mark-rule role-axis-tick" pointer-events="none" fill="none" stroke="#888">
                <path d="M147.5 611.5v5M210.5 611.5v5M273.5 611.5v5M336.5 611.5v5M398.5 611.5v5M461.5 611.5v5M524.5 611.5v5M587.5 611.5v5M650.5 611.5v5M713.5 611.5v5M776.5 611.5v5M838.5 611.5v5M901.5 611.5v5M964.5 611.5v5"/>
            </g>
            <g class="mark-text role-axis-label" pointer-events="none" font-family="sans-serif" font-size="14">
                <text transform="rotate(90 -237.536 380.964)">
                    class-transform…
                </text>
                <text transform="rotate(90 -206.107 412.393)">
                    class-transform…
                </text>
                <text transform="rotate(90 -174.679 443.821)">
                    funval
                </text>
                <text transform="rotate(90 -143.25 475.25)">
                    io-ts
                </text>
                <text transform="rotate(90 -111.821 506.679)">
                    jointz
                </text>
                <text transform="rotate(90 -80.393 538.107)">
                    json-decoder
                </text>
                <text transform="rotate(90 -48.964 569.536)">
                    marshal
                </text>
                <text transform="rotate(90 -17.536 600.964)">
                    myzod
                </text>
                <text transform="rotate(90 13.893 632.393)">
                    purify-ts
                </text>
                <text transform="rotate(90 45.321 663.821)">
                    runtypes
                </text>
                <text transform="rotate(90 76.75 695.25)">
                    toi
                </text>
                <text transform="rotate(90 108.179 726.679)">
                    ts-utils
                </text>
                <text transform="rotate(90 139.607 758.107)">
                    yup
                </text>
                <text transform="rotate(90 171.036 789.536)">
                    zod
                </text>
            </g>
            <path fill="none" stroke="#888" d="M116.5 611.5h880" pointer-events="none"/>
            <text text-anchor="middle" transform="translate(556.5 812.5)" font-family="sans-serif" font-size="14" font-weight="400" pointer-events="none">
                module
            </text>
        </g>
        <g class="mark-group role-axis">
            <path class="background" d="M116.5 11.5z" pointer-events="none" fill="none"/>
            <g class="mark-rule role-axis-tick" pointer-events="none" fill="none" stroke="#888">
                <path d="M116.5 611.5h-5M116.5 551.5h-5M116.5 491.5h-5M116.5 431.5h-5M116.5 371.5h-5M116.5 311.5h-5M116.5 251.5h-5M116.5 191.5h-5M116.5 131.5h-5M116.5 71.5h-5M116.5 11.5h-5"/>
            </g>
            <g class="mark-text role-axis-label" pointer-events="none" text-anchor="end" font-family="sans-serif" font-size="12">
                <text transform="translate(109.5 615.5)">
                    0
                </text>
                <text transform="translate(109.5 555.5)">
                    500,000
                </text>
                <text transform="translate(109.5 495.5)">
                    1,000,000
                </text>
                <text transform="translate(109.5 435.5)">
                    1,500,000
                </text>
                <text transform="translate(109.5 375.5)">
                    2,000,000
                </text>
                <text transform="translate(109.5 315.5)">
                    2,500,000
                </text>
                <text transform="translate(109.5 255.5)">
                    3,000,000
                </text>
                <text transform="translate(109.5 195.5)">
                    3,500,000
                </text>
                <text transform="translate(109.5 135.5)">
                    4,000,000
                </text>
                <text transform="translate(109.5 75.5)">
                    4,500,000
                </text>
                <text transform="translate(109.5 15.5)">
                    5,000,000
                </text>
            </g>
            <path fill="none" stroke="#888" d="M116.5 611.5v-600" pointer-events="none"/>
            <text text-anchor="middle" transform="rotate(-90 164 147.5)" font-family="sans-serif" font-size="14" font-weight="400" pointer-events="none">
                operations / sec
            </text>
        </g>
        <g class="mark-rect role-mark marks" fill="#4c78a8">
            <path d="M119.143 606.028h56.571V611h-56.571zM182 605.557h56.571V611H182zM244.857 511.985h56.572V611h-56.572zM307.714 321.158h56.572V611h-56.572zM370.571 586.236h56.572V611H370.57zM433.429 549.609H490V611h-56.571zM496.286 32.827h56.571V611h-56.571zM559.143 436.485h56.571V611h-56.571zM622 504.353h56.571V611H622zM684.857 511.1h56.572V611h-56.572zM747.714 551.615h56.572V611h-56.572zM810.571 593h56.572v18H810.57zM873.429 608.893H930V611h-56.571zM936.286 602.93h56.571V611h-56.571z"/>
        </g>
    </g>
</svg>
