<svg class="marks" width="1011" height="820" viewBox="0 0 1011 820" version="1.1" xmlns="http://www.w3.org/2000/svg" xmlns:xlink="http://www.w3.org/1999/xlink"><defs><style>.vega-svg-root * { fill: none; } .vega-svg-root tspan { fill: inherit; } .vega-svg-root path { stroke-miterlimit: 10; }</style></defs><rect width="1011" height="820" style="fill: white;"></rect><g class="vega-svg-root" transform="translate(126,11)"><g class="mark-group role-frame root" role="graphics-object" aria-roledescription="group mark container"><g transform="translate(0,0)"><path class="background" aria-hidden="true" d="M0.5,0.5h880v600h-880Z" style="stroke: #ddd;"></path><g><g class="mark-group role-axis" aria-hidden="true"><g transform="translate(0.5,0.5)"><path class="background" aria-hidden="true" d="M0,0h0v0h0Z" style="pointer-events: none;"></path><g><g class="mark-rule role-axis-grid" style="pointer-events: none;"><line transform="translate(0,600)" x2="880" y2="0" style="stroke: #ddd; stroke-width: 1; opacity: 1;"></line><line transform="translate(0,540)" x2="880" y2="0" style="stroke: #ddd; stroke-width: 1; opacity: 1;"></line><line transform="translate(0,480)" x2="880" y2="0" style="stroke: #ddd; stroke-width: 1; opacity: 1;"></line><line transform="translate(0,420)" x2="880" y2="0" style="stroke: #ddd; stroke-width: 1; opacity: 1;"></line><line transform="translate(0,360)" x2="880" y2="0" style="stroke: #ddd; stroke-width: 1; opacity: 1;"></line><line transform="translate(0,300)" x2="880" y2="0" style="stroke: #ddd; stroke-width: 1; opacity: 1;"></line><line transform="translate(0,240)" x2="880" y2="0" style="stroke: #ddd; stroke-width: 1; opacity: 1;"></line><line transform="translate(0,180)" x2="880" y2="0" style="stroke: #ddd; stroke-width: 1; opacity: 1;"></line><line transform="translate(0,120)" x2="880" y2="0" style="stroke: #ddd; stroke-width: 1; opacity: 1;"></line><line transform="translate(0,60)" x2="880" y2="0" style="stroke: #ddd; stroke-width: 1; opacity: 1;"></line><line transform="translate(0,0)" x2="880" y2="0" style="stroke: #ddd; stroke-width: 1; opacity: 1;"></line></g></g><path class="foreground" aria-hidden="true" d="" style="pointer-events: none; display: none;"></path></g></g><g class="mark-group role-axis" role="graphics-symbol" aria-roledescription="axis" aria-label="X-axis titled 'module' for a discrete scale with 16 values: class-transformer-validator-async, class-transformer-validator-sync, computed-types, io-ts, jointz, ending with zod"><g transform="translate(0.5,600.5)"><path class="background" aria-hidden="true" d="M0,0h0v0h0Z" style="pointer-events: none;"></path><g><g class="mark-rule role-axis-tick" style="pointer-events: none;"><line transform="translate(27,0)" x2="0" y2="5" style="stroke: #888; stroke-width: 1; opacity: 1;"></line><line transform="translate(82,0)" x2="0" y2="5" style="stroke: #888; stroke-width: 1; opacity: 1;"></line><line transform="translate(137,0)" x2="0" y2="5" style="stroke: #888; stroke-width: 1; opacity: 1;"></line><line transform="translate(192,0)" x2="0" y2="5" style="stroke: #888; stroke-width: 1; opacity: 1;"></line><line transform="translate(247,0)" x2="0" y2="5" style="stroke: #888; stroke-width: 1; opacity: 1;"></line><line transform="translate(302,0)" x2="0" y2="5" style="stroke: #888; stroke-width: 1; opacity: 1;"></line><line transform="translate(357,0)" x2="0" y2="5" style="stroke: #888; stroke-width: 1; opacity: 1;"></line><line transform="translate(412,0)" x2="0" y2="5" style="stroke: #888; stroke-width: 1; opacity: 1;"></line><line transform="translate(467,0)" x2="0" y2="5" style="stroke: #888; stroke-width: 1; opacity: 1;"></line><line transform="translate(522,0)" x2="0" y2="5" style="stroke: #888; stroke-width: 1; opacity: 1;"></line><line transform="translate(577,0)" x2="0" y2="5" style="stroke: #888; stroke-width: 1; opacity: 1;"></line><line transform="translate(632,0)" x2="0" y2="5" style="stroke: #888; stroke-width: 1; opacity: 1;"></line><line transform="translate(687,0)" x2="0" y2="5" style="stroke: #888; stroke-width: 1; opacity: 1;"></line><line transform="translate(742,0)" x2="0" y2="5" style="stroke: #888; stroke-width: 1; opacity: 1;"></line><line transform="translate(797,0)" x2="0" y2="5" style="stroke: #888; stroke-width: 1; opacity: 1;"></line><line transform="translate(852,0)" x2="0" y2="5" style="stroke: #888; stroke-width: 1; opacity: 1;"></line></g><g class="mark-text role-axis-label" style="pointer-events: none;"><text text-anchor="start" transform="translate(27,7) rotate(90) translate(0,4)" style="font-family: sans-serif; font-size: 14px; fill: #000; opacity: 1;">class-transform…</text><text text-anchor="start" transform="translate(82,7) rotate(90) translate(0,4)" style="font-family: sans-serif; font-size: 14px; fill: #000; opacity: 1;">class-transform…</text><text text-anchor="start" transform="translate(137,7) rotate(90) translate(0,4)" style="font-family: sans-serif; font-size: 14px; fill: #000; opacity: 1;">computed-types</text><text text-anchor="start" transform="translate(192,7) rotate(90) translate(0,4)" style="font-family: sans-serif; font-size: 14px; fill: #000; opacity: 1;">io-ts</text><text text-anchor="start" transform="translate(247,7) rotate(90) translate(0,4)" style="font-family: sans-serif; font-size: 14px; fill: #000; opacity: 1;">jointz</text><text text-anchor="start" transform="translate(302,7) rotate(90) translate(0,4)" style="font-family: sans-serif; font-size: 14px; fill: #000; opacity: 1;">json-decoder</text><text text-anchor="start" transform="translate(357,7) rotate(90) translate(0,4)" style="font-family: sans-serif; font-size: 14px; fill: #000; opacity: 1;">marshal</text><text text-anchor="start" transform="translate(412,7) rotate(90) translate(0,4)" style="font-family: sans-serif; font-size: 14px; fill: #000; opacity: 1;">myzod</text><text text-anchor="start" transform="translate(467,7) rotate(90) translate(0,4)" style="font-family: sans-serif; font-size: 14px; fill: #000; opacity: 1;">purify-ts</text><text text-anchor="start" transform="translate(522,7) rotate(90) translate(0,4)" style="font-family: sans-serif; font-size: 14px; fill: #000; opacity: 1;">quartet</text><text text-anchor="start" transform="translate(577,7) rotate(90) translate(0,4)" style="font-family: sans-serif; font-size: 14px; fill: #000; opacity: 1;">runtypes</text><text text-anchor="start" transform="translate(632,7) rotate(90) translate(0,4)" style="font-family: sans-serif; font-size: 14px; fill: #000; opacity: 1;">toi</text><text text-anchor="start" transform="translate(687,7) rotate(90) translate(0,4)" style="font-family: sans-serif; font-size: 14px; fill: #000; opacity: 1;">ts-json-validat…</text><text text-anchor="start" transform="translate(742,7) rotate(90) translate(0,4)" style="font-family: sans-serif; font-size: 14px; fill: #000; opacity: 1;">ts-utils</text><text text-anchor="start" transform="translate(797,7) rotate(90) translate(0,4)" style="font-family: sans-serif; font-size: 14px; fill: #000; opacity: 1;">yup</text><text text-anchor="start" transform="translate(852,7) rotate(90) translate(0,4)" style="font-family: sans-serif; font-size: 14px; fill: #000; opacity: 1;">zod</text></g><g class="mark-rule role-axis-domain" style="pointer-events: none;"><line transform="translate(0,0)" x2="880" y2="0" style="stroke: #888; stroke-width: 1; opacity: 1;"></line></g><g class="mark-text role-axis-title" style="pointer-events: none;"><text text-anchor="middle" transform="translate(440,201)" style="font-family: sans-serif; font-size: 14px; font-weight: normal; fill: #000; opacity: 1;">module</text></g></g><path class="foreground" aria-hidden="true" d="" style="pointer-events: none; display: none;"></path></g></g><g class="mark-group role-axis" role="graphics-symbol" aria-roledescription="axis" aria-label="Y-axis titled 'operations / sec' for a linear scale with values from 0 to 50,000,000"><g transform="translate(0.5,0.5)"><path class="background" aria-hidden="true" d="M0,0h0v0h0Z" style="pointer-events: none;"></path><g><g class="mark-rule role-axis-tick" style="pointer-events: none;"><line transform="translate(0,600)" x2="-5" y2="0" style="stroke: #888; stroke-width: 1; opacity: 1;"></line><line transform="translate(0,540)" x2="-5" y2="0" style="stroke: #888; stroke-width: 1; opacity: 1;"></line><line transform="translate(0,480)" x2="-5" y2="0" style="stroke: #888; stroke-width: 1; opacity: 1;"></line><line transform="translate(0,420)" x2="-5" y2="0" style="stroke: #888; stroke-width: 1; opacity: 1;"></line><line transform="translate(0,360)" x2="-5" y2="0" style="stroke: #888; stroke-width: 1; opacity: 1;"></line><line transform="translate(0,300)" x2="-5" y2="0" style="stroke: #888; stroke-width: 1; opacity: 1;"></line><line transform="translate(0,240)" x2="-5" y2="0" style="stroke: #888; stroke-width: 1; opacity: 1;"></line><line transform="translate(0,180)" x2="-5" y2="0" style="stroke: #888; stroke-width: 1; opacity: 1;"></line><line transform="translate(0,120)" x2="-5" y2="0" style="stroke: #888; stroke-width: 1; opacity: 1;"></line><line transform="translate(0,60)" x2="-5" y2="0" style="stroke: #888; stroke-width: 1; opacity: 1;"></line><line transform="translate(0,0)" x2="-5" y2="0" style="stroke: #888; stroke-width: 1; opacity: 1;"></line></g><g class="mark-text role-axis-label" style="pointer-events: none;"><text text-anchor="end" transform="translate(-7,604)" style="font-family: sans-serif; font-size: 12px; fill: #000; opacity: 1;">0</text><text text-anchor="end" transform="translate(-7,544)" style="font-family: sans-serif; font-size: 12px; fill: #000; opacity: 1;">5,000,000</text><text text-anchor="end" transform="translate(-7,484)" style="font-family: sans-serif; font-size: 12px; fill: #000; opacity: 1;">10,000,000</text><text text-anchor="end" transform="translate(-7,424)" style="font-family: sans-serif; font-size: 12px; fill: #000; opacity: 1;">15,000,000</text><text text-anchor="end" transform="translate(-7,364)" style="font-family: sans-serif; font-size: 12px; fill: #000; opacity: 1;">20,000,000</text><text text-anchor="end" transform="translate(-7,304)" style="font-family: sans-serif; font-size: 12px; fill: #000; opacity: 1;">25,000,000</text><text text-anchor="end" transform="translate(-7,244)" style="font-family: sans-serif; font-size: 12px; fill: #000; opacity: 1;">30,000,000</text><text text-anchor="end" transform="translate(-7,184.00000000000003)" style="font-family: sans-serif; font-size: 12px; fill: #000; opacity: 1;">35,000,000</text><text text-anchor="end" transform="translate(-7,123.99999999999997)" style="font-family: sans-serif; font-size: 12px; fill: #000; opacity: 1;">40,000,000</text><text text-anchor="end" transform="translate(-7,63.999999999999986)" style="font-family: sans-serif; font-size: 12px; fill: #000; opacity: 1;">45,000,000</text><text text-anchor="end" transform="translate(-7,4)" style="font-family: sans-serif; font-size: 12px; fill: #000; opacity: 1;">50,000,000</text></g><g class="mark-rule role-axis-domain" style="pointer-events: none;"><line transform="translate(0,600)" x2="0" y2="-600" style="stroke: #888; stroke-width: 1; opacity: 1;"></line></g><g class="mark-text role-axis-title" style="pointer-events: none;"><text text-anchor="middle" transform="translate(-107,300) rotate(-90) translate(0,-3)" style="font-family: sans-serif; font-size: 14px; font-weight: normal; fill: #000; opacity: 1;">operations / sec</text></g></g><path class="foreground" aria-hidden="true" d="" style="pointer-events: none; display: none;"></path></g></g><g class="mark-rect role-mark marks" role="graphics-object" aria-roledescription="rect mark container"><path aria-label="operations / sec: 25429; module: class-transformer-validator-async" role="graphics-symbol" aria-roledescription="bar" d="M2.75,599.694852h49.5v0.30514800000003106h-49.5Z" style="fill: #4c78a8;"></path><path aria-label="operations / sec: 29759; module: class-transformer-validator-sync" role="graphics-symbol" aria-roledescription="bar" d="M57.75,599.642892h49.5v0.3571080000000393h-49.5Z" style="fill: #4c78a8;"></path><path aria-label="operations / sec: 604187; module: computed-types" role="graphics-symbol" aria-roledescription="bar" d="M112.75,592.749756h49.5v7.250243999999952h-49.5Z" style="fill: #4c78a8;"></path><path aria-label="operations / sec: 1867573; module: io-ts" role="graphics-symbol" aria-roledescription="bar" d="M167.75,577.589124h49.5v22.41087600000003h-49.5Z" style="fill: #4c78a8;"></path><path aria-label="operations / sec: 830037; module: jointz" role="graphics-symbol" aria-roledescription="bar" d="M222.75,590.039556h49.5v9.960444000000052h-49.5Z" style="fill: #4c78a8;"></path><path aria-label="operations / sec: 670783; module: json-decoder" role="graphics-symbol" aria-roledescription="bar" d="M277.75,591.950604h49.5v8.049396000000002h-49.5Z" style="fill: #4c78a8;"></path><path aria-label="operations / sec: 18671371; module: marshal" role="graphics-symbol" aria-roledescription="bar" d="M332.75,375.94354799999996h49.5v224.05645200000004h-49.5Z" style="fill: #4c78a8;"></path><path aria-label="operations / sec: 1221223; module: myzod" role="graphics-symbol" aria-roledescription="bar" d="M387.75,585.345324h49.5v14.654675999999995h-49.5Z" style="fill: #4c78a8;"></path><path aria-label="operations / sec: 665100; module: purify-ts" role="graphics-symbol" aria-roledescription="bar" d="M442.75,592.0187999999999h49.5v7.981200000000058h-49.5Z" style="fill: #4c78a8;"></path><path aria-label="operations / sec: 47392988; module: quartet" role="graphics-symbol" aria-roledescription="bar" d="M497.75,31.28414399999997h49.5v568.715856h-49.5Z" style="fill: #4c78a8;"></path><path aria-label="operations / sec: 658554; module: runtypes" role="graphics-symbol" aria-roledescription="bar" d="M552.75,592.097352h49.5v7.902647999999999h-49.5Z" style="fill: #4c78a8;"></path><path aria-label="operations / sec: 400813; module: toi" role="graphics-symbol" aria-roledescription="bar" d="M607.75,595.190244h49.5v4.809755999999993h-49.5Z" style="fill: #4c78a8;"></path><path aria-label="operations / sec: 21784397; module: ts-json-validator" role="graphics-symbol" aria-roledescription="bar" d="M662.75,338.587236h49.5v261.412764h-49.5Z" style="fill: #4c78a8;"></path><path aria-label="operations / sec: 124056; module: ts-utils" role="graphics-symbol" aria-roledescription="bar" d="M717.75,598.511328h49.5v1.4886719999999514h-49.5Z" style="fill: #4c78a8;"></path><path aria-label="operations / sec: 11154; module: yup" role="graphics-symbol" aria-roledescription="bar" d="M772.75,599.8661519999999h49.5v0.13384800000005725h-49.5Z" style="fill: #4c78a8;"></path><path aria-label="operations / sec: 50706; module: zod" role="graphics-symbol" aria-roledescription="bar" d="M827.75,599.391528h49.5v0.6084720000000061h-49.5Z" style="fill: #4c78a8;"></path></g></g><path class="foreground" aria-hidden="true" d="" style="display: none;"></path></g></g></g></svg>