<svg xmlns="http://www.w3.org/2000/svg" class="marks" width="1001" height="820">
    <path fill="#fff" d="M0 0h1001v820H0z"/>
    <g class="mark-group role-frame root" aria-roledescription="group mark container" fill="none" stroke-miterlimit="10">
        <path class="background" aria-hidden="true" d="M116.5 11.5h880v600h-880z" stroke="#ddd"/>
        <g class="mark-group role-axis" aria-roledescription="axis" aria-label="Y-axis for a linear scale with values from 0 to 2,000,000">
            <path class="background" aria-hidden="true" d="M116.5 11.5z" pointer-events="none"/>
            <g class="mark-rule role-axis-grid" pointer-events="none" stroke="#ddd">
                <path d="M116.5 611.5h880M116.5 581.5h880M116.5 551.5h880M116.5 521.5h880M116.5 491.5h880M116.5 461.5h880M116.5 431.5h880M116.5 401.5h880M116.5 371.5h880M116.5 341.5h880M116.5 311.5h880M116.5 281.5h880M116.5 251.5h880M116.5 221.5h880M116.5 191.5h880M116.5 161.5h880M116.5 131.5h880M116.5 101.5h880M116.5 71.5h880M116.5 41.5h880M116.5 11.5h880"/>
            </g>
        </g>
        <g class="mark-group role-axis" aria-roledescription="axis" aria-label="X-axis titled 'module' for a discrete scale with 18 values: bueno, class-transformer-validator-async, class-transformer-validator-sync, computed-types, decoders, ending with zod">
            <path class="background" aria-hidden="true" d="M116.5 611.5z" pointer-events="none"/>
            <g class="mark-rule role-axis-tick" pointer-events="none" stroke="#888">
                <path d="M140.5 611.5v5M189.5 611.5v5M238.5 611.5v5M287.5 611.5v5M336.5 611.5v5M384.5 611.5v5M433.5 611.5v5M482.5 611.5v5M531.5 611.5v5M580.5 611.5v5M629.5 611.5v5M678.5 611.5v5M727.5 611.5v5M776.5 611.5v5M824.5 611.5v5M873.5 611.5v5M922.5 611.5v5M971.5 611.5v5"/>
            </g>
            <g class="mark-text role-axis-label" pointer-events="none" font-family="sans-serif" font-size="14" fill="#000">
                <text transform="rotate(90 -241.028 377.472)">bueno</text>
                <text transform="rotate(90 -216.583 401.917)">class-transform…</text>
                <text transform="rotate(90 -192.139 426.361)">class-transform…</text>
                <text transform="rotate(90 -167.694 450.806)">computed-types</text>
                <text transform="rotate(90 -143.25 475.25)">decoders</text>
                <text transform="rotate(90 -118.806 499.694)">io-ts</text>
                <text transform="rotate(90 -94.361 524.139)">jointz</text>
                <text transform="rotate(90 -69.917 548.583)">json-decoder</text>
                <text transform="rotate(90 -45.472 573.028)">myzod</text>
                <text transform="rotate(90 -21.028 597.472)">purify-ts</text>
                <text transform="rotate(90 3.417 621.917)">rulr</text>
                <text transform="rotate(90 27.861 646.361)">runtypes</text>
                <text transform="rotate(90 52.306 670.806)">simple-runtypes</text>
                <text transform="rotate(90 76.75 695.25)">superstruct</text>
                <text transform="rotate(90 101.194 719.694)">toi</text>
                <text transform="rotate(90 125.639 744.139)">ts-utils</text>
                <text transform="rotate(90 150.083 768.583)">yup</text>
                <text transform="rotate(90 174.528 793.028)">zod</text>
            </g>
            <path stroke="#888" d="M116.5 611.5h880" pointer-events="none"/>
            <text text-anchor="middle" transform="translate(556.5 812.5)" font-family="sans-serif" font-size="14" fill="#000" pointer-events="none">module</text>
        </g>
        <g class="mark-group role-axis" aria-roledescription="axis" aria-label="Y-axis titled 'operations / sec' for a linear scale with values from 0 to 2,000,000">
            <path class="background" aria-hidden="true" d="M116.5 11.5z" pointer-events="none"/>
            <g class="mark-rule role-axis-tick" pointer-events="none" stroke="#888">
                <path d="M116.5 611.5h-5M116.5 581.5h-5M116.5 551.5h-5M116.5 521.5h-5M116.5 491.5h-5M116.5 461.5h-5M116.5 431.5h-5M116.5 401.5h-5M116.5 371.5h-5M116.5 341.5h-5M116.5 311.5h-5M116.5 281.5h-5M116.5 251.5h-5M116.5 221.5h-5M116.5 191.5h-5M116.5 161.5h-5M116.5 131.5h-5M116.5 101.5h-5M116.5 71.5h-5M116.5 41.5h-5M116.5 11.5h-5"/>
            </g>
            <g class="mark-text role-axis-label" pointer-events="none" text-anchor="end" font-family="sans-serif" font-size="12" fill="#000">
                <text transform="translate(109.5 615.5)">0</text>
                <text transform="translate(109.5 585.5)">100,000</text>
                <text transform="translate(109.5 555.5)">200,000</text>
                <text transform="translate(109.5 525.5)">300,000</text>
                <text transform="translate(109.5 495.5)">400,000</text>
                <text transform="translate(109.5 465.5)">500,000</text>
                <text transform="translate(109.5 435.5)">600,000</text>
                <text transform="translate(109.5 405.5)">700,000</text>
                <text transform="translate(109.5 375.5)">800,000</text>
                <text transform="translate(109.5 345.5)">900,000</text>
                <text transform="translate(109.5 315.5)">1,000,000</text>
                <text transform="translate(109.5 285.5)">1,100,000</text>
                <text transform="translate(109.5 255.5)">1,200,000</text>
                <text transform="translate(109.5 225.5)">1,300,000</text>
                <text transform="translate(109.5 195.5)">1,400,000</text>
                <text transform="translate(109.5 165.5)">1,500,000</text>
                <text transform="translate(109.5 135.5)">1,600,000</text>
                <text transform="translate(109.5 105.5)">1,700,000</text>
                <text transform="translate(109.5 75.5)">1,800,000</text>
                <text transform="translate(109.5 45.5)">1,900,000</text>
                <text transform="translate(109.5 15.5)">2,000,000</text>
            </g>
            <path stroke="#888" d="M116.5 611.5v-600" pointer-events="none"/>
            <text text-anchor="middle" transform="rotate(-90 164 147.5)" font-family="sans-serif" font-size="14" fill="#000" pointer-events="none">operations / sec</text>
        </g>
        <g class="mark-rect role-mark marks" aria-roledescription="rect mark container" fill="#4c78a8">
            <path d="M118.444 559.465h44V611h-44zM167.333 597.252h44V611h-44zM216.222 596.1h44V611h-44zM265.111 384.355h44V611h-44zM314 540.297h44V611h-44zM362.889 228.453h44V611h-44zM411.778 124.994h44V611h-44zM460.667 360.658h44V611h-44zM509.556 163.647h44V611h-44zM558.444 364.768h44V611h-44zM607.333 362.857h44V611h-44zM656.222 313.487h44V611h-44zM705.111 50.173h44V611h-44zM754 590.255h44V611h-44zM802.889 439.23h44V611h-44zM851.778 565.425h44V611h-44zM900.667 606.22h44V611h-44zM949.556 608.34h44V611h-44z"/>
        </g>
    </g>
</svg>
