<svg class="marks" width="1011" height="814" xmlns="http://www.w3.org/2000/svg">
    <path fill="#fff" d="M0 0h1011v814H0z"/>
    <g class="mark-group role-frame root" aria-roledescription="group mark container" fill="none" stroke-miterlimit="10">
        <path class="background" aria-hidden="true" d="M126.5 5.5h880v600h-880z" stroke="#ddd"/>
        <g class="mark-group role-axis" aria-hidden="true">
            <path class="background" aria-hidden="true" d="M126.5 5.5z" pointer-events="none"/>
            <g class="mark-rule role-axis-grid" pointer-events="none" stroke="#ddd">
                <path d="M126.5 605.5h880M126.5 571.5h880M126.5 536.5h880M126.5 502.5h880M126.5 468.5h880M126.5 434.5h880M126.5 399.5h880M126.5 365.5h880M126.5 331.5h880M126.5 296.5h880M126.5 262.5h880M126.5 228.5h880M126.5 194.5h880M126.5 159.5h880M126.5 125.5h880M126.5 91.5h880M126.5 56.5h880M126.5 22.5h880"/>
            </g>
        </g>
        <g class="mark-group role-axis" aria-roledescription="axis" aria-label="X-axis titled 'module' for a discrete scale with 17 values: class-transformer-validator-async, class-transformer-validator-sync, computed-types, io-ts, jointz, ending with zod">
            <path class="background" aria-hidden="true" d="M126.5 605.5z" pointer-events="none"/>
            <g class="mark-rule role-axis-tick" pointer-events="none" stroke="#888">
                <path d="M151.5 605.5v5M203.5 605.5v5M255.5 605.5v5M307.5 605.5v5M358.5 605.5v5M410.5 605.5v5M462.5 605.5v5M514.5 605.5v5M566.5 605.5v5M617.5 605.5v5M669.5 605.5v5M721.5 605.5v5M773.5 605.5v5M824.5 605.5v5M876.5 605.5v5M928.5 605.5v5M980.5 605.5v5"/>
            </g>
            <g class="mark-text role-axis-label" pointer-events="none" font-family="sans-serif" font-size="14" fill="#000">
                <text transform="rotate(90 -232.309 380.191)">
                    class-transform…
                </text>
                <text transform="rotate(90 -206.426 406.074)">
                    class-transform…
                </text>
                <text transform="rotate(90 -180.544 431.956)">
                    computed-types
                </text>
                <text transform="rotate(90 -154.662 457.838)">
                    io-ts
                </text>
                <text transform="rotate(90 -128.78 483.72)">
                    jointz
                </text>
                <text transform="rotate(90 -102.897 509.603)">
                    json-decoder
                </text>
                <text transform="rotate(90 -77.015 535.485)">
                    marshal
                </text>
                <text transform="rotate(90 -51.132 561.368)">
                    myzod
                </text>
                <text transform="rotate(90 -25.25 587.25)">
                    purify-ts
                </text>
                <text transform="rotate(90 .632 613.132)">
                    quartet
                </text>
                <text transform="rotate(90 26.515 639.015)">
                    rulr
                </text>
                <text transform="rotate(90 52.397 664.897)">
                    runtypes
                </text>
                <text transform="rotate(90 78.28 690.78)">
                    toi
                </text>
                <text transform="rotate(90 104.162 716.662)">
                    ts-json-validat…
                </text>
                <text transform="rotate(90 130.044 742.544)">
                    ts-utils
                </text>
                <text transform="rotate(90 155.926 768.426)">
                    yup
                </text>
                <text transform="rotate(90 181.809 794.309)">
                    zod
                </text>
            </g>
            <path stroke="#888" d="M126.5 605.5h880" pointer-events="none"/>
            <text text-anchor="middle" transform="translate(566.5 806.5)" font-family="sans-serif" font-size="14" fill="#000" pointer-events="none">
                module
            </text>
        </g>
        <g class="mark-group role-axis" aria-roledescription="axis" aria-label="Y-axis titled 'operations / sec' for a linear scale with values from 0 to 35,000,000">
            <path class="background" aria-hidden="true" d="M126.5 5.5z" pointer-events="none"/>
            <g class="mark-rule role-axis-tick" pointer-events="none" stroke="#888">
                <path d="M126.5 605.5h-5M126.5 571.5h-5M126.5 536.5h-5M126.5 502.5h-5M126.5 468.5h-5M126.5 434.5h-5M126.5 399.5h-5M126.5 365.5h-5M126.5 331.5h-5M126.5 296.5h-5M126.5 262.5h-5M126.5 228.5h-5M126.5 194.5h-5M126.5 159.5h-5M126.5 125.5h-5M126.5 91.5h-5M126.5 56.5h-5M126.5 22.5h-5"/>
            </g>
            <g class="mark-text role-axis-label" pointer-events="none" text-anchor="end" font-family="sans-serif" font-size="12" fill="#000">
                <text transform="translate(119.5 609.5)">
                    0
                </text>
                <text transform="translate(119.5 575.214)">
                    2,000,000
                </text>
                <text transform="translate(119.5 540.929)">
                    4,000,000
                </text>
                <text transform="translate(119.5 506.643)">
                    6,000,000
                </text>
                <text transform="translate(119.5 472.357)">
                    8,000,000
                </text>
                <text transform="translate(119.5 438.071)">
                    10,000,000
                </text>
                <text transform="translate(119.5 403.786)">
                    12,000,000
                </text>
                <text transform="translate(119.5 369.5)">
                    14,000,000
                </text>
                <text transform="translate(119.5 335.214)">
                    16,000,000
                </text>
                <text transform="translate(119.5 300.929)">
                    18,000,000
                </text>
                <text transform="translate(119.5 266.643)">
                    20,000,000
                </text>
                <text transform="translate(119.5 232.357)">
                    22,000,000
                </text>
                <text transform="translate(119.5 198.071)">
                    24,000,000
                </text>
                <text transform="translate(119.5 163.786)">
                    26,000,000
                </text>
                <text transform="translate(119.5 129.5)">
                    28,000,000
                </text>
                <text transform="translate(119.5 95.214)">
                    30,000,000
                </text>
                <text transform="translate(119.5 60.929)">
                    32,000,000
                </text>
                <text transform="translate(119.5 26.643)">
                    34,000,000
                </text>
            </g>
            <path stroke="#888" d="M126.5 605.5V5.5" pointer-events="none"/>
            <text text-anchor="middle" transform="rotate(-90 161 144.5)" font-family="sans-serif" font-size="14" fill="#000" pointer-events="none">
                operations / sec
            </text>
        </g>
        <g class="mark-rect role-mark marks" aria-roledescription="rect mark container" fill="#4c78a8">
            <path aria-label="operations / sec: 36991; module: class-transformer-validator-async" aria-roledescription="bar" d="M128.588 604.366h46.588V605h-46.588z"/>
            <path aria-label="operations / sec: 45614; module: class-transformer-validator-sync" aria-roledescription="bar" d="M180.353 604.218h46.588V605h-46.588z"/>
            <path aria-label="operations / sec: 729520; module: computed-types" aria-roledescription="bar" d="M232.118 592.494h46.588V605h-46.588z"/>
            <path aria-label="operations / sec: 2788319; module: io-ts" aria-roledescription="bar" d="M283.882 557.2h46.589V605h-46.589z"/>
            <path aria-label="operations / sec: 1580886; module: jointz" aria-roledescription="bar" d="M335.647 577.9h46.588V605h-46.588z"/>
            <path aria-label="operations / sec: 824554; module: json-decoder" aria-roledescription="bar" d="M387.412 590.865H434V605h-46.588z"/>
            <path aria-label="operations / sec: 14189892; module: marshal" aria-roledescription="bar" d="M439.176 361.745h46.589V605h-46.589z"/>
            <path aria-label="operations / sec: 1378113; module: myzod" aria-roledescription="bar" d="M490.941 581.375h46.588V605h-46.588z"/>
            <path aria-label="operations / sec: 821886; module: purify-ts" aria-roledescription="bar" d="M542.706 590.91h46.588V605h-46.588z"/>
            <path aria-label="operations / sec: 32321261; module: quartet" aria-roledescription="bar" d="M594.47 50.921h46.589V605H594.47z"/>
            <path aria-label="operations / sec: 772259; module: rulr" aria-roledescription="bar" d="M646.235 591.761h46.589V605h-46.589z"/>
            <path aria-label="operations / sec: 801606; module: runtypes" aria-roledescription="bar" d="M698 591.258h46.588V605H698z"/>
            <path aria-label="operations / sec: 460050; module: toi" aria-roledescription="bar" d="M749.765 597.113h46.588V605h-46.588z"/>
            <path aria-label="operations / sec: 21211749; module: ts-json-validator" aria-roledescription="bar" d="M801.53 241.37h46.588V605h-46.589z"/>
            <path aria-label="operations / sec: 140627; module: ts-utils" aria-roledescription="bar" d="M853.294 602.59h46.588V605h-46.588z"/>
            <path aria-label="operations / sec: 15449; module: yup" aria-roledescription="bar" d="M905.059 604.735h46.588V605H905.06z"/>
            <path aria-label="operations / sec: 54062; module: zod" aria-roledescription="bar" d="M956.824 604.073h46.588V605h-46.588z"/>
        </g>
    </g>
</svg>
