<svg class="marks" width="1001" height="814" xmlns="http://www.w3.org/2000/svg">
    <path fill="#fff" d="M0 0h1001v814H0z"/>
    <g class="mark-group role-frame root">
        <path class="background" d="M116.5 5.5h880v600h-880z" fill="none" stroke="#ddd"/>
        <g class="mark-group role-axis">
            <path class="background" d="M116.5 5.5z" pointer-events="none" fill="none"/>
            <g class="mark-rule role-axis-grid" pointer-events="none" fill="none" stroke="#ddd">
                <path d="M116.5 605.5h880M116.5 571.5h880M116.5 536.5h880M116.5 502.5h880M116.5 468.5h880M116.5 434.5h880M116.5 399.5h880M116.5 365.5h880M116.5 331.5h880M116.5 296.5h880M116.5 262.5h880M116.5 228.5h880M116.5 194.5h880M116.5 159.5h880M116.5 125.5h880M116.5 91.5h880M116.5 56.5h880M116.5 22.5h880"/>
            </g>
        </g>
        <g class="mark-group role-axis">
            <path class="background" d="M116.5 605.5z" pointer-events="none" fill="none"/>
            <g class="mark-rule role-axis-tick" pointer-events="none" fill="none" stroke="#888">
                <path d="M152.5 605.5v5M226.5 605.5v5M299.5 605.5v5M372.5 605.5v5M446.5 605.5v5M519.5 605.5v5M592.5 605.5v5M666.5 605.5v5M739.5 605.5v5M812.5 605.5v5M886.5 605.5v5M959.5 605.5v5"/>
            </g>
            <g class="mark-text role-axis-label" pointer-events="none" font-family="sans-serif" font-size="14">
                <text transform="rotate(90 -231.917 380.583)">
                    class-transform…
                </text>
                <text transform="rotate(90 -195.25 417.25)">
                    class-transform…
                </text>
                <text transform="rotate(90 -158.583 453.917)">
                    funval
                </text>
                <text transform="rotate(90 -121.917 490.583)">
                    io-ts
                </text>
                <text transform="rotate(90 -85.25 527.25)">
                    json-decoder
                </text>
                <text transform="rotate(90 -48.583 563.917)">
                    marshal
                </text>
                <text transform="rotate(90 -11.917 600.583)">
                    myzod
                </text>
                <text transform="rotate(90 24.75 637.25)">
                    purify-ts
                </text>
                <text transform="rotate(90 61.417 673.917)">
                    runtypes
                </text>
                <text transform="rotate(90 98.083 710.583)">
                    toi
                </text>
                <text transform="rotate(90 134.75 747.25)">
                    ts-utils
                </text>
                <text transform="rotate(90 171.417 783.917)">
                    zod
                </text>
            </g>
            <path fill="none" stroke="#888" d="M116.5 605.5h880" pointer-events="none"/>
            <text text-anchor="middle" transform="translate(556.5 806.5)" font-family="sans-serif" font-size="14" font-weight="400" pointer-events="none">
                module
            </text>
        </g>
        <g class="mark-group role-axis">
            <path class="background" d="M116.5 5.5z" pointer-events="none" fill="none"/>
            <g class="mark-rule role-axis-tick" pointer-events="none" fill="none" stroke="#888">
                <path d="M116.5 605.5h-5M116.5 571.5h-5M116.5 536.5h-5M116.5 502.5h-5M116.5 468.5h-5M116.5 434.5h-5M116.5 399.5h-5M116.5 365.5h-5M116.5 331.5h-5M116.5 296.5h-5M116.5 262.5h-5M116.5 228.5h-5M116.5 194.5h-5M116.5 159.5h-5M116.5 125.5h-5M116.5 91.5h-5M116.5 56.5h-5M116.5 22.5h-5"/>
            </g>
            <g class="mark-text role-axis-label" pointer-events="none" text-anchor="end" font-family="sans-serif" font-size="12">
                <text transform="translate(109.5 609.5)">
                    0
                </text>
                <text transform="translate(109.5 575.214)">
                    200,000
                </text>
                <text transform="translate(109.5 540.929)">
                    400,000
                </text>
                <text transform="translate(109.5 506.643)">
                    600,000
                </text>
                <text transform="translate(109.5 472.357)">
                    800,000
                </text>
                <text transform="translate(109.5 438.071)">
                    1,000,000
                </text>
                <text transform="translate(109.5 403.786)">
                    1,200,000
                </text>
                <text transform="translate(109.5 369.5)">
                    1,400,000
                </text>
                <text transform="translate(109.5 335.214)">
                    1,600,000
                </text>
                <text transform="translate(109.5 300.929)">
                    1,800,000
                </text>
                <text transform="translate(109.5 266.643)">
                    2,000,000
                </text>
                <text transform="translate(109.5 232.357)">
                    2,200,000
                </text>
                <text transform="translate(109.5 198.071)">
                    2,400,000
                </text>
                <text transform="translate(109.5 163.786)">
                    2,600,000
                </text>
                <text transform="translate(109.5 129.5)">
                    2,800,000
                </text>
                <text transform="translate(109.5 95.214)">
                    3,000,000
                </text>
                <text transform="translate(109.5 60.929)">
                    3,200,000
                </text>
                <text transform="translate(109.5 26.643)">
                    3,400,000
                </text>
            </g>
            <path fill="none" stroke="#888" d="M116.5 605.5V5.5" pointer-events="none"/>
            <text text-anchor="middle" transform="rotate(-90 161 144.5)" font-family="sans-serif" font-size="14" font-weight="400" pointer-events="none">
                operations / sec
            </text>
        </g>
        <g class="mark-rect role-mark marks" fill="#4c78a8">
            <path d="M119.667 600.754h66V605h-66zM193 599.78h66V605h-66zM266.333 477.88h66V605h-66zM339.667 222.045h66V605h-66zM413 490.362h66V605h-66zM486.333 27.086h66V605h-66zM559.667 412.927h66V605h-66zM633 482.089h66V605h-66zM706.333 485.123h66V605h-66zM779.667 539.392h66V605h-66zM853 583.844h66V605h-66zM926.333 596.483h66V605h-66z"/>
        </g>
    </g>
</svg>
