<svg class="marks" width="1001" height="820" xmlns="http://www.w3.org/2000/svg">
    <path fill="#fff" d="M0 0h1001v820H0z"/>
    <g class="mark-group role-frame root">
        <path class="background" d="M116.5 11.5h880v600h-880z" fill="none" stroke="#ddd"/>
        <g class="mark-group role-axis">
            <path class="background" d="M116.5 11.5z" pointer-events="none" fill="none"/>
            <g class="mark-rule role-axis-grid" pointer-events="none" fill="none" stroke="#ddd">
                <path d="M116.5 611.5h880M116.5 581.5h880M116.5 551.5h880M116.5 521.5h880M116.5 491.5h880M116.5 461.5h880M116.5 431.5h880M116.5 401.5h880M116.5 371.5h880M116.5 341.5h880M116.5 311.5h880M116.5 281.5h880M116.5 251.5h880M116.5 221.5h880M116.5 191.5h880M116.5 161.5h880M116.5 131.5h880M116.5 101.5h880M116.5 71.5h880M116.5 41.5h880M116.5 11.5h880"/>
            </g>
        </g>
        <g class="mark-group role-axis">
            <path class="background" d="M116.5 611.5z" pointer-events="none" fill="none"/>
            <g class="mark-rule role-axis-tick" pointer-events="none" fill="none" stroke="#888">
                <path d="M152.5 611.5v5M226.5 611.5v5M299.5 611.5v5M372.5 611.5v5M446.5 611.5v5M519.5 611.5v5M592.5 611.5v5M666.5 611.5v5M739.5 611.5v5M812.5 611.5v5M886.5 611.5v5M959.5 611.5v5"/>
            </g>
            <g class="mark-text role-axis-label" pointer-events="none" font-family="sans-serif" font-size="14">
                <text transform="rotate(90 -234.917 383.583)">
                    class-transform…
                </text>
                <text transform="rotate(90 -198.25 420.25)">
                    class-transform…
                </text>
                <text transform="rotate(90 -161.583 456.917)">
                    funval
                </text>
                <text transform="rotate(90 -124.917 493.583)">
                    io-ts
                </text>
                <text transform="rotate(90 -88.25 530.25)">
                    json-decoder
                </text>
                <text transform="rotate(90 -51.583 566.917)">
                    marshal
                </text>
                <text transform="rotate(90 -14.917 603.583)">
                    myzod
                </text>
                <text transform="rotate(90 21.75 640.25)">
                    purify-ts
                </text>
                <text transform="rotate(90 58.417 676.917)">
                    runtypes
                </text>
                <text transform="rotate(90 95.083 713.583)">
                    toi
                </text>
                <text transform="rotate(90 131.75 750.25)">
                    ts-utils
                </text>
                <text transform="rotate(90 168.417 786.917)">
                    zod
                </text>
            </g>
            <path fill="none" stroke="#888" d="M116.5 611.5h880" pointer-events="none"/>
            <text text-anchor="middle" transform="translate(556.5 812.5)" font-family="sans-serif" font-size="14" font-weight="400" pointer-events="none">
                module
            </text>
        </g>
        <g class="mark-group role-axis">
            <path class="background" d="M116.5 11.5z" pointer-events="none" fill="none"/>
            <g class="mark-rule role-axis-tick" pointer-events="none" fill="none" stroke="#888">
                <path d="M116.5 611.5h-5M116.5 581.5h-5M116.5 551.5h-5M116.5 521.5h-5M116.5 491.5h-5M116.5 461.5h-5M116.5 431.5h-5M116.5 401.5h-5M116.5 371.5h-5M116.5 341.5h-5M116.5 311.5h-5M116.5 281.5h-5M116.5 251.5h-5M116.5 221.5h-5M116.5 191.5h-5M116.5 161.5h-5M116.5 131.5h-5M116.5 101.5h-5M116.5 71.5h-5M116.5 41.5h-5M116.5 11.5h-5"/>
            </g>
            <g class="mark-text role-axis-label" pointer-events="none" text-anchor="end" font-family="sans-serif" font-size="12">
                <text transform="translate(109.5 615.5)">
                    0
                </text>
                <text transform="translate(109.5 585.5)">
                    200,000
                </text>
                <text transform="translate(109.5 555.5)">
                    400,000
                </text>
                <text transform="translate(109.5 525.5)">
                    600,000
                </text>
                <text transform="translate(109.5 495.5)">
                    800,000
                </text>
                <text transform="translate(109.5 465.5)">
                    1,000,000
                </text>
                <text transform="translate(109.5 435.5)">
                    1,200,000
                </text>
                <text transform="translate(109.5 405.5)">
                    1,400,000
                </text>
                <text transform="translate(109.5 375.5)">
                    1,600,000
                </text>
                <text transform="translate(109.5 345.5)">
                    1,800,000
                </text>
                <text transform="translate(109.5 315.5)">
                    2,000,000
                </text>
                <text transform="translate(109.5 285.5)">
                    2,200,000
                </text>
                <text transform="translate(109.5 255.5)">
                    2,400,000
                </text>
                <text transform="translate(109.5 225.5)">
                    2,600,000
                </text>
                <text transform="translate(109.5 195.5)">
                    2,800,000
                </text>
                <text transform="translate(109.5 165.5)">
                    3,000,000
                </text>
                <text transform="translate(109.5 135.5)">
                    3,200,000
                </text>
                <text transform="translate(109.5 105.5)">
                    3,400,000
                </text>
                <text transform="translate(109.5 75.5)">
                    3,600,000
                </text>
                <text transform="translate(109.5 45.5)">
                    3,800,000
                </text>
                <text transform="translate(109.5 15.5)">
                    4,000,000
                </text>
            </g>
            <path fill="none" stroke="#888" d="M116.5 611.5v-600" pointer-events="none"/>
            <text text-anchor="middle" transform="rotate(-90 164 147.5)" font-family="sans-serif" font-size="14" font-weight="400" pointer-events="none">
                operations / sec
            </text>
        </g>
        <g class="mark-rect role-mark marks" fill="#4c78a8">
            <path d="M119.667 604.824h66V611h-66zM193 604.214h66V611h-66zM266.333 495.177h66V611h-66zM339.667 200.496h66V611h-66zM413 497.275h66V611h-66zM486.333 65.01h66V611h-66zM559.667 531.654h66V611h-66zM633 493.477h66V611h-66zM706.333 502.219h66V611h-66zM779.667 551.372h66V611h-66zM853 596.439h66V611h-66zM926.333 602.95h66V611h-66z"/>
        </g>
    </g>
</svg>
