<svg xmlns="http://www.w3.org/2000/svg" class="marks" width="1001" height="820">
    <path fill="#fff" d="M0 0h1001v820H0z"/>
    <g class="mark-group role-frame root" aria-roledescription="group mark container" fill="none" stroke-miterlimit="10">
        <path class="background" aria-hidden="true" d="M116.5 11.5h880v600h-880z" stroke="#ddd"/>
        <g class="mark-group role-axis" aria-roledescription="axis" aria-label="Y-axis for a linear scale with values from 0 to 2,800,000">
            <path class="background" aria-hidden="true" d="M116.5 11.5z" pointer-events="none"/>
            <g class="mark-rule role-axis-grid" pointer-events="none" stroke="#ddd">
                <path d="M116.5 611.5h880M116.5 568.5h880M116.5 525.5h880M116.5 482.5h880M116.5 440.5h880M116.5 397.5h880M116.5 354.5h880M116.5 311.5h880M116.5 268.5h880M116.5 225.5h880M116.5 182.5h880M116.5 140.5h880M116.5 97.5h880M116.5 54.5h880M116.5 11.5h880"/>
            </g>
        </g>
        <g class="mark-group role-axis" aria-roledescription="axis" aria-label="X-axis titled 'module' for a discrete scale with 20 values: @typeofweb/schema, bueno, class-transformer-validator-async, class-transformer-validator-sync, computed-types, ending with zod">
            <path class="background" aria-hidden="true" d="M116.5 611.5z" pointer-events="none"/>
            <g class="mark-rule role-axis-tick" pointer-events="none" stroke="#888">
                <path d="M138.5 611.5v5M182.5 611.5v5M226.5 611.5v5M270.5 611.5v5M314.5 611.5v5M358.5 611.5v5M402.5 611.5v5M446.5 611.5v5M490.5 611.5v5M534.5 611.5v5M578.5 611.5v5M622.5 611.5v5M666.5 611.5v5M710.5 611.5v5M754.5 611.5v5M798.5 611.5v5M842.5 611.5v5M886.5 611.5v5M930.5 611.5v5M974.5 611.5v5"/>
            </g>
            <g class="mark-text role-axis-label" pointer-events="none" font-family="sans-serif" font-size="14" fill="#000">
                <text transform="rotate(90 -242.25 376.25)">@typeofweb/sche…</text>
                <text transform="rotate(90 -220.25 398.25)">bueno</text>
                <text transform="rotate(90 -198.25 420.25)">class-transform…</text>
                <text transform="rotate(90 -176.25 442.25)">class-transform…</text>
                <text transform="rotate(90 -154.25 464.25)">computed-types</text>
                <text transform="rotate(90 -132.25 486.25)">decoders</text>
                <text transform="rotate(90 -110.25 508.25)">io-ts</text>
                <text transform="rotate(90 -88.25 530.25)">jointz</text>
                <text transform="rotate(90 -66.25 552.25)">json-decoder</text>
                <text transform="rotate(90 -44.25 574.25)">myzod</text>
                <text transform="rotate(90 -22.25 596.25)">purify-ts</text>
                <text transform="rotate(90 -.25 618.25)">rulr</text>
                <text transform="rotate(90 21.75 640.25)">runtypes</text>
                <text transform="rotate(90 43.75 662.25)">simple-runtypes</text>
                <text transform="rotate(90 65.75 684.25)">superstruct</text>
                <text transform="rotate(90 87.75 706.25)">toi</text>
                <text transform="rotate(90 109.75 728.25)">ts-utils</text>
                <text transform="rotate(90 131.75 750.25)">valita</text>
                <text transform="rotate(90 153.75 772.25)">yup</text>
                <text transform="rotate(90 175.75 794.25)">zod</text>
            </g>
            <path stroke="#888" d="M116.5 611.5h880" pointer-events="none"/>
            <text text-anchor="middle" transform="translate(556.5 812.5)" font-family="sans-serif" font-size="14" fill="#000" pointer-events="none">module</text>
        </g>
        <g class="mark-group role-axis" aria-roledescription="axis" aria-label="Y-axis titled 'operations / sec' for a linear scale with values from 0 to 2,800,000">
            <path class="background" aria-hidden="true" d="M116.5 11.5z" pointer-events="none"/>
            <g class="mark-rule role-axis-tick" pointer-events="none" stroke="#888">
                <path d="M116.5 611.5h-5M116.5 568.5h-5M116.5 525.5h-5M116.5 482.5h-5M116.5 440.5h-5M116.5 397.5h-5M116.5 354.5h-5M116.5 311.5h-5M116.5 268.5h-5M116.5 225.5h-5M116.5 182.5h-5M116.5 140.5h-5M116.5 97.5h-5M116.5 54.5h-5M116.5 11.5h-5"/>
            </g>
            <g class="mark-text role-axis-label" pointer-events="none" text-anchor="end" font-family="sans-serif" font-size="12" fill="#000">
                <text transform="translate(109.5 615.5)">0</text>
                <text transform="translate(109.5 572.643)">200,000</text>
                <text transform="translate(109.5 529.786)">400,000</text>
                <text transform="translate(109.5 486.929)">600,000</text>
                <text transform="translate(109.5 444.071)">800,000</text>
                <text transform="translate(109.5 401.214)">1,000,000</text>
                <text transform="translate(109.5 358.357)">1,200,000</text>
                <text transform="translate(109.5 315.5)">1,400,000</text>
                <text transform="translate(109.5 272.643)">1,600,000</text>
                <text transform="translate(109.5 229.786)">1,800,000</text>
                <text transform="translate(109.5 186.929)">2,000,000</text>
                <text transform="translate(109.5 144.071)">2,200,000</text>
                <text transform="translate(109.5 101.214)">2,400,000</text>
                <text transform="translate(109.5 58.357)">2,600,000</text>
                <text transform="translate(109.5 15.5)">2,800,000</text>
            </g>
            <path stroke="#888" d="M116.5 611.5v-600" pointer-events="none"/>
            <text text-anchor="middle" transform="rotate(-90 164 147.5)" font-family="sans-serif" font-size="14" fill="#000" pointer-events="none">operations / sec</text>
        </g>
        <g class="mark-rect role-mark marks" aria-roledescription="rect mark container" fill="#4c78a8">
            <path d="M162.2 579.264h39.6V611h-39.6zM206.2 603.843h39.6V611h-39.6zM250.2 602.843h39.6V611h-39.6zM294.2 475.304h39.6V611h-39.6zM338.2 570.616h39.6V611h-39.6zM382.2 388.471h39.6V611h-39.6zM426.2 336.788h39.6V611h-39.6zM470.2 458.711h39.6V611h-39.6zM514.2 368.87h39.6V611h-39.6zM558.2 462.893h39.6V611h-39.6zM602.2 468.428h39.6V611h-39.6zM646.2 467.709h39.6V611h-39.6zM690.2 282.803h39.6V611h-39.6zM734.2 598.624h39.6V611h-39.6zM778.2 523.433h39.6V611h-39.6zM822.2 583.418h39.6V611h-39.6zM118.2 447.497h39.6V611h-39.6zM866.2 25.45h39.6V611h-39.6zM910.2 608.204h39.6V611h-39.6zM954.2 609.701h39.6V611h-39.6z"/>
        </g>
    </g>
</svg>
