<svg xmlns="http://www.w3.org/2000/svg" class="marks" width="1011" height="820">
    <path fill="#fff" d="M0 0h1011v820H0z"/>
    <g class="mark-group role-frame root" aria-roledescription="group mark container" fill="none" stroke-miterlimit="10">
        <path class="background" aria-hidden="true" d="M126.5 11.5h880v600h-880Z" stroke="#ddd"/>
        <g class="mark-group role-axis" aria-roledescription="axis" aria-label="Y-axis for a linear scale with values from 0 to 10,000,000">
            <path class="background" aria-hidden="true" d="M126.5 11.5Z" pointer-events="none"/>
            <g class="mark-rule role-axis-grid" pointer-events="none" stroke="#ddd">
                <path d="M126.5 611.5h880M126.5 581.5h880M126.5 551.5h880M126.5 521.5h880M126.5 491.5h880M126.5 461.5h880M126.5 431.5h880M126.5 401.5h880M126.5 371.5h880M126.5 341.5h880M126.5 311.5h880M126.5 281.5h880M126.5 251.5h880M126.5 221.5h880M126.5 191.5h880M126.5 161.5h880M126.5 131.5h880M126.5 101.5h880M126.5 71.5h880M126.5 41.5h880M126.5 11.5h880"/>
            </g>
        </g>
        <g pointer-events="none" class="mark-group role-axis" aria-roledescription="axis" aria-label="X-axis titled 'module' for a discrete scale with 23 values: @mojotech/json-type-validation, @typeofweb/schema, ajv, bueno, class-transformer-validator-async, ending with zod">
            <path class="background" aria-hidden="true" d="M126.5 611.5Z"/>
            <g class="mark-rule role-axis-tick" stroke="#888">
                <path d="M145.5 611.5v5M183.5 611.5v5M221.5 611.5v5M259.5 611.5v5M298.5 611.5v5M336.5 611.5v5M374.5 611.5v5M412.5 611.5v5M451.5 611.5v5M489.5 611.5v5M527.5 611.5v5M566.5 611.5v5M604.5 611.5v5M642.5 611.5v5M680.5 611.5v5M719.5 611.5v5M757.5 611.5v5M795.5 611.5v5M833.5 611.5v5M872.5 611.5v5M910.5 611.5v5M948.5 611.5v5M986.5 611.5v5"/>
            </g>
            <g class="mark-text role-axis-label" font-family="sans-serif" font-size="14" fill="#000">
                <text transform="rotate(90 -238.685 379.815)">@mojotech/json-…</text>
                <text transform="rotate(90 -219.554 398.946)">@typeofweb/sche…</text>
                <text transform="rotate(90 -200.424 418.076)">ajv</text>
                <text transform="rotate(90 -181.293 437.207)">bueno</text>
                <text transform="rotate(90 -162.163 456.337)">class-transform…</text>
                <text transform="rotate(90 -143.033 475.467)">class-transform…</text>
                <text transform="rotate(90 -123.902 494.598)">computed-types</text>
                <text transform="rotate(90 -104.772 513.728)">decoders</text>
                <text transform="rotate(90 -85.641 532.859)">io-ts</text>
                <text transform="rotate(90 -66.51 551.99)">jointz</text>
                <text transform="rotate(90 -47.38 571.12)">json-decoder</text>
                <text transform="rotate(90 -28.25 590.25)">myzod</text>
                <text transform="rotate(90 -9.12 609.38)">purify-ts</text>
                <text transform="rotate(90 10.01 628.51)">rulr</text>
                <text transform="rotate(90 29.141 647.641)">runtypes</text>
                <text transform="rotate(90 48.272 666.772)">simple-runtypes</text>
                <text transform="rotate(90 67.402 685.902)">superstruct</text>
                <text transform="rotate(90 86.533 705.033)">toi</text>
                <text transform="rotate(90 105.663 724.163)">ts-interface-ch…</text>
                <text transform="rotate(90 124.793 743.293)">ts-utils</text>
                <text transform="rotate(90 143.924 762.424)">valita</text>
                <text transform="rotate(90 163.054 781.554)">yup</text>
                <text transform="rotate(90 182.185 800.685)">zod</text>
            </g>
            <path stroke="#888" d="M126.5 611.5h880" class="mark-rule role-axis-domain"/>
            <text text-anchor="middle" transform="translate(566.5 812.5)" font-family="sans-serif" font-size="14" fill="#000" class="mark-text role-axis-title">module</text>
        </g>
        <g pointer-events="none" class="mark-group role-axis" aria-roledescription="axis" aria-label="Y-axis titled 'operations / sec' for a linear scale with values from 0 to 10,000,000">
            <path class="background" aria-hidden="true" d="M126.5 11.5Z"/>
            <g class="mark-rule role-axis-tick" stroke="#888">
                <path d="M126.5 611.5h-5M126.5 581.5h-5M126.5 551.5h-5M126.5 521.5h-5M126.5 491.5h-5M126.5 461.5h-5M126.5 431.5h-5M126.5 401.5h-5M126.5 371.5h-5M126.5 341.5h-5M126.5 311.5h-5M126.5 281.5h-5M126.5 251.5h-5M126.5 221.5h-5M126.5 191.5h-5M126.5 161.5h-5M126.5 131.5h-5M126.5 101.5h-5M126.5 71.5h-5M126.5 41.5h-5M126.5 11.5h-5"/>
            </g>
            <g class="mark-text role-axis-label" text-anchor="end" font-family="sans-serif" font-size="12" fill="#000">
                <text transform="translate(119.5 615.5)">0</text>
                <text transform="translate(119.5 585.5)">500,000</text>
                <text transform="translate(119.5 555.5)">1,000,000</text>
                <text transform="translate(119.5 525.5)">1,500,000</text>
                <text transform="translate(119.5 495.5)">2,000,000</text>
                <text transform="translate(119.5 465.5)">2,500,000</text>
                <text transform="translate(119.5 435.5)">3,000,000</text>
                <text transform="translate(119.5 405.5)">3,500,000</text>
                <text transform="translate(119.5 375.5)">4,000,000</text>
                <text transform="translate(119.5 345.5)">4,500,000</text>
                <text transform="translate(119.5 315.5)">5,000,000</text>
                <text transform="translate(119.5 285.5)">5,500,000</text>
                <text transform="translate(119.5 255.5)">6,000,000</text>
                <text transform="translate(119.5 225.5)">6,500,000</text>
                <text transform="translate(119.5 195.5)">7,000,000</text>
                <text transform="translate(119.5 165.5)">7,500,000</text>
                <text transform="translate(119.5 135.5)">8,000,000</text>
                <text transform="translate(119.5 105.5)">8,500,000</text>
                <text transform="translate(119.5 75.5)">9,000,000</text>
                <text transform="translate(119.5 45.5)">9,500,000</text>
                <text transform="translate(119.5 15.5)">10,000,000</text>
            </g>
            <path stroke="#888" d="M126.5 611.5v-600" class="mark-rule role-axis-domain"/>
            <text text-anchor="middle" transform="rotate(-90 164 147.5)" font-family="sans-serif" font-size="14" fill="#000" class="mark-text role-axis-title">operations / sec</text>
        </g>
        <g class="mark-rect role-mark marks" aria-roledescription="rect mark container" fill="#4c78a8">
            <path d="M242.696 602.65h34.434V611h-34.434ZM280.957 608.961h34.434V611h-34.434ZM319.217 608.867h34.435V611h-34.435ZM357.478 574.868h34.435V611h-34.435ZM395.74 599.966h34.434V611h-34.435ZM434 554.678h34.435V611H434ZM472.26 535.444h34.436V611H472.26ZM510.522 572.18h34.435V611h-34.435ZM127.913 548.512h34.435V611h-34.435ZM548.783 542.993h34.434V611h-34.434ZM587.043 574.662h34.435V611h-34.435ZM625.304 572.972h34.435V611h-34.435ZM663.565 572.313H698V611h-34.435ZM701.826 525.08h34.435V611h-34.435ZM740.087 606.269h34.435V611h-34.435ZM778.348 586.289h34.435V611h-34.435ZM816.609 498.033h34.434V611H816.61ZM854.87 603.439h34.434V611H854.87ZM166.174 565.692h34.435V611h-34.435ZM893.13 462.354h34.435V611H893.13ZM931.391 609.897h34.435V611h-34.435ZM969.652 588.207h34.435V611h-34.435ZM204.435 30.517h34.435V611h-34.435Z"/>
        </g>
    </g>
</svg>
