<svg xmlns="http://www.w3.org/2000/svg" class="marks" width="1011" height="820">
    <path fill="#fff" d="M0 0h1011v820H0z"/>
    <g class="mark-group role-frame root" aria-roledescription="group mark container" fill="none" stroke-miterlimit="10">
        <path class="background" aria-hidden="true" d="M126.5 11.5h880v600h-880Z" stroke="#ddd"/>
        <g class="mark-group role-axis" aria-roledescription="axis" aria-label="Y-axis for a linear scale with values from 0 to 12,000,000">
            <path class="background" aria-hidden="true" d="M126.5 11.5Z" pointer-events="none"/>
            <g class="mark-rule role-axis-grid" pointer-events="none" stroke="#ddd">
                <path d="M126.5 611.5h880M126.5 561.5h880M126.5 511.5h880M126.5 461.5h880M126.5 411.5h880M126.5 361.5h880M126.5 311.5h880M126.5 261.5h880M126.5 211.5h880M126.5 161.5h880M126.5 111.5h880M126.5 61.5h880M126.5 11.5h880"/>
            </g>
        </g>
        <g pointer-events="none" class="mark-group role-axis" aria-roledescription="axis" aria-label="X-axis titled 'module' for a discrete scale with 25 values: @mojotech/json-type-validation, @typeofweb/schema, bueno, class-transformer-validator-async, class-transformer-validator-sync, ending with zod">
            <path class="background" aria-hidden="true" d="M126.5 611.5Z"/>
            <g class="mark-rule role-axis-tick" stroke="#888">
                <path d="M143.5 611.5v5M178.5 611.5v5M214.5 611.5v5M249.5 611.5v5M284.5 611.5v5M319.5 611.5v5M354.5 611.5v5M390.5 611.5v5M425.5 611.5v5M460.5 611.5v5M495.5 611.5v5M530.5 611.5v5M566.5 611.5v5M601.5 611.5v5M636.5 611.5v5M671.5 611.5v5M706.5 611.5v5M742.5 611.5v5M777.5 611.5v5M812.5 611.5v5M847.5 611.5v5M882.5 611.5v5M918.5 611.5v5M953.5 611.5v5M988.5 611.5v5"/>
            </g>
            <g class="mark-text role-axis-label" font-family="sans-serif" font-size="14" fill="#000">
                <text transform="rotate(90 -239.45 379.05)">@mojotech/json-…</text>
                <text transform="rotate(90 -221.85 396.65)">@typeofweb/sche…</text>
                <text transform="rotate(90 -204.25 414.25)">bueno</text>
                <text transform="rotate(90 -186.65 431.85)">class-transform…</text>
                <text transform="rotate(90 -169.05 449.45)">class-transform…</text>
                <text transform="rotate(90 -151.45 467.05)">computed-types</text>
                <text transform="rotate(90 -133.85 484.65)">decoders</text>
                <text transform="rotate(90 -116.25 502.25)">io-ts</text>
                <text transform="rotate(90 -98.65 519.85)">jointz</text>
                <text transform="rotate(90 -81.05 537.45)">json-decoder</text>
                <text transform="rotate(90 -63.45 555.05)">marshal</text>
                <text transform="rotate(90 -45.85 572.65)">myzod</text>
                <text transform="rotate(90 -28.25 590.25)">purify-ts</text>
                <text transform="rotate(90 -10.65 607.85)">rulr</text>
                <text transform="rotate(90 6.95 625.45)">runtypes</text>
                <text transform="rotate(90 24.55 643.05)">simple-runtypes</text>
                <text transform="rotate(90 42.15 660.65)">superstruct</text>
                <text transform="rotate(90 59.75 678.25)">suretype</text>
                <text transform="rotate(90 77.35 695.85)">toi</text>
                <text transform="rotate(90 94.95 713.45)">ts-interface-ch…</text>
                <text transform="rotate(90 112.55 731.05)">ts-json-validat…</text>
                <text transform="rotate(90 130.15 748.65)">ts-utils</text>
                <text transform="rotate(90 147.75 766.25)">valita</text>
                <text transform="rotate(90 165.35 783.85)">yup</text>
                <text transform="rotate(90 182.95 801.45)">zod</text>
            </g>
            <path stroke="#888" d="M126.5 611.5h880" class="mark-rule role-axis-domain"/>
            <text text-anchor="middle" transform="translate(566.5 812.5)" font-family="sans-serif" font-size="14" fill="#000" class="mark-text role-axis-title">module</text>
        </g>
        <g pointer-events="none" class="mark-group role-axis" aria-roledescription="axis" aria-label="Y-axis titled 'operations / sec' for a linear scale with values from 0 to 12,000,000">
            <path class="background" aria-hidden="true" d="M126.5 11.5Z"/>
            <g class="mark-rule role-axis-tick" stroke="#888">
                <path d="M126.5 611.5h-5M126.5 561.5h-5M126.5 511.5h-5M126.5 461.5h-5M126.5 411.5h-5M126.5 361.5h-5M126.5 311.5h-5M126.5 261.5h-5M126.5 211.5h-5M126.5 161.5h-5M126.5 111.5h-5M126.5 61.5h-5M126.5 11.5h-5"/>
            </g>
            <g class="mark-text role-axis-label" text-anchor="end" font-family="sans-serif" font-size="12" fill="#000">
                <text transform="translate(119.5 615.5)">0</text>
                <text transform="translate(119.5 565.5)">1,000,000</text>
                <text transform="translate(119.5 515.5)">2,000,000</text>
                <text transform="translate(119.5 465.5)">3,000,000</text>
                <text transform="translate(119.5 415.5)">4,000,000</text>
                <text transform="translate(119.5 365.5)">5,000,000</text>
                <text transform="translate(119.5 315.5)">6,000,000</text>
                <text transform="translate(119.5 265.5)">7,000,000</text>
                <text transform="translate(119.5 215.5)">8,000,000</text>
                <text transform="translate(119.5 165.5)">9,000,000</text>
                <text transform="translate(119.5 115.5)">10,000,000</text>
                <text transform="translate(119.5 65.5)">11,000,000</text>
                <text transform="translate(119.5 15.5)">12,000,000</text>
            </g>
            <path stroke="#888" d="M126.5 611.5v-600" class="mark-rule role-axis-domain"/>
            <text text-anchor="middle" transform="rotate(-90 164 147.5)" font-family="sans-serif" font-size="14" fill="#000" class="mark-text role-axis-title">operations / sec</text>
        </g>
        <g class="mark-rect role-mark marks" aria-roledescription="rect mark container" fill="#4c78a8">
            <path d="M198.16 603.7h31.68v7.3h-31.68ZM233.36 609.424h31.68V611h-31.68ZM268.56 609.08h31.68V611h-31.68ZM303.76 577.245h31.68V611h-31.68ZM338.96 601.745h31.68V611h-31.68ZM374.16 562.946h31.68V611h-31.68ZM409.36 547.179h31.68V611h-31.68ZM444.56 575.187h31.68V611h-31.68ZM479.76 112.152h31.68V611h-31.68ZM127.76 557.895h31.68V611h-31.68ZM514.96 557.874h31.68V611h-31.68ZM550.16 578.455h31.68V611h-31.68ZM585.36 578.935h31.68V611h-31.68ZM620.56 573.113h31.68V611h-31.68ZM655.76 537.184h31.68V611h-31.68ZM690.96 606.616h31.68V611h-31.68ZM726.16 50.094h31.68V611h-31.68ZM761.36 588.491h31.68V611h-31.68ZM796.56 512.918h31.68V611h-31.68ZM831.76 29.174h31.68V611h-31.68ZM866.96 606.033h31.68V611h-31.68ZM162.96 571.754h31.68V611h-31.68ZM902.16 478.183h31.68V611h-31.68ZM937.36 609.826h31.68V611h-31.68ZM972.56 589.789h31.68V611h-31.68Z"/>
        </g>
    </g>
</svg>
