<svg class="marks" width="1011" height="820" xmlns="http://www.w3.org/2000/svg">
    <defs>
        <style>
            .vega-svg-root *{fill:none}.vega-svg-root path{stroke-miterlimit:10}
        </style>
    </defs>
    <path fill="#fff" d="M0 0h1011v820H0z"/>
    <g class="vega-svg-root">
        <g class="mark-group role-frame root" aria-roledescription="group mark container">
            <path class="background" aria-hidden="true" d="M126.5 11.5h880v600h-880z" stroke="#ddd"/>
            <g class="mark-group role-axis" aria-hidden="true">
                <path class="background" aria-hidden="true" d="M126.5 11.5z" pointer-events="none"/>
                <g class="mark-rule role-axis-grid" pointer-events="none" stroke="#ddd">
                    <path d="M126.5 611.5h880M126.5 561.5h880M126.5 511.5h880M126.5 461.5h880M126.5 411.5h880M126.5 361.5h880M126.5 311.5h880M126.5 261.5h880M126.5 211.5h880M126.5 161.5h880M126.5 111.5h880M126.5 61.5h880M126.5 11.5h880"/>
                </g>
            </g>
            <g class="mark-group role-axis" aria-roledescription="axis" aria-label="X-axis titled 'module' for a discrete scale with 16 values: class-transformer-validator-async, class-transformer-validator-sync, computed-types, io-ts, jointz, ending with zod">
                <path class="background" aria-hidden="true" d="M126.5 611.5z" pointer-events="none"/>
                <g class="mark-rule role-axis-tick" pointer-events="none" stroke="#888">
                    <path d="M153.5 611.5v5M208.5 611.5v5M263.5 611.5v5M318.5 611.5v5M373.5 611.5v5M428.5 611.5v5M483.5 611.5v5M538.5 611.5v5M593.5 611.5v5M648.5 611.5v5M703.5 611.5v5M758.5 611.5v5M813.5 611.5v5M868.5 611.5v5M923.5 611.5v5M978.5 611.5v5"/>
                </g>
                <g class="mark-text role-axis-label" pointer-events="none" font-family="sans-serif" font-size="14">
                    <text transform="rotate(90 -234.5 384)">
                        class-transform…
                    </text>
                    <text transform="rotate(90 -207 411.5)">
                        class-transform…
                    </text>
                    <text transform="rotate(90 -179.5 439)">
                        computed-types
                    </text>
                    <text transform="rotate(90 -152 466.5)">
                        io-ts
                    </text>
                    <text transform="rotate(90 -124.5 494)">
                        jointz
                    </text>
                    <text transform="rotate(90 -97 521.5)">
                        json-decoder
                    </text>
                    <text transform="rotate(90 -69.5 549)">
                        marshal
                    </text>
                    <text transform="rotate(90 -42 576.5)">
                        myzod
                    </text>
                    <text transform="rotate(90 -14.5 604)">
                        purify-ts
                    </text>
                    <text transform="rotate(90 13 631.5)">
                        quartet
                    </text>
                    <text transform="rotate(90 40.5 659)">
                        runtypes
                    </text>
                    <text transform="rotate(90 68 686.5)">
                        toi
                    </text>
                    <text transform="rotate(90 95.5 714)">
                        ts-json-validat…
                    </text>
                    <text transform="rotate(90 123 741.5)">
                        ts-utils
                    </text>
                    <text transform="rotate(90 150.5 769)">
                        yup
                    </text>
                    <text transform="rotate(90 178 796.5)">
                        zod
                    </text>
                </g>
                <path stroke="#888" d="M126.5 611.5h880" pointer-events="none"/>
                <text text-anchor="middle" transform="translate(566.5 812.5)" font-family="sans-serif" font-size="14" font-weight="400" pointer-events="none">
                    module
                </text>
            </g>
            <g class="mark-group role-axis" aria-roledescription="axis" aria-label="Y-axis titled 'operations / sec' for a linear scale with values from 0 to 24,000,000">
                <path class="background" aria-hidden="true" d="M126.5 11.5z" pointer-events="none"/>
                <g class="mark-rule role-axis-tick" pointer-events="none" stroke="#888">
                    <path d="M126.5 611.5h-5M126.5 561.5h-5M126.5 511.5h-5M126.5 461.5h-5M126.5 411.5h-5M126.5 361.5h-5M126.5 311.5h-5M126.5 261.5h-5M126.5 211.5h-5M126.5 161.5h-5M126.5 111.5h-5M126.5 61.5h-5M126.5 11.5h-5"/>
                </g>
                <g class="mark-text role-axis-label" pointer-events="none" text-anchor="end" font-family="sans-serif" font-size="12">
                    <text transform="translate(119.5 615.5)">
                        0
                    </text>
                    <text transform="translate(119.5 565.5)">
                        2,000,000
                    </text>
                    <text transform="translate(119.5 515.5)">
                        4,000,000
                    </text>
                    <text transform="translate(119.5 465.5)">
                        6,000,000
                    </text>
                    <text transform="translate(119.5 415.5)">
                        8,000,000
                    </text>
                    <text transform="translate(119.5 365.5)">
                        10,000,000
                    </text>
                    <text transform="translate(119.5 315.5)">
                        12,000,000
                    </text>
                    <text transform="translate(119.5 265.5)">
                        14,000,000
                    </text>
                    <text transform="translate(119.5 215.5)">
                        16,000,000
                    </text>
                    <text transform="translate(119.5 165.5)">
                        18,000,000
                    </text>
                    <text transform="translate(119.5 115.5)">
                        20,000,000
                    </text>
                    <text transform="translate(119.5 65.5)">
                        22,000,000
                    </text>
                    <text transform="translate(119.5 15.5)">
                        24,000,000
                    </text>
                </g>
                <path stroke="#888" d="M126.5 611.5v-600" pointer-events="none"/>
                <text text-anchor="middle" transform="rotate(-90 164 147.5)" font-family="sans-serif" font-size="14" font-weight="400" pointer-events="none">
                    operations / sec
                </text>
            </g>
            <g class="mark-rect role-mark marks" aria-roledescription="rect mark container" fill="#4c78a8">
                <path aria-label="operations / sec: 18730; module: class-transformer-validator-async" aria-roledescription="bar" d="M128.75 610.532h49.5V611h-49.5z"/>
                <path aria-label="operations / sec: 32169; module: class-transformer-validator-sync" aria-roledescription="bar" d="M183.75 610.196h49.5V611h-49.5z"/>
                <path aria-label="operations / sec: 622649; module: computed-types" aria-roledescription="bar" d="M238.75 595.434h49.5V611h-49.5z"/>
                <path aria-label="operations / sec: 2347567; module: io-ts" aria-roledescription="bar" d="M293.75 552.31h49.5V611h-49.5z"/>
                <path aria-label="operations / sec: 1324509; module: jointz" aria-roledescription="bar" d="M348.75 577.887h49.5V611h-49.5z"/>
                <path aria-label="operations / sec: 689120; module: json-decoder" aria-roledescription="bar" d="M403.75 593.772h49.5V611h-49.5z"/>
                <path aria-label="operations / sec: 3431539; module: marshal" aria-roledescription="bar" d="M458.75 525.212h49.5V611h-49.5z"/>
                <path aria-label="operations / sec: 1142430; module: myzod" aria-roledescription="bar" d="M513.75 582.44h49.5V611h-49.5z"/>
                <path aria-label="operations / sec: 672426; module: purify-ts" aria-roledescription="bar" d="M568.75 594.19h49.5V611h-49.5z"/>
                <path aria-label="operations / sec: 23418902; module: quartet" aria-roledescription="bar" d="M623.75 25.527h49.5V611h-49.5z"/>
                <path aria-label="operations / sec: 653572; module: runtypes" aria-roledescription="bar" d="M678.75 594.66h49.5V611h-49.5z"/>
                <path aria-label="operations / sec: 391771; module: toi" aria-roledescription="bar" d="M733.75 601.206h49.5V611h-49.5z"/>
                <path aria-label="operations / sec: 17495777; module: ts-json-validator" aria-roledescription="bar" d="M788.75 173.606h49.5V611h-49.5z"/>
                <path aria-label="operations / sec: 117275; module: ts-utils" aria-roledescription="bar" d="M843.75 608.068h49.5V611h-49.5z"/>
                <path aria-label="operations / sec: 12201; module: yup" aria-roledescription="bar" d="M898.75 610.695h49.5V611h-49.5z"/>
                <path aria-label="operations / sec: 48915; module: zod" aria-roledescription="bar" d="M953.75 609.777h49.5V611h-49.5z"/>
            </g>
        </g>
    </g>
</svg>
