<svg xmlns="http://www.w3.org/2000/svg" class="marks" width="1011" height="814">
    <path fill="#fff" d="M0 0h1011v814H0z"/>
    <g class="mark-group role-frame root" aria-roledescription="group mark container" fill="none" stroke-miterlimit="10">
        <path class="background" aria-hidden="true" d="M126.5 5.5h880v600h-880z" stroke="#ddd"/>
        <g class="mark-group role-axis" aria-roledescription="axis" aria-label="Y-axis for a linear scale with values from 0 to 35,000,000">
            <path class="background" aria-hidden="true" d="M126.5 5.5z" pointer-events="none"/>
            <g class="mark-rule role-axis-grid" pointer-events="none" stroke="#ddd">
                <path d="M126.5 605.5h880M126.5 571.5h880M126.5 536.5h880M126.5 502.5h880M126.5 468.5h880M126.5 434.5h880M126.5 399.5h880M126.5 365.5h880M126.5 331.5h880M126.5 296.5h880M126.5 262.5h880M126.5 228.5h880M126.5 194.5h880M126.5 159.5h880M126.5 125.5h880M126.5 91.5h880M126.5 56.5h880M126.5 22.5h880"/>
            </g>
        </g>
        <g class="mark-group role-axis" aria-roledescription="axis" aria-label="X-axis titled 'module' for a discrete scale with 19 values: bueno, class-transformer-validator-async, class-transformer-validator-sync, computed-types, decoders, ending with zod">
            <path class="background" aria-hidden="true" d="M126.5 605.5z" pointer-events="none"/>
            <g class="mark-rule role-axis-tick" pointer-events="none" stroke="#888">
                <path d="M149.5 605.5v5M195.5 605.5v5M241.5 605.5v5M288.5 605.5v5M334.5 605.5v5M380.5 605.5v5M427.5 605.5v5M473.5 605.5v5M519.5 605.5v5M566.5 605.5v5M612.5 605.5v5M658.5 605.5v5M704.5 605.5v5M751.5 605.5v5M797.5 605.5v5M843.5 605.5v5M890.5 605.5v5M936.5 605.5v5M982.5 605.5v5"/>
            </g>
            <g class="mark-text role-axis-label" pointer-events="none" font-family="sans-serif" font-size="14" fill="#000">
                <text transform="rotate(90 -233.671 378.829)">
                    bueno
                </text>
                <text transform="rotate(90 -210.513 401.987)">
                    class-transform…
                </text>
                <text transform="rotate(90 -187.355 425.145)">
                    class-transform…
                </text>
                <text transform="rotate(90 -164.197 448.303)">
                    computed-types
                </text>
                <text transform="rotate(90 -141.04 471.46)">
                    decoders
                </text>
                <text transform="rotate(90 -117.882 494.618)">
                    io-ts
                </text>
                <text transform="rotate(90 -94.724 517.776)">
                    jointz
                </text>
                <text transform="rotate(90 -71.566 540.934)">
                    json-decoder
                </text>
                <text transform="rotate(90 -48.408 564.092)">
                    marshal
                </text>
                <text transform="rotate(90 -25.25 587.25)">
                    myzod
                </text>
                <text transform="rotate(90 -2.092 610.408)">
                    purify-ts
                </text>
                <text transform="rotate(90 21.066 633.566)">
                    runtypes
                </text>
                <text transform="rotate(90 44.224 656.724)">
                    simple-runtypes
                </text>
                <text transform="rotate(90 67.382 679.882)">
                    superstruct
                </text>
                <text transform="rotate(90 90.54 703.04)">
                    toi
                </text>
                <text transform="rotate(90 113.697 726.197)">
                    ts-json-validat…
                </text>
                <text transform="rotate(90 136.855 749.355)">
                    ts-utils
                </text>
                <text transform="rotate(90 160.013 772.513)">
                    yup
                </text>
                <text transform="rotate(90 183.171 795.671)">
                    zod
                </text>
            </g>
            <path stroke="#888" d="M126.5 605.5h880" pointer-events="none"/>
            <text text-anchor="middle" transform="translate(566.5 806.5)" font-family="sans-serif" font-size="14" fill="#000" pointer-events="none">
                module
            </text>
        </g>
        <g class="mark-group role-axis" aria-roledescription="axis" aria-label="Y-axis titled 'operations / sec' for a linear scale with values from 0 to 35,000,000">
            <path class="background" aria-hidden="true" d="M126.5 5.5z" pointer-events="none"/>
            <g class="mark-rule role-axis-tick" pointer-events="none" stroke="#888">
                <path d="M126.5 605.5h-5M126.5 571.5h-5M126.5 536.5h-5M126.5 502.5h-5M126.5 468.5h-5M126.5 434.5h-5M126.5 399.5h-5M126.5 365.5h-5M126.5 331.5h-5M126.5 296.5h-5M126.5 262.5h-5M126.5 228.5h-5M126.5 194.5h-5M126.5 159.5h-5M126.5 125.5h-5M126.5 91.5h-5M126.5 56.5h-5M126.5 22.5h-5"/>
            </g>
            <g class="mark-text role-axis-label" pointer-events="none" text-anchor="end" font-family="sans-serif" font-size="12" fill="#000">
                <text transform="translate(119.5 609.5)">
                    0
                </text>
                <text transform="translate(119.5 575.214)">
                    2,000,000
                </text>
                <text transform="translate(119.5 540.929)">
                    4,000,000
                </text>
                <text transform="translate(119.5 506.643)">
                    6,000,000
                </text>
                <text transform="translate(119.5 472.357)">
                    8,000,000
                </text>
                <text transform="translate(119.5 438.071)">
                    10,000,000
                </text>
                <text transform="translate(119.5 403.786)">
                    12,000,000
                </text>
                <text transform="translate(119.5 369.5)">
                    14,000,000
                </text>
                <text transform="translate(119.5 335.214)">
                    16,000,000
                </text>
                <text transform="translate(119.5 300.929)">
                    18,000,000
                </text>
                <text transform="translate(119.5 266.643)">
                    20,000,000
                </text>
                <text transform="translate(119.5 232.357)">
                    22,000,000
                </text>
                <text transform="translate(119.5 198.071)">
                    24,000,000
                </text>
                <text transform="translate(119.5 163.786)">
                    26,000,000
                </text>
                <text transform="translate(119.5 129.5)">
                    28,000,000
                </text>
                <text transform="translate(119.5 95.214)">
                    30,000,000
                </text>
                <text transform="translate(119.5 60.929)">
                    32,000,000
                </text>
                <text transform="translate(119.5 26.643)">
                    34,000,000
                </text>
            </g>
            <path stroke="#888" d="M126.5 605.5V5.5" pointer-events="none"/>
            <text text-anchor="middle" transform="rotate(-90 161 144.5)" font-family="sans-serif" font-size="14" fill="#000" pointer-events="none">
                operations / sec
            </text>
        </g>
        <g class="mark-rect role-mark marks" aria-roledescription="rect mark container" fill="#4c78a8">
            <path d="M128.316 602.497H170V605h-41.684zM174.632 604.53h41.684v.47h-41.684zM220.947 604.481h41.685V605h-41.685zM267.263 591.825h41.684V605h-41.684zM313.579 601.061h41.684V605H313.58zM359.895 588.925h41.684V605h-41.684zM406.21 587.687h41.685V605H406.21zM452.526 591.326h41.685V605h-41.685zM498.842 249.127h41.684V605h-41.684zM545.158 579.992h41.684V605h-41.684zM591.474 597.009h41.684V605h-41.684zM637.79 591.86h41.684V605h-41.685zM684.105 576.75h41.684V605h-41.684zM730.421 603.969h41.684V605h-41.684zM776.737 597.002h41.684V605h-41.684zM823.053 46.65h41.684V605h-41.684zM869.368 602.682h41.685V605h-41.685zM915.684 604.768h41.684V605h-41.684zM962 604.813h41.684V605H962z"/>
        </g>
    </g>
</svg>
