<svg xmlns="http://www.w3.org/2000/svg" class="marks" width="1011" height="820">
    <path fill="#fff" d="M0 0h1011v820H0z"/>
    <g class="mark-group role-frame root" aria-roledescription="group mark container" fill="none" stroke-miterlimit="10">
        <path class="background" aria-hidden="true" d="M126.5 11.5h880v600h-880z" stroke="#ddd"/>
        <g class="mark-group role-axis" aria-roledescription="axis" aria-label="Y-axis for a linear scale with values from 0 to 22,000,000">
            <path class="background" aria-hidden="true" d="M126.5 11.5z" pointer-events="none"/>
            <g class="mark-rule role-axis-grid" pointer-events="none" stroke="#ddd">
                <path d="M126.5 611.5h880M126.5 556.5h880M126.5 502.5h880M126.5 447.5h880M126.5 393.5h880M126.5 338.5h880M126.5 284.5h880M126.5 229.5h880M126.5 175.5h880M126.5 120.5h880M126.5 66.5h880M126.5 11.5h880"/>
            </g>
        </g>
        <g class="mark-group role-axis" aria-roledescription="axis" aria-label="X-axis titled 'module' for a discrete scale with 23 values: @typeofweb/schema, bueno, class-transformer-validator-async, class-transformer-validator-sync, computed-types, ending with zod">
            <path class="background" aria-hidden="true" d="M126.5 611.5z" pointer-events="none"/>
            <g class="mark-rule role-axis-tick" pointer-events="none" stroke="#888">
                <path d="M145.5 611.5v5M183.5 611.5v5M221.5 611.5v5M259.5 611.5v5M298.5 611.5v5M336.5 611.5v5M374.5 611.5v5M412.5 611.5v5M451.5 611.5v5M489.5 611.5v5M527.5 611.5v5M566.5 611.5v5M604.5 611.5v5M642.5 611.5v5M680.5 611.5v5M719.5 611.5v5M757.5 611.5v5M795.5 611.5v5M833.5 611.5v5M872.5 611.5v5M910.5 611.5v5M948.5 611.5v5M986.5 611.5v5"/>
            </g>
            <g class="mark-text role-axis-label" pointer-events="none" font-family="sans-serif" font-size="14" fill="#000">
                <text transform="rotate(90 -238.685 379.815)">@typeofweb/sche…</text>
                <text transform="rotate(90 -219.554 398.946)">bueno</text>
                <text transform="rotate(90 -200.424 418.076)">class-transform…</text>
                <text transform="rotate(90 -181.293 437.207)">class-transform…</text>
                <text transform="rotate(90 -162.163 456.337)">computed-types</text>
                <text transform="rotate(90 -143.033 475.467)">decoders</text>
                <text transform="rotate(90 -123.902 494.598)">io-ts</text>
                <text transform="rotate(90 -104.772 513.728)">jointz</text>
                <text transform="rotate(90 -85.641 532.859)">json-decoder</text>
                <text transform="rotate(90 -66.51 551.99)">marshal</text>
                <text transform="rotate(90 -47.38 571.12)">myzod</text>
                <text transform="rotate(90 -28.25 590.25)">purify-ts</text>
                <text transform="rotate(90 -9.12 609.38)">rulr</text>
                <text transform="rotate(90 10.01 628.51)">runtypes</text>
                <text transform="rotate(90 29.141 647.641)">simple-runtypes</text>
                <text transform="rotate(90 48.272 666.772)">superstruct</text>
                <text transform="rotate(90 67.402 685.902)">suretype</text>
                <text transform="rotate(90 86.533 705.033)">toi</text>
                <text transform="rotate(90 105.663 724.163)">ts-json-validat…</text>
                <text transform="rotate(90 124.793 743.293)">ts-utils</text>
                <text transform="rotate(90 143.924 762.424)">valita</text>
                <text transform="rotate(90 163.054 781.554)">yup</text>
                <text transform="rotate(90 182.185 800.685)">zod</text>
            </g>
            <path stroke="#888" d="M126.5 611.5h880" class="mark-rule role-axis-domain" pointer-events="none"/>
            <text text-anchor="middle" transform="translate(566.5 812.5)" font-family="sans-serif" font-size="14" fill="#000" class="mark-text role-axis-title" pointer-events="none">module</text>
        </g>
        <g class="mark-group role-axis" aria-roledescription="axis" aria-label="Y-axis titled 'operations / sec' for a linear scale with values from 0 to 22,000,000">
            <path class="background" aria-hidden="true" d="M126.5 11.5z" pointer-events="none"/>
            <g class="mark-rule role-axis-tick" pointer-events="none" stroke="#888">
                <path d="M126.5 611.5h-5M126.5 556.5h-5M126.5 502.5h-5M126.5 447.5h-5M126.5 393.5h-5M126.5 338.5h-5M126.5 284.5h-5M126.5 229.5h-5M126.5 175.5h-5M126.5 120.5h-5M126.5 66.5h-5M126.5 11.5h-5"/>
            </g>
            <g class="mark-text role-axis-label" pointer-events="none" text-anchor="end" font-family="sans-serif" font-size="12" fill="#000">
                <text transform="translate(119.5 615.5)">0</text>
                <text transform="translate(119.5 560.955)">2,000,000</text>
                <text transform="translate(119.5 506.41)">4,000,000</text>
                <text transform="translate(119.5 451.864)">6,000,000</text>
                <text transform="translate(119.5 397.318)">8,000,000</text>
                <text transform="translate(119.5 342.773)">10,000,000</text>
                <text transform="translate(119.5 288.227)">12,000,000</text>
                <text transform="translate(119.5 233.682)">14,000,000</text>
                <text transform="translate(119.5 179.136)">16,000,000</text>
                <text transform="translate(119.5 124.59)">18,000,000</text>
                <text transform="translate(119.5 70.045)">20,000,000</text>
                <text transform="translate(119.5 15.5)">22,000,000</text>
            </g>
            <path stroke="#888" d="M126.5 611.5v-600" class="mark-rule role-axis-domain" pointer-events="none"/>
            <text text-anchor="middle" transform="rotate(-90 164 147.5)" font-family="sans-serif" font-size="14" fill="#000" class="mark-text role-axis-title" pointer-events="none">operations / sec</text>
        </g>
        <g class="mark-rect role-mark marks" aria-roledescription="rect mark container" fill="#4c78a8">
            <path d="M166.174 606.676h34.435V611h-34.435zM204.435 610.198h34.435V611h-34.435zM242.696 610.056h34.434V611h-34.434zM280.957 591.969h34.434V611h-34.434zM319.217 605.366h34.435V611h-34.435zM357.478 583.402h34.435V611h-34.435zM395.74 567.572h34.434V611h-34.435zM434 590.19h34.435V611H434zM472.26 272.576h34.436V611H472.26zM510.522 574.277h34.435V611h-34.435zM548.783 590.064h34.434V611h-34.434zM587.043 592.155h34.435V611h-34.435zM625.304 591.006h34.435V611h-34.435zM663.565 564.093H698V611h-34.435zM701.826 608.579h34.435V611h-34.435zM740.087 61.603h34.435V611h-34.435zM778.348 599.543h34.435V611h-34.435zM816.609 91.928h34.434V611H816.61zM854.87 608.698h34.434V611H854.87zM127.913 588.69h34.435V611h-34.435zM893.13 522.972h34.435V611H893.13zM931.391 610.597h34.435V611h-34.435zM969.652 610.75h34.435v.25h-34.435z"/>
        </g>
    </g>
</svg>
