<svg xmlns="http://www.w3.org/2000/svg" class="marks" width="1011" height="820">
    <path fill="#fff" d="M0 0h1011v820H0z"/>
    <g class="mark-group role-frame root" aria-roledescription="group mark container" fill="none" stroke-miterlimit="10">
        <path class="background" aria-hidden="true" d="M126.5 11.5h880v600h-880z" stroke="#ddd"/>
        <g class="mark-group role-axis" aria-hidden="true">
            <path class="background" aria-hidden="true" d="M126.5 11.5z" pointer-events="none"/>
            <g class="mark-rule role-axis-grid" pointer-events="none" stroke="#ddd">
                <path d="M126.5 611.5h880M126.5 561.5h880M126.5 511.5h880M126.5 461.5h880M126.5 411.5h880M126.5 361.5h880M126.5 311.5h880M126.5 261.5h880M126.5 211.5h880M126.5 161.5h880M126.5 111.5h880M126.5 61.5h880M126.5 11.5h880"/>
            </g>
        </g>
        <g class="mark-group role-axis" aria-roledescription="axis" aria-label="X-axis titled 'module' for a discrete scale with 19 values: bueno, class-transformer-validator-async, class-transformer-validator-sync, computed-types, io-ts, ending with zod">
            <path class="background" aria-hidden="true" d="M126.5 611.5z" pointer-events="none"/>
            <g class="mark-rule role-axis-tick" pointer-events="none" stroke="#888">
                <path d="M149.5 611.5v5M195.5 611.5v5M241.5 611.5v5M288.5 611.5v5M334.5 611.5v5M380.5 611.5v5M427.5 611.5v5M473.5 611.5v5M519.5 611.5v5M566.5 611.5v5M612.5 611.5v5M658.5 611.5v5M704.5 611.5v5M751.5 611.5v5M797.5 611.5v5M843.5 611.5v5M890.5 611.5v5M936.5 611.5v5M982.5 611.5v5"/>
            </g>
            <g class="mark-text role-axis-label" pointer-events="none" font-family="sans-serif" font-size="14" fill="#000">
                <text transform="rotate(90 -236.671 381.829)">
                    bueno
                </text>
                <text transform="rotate(90 -213.513 404.987)">
                    class-transform…
                </text>
                <text transform="rotate(90 -190.355 428.145)">
                    class-transform…
                </text>
                <text transform="rotate(90 -167.197 451.303)">
                    computed-types
                </text>
                <text transform="rotate(90 -144.04 474.46)">
                    io-ts
                </text>
                <text transform="rotate(90 -120.882 497.618)">
                    jointz
                </text>
                <text transform="rotate(90 -97.724 520.776)">
                    json-decoder
                </text>
                <text transform="rotate(90 -74.566 543.934)">
                    marshal
                </text>
                <text transform="rotate(90 -51.408 567.092)">
                    myzod
                </text>
                <text transform="rotate(90 -28.25 590.25)">
                    purify-ts
                </text>
                <text transform="rotate(90 -5.092 613.408)">
                    quartet
                </text>
                <text transform="rotate(90 18.066 636.566)">
                    rulr
                </text>
                <text transform="rotate(90 41.224 659.724)">
                    runtypes
                </text>
                <text transform="rotate(90 64.382 682.882)">
                    simple-runtypes
                </text>
                <text transform="rotate(90 87.54 706.04)">
                    toi
                </text>
                <text transform="rotate(90 110.697 729.197)">
                    ts-json-validat…
                </text>
                <text transform="rotate(90 133.855 752.355)">
                    ts-utils
                </text>
                <text transform="rotate(90 157.013 775.513)">
                    yup
                </text>
                <text transform="rotate(90 180.171 798.671)">
                    zod
                </text>
            </g>
            <path stroke="#888" d="M126.5 611.5h880" pointer-events="none"/>
            <text text-anchor="middle" transform="translate(566.5 812.5)" font-family="sans-serif" font-size="14" fill="#000" pointer-events="none">
                module
            </text>
        </g>
        <g class="mark-group role-axis" aria-roledescription="axis" aria-label="Y-axis titled 'operations / sec' for a linear scale with values from 0 to 60,000,000">
            <path class="background" aria-hidden="true" d="M126.5 11.5z" pointer-events="none"/>
            <g class="mark-rule role-axis-tick" pointer-events="none" stroke="#888">
                <path d="M126.5 611.5h-5M126.5 561.5h-5M126.5 511.5h-5M126.5 461.5h-5M126.5 411.5h-5M126.5 361.5h-5M126.5 311.5h-5M126.5 261.5h-5M126.5 211.5h-5M126.5 161.5h-5M126.5 111.5h-5M126.5 61.5h-5M126.5 11.5h-5"/>
            </g>
            <g class="mark-text role-axis-label" pointer-events="none" text-anchor="end" font-family="sans-serif" font-size="12" fill="#000">
                <text transform="translate(119.5 615.5)">
                    0
                </text>
                <text transform="translate(119.5 565.5)">
                    5,000,000
                </text>
                <text transform="translate(119.5 515.5)">
                    10,000,000
                </text>
                <text transform="translate(119.5 465.5)">
                    15,000,000
                </text>
                <text transform="translate(119.5 415.5)">
                    20,000,000
                </text>
                <text transform="translate(119.5 365.5)">
                    25,000,000
                </text>
                <text transform="translate(119.5 315.5)">
                    30,000,000
                </text>
                <text transform="translate(119.5 265.5)">
                    35,000,000
                </text>
                <text transform="translate(119.5 215.5)">
                    40,000,000
                </text>
                <text transform="translate(119.5 165.5)">
                    45,000,000
                </text>
                <text transform="translate(119.5 115.5)">
                    50,000,000
                </text>
                <text transform="translate(119.5 65.5)">
                    55,000,000
                </text>
                <text transform="translate(119.5 15.5)">
                    60,000,000
                </text>
            </g>
            <path stroke="#888" d="M126.5 611.5v-600" pointer-events="none"/>
            <text text-anchor="middle" transform="rotate(-90 164 147.5)" font-family="sans-serif" font-size="14" fill="#000" pointer-events="none">
                operations / sec
            </text>
        </g>
        <g class="mark-rect role-mark marks" aria-roledescription="rect mark container" fill="#4c78a8">
            <path aria-label="operations / sec: 133219; module: bueno" aria-roledescription="bar" d="M128.316 609.668H170V611h-41.684z"/>
            <path aria-label="operations / sec: 35354; module: class-transformer-validator-async" aria-roledescription="bar" d="M174.632 610.646h41.684V611h-41.684z"/>
            <path aria-label="operations / sec: 39938; module: class-transformer-validator-sync" aria-roledescription="bar" d="M220.947 610.6h41.685v.4h-41.685z"/>
            <path aria-label="operations / sec: 703197; module: computed-types" aria-roledescription="bar" d="M267.263 603.968h41.684V611h-41.684z"/>
            <path aria-label="operations / sec: 2151452; module: io-ts" aria-roledescription="bar" d="M313.579 589.485h41.684V611H313.58z"/>
            <path aria-label="operations / sec: 886079; module: jointz" aria-roledescription="bar" d="M359.895 602.14h41.684V611h-41.684z"/>
            <path aria-label="operations / sec: 737279; module: json-decoder" aria-roledescription="bar" d="M406.21 603.627h41.685V611H406.21z"/>
            <path aria-label="operations / sec: 21327280; module: marshal" aria-roledescription="bar" d="M452.526 397.727h41.685V611h-41.685z"/>
            <path aria-label="operations / sec: 1308444; module: myzod" aria-roledescription="bar" d="M498.842 597.916h41.684V611h-41.684z"/>
            <path aria-label="operations / sec: 754985; module: purify-ts" aria-roledescription="bar" d="M545.158 603.45h41.684V611h-41.684z"/>
            <path aria-label="operations / sec: 56907389; module: quartet" aria-roledescription="bar" d="M591.474 41.926h41.684V611h-41.684z"/>
            <path aria-label="operations / sec: 643323; module: rulr" aria-roledescription="bar" d="M637.79 604.567h41.684V611h-41.685z"/>
            <path aria-label="operations / sec: 708879; module: runtypes" aria-roledescription="bar" d="M684.105 603.911h41.684V611h-41.684z"/>
            <path aria-label="operations / sec: 1381503; module: simple-runtypes" aria-roledescription="bar" d="M730.421 597.185h41.684V611h-41.684z"/>
            <path aria-label="operations / sec: 421119; module: toi" aria-roledescription="bar" d="M776.737 606.789h41.684V611h-41.684z"/>
            <path aria-label="operations / sec: 32168683; module: ts-json-validator" aria-roledescription="bar" d="M823.053 289.313h41.684V611h-41.684z"/>
            <path aria-label="operations / sec: 117462; module: ts-utils" aria-roledescription="bar" d="M869.368 609.825h41.685V611h-41.685z"/>
            <path aria-label="operations / sec: 14935; module: yup" aria-roledescription="bar" d="M915.684 610.85h41.684v.15h-41.684z"/>
            <path aria-label="operations / sec: 10903; module: zod" aria-roledescription="bar" d="M962 610.891h41.684V611H962z"/>
        </g>
    </g>
</svg>
