<svg xmlns="http://www.w3.org/2000/svg" class="marks" width="1001" height="814">
    <path fill="#fff" d="M0 0h1001v814H0z"/>
    <g class="mark-group role-frame root" aria-roledescription="group mark container" fill="none" stroke-miterlimit="10">
        <path class="background" aria-hidden="true" d="M116.5 5.5h880v600h-880z" stroke="#ddd"/>
        <g class="mark-group role-axis" aria-hidden="true">
            <path class="background" aria-hidden="true" d="M116.5 5.5z" pointer-events="none"/>
            <g class="mark-rule role-axis-grid" pointer-events="none" stroke="#ddd">
                <path d="M116.5 605.5h880M116.5 571.5h880M116.5 536.5h880M116.5 502.5h880M116.5 468.5h880M116.5 434.5h880M116.5 399.5h880M116.5 365.5h880M116.5 331.5h880M116.5 296.5h880M116.5 262.5h880M116.5 228.5h880M116.5 194.5h880M116.5 159.5h880M116.5 125.5h880M116.5 91.5h880M116.5 56.5h880M116.5 22.5h880"/>
            </g>
        </g>
        <g class="mark-group role-axis" aria-roledescription="axis" aria-label="X-axis titled 'module' for a discrete scale with 17 values: bueno, class-transformer-validator-async, class-transformer-validator-sync, computed-types, io-ts, ending with zod">
            <path class="background" aria-hidden="true" d="M116.5 605.5z" pointer-events="none"/>
            <g class="mark-rule role-axis-tick" pointer-events="none" stroke="#888">
                <path d="M141.5 605.5v5M193.5 605.5v5M245.5 605.5v5M297.5 605.5v5M348.5 605.5v5M400.5 605.5v5M452.5 605.5v5M504.5 605.5v5M556.5 605.5v5M607.5 605.5v5M659.5 605.5v5M711.5 605.5v5M763.5 605.5v5M814.5 605.5v5M866.5 605.5v5M918.5 605.5v5M970.5 605.5v5"/>
            </g>
            <g class="mark-text role-axis-label" pointer-events="none" font-family="sans-serif" font-size="14" fill="#000">
                <text transform="rotate(90 -237.309 375.191)">
                    bueno
                </text>
                <text transform="rotate(90 -211.426 401.074)">
                    class-transform…
                </text>
                <text transform="rotate(90 -185.544 426.956)">
                    class-transform…
                </text>
                <text transform="rotate(90 -159.662 452.838)">
                    computed-types
                </text>
                <text transform="rotate(90 -133.78 478.72)">
                    io-ts
                </text>
                <text transform="rotate(90 -107.897 504.603)">
                    jointz
                </text>
                <text transform="rotate(90 -82.015 530.485)">
                    json-decoder
                </text>
                <text transform="rotate(90 -56.132 556.368)">
                    myzod
                </text>
                <text transform="rotate(90 -30.25 582.25)">
                    purify-ts
                </text>
                <text transform="rotate(90 -4.368 608.132)">
                    rulr
                </text>
                <text transform="rotate(90 21.515 634.015)">
                    runtypes
                </text>
                <text transform="rotate(90 47.397 659.897)">
                    simple-runtypes
                </text>
                <text transform="rotate(90 73.28 685.78)">
                    superstruct
                </text>
                <text transform="rotate(90 99.162 711.662)">
                    toi
                </text>
                <text transform="rotate(90 125.044 737.544)">
                    ts-utils
                </text>
                <text transform="rotate(90 150.926 763.426)">
                    yup
                </text>
                <text transform="rotate(90 176.809 789.309)">
                    zod
                </text>
            </g>
            <path stroke="#888" d="M116.5 605.5h880" pointer-events="none"/>
            <text text-anchor="middle" transform="translate(556.5 806.5)" font-family="sans-serif" font-size="14" fill="#000" pointer-events="none">
                module
            </text>
        </g>
        <g class="mark-group role-axis" aria-roledescription="axis" aria-label="Y-axis titled 'operations / sec' for a linear scale with values from 0 to 3,500,000">
            <path class="background" aria-hidden="true" d="M116.5 5.5z" pointer-events="none"/>
            <g class="mark-rule role-axis-tick" pointer-events="none" stroke="#888">
                <path d="M116.5 605.5h-5M116.5 571.5h-5M116.5 536.5h-5M116.5 502.5h-5M116.5 468.5h-5M116.5 434.5h-5M116.5 399.5h-5M116.5 365.5h-5M116.5 331.5h-5M116.5 296.5h-5M116.5 262.5h-5M116.5 228.5h-5M116.5 194.5h-5M116.5 159.5h-5M116.5 125.5h-5M116.5 91.5h-5M116.5 56.5h-5M116.5 22.5h-5"/>
            </g>
            <g class="mark-text role-axis-label" pointer-events="none" text-anchor="end" font-family="sans-serif" font-size="12" fill="#000">
                <text transform="translate(109.5 609.5)">
                    0
                </text>
                <text transform="translate(109.5 575.214)">
                    200,000
                </text>
                <text transform="translate(109.5 540.929)">
                    400,000
                </text>
                <text transform="translate(109.5 506.643)">
                    600,000
                </text>
                <text transform="translate(109.5 472.357)">
                    800,000
                </text>
                <text transform="translate(109.5 438.071)">
                    1,000,000
                </text>
                <text transform="translate(109.5 403.786)">
                    1,200,000
                </text>
                <text transform="translate(109.5 369.5)">
                    1,400,000
                </text>
                <text transform="translate(109.5 335.214)">
                    1,600,000
                </text>
                <text transform="translate(109.5 300.929)">
                    1,800,000
                </text>
                <text transform="translate(109.5 266.643)">
                    2,000,000
                </text>
                <text transform="translate(109.5 232.357)">
                    2,200,000
                </text>
                <text transform="translate(109.5 198.071)">
                    2,400,000
                </text>
                <text transform="translate(109.5 163.786)">
                    2,600,000
                </text>
                <text transform="translate(109.5 129.5)">
                    2,800,000
                </text>
                <text transform="translate(109.5 95.214)">
                    3,000,000
                </text>
                <text transform="translate(109.5 60.929)">
                    3,200,000
                </text>
                <text transform="translate(109.5 26.643)">
                    3,400,000
                </text>
            </g>
            <path stroke="#888" d="M116.5 605.5V5.5" pointer-events="none"/>
            <text text-anchor="middle" transform="rotate(-90 161 144.5)" font-family="sans-serif" font-size="14" fill="#000" pointer-events="none">
                operations / sec
            </text>
        </g>
        <g class="mark-rect role-mark marks" aria-roledescription="rect mark container" fill="#4c78a8">
            <path aria-label="operations / sec: 205542; module: bueno" aria-roledescription="bar" d="M118.588 569.764h46.588V605h-46.588z"/>
            <path aria-label="operations / sec: 47941; module: class-transformer-validator-async" aria-roledescription="bar" d="M170.353 596.782h46.588V605h-46.588z"/>
            <path aria-label="operations / sec: 56335; module: class-transformer-validator-sync" aria-roledescription="bar" d="M222.118 595.343h46.588V605h-46.588z"/>
            <path aria-label="operations / sec: 918269; module: computed-types" aria-roledescription="bar" d="M273.882 447.582h46.589V605h-46.589z"/>
            <path aria-label="operations / sec: 3368422; module: io-ts" aria-roledescription="bar" d="M325.647 27.556h46.588V605h-46.588z"/>
            <path aria-label="operations / sec: 1941845; module: jointz" aria-roledescription="bar" d="M377.412 272.112H424V605h-46.588z"/>
            <path aria-label="operations / sec: 1019202; module: json-decoder" aria-roledescription="bar" d="M429.176 430.28h46.589V605h-46.589z"/>
            <path aria-label="operations / sec: 1619691; module: myzod" aria-roledescription="bar" d="M480.941 327.339h46.588V605h-46.588z"/>
            <path aria-label="operations / sec: 1065409; module: purify-ts" aria-roledescription="bar" d="M532.706 422.358h46.588V605h-46.588z"/>
            <path aria-label="operations / sec: 947618; module: rulr" aria-roledescription="bar" d="M584.47 442.551h46.589V605H584.47z"/>
            <path aria-label="operations / sec: 997633; module: runtypes" aria-roledescription="bar" d="M636.235 433.977h46.589V605h-46.589z"/>
            <path aria-label="operations / sec: 2268942; module: simple-runtypes" aria-roledescription="bar" d="M688 216.039h46.588V605H688z"/>
            <path aria-label="operations / sec: 93066; module: superstruct" aria-roledescription="bar" d="M739.765 589.046h46.588V605h-46.588z"/>
            <path aria-label="operations / sec: 577176; module: toi" aria-roledescription="bar" d="M791.53 506.056h46.588V605h-46.589z"/>
            <path aria-label="operations / sec: 173587; module: ts-utils" aria-roledescription="bar" d="M843.294 575.242h46.588V605h-46.588z"/>
            <path aria-label="operations / sec: 21380; module: yup" aria-roledescription="bar" d="M895.059 601.335h46.588V605H895.06z"/>
            <path aria-label="operations / sec: 10041; module: zod" aria-roledescription="bar" d="M946.824 603.279h46.588V605h-46.588z"/>
        </g>
    </g>
</svg>
