<svg xmlns="http://www.w3.org/2000/svg" class="marks" width="1011" height="820">
    <path fill="#fff" d="M0 0h1011v820H0z"/>
    <g class="mark-group role-frame root" aria-roledescription="group mark container" fill="none" stroke-miterlimit="10">
        <path class="background" aria-hidden="true" d="M126.5 11.5h880v600h-880Z" stroke="#ddd"/>
        <g class="mark-group role-axis" aria-roledescription="axis" aria-label="Y-axis for a linear scale with values from 0 to 12,000,000">
            <path class="background" aria-hidden="true" d="M126.5 11.5Z" pointer-events="none"/>
            <g class="mark-rule role-axis-grid" pointer-events="none" stroke="#ddd">
                <path d="M126.5 611.5h880M126.5 561.5h880M126.5 511.5h880M126.5 461.5h880M126.5 411.5h880M126.5 361.5h880M126.5 311.5h880M126.5 261.5h880M126.5 211.5h880M126.5 161.5h880M126.5 111.5h880M126.5 61.5h880M126.5 11.5h880"/>
            </g>
        </g>
        <g pointer-events="none" class="mark-group role-axis" aria-roledescription="axis" aria-label="X-axis titled 'module' for a discrete scale with 26 values: @mojotech/json-type-validation, @typeofweb/schema, ajv, bueno, class-transformer-validator-async, ending with zod">
            <path class="background" aria-hidden="true" d="M126.5 611.5Z"/>
            <g class="mark-rule role-axis-tick" stroke="#888">
                <path d="M142.5 611.5v5M176.5 611.5v5M210.5 611.5v5M244.5 611.5v5M278.5 611.5v5M312.5 611.5v5M346.5 611.5v5M379.5 611.5v5M413.5 611.5v5M447.5 611.5v5M481.5 611.5v5M515.5 611.5v5M549.5 611.5v5M582.5 611.5v5M616.5 611.5v5M650.5 611.5v5M684.5 611.5v5M718.5 611.5v5M752.5 611.5v5M786.5 611.5v5M819.5 611.5v5M853.5 611.5v5M887.5 611.5v5M921.5 611.5v5M955.5 611.5v5M989.5 611.5v5"/>
            </g>
            <g class="mark-text role-axis-label" font-family="sans-serif" font-size="14" fill="#000">
                <text transform="rotate(90 -239.788 378.712)">@mojotech/json-…</text>
                <text transform="rotate(90 -222.865 395.635)">@typeofweb/sche…</text>
                <text transform="rotate(90 -205.942 412.558)">ajv</text>
                <text transform="rotate(90 -189.02 429.48)">bueno</text>
                <text transform="rotate(90 -172.096 446.404)">class-transform…</text>
                <text transform="rotate(90 -155.173 463.327)">class-transform…</text>
                <text transform="rotate(90 -138.25 480.25)">computed-types</text>
                <text transform="rotate(90 -121.327 497.173)">decoders</text>
                <text transform="rotate(90 -104.404 514.096)">io-ts</text>
                <text transform="rotate(90 -87.48 531.02)">jointz</text>
                <text transform="rotate(90 -70.558 547.942)">json-decoder</text>
                <text transform="rotate(90 -53.635 564.865)">marshal</text>
                <text transform="rotate(90 -36.712 581.788)">myzod</text>
                <text transform="rotate(90 -19.788 598.712)">purify-ts</text>
                <text transform="rotate(90 -2.865 615.635)">rulr</text>
                <text transform="rotate(90 14.058 632.558)">runtypes</text>
                <text transform="rotate(90 30.98 649.48)">simple-runtypes</text>
                <text transform="rotate(90 47.904 666.404)">superstruct</text>
                <text transform="rotate(90 64.827 683.327)">suretype</text>
                <text transform="rotate(90 81.75 700.25)">toi</text>
                <text transform="rotate(90 98.673 717.173)">ts-interface-ch…</text>
                <text transform="rotate(90 115.596 734.096)">ts-json-validat…</text>
                <text transform="rotate(90 132.52 751.02)">ts-utils</text>
                <text transform="rotate(90 149.442 767.942)">valita</text>
                <text transform="rotate(90 166.365 784.865)">yup</text>
                <text transform="rotate(90 183.288 801.788)">zod</text>
            </g>
            <path stroke="#888" d="M126.5 611.5h880" class="mark-rule role-axis-domain"/>
            <text text-anchor="middle" transform="translate(566.5 812.5)" font-family="sans-serif" font-size="14" fill="#000" class="mark-text role-axis-title">module</text>
        </g>
        <g pointer-events="none" class="mark-group role-axis" aria-roledescription="axis" aria-label="Y-axis titled 'operations / sec' for a linear scale with values from 0 to 12,000,000">
            <path class="background" aria-hidden="true" d="M126.5 11.5Z"/>
            <g class="mark-rule role-axis-tick" stroke="#888">
                <path d="M126.5 611.5h-5M126.5 561.5h-5M126.5 511.5h-5M126.5 461.5h-5M126.5 411.5h-5M126.5 361.5h-5M126.5 311.5h-5M126.5 261.5h-5M126.5 211.5h-5M126.5 161.5h-5M126.5 111.5h-5M126.5 61.5h-5M126.5 11.5h-5"/>
            </g>
            <g class="mark-text role-axis-label" text-anchor="end" font-family="sans-serif" font-size="12" fill="#000">
                <text transform="translate(119.5 615.5)">0</text>
                <text transform="translate(119.5 565.5)">1,000,000</text>
                <text transform="translate(119.5 515.5)">2,000,000</text>
                <text transform="translate(119.5 465.5)">3,000,000</text>
                <text transform="translate(119.5 415.5)">4,000,000</text>
                <text transform="translate(119.5 365.5)">5,000,000</text>
                <text transform="translate(119.5 315.5)">6,000,000</text>
                <text transform="translate(119.5 265.5)">7,000,000</text>
                <text transform="translate(119.5 215.5)">8,000,000</text>
                <text transform="translate(119.5 165.5)">9,000,000</text>
                <text transform="translate(119.5 115.5)">10,000,000</text>
                <text transform="translate(119.5 65.5)">11,000,000</text>
                <text transform="translate(119.5 15.5)">12,000,000</text>
            </g>
            <path stroke="#888" d="M126.5 611.5v-600" class="mark-rule role-axis-domain"/>
            <text text-anchor="middle" transform="rotate(-90 164 147.5)" font-family="sans-serif" font-size="14" fill="#000" class="mark-text role-axis-title">operations / sec</text>
        </g>
        <g class="mark-rect role-mark marks" aria-roledescription="rect mark container" fill="#4c78a8">
            <path d="M229.23 603.515h30.462V611h-30.461ZM263.077 609.303h30.461V611h-30.461ZM296.923 608.996h30.462V611h-30.462ZM330.77 577.085h30.46V611h-30.46ZM364.615 601.253h30.462V611h-30.462ZM398.462 558.974h30.461V611h-30.461ZM432.308 544.42h30.461V611h-30.461ZM466.154 574.567h30.461V611h-30.461ZM500 108.48h30.462V611H500ZM127.692 557.763h30.462V611h-30.462ZM533.846 550.175h30.462V611h-30.462ZM567.692 576.075h30.462V611h-30.462ZM601.538 577.092H632V611h-30.462ZM635.385 570.299h30.461V611h-30.461ZM669.23 534.797h30.462V611h-30.461ZM703.077 606.242h30.461V611h-30.461ZM736.923 34.54h30.462V611h-30.462ZM770.77 587.645h30.46V611h-30.46ZM804.615 512.75h30.462V611h-30.462ZM838.462 37.841h30.461V611h-30.461ZM872.308 606.46h30.461V611h-30.461ZM161.538 570.032H192V611h-30.462ZM906.154 488.962h30.461V611h-30.461ZM940 609.808h30.462V611H940ZM973.846 589.78h30.462V611h-30.462ZM195.385 76.691h30.461V611h-30.461Z"/>
        </g>
    </g>
</svg>
