<svg class="marks" width="1011" height="820" xmlns="http://www.w3.org/2000/svg">
    <path fill="#fff" d="M0 0h1011v820H0z"/>
    <g class="mark-group role-frame root">
        <path class="background" d="M126.5 11.5h880v600h-880z" fill="none" stroke="#ddd"/>
        <g class="mark-group role-axis">
            <path class="background" d="M126.5 11.5z" pointer-events="none" fill="none"/>
            <g class="mark-rule role-axis-grid" pointer-events="none" fill="none" stroke="#ddd">
                <path d="M126.5 611.5h880M126.5 568.5h880M126.5 525.5h880M126.5 482.5h880M126.5 440.5h880M126.5 397.5h880M126.5 354.5h880M126.5 311.5h880M126.5 268.5h880M126.5 225.5h880M126.5 182.5h880M126.5 140.5h880M126.5 97.5h880M126.5 54.5h880M126.5 11.5h880"/>
            </g>
        </g>
        <g class="mark-group role-axis">
            <path class="background" d="M126.5 611.5z" pointer-events="none" fill="none"/>
            <g class="mark-rule role-axis-tick" pointer-events="none" fill="none" stroke="#888">
                <path d="M159.5 611.5v5M227.5 611.5v5M295.5 611.5v5M362.5 611.5v5M430.5 611.5v5M498.5 611.5v5M566.5 611.5v5M633.5 611.5v5M701.5 611.5v5M769.5 611.5v5M836.5 611.5v5M904.5 611.5v5M972.5 611.5v5"/>
            </g>
            <g class="mark-text role-axis-label" pointer-events="none" font-family="sans-serif" font-size="14">
                <text transform="rotate(90 -231.327 387.173)">
                    class-transform…
                </text>
                <text transform="rotate(90 -197.48 421.02)">
                    class-transform…
                </text>
                <text transform="rotate(90 -163.635 454.865)">
                    funval
                </text>
                <text transform="rotate(90 -129.788 488.712)">
                    io-ts
                </text>
                <text transform="rotate(90 -95.942 522.558)">
                    json-decoder
                </text>
                <text transform="rotate(90 -62.096 556.404)">
                    marshal
                </text>
                <text transform="rotate(90 -28.25 590.25)">
                    myzod
                </text>
                <text transform="rotate(90 5.596 624.096)">
                    purify-ts
                </text>
                <text transform="rotate(90 39.442 657.942)">
                    runtypes
                </text>
                <text transform="rotate(90 73.288 691.788)">
                    toi
                </text>
                <text transform="rotate(90 107.135 725.635)">
                    ts-json-validat…
                </text>
                <text transform="rotate(90 140.98 759.48)">
                    ts-utils
                </text>
                <text transform="rotate(90 174.827 793.327)">
                    zod
                </text>
            </g>
            <path fill="none" stroke="#888" d="M126.5 611.5h880" pointer-events="none"/>
            <text text-anchor="middle" transform="translate(566.5 812.5)" font-family="sans-serif" font-size="14" font-weight="400" pointer-events="none">
                module
            </text>
        </g>
        <g class="mark-group role-axis">
            <path class="background" d="M126.5 11.5z" pointer-events="none" fill="none"/>
            <g class="mark-rule role-axis-tick" pointer-events="none" fill="none" stroke="#888">
                <path d="M126.5 611.5h-5M126.5 568.5h-5M126.5 525.5h-5M126.5 482.5h-5M126.5 440.5h-5M126.5 397.5h-5M126.5 354.5h-5M126.5 311.5h-5M126.5 268.5h-5M126.5 225.5h-5M126.5 182.5h-5M126.5 140.5h-5M126.5 97.5h-5M126.5 54.5h-5M126.5 11.5h-5"/>
            </g>
            <g class="mark-text role-axis-label" pointer-events="none" text-anchor="end" font-family="sans-serif" font-size="12">
                <text transform="translate(119.5 615.5)">
                    0
                </text>
                <text transform="translate(119.5 572.643)">
                    2,000,000
                </text>
                <text transform="translate(119.5 529.786)">
                    4,000,000
                </text>
                <text transform="translate(119.5 486.929)">
                    6,000,000
                </text>
                <text transform="translate(119.5 444.071)">
                    8,000,000
                </text>
                <text transform="translate(119.5 401.214)">
                    10,000,000
                </text>
                <text transform="translate(119.5 358.357)">
                    12,000,000
                </text>
                <text transform="translate(119.5 315.5)">
                    14,000,000
                </text>
                <text transform="translate(119.5 272.643)">
                    16,000,000
                </text>
                <text transform="translate(119.5 229.786)">
                    18,000,000
                </text>
                <text transform="translate(119.5 186.929)">
                    20,000,000
                </text>
                <text transform="translate(119.5 144.071)">
                    22,000,000
                </text>
                <text transform="translate(119.5 101.214)">
                    24,000,000
                </text>
                <text transform="translate(119.5 58.357)">
                    26,000,000
                </text>
                <text transform="translate(119.5 15.5)">
                    28,000,000
                </text>
            </g>
            <path fill="none" stroke="#888" d="M126.5 611.5v-600" pointer-events="none"/>
            <text text-anchor="middle" transform="rotate(-90 164 147.5)" font-family="sans-serif" font-size="14" font-weight="400" pointer-events="none">
                operations / sec
            </text>
        </g>
        <g class="mark-rect role-mark marks" fill="#4c78a8">
            <path d="M129.385 610.443h60.923V611h-60.923zM197.077 610.172H258V611h-60.923zM264.77 594.89h60.922V611H264.77zM332.462 566.162h60.923V611h-60.923zM400.154 594.038h60.923V611h-60.923zM467.846 514.765h60.923V611h-60.923zM535.538 606.08h60.924V611h-60.924zM603.23 593.922h60.924V611H603.23zM670.923 594.559h60.923V611h-60.923zM738.615 601.217h60.923V611h-60.923zM806.308 48.183h60.923V611h-60.923zM874 608.423h60.923V611H874zM941.692 609.683h60.923V611h-60.923z"/>
        </g>
    </g>
</svg>
