<svg xmlns="http://www.w3.org/2000/svg" class="marks" width="1001" height="820">
    <path fill="#fff" d="M0 0h1001v820H0z"/>
    <g class="mark-group role-frame root" aria-roledescription="group mark container" fill="none" stroke-miterlimit="10">
        <path class="background" aria-hidden="true" d="M116.5 11.5h880v600h-880z" stroke="#ddd"/>
        <g class="mark-group role-axis" aria-roledescription="axis" aria-label="Y-axis for a linear scale with values from 0 to 4,000,000">
            <path class="background" aria-hidden="true" d="M116.5 11.5z" pointer-events="none"/>
            <g class="mark-rule role-axis-grid" pointer-events="none" stroke="#ddd">
                <path d="M116.5 611.5h880M116.5 581.5h880M116.5 551.5h880M116.5 521.5h880M116.5 491.5h880M116.5 461.5h880M116.5 431.5h880M116.5 401.5h880M116.5 371.5h880M116.5 341.5h880M116.5 311.5h880M116.5 281.5h880M116.5 251.5h880M116.5 221.5h880M116.5 191.5h880M116.5 161.5h880M116.5 131.5h880M116.5 101.5h880M116.5 71.5h880M116.5 41.5h880M116.5 11.5h880"/>
            </g>
        </g>
        <g class="mark-group role-axis" aria-roledescription="axis" aria-label="X-axis titled 'module' for a discrete scale with 20 values: @typeofweb/schema, bueno, class-transformer-validator-async, class-transformer-validator-sync, computed-types, ending with zod">
            <path class="background" aria-hidden="true" d="M116.5 611.5z" pointer-events="none"/>
            <g class="mark-rule role-axis-tick" pointer-events="none" stroke="#888">
                <path d="M138.5 611.5v5M182.5 611.5v5M226.5 611.5v5M270.5 611.5v5M314.5 611.5v5M358.5 611.5v5M402.5 611.5v5M446.5 611.5v5M490.5 611.5v5M534.5 611.5v5M578.5 611.5v5M622.5 611.5v5M666.5 611.5v5M710.5 611.5v5M754.5 611.5v5M798.5 611.5v5M842.5 611.5v5M886.5 611.5v5M930.5 611.5v5M974.5 611.5v5"/>
            </g>
            <g class="mark-text role-axis-label" pointer-events="none" font-family="sans-serif" font-size="14" fill="#000">
                <text transform="rotate(90 -242.25 376.25)">@typeofweb/sche…</text>
                <text transform="rotate(90 -220.25 398.25)">bueno</text>
                <text transform="rotate(90 -198.25 420.25)">class-transform…</text>
                <text transform="rotate(90 -176.25 442.25)">class-transform…</text>
                <text transform="rotate(90 -154.25 464.25)">computed-types</text>
                <text transform="rotate(90 -132.25 486.25)">decoders</text>
                <text transform="rotate(90 -110.25 508.25)">io-ts</text>
                <text transform="rotate(90 -88.25 530.25)">jointz</text>
                <text transform="rotate(90 -66.25 552.25)">json-decoder</text>
                <text transform="rotate(90 -44.25 574.25)">myzod</text>
                <text transform="rotate(90 -22.25 596.25)">purify-ts</text>
                <text transform="rotate(90 -.25 618.25)">rulr</text>
                <text transform="rotate(90 21.75 640.25)">runtypes</text>
                <text transform="rotate(90 43.75 662.25)">simple-runtypes</text>
                <text transform="rotate(90 65.75 684.25)">superstruct</text>
                <text transform="rotate(90 87.75 706.25)">toi</text>
                <text transform="rotate(90 109.75 728.25)">ts-utils</text>
                <text transform="rotate(90 131.75 750.25)">valita</text>
                <text transform="rotate(90 153.75 772.25)">yup</text>
                <text transform="rotate(90 175.75 794.25)">zod</text>
            </g>
            <path stroke="#888" d="M116.5 611.5h880" pointer-events="none"/>
            <text text-anchor="middle" transform="translate(556.5 812.5)" font-family="sans-serif" font-size="14" fill="#000" pointer-events="none">module</text>
        </g>
        <g class="mark-group role-axis" aria-roledescription="axis" aria-label="Y-axis titled 'operations / sec' for a linear scale with values from 0 to 4,000,000">
            <path class="background" aria-hidden="true" d="M116.5 11.5z" pointer-events="none"/>
            <g class="mark-rule role-axis-tick" pointer-events="none" stroke="#888">
                <path d="M116.5 611.5h-5M116.5 581.5h-5M116.5 551.5h-5M116.5 521.5h-5M116.5 491.5h-5M116.5 461.5h-5M116.5 431.5h-5M116.5 401.5h-5M116.5 371.5h-5M116.5 341.5h-5M116.5 311.5h-5M116.5 281.5h-5M116.5 251.5h-5M116.5 221.5h-5M116.5 191.5h-5M116.5 161.5h-5M116.5 131.5h-5M116.5 101.5h-5M116.5 71.5h-5M116.5 41.5h-5M116.5 11.5h-5"/>
            </g>
            <g class="mark-text role-axis-label" pointer-events="none" text-anchor="end" font-family="sans-serif" font-size="12" fill="#000">
                <text transform="translate(109.5 615.5)">0</text>
                <text transform="translate(109.5 585.5)">200,000</text>
                <text transform="translate(109.5 555.5)">400,000</text>
                <text transform="translate(109.5 525.5)">600,000</text>
                <text transform="translate(109.5 495.5)">800,000</text>
                <text transform="translate(109.5 465.5)">1,000,000</text>
                <text transform="translate(109.5 435.5)">1,200,000</text>
                <text transform="translate(109.5 405.5)">1,400,000</text>
                <text transform="translate(109.5 375.5)">1,600,000</text>
                <text transform="translate(109.5 345.5)">1,800,000</text>
                <text transform="translate(109.5 315.5)">2,000,000</text>
                <text transform="translate(109.5 285.5)">2,200,000</text>
                <text transform="translate(109.5 255.5)">2,400,000</text>
                <text transform="translate(109.5 225.5)">2,600,000</text>
                <text transform="translate(109.5 195.5)">2,800,000</text>
                <text transform="translate(109.5 165.5)">3,000,000</text>
                <text transform="translate(109.5 135.5)">3,200,000</text>
                <text transform="translate(109.5 105.5)">3,400,000</text>
                <text transform="translate(109.5 75.5)">3,600,000</text>
                <text transform="translate(109.5 45.5)">3,800,000</text>
                <text transform="translate(109.5 15.5)">4,000,000</text>
            </g>
            <path stroke="#888" d="M116.5 611.5v-600" pointer-events="none"/>
            <text text-anchor="middle" transform="rotate(-90 164 147.5)" font-family="sans-serif" font-size="14" fill="#000" pointer-events="none">operations / sec</text>
        </g>
        <g class="mark-rect role-mark marks" aria-roledescription="rect mark container" fill="#4c78a8">
            <path d="M162.2 589.445h39.6V611h-39.6zM206.2 607.09h39.6V611h-39.6zM250.2 606.478h39.6V611h-39.6zM294.2 510.543h39.6V611h-39.6zM338.2 581.535h39.6V611h-39.6zM382.2 463.746h39.6V611h-39.6zM426.2 373.851h39.6V611h-39.6zM470.2 499.116h39.6V611h-39.6zM514.2 429.02h39.6V611h-39.6zM558.2 501.952h39.6V611h-39.6zM602.2 507.38h39.6V611h-39.6zM646.2 501.811h39.6V611h-39.6zM690.2 363.432h39.6V611h-39.6zM734.2 603.585h39.6V611h-39.6zM778.2 545.434h39.6V611h-39.6zM822.2 591.635h39.6V611h-39.6zM118.2 476.04h39.6V611h-39.6zM866.2 75.719h39.6V611h-39.6zM910.2 609.421h39.6V611h-39.6zM954.2 609.803h39.6V611h-39.6z"/>
        </g>
    </g>
</svg>
