<svg class="marks" width="1020" height="820" xmlns="http://www.w3.org/2000/svg">
    <path fill="#fff" d="M0 0h1020v820H0z"/>
    <g class="mark-group role-frame root">
        <path class="background" d="M135.5 11.5h880v600h-880z" fill="none" stroke="#ddd"/>
        <g class="mark-group role-axis">
            <path class="background" d="M135.5 11.5z" pointer-events="none" fill="none"/>
            <g class="mark-rule role-axis-grid" pointer-events="none" fill="none" stroke="#ddd">
                <path d="M135.5 611.5h880M135.5 581.5h880M135.5 551.5h880M135.5 521.5h880M135.5 491.5h880M135.5 461.5h880M135.5 431.5h880M135.5 401.5h880M135.5 371.5h880M135.5 341.5h880M135.5 311.5h880M135.5 281.5h880M135.5 251.5h880M135.5 221.5h880M135.5 191.5h880M135.5 161.5h880M135.5 131.5h880M135.5 101.5h880M135.5 71.5h880M135.5 41.5h880M135.5 11.5h880"/>
            </g>
        </g>
        <g class="mark-group role-axis">
            <path class="background" d="M135.5 611.5z" pointer-events="none" fill="none"/>
            <g class="mark-rule role-axis-tick" pointer-events="none" fill="none" stroke="#888">
                <path d="M164.5 611.5v5M223.5 611.5v5M281.5 611.5v5M340.5 611.5v5M399.5 611.5v5M457.5 611.5v5M516.5 611.5v5M574.5 611.5v5M633.5 611.5v5M692.5 611.5v5M750.5 611.5v5M809.5 611.5v5M868.5 611.5v5M926.5 611.5v5M985.5 611.5v5"/>
            </g>
            <g class="mark-text role-axis-label" pointer-events="none" font-family="sans-serif" font-size="14">
                <text transform="rotate(90 -229.083 389.417)">
                    class-transform…
                </text>
                <text transform="rotate(90 -199.75 418.75)">
                    class-transform…
                </text>
                <text transform="rotate(90 -170.417 448.083)">
                    funval
                </text>
                <text transform="rotate(90 -141.083 477.417)">
                    io-ts
                </text>
                <text transform="rotate(90 -111.75 506.75)">
                    json-decoder
                </text>
                <text transform="rotate(90 -82.417 536.083)">
                    marshal
                </text>
                <text transform="rotate(90 -53.083 565.417)">
                    myzod
                </text>
                <text transform="rotate(90 -23.75 594.75)">
                    purify-ts
                </text>
                <text transform="rotate(90 5.583 624.083)">
                    quartet
                </text>
                <text transform="rotate(90 34.917 653.417)">
                    runtypes
                </text>
                <text transform="rotate(90 64.25 682.75)">
                    toi
                </text>
                <text transform="rotate(90 93.583 712.083)">
                    ts-json-validat…
                </text>
                <text transform="rotate(90 122.917 741.417)">
                    ts-utils
                </text>
                <text transform="rotate(90 152.25 770.75)">
                    yup
                </text>
                <text transform="rotate(90 181.583 800.083)">
                    zod
                </text>
            </g>
            <path fill="none" stroke="#888" d="M135.5 611.5h880" pointer-events="none"/>
            <text text-anchor="middle" transform="translate(575.5 812.5)" font-family="sans-serif" font-size="14" font-weight="400" pointer-events="none">
                module
            </text>
        </g>
        <g class="mark-group role-axis">
            <path class="background" d="M135.5 11.5z" pointer-events="none" fill="none"/>
            <g class="mark-rule role-axis-tick" pointer-events="none" fill="none" stroke="#888">
                <path d="M135.5 611.5h-5M135.5 581.5h-5M135.5 551.5h-5M135.5 521.5h-5M135.5 491.5h-5M135.5 461.5h-5M135.5 431.5h-5M135.5 401.5h-5M135.5 371.5h-5M135.5 341.5h-5M135.5 311.5h-5M135.5 281.5h-5M135.5 251.5h-5M135.5 221.5h-5M135.5 191.5h-5M135.5 161.5h-5M135.5 131.5h-5M135.5 101.5h-5M135.5 71.5h-5M135.5 41.5h-5M135.5 11.5h-5"/>
            </g>
            <g class="mark-text role-axis-label" pointer-events="none" text-anchor="end" font-family="sans-serif" font-size="12">
                <text transform="translate(128.5 615.5)">
                    0
                </text>
                <text transform="translate(128.5 585.5)">
                    5,000,000
                </text>
                <text transform="translate(128.5 555.5)">
                    10,000,000
                </text>
                <text transform="translate(128.5 525.5)">
                    15,000,000
                </text>
                <text transform="translate(128.5 495.5)">
                    20,000,000
                </text>
                <text transform="translate(128.5 465.5)">
                    25,000,000
                </text>
                <text transform="translate(128.5 435.5)">
                    30,000,000
                </text>
                <text transform="translate(128.5 405.5)">
                    35,000,000
                </text>
                <text transform="translate(128.5 375.5)">
                    40,000,000
                </text>
                <text transform="translate(128.5 345.5)">
                    45,000,000
                </text>
                <text transform="translate(128.5 315.5)">
                    50,000,000
                </text>
                <text transform="translate(128.5 285.5)">
                    55,000,000
                </text>
                <text transform="translate(128.5 255.5)">
                    60,000,000
                </text>
                <text transform="translate(128.5 225.5)">
                    65,000,000
                </text>
                <text transform="translate(128.5 195.5)">
                    70,000,000
                </text>
                <text transform="translate(128.5 165.5)">
                    75,000,000
                </text>
                <text transform="translate(128.5 135.5)">
                    80,000,000
                </text>
                <text transform="translate(128.5 105.5)">
                    85,000,000
                </text>
                <text transform="translate(128.5 75.5)">
                    90,000,000
                </text>
                <text transform="translate(128.5 45.5)">
                    95,000,000
                </text>
                <text transform="translate(128.5 15.5)">
                    100,000,000
                </text>
            </g>
            <path fill="none" stroke="#888" d="M135.5 611.5v-600" pointer-events="none"/>
            <text text-anchor="middle" transform="rotate(-90 164 147.5)" font-family="sans-serif" font-size="14" font-weight="400" pointer-events="none">
                operations / sec
            </text>
        </g>
        <g class="mark-rect role-mark marks" fill="#4c78a8">
            <path d="M137.933 610.875h52.8V611h-52.8zM196.6 610.812h52.8V611h-52.8zM255.267 606.715h52.8V611h-52.8zM313.933 598.45h52.8V611h-52.8zM372.6 606.755h52.8V611h-52.8zM431.267 585.071h52.8V611h-52.8zM489.933 603.85h52.8V611h-52.8zM548.6 606.566h52.8V611h-52.8zM607.267 20.768h52.8V611h-52.8zM665.933 606.67h52.8V611h-52.8zM724.6 608.408h52.8V611h-52.8zM783.267 418.536h52.8V611h-52.8zM841.933 610.211h52.8V611h-52.8zM900.6 610.905h52.8V611h-52.8zM959.267 610.601h52.8V611h-52.8z"/>
        </g>
    </g>
</svg>
