<svg xmlns="http://www.w3.org/2000/svg" class="marks" width="1001" height="820">
    <path fill="#fff" d="M0 0h1001v820H0z"/>
    <g class="mark-group role-frame root" aria-roledescription="group mark container" fill="none" stroke-miterlimit="10">
        <path class="background" aria-hidden="true" d="M116.5 11.5h880v600h-880z" stroke="#ddd"/>
        <g class="mark-group role-axis" aria-hidden="true">
            <path class="background" aria-hidden="true" d="M116.5 11.5z" pointer-events="none"/>
            <g class="mark-rule role-axis-grid" pointer-events="none" stroke="#ddd">
                <path d="M116.5 611.5h880M116.5 571.5h880M116.5 531.5h880M116.5 491.5h880M116.5 451.5h880M116.5 411.5h880M116.5 371.5h880M116.5 331.5h880M116.5 291.5h880M116.5 251.5h880M116.5 211.5h880M116.5 171.5h880M116.5 131.5h880M116.5 91.5h880M116.5 51.5h880M116.5 11.5h880"/>
            </g>
        </g>
        <g class="mark-group role-axis" aria-roledescription="axis" aria-label="X-axis titled 'module' for a discrete scale with 17 values: bueno, class-transformer-validator-async, class-transformer-validator-sync, computed-types, io-ts, ending with zod">
            <path class="background" aria-hidden="true" d="M116.5 611.5z" pointer-events="none"/>
            <g class="mark-rule role-axis-tick" pointer-events="none" stroke="#888">
                <path d="M141.5 611.5v5M193.5 611.5v5M245.5 611.5v5M297.5 611.5v5M348.5 611.5v5M400.5 611.5v5M452.5 611.5v5M504.5 611.5v5M556.5 611.5v5M607.5 611.5v5M659.5 611.5v5M711.5 611.5v5M763.5 611.5v5M814.5 611.5v5M866.5 611.5v5M918.5 611.5v5M970.5 611.5v5"/>
            </g>
            <g class="mark-text role-axis-label" pointer-events="none" font-family="sans-serif" font-size="14" fill="#000">
                <text transform="rotate(90 -240.309 378.191)">
                    bueno
                </text>
                <text transform="rotate(90 -214.426 404.074)">
                    class-transform…
                </text>
                <text transform="rotate(90 -188.544 429.956)">
                    class-transform…
                </text>
                <text transform="rotate(90 -162.662 455.838)">
                    computed-types
                </text>
                <text transform="rotate(90 -136.78 481.72)">
                    io-ts
                </text>
                <text transform="rotate(90 -110.897 507.603)">
                    jointz
                </text>
                <text transform="rotate(90 -85.015 533.485)">
                    json-decoder
                </text>
                <text transform="rotate(90 -59.132 559.368)">
                    myzod
                </text>
                <text transform="rotate(90 -33.25 585.25)">
                    purify-ts
                </text>
                <text transform="rotate(90 -7.368 611.132)">
                    rulr
                </text>
                <text transform="rotate(90 18.515 637.015)">
                    runtypes
                </text>
                <text transform="rotate(90 44.397 662.897)">
                    simple-runtypes
                </text>
                <text transform="rotate(90 70.28 688.78)">
                    superstruct
                </text>
                <text transform="rotate(90 96.162 714.662)">
                    toi
                </text>
                <text transform="rotate(90 122.044 740.544)">
                    ts-utils
                </text>
                <text transform="rotate(90 147.926 766.426)">
                    yup
                </text>
                <text transform="rotate(90 173.809 792.309)">
                    zod
                </text>
            </g>
            <path stroke="#888" d="M116.5 611.5h880" pointer-events="none"/>
            <text text-anchor="middle" transform="translate(556.5 812.5)" font-family="sans-serif" font-size="14" fill="#000" pointer-events="none">
                module
            </text>
        </g>
        <g class="mark-group role-axis" aria-roledescription="axis" aria-label="Y-axis titled 'operations / sec' for a linear scale with values from 0 to 3,000,000">
            <path class="background" aria-hidden="true" d="M116.5 11.5z" pointer-events="none"/>
            <g class="mark-rule role-axis-tick" pointer-events="none" stroke="#888">
                <path d="M116.5 611.5h-5M116.5 571.5h-5M116.5 531.5h-5M116.5 491.5h-5M116.5 451.5h-5M116.5 411.5h-5M116.5 371.5h-5M116.5 331.5h-5M116.5 291.5h-5M116.5 251.5h-5M116.5 211.5h-5M116.5 171.5h-5M116.5 131.5h-5M116.5 91.5h-5M116.5 51.5h-5M116.5 11.5h-5"/>
            </g>
            <g class="mark-text role-axis-label" pointer-events="none" text-anchor="end" font-family="sans-serif" font-size="12" fill="#000">
                <text transform="translate(109.5 615.5)">
                    0
                </text>
                <text transform="translate(109.5 575.5)">
                    200,000
                </text>
                <text transform="translate(109.5 535.5)">
                    400,000
                </text>
                <text transform="translate(109.5 495.5)">
                    600,000
                </text>
                <text transform="translate(109.5 455.5)">
                    800,000
                </text>
                <text transform="translate(109.5 415.5)">
                    1,000,000
                </text>
                <text transform="translate(109.5 375.5)">
                    1,200,000
                </text>
                <text transform="translate(109.5 335.5)">
                    1,400,000
                </text>
                <text transform="translate(109.5 295.5)">
                    1,600,000
                </text>
                <text transform="translate(109.5 255.5)">
                    1,800,000
                </text>
                <text transform="translate(109.5 215.5)">
                    2,000,000
                </text>
                <text transform="translate(109.5 175.5)">
                    2,200,000
                </text>
                <text transform="translate(109.5 135.5)">
                    2,400,000
                </text>
                <text transform="translate(109.5 95.5)">
                    2,600,000
                </text>
                <text transform="translate(109.5 55.5)">
                    2,800,000
                </text>
                <text transform="translate(109.5 15.5)">
                    3,000,000
                </text>
            </g>
            <path stroke="#888" d="M116.5 611.5v-600" pointer-events="none"/>
            <text text-anchor="middle" transform="rotate(-90 164 147.5)" font-family="sans-serif" font-size="14" fill="#000" pointer-events="none">
                operations / sec
            </text>
        </g>
        <g class="mark-rect role-mark marks" aria-roledescription="rect mark container" fill="#4c78a8">
            <path aria-label="operations / sec: 175182; module: bueno" aria-roledescription="bar" d="M118.588 575.964h46.588V611h-46.588z"/>
            <path aria-label="operations / sec: 40519; module: class-transformer-validator-async" aria-roledescription="bar" d="M170.353 602.896h46.588V611h-46.588z"/>
            <path aria-label="operations / sec: 46869; module: class-transformer-validator-sync" aria-roledescription="bar" d="M222.118 601.626h46.588V611h-46.588z"/>
            <path aria-label="operations / sec: 703886; module: computed-types" aria-roledescription="bar" d="M273.882 470.223h46.589V611h-46.589z"/>
            <path aria-label="operations / sec: 2845340; module: io-ts" aria-roledescription="bar" d="M325.647 41.932h46.588V611h-46.588z"/>
            <path aria-label="operations / sec: 1747847; module: jointz" aria-roledescription="bar" d="M377.412 261.43H424V611h-46.588z"/>
            <path aria-label="operations / sec: 863030; module: json-decoder" aria-roledescription="bar" d="M429.176 438.394h46.589V611h-46.589z"/>
            <path aria-label="operations / sec: 1615081; module: myzod" aria-roledescription="bar" d="M480.941 287.984h46.588V611h-46.588z"/>
            <path aria-label="operations / sec: 955530; module: purify-ts" aria-roledescription="bar" d="M532.706 419.894h46.588V611h-46.588z"/>
            <path aria-label="operations / sec: 879250; module: rulr" aria-roledescription="bar" d="M584.47 435.15h46.589V611H584.47z"/>
            <path aria-label="operations / sec: 918991; module: runtypes" aria-roledescription="bar" d="M636.235 427.202h46.589V611h-46.589z"/>
            <path aria-label="operations / sec: 2040507; module: simple-runtypes" aria-roledescription="bar" d="M688 202.899h46.588V611H688z"/>
            <path aria-label="operations / sec: 79135; module: superstruct" aria-roledescription="bar" d="M739.765 595.173h46.588V611h-46.588z"/>
            <path aria-label="operations / sec: 478286; module: toi" aria-roledescription="bar" d="M791.53 515.343h46.588V611h-46.589z"/>
            <path aria-label="operations / sec: 146016; module: ts-utils" aria-roledescription="bar" d="M843.294 581.797h46.588V611h-46.588z"/>
            <path aria-label="operations / sec: 18133; module: yup" aria-roledescription="bar" d="M895.059 607.373h46.588V611H895.06z"/>
            <path aria-label="operations / sec: 8043; module: zod" aria-roledescription="bar" d="M946.824 609.391h46.588V611h-46.588z"/>
        </g>
    </g>
</svg>
