<svg class="marks" width="1011" height="820" viewBox="0 0 1011 820" version="1.1" xmlns="http://www.w3.org/2000/svg" xmlns:xlink="http://www.w3.org/1999/xlink"><rect width="1011" height="820" fill="white"></rect><g fill="none" stroke-miterlimit="10" transform="translate(126,11)"><g class="mark-group role-frame root" role="graphics-object" aria-roledescription="group mark container"><g transform="translate(0,0)"><path class="background" aria-hidden="true" d="M0.5,0.5h880v600h-880Z" stroke="#ddd"></path><g><g class="mark-group role-axis" aria-hidden="true"><g transform="translate(0.5,0.5)"><path class="background" aria-hidden="true" d="M0,0h0v0h0Z" pointer-events="none"></path><g><g class="mark-rule role-axis-grid" pointer-events="none"><line transform="translate(0,600)" x2="880" y2="0" stroke="#ddd" stroke-width="1" opacity="1"></line><line transform="translate(0,560)" x2="880" y2="0" stroke="#ddd" stroke-width="1" opacity="1"></line><line transform="translate(0,520)" x2="880" y2="0" stroke="#ddd" stroke-width="1" opacity="1"></line><line transform="translate(0,480)" x2="880" y2="0" stroke="#ddd" stroke-width="1" opacity="1"></line><line transform="translate(0,440)" x2="880" y2="0" stroke="#ddd" stroke-width="1" opacity="1"></line><line transform="translate(0,400)" x2="880" y2="0" stroke="#ddd" stroke-width="1" opacity="1"></line><line transform="translate(0,360)" x2="880" y2="0" stroke="#ddd" stroke-width="1" opacity="1"></line><line transform="translate(0,320)" x2="880" y2="0" stroke="#ddd" stroke-width="1" opacity="1"></line><line transform="translate(0,280)" x2="880" y2="0" stroke="#ddd" stroke-width="1" opacity="1"></line><line transform="translate(0,240)" x2="880" y2="0" stroke="#ddd" stroke-width="1" opacity="1"></line><line transform="translate(0,200)" x2="880" y2="0" stroke="#ddd" stroke-width="1" opacity="1"></line><line transform="translate(0,160)" x2="880" y2="0" stroke="#ddd" stroke-width="1" opacity="1"></line><line transform="translate(0,120)" x2="880" y2="0" stroke="#ddd" stroke-width="1" opacity="1"></line><line transform="translate(0,80)" x2="880" y2="0" stroke="#ddd" stroke-width="1" opacity="1"></line><line transform="translate(0,40)" x2="880" y2="0" stroke="#ddd" stroke-width="1" opacity="1"></line><line transform="translate(0,0)" x2="880" y2="0" stroke="#ddd" stroke-width="1" opacity="1"></line></g></g><path class="foreground" aria-hidden="true" d="" pointer-events="none" display="none"></path></g></g><g class="mark-group role-axis" role="graphics-symbol" aria-roledescription="axis" aria-label="X-axis titled 'module' for a discrete scale with 16 values: class-transformer-validator-async, class-transformer-validator-sync, computed-types, io-ts, jointz, ending with zod"><g transform="translate(0.5,600.5)"><path class="background" aria-hidden="true" d="M0,0h0v0h0Z" pointer-events="none"></path><g><g class="mark-rule role-axis-tick" pointer-events="none"><line transform="translate(27,0)" x2="0" y2="5" stroke="#888" stroke-width="1" opacity="1"></line><line transform="translate(82,0)" x2="0" y2="5" stroke="#888" stroke-width="1" opacity="1"></line><line transform="translate(137,0)" x2="0" y2="5" stroke="#888" stroke-width="1" opacity="1"></line><line transform="translate(192,0)" x2="0" y2="5" stroke="#888" stroke-width="1" opacity="1"></line><line transform="translate(247,0)" x2="0" y2="5" stroke="#888" stroke-width="1" opacity="1"></line><line transform="translate(302,0)" x2="0" y2="5" stroke="#888" stroke-width="1" opacity="1"></line><line transform="translate(357,0)" x2="0" y2="5" stroke="#888" stroke-width="1" opacity="1"></line><line transform="translate(412,0)" x2="0" y2="5" stroke="#888" stroke-width="1" opacity="1"></line><line transform="translate(467,0)" x2="0" y2="5" stroke="#888" stroke-width="1" opacity="1"></line><line transform="translate(522,0)" x2="0" y2="5" stroke="#888" stroke-width="1" opacity="1"></line><line transform="translate(577,0)" x2="0" y2="5" stroke="#888" stroke-width="1" opacity="1"></line><line transform="translate(632,0)" x2="0" y2="5" stroke="#888" stroke-width="1" opacity="1"></line><line transform="translate(687,0)" x2="0" y2="5" stroke="#888" stroke-width="1" opacity="1"></line><line transform="translate(742,0)" x2="0" y2="5" stroke="#888" stroke-width="1" opacity="1"></line><line transform="translate(797,0)" x2="0" y2="5" stroke="#888" stroke-width="1" opacity="1"></line><line transform="translate(852,0)" x2="0" y2="5" stroke="#888" stroke-width="1" opacity="1"></line></g><g class="mark-text role-axis-label" pointer-events="none"><text text-anchor="start" transform="translate(27,7) rotate(90) translate(0,4)" font-family="sans-serif" font-size="14px" fill="#000" opacity="1">class-transform…</text><text text-anchor="start" transform="translate(82,7) rotate(90) translate(0,4)" font-family="sans-serif" font-size="14px" fill="#000" opacity="1">class-transform…</text><text text-anchor="start" transform="translate(137,7) rotate(90) translate(0,4)" font-family="sans-serif" font-size="14px" fill="#000" opacity="1">computed-types</text><text text-anchor="start" transform="translate(192,7) rotate(90) translate(0,4)" font-family="sans-serif" font-size="14px" fill="#000" opacity="1">io-ts</text><text text-anchor="start" transform="translate(247,7) rotate(90) translate(0,4)" font-family="sans-serif" font-size="14px" fill="#000" opacity="1">jointz</text><text text-anchor="start" transform="translate(302,7) rotate(90) translate(0,4)" font-family="sans-serif" font-size="14px" fill="#000" opacity="1">json-decoder</text><text text-anchor="start" transform="translate(357,7) rotate(90) translate(0,4)" font-family="sans-serif" font-size="14px" fill="#000" opacity="1">marshal</text><text text-anchor="start" transform="translate(412,7) rotate(90) translate(0,4)" font-family="sans-serif" font-size="14px" fill="#000" opacity="1">myzod</text><text text-anchor="start" transform="translate(467,7) rotate(90) translate(0,4)" font-family="sans-serif" font-size="14px" fill="#000" opacity="1">purify-ts</text><text text-anchor="start" transform="translate(522,7) rotate(90) translate(0,4)" font-family="sans-serif" font-size="14px" fill="#000" opacity="1">quartet</text><text text-anchor="start" transform="translate(577,7) rotate(90) translate(0,4)" font-family="sans-serif" font-size="14px" fill="#000" opacity="1">runtypes</text><text text-anchor="start" transform="translate(632,7) rotate(90) translate(0,4)" font-family="sans-serif" font-size="14px" fill="#000" opacity="1">toi</text><text text-anchor="start" transform="translate(687,7) rotate(90) translate(0,4)" font-family="sans-serif" font-size="14px" fill="#000" opacity="1">ts-json-validat…</text><text text-anchor="start" transform="translate(742,7) rotate(90) translate(0,4)" font-family="sans-serif" font-size="14px" fill="#000" opacity="1">ts-utils</text><text text-anchor="start" transform="translate(797,7) rotate(90) translate(0,4)" font-family="sans-serif" font-size="14px" fill="#000" opacity="1">yup</text><text text-anchor="start" transform="translate(852,7) rotate(90) translate(0,4)" font-family="sans-serif" font-size="14px" fill="#000" opacity="1">zod</text></g><g class="mark-rule role-axis-domain" pointer-events="none"><line transform="translate(0,0)" x2="880" y2="0" stroke="#888" stroke-width="1" opacity="1"></line></g><g class="mark-text role-axis-title" pointer-events="none"><text text-anchor="middle" transform="translate(440,201)" font-family="sans-serif" font-size="14px" font-weight="normal" fill="#000" opacity="1">module</text></g></g><path class="foreground" aria-hidden="true" d="" pointer-events="none" display="none"></path></g></g><g class="mark-group role-axis" role="graphics-symbol" aria-roledescription="axis" aria-label="Y-axis titled 'operations / sec' for a linear scale with values from 0 to 30,000,000"><g transform="translate(0.5,0.5)"><path class="background" aria-hidden="true" d="M0,0h0v0h0Z" pointer-events="none"></path><g><g class="mark-rule role-axis-tick" pointer-events="none"><line transform="translate(0,600)" x2="-5" y2="0" stroke="#888" stroke-width="1" opacity="1"></line><line transform="translate(0,560)" x2="-5" y2="0" stroke="#888" stroke-width="1" opacity="1"></line><line transform="translate(0,520)" x2="-5" y2="0" stroke="#888" stroke-width="1" opacity="1"></line><line transform="translate(0,480)" x2="-5" y2="0" stroke="#888" stroke-width="1" opacity="1"></line><line transform="translate(0,440)" x2="-5" y2="0" stroke="#888" stroke-width="1" opacity="1"></line><line transform="translate(0,400)" x2="-5" y2="0" stroke="#888" stroke-width="1" opacity="1"></line><line transform="translate(0,360)" x2="-5" y2="0" stroke="#888" stroke-width="1" opacity="1"></line><line transform="translate(0,320)" x2="-5" y2="0" stroke="#888" stroke-width="1" opacity="1"></line><line transform="translate(0,280)" x2="-5" y2="0" stroke="#888" stroke-width="1" opacity="1"></line><line transform="translate(0,240)" x2="-5" y2="0" stroke="#888" stroke-width="1" opacity="1"></line><line transform="translate(0,200)" x2="-5" y2="0" stroke="#888" stroke-width="1" opacity="1"></line><line transform="translate(0,160)" x2="-5" y2="0" stroke="#888" stroke-width="1" opacity="1"></line><line transform="translate(0,120)" x2="-5" y2="0" stroke="#888" stroke-width="1" opacity="1"></line><line transform="translate(0,80)" x2="-5" y2="0" stroke="#888" stroke-width="1" opacity="1"></line><line transform="translate(0,40)" x2="-5" y2="0" stroke="#888" stroke-width="1" opacity="1"></line><line transform="translate(0,0)" x2="-5" y2="0" stroke="#888" stroke-width="1" opacity="1"></line></g><g class="mark-text role-axis-label" pointer-events="none"><text text-anchor="end" transform="translate(-7,604)" font-family="sans-serif" font-size="12px" fill="#000" opacity="1">0</text><text text-anchor="end" transform="translate(-7,564)" font-family="sans-serif" font-size="12px" fill="#000" opacity="1">2,000,000</text><text text-anchor="end" transform="translate(-7,524)" font-family="sans-serif" font-size="12px" fill="#000" opacity="1">4,000,000</text><text text-anchor="end" transform="translate(-7,484)" font-family="sans-serif" font-size="12px" fill="#000" opacity="1">6,000,000</text><text text-anchor="end" transform="translate(-7,444.00000000000006)" font-family="sans-serif" font-size="12px" fill="#000" opacity="1">8,000,000</text><text text-anchor="end" transform="translate(-7,404.00000000000006)" font-family="sans-serif" font-size="12px" fill="#000" opacity="1">10,000,000</text><text text-anchor="end" transform="translate(-7,364)" font-family="sans-serif" font-size="12px" fill="#000" opacity="1">12,000,000</text><text text-anchor="end" transform="translate(-7,324)" font-family="sans-serif" font-size="12px" fill="#000" opacity="1">14,000,000</text><text text-anchor="end" transform="translate(-7,284)" font-family="sans-serif" font-size="12px" fill="#000" opacity="1">16,000,000</text><text text-anchor="end" transform="translate(-7,244)" font-family="sans-serif" font-size="12px" fill="#000" opacity="1">18,000,000</text><text text-anchor="end" transform="translate(-7,204.00000000000003)" font-family="sans-serif" font-size="12px" fill="#000" opacity="1">20,000,000</text><text text-anchor="end" transform="translate(-7,164.00000000000003)" font-family="sans-serif" font-size="12px" fill="#000" opacity="1">22,000,000</text><text text-anchor="end" transform="translate(-7,123.99999999999997)" font-family="sans-serif" font-size="12px" fill="#000" opacity="1">24,000,000</text><text text-anchor="end" transform="translate(-7,83.99999999999999)" font-family="sans-serif" font-size="12px" fill="#000" opacity="1">26,000,000</text><text text-anchor="end" transform="translate(-7,43.99999999999999)" font-family="sans-serif" font-size="12px" fill="#000" opacity="1">28,000,000</text><text text-anchor="end" transform="translate(-7,4)" font-family="sans-serif" font-size="12px" fill="#000" opacity="1">30,000,000</text></g><g class="mark-rule role-axis-domain" pointer-events="none"><line transform="translate(0,600)" x2="0" y2="-600" stroke="#888" stroke-width="1" opacity="1"></line></g><g class="mark-text role-axis-title" pointer-events="none"><text text-anchor="middle" transform="translate(-107,300) rotate(-90) translate(0,-3)" font-family="sans-serif" font-size="14px" font-weight="normal" fill="#000" opacity="1">operations / sec</text></g></g><path class="foreground" aria-hidden="true" d="" pointer-events="none" display="none"></path></g></g><g class="mark-rect role-mark marks" role="graphics-object" aria-roledescription="rect mark container"><path aria-label="operations / sec: 21212; module: class-transformer-validator-async" role="graphics-symbol" aria-roledescription="bar" d="M2.75,599.5757600000001h49.5v0.42423999999994066h-49.5Z" fill="#4c78a8"></path><path aria-label="operations / sec: 26323; module: class-transformer-validator-sync" role="graphics-symbol" aria-roledescription="bar" d="M57.75,599.47354h49.5v0.5264600000000428h-49.5Z" fill="#4c78a8"></path><path aria-label="operations / sec: 629746; module: computed-types" role="graphics-symbol" aria-roledescription="bar" d="M112.75,587.40508h49.5v12.594920000000002h-49.5Z" fill="#4c78a8"></path><path aria-label="operations / sec: 2541838; module: io-ts" role="graphics-symbol" aria-roledescription="bar" d="M167.75,549.1632400000001h49.5v50.83675999999991h-49.5Z" fill="#4c78a8"></path><path aria-label="operations / sec: 1427321; module: jointz" role="graphics-symbol" aria-roledescription="bar" d="M222.75,571.45358h49.5v28.546420000000012h-49.5Z" fill="#4c78a8"></path><path aria-label="operations / sec: 672268; module: json-decoder" role="graphics-symbol" aria-roledescription="bar" d="M277.75,586.55464h49.5v13.44536000000005h-49.5Z" fill="#4c78a8"></path><path aria-label="operations / sec: 12136793; module: marshal" role="graphics-symbol" aria-roledescription="bar" d="M332.75,357.26414h49.5v242.73586h-49.5Z" fill="#4c78a8"></path><path aria-label="operations / sec: 1326560; module: myzod" role="graphics-symbol" aria-roledescription="bar" d="M387.75,573.4688h49.5v26.531200000000013h-49.5Z" fill="#4c78a8"></path><path aria-label="operations / sec: 759602; module: purify-ts" role="graphics-symbol" aria-roledescription="bar" d="M442.75,584.80796h49.5v15.19204000000002h-49.5Z" fill="#4c78a8"></path><path aria-label="operations / sec: 28539341; module: quartet" role="graphics-symbol" aria-roledescription="bar" d="M497.75,29.213179999999973h49.5v570.78682h-49.5Z" fill="#4c78a8"></path><path aria-label="operations / sec: 744673; module: runtypes" role="graphics-symbol" aria-roledescription="bar" d="M552.75,585.10654h49.5v14.893460000000005h-49.5Z" fill="#4c78a8"></path><path aria-label="operations / sec: 432978; module: toi" role="graphics-symbol" aria-roledescription="bar" d="M607.75,591.34044h49.5v8.659560000000056h-49.5Z" fill="#4c78a8"></path><path aria-label="operations / sec: 19351134; module: ts-json-validator" role="graphics-symbol" aria-roledescription="bar" d="M662.75,212.97732h49.5v387.02268000000004h-49.5Z" fill="#4c78a8"></path><path aria-label="operations / sec: 128066; module: ts-utils" role="graphics-symbol" aria-roledescription="bar" d="M717.75,597.43868h49.5v2.5613200000000234h-49.5Z" fill="#4c78a8"></path><path aria-label="operations / sec: 13468; module: yup" role="graphics-symbol" aria-roledescription="bar" d="M772.75,599.73064h49.5v0.26936000000000604h-49.5Z" fill="#4c78a8"></path><path aria-label="operations / sec: 50252; module: zod" role="graphics-symbol" aria-roledescription="bar" d="M827.75,598.99496h49.5v1.0050400000000081h-49.5Z" fill="#4c78a8"></path></g></g><path class="foreground" aria-hidden="true" d="" display="none"></path></g></g></g></svg>