<svg class="marks" width="1001" height="814" xmlns="http://www.w3.org/2000/svg">
    <path fill="#fff" d="M0 0h1001v814H0z"/>
    <g class="mark-group role-frame root" aria-roledescription="group mark container" fill="none" stroke-miterlimit="10">
        <path class="background" aria-hidden="true" d="M116.5 5.5h880v600h-880z" stroke="#ddd"/>
        <g class="mark-group role-axis" aria-hidden="true">
            <path class="background" aria-hidden="true" d="M116.5 5.5z" pointer-events="none"/>
            <g class="mark-rule role-axis-grid" pointer-events="none" stroke="#ddd">
                <path d="M116.5 605.5h880M116.5 571.5h880M116.5 536.5h880M116.5 502.5h880M116.5 468.5h880M116.5 434.5h880M116.5 399.5h880M116.5 365.5h880M116.5 331.5h880M116.5 296.5h880M116.5 262.5h880M116.5 228.5h880M116.5 194.5h880M116.5 159.5h880M116.5 125.5h880M116.5 91.5h880M116.5 56.5h880M116.5 22.5h880"/>
            </g>
        </g>
        <g class="mark-group role-axis" aria-roledescription="axis" aria-label="X-axis titled 'module' for a discrete scale with 16 values: bueno, class-transformer-validator-async, class-transformer-validator-sync, computed-types, io-ts, ending with zod">
            <path class="background" aria-hidden="true" d="M116.5 605.5z" pointer-events="none"/>
            <g class="mark-rule role-axis-tick" pointer-events="none" stroke="#888">
                <path d="M143.5 605.5v5M198.5 605.5v5M253.5 605.5v5M308.5 605.5v5M363.5 605.5v5M418.5 605.5v5M473.5 605.5v5M528.5 605.5v5M583.5 605.5v5M638.5 605.5v5M693.5 605.5v5M748.5 605.5v5M803.5 605.5v5M858.5 605.5v5M913.5 605.5v5M968.5 605.5v5"/>
            </g>
            <g class="mark-text role-axis-label" pointer-events="none" font-family="sans-serif" font-size="14" fill="#000">
                <text transform="rotate(90 -236.5 376)">
                    bueno
                </text>
                <text transform="rotate(90 -209 403.5)">
                    class-transform…
                </text>
                <text transform="rotate(90 -181.5 431)">
                    class-transform…
                </text>
                <text transform="rotate(90 -154 458.5)">
                    computed-types
                </text>
                <text transform="rotate(90 -126.5 486)">
                    io-ts
                </text>
                <text transform="rotate(90 -99 513.5)">
                    jointz
                </text>
                <text transform="rotate(90 -71.5 541)">
                    json-decoder
                </text>
                <text transform="rotate(90 -44 568.5)">
                    myzod
                </text>
                <text transform="rotate(90 -16.5 596)">
                    purify-ts
                </text>
                <text transform="rotate(90 11 623.5)">
                    rulr
                </text>
                <text transform="rotate(90 38.5 651)">
                    runtypes
                </text>
                <text transform="rotate(90 66 678.5)">
                    simple-runtypes
                </text>
                <text transform="rotate(90 93.5 706)">
                    toi
                </text>
                <text transform="rotate(90 121 733.5)">
                    ts-utils
                </text>
                <text transform="rotate(90 148.5 761)">
                    yup
                </text>
                <text transform="rotate(90 176 788.5)">
                    zod
                </text>
            </g>
            <path stroke="#888" d="M116.5 605.5h880" pointer-events="none"/>
            <text text-anchor="middle" transform="translate(556.5 806.5)" font-family="sans-serif" font-size="14" fill="#000" pointer-events="none">
                module
            </text>
        </g>
        <g class="mark-group role-axis" aria-roledescription="axis" aria-label="Y-axis titled 'operations / sec' for a linear scale with values from 0 to 3,500,000">
            <path class="background" aria-hidden="true" d="M116.5 5.5z" pointer-events="none"/>
            <g class="mark-rule role-axis-tick" pointer-events="none" stroke="#888">
                <path d="M116.5 605.5h-5M116.5 571.5h-5M116.5 536.5h-5M116.5 502.5h-5M116.5 468.5h-5M116.5 434.5h-5M116.5 399.5h-5M116.5 365.5h-5M116.5 331.5h-5M116.5 296.5h-5M116.5 262.5h-5M116.5 228.5h-5M116.5 194.5h-5M116.5 159.5h-5M116.5 125.5h-5M116.5 91.5h-5M116.5 56.5h-5M116.5 22.5h-5"/>
            </g>
            <g class="mark-text role-axis-label" pointer-events="none" text-anchor="end" font-family="sans-serif" font-size="12" fill="#000">
                <text transform="translate(109.5 609.5)">
                    0
                </text>
                <text transform="translate(109.5 575.214)">
                    200,000
                </text>
                <text transform="translate(109.5 540.929)">
                    400,000
                </text>
                <text transform="translate(109.5 506.643)">
                    600,000
                </text>
                <text transform="translate(109.5 472.357)">
                    800,000
                </text>
                <text transform="translate(109.5 438.071)">
                    1,000,000
                </text>
                <text transform="translate(109.5 403.786)">
                    1,200,000
                </text>
                <text transform="translate(109.5 369.5)">
                    1,400,000
                </text>
                <text transform="translate(109.5 335.214)">
                    1,600,000
                </text>
                <text transform="translate(109.5 300.929)">
                    1,800,000
                </text>
                <text transform="translate(109.5 266.643)">
                    2,000,000
                </text>
                <text transform="translate(109.5 232.357)">
                    2,200,000
                </text>
                <text transform="translate(109.5 198.071)">
                    2,400,000
                </text>
                <text transform="translate(109.5 163.786)">
                    2,600,000
                </text>
                <text transform="translate(109.5 129.5)">
                    2,800,000
                </text>
                <text transform="translate(109.5 95.214)">
                    3,000,000
                </text>
                <text transform="translate(109.5 60.929)">
                    3,200,000
                </text>
                <text transform="translate(109.5 26.643)">
                    3,400,000
                </text>
            </g>
            <path stroke="#888" d="M116.5 605.5V5.5" pointer-events="none"/>
            <text text-anchor="middle" transform="rotate(-90 161 144.5)" font-family="sans-serif" font-size="14" fill="#000" pointer-events="none">
                operations / sec
            </text>
        </g>
        <g class="mark-rect role-mark marks" aria-roledescription="rect mark container" fill="#4c78a8">
            <path aria-label="operations / sec: 170387; module: bueno" aria-roledescription="bar" d="M118.75 575.79h49.5V605h-49.5z"/>
            <path aria-label="operations / sec: 32553; module: class-transformer-validator-async" aria-roledescription="bar" d="M173.75 599.42h49.5V605h-49.5z"/>
            <path aria-label="operations / sec: 40151; module: class-transformer-validator-sync" aria-roledescription="bar" d="M228.75 598.117h49.5V605h-49.5z"/>
            <path aria-label="operations / sec: 764438; module: computed-types" aria-roledescription="bar" d="M283.75 473.953h49.5V605h-49.5z"/>
            <path aria-label="operations / sec: 3059414; module: io-ts" aria-roledescription="bar" d="M338.75 80.529h49.5V605h-49.5z"/>
            <path aria-label="operations / sec: 1773563; module: jointz" aria-roledescription="bar" d="M393.75 300.96h49.5V605h-49.5z"/>
            <path aria-label="operations / sec: 869306; module: json-decoder" aria-roledescription="bar" d="M448.75 455.976h49.5V605h-49.5z"/>
            <path aria-label="operations / sec: 1605218; module: myzod" aria-roledescription="bar" d="M503.75 329.82h49.5V605h-49.5z"/>
            <path aria-label="operations / sec: 940941; module: purify-ts" aria-roledescription="bar" d="M558.75 443.696h49.5V605h-49.5z"/>
            <path aria-label="operations / sec: 836744; module: rulr" aria-roledescription="bar" d="M613.75 461.558h49.5V605h-49.5z"/>
            <path aria-label="operations / sec: 889265; module: runtypes" aria-roledescription="bar" d="M668.75 452.555h49.5V605h-49.5z"/>
            <path aria-label="operations / sec: 1966048; module: simple-runtypes" aria-roledescription="bar" d="M723.75 267.963h49.5V605h-49.5z"/>
            <path aria-label="operations / sec: 501082; module: toi" aria-roledescription="bar" d="M778.75 519.1h49.5V605h-49.5z"/>
            <path aria-label="operations / sec: 147044; module: ts-utils" aria-roledescription="bar" d="M833.75 579.792h49.5V605h-49.5z"/>
            <path aria-label="operations / sec: 14354; module: yup" aria-roledescription="bar" d="M888.75 602.54h49.5V605h-49.5z"/>
            <path aria-label="operations / sec: 8333; module: zod" aria-roledescription="bar" d="M943.75 603.571h49.5V605h-49.5z"/>
        </g>
    </g>
</svg>
