<svg xmlns="http://www.w3.org/2000/svg" class="marks" width="1001" height="820">
    <path fill="#fff" d="M0 0h1001v820H0z"/>
    <g class="mark-group role-frame root" aria-roledescription="group mark container" fill="none" stroke-miterlimit="10">
        <path class="background" aria-hidden="true" d="M116.5 11.5h880v600h-880z" stroke="#ddd"/>
        <g class="mark-group role-axis" aria-roledescription="axis" aria-label="Y-axis for a linear scale with values from 0 to 1,400,000">
            <path class="background" aria-hidden="true" d="M116.5 11.5z" pointer-events="none"/>
            <g class="mark-rule role-axis-grid" pointer-events="none" stroke="#ddd">
                <path d="M116.5 611.5h880M116.5 568.5h880M116.5 525.5h880M116.5 482.5h880M116.5 440.5h880M116.5 397.5h880M116.5 354.5h880M116.5 311.5h880M116.5 268.5h880M116.5 225.5h880M116.5 182.5h880M116.5 140.5h880M116.5 97.5h880M116.5 54.5h880M116.5 11.5h880"/>
            </g>
        </g>
        <g class="mark-group role-axis" aria-roledescription="axis" aria-label="X-axis titled 'module' for a discrete scale with 17 values: bueno, class-transformer-validator-async, class-transformer-validator-sync, computed-types, decoders, ending with zod">
            <path class="background" aria-hidden="true" d="M116.5 611.5z" pointer-events="none"/>
            <g class="mark-rule role-axis-tick" pointer-events="none" stroke="#888">
                <path d="M141.5 611.5v5M193.5 611.5v5M245.5 611.5v5M297.5 611.5v5M348.5 611.5v5M400.5 611.5v5M452.5 611.5v5M504.5 611.5v5M556.5 611.5v5M607.5 611.5v5M659.5 611.5v5M711.5 611.5v5M763.5 611.5v5M814.5 611.5v5M866.5 611.5v5M918.5 611.5v5M970.5 611.5v5"/>
            </g>
            <g class="mark-text role-axis-label" pointer-events="none" font-family="sans-serif" font-size="14" fill="#000">
                <text transform="rotate(90 -240.309 378.191)">
                    bueno
                </text>
                <text transform="rotate(90 -214.426 404.074)">
                    class-transform…
                </text>
                <text transform="rotate(90 -188.544 429.956)">
                    class-transform…
                </text>
                <text transform="rotate(90 -162.662 455.838)">
                    computed-types
                </text>
                <text transform="rotate(90 -136.78 481.72)">
                    decoders
                </text>
                <text transform="rotate(90 -110.897 507.603)">
                    io-ts
                </text>
                <text transform="rotate(90 -85.015 533.485)">
                    jointz
                </text>
                <text transform="rotate(90 -59.132 559.368)">
                    json-decoder
                </text>
                <text transform="rotate(90 -33.25 585.25)">
                    myzod
                </text>
                <text transform="rotate(90 -7.368 611.132)">
                    purify-ts
                </text>
                <text transform="rotate(90 18.515 637.015)">
                    runtypes
                </text>
                <text transform="rotate(90 44.397 662.897)">
                    simple-runtypes
                </text>
                <text transform="rotate(90 70.28 688.78)">
                    superstruct
                </text>
                <text transform="rotate(90 96.162 714.662)">
                    toi
                </text>
                <text transform="rotate(90 122.044 740.544)">
                    ts-utils
                </text>
                <text transform="rotate(90 147.926 766.426)">
                    yup
                </text>
                <text transform="rotate(90 173.809 792.309)">
                    zod
                </text>
            </g>
            <path stroke="#888" d="M116.5 611.5h880" pointer-events="none"/>
            <text text-anchor="middle" transform="translate(556.5 812.5)" font-family="sans-serif" font-size="14" fill="#000" pointer-events="none">
                module
            </text>
        </g>
        <g class="mark-group role-axis" aria-roledescription="axis" aria-label="Y-axis titled 'operations / sec' for a linear scale with values from 0 to 1,400,000">
            <path class="background" aria-hidden="true" d="M116.5 11.5z" pointer-events="none"/>
            <g class="mark-rule role-axis-tick" pointer-events="none" stroke="#888">
                <path d="M116.5 611.5h-5M116.5 568.5h-5M116.5 525.5h-5M116.5 482.5h-5M116.5 440.5h-5M116.5 397.5h-5M116.5 354.5h-5M116.5 311.5h-5M116.5 268.5h-5M116.5 225.5h-5M116.5 182.5h-5M116.5 140.5h-5M116.5 97.5h-5M116.5 54.5h-5M116.5 11.5h-5"/>
            </g>
            <g class="mark-text role-axis-label" pointer-events="none" text-anchor="end" font-family="sans-serif" font-size="12" fill="#000">
                <text transform="translate(109.5 615.5)">
                    0
                </text>
                <text transform="translate(109.5 572.643)">
                    100,000
                </text>
                <text transform="translate(109.5 529.786)">
                    200,000
                </text>
                <text transform="translate(109.5 486.929)">
                    300,000
                </text>
                <text transform="translate(109.5 444.071)">
                    400,000
                </text>
                <text transform="translate(109.5 401.214)">
                    500,000
                </text>
                <text transform="translate(109.5 358.357)">
                    600,000
                </text>
                <text transform="translate(109.5 315.5)">
                    700,000
                </text>
                <text transform="translate(109.5 272.643)">
                    800,000
                </text>
                <text transform="translate(109.5 229.786)">
                    900,000
                </text>
                <text transform="translate(109.5 186.929)">
                    1,000,000
                </text>
                <text transform="translate(109.5 144.071)">
                    1,100,000
                </text>
                <text transform="translate(109.5 101.214)">
                    1,200,000
                </text>
                <text transform="translate(109.5 58.357)">
                    1,300,000
                </text>
                <text transform="translate(109.5 15.5)">
                    1,400,000
                </text>
            </g>
            <path stroke="#888" d="M116.5 611.5v-600" pointer-events="none"/>
            <text text-anchor="middle" transform="rotate(-90 164 147.5)" font-family="sans-serif" font-size="14" fill="#000" pointer-events="none">
                operations / sec
            </text>
        </g>
        <g class="mark-rect role-mark marks" aria-roledescription="rect mark container" fill="#4c78a8">
            <path d="M118.588 552.32h46.588V611h-46.588zM170.353 599.326h46.588V611h-46.588zM222.118 596.262h46.588V611h-46.588zM273.882 365.33h46.589V611h-46.589zM325.647 530.987h46.588V611h-46.588zM377.412 187.853H424V611h-46.588zM429.176 70.315h46.589V611h-46.589zM480.941 318.815h46.588V611h-46.588zM532.706 110.703h46.588V611h-46.588zM584.47 330.874h46.589V611H584.47zM636.235 325.768h46.589V611h-46.589zM688 15.71h46.588V611H688zM739.765 587.438h46.588V611h-46.588zM791.53 445.27h46.588V611h-46.589zM843.294 560.588h46.588V611h-46.588zM895.059 605.014h46.588V611H895.06zM946.824 608.008h46.588V611h-46.588z"/>
        </g>
    </g>
</svg>
