<svg xmlns="http://www.w3.org/2000/svg" class="marks" width="1001" height="820">
    <path fill="#fff" d="M0 0h1001v820H0z"/>
    <g class="mark-group role-frame root" aria-roledescription="group mark container" fill="none" stroke-miterlimit="10">
        <path class="background" aria-hidden="true" d="M116.5 11.5h880v600h-880z" stroke="#ddd"/>
        <g class="mark-group role-axis" aria-roledescription="axis" aria-label="Y-axis for a linear scale with values from 0 to 2,800,000">
            <path class="background" aria-hidden="true" d="M116.5 11.5z" pointer-events="none"/>
            <g class="mark-rule role-axis-grid" pointer-events="none" stroke="#ddd">
                <path d="M116.5 611.5h880M116.5 568.5h880M116.5 525.5h880M116.5 482.5h880M116.5 440.5h880M116.5 397.5h880M116.5 354.5h880M116.5 311.5h880M116.5 268.5h880M116.5 225.5h880M116.5 182.5h880M116.5 140.5h880M116.5 97.5h880M116.5 54.5h880M116.5 11.5h880"/>
            </g>
        </g>
        <g class="mark-group role-axis" aria-roledescription="axis" aria-label="X-axis titled 'module' for a discrete scale with 19 values: bueno, class-transformer-validator-async, class-transformer-validator-sync, computed-types, decoders, ending with zod">
            <path class="background" aria-hidden="true" d="M116.5 611.5z" pointer-events="none"/>
            <g class="mark-rule role-axis-tick" pointer-events="none" stroke="#888">
                <path d="M139.5 611.5v5M185.5 611.5v5M231.5 611.5v5M278.5 611.5v5M324.5 611.5v5M370.5 611.5v5M417.5 611.5v5M463.5 611.5v5M509.5 611.5v5M556.5 611.5v5M602.5 611.5v5M648.5 611.5v5M694.5 611.5v5M741.5 611.5v5M787.5 611.5v5M833.5 611.5v5M880.5 611.5v5M926.5 611.5v5M972.5 611.5v5"/>
            </g>
            <g class="mark-text role-axis-label" pointer-events="none" font-family="sans-serif" font-size="14" fill="#000">
                <text transform="rotate(90 -241.671 376.829)">bueno</text>
                <text transform="rotate(90 -218.513 399.987)">class-transform…</text>
                <text transform="rotate(90 -195.355 423.145)">class-transform…</text>
                <text transform="rotate(90 -172.197 446.303)">computed-types</text>
                <text transform="rotate(90 -149.04 469.46)">decoders</text>
                <text transform="rotate(90 -125.882 492.618)">io-ts</text>
                <text transform="rotate(90 -102.724 515.776)">jointz</text>
                <text transform="rotate(90 -79.566 538.934)">json-decoder</text>
                <text transform="rotate(90 -56.408 562.092)">myzod</text>
                <text transform="rotate(90 -33.25 585.25)">purify-ts</text>
                <text transform="rotate(90 -10.092 608.408)">rulr</text>
                <text transform="rotate(90 13.066 631.566)">runtypes</text>
                <text transform="rotate(90 36.224 654.724)">simple-runtypes</text>
                <text transform="rotate(90 59.382 677.882)">superstruct</text>
                <text transform="rotate(90 82.54 701.04)">toi</text>
                <text transform="rotate(90 105.697 724.197)">ts-utils</text>
                <text transform="rotate(90 128.855 747.355)">valita</text>
                <text transform="rotate(90 152.013 770.513)">yup</text>
                <text transform="rotate(90 175.171 793.671)">zod</text>
            </g>
            <path stroke="#888" d="M116.5 611.5h880" pointer-events="none"/>
            <text text-anchor="middle" transform="translate(556.5 812.5)" font-family="sans-serif" font-size="14" fill="#000" pointer-events="none">module</text>
        </g>
        <g class="mark-group role-axis" aria-roledescription="axis" aria-label="Y-axis titled 'operations / sec' for a linear scale with values from 0 to 2,800,000">
            <path class="background" aria-hidden="true" d="M116.5 11.5z" pointer-events="none"/>
            <g class="mark-rule role-axis-tick" pointer-events="none" stroke="#888">
                <path d="M116.5 611.5h-5M116.5 568.5h-5M116.5 525.5h-5M116.5 482.5h-5M116.5 440.5h-5M116.5 397.5h-5M116.5 354.5h-5M116.5 311.5h-5M116.5 268.5h-5M116.5 225.5h-5M116.5 182.5h-5M116.5 140.5h-5M116.5 97.5h-5M116.5 54.5h-5M116.5 11.5h-5"/>
            </g>
            <g class="mark-text role-axis-label" pointer-events="none" text-anchor="end" font-family="sans-serif" font-size="12" fill="#000">
                <text transform="translate(109.5 615.5)">0</text>
                <text transform="translate(109.5 572.643)">200,000</text>
                <text transform="translate(109.5 529.786)">400,000</text>
                <text transform="translate(109.5 486.929)">600,000</text>
                <text transform="translate(109.5 444.071)">800,000</text>
                <text transform="translate(109.5 401.214)">1,000,000</text>
                <text transform="translate(109.5 358.357)">1,200,000</text>
                <text transform="translate(109.5 315.5)">1,400,000</text>
                <text transform="translate(109.5 272.643)">1,600,000</text>
                <text transform="translate(109.5 229.786)">1,800,000</text>
                <text transform="translate(109.5 186.929)">2,000,000</text>
                <text transform="translate(109.5 144.071)">2,200,000</text>
                <text transform="translate(109.5 101.214)">2,400,000</text>
                <text transform="translate(109.5 58.357)">2,600,000</text>
                <text transform="translate(109.5 15.5)">2,800,000</text>
            </g>
            <path stroke="#888" d="M116.5 611.5v-600" pointer-events="none"/>
            <text text-anchor="middle" transform="rotate(-90 164 147.5)" font-family="sans-serif" font-size="14" fill="#000" pointer-events="none">operations / sec</text>
        </g>
        <g class="mark-rect role-mark marks" aria-roledescription="rect mark container" fill="#4c78a8">
            <path d="M118.316 581.92H160V611h-41.684zM164.632 604.62h41.684V611h-41.684zM210.947 603.333h41.685V611h-41.685zM257.263 483.295h41.684V611h-41.684zM303.579 576.676h41.684V611H303.58zM349.895 408.63h41.684V611h-41.684zM396.21 357.617h41.685V611H396.21zM442.526 462.44h41.685V611h-41.685zM488.842 382.791h41.684V611h-41.684zM535.158 471.308h41.684V611h-41.684zM581.474 468.48h41.684V611h-41.684zM627.79 467.026h41.684V611h-41.685zM674.105 312.314h41.684V611h-41.684zM720.421 599.174h41.684V611h-41.684zM766.737 525.13h41.684V611h-41.684zM813.053 586.276h41.684V611h-41.684zM859.368 22.112h41.685V611h-41.685zM905.684 607.845h41.684V611h-41.684zM952 609.476h41.684V611H952z"/>
        </g>
    </g>
</svg>
