<svg xmlns="http://www.w3.org/2000/svg" class="marks" width="1011" height="820">
    <path fill="#fff" d="M0 0h1011v820H0z"/>
    <g class="mark-group role-frame root" aria-roledescription="group mark container" fill="none" stroke-miterlimit="10">
        <path class="background" aria-hidden="true" d="M126.5 11.5h880v600h-880z" stroke="#ddd"/>
        <g class="mark-group role-axis" aria-hidden="true">
            <path class="background" aria-hidden="true" d="M126.5 11.5z" pointer-events="none"/>
            <g class="mark-rule role-axis-grid" pointer-events="none" stroke="#ddd">
                <path d="M126.5 611.5h880M126.5 571.5h880M126.5 531.5h880M126.5 491.5h880M126.5 451.5h880M126.5 411.5h880M126.5 371.5h880M126.5 331.5h880M126.5 291.5h880M126.5 251.5h880M126.5 211.5h880M126.5 171.5h880M126.5 131.5h880M126.5 91.5h880M126.5 51.5h880M126.5 11.5h880"/>
            </g>
        </g>
        <g class="mark-group role-axis" aria-roledescription="axis" aria-label="X-axis titled 'module' for a discrete scale with 20 values: bueno, class-transformer-validator-async, class-transformer-validator-sync, computed-types, decoders, ending with zod">
            <path class="background" aria-hidden="true" d="M126.5 611.5z" pointer-events="none"/>
            <g class="mark-rule role-axis-tick" pointer-events="none" stroke="#888">
                <path d="M148.5 611.5v5M192.5 611.5v5M236.5 611.5v5M280.5 611.5v5M324.5 611.5v5M368.5 611.5v5M412.5 611.5v5M456.5 611.5v5M500.5 611.5v5M544.5 611.5v5M588.5 611.5v5M632.5 611.5v5M676.5 611.5v5M720.5 611.5v5M764.5 611.5v5M808.5 611.5v5M852.5 611.5v5M896.5 611.5v5M940.5 611.5v5M984.5 611.5v5"/>
            </g>
            <g class="mark-text role-axis-label" pointer-events="none" font-family="sans-serif" font-size="14" fill="#000">
                <text transform="rotate(90 -237.25 381.25)">
                    bueno
                </text>
                <text transform="rotate(90 -215.25 403.25)">
                    class-transform…
                </text>
                <text transform="rotate(90 -193.25 425.25)">
                    class-transform…
                </text>
                <text transform="rotate(90 -171.25 447.25)">
                    computed-types
                </text>
                <text transform="rotate(90 -149.25 469.25)">
                    decoders
                </text>
                <text transform="rotate(90 -127.25 491.25)">
                    io-ts
                </text>
                <text transform="rotate(90 -105.25 513.25)">
                    jointz
                </text>
                <text transform="rotate(90 -83.25 535.25)">
                    json-decoder
                </text>
                <text transform="rotate(90 -61.25 557.25)">
                    marshal
                </text>
                <text transform="rotate(90 -39.25 579.25)">
                    myzod
                </text>
                <text transform="rotate(90 -17.25 601.25)">
                    purify-ts
                </text>
                <text transform="rotate(90 4.75 623.25)">
                    rulr
                </text>
                <text transform="rotate(90 26.75 645.25)">
                    runtypes
                </text>
                <text transform="rotate(90 48.75 667.25)">
                    simple-runtypes
                </text>
                <text transform="rotate(90 70.75 689.25)">
                    superstruct
                </text>
                <text transform="rotate(90 92.75 711.25)">
                    toi
                </text>
                <text transform="rotate(90 114.75 733.25)">
                    ts-json-validat…
                </text>
                <text transform="rotate(90 136.75 755.25)">
                    ts-utils
                </text>
                <text transform="rotate(90 158.75 777.25)">
                    yup
                </text>
                <text transform="rotate(90 180.75 799.25)">
                    zod
                </text>
            </g>
            <path stroke="#888" d="M126.5 611.5h880" pointer-events="none"/>
            <text text-anchor="middle" transform="translate(566.5 812.5)" font-family="sans-serif" font-size="14" fill="#000" pointer-events="none">
                module
            </text>
        </g>
        <g class="mark-group role-axis" aria-roledescription="axis" aria-label="Y-axis titled 'operations / sec' for a linear scale with values from 0 to 30,000,000">
            <path class="background" aria-hidden="true" d="M126.5 11.5z" pointer-events="none"/>
            <g class="mark-rule role-axis-tick" pointer-events="none" stroke="#888">
                <path d="M126.5 611.5h-5M126.5 571.5h-5M126.5 531.5h-5M126.5 491.5h-5M126.5 451.5h-5M126.5 411.5h-5M126.5 371.5h-5M126.5 331.5h-5M126.5 291.5h-5M126.5 251.5h-5M126.5 211.5h-5M126.5 171.5h-5M126.5 131.5h-5M126.5 91.5h-5M126.5 51.5h-5M126.5 11.5h-5"/>
            </g>
            <g class="mark-text role-axis-label" pointer-events="none" text-anchor="end" font-family="sans-serif" font-size="12" fill="#000">
                <text transform="translate(119.5 615.5)">
                    0
                </text>
                <text transform="translate(119.5 575.5)">
                    2,000,000
                </text>
                <text transform="translate(119.5 535.5)">
                    4,000,000
                </text>
                <text transform="translate(119.5 495.5)">
                    6,000,000
                </text>
                <text transform="translate(119.5 455.5)">
                    8,000,000
                </text>
                <text transform="translate(119.5 415.5)">
                    10,000,000
                </text>
                <text transform="translate(119.5 375.5)">
                    12,000,000
                </text>
                <text transform="translate(119.5 335.5)">
                    14,000,000
                </text>
                <text transform="translate(119.5 295.5)">
                    16,000,000
                </text>
                <text transform="translate(119.5 255.5)">
                    18,000,000
                </text>
                <text transform="translate(119.5 215.5)">
                    20,000,000
                </text>
                <text transform="translate(119.5 175.5)">
                    22,000,000
                </text>
                <text transform="translate(119.5 135.5)">
                    24,000,000
                </text>
                <text transform="translate(119.5 95.5)">
                    26,000,000
                </text>
                <text transform="translate(119.5 55.5)">
                    28,000,000
                </text>
                <text transform="translate(119.5 15.5)">
                    30,000,000
                </text>
            </g>
            <path stroke="#888" d="M126.5 611.5v-600" pointer-events="none"/>
            <text text-anchor="middle" transform="rotate(-90 164 147.5)" font-family="sans-serif" font-size="14" fill="#000" pointer-events="none">
                operations / sec
            </text>
        </g>
        <g class="mark-rect role-mark marks" aria-roledescription="rect mark container" fill="#4c78a8">
            <path aria-label="operations / sec: 128696; module: bueno" aria-roledescription="bar" d="M128.2 608.426h39.6V611h-39.6z"/>
            <path aria-label="operations / sec: 24982; module: class-transformer-validator-async" aria-roledescription="bar" d="M172.2 610.5h39.6v.5h-39.6z"/>
            <path aria-label="operations / sec: 29983; module: class-transformer-validator-sync" aria-roledescription="bar" d="M216.2 610.4h39.6v.6h-39.6z"/>
            <path aria-label="operations / sec: 671002; module: computed-types" aria-roledescription="bar" d="M260.2 597.58h39.6V611h-39.6z"/>
            <path aria-label="operations / sec: 208308; module: decoders" aria-roledescription="bar" d="M304.2 606.834h39.6V611h-39.6z"/>
            <path aria-label="operations / sec: 836080; module: io-ts" aria-roledescription="bar" d="M348.2 594.278h39.6V611h-39.6z"/>
            <path aria-label="operations / sec: 850047; module: jointz" aria-roledescription="bar" d="M392.2 594h39.6v17h-39.6z"/>
            <path aria-label="operations / sec: 704558; module: json-decoder" aria-roledescription="bar" d="M436.2 596.909h39.6V611h-39.6z"/>
            <path aria-label="operations / sec: 19330277; module: marshal" aria-roledescription="bar" d="M480.2 224.394h39.6V611h-39.6z"/>
            <path aria-label="operations / sec: 1253018; module: myzod" aria-roledescription="bar" d="M524.2 585.94h39.6V611h-39.6z"/>
            <path aria-label="operations / sec: 716484; module: purify-ts" aria-roledescription="bar" d="M568.2 596.67h39.6V611h-39.6z"/>
            <path aria-label="operations / sec: 585480; module: rulr" aria-roledescription="bar" d="M612.2 599.29h39.6V611h-39.6z"/>
            <path aria-label="operations / sec: 686323; module: runtypes" aria-roledescription="bar" d="M656.2 597.274h39.6V611h-39.6z"/>
            <path aria-label="operations / sec: 1281285; module: simple-runtypes" aria-roledescription="bar" d="M700.2 585.374h39.6V611h-39.6z"/>
            <path aria-label="operations / sec: 65316; module: superstruct" aria-roledescription="bar" d="M744.2 609.694h39.6V611h-39.6z"/>
            <path aria-label="operations / sec: 407067; module: toi" aria-roledescription="bar" d="M788.2 602.859h39.6V611h-39.6z"/>
            <path aria-label="operations / sec: 28331937; module: ts-json-validator" aria-roledescription="bar" d="M832.2 44.361h39.6V611h-39.6z"/>
            <path aria-label="operations / sec: 115774; module: ts-utils" aria-roledescription="bar" d="M876.2 608.685h39.6V611h-39.6z"/>
            <path aria-label="operations / sec: 11770; module: yup" aria-roledescription="bar" d="M920.2 610.765h39.6V611h-39.6z"/>
            <path aria-label="operations / sec: 9367; module: zod" aria-roledescription="bar" d="M964.2 610.813h39.6V611h-39.6z"/>
        </g>
    </g>
</svg>
