<svg xmlns="http://www.w3.org/2000/svg" class="marks" width="1001" height="820">
    <path fill="#fff" d="M0 0h1001v820H0z"/>
    <g class="mark-group role-frame root" aria-roledescription="group mark container" fill="none" stroke-miterlimit="10">
        <path class="background" aria-hidden="true" d="M116.5 11.5h880v600h-880Z" stroke="#ddd"/>
        <g class="mark-group role-axis" aria-roledescription="axis" aria-label="Y-axis for a linear scale with values from 0 to 2,600,000">
            <path class="background" aria-hidden="true" d="M116.5 11.5Z" pointer-events="none"/>
            <g class="mark-rule role-axis-grid" pointer-events="none" stroke="#ddd">
                <path d="M116.5 611.5h880M116.5 565.5h880M116.5 519.5h880M116.5 473.5h880M116.5 426.5h880M116.5 380.5h880M116.5 334.5h880M116.5 288.5h880M116.5 242.5h880M116.5 196.5h880M116.5 149.5h880M116.5 103.5h880M116.5 57.5h880M116.5 11.5h880"/>
            </g>
        </g>
        <g pointer-events="none" class="mark-group role-axis" aria-roledescription="axis" aria-label="X-axis titled 'module' for a discrete scale with 22 values: @mojotech/json-type-validation, @typeofweb/schema, bueno, class-transformer-validator-async, class-transformer-validator-sync, ending with zod">
            <path class="background" aria-hidden="true" d="M116.5 611.5Z"/>
            <g class="mark-rule role-axis-tick" stroke="#888">
                <path d="M136.5 611.5v5M176.5 611.5v5M216.5 611.5v5M256.5 611.5v5M296.5 611.5v5M336.5 611.5v5M376.5 611.5v5M416.5 611.5v5M456.5 611.5v5M496.5 611.5v5M536.5 611.5v5M576.5 611.5v5M616.5 611.5v5M656.5 611.5v5M696.5 611.5v5M736.5 611.5v5M776.5 611.5v5M816.5 611.5v5M856.5 611.5v5M896.5 611.5v5M936.5 611.5v5M976.5 611.5v5"/>
            </g>
            <g class="mark-text role-axis-label" font-family="sans-serif" font-size="14" fill="#000">
                <text transform="rotate(90 -243.25 375.25)">@mojotech/json-…</text>
                <text transform="rotate(90 -223.25 395.25)">@typeofweb/sche…</text>
                <text transform="rotate(90 -203.25 415.25)">bueno</text>
                <text transform="rotate(90 -183.25 435.25)">class-transform…</text>
                <text transform="rotate(90 -163.25 455.25)">class-transform…</text>
                <text transform="rotate(90 -143.25 475.25)">computed-types</text>
                <text transform="rotate(90 -123.25 495.25)">decoders</text>
                <text transform="rotate(90 -103.25 515.25)">io-ts</text>
                <text transform="rotate(90 -83.25 535.25)">jointz</text>
                <text transform="rotate(90 -63.25 555.25)">json-decoder</text>
                <text transform="rotate(90 -43.25 575.25)">myzod</text>
                <text transform="rotate(90 -23.25 595.25)">purify-ts</text>
                <text transform="rotate(90 -3.25 615.25)">rulr</text>
                <text transform="rotate(90 16.75 635.25)">runtypes</text>
                <text transform="rotate(90 36.75 655.25)">simple-runtypes</text>
                <text transform="rotate(90 56.75 675.25)">superstruct</text>
                <text transform="rotate(90 76.75 695.25)">toi</text>
                <text transform="rotate(90 96.75 715.25)">ts-interface-ch…</text>
                <text transform="rotate(90 116.75 735.25)">ts-utils</text>
                <text transform="rotate(90 136.75 755.25)">valita</text>
                <text transform="rotate(90 156.75 775.25)">yup</text>
                <text transform="rotate(90 176.75 795.25)">zod</text>
            </g>
            <path stroke="#888" d="M116.5 611.5h880" class="mark-rule role-axis-domain"/>
            <text text-anchor="middle" transform="translate(556.5 812.5)" font-family="sans-serif" font-size="14" fill="#000" class="mark-text role-axis-title">module</text>
        </g>
        <g pointer-events="none" class="mark-group role-axis" aria-roledescription="axis" aria-label="Y-axis titled 'operations / sec' for a linear scale with values from 0 to 2,600,000">
            <path class="background" aria-hidden="true" d="M116.5 11.5Z"/>
            <g class="mark-rule role-axis-tick" stroke="#888">
                <path d="M116.5 611.5h-5M116.5 565.5h-5M116.5 519.5h-5M116.5 473.5h-5M116.5 426.5h-5M116.5 380.5h-5M116.5 334.5h-5M116.5 288.5h-5M116.5 242.5h-5M116.5 196.5h-5M116.5 149.5h-5M116.5 103.5h-5M116.5 57.5h-5M116.5 11.5h-5"/>
            </g>
            <g class="mark-text role-axis-label" text-anchor="end" font-family="sans-serif" font-size="12" fill="#000">
                <text transform="translate(109.5 615.5)">0</text>
                <text transform="translate(109.5 569.346)">200,000</text>
                <text transform="translate(109.5 523.192)">400,000</text>
                <text transform="translate(109.5 477.038)">600,000</text>
                <text transform="translate(109.5 430.885)">800,000</text>
                <text transform="translate(109.5 384.73)">1,000,000</text>
                <text transform="translate(109.5 338.577)">1,200,000</text>
                <text transform="translate(109.5 292.423)">1,400,000</text>
                <text transform="translate(109.5 246.27)">1,600,000</text>
                <text transform="translate(109.5 200.115)">1,800,000</text>
                <text transform="translate(109.5 153.962)">2,000,000</text>
                <text transform="translate(109.5 107.808)">2,200,000</text>
                <text transform="translate(109.5 61.654)">2,400,000</text>
                <text transform="translate(109.5 15.5)">2,600,000</text>
            </g>
            <path stroke="#888" d="M116.5 611.5v-600" class="mark-rule role-axis-domain"/>
            <text text-anchor="middle" transform="rotate(-90 164 147.5)" font-family="sans-serif" font-size="14" fill="#000" class="mark-text role-axis-title">operations / sec</text>
        </g>
        <g class="mark-rect role-mark marks" aria-roledescription="rect mark container" fill="#4c78a8">
            <path d="M198 580.647h36V611h-36ZM238 603.957h36V611h-36ZM278 603.392h36V611h-36ZM318 480.354h36V611h-36ZM358 570.717h36V611h-36ZM398 422.171h36V611h-36ZM438 332.66h36V611h-36ZM478 471.608h36V611h-36ZM118 375.824h36V611h-36ZM518 369.19h36V611h-36ZM558 479.666h36V611h-36ZM598 470.404h36V611h-36ZM638 472.664h36V611h-36ZM678 284.782h36V611h-36ZM718 592.844h36V611h-36ZM758 525.906h36V611h-36ZM798 163.828h36V611h-36ZM838 585.317h36V611h-36ZM158 444.83h36V611h-36ZM878 27.505h36V611h-36ZM918 606.566h36V611h-36ZM958 529.072h36V611h-36Z"/>
        </g>
    </g>
</svg>
