<svg class="marks" width="1001" height="820" xmlns="http://www.w3.org/2000/svg">
    <path fill="#fff" d="M0 0h1001v820H0z"/>
    <g class="mark-group role-frame root" aria-roledescription="group mark container" fill="none" stroke-miterlimit="10">
        <path class="background" aria-hidden="true" d="M116.5 11.5h880v600h-880z" stroke="#ddd"/>
        <g class="mark-group role-axis" aria-hidden="true">
            <path class="background" aria-hidden="true" d="M116.5 11.5z" pointer-events="none"/>
            <g class="mark-rule role-axis-grid" pointer-events="none" stroke="#ddd">
                <path d="M116.5 611.5h880M116.5 571.5h880M116.5 531.5h880M116.5 491.5h880M116.5 451.5h880M116.5 411.5h880M116.5 371.5h880M116.5 331.5h880M116.5 291.5h880M116.5 251.5h880M116.5 211.5h880M116.5 171.5h880M116.5 131.5h880M116.5 91.5h880M116.5 51.5h880M116.5 11.5h880"/>
            </g>
        </g>
        <g class="mark-group role-axis" aria-roledescription="axis" aria-label="X-axis titled 'module' for a discrete scale with 16 values: bueno, class-transformer-validator-async, class-transformer-validator-sync, computed-types, io-ts, ending with zod">
            <path class="background" aria-hidden="true" d="M116.5 611.5z" pointer-events="none"/>
            <g class="mark-rule role-axis-tick" pointer-events="none" stroke="#888">
                <path d="M143.5 611.5v5M198.5 611.5v5M253.5 611.5v5M308.5 611.5v5M363.5 611.5v5M418.5 611.5v5M473.5 611.5v5M528.5 611.5v5M583.5 611.5v5M638.5 611.5v5M693.5 611.5v5M748.5 611.5v5M803.5 611.5v5M858.5 611.5v5M913.5 611.5v5M968.5 611.5v5"/>
            </g>
            <g class="mark-text role-axis-label" pointer-events="none" font-family="sans-serif" font-size="14" fill="#000">
                <text transform="rotate(90 -239.5 379)">
                    bueno
                </text>
                <text transform="rotate(90 -212 406.5)">
                    class-transform…
                </text>
                <text transform="rotate(90 -184.5 434)">
                    class-transform…
                </text>
                <text transform="rotate(90 -157 461.5)">
                    computed-types
                </text>
                <text transform="rotate(90 -129.5 489)">
                    io-ts
                </text>
                <text transform="rotate(90 -102 516.5)">
                    jointz
                </text>
                <text transform="rotate(90 -74.5 544)">
                    json-decoder
                </text>
                <text transform="rotate(90 -47 571.5)">
                    myzod
                </text>
                <text transform="rotate(90 -19.5 599)">
                    purify-ts
                </text>
                <text transform="rotate(90 8 626.5)">
                    rulr
                </text>
                <text transform="rotate(90 35.5 654)">
                    runtypes
                </text>
                <text transform="rotate(90 63 681.5)">
                    simple-runtypes
                </text>
                <text transform="rotate(90 90.5 709)">
                    toi
                </text>
                <text transform="rotate(90 118 736.5)">
                    ts-utils
                </text>
                <text transform="rotate(90 145.5 764)">
                    yup
                </text>
                <text transform="rotate(90 173 791.5)">
                    zod
                </text>
            </g>
            <path stroke="#888" d="M116.5 611.5h880" pointer-events="none"/>
            <text text-anchor="middle" transform="translate(556.5 812.5)" font-family="sans-serif" font-size="14" fill="#000" pointer-events="none">
                module
            </text>
        </g>
        <g class="mark-group role-axis" aria-roledescription="axis" aria-label="Y-axis titled 'operations / sec' for a linear scale with values from 0 to 3,000,000">
            <path class="background" aria-hidden="true" d="M116.5 11.5z" pointer-events="none"/>
            <g class="mark-rule role-axis-tick" pointer-events="none" stroke="#888">
                <path d="M116.5 611.5h-5M116.5 571.5h-5M116.5 531.5h-5M116.5 491.5h-5M116.5 451.5h-5M116.5 411.5h-5M116.5 371.5h-5M116.5 331.5h-5M116.5 291.5h-5M116.5 251.5h-5M116.5 211.5h-5M116.5 171.5h-5M116.5 131.5h-5M116.5 91.5h-5M116.5 51.5h-5M116.5 11.5h-5"/>
            </g>
            <g class="mark-text role-axis-label" pointer-events="none" text-anchor="end" font-family="sans-serif" font-size="12" fill="#000">
                <text transform="translate(109.5 615.5)">
                    0
                </text>
                <text transform="translate(109.5 575.5)">
                    200,000
                </text>
                <text transform="translate(109.5 535.5)">
                    400,000
                </text>
                <text transform="translate(109.5 495.5)">
                    600,000
                </text>
                <text transform="translate(109.5 455.5)">
                    800,000
                </text>
                <text transform="translate(109.5 415.5)">
                    1,000,000
                </text>
                <text transform="translate(109.5 375.5)">
                    1,200,000
                </text>
                <text transform="translate(109.5 335.5)">
                    1,400,000
                </text>
                <text transform="translate(109.5 295.5)">
                    1,600,000
                </text>
                <text transform="translate(109.5 255.5)">
                    1,800,000
                </text>
                <text transform="translate(109.5 215.5)">
                    2,000,000
                </text>
                <text transform="translate(109.5 175.5)">
                    2,200,000
                </text>
                <text transform="translate(109.5 135.5)">
                    2,400,000
                </text>
                <text transform="translate(109.5 95.5)">
                    2,600,000
                </text>
                <text transform="translate(109.5 55.5)">
                    2,800,000
                </text>
                <text transform="translate(109.5 15.5)">
                    3,000,000
                </text>
            </g>
            <path stroke="#888" d="M116.5 611.5v-600" pointer-events="none"/>
            <text text-anchor="middle" transform="rotate(-90 164 147.5)" font-family="sans-serif" font-size="14" fill="#000" pointer-events="none">
                operations / sec
            </text>
        </g>
        <g class="mark-rect role-mark marks" aria-roledescription="rect mark container" fill="#4c78a8">
            <path aria-label="operations / sec: 178551; module: bueno" aria-roledescription="bar" d="M118.75 575.29h49.5V611h-49.5z"/>
            <path aria-label="operations / sec: 35364; module: class-transformer-validator-async" aria-roledescription="bar" d="M173.75 603.927h49.5V611h-49.5z"/>
            <path aria-label="operations / sec: 46623; module: class-transformer-validator-sync" aria-roledescription="bar" d="M228.75 601.675h49.5V611h-49.5z"/>
            <path aria-label="operations / sec: 757960; module: computed-types" aria-roledescription="bar" d="M283.75 459.408h49.5V611h-49.5z"/>
            <path aria-label="operations / sec: 2816133; module: io-ts" aria-roledescription="bar" d="M338.75 47.773h49.5V611h-49.5z"/>
            <path aria-label="operations / sec: 1580479; module: jointz" aria-roledescription="bar" d="M393.75 294.904h49.5V611h-49.5z"/>
            <path aria-label="operations / sec: 883256; module: json-decoder" aria-roledescription="bar" d="M448.75 434.349h49.5V611h-49.5z"/>
            <path aria-label="operations / sec: 1424232; module: myzod" aria-roledescription="bar" d="M503.75 326.154h49.5V611h-49.5z"/>
            <path aria-label="operations / sec: 882704; module: purify-ts" aria-roledescription="bar" d="M558.75 434.46h49.5V611h-49.5z"/>
            <path aria-label="operations / sec: 817983; module: rulr" aria-roledescription="bar" d="M613.75 447.403h49.5V611h-49.5z"/>
            <path aria-label="operations / sec: 844608; module: runtypes" aria-roledescription="bar" d="M668.75 442.078h49.5V611h-49.5z"/>
            <path aria-label="operations / sec: 1827220; module: simple-runtypes" aria-roledescription="bar" d="M723.75 245.556h49.5V611h-49.5z"/>
            <path aria-label="operations / sec: 504668; module: toi" aria-roledescription="bar" d="M778.75 510.066h49.5V611h-49.5z"/>
            <path aria-label="operations / sec: 160482; module: ts-utils" aria-roledescription="bar" d="M833.75 578.904h49.5V611h-49.5z"/>
            <path aria-label="operations / sec: 18834; module: yup" aria-roledescription="bar" d="M888.75 607.233h49.5V611h-49.5z"/>
            <path aria-label="operations / sec: 9299; module: zod" aria-roledescription="bar" d="M943.75 609.14h49.5V611h-49.5z"/>
        </g>
    </g>
</svg>
