<svg xmlns="http://www.w3.org/2000/svg" class="marks" width="1011" height="820">
    <path fill="#fff" d="M0 0h1011v820H0z"/>
    <g class="mark-group role-frame root" aria-roledescription="group mark container" fill="none" stroke-miterlimit="10">
        <path class="background" aria-hidden="true" d="M126.5 11.5h880v600h-880z" stroke="#ddd"/>
        <g class="mark-group role-axis" aria-roledescription="axis" aria-label="Y-axis for a linear scale with values from 0 to 18,000,000">
            <path class="background" aria-hidden="true" d="M126.5 11.5z" pointer-events="none"/>
            <g class="mark-rule role-axis-grid" pointer-events="none" stroke="#ddd">
                <path d="M126.5 611.5h880M126.5 578.5h880M126.5 544.5h880M126.5 511.5h880M126.5 478.5h880M126.5 444.5h880M126.5 411.5h880M126.5 378.5h880M126.5 344.5h880M126.5 311.5h880M126.5 278.5h880M126.5 244.5h880M126.5 211.5h880M126.5 178.5h880M126.5 144.5h880M126.5 111.5h880M126.5 78.5h880M126.5 44.5h880M126.5 11.5h880"/>
            </g>
        </g>
        <g class="mark-group role-axis" aria-roledescription="axis" aria-label="X-axis titled 'module' for a discrete scale with 19 values: bueno, class-transformer-validator-async, class-transformer-validator-sync, computed-types, decoders, ending with zod">
            <path class="background" aria-hidden="true" d="M126.5 611.5z" pointer-events="none"/>
            <g class="mark-rule role-axis-tick" pointer-events="none" stroke="#888">
                <path d="M149.5 611.5v5M195.5 611.5v5M241.5 611.5v5M288.5 611.5v5M334.5 611.5v5M380.5 611.5v5M427.5 611.5v5M473.5 611.5v5M519.5 611.5v5M566.5 611.5v5M612.5 611.5v5M658.5 611.5v5M704.5 611.5v5M751.5 611.5v5M797.5 611.5v5M843.5 611.5v5M890.5 611.5v5M936.5 611.5v5M982.5 611.5v5"/>
            </g>
            <g class="mark-text role-axis-label" pointer-events="none" font-family="sans-serif" font-size="14" fill="#000">
                <text transform="rotate(90 -236.671 381.829)">
                    bueno
                </text>
                <text transform="rotate(90 -213.513 404.987)">
                    class-transform…
                </text>
                <text transform="rotate(90 -190.355 428.145)">
                    class-transform…
                </text>
                <text transform="rotate(90 -167.197 451.303)">
                    computed-types
                </text>
                <text transform="rotate(90 -144.04 474.46)">
                    decoders
                </text>
                <text transform="rotate(90 -120.882 497.618)">
                    io-ts
                </text>
                <text transform="rotate(90 -97.724 520.776)">
                    jointz
                </text>
                <text transform="rotate(90 -74.566 543.934)">
                    json-decoder
                </text>
                <text transform="rotate(90 -51.408 567.092)">
                    marshal
                </text>
                <text transform="rotate(90 -28.25 590.25)">
                    myzod
                </text>
                <text transform="rotate(90 -5.092 613.408)">
                    purify-ts
                </text>
                <text transform="rotate(90 18.066 636.566)">
                    runtypes
                </text>
                <text transform="rotate(90 41.224 659.724)">
                    simple-runtypes
                </text>
                <text transform="rotate(90 64.382 682.882)">
                    superstruct
                </text>
                <text transform="rotate(90 87.54 706.04)">
                    toi
                </text>
                <text transform="rotate(90 110.697 729.197)">
                    ts-json-validat…
                </text>
                <text transform="rotate(90 133.855 752.355)">
                    ts-utils
                </text>
                <text transform="rotate(90 157.013 775.513)">
                    yup
                </text>
                <text transform="rotate(90 180.171 798.671)">
                    zod
                </text>
            </g>
            <path stroke="#888" d="M126.5 611.5h880" pointer-events="none"/>
            <text text-anchor="middle" transform="translate(566.5 812.5)" font-family="sans-serif" font-size="14" fill="#000" pointer-events="none">
                module
            </text>
        </g>
        <g class="mark-group role-axis" aria-roledescription="axis" aria-label="Y-axis titled 'operations / sec' for a linear scale with values from 0 to 18,000,000">
            <path class="background" aria-hidden="true" d="M126.5 11.5z" pointer-events="none"/>
            <g class="mark-rule role-axis-tick" pointer-events="none" stroke="#888">
                <path d="M126.5 611.5h-5M126.5 578.5h-5M126.5 544.5h-5M126.5 511.5h-5M126.5 478.5h-5M126.5 444.5h-5M126.5 411.5h-5M126.5 378.5h-5M126.5 344.5h-5M126.5 311.5h-5M126.5 278.5h-5M126.5 244.5h-5M126.5 211.5h-5M126.5 178.5h-5M126.5 144.5h-5M126.5 111.5h-5M126.5 78.5h-5M126.5 44.5h-5M126.5 11.5h-5"/>
            </g>
            <g class="mark-text role-axis-label" pointer-events="none" text-anchor="end" font-family="sans-serif" font-size="12" fill="#000">
                <text transform="translate(119.5 615.5)">
                    0
                </text>
                <text transform="translate(119.5 582.167)">
                    1,000,000
                </text>
                <text transform="translate(119.5 548.833)">
                    2,000,000
                </text>
                <text transform="translate(119.5 515.5)">
                    3,000,000
                </text>
                <text transform="translate(119.5 482.167)">
                    4,000,000
                </text>
                <text transform="translate(119.5 448.833)">
                    5,000,000
                </text>
                <text transform="translate(119.5 415.5)">
                    6,000,000
                </text>
                <text transform="translate(119.5 382.167)">
                    7,000,000
                </text>
                <text transform="translate(119.5 348.833)">
                    8,000,000
                </text>
                <text transform="translate(119.5 315.5)">
                    9,000,000
                </text>
                <text transform="translate(119.5 282.167)">
                    10,000,000
                </text>
                <text transform="translate(119.5 248.833)">
                    11,000,000
                </text>
                <text transform="translate(119.5 215.5)">
                    12,000,000
                </text>
                <text transform="translate(119.5 182.167)">
                    13,000,000
                </text>
                <text transform="translate(119.5 148.833)">
                    14,000,000
                </text>
                <text transform="translate(119.5 115.5)">
                    15,000,000
                </text>
                <text transform="translate(119.5 82.167)">
                    16,000,000
                </text>
                <text transform="translate(119.5 48.833)">
                    17,000,000
                </text>
                <text transform="translate(119.5 15.5)">
                    18,000,000
                </text>
            </g>
            <path stroke="#888" d="M126.5 611.5v-600" pointer-events="none"/>
            <text text-anchor="middle" transform="rotate(-90 164 147.5)" font-family="sans-serif" font-size="14" fill="#000" pointer-events="none">
                operations / sec
            </text>
        </g>
        <g class="mark-rect role-mark marks" aria-roledescription="rect mark container" fill="#4c78a8">
            <path d="M128.316 606.775H170V611h-41.684zM174.632 609.819h41.684V611h-41.684zM220.947 609.673h41.685V611h-41.685zM267.263 588.513h41.684V611h-41.684zM313.579 604.369h41.684V611H313.58zM359.895 583.51h41.684V611h-41.684zM406.21 585.226h41.685V611H406.21zM452.526 587.626h41.685V611h-41.685zM498.842 78.92h41.684V611h-41.684zM545.158 572.67h41.684V611h-41.684zM591.474 597.893h41.684V611h-41.684zM637.79 588.615h41.684V611h-41.685zM684.105 567.778h41.684V611h-41.684zM730.421 609.112h41.684V611h-41.684zM776.737 597.024h41.684V611h-41.684zM823.053 69.252h41.684V611h-41.684zM869.368 607.61h41.685V611h-41.685zM915.684 610.507h41.684V611h-41.684zM962 610.631h41.684V611H962z"/>
        </g>
    </g>
</svg>
