<svg class="marks" width="1011" height="814" xmlns="http://www.w3.org/2000/svg">
    <path fill="#fff" d="M0 0h1011v814H0z"/>
    <g class="mark-group role-frame root" aria-roledescription="group mark container" fill="none" stroke-miterlimit="10">
        <path class="background" aria-hidden="true" d="M126.5 5.5h880v600h-880z" stroke="#ddd"/>
        <g class="mark-group role-axis" aria-hidden="true">
            <path class="background" aria-hidden="true" d="M126.5 5.5z" pointer-events="none"/>
            <g class="mark-rule role-axis-grid" pointer-events="none" stroke="#ddd">
                <path d="M126.5 605.5h880M126.5 571.5h880M126.5 536.5h880M126.5 502.5h880M126.5 468.5h880M126.5 434.5h880M126.5 399.5h880M126.5 365.5h880M126.5 331.5h880M126.5 296.5h880M126.5 262.5h880M126.5 228.5h880M126.5 194.5h880M126.5 159.5h880M126.5 125.5h880M126.5 91.5h880M126.5 56.5h880M126.5 22.5h880"/>
            </g>
        </g>
        <g class="mark-group role-axis" aria-roledescription="axis" aria-label="X-axis titled 'module' for a discrete scale with 18 values: class-transformer-validator-async, class-transformer-validator-sync, computed-types, io-ts, jointz, ending with zod">
            <path class="background" aria-hidden="true" d="M126.5 605.5z" pointer-events="none"/>
            <g class="mark-rule role-axis-tick" pointer-events="none" stroke="#888">
                <path d="M150.5 605.5v5M199.5 605.5v5M248.5 605.5v5M297.5 605.5v5M346.5 605.5v5M394.5 605.5v5M443.5 605.5v5M492.5 605.5v5M541.5 605.5v5M590.5 605.5v5M639.5 605.5v5M688.5 605.5v5M737.5 605.5v5M786.5 605.5v5M834.5 605.5v5M883.5 605.5v5M932.5 605.5v5M981.5 605.5v5"/>
            </g>
            <g class="mark-text role-axis-label" pointer-events="none" font-family="sans-serif" font-size="14" fill="#000">
                <text transform="rotate(90 -233.028 379.472)">
                    class-transform…
                </text>
                <text transform="rotate(90 -208.583 403.917)">
                    class-transform…
                </text>
                <text transform="rotate(90 -184.139 428.361)">
                    computed-types
                </text>
                <text transform="rotate(90 -159.694 452.806)">
                    io-ts
                </text>
                <text transform="rotate(90 -135.25 477.25)">
                    jointz
                </text>
                <text transform="rotate(90 -110.806 501.694)">
                    json-decoder
                </text>
                <text transform="rotate(90 -86.361 526.139)">
                    marshal
                </text>
                <text transform="rotate(90 -61.917 550.583)">
                    myzod
                </text>
                <text transform="rotate(90 -37.472 575.028)">
                    purify-ts
                </text>
                <text transform="rotate(90 -13.028 599.472)">
                    quartet
                </text>
                <text transform="rotate(90 11.417 623.917)">
                    rulr
                </text>
                <text transform="rotate(90 35.861 648.361)">
                    runtypes
                </text>
                <text transform="rotate(90 60.306 672.806)">
                    simple-runtypes
                </text>
                <text transform="rotate(90 84.75 697.25)">
                    toi
                </text>
                <text transform="rotate(90 109.194 721.694)">
                    ts-json-validat…
                </text>
                <text transform="rotate(90 133.639 746.139)">
                    ts-utils
                </text>
                <text transform="rotate(90 158.083 770.583)">
                    yup
                </text>
                <text transform="rotate(90 182.528 795.028)">
                    zod
                </text>
            </g>
            <path stroke="#888" d="M126.5 605.5h880" pointer-events="none"/>
            <text text-anchor="middle" transform="translate(566.5 806.5)" font-family="sans-serif" font-size="14" fill="#000" pointer-events="none">
                module
            </text>
        </g>
        <g class="mark-group role-axis" aria-roledescription="axis" aria-label="Y-axis titled 'operations / sec' for a linear scale with values from 0 to 35,000,000">
            <path class="background" aria-hidden="true" d="M126.5 5.5z" pointer-events="none"/>
            <g class="mark-rule role-axis-tick" pointer-events="none" stroke="#888">
                <path d="M126.5 605.5h-5M126.5 571.5h-5M126.5 536.5h-5M126.5 502.5h-5M126.5 468.5h-5M126.5 434.5h-5M126.5 399.5h-5M126.5 365.5h-5M126.5 331.5h-5M126.5 296.5h-5M126.5 262.5h-5M126.5 228.5h-5M126.5 194.5h-5M126.5 159.5h-5M126.5 125.5h-5M126.5 91.5h-5M126.5 56.5h-5M126.5 22.5h-5"/>
            </g>
            <g class="mark-text role-axis-label" pointer-events="none" text-anchor="end" font-family="sans-serif" font-size="12" fill="#000">
                <text transform="translate(119.5 609.5)">
                    0
                </text>
                <text transform="translate(119.5 575.214)">
                    2,000,000
                </text>
                <text transform="translate(119.5 540.929)">
                    4,000,000
                </text>
                <text transform="translate(119.5 506.643)">
                    6,000,000
                </text>
                <text transform="translate(119.5 472.357)">
                    8,000,000
                </text>
                <text transform="translate(119.5 438.071)">
                    10,000,000
                </text>
                <text transform="translate(119.5 403.786)">
                    12,000,000
                </text>
                <text transform="translate(119.5 369.5)">
                    14,000,000
                </text>
                <text transform="translate(119.5 335.214)">
                    16,000,000
                </text>
                <text transform="translate(119.5 300.929)">
                    18,000,000
                </text>
                <text transform="translate(119.5 266.643)">
                    20,000,000
                </text>
                <text transform="translate(119.5 232.357)">
                    22,000,000
                </text>
                <text transform="translate(119.5 198.071)">
                    24,000,000
                </text>
                <text transform="translate(119.5 163.786)">
                    26,000,000
                </text>
                <text transform="translate(119.5 129.5)">
                    28,000,000
                </text>
                <text transform="translate(119.5 95.214)">
                    30,000,000
                </text>
                <text transform="translate(119.5 60.929)">
                    32,000,000
                </text>
                <text transform="translate(119.5 26.643)">
                    34,000,000
                </text>
            </g>
            <path stroke="#888" d="M126.5 605.5V5.5" pointer-events="none"/>
            <text text-anchor="middle" transform="rotate(-90 161 144.5)" font-family="sans-serif" font-size="14" fill="#000" pointer-events="none">
                operations / sec
            </text>
        </g>
        <g class="mark-rect role-mark marks" aria-roledescription="rect mark container" fill="#4c78a8">
            <path aria-label="operations / sec: 33923; module: class-transformer-validator-async" aria-roledescription="bar" d="M128.444 604.418h44V605h-44z"/>
            <path aria-label="operations / sec: 44304; module: class-transformer-validator-sync" aria-roledescription="bar" d="M177.333 604.24h44v.76h-44z"/>
            <path aria-label="operations / sec: 711542; module: computed-types" aria-roledescription="bar" d="M226.222 592.802h44V605h-44z"/>
            <path aria-label="operations / sec: 2681004; module: io-ts" aria-roledescription="bar" d="M275.111 559.04h44V605h-44z"/>
            <path aria-label="operations / sec: 1573657; module: jointz" aria-roledescription="bar" d="M324 578.023h44V605h-44z"/>
            <path aria-label="operations / sec: 830553; module: json-decoder" aria-roledescription="bar" d="M372.889 590.762h44V605h-44z"/>
            <path aria-label="operations / sec: 13107294; module: marshal" aria-roledescription="bar" d="M421.778 380.304h44V605h-44z"/>
            <path aria-label="operations / sec: 1283211; module: myzod" aria-roledescription="bar" d="M470.667 583.002h44V605h-44z"/>
            <path aria-label="operations / sec: 780574; module: purify-ts" aria-roledescription="bar" d="M519.556 591.619h44V605h-44z"/>
            <path aria-label="operations / sec: 32291516; module: quartet" aria-roledescription="bar" d="M568.444 51.431h44V605h-44z"/>
            <path aria-label="operations / sec: 763693; module: rulr" aria-roledescription="bar" d="M617.333 591.908h44V605h-44z"/>
            <path aria-label="operations / sec: 779839; module: runtypes" aria-roledescription="bar" d="M666.222 591.631h44V605h-44z"/>
            <path aria-label="operations / sec: 1759050; module: simple-runtypes" aria-roledescription="bar" d="M715.111 574.845h44V605h-44z"/>
            <path aria-label="operations / sec: 448098; module: toi" aria-roledescription="bar" d="M764 597.318h44V605h-44z"/>
            <path aria-label="operations / sec: 19847805; module: ts-json-validator" aria-roledescription="bar" d="M812.889 264.752h44V605h-44z"/>
            <path aria-label="operations / sec: 139456; module: ts-utils" aria-roledescription="bar" d="M861.778 602.61h44V605h-44z"/>
            <path aria-label="operations / sec: 15941; module: yup" aria-roledescription="bar" d="M910.667 604.727h44V605h-44z"/>
            <path aria-label="operations / sec: 8925; module: zod" aria-roledescription="bar" d="M959.556 604.847h44V605h-44z"/>
        </g>
    </g>
</svg>
