<svg class="marks" width="1001" height="814" xmlns="http://www.w3.org/2000/svg">
    <path fill="#fff" d="M0 0h1001v814H0z"/>
    <g class="mark-group role-frame root">
        <path class="background" d="M116.5 5.5h880v600h-880z" fill="none" stroke="#ddd"/>
        <g class="mark-group role-axis">
            <path class="background" d="M116.5 5.5z" pointer-events="none" fill="none"/>
            <g class="mark-rule role-axis-grid" pointer-events="none" fill="none" stroke="#ddd">
                <path d="M116.5 605.5h880M116.5 571.5h880M116.5 536.5h880M116.5 502.5h880M116.5 468.5h880M116.5 434.5h880M116.5 399.5h880M116.5 365.5h880M116.5 331.5h880M116.5 296.5h880M116.5 262.5h880M116.5 228.5h880M116.5 194.5h880M116.5 159.5h880M116.5 125.5h880M116.5 91.5h880M116.5 56.5h880M116.5 22.5h880"/>
            </g>
        </g>
        <g class="mark-group role-axis">
            <path class="background" d="M116.5 605.5z" pointer-events="none" fill="none"/>
            <g class="mark-rule role-axis-tick" pointer-events="none" fill="none" stroke="#888">
                <path d="M147.5 605.5v5M210.5 605.5v5M273.5 605.5v5M336.5 605.5v5M398.5 605.5v5M461.5 605.5v5M524.5 605.5v5M587.5 605.5v5M650.5 605.5v5M713.5 605.5v5M776.5 605.5v5M838.5 605.5v5M901.5 605.5v5M964.5 605.5v5"/>
            </g>
            <g class="mark-text role-axis-label" pointer-events="none" font-family="sans-serif" font-size="14">
                <text transform="rotate(90 -234.536 377.964)">
                    class-transform…
                </text>
                <text transform="rotate(90 -203.107 409.393)">
                    class-transform…
                </text>
                <text transform="rotate(90 -171.679 440.821)">
                    funval
                </text>
                <text transform="rotate(90 -140.25 472.25)">
                    io-ts
                </text>
                <text transform="rotate(90 -108.821 503.679)">
                    jointz
                </text>
                <text transform="rotate(90 -77.393 535.107)">
                    json-decoder
                </text>
                <text transform="rotate(90 -45.964 566.536)">
                    marshal
                </text>
                <text transform="rotate(90 -14.536 597.964)">
                    myzod
                </text>
                <text transform="rotate(90 16.893 629.393)">
                    purify-ts
                </text>
                <text transform="rotate(90 48.321 660.821)">
                    runtypes
                </text>
                <text transform="rotate(90 79.75 692.25)">
                    toi
                </text>
                <text transform="rotate(90 111.179 723.679)">
                    ts-utils
                </text>
                <text transform="rotate(90 142.607 755.107)">
                    yup
                </text>
                <text transform="rotate(90 174.036 786.536)">
                    zod
                </text>
            </g>
            <path fill="none" stroke="#888" d="M116.5 605.5h880" pointer-events="none"/>
            <text text-anchor="middle" transform="translate(556.5 806.5)" font-family="sans-serif" font-size="14" font-weight="400" pointer-events="none">
                module
            </text>
        </g>
        <g class="mark-group role-axis">
            <path class="background" d="M116.5 5.5z" pointer-events="none" fill="none"/>
            <g class="mark-rule role-axis-tick" pointer-events="none" fill="none" stroke="#888">
                <path d="M116.5 605.5h-5M116.5 571.5h-5M116.5 536.5h-5M116.5 502.5h-5M116.5 468.5h-5M116.5 434.5h-5M116.5 399.5h-5M116.5 365.5h-5M116.5 331.5h-5M116.5 296.5h-5M116.5 262.5h-5M116.5 228.5h-5M116.5 194.5h-5M116.5 159.5h-5M116.5 125.5h-5M116.5 91.5h-5M116.5 56.5h-5M116.5 22.5h-5"/>
            </g>
            <g class="mark-text role-axis-label" pointer-events="none" text-anchor="end" font-family="sans-serif" font-size="12">
                <text transform="translate(109.5 609.5)">
                    0
                </text>
                <text transform="translate(109.5 575.214)">
                    200,000
                </text>
                <text transform="translate(109.5 540.929)">
                    400,000
                </text>
                <text transform="translate(109.5 506.643)">
                    600,000
                </text>
                <text transform="translate(109.5 472.357)">
                    800,000
                </text>
                <text transform="translate(109.5 438.071)">
                    1,000,000
                </text>
                <text transform="translate(109.5 403.786)">
                    1,200,000
                </text>
                <text transform="translate(109.5 369.5)">
                    1,400,000
                </text>
                <text transform="translate(109.5 335.214)">
                    1,600,000
                </text>
                <text transform="translate(109.5 300.929)">
                    1,800,000
                </text>
                <text transform="translate(109.5 266.643)">
                    2,000,000
                </text>
                <text transform="translate(109.5 232.357)">
                    2,200,000
                </text>
                <text transform="translate(109.5 198.071)">
                    2,400,000
                </text>
                <text transform="translate(109.5 163.786)">
                    2,600,000
                </text>
                <text transform="translate(109.5 129.5)">
                    2,800,000
                </text>
                <text transform="translate(109.5 95.214)">
                    3,000,000
                </text>
                <text transform="translate(109.5 60.929)">
                    3,200,000
                </text>
                <text transform="translate(109.5 26.643)">
                    3,400,000
                </text>
            </g>
            <path fill="none" stroke="#888" d="M116.5 605.5V5.5" pointer-events="none"/>
            <text text-anchor="middle" transform="rotate(-90 161 144.5)" font-family="sans-serif" font-size="14" font-weight="400" pointer-events="none">
                operations / sec
            </text>
        </g>
        <g class="mark-rect role-mark marks" fill="#4c78a8">
            <path d="M119.143 600.216h56.571V605h-56.571zM182 599.845h56.571V605H182zM244.857 484.01h56.572V605h-56.572zM307.714 200.812h56.572V605h-56.572zM370.571 574.457h56.572V605H370.57zM433.429 490.435H490V605h-56.571zM496.286 22.257h56.571V605h-56.571zM559.143 400.826h56.571V605h-56.571zM622 483.315h56.571V605H622zM684.857 488.967h56.572V605h-56.572zM747.714 536.774h56.572V605h-56.572zM810.571 584.725h56.572V605H810.57zM873.429 602.493H930V605h-56.571zM936.286 597.167h56.571V605h-56.571z"/>
        </g>
    </g>
</svg>
