<svg class="marks" width="1001" height="820" xmlns="http://www.w3.org/2000/svg">
    <path fill="#fff" d="M0 0h1001v820H0z"/>
    <g class="mark-group role-frame root" aria-roledescription="group mark container" fill="none" stroke-miterlimit="10">
        <path class="background" aria-hidden="true" d="M116.5 11.5h880v600h-880z" stroke="#ddd"/>
        <g class="mark-group role-axis" aria-hidden="true">
            <path class="background" aria-hidden="true" d="M116.5 11.5z" pointer-events="none"/>
            <g class="mark-rule role-axis-grid" pointer-events="none" stroke="#ddd">
                <path d="M116.5 611.5h880M116.5 581.5h880M116.5 551.5h880M116.5 521.5h880M116.5 491.5h880M116.5 461.5h880M116.5 431.5h880M116.5 401.5h880M116.5 371.5h880M116.5 341.5h880M116.5 311.5h880M116.5 281.5h880M116.5 251.5h880M116.5 221.5h880M116.5 191.5h880M116.5 161.5h880M116.5 131.5h880M116.5 101.5h880M116.5 71.5h880M116.5 41.5h880M116.5 11.5h880"/>
            </g>
        </g>
        <g class="mark-group role-axis" aria-roledescription="axis" aria-label="X-axis titled 'module' for a discrete scale with 15 values: class-transformer-validator-async, class-transformer-validator-sync, computed-types, io-ts, jointz, ending with zod">
            <path class="background" aria-hidden="true" d="M116.5 611.5z" pointer-events="none"/>
            <g class="mark-rule role-axis-tick" pointer-events="none" stroke="#888">
                <path d="M145.5 611.5v5M204.5 611.5v5M262.5 611.5v5M321.5 611.5v5M380.5 611.5v5M438.5 611.5v5M497.5 611.5v5M555.5 611.5v5M614.5 611.5v5M673.5 611.5v5M731.5 611.5v5M790.5 611.5v5M849.5 611.5v5M907.5 611.5v5M966.5 611.5v5"/>
            </g>
            <g class="mark-text role-axis-label" pointer-events="none" font-family="sans-serif" font-size="14" fill="#000">
                <text transform="rotate(90 -238.583 379.917)">
                    class-transform…
                </text>
                <text transform="rotate(90 -209.25 409.25)">
                    class-transform…
                </text>
                <text transform="rotate(90 -179.917 438.583)">
                    computed-types
                </text>
                <text transform="rotate(90 -150.583 467.917)">
                    io-ts
                </text>
                <text transform="rotate(90 -121.25 497.25)">
                    jointz
                </text>
                <text transform="rotate(90 -91.917 526.583)">
                    json-decoder
                </text>
                <text transform="rotate(90 -62.583 555.917)">
                    myzod
                </text>
                <text transform="rotate(90 -33.25 585.25)">
                    purify-ts
                </text>
                <text transform="rotate(90 -3.917 614.583)">
                    rulr
                </text>
                <text transform="rotate(90 25.417 643.917)">
                    runtypes
                </text>
                <text transform="rotate(90 54.75 673.25)">
                    simple-runtypes
                </text>
                <text transform="rotate(90 84.083 702.583)">
                    toi
                </text>
                <text transform="rotate(90 113.417 731.917)">
                    ts-utils
                </text>
                <text transform="rotate(90 142.75 761.25)">
                    yup
                </text>
                <text transform="rotate(90 172.083 790.583)">
                    zod
                </text>
            </g>
            <path stroke="#888" d="M116.5 611.5h880" pointer-events="none"/>
            <text text-anchor="middle" transform="translate(556.5 812.5)" font-family="sans-serif" font-size="14" fill="#000" pointer-events="none">
                module
            </text>
        </g>
        <g class="mark-group role-axis" aria-roledescription="axis" aria-label="Y-axis titled 'operations / sec' for a linear scale with values from 0 to 2,000,000">
            <path class="background" aria-hidden="true" d="M116.5 11.5z" pointer-events="none"/>
            <g class="mark-rule role-axis-tick" pointer-events="none" stroke="#888">
                <path d="M116.5 611.5h-5M116.5 581.5h-5M116.5 551.5h-5M116.5 521.5h-5M116.5 491.5h-5M116.5 461.5h-5M116.5 431.5h-5M116.5 401.5h-5M116.5 371.5h-5M116.5 341.5h-5M116.5 311.5h-5M116.5 281.5h-5M116.5 251.5h-5M116.5 221.5h-5M116.5 191.5h-5M116.5 161.5h-5M116.5 131.5h-5M116.5 101.5h-5M116.5 71.5h-5M116.5 41.5h-5M116.5 11.5h-5"/>
            </g>
            <g class="mark-text role-axis-label" pointer-events="none" text-anchor="end" font-family="sans-serif" font-size="12" fill="#000">
                <text transform="translate(109.5 615.5)">
                    0
                </text>
                <text transform="translate(109.5 585.5)">
                    100,000
                </text>
                <text transform="translate(109.5 555.5)">
                    200,000
                </text>
                <text transform="translate(109.5 525.5)">
                    300,000
                </text>
                <text transform="translate(109.5 495.5)">
                    400,000
                </text>
                <text transform="translate(109.5 465.5)">
                    500,000
                </text>
                <text transform="translate(109.5 435.5)">
                    600,000
                </text>
                <text transform="translate(109.5 405.5)">
                    700,000
                </text>
                <text transform="translate(109.5 375.5)">
                    800,000
                </text>
                <text transform="translate(109.5 345.5)">
                    900,000
                </text>
                <text transform="translate(109.5 315.5)">
                    1,000,000
                </text>
                <text transform="translate(109.5 285.5)">
                    1,100,000
                </text>
                <text transform="translate(109.5 255.5)">
                    1,200,000
                </text>
                <text transform="translate(109.5 225.5)">
                    1,300,000
                </text>
                <text transform="translate(109.5 195.5)">
                    1,400,000
                </text>
                <text transform="translate(109.5 165.5)">
                    1,500,000
                </text>
                <text transform="translate(109.5 135.5)">
                    1,600,000
                </text>
                <text transform="translate(109.5 105.5)">
                    1,700,000
                </text>
                <text transform="translate(109.5 75.5)">
                    1,800,000
                </text>
                <text transform="translate(109.5 45.5)">
                    1,900,000
                </text>
                <text transform="translate(109.5 15.5)">
                    2,000,000
                </text>
            </g>
            <path stroke="#888" d="M116.5 611.5v-600" pointer-events="none"/>
            <text text-anchor="middle" transform="rotate(-90 164 147.5)" font-family="sans-serif" font-size="14" fill="#000" pointer-events="none">
                operations / sec
            </text>
        </g>
        <g class="mark-rect role-mark marks" aria-roledescription="rect mark container" fill="#4c78a8">
            <path aria-label="operations / sec: 25212; module: class-transformer-validator-async" aria-roledescription="bar" d="M118.933 603.436h52.8V611h-52.8z"/>
            <path aria-label="operations / sec: 33588; module: class-transformer-validator-sync" aria-roledescription="bar" d="M177.6 600.924h52.8V611h-52.8z"/>
            <path aria-label="operations / sec: 652399; module: computed-types" aria-roledescription="bar" d="M236.267 415.28h52.8V611h-52.8z"/>
            <path aria-label="operations / sec: 1902338; module: io-ts" aria-roledescription="bar" d="M294.933 40.299h52.8V611h-52.8z"/>
            <path aria-label="operations / sec: 845186; module: jointz" aria-roledescription="bar" d="M353.6 357.444h52.8V611h-52.8z"/>
            <path aria-label="operations / sec: 435588; module: json-decoder" aria-roledescription="bar" d="M412.267 480.324h52.8V611h-52.8z"/>
            <path aria-label="operations / sec: 1290524; module: myzod" aria-roledescription="bar" d="M470.933 223.843h52.8V611h-52.8z"/>
            <path aria-label="operations / sec: 768383; module: purify-ts" aria-roledescription="bar" d="M529.6 380.485h52.8V611h-52.8z"/>
            <path aria-label="operations / sec: 631586; module: rulr" aria-roledescription="bar" d="M588.267 421.524h52.8V611h-52.8z"/>
            <path aria-label="operations / sec: 713691; module: runtypes" aria-roledescription="bar" d="M646.933 396.893h52.8V611h-52.8z"/>
            <path aria-label="operations / sec: 1428854; module: simple-runtypes" aria-roledescription="bar" d="M705.6 182.344h52.8V611h-52.8z"/>
            <path aria-label="operations / sec: 458611; module: toi" aria-roledescription="bar" d="M764.267 473.417h52.8V611h-52.8z"/>
            <path aria-label="operations / sec: 137423; module: ts-utils" aria-roledescription="bar" d="M822.933 569.773h52.8V611h-52.8z"/>
            <path aria-label="operations / sec: 12745; module: yup" aria-roledescription="bar" d="M881.6 607.177h52.8V611h-52.8z"/>
            <path aria-label="operations / sec: 8658; module: zod" aria-roledescription="bar" d="M940.267 608.403h52.8V611h-52.8z"/>
        </g>
    </g>
</svg>
