<svg xmlns="http://www.w3.org/2000/svg" class="marks" width="1011" height="820">
    <path fill="#fff" d="M0 0h1011v820H0z"/>
    <g class="mark-group role-frame root" aria-roledescription="group mark container" fill="none" stroke-miterlimit="10">
        <path class="background" aria-hidden="true" d="M126.5 11.5h880v600h-880z" stroke="#ddd"/>
        <g class="mark-group role-axis" aria-roledescription="axis" aria-label="Y-axis for a linear scale with values from 0 to 14,000,000">
            <path class="background" aria-hidden="true" d="M126.5 11.5z" pointer-events="none"/>
            <g class="mark-rule role-axis-grid" pointer-events="none" stroke="#ddd">
                <path d="M126.5 611.5h880M126.5 568.5h880M126.5 525.5h880M126.5 482.5h880M126.5 440.5h880M126.5 397.5h880M126.5 354.5h880M126.5 311.5h880M126.5 268.5h880M126.5 225.5h880M126.5 182.5h880M126.5 140.5h880M126.5 97.5h880M126.5 54.5h880M126.5 11.5h880"/>
            </g>
        </g>
        <g class="mark-group role-axis" aria-roledescription="axis" aria-label="X-axis titled 'module' for a discrete scale with 24 values: @typeofweb/schema, bueno, class-transformer-validator-async, class-transformer-validator-sync, computed-types, ending with zod">
            <path class="background" aria-hidden="true" d="M126.5 611.5z" pointer-events="none"/>
            <g class="mark-rule role-axis-tick" pointer-events="none" stroke="#888">
                <path d="M144.5 611.5v5M181.5 611.5v5M217.5 611.5v5M254.5 611.5v5M291.5 611.5v5M327.5 611.5v5M364.5 611.5v5M401.5 611.5v5M437.5 611.5v5M474.5 611.5v5M511.5 611.5v5M547.5 611.5v5M584.5 611.5v5M621.5 611.5v5M657.5 611.5v5M694.5 611.5v5M731.5 611.5v5M767.5 611.5v5M804.5 611.5v5M841.5 611.5v5M877.5 611.5v5M914.5 611.5v5M951.5 611.5v5M987.5 611.5v5"/>
            </g>
            <g class="mark-text role-axis-label" pointer-events="none" font-family="sans-serif" font-size="14" fill="#000">
                <text transform="rotate(90 -239.083 379.417)">@typeofweb/sche…</text>
                <text transform="rotate(90 -220.75 397.75)">bueno</text>
                <text transform="rotate(90 -202.417 416.083)">class-transform…</text>
                <text transform="rotate(90 -184.083 434.417)">class-transform…</text>
                <text transform="rotate(90 -165.75 452.75)">computed-types</text>
                <text transform="rotate(90 -147.417 471.083)">decoders</text>
                <text transform="rotate(90 -129.083 489.417)">io-ts</text>
                <text transform="rotate(90 -110.75 507.75)">jointz</text>
                <text transform="rotate(90 -92.417 526.083)">json-decoder</text>
                <text transform="rotate(90 -74.083 544.417)">marshal</text>
                <text transform="rotate(90 -55.75 562.75)">myzod</text>
                <text transform="rotate(90 -37.417 581.083)">purify-ts</text>
                <text transform="rotate(90 -19.083 599.417)">rulr</text>
                <text transform="rotate(90 -.75 617.75)">runtypes</text>
                <text transform="rotate(90 17.583 636.083)">simple-runtypes</text>
                <text transform="rotate(90 35.917 654.417)">superstruct</text>
                <text transform="rotate(90 54.25 672.75)">suretype</text>
                <text transform="rotate(90 72.583 691.083)">toi</text>
                <text transform="rotate(90 90.917 709.417)">ts-interface-ch…</text>
                <text transform="rotate(90 109.25 727.75)">ts-json-validat…</text>
                <text transform="rotate(90 127.583 746.083)">ts-utils</text>
                <text transform="rotate(90 145.917 764.417)">valita</text>
                <text transform="rotate(90 164.25 782.75)">yup</text>
                <text transform="rotate(90 182.583 801.083)">zod</text>
            </g>
            <path stroke="#888" d="M126.5 611.5h880" class="mark-rule role-axis-domain" pointer-events="none"/>
            <text text-anchor="middle" transform="translate(566.5 812.5)" font-family="sans-serif" font-size="14" fill="#000" class="mark-text role-axis-title" pointer-events="none">module</text>
        </g>
        <g class="mark-group role-axis" aria-roledescription="axis" aria-label="Y-axis titled 'operations / sec' for a linear scale with values from 0 to 14,000,000">
            <path class="background" aria-hidden="true" d="M126.5 11.5z" pointer-events="none"/>
            <g class="mark-rule role-axis-tick" pointer-events="none" stroke="#888">
                <path d="M126.5 611.5h-5M126.5 568.5h-5M126.5 525.5h-5M126.5 482.5h-5M126.5 440.5h-5M126.5 397.5h-5M126.5 354.5h-5M126.5 311.5h-5M126.5 268.5h-5M126.5 225.5h-5M126.5 182.5h-5M126.5 140.5h-5M126.5 97.5h-5M126.5 54.5h-5M126.5 11.5h-5"/>
            </g>
            <g class="mark-text role-axis-label" pointer-events="none" text-anchor="end" font-family="sans-serif" font-size="12" fill="#000">
                <text transform="translate(119.5 615.5)">0</text>
                <text transform="translate(119.5 572.643)">1,000,000</text>
                <text transform="translate(119.5 529.786)">2,000,000</text>
                <text transform="translate(119.5 486.929)">3,000,000</text>
                <text transform="translate(119.5 444.071)">4,000,000</text>
                <text transform="translate(119.5 401.214)">5,000,000</text>
                <text transform="translate(119.5 358.357)">6,000,000</text>
                <text transform="translate(119.5 315.5)">7,000,000</text>
                <text transform="translate(119.5 272.643)">8,000,000</text>
                <text transform="translate(119.5 229.786)">9,000,000</text>
                <text transform="translate(119.5 186.929)">10,000,000</text>
                <text transform="translate(119.5 144.071)">11,000,000</text>
                <text transform="translate(119.5 101.214)">12,000,000</text>
                <text transform="translate(119.5 58.357)">13,000,000</text>
                <text transform="translate(119.5 15.5)">14,000,000</text>
            </g>
            <path stroke="#888" d="M126.5 611.5v-600" class="mark-rule role-axis-domain" pointer-events="none"/>
            <text text-anchor="middle" transform="rotate(-90 164 147.5)" font-family="sans-serif" font-size="14" fill="#000" class="mark-text role-axis-title" pointer-events="none">operations / sec</text>
        </g>
        <g class="mark-rect role-mark marks" aria-roledescription="rect mark container" fill="#4c78a8">
            <path d="M164.5 604.505h33V611h-33zM201.167 609.598h33V611h-33zM237.833 609.371h33V611h-33zM274.5 582.907h33V611h-33zM311.167 602.667h33V611h-33zM347.833 567.706h33V611h-33zM384.5 555.89h33V611h-33zM421.167 581.754h33V611h-33zM457.833 145.8h33V611h-33zM494.5 564.57h33V611h-33zM531.167 582.019h33V611h-33zM567.833 583.521h33V611h-33zM604.5 582.198h33V611h-33zM641.167 546.702h33V611h-33zM677.833 607.458h33V611h-33zM714.5 35.9h33V611h-33zM751.167 594.181h33V611h-33zM787.833 519.307h33V611h-33zM824.5 38.214h33V611h-33zM861.167 607.557h33V611h-33zM127.833 579.93h33V611h-33zM897.833 500.742h33V611h-33zM934.5 609.905h33V611h-33zM971.167 610.624h33V611h-33z"/>
        </g>
    </g>
</svg>
