<svg xmlns="http://www.w3.org/2000/svg" class="marks" width="1001" height="820">
    <path fill="#fff" d="M0 0h1001v820H0z"/>
    <g class="mark-group role-frame root" aria-roledescription="group mark container" fill="none" stroke-miterlimit="10">
        <path class="background" aria-hidden="true" d="M116.5 11.5h880v600h-880z" stroke="#ddd"/>
        <g class="mark-group role-axis" aria-roledescription="axis" aria-label="Y-axis for a linear scale with values from 0 to 2,800,000">
            <path class="background" aria-hidden="true" d="M116.5 11.5z" pointer-events="none"/>
            <g class="mark-rule role-axis-grid" pointer-events="none" stroke="#ddd">
                <path d="M116.5 611.5h880M116.5 568.5h880M116.5 525.5h880M116.5 482.5h880M116.5 440.5h880M116.5 397.5h880M116.5 354.5h880M116.5 311.5h880M116.5 268.5h880M116.5 225.5h880M116.5 182.5h880M116.5 140.5h880M116.5 97.5h880M116.5 54.5h880M116.5 11.5h880"/>
            </g>
        </g>
        <g class="mark-group role-axis" aria-roledescription="axis" aria-label="X-axis titled 'module' for a discrete scale with 21 values: @typeofweb/schema, bueno, class-transformer-validator-async, class-transformer-validator-sync, computed-types, ending with zod">
            <path class="background" aria-hidden="true" d="M116.5 611.5z" pointer-events="none"/>
            <g class="mark-rule role-axis-tick" pointer-events="none" stroke="#888">
                <path d="M136.5 611.5v5M178.5 611.5v5M220.5 611.5v5M262.5 611.5v5M304.5 611.5v5M346.5 611.5v5M388.5 611.5v5M430.5 611.5v5M472.5 611.5v5M514.5 611.5v5M556.5 611.5v5M597.5 611.5v5M639.5 611.5v5M681.5 611.5v5M723.5 611.5v5M765.5 611.5v5M807.5 611.5v5M849.5 611.5v5M891.5 611.5v5M933.5 611.5v5M975.5 611.5v5"/>
            </g>
            <g class="mark-text role-axis-label" pointer-events="none" font-family="sans-serif" font-size="14" fill="#000">
                <text transform="rotate(90 -242.774 375.726)">@typeofweb/sche…</text>
                <text transform="rotate(90 -221.821 396.679)">bueno</text>
                <text transform="rotate(90 -200.869 417.631)">class-transform…</text>
                <text transform="rotate(90 -179.917 438.583)">class-transform…</text>
                <text transform="rotate(90 -158.964 459.536)">computed-types</text>
                <text transform="rotate(90 -138.012 480.488)">decoders</text>
                <text transform="rotate(90 -117.06 501.44)">io-ts</text>
                <text transform="rotate(90 -96.107 522.393)">jointz</text>
                <text transform="rotate(90 -75.155 543.345)">json-decoder</text>
                <text transform="rotate(90 -54.202 564.298)">myzod</text>
                <text transform="rotate(90 -33.25 585.25)">purify-ts</text>
                <text transform="rotate(90 -12.298 606.202)">rulr</text>
                <text transform="rotate(90 8.655 627.155)">runtypes</text>
                <text transform="rotate(90 29.607 648.107)">simple-runtypes</text>
                <text transform="rotate(90 50.56 669.06)">superstruct</text>
                <text transform="rotate(90 71.512 690.012)">toi</text>
                <text transform="rotate(90 92.464 710.964)">ts-interface-ch…</text>
                <text transform="rotate(90 113.417 731.917)">ts-utils</text>
                <text transform="rotate(90 134.369 752.869)">valita</text>
                <text transform="rotate(90 155.321 773.821)">yup</text>
                <text transform="rotate(90 176.274 794.774)">zod</text>
            </g>
            <path stroke="#888" d="M116.5 611.5h880" class="mark-rule role-axis-domain" pointer-events="none"/>
            <text text-anchor="middle" transform="translate(556.5 812.5)" font-family="sans-serif" font-size="14" fill="#000" class="mark-text role-axis-title" pointer-events="none">module</text>
        </g>
        <g class="mark-group role-axis" aria-roledescription="axis" aria-label="Y-axis titled 'operations / sec' for a linear scale with values from 0 to 2,800,000">
            <path class="background" aria-hidden="true" d="M116.5 11.5z" pointer-events="none"/>
            <g class="mark-rule role-axis-tick" pointer-events="none" stroke="#888">
                <path d="M116.5 611.5h-5M116.5 568.5h-5M116.5 525.5h-5M116.5 482.5h-5M116.5 440.5h-5M116.5 397.5h-5M116.5 354.5h-5M116.5 311.5h-5M116.5 268.5h-5M116.5 225.5h-5M116.5 182.5h-5M116.5 140.5h-5M116.5 97.5h-5M116.5 54.5h-5M116.5 11.5h-5"/>
            </g>
            <g class="mark-text role-axis-label" pointer-events="none" text-anchor="end" font-family="sans-serif" font-size="12" fill="#000">
                <text transform="translate(109.5 615.5)">0</text>
                <text transform="translate(109.5 572.643)">200,000</text>
                <text transform="translate(109.5 529.786)">400,000</text>
                <text transform="translate(109.5 486.929)">600,000</text>
                <text transform="translate(109.5 444.071)">800,000</text>
                <text transform="translate(109.5 401.214)">1,000,000</text>
                <text transform="translate(109.5 358.357)">1,200,000</text>
                <text transform="translate(109.5 315.5)">1,400,000</text>
                <text transform="translate(109.5 272.643)">1,600,000</text>
                <text transform="translate(109.5 229.786)">1,800,000</text>
                <text transform="translate(109.5 186.929)">2,000,000</text>
                <text transform="translate(109.5 144.071)">2,200,000</text>
                <text transform="translate(109.5 101.214)">2,400,000</text>
                <text transform="translate(109.5 58.357)">2,600,000</text>
                <text transform="translate(109.5 15.5)">2,800,000</text>
            </g>
            <path stroke="#888" d="M116.5 611.5v-600" class="mark-rule role-axis-domain" pointer-events="none"/>
            <text text-anchor="middle" transform="rotate(-90 164 147.5)" font-family="sans-serif" font-size="14" fill="#000" class="mark-text role-axis-title" pointer-events="none">operations / sec</text>
        </g>
        <g class="mark-rect role-mark marks" aria-roledescription="rect mark container" fill="#4c78a8">
            <path d="M160 583.355h37.714V611H160zM201.905 605.803h37.714V611h-37.714zM243.81 604.53h37.714V611H243.81zM285.714 479.61h37.715V611h-37.715zM327.619 574.829h37.714V611H327.62zM369.524 401.015h37.714V611h-37.714zM411.429 342.146h37.714V611h-37.714zM453.333 464.073h37.715V611h-37.715zM495.238 352.779h37.714V611h-37.714zM537.143 485.21h37.714V611h-37.714zM579.048 482.337h37.714V611h-37.714zM620.952 452.793h37.715V611h-37.715zM662.857 310.492h37.714V611h-37.714zM704.762 593.597h37.714V611h-37.714zM746.667 518.315h37.714V611h-37.714zM788.571 217.328h37.715V611H788.57zM830.476 586.08h37.714V611h-37.714zM118.095 449.844h37.715V611h-37.715zM872.381 27.82h37.714V611h-37.714zM914.286 606.97H952V611h-37.714zM956.19 609.805h37.715V611H956.19z"/>
        </g>
    </g>
</svg>
