<svg xmlns="http://www.w3.org/2000/svg" class="marks" width="1011" height="820">
    <path fill="#fff" d="M0 0h1011v820H0z"/>
    <g class="mark-group role-frame root" aria-roledescription="group mark container" fill="none" stroke-miterlimit="10">
        <path class="background" aria-hidden="true" d="M126.5 11.5h880v600h-880Z" stroke="#ddd"/>
        <g class="mark-group role-axis" aria-roledescription="axis" aria-label="Y-axis for a linear scale with values from 0 to 11,000,000">
            <path class="background" aria-hidden="true" d="M126.5 11.5Z" pointer-events="none"/>
            <g class="mark-rule role-axis-grid" pointer-events="none" stroke="#ddd">
                <path d="M126.5 611.5h880M126.5 556.5h880M126.5 502.5h880M126.5 447.5h880M126.5 393.5h880M126.5 338.5h880M126.5 284.5h880M126.5 229.5h880M126.5 175.5h880M126.5 120.5h880M126.5 66.5h880M126.5 11.5h880"/>
            </g>
        </g>
        <g pointer-events="none" class="mark-group role-axis" aria-roledescription="axis" aria-label="X-axis titled 'module' for a discrete scale with 25 values: @mojotech/json-type-validation, @typeofweb/schema, bueno, class-transformer-validator-async, class-transformer-validator-sync, ending with zod">
            <path class="background" aria-hidden="true" d="M126.5 611.5Z"/>
            <g class="mark-rule role-axis-tick" stroke="#888">
                <path d="M143.5 611.5v5M178.5 611.5v5M214.5 611.5v5M249.5 611.5v5M284.5 611.5v5M319.5 611.5v5M354.5 611.5v5M390.5 611.5v5M425.5 611.5v5M460.5 611.5v5M495.5 611.5v5M530.5 611.5v5M566.5 611.5v5M601.5 611.5v5M636.5 611.5v5M671.5 611.5v5M706.5 611.5v5M742.5 611.5v5M777.5 611.5v5M812.5 611.5v5M847.5 611.5v5M882.5 611.5v5M918.5 611.5v5M953.5 611.5v5M988.5 611.5v5"/>
            </g>
            <g class="mark-text role-axis-label" font-family="sans-serif" font-size="14" fill="#000">
                <text transform="rotate(90 -239.45 379.05)">@mojotech/json-…</text>
                <text transform="rotate(90 -221.85 396.65)">@typeofweb/sche…</text>
                <text transform="rotate(90 -204.25 414.25)">bueno</text>
                <text transform="rotate(90 -186.65 431.85)">class-transform…</text>
                <text transform="rotate(90 -169.05 449.45)">class-transform…</text>
                <text transform="rotate(90 -151.45 467.05)">computed-types</text>
                <text transform="rotate(90 -133.85 484.65)">decoders</text>
                <text transform="rotate(90 -116.25 502.25)">io-ts</text>
                <text transform="rotate(90 -98.65 519.85)">jointz</text>
                <text transform="rotate(90 -81.05 537.45)">json-decoder</text>
                <text transform="rotate(90 -63.45 555.05)">marshal</text>
                <text transform="rotate(90 -45.85 572.65)">myzod</text>
                <text transform="rotate(90 -28.25 590.25)">purify-ts</text>
                <text transform="rotate(90 -10.65 607.85)">rulr</text>
                <text transform="rotate(90 6.95 625.45)">runtypes</text>
                <text transform="rotate(90 24.55 643.05)">simple-runtypes</text>
                <text transform="rotate(90 42.15 660.65)">superstruct</text>
                <text transform="rotate(90 59.75 678.25)">suretype</text>
                <text transform="rotate(90 77.35 695.85)">toi</text>
                <text transform="rotate(90 94.95 713.45)">ts-interface-ch…</text>
                <text transform="rotate(90 112.55 731.05)">ts-json-validat…</text>
                <text transform="rotate(90 130.15 748.65)">ts-utils</text>
                <text transform="rotate(90 147.75 766.25)">valita</text>
                <text transform="rotate(90 165.35 783.85)">yup</text>
                <text transform="rotate(90 182.95 801.45)">zod</text>
            </g>
            <path stroke="#888" d="M126.5 611.5h880" class="mark-rule role-axis-domain"/>
            <text text-anchor="middle" transform="translate(566.5 812.5)" font-family="sans-serif" font-size="14" fill="#000" class="mark-text role-axis-title">module</text>
        </g>
        <g pointer-events="none" class="mark-group role-axis" aria-roledescription="axis" aria-label="Y-axis titled 'operations / sec' for a linear scale with values from 0 to 11,000,000">
            <path class="background" aria-hidden="true" d="M126.5 11.5Z"/>
            <g class="mark-rule role-axis-tick" stroke="#888">
                <path d="M126.5 611.5h-5M126.5 556.5h-5M126.5 502.5h-5M126.5 447.5h-5M126.5 393.5h-5M126.5 338.5h-5M126.5 284.5h-5M126.5 229.5h-5M126.5 175.5h-5M126.5 120.5h-5M126.5 66.5h-5M126.5 11.5h-5"/>
            </g>
            <g class="mark-text role-axis-label" text-anchor="end" font-family="sans-serif" font-size="12" fill="#000">
                <text transform="translate(119.5 615.5)">0</text>
                <text transform="translate(119.5 560.955)">1,000,000</text>
                <text transform="translate(119.5 506.41)">2,000,000</text>
                <text transform="translate(119.5 451.864)">3,000,000</text>
                <text transform="translate(119.5 397.318)">4,000,000</text>
                <text transform="translate(119.5 342.773)">5,000,000</text>
                <text transform="translate(119.5 288.227)">6,000,000</text>
                <text transform="translate(119.5 233.682)">7,000,000</text>
                <text transform="translate(119.5 179.136)">8,000,000</text>
                <text transform="translate(119.5 124.59)">9,000,000</text>
                <text transform="translate(119.5 70.045)">10,000,000</text>
                <text transform="translate(119.5 15.5)">11,000,000</text>
            </g>
            <path stroke="#888" d="M126.5 611.5v-600" class="mark-rule role-axis-domain"/>
            <text text-anchor="middle" transform="rotate(-90 164 147.5)" font-family="sans-serif" font-size="14" fill="#000" class="mark-text role-axis-title">operations / sec</text>
        </g>
        <g class="mark-rect role-mark marks" aria-roledescription="rect mark container" fill="#4c78a8">
            <path d="M198.16 603.258h31.68V611h-31.68ZM233.36 609.522h31.68V611h-31.68ZM268.56 609.107h31.68V611h-31.68ZM303.76 578.236h31.68V611h-31.68ZM338.96 601.096h31.68V611h-31.68ZM374.16 558.464h31.68V611h-31.68ZM409.36 543.72h31.68V611h-31.68ZM444.56 577.734h31.68V611h-31.68ZM479.76 99.291h31.68V611h-31.68ZM127.76 556.39h31.68V611h-31.68ZM514.96 556.02h31.68V611h-31.68ZM550.16 576.417h31.68V611h-31.68ZM585.36 576.957h31.68V611h-31.68ZM620.56 575.975h31.68V611h-31.68ZM655.76 536.977h31.68V611h-31.68ZM690.96 606.807h31.68V611h-31.68ZM726.16 13.753h31.68V611h-31.68ZM761.36 590.717h31.68V611h-31.68ZM796.56 511.12h31.68V611h-31.68ZM831.76 22.593h31.68V611h-31.68ZM866.96 607.516h31.68V611h-31.68ZM162.96 574.573h31.68V611h-31.68ZM902.16 494.725h31.68V611h-31.68ZM937.36 609.825h31.68V611h-31.68ZM972.56 590.28h31.68V611h-31.68Z"/>
        </g>
    </g>
</svg>
