<svg class="marks" width="1011" height="820" xmlns="http://www.w3.org/2000/svg">
    <defs>
        <style>
            .vega-svg-root *{fill:none}.vega-svg-root path{stroke-miterlimit:10}
        </style>
    </defs>
    <path fill="#fff" d="M0 0h1011v820H0z"/>
    <g class="vega-svg-root">
        <g class="mark-group role-frame root" aria-roledescription="group mark container">
            <path class="background" aria-hidden="true" d="M126.5 11.5h880v600h-880z" stroke="#ddd"/>
            <g class="mark-group role-axis" aria-hidden="true">
                <path class="background" aria-hidden="true" d="M126.5 11.5z" pointer-events="none"/>
                <g class="mark-rule role-axis-grid" pointer-events="none" stroke="#ddd">
                    <path d="M126.5 611.5h880M126.5 574.5h880M126.5 536.5h880M126.5 499.5h880M126.5 461.5h880M126.5 424.5h880M126.5 386.5h880M126.5 349.5h880M126.5 311.5h880M126.5 274.5h880M126.5 236.5h880M126.5 199.5h880M126.5 161.5h880M126.5 124.5h880M126.5 86.5h880M126.5 49.5h880M126.5 11.5h880"/>
                </g>
            </g>
            <g class="mark-group role-axis" aria-roledescription="axis" aria-label="X-axis titled 'module' for a discrete scale with 16 values: class-transformer-validator-async, class-transformer-validator-sync, computed-types, io-ts, jointz, ending with zod">
                <path class="background" aria-hidden="true" d="M126.5 611.5z" pointer-events="none"/>
                <g class="mark-rule role-axis-tick" pointer-events="none" stroke="#888">
                    <path d="M153.5 611.5v5M208.5 611.5v5M263.5 611.5v5M318.5 611.5v5M373.5 611.5v5M428.5 611.5v5M483.5 611.5v5M538.5 611.5v5M593.5 611.5v5M648.5 611.5v5M703.5 611.5v5M758.5 611.5v5M813.5 611.5v5M868.5 611.5v5M923.5 611.5v5M978.5 611.5v5"/>
                </g>
                <g class="mark-text role-axis-label" pointer-events="none" font-family="sans-serif" font-size="14">
                    <text transform="rotate(90 -234.5 384)">
                        class-transform…
                    </text>
                    <text transform="rotate(90 -207 411.5)">
                        class-transform…
                    </text>
                    <text transform="rotate(90 -179.5 439)">
                        computed-types
                    </text>
                    <text transform="rotate(90 -152 466.5)">
                        io-ts
                    </text>
                    <text transform="rotate(90 -124.5 494)">
                        jointz
                    </text>
                    <text transform="rotate(90 -97 521.5)">
                        json-decoder
                    </text>
                    <text transform="rotate(90 -69.5 549)">
                        marshal
                    </text>
                    <text transform="rotate(90 -42 576.5)">
                        myzod
                    </text>
                    <text transform="rotate(90 -14.5 604)">
                        purify-ts
                    </text>
                    <text transform="rotate(90 13 631.5)">
                        quartet
                    </text>
                    <text transform="rotate(90 40.5 659)">
                        runtypes
                    </text>
                    <text transform="rotate(90 68 686.5)">
                        toi
                    </text>
                    <text transform="rotate(90 95.5 714)">
                        ts-json-validat…
                    </text>
                    <text transform="rotate(90 123 741.5)">
                        ts-utils
                    </text>
                    <text transform="rotate(90 150.5 769)">
                        yup
                    </text>
                    <text transform="rotate(90 178 796.5)">
                        zod
                    </text>
                </g>
                <path stroke="#888" d="M126.5 611.5h880" pointer-events="none"/>
                <text text-anchor="middle" transform="translate(566.5 812.5)" font-family="sans-serif" font-size="14" font-weight="400" pointer-events="none">
                    module
                </text>
            </g>
            <g class="mark-group role-axis" aria-roledescription="axis" aria-label="Y-axis titled 'operations / sec' for a linear scale with values from 0 to 80,000,000">
                <path class="background" aria-hidden="true" d="M126.5 11.5z" pointer-events="none"/>
                <g class="mark-rule role-axis-tick" pointer-events="none" stroke="#888">
                    <path d="M126.5 611.5h-5M126.5 574.5h-5M126.5 536.5h-5M126.5 499.5h-5M126.5 461.5h-5M126.5 424.5h-5M126.5 386.5h-5M126.5 349.5h-5M126.5 311.5h-5M126.5 274.5h-5M126.5 236.5h-5M126.5 199.5h-5M126.5 161.5h-5M126.5 124.5h-5M126.5 86.5h-5M126.5 49.5h-5M126.5 11.5h-5"/>
                </g>
                <g class="mark-text role-axis-label" pointer-events="none" text-anchor="end" font-family="sans-serif" font-size="12">
                    <text transform="translate(119.5 615.5)">
                        0
                    </text>
                    <text transform="translate(119.5 578)">
                        5,000,000
                    </text>
                    <text transform="translate(119.5 540.5)">
                        10,000,000
                    </text>
                    <text transform="translate(119.5 503)">
                        15,000,000
                    </text>
                    <text transform="translate(119.5 465.5)">
                        20,000,000
                    </text>
                    <text transform="translate(119.5 428)">
                        25,000,000
                    </text>
                    <text transform="translate(119.5 390.5)">
                        30,000,000
                    </text>
                    <text transform="translate(119.5 353)">
                        35,000,000
                    </text>
                    <text transform="translate(119.5 315.5)">
                        40,000,000
                    </text>
                    <text transform="translate(119.5 278)">
                        45,000,000
                    </text>
                    <text transform="translate(119.5 240.5)">
                        50,000,000
                    </text>
                    <text transform="translate(119.5 203)">
                        55,000,000
                    </text>
                    <text transform="translate(119.5 165.5)">
                        60,000,000
                    </text>
                    <text transform="translate(119.5 128)">
                        65,000,000
                    </text>
                    <text transform="translate(119.5 90.5)">
                        70,000,000
                    </text>
                    <text transform="translate(119.5 53)">
                        75,000,000
                    </text>
                    <text transform="translate(119.5 15.5)">
                        80,000,000
                    </text>
                </g>
                <path stroke="#888" d="M126.5 611.5v-600" pointer-events="none"/>
                <text text-anchor="middle" transform="rotate(-90 164 147.5)" font-family="sans-serif" font-size="14" font-weight="400" pointer-events="none">
                    operations / sec
                </text>
            </g>
            <g class="mark-rect role-mark marks" aria-roledescription="rect mark container" fill="#4c78a8">
                <path aria-label="operations / sec: 48463; module: class-transformer-validator-async" aria-roledescription="bar" d="M128.75 610.637h49.5V611h-49.5z"/>
                <path aria-label="operations / sec: 55061; module: class-transformer-validator-sync" aria-roledescription="bar" d="M183.75 610.587h49.5V611h-49.5z"/>
                <path aria-label="operations / sec: 963120; module: computed-types" aria-roledescription="bar" d="M238.75 603.777h49.5V611h-49.5z"/>
                <path aria-label="operations / sec: 2869962; module: io-ts" aria-roledescription="bar" d="M293.75 589.475h49.5V611h-49.5z"/>
                <path aria-label="operations / sec: 1241548; module: jointz" aria-roledescription="bar" d="M348.75 601.688h49.5V611h-49.5z"/>
                <path aria-label="operations / sec: 1022417; module: json-decoder" aria-roledescription="bar" d="M403.75 603.332h49.5V611h-49.5z"/>
                <path aria-label="operations / sec: 5972986; module: marshal" aria-roledescription="bar" d="M458.75 566.203h49.5V611h-49.5z"/>
                <path aria-label="operations / sec: 1609327; module: myzod" aria-roledescription="bar" d="M513.75 598.93h49.5V611h-49.5z"/>
                <path aria-label="operations / sec: 1070105; module: purify-ts" aria-roledescription="bar" d="M568.75 602.974h49.5V611h-49.5z"/>
                <path aria-label="operations / sec: 74696291; module: quartet" aria-roledescription="bar" d="M623.75 50.778h49.5V611h-49.5z"/>
                <path aria-label="operations / sec: 985505; module: runtypes" aria-roledescription="bar" d="M678.75 603.609h49.5V611h-49.5z"/>
                <path aria-label="operations / sec: 592322; module: toi" aria-roledescription="bar" d="M733.75 606.558h49.5V611h-49.5z"/>
                <path aria-label="operations / sec: 34526779; module: ts-json-validator" aria-roledescription="bar" d="M788.75 352.05h49.5V611h-49.5z"/>
                <path aria-label="operations / sec: 174171; module: ts-utils" aria-roledescription="bar" d="M843.75 609.694h49.5V611h-49.5z"/>
                <path aria-label="operations / sec: 19983; module: yup" aria-roledescription="bar" d="M898.75 610.85h49.5v.15h-49.5z"/>
                <path aria-label="operations / sec: 83258; module: zod" aria-roledescription="bar" d="M953.75 610.376h49.5V611h-49.5z"/>
            </g>
        </g>
    </g>
</svg>
