<svg xmlns="http://www.w3.org/2000/svg" class="marks" width="1001" height="820">
    <path fill="#fff" d="M0 0h1001v820H0z"/>
    <g class="mark-group role-frame root" aria-roledescription="group mark container" fill="none" stroke-miterlimit="10">
        <path class="background" aria-hidden="true" d="M116.5 11.5h880v600h-880z" stroke="#ddd"/>
        <g class="mark-group role-axis" aria-roledescription="axis" aria-label="Y-axis for a linear scale with values from 0 to 3,000,000">
            <path class="background" aria-hidden="true" d="M116.5 11.5z" pointer-events="none"/>
            <g class="mark-rule role-axis-grid" pointer-events="none" stroke="#ddd">
                <path d="M116.5 611.5h880M116.5 571.5h880M116.5 531.5h880M116.5 491.5h880M116.5 451.5h880M116.5 411.5h880M116.5 371.5h880M116.5 331.5h880M116.5 291.5h880M116.5 251.5h880M116.5 211.5h880M116.5 171.5h880M116.5 131.5h880M116.5 91.5h880M116.5 51.5h880M116.5 11.5h880"/>
            </g>
        </g>
        <g class="mark-group role-axis" aria-roledescription="axis" aria-label="X-axis titled 'module' for a discrete scale with 21 values: @typeofweb/schema, bueno, class-transformer-validator-async, class-transformer-validator-sync, computed-types, ending with zod">
            <path class="background" aria-hidden="true" d="M116.5 611.5z" pointer-events="none"/>
            <g class="mark-rule role-axis-tick" pointer-events="none" stroke="#888">
                <path d="M136.5 611.5v5M178.5 611.5v5M220.5 611.5v5M262.5 611.5v5M304.5 611.5v5M346.5 611.5v5M388.5 611.5v5M430.5 611.5v5M472.5 611.5v5M514.5 611.5v5M556.5 611.5v5M597.5 611.5v5M639.5 611.5v5M681.5 611.5v5M723.5 611.5v5M765.5 611.5v5M807.5 611.5v5M849.5 611.5v5M891.5 611.5v5M933.5 611.5v5M975.5 611.5v5"/>
            </g>
            <g class="mark-text role-axis-label" pointer-events="none" font-family="sans-serif" font-size="14" fill="#000">
                <text transform="rotate(90 -242.774 375.726)">@typeofweb/sche…</text>
                <text transform="rotate(90 -221.821 396.679)">bueno</text>
                <text transform="rotate(90 -200.869 417.631)">class-transform…</text>
                <text transform="rotate(90 -179.917 438.583)">class-transform…</text>
                <text transform="rotate(90 -158.964 459.536)">computed-types</text>
                <text transform="rotate(90 -138.012 480.488)">decoders</text>
                <text transform="rotate(90 -117.06 501.44)">io-ts</text>
                <text transform="rotate(90 -96.107 522.393)">jointz</text>
                <text transform="rotate(90 -75.155 543.345)">json-decoder</text>
                <text transform="rotate(90 -54.202 564.298)">myzod</text>
                <text transform="rotate(90 -33.25 585.25)">purify-ts</text>
                <text transform="rotate(90 -12.298 606.202)">rulr</text>
                <text transform="rotate(90 8.655 627.155)">runtypes</text>
                <text transform="rotate(90 29.607 648.107)">simple-runtypes</text>
                <text transform="rotate(90 50.56 669.06)">superstruct</text>
                <text transform="rotate(90 71.512 690.012)">toi</text>
                <text transform="rotate(90 92.464 710.964)">ts-interface-ch…</text>
                <text transform="rotate(90 113.417 731.917)">ts-utils</text>
                <text transform="rotate(90 134.369 752.869)">valita</text>
                <text transform="rotate(90 155.321 773.821)">yup</text>
                <text transform="rotate(90 176.274 794.774)">zod</text>
            </g>
            <path stroke="#888" d="M116.5 611.5h880" class="mark-rule role-axis-domain" pointer-events="none"/>
            <text text-anchor="middle" transform="translate(556.5 812.5)" font-family="sans-serif" font-size="14" fill="#000" class="mark-text role-axis-title" pointer-events="none">module</text>
        </g>
        <g class="mark-group role-axis" aria-roledescription="axis" aria-label="Y-axis titled 'operations / sec' for a linear scale with values from 0 to 3,000,000">
            <path class="background" aria-hidden="true" d="M116.5 11.5z" pointer-events="none"/>
            <g class="mark-rule role-axis-tick" pointer-events="none" stroke="#888">
                <path d="M116.5 611.5h-5M116.5 571.5h-5M116.5 531.5h-5M116.5 491.5h-5M116.5 451.5h-5M116.5 411.5h-5M116.5 371.5h-5M116.5 331.5h-5M116.5 291.5h-5M116.5 251.5h-5M116.5 211.5h-5M116.5 171.5h-5M116.5 131.5h-5M116.5 91.5h-5M116.5 51.5h-5M116.5 11.5h-5"/>
            </g>
            <g class="mark-text role-axis-label" pointer-events="none" text-anchor="end" font-family="sans-serif" font-size="12" fill="#000">
                <text transform="translate(109.5 615.5)">0</text>
                <text transform="translate(109.5 575.5)">200,000</text>
                <text transform="translate(109.5 535.5)">400,000</text>
                <text transform="translate(109.5 495.5)">600,000</text>
                <text transform="translate(109.5 455.5)">800,000</text>
                <text transform="translate(109.5 415.5)">1,000,000</text>
                <text transform="translate(109.5 375.5)">1,200,000</text>
                <text transform="translate(109.5 335.5)">1,400,000</text>
                <text transform="translate(109.5 295.5)">1,600,000</text>
                <text transform="translate(109.5 255.5)">1,800,000</text>
                <text transform="translate(109.5 215.5)">2,000,000</text>
                <text transform="translate(109.5 175.5)">2,200,000</text>
                <text transform="translate(109.5 135.5)">2,400,000</text>
                <text transform="translate(109.5 95.5)">2,600,000</text>
                <text transform="translate(109.5 55.5)">2,800,000</text>
                <text transform="translate(109.5 15.5)">3,000,000</text>
            </g>
            <path stroke="#888" d="M116.5 611.5v-600" class="mark-rule role-axis-domain" pointer-events="none"/>
            <text text-anchor="middle" transform="rotate(-90 164 147.5)" font-family="sans-serif" font-size="14" fill="#000" class="mark-text role-axis-title" pointer-events="none">operations / sec</text>
        </g>
        <g class="mark-rect role-mark marks" aria-roledescription="rect mark container" fill="#4c78a8">
            <path d="M160 582.004h37.714V611H160zM201.905 604.234h37.714V611h-37.714zM243.81 603.875h37.714V611H243.81zM285.714 486.826h37.715V611h-37.715zM327.619 575.282h37.714V611H327.62zM369.524 427.527h37.714V611h-37.714zM411.429 364.816h37.714V611h-37.714zM453.333 485.862h37.715V611h-37.715zM495.238 386.388h37.714V611h-37.714zM537.143 464.669h37.714V611h-37.714zM579.048 464.083h37.714V611h-37.714zM620.952 461.401h37.715V611h-37.715zM662.857 306.936h37.714V611h-37.714zM704.762 592.21h37.714V611h-37.714zM746.667 524.223h37.714V611h-37.714zM788.571 162.121h37.715V611H788.57zM830.476 587.003h37.714V611h-37.714zM118.095 440.406h37.715V611h-37.715zM872.381 40.185h37.714V611h-37.714zM914.286 605.365H952V611h-37.714zM956.19 609.436h37.715V611H956.19z"/>
        </g>
    </g>
</svg>
