<svg xmlns="http://www.w3.org/2000/svg" class="marks" width="1011" height="814">
    <path fill="#fff" d="M0 0h1011v814H0z"/>
    <g class="mark-group role-frame root" aria-roledescription="group mark container" fill="none" stroke-miterlimit="10">
        <path class="background" aria-hidden="true" d="M126.5 5.5h880v600h-880z" stroke="#ddd"/>
        <g class="mark-group role-axis" aria-roledescription="axis" aria-label="Y-axis for a linear scale with values from 0 to 35,000,000">
            <path class="background" aria-hidden="true" d="M126.5 5.5z" pointer-events="none"/>
            <g class="mark-rule role-axis-grid" pointer-events="none" stroke="#ddd">
                <path d="M126.5 605.5h880M126.5 571.5h880M126.5 536.5h880M126.5 502.5h880M126.5 468.5h880M126.5 434.5h880M126.5 399.5h880M126.5 365.5h880M126.5 331.5h880M126.5 296.5h880M126.5 262.5h880M126.5 228.5h880M126.5 194.5h880M126.5 159.5h880M126.5 125.5h880M126.5 91.5h880M126.5 56.5h880M126.5 22.5h880"/>
            </g>
        </g>
        <g class="mark-group role-axis" aria-roledescription="axis" aria-label="X-axis titled 'module' for a discrete scale with 21 values: bueno, class-transformer-validator-async, class-transformer-validator-sync, computed-types, decoders, ending with zod">
            <path class="background" aria-hidden="true" d="M126.5 605.5z" pointer-events="none"/>
            <g class="mark-rule role-axis-tick" pointer-events="none" stroke="#888">
                <path d="M146.5 605.5v5M188.5 605.5v5M230.5 605.5v5M272.5 605.5v5M314.5 605.5v5M356.5 605.5v5M398.5 605.5v5M440.5 605.5v5M482.5 605.5v5M524.5 605.5v5M566.5 605.5v5M607.5 605.5v5M649.5 605.5v5M691.5 605.5v5M733.5 605.5v5M775.5 605.5v5M817.5 605.5v5M859.5 605.5v5M901.5 605.5v5M943.5 605.5v5M985.5 605.5v5"/>
            </g>
            <g class="mark-text role-axis-label" pointer-events="none" font-family="sans-serif" font-size="14" fill="#000">
                <text transform="rotate(90 -234.774 377.726)">bueno</text>
                <text transform="rotate(90 -213.821 398.679)">class-transform…</text>
                <text transform="rotate(90 -192.869 419.631)">class-transform…</text>
                <text transform="rotate(90 -171.917 440.583)">computed-types</text>
                <text transform="rotate(90 -150.964 461.536)">decoders</text>
                <text transform="rotate(90 -130.012 482.488)">io-ts</text>
                <text transform="rotate(90 -109.06 503.44)">jointz</text>
                <text transform="rotate(90 -88.107 524.393)">json-decoder</text>
                <text transform="rotate(90 -67.155 545.345)">marshal</text>
                <text transform="rotate(90 -46.202 566.298)">myzod</text>
                <text transform="rotate(90 -25.25 587.25)">purify-ts</text>
                <text transform="rotate(90 -4.298 608.202)">rulr</text>
                <text transform="rotate(90 16.655 629.155)">runtypes</text>
                <text transform="rotate(90 37.607 650.107)">simple-runtypes</text>
                <text transform="rotate(90 58.56 671.06)">superstruct</text>
                <text transform="rotate(90 79.512 692.012)">toi</text>
                <text transform="rotate(90 100.464 712.964)">ts-json-validat…</text>
                <text transform="rotate(90 121.417 733.917)">ts-utils</text>
                <text transform="rotate(90 142.369 754.869)">valita</text>
                <text transform="rotate(90 163.321 775.821)">yup</text>
                <text transform="rotate(90 184.274 796.774)">zod</text>
            </g>
            <path stroke="#888" d="M126.5 605.5h880" pointer-events="none"/>
            <text text-anchor="middle" transform="translate(566.5 806.5)" font-family="sans-serif" font-size="14" fill="#000" pointer-events="none">module</text>
        </g>
        <g class="mark-group role-axis" aria-roledescription="axis" aria-label="Y-axis titled 'operations / sec' for a linear scale with values from 0 to 35,000,000">
            <path class="background" aria-hidden="true" d="M126.5 5.5z" pointer-events="none"/>
            <g class="mark-rule role-axis-tick" pointer-events="none" stroke="#888">
                <path d="M126.5 605.5h-5M126.5 571.5h-5M126.5 536.5h-5M126.5 502.5h-5M126.5 468.5h-5M126.5 434.5h-5M126.5 399.5h-5M126.5 365.5h-5M126.5 331.5h-5M126.5 296.5h-5M126.5 262.5h-5M126.5 228.5h-5M126.5 194.5h-5M126.5 159.5h-5M126.5 125.5h-5M126.5 91.5h-5M126.5 56.5h-5M126.5 22.5h-5"/>
            </g>
            <g class="mark-text role-axis-label" pointer-events="none" text-anchor="end" font-family="sans-serif" font-size="12" fill="#000">
                <text transform="translate(119.5 609.5)">0</text>
                <text transform="translate(119.5 575.214)">2,000,000</text>
                <text transform="translate(119.5 540.929)">4,000,000</text>
                <text transform="translate(119.5 506.643)">6,000,000</text>
                <text transform="translate(119.5 472.357)">8,000,000</text>
                <text transform="translate(119.5 438.071)">10,000,000</text>
                <text transform="translate(119.5 403.786)">12,000,000</text>
                <text transform="translate(119.5 369.5)">14,000,000</text>
                <text transform="translate(119.5 335.214)">16,000,000</text>
                <text transform="translate(119.5 300.929)">18,000,000</text>
                <text transform="translate(119.5 266.643)">20,000,000</text>
                <text transform="translate(119.5 232.357)">22,000,000</text>
                <text transform="translate(119.5 198.071)">24,000,000</text>
                <text transform="translate(119.5 163.786)">26,000,000</text>
                <text transform="translate(119.5 129.5)">28,000,000</text>
                <text transform="translate(119.5 95.214)">30,000,000</text>
                <text transform="translate(119.5 60.929)">32,000,000</text>
                <text transform="translate(119.5 26.643)">34,000,000</text>
            </g>
            <path stroke="#888" d="M126.5 605.5V5.5" pointer-events="none"/>
            <text text-anchor="middle" transform="rotate(-90 161 144.5)" font-family="sans-serif" font-size="14" fill="#000" pointer-events="none">operations / sec</text>
        </g>
        <g class="mark-rect role-mark marks" aria-roledescription="rect mark container" fill="#4c78a8">
            <path d="M128.095 602.542h37.715V605h-37.715zM170 604.563h37.714V605H170zM211.905 604.514h37.714V605h-37.714zM253.81 592.283h37.714V605H253.81zM295.714 601.488h37.715V605h-37.715zM337.619 589.978h37.714V605H337.62zM379.524 589.092h37.714V605h-37.714zM421.429 591.657h37.714V605h-37.714zM463.333 226.328h37.715V605h-37.715zM505.238 581.917h37.714V605h-37.714zM547.143 597.047h37.714V605h-37.714zM589.048 592.28h37.714V605h-37.714zM630.952 590.933h37.715V605h-37.715zM672.857 577.933h37.714V605h-37.714zM714.762 603.786h37.714V605h-37.714zM756.667 596.336h37.714V605h-37.714zM798.571 71.006h37.715V605H798.57zM840.476 602.616h37.714V605h-37.714zM882.381 543.479h37.714V605h-37.714zM924.286 604.765H962V605h-37.714zM966.19 604.818h37.715V605H966.19z"/>
        </g>
    </g>
</svg>
