<svg class="marks" width="1001" height="814" xmlns="http://www.w3.org/2000/svg">
    <path fill="#fff" d="M0 0h1001v814H0z"/>
    <g class="mark-group role-frame root" aria-roledescription="group mark container">
        <path class="background" aria-hidden="true" d="M116.5 5.5h880v600h-880z" fill="none" stroke="#ddd"/>
        <g class="mark-group role-axis" aria-roledescription="axis" aria-label="Y-axis for a linear scale with values from 0 to 4,500,000">
            <path class="background" aria-hidden="true" d="M116.5 5.5z" pointer-events="none" fill="none"/>
            <g class="mark-rule role-axis-grid" pointer-events="none" fill="none" stroke="#ddd">
                <path d="M116.5 605.5h880M116.5 578.5h880M116.5 552.5h880M116.5 525.5h880M116.5 498.5h880M116.5 472.5h880M116.5 445.5h880M116.5 418.5h880M116.5 392.5h880M116.5 365.5h880M116.5 338.5h880M116.5 312.5h880M116.5 285.5h880M116.5 258.5h880M116.5 232.5h880M116.5 205.5h880M116.5 178.5h880M116.5 152.5h880M116.5 125.5h880M116.5 98.5h880M116.5 72.5h880M116.5 45.5h880M116.5 18.5h880"/>
            </g>
        </g>
        <g class="mark-group role-axis" aria-roledescription="axis" aria-label="X-axis titled 'module' for a discrete scale with 14 values: class-transformer-validator-async, class-transformer-validator-sync, funval, io-ts, jointz, ending with zod">
            <path class="background" aria-hidden="true" d="M116.5 605.5z" pointer-events="none" fill="none"/>
            <g class="mark-rule role-axis-tick" pointer-events="none" fill="none" stroke="#888">
                <path d="M147.5 605.5v5M210.5 605.5v5M273.5 605.5v5M336.5 605.5v5M398.5 605.5v5M461.5 605.5v5M524.5 605.5v5M587.5 605.5v5M650.5 605.5v5M713.5 605.5v5M776.5 605.5v5M838.5 605.5v5M901.5 605.5v5M964.5 605.5v5"/>
            </g>
            <g class="mark-text role-axis-label" pointer-events="none" font-family="sans-serif" font-size="14">
                <text transform="rotate(90 -234.536 377.964)">
                    class-transform…
                </text>
                <text transform="rotate(90 -203.107 409.393)">
                    class-transform…
                </text>
                <text transform="rotate(90 -171.679 440.821)">
                    funval
                </text>
                <text transform="rotate(90 -140.25 472.25)">
                    io-ts
                </text>
                <text transform="rotate(90 -108.821 503.679)">
                    jointz
                </text>
                <text transform="rotate(90 -77.393 535.107)">
                    json-decoder
                </text>
                <text transform="rotate(90 -45.964 566.536)">
                    marshal
                </text>
                <text transform="rotate(90 -14.536 597.964)">
                    myzod
                </text>
                <text transform="rotate(90 16.893 629.393)">
                    purify-ts
                </text>
                <text transform="rotate(90 48.321 660.821)">
                    runtypes
                </text>
                <text transform="rotate(90 79.75 692.25)">
                    toi
                </text>
                <text transform="rotate(90 111.179 723.679)">
                    ts-utils
                </text>
                <text transform="rotate(90 142.607 755.107)">
                    yup
                </text>
                <text transform="rotate(90 174.036 786.536)">
                    zod
                </text>
            </g>
            <path fill="none" stroke="#888" d="M116.5 605.5h880" pointer-events="none"/>
            <text text-anchor="middle" transform="translate(556.5 806.5)" font-family="sans-serif" font-size="14" font-weight="400" pointer-events="none">
                module
            </text>
        </g>
        <g class="mark-group role-axis" aria-roledescription="axis" aria-label="Y-axis titled 'operations / sec' for a linear scale with values from 0 to 4,500,000">
            <path class="background" aria-hidden="true" d="M116.5 5.5z" pointer-events="none" fill="none"/>
            <g class="mark-rule role-axis-tick" pointer-events="none" fill="none" stroke="#888">
                <path d="M116.5 605.5h-5M116.5 578.5h-5M116.5 552.5h-5M116.5 525.5h-5M116.5 498.5h-5M116.5 472.5h-5M116.5 445.5h-5M116.5 418.5h-5M116.5 392.5h-5M116.5 365.5h-5M116.5 338.5h-5M116.5 312.5h-5M116.5 285.5h-5M116.5 258.5h-5M116.5 232.5h-5M116.5 205.5h-5M116.5 178.5h-5M116.5 152.5h-5M116.5 125.5h-5M116.5 98.5h-5M116.5 72.5h-5M116.5 45.5h-5M116.5 18.5h-5"/>
            </g>
            <g class="mark-text role-axis-label" pointer-events="none" text-anchor="end" font-family="sans-serif" font-size="12">
                <text transform="translate(109.5 609.5)">
                    0
                </text>
                <text transform="translate(109.5 582.833)">
                    200,000
                </text>
                <text transform="translate(109.5 556.167)">
                    400,000
                </text>
                <text transform="translate(109.5 529.5)">
                    600,000
                </text>
                <text transform="translate(109.5 502.833)">
                    800,000
                </text>
                <text transform="translate(109.5 476.167)">
                    1,000,000
                </text>
                <text transform="translate(109.5 449.5)">
                    1,200,000
                </text>
                <text transform="translate(109.5 422.833)">
                    1,400,000
                </text>
                <text transform="translate(109.5 396.167)">
                    1,600,000
                </text>
                <text transform="translate(109.5 369.5)">
                    1,800,000
                </text>
                <text transform="translate(109.5 342.833)">
                    2,000,000
                </text>
                <text transform="translate(109.5 316.167)">
                    2,200,000
                </text>
                <text transform="translate(109.5 289.5)">
                    2,400,000
                </text>
                <text transform="translate(109.5 262.833)">
                    2,600,000
                </text>
                <text transform="translate(109.5 236.167)">
                    2,800,000
                </text>
                <text transform="translate(109.5 209.5)">
                    3,000,000
                </text>
                <text transform="translate(109.5 182.833)">
                    3,200,000
                </text>
                <text transform="translate(109.5 156.167)">
                    3,400,000
                </text>
                <text transform="translate(109.5 129.5)">
                    3,600,000
                </text>
                <text transform="translate(109.5 102.833)">
                    3,800,000
                </text>
                <text transform="translate(109.5 76.167)">
                    4,000,000
                </text>
                <text transform="translate(109.5 49.5)">
                    4,200,000
                </text>
                <text transform="translate(109.5 22.833)">
                    4,400,000
                </text>
            </g>
            <path fill="none" stroke="#888" d="M116.5 605.5V5.5" pointer-events="none"/>
            <text text-anchor="middle" transform="rotate(-90 161 144.5)" font-family="sans-serif" font-size="14" font-weight="400" pointer-events="none">
                operations / sec
            </text>
        </g>
        <g class="mark-rect role-mark marks" aria-roledescription="rect mark container" fill="#4c78a8">
            <path d="M119.143 600.88h56.571V605h-56.571zM182 600.005h56.571V605H182zM244.857 504.784h56.572V605h-56.572zM307.714 329.206h56.572V605h-56.572zM370.571 479.342h56.572V605H370.57zM433.429 544.846H490V605h-56.571zM496.286 27.587h56.571V605h-56.571zM559.143 426.383h56.571V605h-56.571zM622 500.958h56.571V605H622zM684.857 504.023h56.572V605h-56.572zM747.714 544.159h56.572V605h-56.572zM810.571 587.05h56.572V605H810.57zM873.429 603.184H930V605h-56.571zM936.286 597.49h56.571V605h-56.571z"/>
        </g>
    </g>
</svg>
