<svg class="marks" width="1011" height="820" xmlns="http://www.w3.org/2000/svg">
    <path fill="#fff" d="M0 0h1011v820H0z"/>
    <g class="mark-group role-frame root" aria-roledescription="group mark container">
        <path class="background" aria-hidden="true" d="M126.5 11.5h880v600h-880z" fill="none" stroke="#ddd"/>
        <g class="mark-group role-axis" aria-hidden="true">
            <path class="background" aria-hidden="true" d="M126.5 11.5z" pointer-events="none" fill="none"/>
            <g class="mark-rule role-axis-grid" pointer-events="none" fill="none" stroke="#ddd">
                <path d="M126.5 611.5h880M126.5 565.5h880M126.5 519.5h880M126.5 473.5h880M126.5 426.5h880M126.5 380.5h880M126.5 334.5h880M126.5 288.5h880M126.5 242.5h880M126.5 196.5h880M126.5 149.5h880M126.5 103.5h880M126.5 57.5h880M126.5 11.5h880"/>
            </g>
        </g>
        <g class="mark-group role-axis" aria-roledescription="axis" aria-label="X-axis titled 'module' for a discrete scale with 16 values: class-transformer-validator-async, class-transformer-validator-sync, funval, io-ts, jointz, ending with zod">
            <path class="background" aria-hidden="true" d="M126.5 611.5z" pointer-events="none" fill="none"/>
            <g class="mark-rule role-axis-tick" pointer-events="none" fill="none" stroke="#888">
                <path d="M153.5 611.5v5M208.5 611.5v5M263.5 611.5v5M318.5 611.5v5M373.5 611.5v5M428.5 611.5v5M483.5 611.5v5M538.5 611.5v5M593.5 611.5v5M648.5 611.5v5M703.5 611.5v5M758.5 611.5v5M813.5 611.5v5M868.5 611.5v5M923.5 611.5v5M978.5 611.5v5"/>
            </g>
            <g class="mark-text role-axis-label" pointer-events="none" font-family="sans-serif" font-size="14">
                <text transform="rotate(90 -234.5 384)">
                    class-transform…
                </text>
                <text transform="rotate(90 -207 411.5)">
                    class-transform…
                </text>
                <text transform="rotate(90 -179.5 439)">
                    funval
                </text>
                <text transform="rotate(90 -152 466.5)">
                    io-ts
                </text>
                <text transform="rotate(90 -124.5 494)">
                    jointz
                </text>
                <text transform="rotate(90 -97 521.5)">
                    json-decoder
                </text>
                <text transform="rotate(90 -69.5 549)">
                    marshal
                </text>
                <text transform="rotate(90 -42 576.5)">
                    myzod
                </text>
                <text transform="rotate(90 -14.5 604)">
                    purify-ts
                </text>
                <text transform="rotate(90 13 631.5)">
                    quartet
                </text>
                <text transform="rotate(90 40.5 659)">
                    runtypes
                </text>
                <text transform="rotate(90 68 686.5)">
                    toi
                </text>
                <text transform="rotate(90 95.5 714)">
                    ts-json-validat…
                </text>
                <text transform="rotate(90 123 741.5)">
                    ts-utils
                </text>
                <text transform="rotate(90 150.5 769)">
                    yup
                </text>
                <text transform="rotate(90 178 796.5)">
                    zod
                </text>
            </g>
            <path fill="none" stroke="#888" d="M126.5 611.5h880" pointer-events="none"/>
            <text text-anchor="middle" transform="translate(566.5 812.5)" font-family="sans-serif" font-size="14" font-weight="400" pointer-events="none">
                module
            </text>
        </g>
        <g class="mark-group role-axis" aria-roledescription="axis" aria-label="Y-axis titled 'operations / sec' for a linear scale with values from 0 to 26,000,000">
            <path class="background" aria-hidden="true" d="M126.5 11.5z" pointer-events="none" fill="none"/>
            <g class="mark-rule role-axis-tick" pointer-events="none" fill="none" stroke="#888">
                <path d="M126.5 611.5h-5M126.5 565.5h-5M126.5 519.5h-5M126.5 473.5h-5M126.5 426.5h-5M126.5 380.5h-5M126.5 334.5h-5M126.5 288.5h-5M126.5 242.5h-5M126.5 196.5h-5M126.5 149.5h-5M126.5 103.5h-5M126.5 57.5h-5M126.5 11.5h-5"/>
            </g>
            <g class="mark-text role-axis-label" pointer-events="none" text-anchor="end" font-family="sans-serif" font-size="12">
                <text transform="translate(119.5 615.5)">
                    0
                </text>
                <text transform="translate(119.5 569.346)">
                    2,000,000
                </text>
                <text transform="translate(119.5 523.192)">
                    4,000,000
                </text>
                <text transform="translate(119.5 477.038)">
                    6,000,000
                </text>
                <text transform="translate(119.5 430.885)">
                    8,000,000
                </text>
                <text transform="translate(119.5 384.73)">
                    10,000,000
                </text>
                <text transform="translate(119.5 338.577)">
                    12,000,000
                </text>
                <text transform="translate(119.5 292.423)">
                    14,000,000
                </text>
                <text transform="translate(119.5 246.27)">
                    16,000,000
                </text>
                <text transform="translate(119.5 200.115)">
                    18,000,000
                </text>
                <text transform="translate(119.5 153.962)">
                    20,000,000
                </text>
                <text transform="translate(119.5 107.808)">
                    22,000,000
                </text>
                <text transform="translate(119.5 61.654)">
                    24,000,000
                </text>
                <text transform="translate(119.5 15.5)">
                    26,000,000
                </text>
            </g>
            <path fill="none" stroke="#888" d="M126.5 611.5v-600" pointer-events="none"/>
            <text text-anchor="middle" transform="rotate(-90 164 147.5)" font-family="sans-serif" font-size="14" font-weight="400" pointer-events="none">
                operations / sec
            </text>
        </g>
        <g class="mark-rect role-mark marks" aria-roledescription="rect mark container" fill="#4c78a8">
            <path aria-label="operations / sec: 28920; module: class-transformer-validator-async" aria-roledescription="bar" d="M128.75 610.333h49.5V611h-49.5z"/>
            <path aria-label="operations / sec: 37640; module: class-transformer-validator-sync" aria-roledescription="bar" d="M183.75 610.131h49.5V611h-49.5z"/>
            <path aria-label="operations / sec: 858312; module: funval" aria-roledescription="bar" d="M238.75 591.193h49.5V611h-49.5z"/>
            <path aria-label="operations / sec: 2896623; module: io-ts" aria-roledescription="bar" d="M293.75 544.155h49.5V611h-49.5z"/>
            <path aria-label="operations / sec: 1452267; module: jointz" aria-roledescription="bar" d="M348.75 577.486h49.5V611h-49.5z"/>
            <path aria-label="operations / sec: 793334; module: json-decoder" aria-roledescription="bar" d="M403.75 592.692h49.5V611h-49.5z"/>
            <path aria-label="operations / sec: 3747321; module: marshal" aria-roledescription="bar" d="M458.75 524.523h49.5V611h-49.5z"/>
            <path aria-label="operations / sec: 1394323; module: myzod" aria-roledescription="bar" d="M513.75 578.823h49.5V611h-49.5z"/>
            <path aria-label="operations / sec: 745110; module: purify-ts" aria-roledescription="bar" d="M568.75 593.805h49.5V611h-49.5z"/>
            <path aria-label="operations / sec: 25639641; module: quartet" aria-roledescription="bar" d="M623.75 19.316h49.5V611h-49.5z"/>
            <path aria-label="operations / sec: 787079; module: runtypes" aria-roledescription="bar" d="M678.75 592.837h49.5V611h-49.5z"/>
            <path aria-label="operations / sec: 409737; module: toi" aria-roledescription="bar" d="M733.75 601.545h49.5V611h-49.5z"/>
            <path aria-label="operations / sec: 19090663; module: ts-json-validator" aria-roledescription="bar" d="M788.75 170.446h49.5V611h-49.5z"/>
            <path aria-label="operations / sec: 138657; module: ts-utils" aria-roledescription="bar" d="M843.75 607.8h49.5v3.2h-49.5z"/>
            <path aria-label="operations / sec: 13791; module: yup" aria-roledescription="bar" d="M898.75 610.682h49.5V611h-49.5z"/>
            <path aria-label="operations / sec: 56673; module: zod" aria-roledescription="bar" d="M953.75 609.692h49.5V611h-49.5z"/>
        </g>
    </g>
</svg>
