<svg xmlns="http://www.w3.org/2000/svg" class="marks" width="1001" height="814">
    <path fill="#fff" d="M0 0h1001v814H0z"/>
    <g class="mark-group role-frame root" aria-roledescription="group mark container" fill="none" stroke-miterlimit="10">
        <path class="background" aria-hidden="true" d="M116.5 5.5h880v600h-880z" stroke="#ddd"/>
        <g class="mark-group role-axis" aria-roledescription="axis" aria-label="Y-axis for a linear scale with values from 0 to 3,500,000">
            <path class="background" aria-hidden="true" d="M116.5 5.5z" pointer-events="none"/>
            <g class="mark-rule role-axis-grid" pointer-events="none" stroke="#ddd">
                <path d="M116.5 605.5h880M116.5 571.5h880M116.5 536.5h880M116.5 502.5h880M116.5 468.5h880M116.5 434.5h880M116.5 399.5h880M116.5 365.5h880M116.5 331.5h880M116.5 296.5h880M116.5 262.5h880M116.5 228.5h880M116.5 194.5h880M116.5 159.5h880M116.5 125.5h880M116.5 91.5h880M116.5 56.5h880M116.5 22.5h880"/>
            </g>
        </g>
        <g class="mark-group role-axis" aria-roledescription="axis" aria-label="X-axis titled 'module' for a discrete scale with 20 values: @typeofweb/schema, bueno, class-transformer-validator-async, class-transformer-validator-sync, computed-types, ending with zod">
            <path class="background" aria-hidden="true" d="M116.5 605.5z" pointer-events="none"/>
            <g class="mark-rule role-axis-tick" pointer-events="none" stroke="#888">
                <path d="M138.5 605.5v5M182.5 605.5v5M226.5 605.5v5M270.5 605.5v5M314.5 605.5v5M358.5 605.5v5M402.5 605.5v5M446.5 605.5v5M490.5 605.5v5M534.5 605.5v5M578.5 605.5v5M622.5 605.5v5M666.5 605.5v5M710.5 605.5v5M754.5 605.5v5M798.5 605.5v5M842.5 605.5v5M886.5 605.5v5M930.5 605.5v5M974.5 605.5v5"/>
            </g>
            <g class="mark-text role-axis-label" pointer-events="none" font-family="sans-serif" font-size="14" fill="#000">
                <text transform="rotate(90 -239.25 373.25)">@typeofweb/sche…</text>
                <text transform="rotate(90 -217.25 395.25)">bueno</text>
                <text transform="rotate(90 -195.25 417.25)">class-transform…</text>
                <text transform="rotate(90 -173.25 439.25)">class-transform…</text>
                <text transform="rotate(90 -151.25 461.25)">computed-types</text>
                <text transform="rotate(90 -129.25 483.25)">decoders</text>
                <text transform="rotate(90 -107.25 505.25)">io-ts</text>
                <text transform="rotate(90 -85.25 527.25)">jointz</text>
                <text transform="rotate(90 -63.25 549.25)">json-decoder</text>
                <text transform="rotate(90 -41.25 571.25)">myzod</text>
                <text transform="rotate(90 -19.25 593.25)">purify-ts</text>
                <text transform="rotate(90 2.75 615.25)">rulr</text>
                <text transform="rotate(90 24.75 637.25)">runtypes</text>
                <text transform="rotate(90 46.75 659.25)">simple-runtypes</text>
                <text transform="rotate(90 68.75 681.25)">superstruct</text>
                <text transform="rotate(90 90.75 703.25)">toi</text>
                <text transform="rotate(90 112.75 725.25)">ts-utils</text>
                <text transform="rotate(90 134.75 747.25)">valita</text>
                <text transform="rotate(90 156.75 769.25)">yup</text>
                <text transform="rotate(90 178.75 791.25)">zod</text>
            </g>
            <path stroke="#888" d="M116.5 605.5h880" pointer-events="none"/>
            <text text-anchor="middle" transform="translate(556.5 806.5)" font-family="sans-serif" font-size="14" fill="#000" pointer-events="none">module</text>
        </g>
        <g class="mark-group role-axis" aria-roledescription="axis" aria-label="Y-axis titled 'operations / sec' for a linear scale with values from 0 to 3,500,000">
            <path class="background" aria-hidden="true" d="M116.5 5.5z" pointer-events="none"/>
            <g class="mark-rule role-axis-tick" pointer-events="none" stroke="#888">
                <path d="M116.5 605.5h-5M116.5 571.5h-5M116.5 536.5h-5M116.5 502.5h-5M116.5 468.5h-5M116.5 434.5h-5M116.5 399.5h-5M116.5 365.5h-5M116.5 331.5h-5M116.5 296.5h-5M116.5 262.5h-5M116.5 228.5h-5M116.5 194.5h-5M116.5 159.5h-5M116.5 125.5h-5M116.5 91.5h-5M116.5 56.5h-5M116.5 22.5h-5"/>
            </g>
            <g class="mark-text role-axis-label" pointer-events="none" text-anchor="end" font-family="sans-serif" font-size="12" fill="#000">
                <text transform="translate(109.5 609.5)">0</text>
                <text transform="translate(109.5 575.214)">200,000</text>
                <text transform="translate(109.5 540.929)">400,000</text>
                <text transform="translate(109.5 506.643)">600,000</text>
                <text transform="translate(109.5 472.357)">800,000</text>
                <text transform="translate(109.5 438.071)">1,000,000</text>
                <text transform="translate(109.5 403.786)">1,200,000</text>
                <text transform="translate(109.5 369.5)">1,400,000</text>
                <text transform="translate(109.5 335.214)">1,600,000</text>
                <text transform="translate(109.5 300.929)">1,800,000</text>
                <text transform="translate(109.5 266.643)">2,000,000</text>
                <text transform="translate(109.5 232.357)">2,200,000</text>
                <text transform="translate(109.5 198.071)">2,400,000</text>
                <text transform="translate(109.5 163.786)">2,600,000</text>
                <text transform="translate(109.5 129.5)">2,800,000</text>
                <text transform="translate(109.5 95.214)">3,000,000</text>
                <text transform="translate(109.5 60.929)">3,200,000</text>
                <text transform="translate(109.5 26.643)">3,400,000</text>
            </g>
            <path stroke="#888" d="M116.5 605.5V5.5" pointer-events="none"/>
            <text text-anchor="middle" transform="rotate(-90 161 144.5)" font-family="sans-serif" font-size="14" fill="#000" pointer-events="none">operations / sec</text>
        </g>
        <g class="mark-rect role-mark marks" aria-roledescription="rect mark container" fill="#4c78a8">
            <path d="M162.2 581.237h39.6V605h-39.6zM206.2 600.44h39.6V605h-39.6zM250.2 599.304h39.6V605h-39.6zM294.2 489.586h39.6V605h-39.6zM338.2 572.947h39.6V605h-39.6zM382.2 425.69h39.6V605h-39.6zM426.2 371.42h39.6V605h-39.6zM470.2 484.466h39.6V605h-39.6zM514.2 388.794h39.6V605h-39.6zM558.2 497.189h39.6V605h-39.6zM602.2 497.956h39.6V605h-39.6zM646.2 464.356h39.6V605h-39.6zM690.2 347.204h39.6V605h-39.6zM734.2 596.68h39.6V605h-39.6zM778.2 525.68h39.6V605h-39.6zM822.2 581.87h39.6V605h-39.6zM118.2 460.922h39.6V605h-39.6zM866.2 52.55h39.6V605h-39.6zM910.2 603.252h39.6V605h-39.6zM954.2 603.876h39.6V605h-39.6z"/>
        </g>
    </g>
</svg>
