<svg xmlns="http://www.w3.org/2000/svg" class="marks" width="1011" height="820">
    <path fill="#fff" d="M0 0h1011v820H0z"/>
    <g class="mark-group role-frame root" aria-roledescription="group mark container" fill="none" stroke-miterlimit="10">
        <path class="background" aria-hidden="true" d="M126.5 11.5h880v600h-880z" stroke="#ddd"/>
        <g class="mark-group role-axis" aria-roledescription="axis" aria-label="Y-axis for a linear scale with values from 0 to 18,000,000">
            <path class="background" aria-hidden="true" d="M126.5 11.5z" pointer-events="none"/>
            <g class="mark-rule role-axis-grid" pointer-events="none" stroke="#ddd">
                <path d="M126.5 611.5h880M126.5 578.5h880M126.5 544.5h880M126.5 511.5h880M126.5 478.5h880M126.5 444.5h880M126.5 411.5h880M126.5 378.5h880M126.5 344.5h880M126.5 311.5h880M126.5 278.5h880M126.5 244.5h880M126.5 211.5h880M126.5 178.5h880M126.5 144.5h880M126.5 111.5h880M126.5 78.5h880M126.5 44.5h880M126.5 11.5h880"/>
            </g>
        </g>
        <g class="mark-group role-axis" aria-roledescription="axis" aria-label="X-axis titled 'module' for a discrete scale with 24 values: @typeofweb/schema, bueno, class-transformer-validator-async, class-transformer-validator-sync, computed-types, ending with zod">
            <path class="background" aria-hidden="true" d="M126.5 611.5z" pointer-events="none"/>
            <g class="mark-rule role-axis-tick" pointer-events="none" stroke="#888">
                <path d="M144.5 611.5v5M181.5 611.5v5M217.5 611.5v5M254.5 611.5v5M291.5 611.5v5M327.5 611.5v5M364.5 611.5v5M401.5 611.5v5M437.5 611.5v5M474.5 611.5v5M511.5 611.5v5M547.5 611.5v5M584.5 611.5v5M621.5 611.5v5M657.5 611.5v5M694.5 611.5v5M731.5 611.5v5M767.5 611.5v5M804.5 611.5v5M841.5 611.5v5M877.5 611.5v5M914.5 611.5v5M951.5 611.5v5M987.5 611.5v5"/>
            </g>
            <g class="mark-text role-axis-label" pointer-events="none" font-family="sans-serif" font-size="14" fill="#000">
                <text transform="rotate(90 -239.083 379.417)">@typeofweb/sche…</text>
                <text transform="rotate(90 -220.75 397.75)">bueno</text>
                <text transform="rotate(90 -202.417 416.083)">class-transform…</text>
                <text transform="rotate(90 -184.083 434.417)">class-transform…</text>
                <text transform="rotate(90 -165.75 452.75)">computed-types</text>
                <text transform="rotate(90 -147.417 471.083)">decoders</text>
                <text transform="rotate(90 -129.083 489.417)">io-ts</text>
                <text transform="rotate(90 -110.75 507.75)">jointz</text>
                <text transform="rotate(90 -92.417 526.083)">json-decoder</text>
                <text transform="rotate(90 -74.083 544.417)">marshal</text>
                <text transform="rotate(90 -55.75 562.75)">myzod</text>
                <text transform="rotate(90 -37.417 581.083)">purify-ts</text>
                <text transform="rotate(90 -19.083 599.417)">rulr</text>
                <text transform="rotate(90 -.75 617.75)">runtypes</text>
                <text transform="rotate(90 17.583 636.083)">simple-runtypes</text>
                <text transform="rotate(90 35.917 654.417)">superstruct</text>
                <text transform="rotate(90 54.25 672.75)">suretype</text>
                <text transform="rotate(90 72.583 691.083)">toi</text>
                <text transform="rotate(90 90.917 709.417)">ts-interface-ch…</text>
                <text transform="rotate(90 109.25 727.75)">ts-json-validat…</text>
                <text transform="rotate(90 127.583 746.083)">ts-utils</text>
                <text transform="rotate(90 145.917 764.417)">valita</text>
                <text transform="rotate(90 164.25 782.75)">yup</text>
                <text transform="rotate(90 182.583 801.083)">zod</text>
            </g>
            <path stroke="#888" d="M126.5 611.5h880" class="mark-rule role-axis-domain" pointer-events="none"/>
            <text text-anchor="middle" transform="translate(566.5 812.5)" font-family="sans-serif" font-size="14" fill="#000" class="mark-text role-axis-title" pointer-events="none">module</text>
        </g>
        <g class="mark-group role-axis" aria-roledescription="axis" aria-label="Y-axis titled 'operations / sec' for a linear scale with values from 0 to 18,000,000">
            <path class="background" aria-hidden="true" d="M126.5 11.5z" pointer-events="none"/>
            <g class="mark-rule role-axis-tick" pointer-events="none" stroke="#888">
                <path d="M126.5 611.5h-5M126.5 578.5h-5M126.5 544.5h-5M126.5 511.5h-5M126.5 478.5h-5M126.5 444.5h-5M126.5 411.5h-5M126.5 378.5h-5M126.5 344.5h-5M126.5 311.5h-5M126.5 278.5h-5M126.5 244.5h-5M126.5 211.5h-5M126.5 178.5h-5M126.5 144.5h-5M126.5 111.5h-5M126.5 78.5h-5M126.5 44.5h-5M126.5 11.5h-5"/>
            </g>
            <g class="mark-text role-axis-label" pointer-events="none" text-anchor="end" font-family="sans-serif" font-size="12" fill="#000">
                <text transform="translate(119.5 615.5)">0</text>
                <text transform="translate(119.5 582.167)">1,000,000</text>
                <text transform="translate(119.5 548.833)">2,000,000</text>
                <text transform="translate(119.5 515.5)">3,000,000</text>
                <text transform="translate(119.5 482.167)">4,000,000</text>
                <text transform="translate(119.5 448.833)">5,000,000</text>
                <text transform="translate(119.5 415.5)">6,000,000</text>
                <text transform="translate(119.5 382.167)">7,000,000</text>
                <text transform="translate(119.5 348.833)">8,000,000</text>
                <text transform="translate(119.5 315.5)">9,000,000</text>
                <text transform="translate(119.5 282.167)">10,000,000</text>
                <text transform="translate(119.5 248.833)">11,000,000</text>
                <text transform="translate(119.5 215.5)">12,000,000</text>
                <text transform="translate(119.5 182.167)">13,000,000</text>
                <text transform="translate(119.5 148.833)">14,000,000</text>
                <text transform="translate(119.5 115.5)">15,000,000</text>
                <text transform="translate(119.5 82.167)">16,000,000</text>
                <text transform="translate(119.5 48.833)">17,000,000</text>
                <text transform="translate(119.5 15.5)">18,000,000</text>
            </g>
            <path stroke="#888" d="M126.5 611.5v-600" class="mark-rule role-axis-domain" pointer-events="none"/>
            <text text-anchor="middle" transform="rotate(-90 164 147.5)" font-family="sans-serif" font-size="14" fill="#000" class="mark-text role-axis-title" pointer-events="none">operations / sec</text>
        </g>
        <g class="mark-rect role-mark marks" aria-roledescription="rect mark container" fill="#4c78a8">
            <path d="M164.5 606.153h33V611h-33zM201.167 610.174h33V611h-33zM237.833 609.943h33V611h-33zM274.5 589.897h33V611h-33zM311.167 604.611h33V611h-33zM347.833 579.562h33V611h-33zM384.5 566.909h33V611h-33zM421.167 589.418h33V611h-33zM457.833 221.114h33V611h-33zM494.5 570.034h33V611h-33zM531.167 588.362h33V611h-33zM567.833 590.792h33V611h-33zM604.5 588.891h33V611h-33zM641.167 559.238h33V611h-33zM677.833 608.491h33V611h-33zM714.5 17.223h33V611h-33zM751.167 597.95h33V611h-33zM787.833 537.6h33V611h-33zM824.5 16.691h33V611h-33zM861.167 608.626h33V611h-33zM127.833 587.395h33V611h-33zM897.833 514.094h33V611h-33zM934.5 610.54h33v.46h-33zM971.167 610.714h33V611h-33z"/>
        </g>
    </g>
</svg>
