<svg xmlns="http://www.w3.org/2000/svg" class="marks" width="1011" height="820">
    <path fill="#fff" d="M0 0h1011v820H0z"/>
    <g class="mark-group role-frame root" aria-roledescription="group mark container" fill="none" stroke-miterlimit="10">
        <path class="background" aria-hidden="true" d="M126.5 11.5h880v600h-880z" stroke="#ddd"/>
        <g class="mark-group role-axis" aria-roledescription="axis" aria-label="Y-axis for a linear scale with values from 0 to 13,000,000">
            <path class="background" aria-hidden="true" d="M126.5 11.5z" pointer-events="none"/>
            <g class="mark-rule role-axis-grid" pointer-events="none" stroke="#ddd">
                <path d="M126.5 611.5h880M126.5 565.5h880M126.5 519.5h880M126.5 473.5h880M126.5 426.5h880M126.5 380.5h880M126.5 334.5h880M126.5 288.5h880M126.5 242.5h880M126.5 196.5h880M126.5 149.5h880M126.5 103.5h880M126.5 57.5h880M126.5 11.5h880"/>
            </g>
        </g>
        <g class="mark-group role-axis" aria-roledescription="axis" aria-label="X-axis titled 'module' for a discrete scale with 24 values: @typeofweb/schema, bueno, class-transformer-validator-async, class-transformer-validator-sync, computed-types, ending with zod">
            <path class="background" aria-hidden="true" d="M126.5 611.5z" pointer-events="none"/>
            <g class="mark-rule role-axis-tick" pointer-events="none" stroke="#888">
                <path d="M144.5 611.5v5M181.5 611.5v5M217.5 611.5v5M254.5 611.5v5M291.5 611.5v5M327.5 611.5v5M364.5 611.5v5M401.5 611.5v5M437.5 611.5v5M474.5 611.5v5M511.5 611.5v5M547.5 611.5v5M584.5 611.5v5M621.5 611.5v5M657.5 611.5v5M694.5 611.5v5M731.5 611.5v5M767.5 611.5v5M804.5 611.5v5M841.5 611.5v5M877.5 611.5v5M914.5 611.5v5M951.5 611.5v5M987.5 611.5v5"/>
            </g>
            <g class="mark-text role-axis-label" pointer-events="none" font-family="sans-serif" font-size="14" fill="#000">
                <text transform="rotate(90 -239.083 379.417)">@typeofweb/sche…</text>
                <text transform="rotate(90 -220.75 397.75)">bueno</text>
                <text transform="rotate(90 -202.417 416.083)">class-transform…</text>
                <text transform="rotate(90 -184.083 434.417)">class-transform…</text>
                <text transform="rotate(90 -165.75 452.75)">computed-types</text>
                <text transform="rotate(90 -147.417 471.083)">decoders</text>
                <text transform="rotate(90 -129.083 489.417)">io-ts</text>
                <text transform="rotate(90 -110.75 507.75)">jointz</text>
                <text transform="rotate(90 -92.417 526.083)">json-decoder</text>
                <text transform="rotate(90 -74.083 544.417)">marshal</text>
                <text transform="rotate(90 -55.75 562.75)">myzod</text>
                <text transform="rotate(90 -37.417 581.083)">purify-ts</text>
                <text transform="rotate(90 -19.083 599.417)">rulr</text>
                <text transform="rotate(90 -.75 617.75)">runtypes</text>
                <text transform="rotate(90 17.583 636.083)">simple-runtypes</text>
                <text transform="rotate(90 35.917 654.417)">superstruct</text>
                <text transform="rotate(90 54.25 672.75)">suretype</text>
                <text transform="rotate(90 72.583 691.083)">toi</text>
                <text transform="rotate(90 90.917 709.417)">ts-interface-ch…</text>
                <text transform="rotate(90 109.25 727.75)">ts-json-validat…</text>
                <text transform="rotate(90 127.583 746.083)">ts-utils</text>
                <text transform="rotate(90 145.917 764.417)">valita</text>
                <text transform="rotate(90 164.25 782.75)">yup</text>
                <text transform="rotate(90 182.583 801.083)">zod</text>
            </g>
            <path stroke="#888" d="M126.5 611.5h880" class="mark-rule role-axis-domain" pointer-events="none"/>
            <text text-anchor="middle" transform="translate(566.5 812.5)" font-family="sans-serif" font-size="14" fill="#000" class="mark-text role-axis-title" pointer-events="none">module</text>
        </g>
        <g class="mark-group role-axis" aria-roledescription="axis" aria-label="Y-axis titled 'operations / sec' for a linear scale with values from 0 to 13,000,000">
            <path class="background" aria-hidden="true" d="M126.5 11.5z" pointer-events="none"/>
            <g class="mark-rule role-axis-tick" pointer-events="none" stroke="#888">
                <path d="M126.5 611.5h-5M126.5 565.5h-5M126.5 519.5h-5M126.5 473.5h-5M126.5 426.5h-5M126.5 380.5h-5M126.5 334.5h-5M126.5 288.5h-5M126.5 242.5h-5M126.5 196.5h-5M126.5 149.5h-5M126.5 103.5h-5M126.5 57.5h-5M126.5 11.5h-5"/>
            </g>
            <g class="mark-text role-axis-label" pointer-events="none" text-anchor="end" font-family="sans-serif" font-size="12" fill="#000">
                <text transform="translate(119.5 615.5)">0</text>
                <text transform="translate(119.5 569.346)">1,000,000</text>
                <text transform="translate(119.5 523.192)">2,000,000</text>
                <text transform="translate(119.5 477.038)">3,000,000</text>
                <text transform="translate(119.5 430.885)">4,000,000</text>
                <text transform="translate(119.5 384.73)">5,000,000</text>
                <text transform="translate(119.5 338.577)">6,000,000</text>
                <text transform="translate(119.5 292.423)">7,000,000</text>
                <text transform="translate(119.5 246.27)">8,000,000</text>
                <text transform="translate(119.5 200.115)">9,000,000</text>
                <text transform="translate(119.5 153.962)">10,000,000</text>
                <text transform="translate(119.5 107.808)">11,000,000</text>
                <text transform="translate(119.5 61.654)">12,000,000</text>
                <text transform="translate(119.5 15.5)">13,000,000</text>
            </g>
            <path stroke="#888" d="M126.5 611.5v-600" class="mark-rule role-axis-domain" pointer-events="none"/>
            <text text-anchor="middle" transform="rotate(-90 164 147.5)" font-family="sans-serif" font-size="14" fill="#000" class="mark-text role-axis-title" pointer-events="none">operations / sec</text>
        </g>
        <g class="mark-rect role-mark marks" aria-roledescription="rect mark container" fill="#4c78a8">
            <path d="M164.5 603.764h33V611h-33zM201.167 609.427h33V611h-33zM237.833 609.124h33V611h-33zM274.5 577.946h33V611h-33zM311.167 601.634h33V611h-33zM347.833 562.412h33V611h-33zM384.5 549.374h33V611h-33zM421.167 576.9h33V611h-33zM457.833 86.417h33V611h-33zM494.5 556.987h33V611h-33zM531.167 576.106h33V611h-33zM567.833 576.862h33V611h-33zM604.5 577.16h33V611h-33zM641.167 537.41h33V611h-33zM677.833 606.796h33V611h-33zM714.5 39.043h33V611h-33zM751.167 592.7h33V611h-33zM787.833 517.494h33V611h-33zM824.5 94.458h33V611h-33zM861.167 606.915h33V611h-33zM127.833 572.759h33V611h-33zM897.833 484.758h33V611h-33zM934.5 610.256h33V611h-33zM971.167 610.568h33V611h-33z"/>
        </g>
    </g>
</svg>
