<svg xmlns="http://www.w3.org/2000/svg" class="marks" width="1011" height="820">
    <path fill="#fff" d="M0 0h1011v820H0z"/>
    <g class="mark-group role-frame root" aria-roledescription="group mark container" fill="none" stroke-miterlimit="10">
        <path class="background" aria-hidden="true" d="M126.5 11.5h880v600h-880z" stroke="#ddd"/>
        <g class="mark-group role-axis" aria-roledescription="axis" aria-label="Y-axis for a linear scale with values from 0 to 18,000,000">
            <path class="background" aria-hidden="true" d="M126.5 11.5z" pointer-events="none"/>
            <g class="mark-rule role-axis-grid" pointer-events="none" stroke="#ddd">
                <path d="M126.5 611.5h880M126.5 578.5h880M126.5 544.5h880M126.5 511.5h880M126.5 478.5h880M126.5 444.5h880M126.5 411.5h880M126.5 378.5h880M126.5 344.5h880M126.5 311.5h880M126.5 278.5h880M126.5 244.5h880M126.5 211.5h880M126.5 178.5h880M126.5 144.5h880M126.5 111.5h880M126.5 78.5h880M126.5 44.5h880M126.5 11.5h880"/>
            </g>
        </g>
        <g class="mark-group role-axis" aria-roledescription="axis" aria-label="X-axis titled 'module' for a discrete scale with 21 values: bueno, class-transformer-validator-async, class-transformer-validator-sync, computed-types, decoders, ending with zod">
            <path class="background" aria-hidden="true" d="M126.5 611.5z" pointer-events="none"/>
            <g class="mark-rule role-axis-tick" pointer-events="none" stroke="#888">
                <path d="M146.5 611.5v5M188.5 611.5v5M230.5 611.5v5M272.5 611.5v5M314.5 611.5v5M356.5 611.5v5M398.5 611.5v5M440.5 611.5v5M482.5 611.5v5M524.5 611.5v5M566.5 611.5v5M607.5 611.5v5M649.5 611.5v5M691.5 611.5v5M733.5 611.5v5M775.5 611.5v5M817.5 611.5v5M859.5 611.5v5M901.5 611.5v5M943.5 611.5v5M985.5 611.5v5"/>
            </g>
            <g class="mark-text role-axis-label" pointer-events="none" font-family="sans-serif" font-size="14" fill="#000">
                <text transform="rotate(90 -237.774 380.726)">bueno</text>
                <text transform="rotate(90 -216.821 401.679)">class-transform…</text>
                <text transform="rotate(90 -195.869 422.631)">class-transform…</text>
                <text transform="rotate(90 -174.917 443.583)">computed-types</text>
                <text transform="rotate(90 -153.964 464.536)">decoders</text>
                <text transform="rotate(90 -133.012 485.488)">io-ts</text>
                <text transform="rotate(90 -112.06 506.44)">jointz</text>
                <text transform="rotate(90 -91.107 527.393)">json-decoder</text>
                <text transform="rotate(90 -70.155 548.345)">marshal</text>
                <text transform="rotate(90 -49.202 569.298)">myzod</text>
                <text transform="rotate(90 -28.25 590.25)">purify-ts</text>
                <text transform="rotate(90 -7.298 611.202)">rulr</text>
                <text transform="rotate(90 13.655 632.155)">runtypes</text>
                <text transform="rotate(90 34.607 653.107)">simple-runtypes</text>
                <text transform="rotate(90 55.56 674.06)">superstruct</text>
                <text transform="rotate(90 76.512 695.012)">toi</text>
                <text transform="rotate(90 97.464 715.964)">ts-json-validat…</text>
                <text transform="rotate(90 118.417 736.917)">ts-utils</text>
                <text transform="rotate(90 139.369 757.869)">valita</text>
                <text transform="rotate(90 160.321 778.821)">yup</text>
                <text transform="rotate(90 181.274 799.774)">zod</text>
            </g>
            <path stroke="#888" d="M126.5 611.5h880" pointer-events="none"/>
            <text text-anchor="middle" transform="translate(566.5 812.5)" font-family="sans-serif" font-size="14" fill="#000" pointer-events="none">module</text>
        </g>
        <g class="mark-group role-axis" aria-roledescription="axis" aria-label="Y-axis titled 'operations / sec' for a linear scale with values from 0 to 18,000,000">
            <path class="background" aria-hidden="true" d="M126.5 11.5z" pointer-events="none"/>
            <g class="mark-rule role-axis-tick" pointer-events="none" stroke="#888">
                <path d="M126.5 611.5h-5M126.5 578.5h-5M126.5 544.5h-5M126.5 511.5h-5M126.5 478.5h-5M126.5 444.5h-5M126.5 411.5h-5M126.5 378.5h-5M126.5 344.5h-5M126.5 311.5h-5M126.5 278.5h-5M126.5 244.5h-5M126.5 211.5h-5M126.5 178.5h-5M126.5 144.5h-5M126.5 111.5h-5M126.5 78.5h-5M126.5 44.5h-5M126.5 11.5h-5"/>
            </g>
            <g class="mark-text role-axis-label" pointer-events="none" text-anchor="end" font-family="sans-serif" font-size="12" fill="#000">
                <text transform="translate(119.5 615.5)">0</text>
                <text transform="translate(119.5 582.167)">1,000,000</text>
                <text transform="translate(119.5 548.833)">2,000,000</text>
                <text transform="translate(119.5 515.5)">3,000,000</text>
                <text transform="translate(119.5 482.167)">4,000,000</text>
                <text transform="translate(119.5 448.833)">5,000,000</text>
                <text transform="translate(119.5 415.5)">6,000,000</text>
                <text transform="translate(119.5 382.167)">7,000,000</text>
                <text transform="translate(119.5 348.833)">8,000,000</text>
                <text transform="translate(119.5 315.5)">9,000,000</text>
                <text transform="translate(119.5 282.167)">10,000,000</text>
                <text transform="translate(119.5 248.833)">11,000,000</text>
                <text transform="translate(119.5 215.5)">12,000,000</text>
                <text transform="translate(119.5 182.167)">13,000,000</text>
                <text transform="translate(119.5 148.833)">14,000,000</text>
                <text transform="translate(119.5 115.5)">15,000,000</text>
                <text transform="translate(119.5 82.167)">16,000,000</text>
                <text transform="translate(119.5 48.833)">17,000,000</text>
                <text transform="translate(119.5 15.5)">18,000,000</text>
            </g>
            <path stroke="#888" d="M126.5 611.5v-600" pointer-events="none"/>
            <text text-anchor="middle" transform="rotate(-90 164 147.5)" font-family="sans-serif" font-size="14" fill="#000" pointer-events="none">operations / sec</text>
        </g>
        <g class="mark-rect role-mark marks" aria-roledescription="rect mark container" fill="#4c78a8">
            <path d="M128.095 606.97h37.715V611h-37.715zM170 610.222h37.714V611H170zM211.905 610.011h37.714V611h-37.714zM253.81 591.29h37.714V611H253.81zM295.714 604.925h37.715V611h-37.715zM337.619 581.29h37.714V611H337.62zM379.524 566.908h37.714V611h-37.714zM421.429 589.229h37.714V611h-37.714zM463.333 242.13h37.715V611h-37.715zM505.238 573.459h37.714V611h-37.714zM547.143 589.21h37.714V611h-37.714zM589.048 590.606h37.714V611h-37.714zM630.952 590.204h37.715V611h-37.715zM672.857 561.743h37.714V611h-37.714zM714.762 609.405h37.714V611h-37.714zM756.667 598.341h37.714V611h-37.714zM798.571 56.586h37.715V611H798.57zM840.476 607.072h37.714V611h-37.714zM882.381 509.108h37.714V611h-37.714zM924.286 610.758H962V611h-37.714zM966.19 610.731h37.715V611H966.19z"/>
        </g>
    </g>
</svg>
