<svg class="marks" width="1011" height="820" xmlns="http://www.w3.org/2000/svg">
    <path fill="#fff" d="M0 0h1011v820H0z"/>
    <g class="mark-group role-frame root" aria-roledescription="group mark container" fill="none" stroke-miterlimit="10">
        <path class="background" aria-hidden="true" d="M126.5 11.5h880v600h-880z" stroke="#ddd"/>
        <g class="mark-group role-axis" aria-hidden="true">
            <path class="background" aria-hidden="true" d="M126.5 11.5z" pointer-events="none"/>
            <g class="mark-rule role-axis-grid" pointer-events="none" stroke="#ddd">
                <path d="M126.5 611.5h880M126.5 568.5h880M126.5 525.5h880M126.5 482.5h880M126.5 440.5h880M126.5 397.5h880M126.5 354.5h880M126.5 311.5h880M126.5 268.5h880M126.5 225.5h880M126.5 182.5h880M126.5 140.5h880M126.5 97.5h880M126.5 54.5h880M126.5 11.5h880"/>
            </g>
        </g>
        <g class="mark-group role-axis" aria-roledescription="axis" aria-label="X-axis titled 'module' for a discrete scale with 17 values: class-transformer-validator-async, class-transformer-validator-sync, computed-types, io-ts, jointz, ending with zod">
            <path class="background" aria-hidden="true" d="M126.5 611.5z" pointer-events="none"/>
            <g class="mark-rule role-axis-tick" pointer-events="none" stroke="#888">
                <path d="M151.5 611.5v5M203.5 611.5v5M255.5 611.5v5M307.5 611.5v5M358.5 611.5v5M410.5 611.5v5M462.5 611.5v5M514.5 611.5v5M566.5 611.5v5M617.5 611.5v5M669.5 611.5v5M721.5 611.5v5M773.5 611.5v5M824.5 611.5v5M876.5 611.5v5M928.5 611.5v5M980.5 611.5v5"/>
            </g>
            <g class="mark-text role-axis-label" pointer-events="none" font-family="sans-serif" font-size="14" fill="#000">
                <text transform="rotate(90 -235.309 383.191)">
                    class-transform…
                </text>
                <text transform="rotate(90 -209.426 409.074)">
                    class-transform…
                </text>
                <text transform="rotate(90 -183.544 434.956)">
                    computed-types
                </text>
                <text transform="rotate(90 -157.662 460.838)">
                    io-ts
                </text>
                <text transform="rotate(90 -131.78 486.72)">
                    jointz
                </text>
                <text transform="rotate(90 -105.897 512.603)">
                    json-decoder
                </text>
                <text transform="rotate(90 -80.015 538.485)">
                    marshal
                </text>
                <text transform="rotate(90 -54.132 564.368)">
                    myzod
                </text>
                <text transform="rotate(90 -28.25 590.25)">
                    purify-ts
                </text>
                <text transform="rotate(90 -2.368 616.132)">
                    quartet
                </text>
                <text transform="rotate(90 23.515 642.015)">
                    rulr
                </text>
                <text transform="rotate(90 49.397 667.897)">
                    runtypes
                </text>
                <text transform="rotate(90 75.28 693.78)">
                    toi
                </text>
                <text transform="rotate(90 101.162 719.662)">
                    ts-json-validat…
                </text>
                <text transform="rotate(90 127.044 745.544)">
                    ts-utils
                </text>
                <text transform="rotate(90 152.926 771.426)">
                    yup
                </text>
                <text transform="rotate(90 178.809 797.309)">
                    zod
                </text>
            </g>
            <path stroke="#888" d="M126.5 611.5h880" pointer-events="none"/>
            <text text-anchor="middle" transform="translate(566.5 812.5)" font-family="sans-serif" font-size="14" fill="#000" pointer-events="none">
                module
            </text>
        </g>
        <g class="mark-group role-axis" aria-roledescription="axis" aria-label="Y-axis titled 'operations / sec' for a linear scale with values from 0 to 70,000,000">
            <path class="background" aria-hidden="true" d="M126.5 11.5z" pointer-events="none"/>
            <g class="mark-rule role-axis-tick" pointer-events="none" stroke="#888">
                <path d="M126.5 611.5h-5M126.5 568.5h-5M126.5 525.5h-5M126.5 482.5h-5M126.5 440.5h-5M126.5 397.5h-5M126.5 354.5h-5M126.5 311.5h-5M126.5 268.5h-5M126.5 225.5h-5M126.5 182.5h-5M126.5 140.5h-5M126.5 97.5h-5M126.5 54.5h-5M126.5 11.5h-5"/>
            </g>
            <g class="mark-text role-axis-label" pointer-events="none" text-anchor="end" font-family="sans-serif" font-size="12" fill="#000">
                <text transform="translate(119.5 615.5)">
                    0
                </text>
                <text transform="translate(119.5 572.643)">
                    5,000,000
                </text>
                <text transform="translate(119.5 529.786)">
                    10,000,000
                </text>
                <text transform="translate(119.5 486.929)">
                    15,000,000
                </text>
                <text transform="translate(119.5 444.071)">
                    20,000,000
                </text>
                <text transform="translate(119.5 401.214)">
                    25,000,000
                </text>
                <text transform="translate(119.5 358.357)">
                    30,000,000
                </text>
                <text transform="translate(119.5 315.5)">
                    35,000,000
                </text>
                <text transform="translate(119.5 272.643)">
                    40,000,000
                </text>
                <text transform="translate(119.5 229.786)">
                    45,000,000
                </text>
                <text transform="translate(119.5 186.929)">
                    50,000,000
                </text>
                <text transform="translate(119.5 144.071)">
                    55,000,000
                </text>
                <text transform="translate(119.5 101.214)">
                    60,000,000
                </text>
                <text transform="translate(119.5 58.357)">
                    65,000,000
                </text>
                <text transform="translate(119.5 15.5)">
                    70,000,000
                </text>
            </g>
            <path stroke="#888" d="M126.5 611.5v-600" pointer-events="none"/>
            <text text-anchor="middle" transform="rotate(-90 164 147.5)" font-family="sans-serif" font-size="14" fill="#000" pointer-events="none">
                operations / sec
            </text>
        </g>
        <g class="mark-rect role-mark marks" aria-roledescription="rect mark container" fill="#4c78a8">
            <path aria-label="operations / sec: 41078; module: class-transformer-validator-async" aria-roledescription="bar" d="M128.588 610.648h46.588V611h-46.588z"/>
            <path aria-label="operations / sec: 47373; module: class-transformer-validator-sync" aria-roledescription="bar" d="M180.353 610.594h46.588V611h-46.588z"/>
            <path aria-label="operations / sec: 880993; module: computed-types" aria-roledescription="bar" d="M232.118 603.449h46.588V611h-46.588z"/>
            <path aria-label="operations / sec: 2669958; module: io-ts" aria-roledescription="bar" d="M283.882 588.115h46.589V611h-46.589z"/>
            <path aria-label="operations / sec: 1084079; module: jointz" aria-roledescription="bar" d="M335.647 601.708h46.588V611h-46.588z"/>
            <path aria-label="operations / sec: 751419; module: json-decoder" aria-roledescription="bar" d="M387.412 604.56H434V611h-46.588z"/>
            <path aria-label="operations / sec: 22004268; module: marshal" aria-roledescription="bar" d="M439.176 422.392h46.589V611h-46.589z"/>
            <path aria-label="operations / sec: 1459530; module: myzod" aria-roledescription="bar" d="M490.941 598.49h46.588V611h-46.588z"/>
            <path aria-label="operations / sec: 826223; module: purify-ts" aria-roledescription="bar" d="M542.706 603.918h46.588V611h-46.588z"/>
            <path aria-label="operations / sec: 65736845; module: quartet" aria-roledescription="bar" d="M594.47 47.541h46.589V611H594.47z"/>
            <path aria-label="operations / sec: 833210; module: rulr" aria-roledescription="bar" d="M646.235 603.858h46.589V611h-46.589z"/>
            <path aria-label="operations / sec: 890508; module: runtypes" aria-roledescription="bar" d="M698 603.367h46.588V611H698z"/>
            <path aria-label="operations / sec: 555909; module: toi" aria-roledescription="bar" d="M749.765 606.235h46.588V611h-46.588z"/>
            <path aria-label="operations / sec: 37849911; module: ts-json-validator" aria-roledescription="bar" d="M801.53 286.572h46.588V611h-46.589z"/>
            <path aria-label="operations / sec: 145344; module: ts-utils" aria-roledescription="bar" d="M853.294 609.754h46.588V611h-46.588z"/>
            <path aria-label="operations / sec: 15949; module: yup" aria-roledescription="bar" d="M905.059 610.863h46.588V611H905.06z"/>
            <path aria-label="operations / sec: 64729; module: zod" aria-roledescription="bar" d="M956.824 610.445h46.588V611h-46.588z"/>
        </g>
    </g>
</svg>
