<svg class="marks" width="1011" height="820" xmlns="http://www.w3.org/2000/svg">
    <path fill="#fff" d="M0 0h1011v820H0z"/>
    <g class="mark-group role-frame root" aria-roledescription="group mark container" fill="none" stroke-miterlimit="10">
        <path class="background" aria-hidden="true" d="M126.5 11.5h880v600h-880z" stroke="#ddd"/>
        <g class="mark-group role-axis" aria-hidden="true">
            <path class="background" aria-hidden="true" d="M126.5 11.5z" pointer-events="none"/>
            <g class="mark-rule role-axis-grid" pointer-events="none" stroke="#ddd">
                <path d="M126.5 611.5h880M126.5 581.5h880M126.5 551.5h880M126.5 521.5h880M126.5 491.5h880M126.5 461.5h880M126.5 431.5h880M126.5 401.5h880M126.5 371.5h880M126.5 341.5h880M126.5 311.5h880M126.5 281.5h880M126.5 251.5h880M126.5 221.5h880M126.5 191.5h880M126.5 161.5h880M126.5 131.5h880M126.5 101.5h880M126.5 71.5h880M126.5 41.5h880M126.5 11.5h880"/>
            </g>
        </g>
        <g class="mark-group role-axis" aria-roledescription="axis" aria-label="X-axis titled 'module' for a discrete scale with 19 values: bueno, class-transformer-validator-async, class-transformer-validator-sync, computed-types, io-ts, ending with zod">
            <path class="background" aria-hidden="true" d="M126.5 611.5z" pointer-events="none"/>
            <g class="mark-rule role-axis-tick" pointer-events="none" stroke="#888">
                <path d="M149.5 611.5v5M195.5 611.5v5M241.5 611.5v5M288.5 611.5v5M334.5 611.5v5M380.5 611.5v5M427.5 611.5v5M473.5 611.5v5M519.5 611.5v5M566.5 611.5v5M612.5 611.5v5M658.5 611.5v5M704.5 611.5v5M751.5 611.5v5M797.5 611.5v5M843.5 611.5v5M890.5 611.5v5M936.5 611.5v5M982.5 611.5v5"/>
            </g>
            <g class="mark-text role-axis-label" pointer-events="none" font-family="sans-serif" font-size="14" fill="#000">
                <text transform="rotate(90 -236.671 381.829)">
                    bueno
                </text>
                <text transform="rotate(90 -213.513 404.987)">
                    class-transform…
                </text>
                <text transform="rotate(90 -190.355 428.145)">
                    class-transform…
                </text>
                <text transform="rotate(90 -167.197 451.303)">
                    computed-types
                </text>
                <text transform="rotate(90 -144.04 474.46)">
                    io-ts
                </text>
                <text transform="rotate(90 -120.882 497.618)">
                    jointz
                </text>
                <text transform="rotate(90 -97.724 520.776)">
                    json-decoder
                </text>
                <text transform="rotate(90 -74.566 543.934)">
                    marshal
                </text>
                <text transform="rotate(90 -51.408 567.092)">
                    myzod
                </text>
                <text transform="rotate(90 -28.25 590.25)">
                    purify-ts
                </text>
                <text transform="rotate(90 -5.092 613.408)">
                    quartet
                </text>
                <text transform="rotate(90 18.066 636.566)">
                    rulr
                </text>
                <text transform="rotate(90 41.224 659.724)">
                    runtypes
                </text>
                <text transform="rotate(90 64.382 682.882)">
                    simple-runtypes
                </text>
                <text transform="rotate(90 87.54 706.04)">
                    toi
                </text>
                <text transform="rotate(90 110.697 729.197)">
                    ts-json-validat…
                </text>
                <text transform="rotate(90 133.855 752.355)">
                    ts-utils
                </text>
                <text transform="rotate(90 157.013 775.513)">
                    yup
                </text>
                <text transform="rotate(90 180.171 798.671)">
                    zod
                </text>
            </g>
            <path stroke="#888" d="M126.5 611.5h880" pointer-events="none"/>
            <text text-anchor="middle" transform="translate(566.5 812.5)" font-family="sans-serif" font-size="14" fill="#000" pointer-events="none">
                module
            </text>
        </g>
        <g class="mark-group role-axis" aria-roledescription="axis" aria-label="Y-axis titled 'operations / sec' for a linear scale with values from 0 to 40,000,000">
            <path class="background" aria-hidden="true" d="M126.5 11.5z" pointer-events="none"/>
            <g class="mark-rule role-axis-tick" pointer-events="none" stroke="#888">
                <path d="M126.5 611.5h-5M126.5 581.5h-5M126.5 551.5h-5M126.5 521.5h-5M126.5 491.5h-5M126.5 461.5h-5M126.5 431.5h-5M126.5 401.5h-5M126.5 371.5h-5M126.5 341.5h-5M126.5 311.5h-5M126.5 281.5h-5M126.5 251.5h-5M126.5 221.5h-5M126.5 191.5h-5M126.5 161.5h-5M126.5 131.5h-5M126.5 101.5h-5M126.5 71.5h-5M126.5 41.5h-5M126.5 11.5h-5"/>
            </g>
            <g class="mark-text role-axis-label" pointer-events="none" text-anchor="end" font-family="sans-serif" font-size="12" fill="#000">
                <text transform="translate(119.5 615.5)">
                    0
                </text>
                <text transform="translate(119.5 585.5)">
                    2,000,000
                </text>
                <text transform="translate(119.5 555.5)">
                    4,000,000
                </text>
                <text transform="translate(119.5 525.5)">
                    6,000,000
                </text>
                <text transform="translate(119.5 495.5)">
                    8,000,000
                </text>
                <text transform="translate(119.5 465.5)">
                    10,000,000
                </text>
                <text transform="translate(119.5 435.5)">
                    12,000,000
                </text>
                <text transform="translate(119.5 405.5)">
                    14,000,000
                </text>
                <text transform="translate(119.5 375.5)">
                    16,000,000
                </text>
                <text transform="translate(119.5 345.5)">
                    18,000,000
                </text>
                <text transform="translate(119.5 315.5)">
                    20,000,000
                </text>
                <text transform="translate(119.5 285.5)">
                    22,000,000
                </text>
                <text transform="translate(119.5 255.5)">
                    24,000,000
                </text>
                <text transform="translate(119.5 225.5)">
                    26,000,000
                </text>
                <text transform="translate(119.5 195.5)">
                    28,000,000
                </text>
                <text transform="translate(119.5 165.5)">
                    30,000,000
                </text>
                <text transform="translate(119.5 135.5)">
                    32,000,000
                </text>
                <text transform="translate(119.5 105.5)">
                    34,000,000
                </text>
                <text transform="translate(119.5 75.5)">
                    36,000,000
                </text>
                <text transform="translate(119.5 45.5)">
                    38,000,000
                </text>
                <text transform="translate(119.5 15.5)">
                    40,000,000
                </text>
            </g>
            <path stroke="#888" d="M126.5 611.5v-600" pointer-events="none"/>
            <text text-anchor="middle" transform="rotate(-90 164 147.5)" font-family="sans-serif" font-size="14" fill="#000" pointer-events="none">
                operations / sec
            </text>
        </g>
        <g class="mark-rect role-mark marks" aria-roledescription="rect mark container" fill="#4c78a8">
            <path aria-label="operations / sec: 125386; module: bueno" aria-roledescription="bar" d="M128.316 609.12H170V611h-41.684z"/>
            <path aria-label="operations / sec: 34121; module: class-transformer-validator-async" aria-roledescription="bar" d="M174.632 610.488h41.684V611h-41.684z"/>
            <path aria-label="operations / sec: 38903; module: class-transformer-validator-sync" aria-roledescription="bar" d="M220.947 610.416h41.685V611h-41.685z"/>
            <path aria-label="operations / sec: 640970; module: computed-types" aria-roledescription="bar" d="M267.263 601.385h41.684V611h-41.684z"/>
            <path aria-label="operations / sec: 1897684; module: io-ts" aria-roledescription="bar" d="M313.579 582.535h41.684V611H313.58z"/>
            <path aria-label="operations / sec: 737747; module: jointz" aria-roledescription="bar" d="M359.895 599.934h41.684V611h-41.684z"/>
            <path aria-label="operations / sec: 672272; module: json-decoder" aria-roledescription="bar" d="M406.21 600.916h41.685V611H406.21z"/>
            <path aria-label="operations / sec: 15727388; module: marshal" aria-roledescription="bar" d="M452.526 375.09h41.685V611h-41.685z"/>
            <path aria-label="operations / sec: 1104682; module: myzod" aria-roledescription="bar" d="M498.842 594.43h41.684V611h-41.684z"/>
            <path aria-label="operations / sec: 674233; module: purify-ts" aria-roledescription="bar" d="M545.158 600.887h41.684V611h-41.684z"/>
            <path aria-label="operations / sec: 38659976; module: quartet" aria-roledescription="bar" d="M591.474 31.1h41.684V611h-41.684z"/>
            <path aria-label="operations / sec: 598724; module: rulr" aria-roledescription="bar" d="M637.79 602.02h41.684V611h-41.685z"/>
            <path aria-label="operations / sec: 646670; module: runtypes" aria-roledescription="bar" d="M684.105 601.3h41.684v9.7h-41.684z"/>
            <path aria-label="operations / sec: 1122084; module: simple-runtypes" aria-roledescription="bar" d="M730.421 594.169h41.684V611h-41.684z"/>
            <path aria-label="operations / sec: 397109; module: toi" aria-roledescription="bar" d="M776.737 605.043h41.684V611h-41.684z"/>
            <path aria-label="operations / sec: 17083855; module: ts-json-validator" aria-roledescription="bar" d="M823.053 354.742h41.684V611h-41.684z"/>
            <path aria-label="operations / sec: 122628; module: ts-utils" aria-roledescription="bar" d="M869.368 609.16h41.685V611h-41.685z"/>
            <path aria-label="operations / sec: 14194; module: yup" aria-roledescription="bar" d="M915.684 610.787h41.684V611h-41.684z"/>
            <path aria-label="operations / sec: 10358; module: zod" aria-roledescription="bar" d="M962 610.845h41.684V611H962z"/>
        </g>
    </g>
</svg>
