<svg class="marks" width="1011" height="820" viewBox="0 0 1011 820" version="1.1" xmlns="http://www.w3.org/2000/svg" xmlns:xlink="http://www.w3.org/1999/xlink"><defs><style>.vega-svg-root * { fill: none; } .vega-svg-root tspan { fill: inherit; } .vega-svg-root path { stroke-miterlimit: 10; }</style></defs><rect width="1011" height="820" style="fill: white;"></rect><g class="vega-svg-root" transform="translate(126,11)"><g class="mark-group role-frame root" role="graphics-object" aria-roledescription="group mark container"><g transform="translate(0,0)"><path class="background" aria-hidden="true" d="M0.5,0.5h880v600h-880Z" style="stroke: #ddd;"></path><g><g class="mark-group role-axis" aria-hidden="true"><g transform="translate(0.5,0.5)"><path class="background" aria-hidden="true" d="M0,0h0v0h0Z" style="pointer-events: none;"></path><g><g class="mark-rule role-axis-grid" style="pointer-events: none;"><line transform="translate(0,600)" x2="880" y2="0" style="stroke: #ddd; stroke-width: 1; opacity: 1;"></line><line transform="translate(0,545)" x2="880" y2="0" style="stroke: #ddd; stroke-width: 1; opacity: 1;"></line><line transform="translate(0,491)" x2="880" y2="0" style="stroke: #ddd; stroke-width: 1; opacity: 1;"></line><line transform="translate(0,436)" x2="880" y2="0" style="stroke: #ddd; stroke-width: 1; opacity: 1;"></line><line transform="translate(0,382)" x2="880" y2="0" style="stroke: #ddd; stroke-width: 1; opacity: 1;"></line><line transform="translate(0,327)" x2="880" y2="0" style="stroke: #ddd; stroke-width: 1; opacity: 1;"></line><line transform="translate(0,273)" x2="880" y2="0" style="stroke: #ddd; stroke-width: 1; opacity: 1;"></line><line transform="translate(0,218)" x2="880" y2="0" style="stroke: #ddd; stroke-width: 1; opacity: 1;"></line><line transform="translate(0,164)" x2="880" y2="0" style="stroke: #ddd; stroke-width: 1; opacity: 1;"></line><line transform="translate(0,109)" x2="880" y2="0" style="stroke: #ddd; stroke-width: 1; opacity: 1;"></line><line transform="translate(0,55)" x2="880" y2="0" style="stroke: #ddd; stroke-width: 1; opacity: 1;"></line><line transform="translate(0,0)" x2="880" y2="0" style="stroke: #ddd; stroke-width: 1; opacity: 1;"></line></g></g><path class="foreground" aria-hidden="true" d="" style="pointer-events: none; display: none;"></path></g></g><g class="mark-group role-axis" role="graphics-symbol" aria-roledescription="axis" aria-label="X-axis titled 'module' for a discrete scale with 16 values: class-transformer-validator-async, class-transformer-validator-sync, computed-types, io-ts, jointz, ending with zod"><g transform="translate(0.5,600.5)"><path class="background" aria-hidden="true" d="M0,0h0v0h0Z" style="pointer-events: none;"></path><g><g class="mark-rule role-axis-tick" style="pointer-events: none;"><line transform="translate(27,0)" x2="0" y2="5" style="stroke: #888; stroke-width: 1; opacity: 1;"></line><line transform="translate(82,0)" x2="0" y2="5" style="stroke: #888; stroke-width: 1; opacity: 1;"></line><line transform="translate(137,0)" x2="0" y2="5" style="stroke: #888; stroke-width: 1; opacity: 1;"></line><line transform="translate(192,0)" x2="0" y2="5" style="stroke: #888; stroke-width: 1; opacity: 1;"></line><line transform="translate(247,0)" x2="0" y2="5" style="stroke: #888; stroke-width: 1; opacity: 1;"></line><line transform="translate(302,0)" x2="0" y2="5" style="stroke: #888; stroke-width: 1; opacity: 1;"></line><line transform="translate(357,0)" x2="0" y2="5" style="stroke: #888; stroke-width: 1; opacity: 1;"></line><line transform="translate(412,0)" x2="0" y2="5" style="stroke: #888; stroke-width: 1; opacity: 1;"></line><line transform="translate(467,0)" x2="0" y2="5" style="stroke: #888; stroke-width: 1; opacity: 1;"></line><line transform="translate(522,0)" x2="0" y2="5" style="stroke: #888; stroke-width: 1; opacity: 1;"></line><line transform="translate(577,0)" x2="0" y2="5" style="stroke: #888; stroke-width: 1; opacity: 1;"></line><line transform="translate(632,0)" x2="0" y2="5" style="stroke: #888; stroke-width: 1; opacity: 1;"></line><line transform="translate(687,0)" x2="0" y2="5" style="stroke: #888; stroke-width: 1; opacity: 1;"></line><line transform="translate(742,0)" x2="0" y2="5" style="stroke: #888; stroke-width: 1; opacity: 1;"></line><line transform="translate(797,0)" x2="0" y2="5" style="stroke: #888; stroke-width: 1; opacity: 1;"></line><line transform="translate(852,0)" x2="0" y2="5" style="stroke: #888; stroke-width: 1; opacity: 1;"></line></g><g class="mark-text role-axis-label" style="pointer-events: none;"><text text-anchor="start" transform="translate(27,7) rotate(90) translate(0,4)" style="font-family: sans-serif; font-size: 14px; fill: #000; opacity: 1;">class-transform…</text><text text-anchor="start" transform="translate(82,7) rotate(90) translate(0,4)" style="font-family: sans-serif; font-size: 14px; fill: #000; opacity: 1;">class-transform…</text><text text-anchor="start" transform="translate(137,7) rotate(90) translate(0,4)" style="font-family: sans-serif; font-size: 14px; fill: #000; opacity: 1;">computed-types</text><text text-anchor="start" transform="translate(192,7) rotate(90) translate(0,4)" style="font-family: sans-serif; font-size: 14px; fill: #000; opacity: 1;">io-ts</text><text text-anchor="start" transform="translate(247,7) rotate(90) translate(0,4)" style="font-family: sans-serif; font-size: 14px; fill: #000; opacity: 1;">jointz</text><text text-anchor="start" transform="translate(302,7) rotate(90) translate(0,4)" style="font-family: sans-serif; font-size: 14px; fill: #000; opacity: 1;">json-decoder</text><text text-anchor="start" transform="translate(357,7) rotate(90) translate(0,4)" style="font-family: sans-serif; font-size: 14px; fill: #000; opacity: 1;">marshal</text><text text-anchor="start" transform="translate(412,7) rotate(90) translate(0,4)" style="font-family: sans-serif; font-size: 14px; fill: #000; opacity: 1;">myzod</text><text text-anchor="start" transform="translate(467,7) rotate(90) translate(0,4)" style="font-family: sans-serif; font-size: 14px; fill: #000; opacity: 1;">purify-ts</text><text text-anchor="start" transform="translate(522,7) rotate(90) translate(0,4)" style="font-family: sans-serif; font-size: 14px; fill: #000; opacity: 1;">quartet</text><text text-anchor="start" transform="translate(577,7) rotate(90) translate(0,4)" style="font-family: sans-serif; font-size: 14px; fill: #000; opacity: 1;">runtypes</text><text text-anchor="start" transform="translate(632,7) rotate(90) translate(0,4)" style="font-family: sans-serif; font-size: 14px; fill: #000; opacity: 1;">toi</text><text text-anchor="start" transform="translate(687,7) rotate(90) translate(0,4)" style="font-family: sans-serif; font-size: 14px; fill: #000; opacity: 1;">ts-json-validat…</text><text text-anchor="start" transform="translate(742,7) rotate(90) translate(0,4)" style="font-family: sans-serif; font-size: 14px; fill: #000; opacity: 1;">ts-utils</text><text text-anchor="start" transform="translate(797,7) rotate(90) translate(0,4)" style="font-family: sans-serif; font-size: 14px; fill: #000; opacity: 1;">yup</text><text text-anchor="start" transform="translate(852,7) rotate(90) translate(0,4)" style="font-family: sans-serif; font-size: 14px; fill: #000; opacity: 1;">zod</text></g><g class="mark-rule role-axis-domain" style="pointer-events: none;"><line transform="translate(0,0)" x2="880" y2="0" style="stroke: #888; stroke-width: 1; opacity: 1;"></line></g><g class="mark-text role-axis-title" style="pointer-events: none;"><text text-anchor="middle" transform="translate(440,201)" style="font-family: sans-serif; font-size: 14px; font-weight: normal; fill: #000; opacity: 1;">module</text></g></g><path class="foreground" aria-hidden="true" d="" style="pointer-events: none; display: none;"></path></g></g><g class="mark-group role-axis" role="graphics-symbol" aria-roledescription="axis" aria-label="Y-axis titled 'operations / sec' for a linear scale with values from 0 to 55,000,000"><g transform="translate(0.5,0.5)"><path class="background" aria-hidden="true" d="M0,0h0v0h0Z" style="pointer-events: none;"></path><g><g class="mark-rule role-axis-tick" style="pointer-events: none;"><line transform="translate(0,600)" x2="-5" y2="0" style="stroke: #888; stroke-width: 1; opacity: 1;"></line><line transform="translate(0,545)" x2="-5" y2="0" style="stroke: #888; stroke-width: 1; opacity: 1;"></line><line transform="translate(0,491)" x2="-5" y2="0" style="stroke: #888; stroke-width: 1; opacity: 1;"></line><line transform="translate(0,436)" x2="-5" y2="0" style="stroke: #888; stroke-width: 1; opacity: 1;"></line><line transform="translate(0,382)" x2="-5" y2="0" style="stroke: #888; stroke-width: 1; opacity: 1;"></line><line transform="translate(0,327)" x2="-5" y2="0" style="stroke: #888; stroke-width: 1; opacity: 1;"></line><line transform="translate(0,273)" x2="-5" y2="0" style="stroke: #888; stroke-width: 1; opacity: 1;"></line><line transform="translate(0,218)" x2="-5" y2="0" style="stroke: #888; stroke-width: 1; opacity: 1;"></line><line transform="translate(0,164)" x2="-5" y2="0" style="stroke: #888; stroke-width: 1; opacity: 1;"></line><line transform="translate(0,109)" x2="-5" y2="0" style="stroke: #888; stroke-width: 1; opacity: 1;"></line><line transform="translate(0,55)" x2="-5" y2="0" style="stroke: #888; stroke-width: 1; opacity: 1;"></line><line transform="translate(0,0)" x2="-5" y2="0" style="stroke: #888; stroke-width: 1; opacity: 1;"></line></g><g class="mark-text role-axis-label" style="pointer-events: none;"><text text-anchor="end" transform="translate(-7,604)" style="font-family: sans-serif; font-size: 12px; fill: #000; opacity: 1;">0</text><text text-anchor="end" transform="translate(-7,549.4545454545454)" style="font-family: sans-serif; font-size: 12px; fill: #000; opacity: 1;">5,000,000</text><text text-anchor="end" transform="translate(-7,494.9090909090909)" style="font-family: sans-serif; font-size: 12px; fill: #000; opacity: 1;">10,000,000</text><text text-anchor="end" transform="translate(-7,440.3636363636364)" style="font-family: sans-serif; font-size: 12px; fill: #000; opacity: 1;">15,000,000</text><text text-anchor="end" transform="translate(-7,385.8181818181818)" style="font-family: sans-serif; font-size: 12px; fill: #000; opacity: 1;">20,000,000</text><text text-anchor="end" transform="translate(-7,331.27272727272725)" style="font-family: sans-serif; font-size: 12px; fill: #000; opacity: 1;">25,000,000</text><text text-anchor="end" transform="translate(-7,276.72727272727275)" style="font-family: sans-serif; font-size: 12px; fill: #000; opacity: 1;">30,000,000</text><text text-anchor="end" transform="translate(-7,222.1818181818182)" style="font-family: sans-serif; font-size: 12px; fill: #000; opacity: 1;">35,000,000</text><text text-anchor="end" transform="translate(-7,167.63636363636363)" style="font-family: sans-serif; font-size: 12px; fill: #000; opacity: 1;">40,000,000</text><text text-anchor="end" transform="translate(-7,113.09090909090907)" style="font-family: sans-serif; font-size: 12px; fill: #000; opacity: 1;">45,000,000</text><text text-anchor="end" transform="translate(-7,58.54545454545456)" style="font-family: sans-serif; font-size: 12px; fill: #000; opacity: 1;">50,000,000</text><text text-anchor="end" transform="translate(-7,4)" style="font-family: sans-serif; font-size: 12px; fill: #000; opacity: 1;">55,000,000</text></g><g class="mark-rule role-axis-domain" style="pointer-events: none;"><line transform="translate(0,600)" x2="0" y2="-600" style="stroke: #888; stroke-width: 1; opacity: 1;"></line></g><g class="mark-text role-axis-title" style="pointer-events: none;"><text text-anchor="middle" transform="translate(-107,300) rotate(-90) translate(0,-3)" style="font-family: sans-serif; font-size: 14px; font-weight: normal; fill: #000; opacity: 1;">operations / sec</text></g></g><path class="foreground" aria-hidden="true" d="" style="pointer-events: none; display: none;"></path></g></g><g class="mark-rect role-mark marks" role="graphics-object" aria-roledescription="rect mark container"><path aria-label="operations / sec: 29478; module: class-transformer-validator-async" role="graphics-symbol" aria-roledescription="bar" d="M2.75,599.6784218181818h49.5v0.321578181818154h-49.5Z" style="fill: #4c78a8;"></path><path aria-label="operations / sec: 34695; module: class-transformer-validator-sync" role="graphics-symbol" aria-roledescription="bar" d="M57.75,599.6215090909091h49.5v0.3784909090909423h-49.5Z" style="fill: #4c78a8;"></path><path aria-label="operations / sec: 672085; module: computed-types" role="graphics-symbol" aria-roledescription="bar" d="M112.75,592.6681636363636h49.5v7.331836363636398h-49.5Z" style="fill: #4c78a8;"></path><path aria-label="operations / sec: 1992664; module: io-ts" role="graphics-symbol" aria-roledescription="bar" d="M167.75,578.2618472727272h49.5v21.73815272727279h-49.5Z" style="fill: #4c78a8;"></path><path aria-label="operations / sec: 912460; module: jointz" role="graphics-symbol" aria-roledescription="bar" d="M222.75,590.0458909090909h49.5v9.954109090909128h-49.5Z" style="fill: #4c78a8;"></path><path aria-label="operations / sec: 745224; module: json-decoder" role="graphics-symbol" aria-roledescription="bar" d="M277.75,591.8702836363636h49.5v8.129716363636362h-49.5Z" style="fill: #4c78a8;"></path><path aria-label="operations / sec: 20110941; module: marshal" role="graphics-symbol" aria-roledescription="bar" d="M332.75,380.6079163636364h49.5v219.39208363636362h-49.5Z" style="fill: #4c78a8;"></path><path aria-label="operations / sec: 1329121; module: myzod" role="graphics-symbol" aria-roledescription="bar" d="M387.75,585.5004981818182h49.5v14.499501818181784h-49.5Z" style="fill: #4c78a8;"></path><path aria-label="operations / sec: 746133; module: purify-ts" role="graphics-symbol" aria-roledescription="bar" d="M442.75,591.8603672727272h49.5v8.139632727272783h-49.5Z" style="fill: #4c78a8;"></path><path aria-label="operations / sec: 53413267; module: quartet" role="graphics-symbol" aria-roledescription="bar" d="M497.75,17.30981454545457h49.5v582.6901854545454h-49.5Z" style="fill: #4c78a8;"></path><path aria-label="operations / sec: 740358; module: runtypes" role="graphics-symbol" aria-roledescription="bar" d="M552.75,591.9233672727273h49.5v8.076632727272681h-49.5Z" style="fill: #4c78a8;"></path><path aria-label="operations / sec: 432904; module: toi" role="graphics-symbol" aria-roledescription="bar" d="M607.75,595.2774109090909h49.5v4.722589090909082h-49.5Z" style="fill: #4c78a8;"></path><path aria-label="operations / sec: 23959231; module: ts-json-validator" role="graphics-symbol" aria-roledescription="bar" d="M662.75,338.6265709090909h49.5v261.3734290909091h-49.5Z" style="fill: #4c78a8;"></path><path aria-label="operations / sec: 131745; module: ts-utils" role="graphics-symbol" aria-roledescription="bar" d="M717.75,598.5627818181819h49.5v1.4372181818181389h-49.5Z" style="fill: #4c78a8;"></path><path aria-label="operations / sec: 12747; module: yup" role="graphics-symbol" aria-roledescription="bar" d="M772.75,599.8609418181818h49.5v0.13905818181819996h-49.5Z" style="fill: #4c78a8;"></path><path aria-label="operations / sec: 51882; module: zod" role="graphics-symbol" aria-roledescription="bar" d="M827.75,599.4340145454545h49.5v0.5659854545455119h-49.5Z" style="fill: #4c78a8;"></path></g></g><path class="foreground" aria-hidden="true" d="" style="display: none;"></path></g></g></g></svg>