<svg xmlns="http://www.w3.org/2000/svg" class="marks" width="1001" height="820">
    <path fill="#fff" d="M0 0h1001v820H0z"/>
    <g class="mark-group role-frame root" aria-roledescription="group mark container" fill="none" stroke-miterlimit="10">
        <path class="background" aria-hidden="true" d="M116.5 11.5h880v600h-880Z" stroke="#ddd"/>
        <g class="mark-group role-axis" aria-roledescription="axis" aria-label="Y-axis for a linear scale with values from 0 to 2,400,000">
            <path class="background" aria-hidden="true" d="M116.5 11.5Z" pointer-events="none"/>
            <g class="mark-rule role-axis-grid" pointer-events="none" stroke="#ddd">
                <path d="M116.5 611.5h880M116.5 561.5h880M116.5 511.5h880M116.5 461.5h880M116.5 411.5h880M116.5 361.5h880M116.5 311.5h880M116.5 261.5h880M116.5 211.5h880M116.5 161.5h880M116.5 111.5h880M116.5 61.5h880M116.5 11.5h880"/>
            </g>
        </g>
        <g pointer-events="none" class="mark-group role-axis" aria-roledescription="axis" aria-label="X-axis titled 'module' for a discrete scale with 22 values: @mojotech/json-type-validation, @typeofweb/schema, bueno, class-transformer-validator-async, class-transformer-validator-sync, ending with zod">
            <path class="background" aria-hidden="true" d="M116.5 611.5Z"/>
            <g class="mark-rule role-axis-tick" stroke="#888">
                <path d="M136.5 611.5v5M176.5 611.5v5M216.5 611.5v5M256.5 611.5v5M296.5 611.5v5M336.5 611.5v5M376.5 611.5v5M416.5 611.5v5M456.5 611.5v5M496.5 611.5v5M536.5 611.5v5M576.5 611.5v5M616.5 611.5v5M656.5 611.5v5M696.5 611.5v5M736.5 611.5v5M776.5 611.5v5M816.5 611.5v5M856.5 611.5v5M896.5 611.5v5M936.5 611.5v5M976.5 611.5v5"/>
            </g>
            <g class="mark-text role-axis-label" font-family="sans-serif" font-size="14" fill="#000">
                <text transform="rotate(90 -243.25 375.25)">@mojotech/json-…</text>
                <text transform="rotate(90 -223.25 395.25)">@typeofweb/sche…</text>
                <text transform="rotate(90 -203.25 415.25)">bueno</text>
                <text transform="rotate(90 -183.25 435.25)">class-transform…</text>
                <text transform="rotate(90 -163.25 455.25)">class-transform…</text>
                <text transform="rotate(90 -143.25 475.25)">computed-types</text>
                <text transform="rotate(90 -123.25 495.25)">decoders</text>
                <text transform="rotate(90 -103.25 515.25)">io-ts</text>
                <text transform="rotate(90 -83.25 535.25)">jointz</text>
                <text transform="rotate(90 -63.25 555.25)">json-decoder</text>
                <text transform="rotate(90 -43.25 575.25)">myzod</text>
                <text transform="rotate(90 -23.25 595.25)">purify-ts</text>
                <text transform="rotate(90 -3.25 615.25)">rulr</text>
                <text transform="rotate(90 16.75 635.25)">runtypes</text>
                <text transform="rotate(90 36.75 655.25)">simple-runtypes</text>
                <text transform="rotate(90 56.75 675.25)">superstruct</text>
                <text transform="rotate(90 76.75 695.25)">toi</text>
                <text transform="rotate(90 96.75 715.25)">ts-interface-ch…</text>
                <text transform="rotate(90 116.75 735.25)">ts-utils</text>
                <text transform="rotate(90 136.75 755.25)">valita</text>
                <text transform="rotate(90 156.75 775.25)">yup</text>
                <text transform="rotate(90 176.75 795.25)">zod</text>
            </g>
            <path stroke="#888" d="M116.5 611.5h880" class="mark-rule role-axis-domain"/>
            <text text-anchor="middle" transform="translate(556.5 812.5)" font-family="sans-serif" font-size="14" fill="#000" class="mark-text role-axis-title">module</text>
        </g>
        <g pointer-events="none" class="mark-group role-axis" aria-roledescription="axis" aria-label="Y-axis titled 'operations / sec' for a linear scale with values from 0 to 2,400,000">
            <path class="background" aria-hidden="true" d="M116.5 11.5Z"/>
            <g class="mark-rule role-axis-tick" stroke="#888">
                <path d="M116.5 611.5h-5M116.5 561.5h-5M116.5 511.5h-5M116.5 461.5h-5M116.5 411.5h-5M116.5 361.5h-5M116.5 311.5h-5M116.5 261.5h-5M116.5 211.5h-5M116.5 161.5h-5M116.5 111.5h-5M116.5 61.5h-5M116.5 11.5h-5"/>
            </g>
            <g class="mark-text role-axis-label" text-anchor="end" font-family="sans-serif" font-size="12" fill="#000">
                <text transform="translate(109.5 615.5)">0</text>
                <text transform="translate(109.5 565.5)">200,000</text>
                <text transform="translate(109.5 515.5)">400,000</text>
                <text transform="translate(109.5 465.5)">600,000</text>
                <text transform="translate(109.5 415.5)">800,000</text>
                <text transform="translate(109.5 365.5)">1,000,000</text>
                <text transform="translate(109.5 315.5)">1,200,000</text>
                <text transform="translate(109.5 265.5)">1,400,000</text>
                <text transform="translate(109.5 215.5)">1,600,000</text>
                <text transform="translate(109.5 165.5)">1,800,000</text>
                <text transform="translate(109.5 115.5)">2,000,000</text>
                <text transform="translate(109.5 65.5)">2,200,000</text>
                <text transform="translate(109.5 15.5)">2,400,000</text>
            </g>
            <path stroke="#888" d="M116.5 611.5v-600" class="mark-rule role-axis-domain"/>
            <text text-anchor="middle" transform="rotate(-90 164 147.5)" font-family="sans-serif" font-size="14" fill="#000" class="mark-text role-axis-title">operations / sec</text>
        </g>
        <g class="mark-rect role-mark marks" aria-roledescription="rect mark container" fill="#4c78a8">
            <path d="M198 583.959h36V611h-36ZM238 604.522h36V611h-36ZM278 603.9h36v7.1h-36ZM318 462.218h36V611h-36ZM358 567.355h36V611h-36ZM398 393.045h36V611h-36ZM438 282.354h36V611h-36ZM478 449.156h36V611h-36ZM118 339.96h36V611h-36ZM518 321.189h36V611h-36ZM558 451.069h36V611h-36ZM598 444.432h36V611h-36ZM638 439.442h36V611h-36ZM678 218.889h36V611h-36ZM718 591.309h36V611h-36ZM758 509.728h36V611h-36ZM798 125.231h36V611h-36ZM838 581.893h36V611h-36ZM158 405.7h36V611h-36ZM878 22.728h36V611h-36ZM918 606.43h36V611h-36ZM958 517.923h36V611h-36Z"/>
        </g>
    </g>
</svg>
