<svg class="marks" width="1011" height="814" viewBox="0 0 1011 814" version="1.1" xmlns="http://www.w3.org/2000/svg" xmlns:xlink="http://www.w3.org/1999/xlink"><defs><style>.vega-svg-root * { fill: none; } .vega-svg-root tspan { fill: inherit; } .vega-svg-root path { stroke-miterlimit: 10; }</style></defs><rect width="1011" height="814" style="fill: white;"></rect><g class="vega-svg-root" transform="translate(126,5)"><g class="mark-group role-frame root" role="graphics-object" aria-roledescription="group mark container"><g transform="translate(0,0)"><path class="background" aria-hidden="true" d="M0.5,0.5h880v600h-880Z" style="stroke: #ddd;"></path><g><g class="mark-group role-axis" aria-hidden="true"><g transform="translate(0.5,0.5)"><path class="background" aria-hidden="true" d="M0,0h0v0h0Z" style="pointer-events: none;"></path><g><g class="mark-rule role-axis-grid" style="pointer-events: none;"><line transform="translate(0,600)" x2="880" y2="0" style="stroke: #ddd; stroke-width: 1; opacity: 1;"></line><line transform="translate(0,573)" x2="880" y2="0" style="stroke: #ddd; stroke-width: 1; opacity: 1;"></line><line transform="translate(0,547)" x2="880" y2="0" style="stroke: #ddd; stroke-width: 1; opacity: 1;"></line><line transform="translate(0,520)" x2="880" y2="0" style="stroke: #ddd; stroke-width: 1; opacity: 1;"></line><line transform="translate(0,493)" x2="880" y2="0" style="stroke: #ddd; stroke-width: 1; opacity: 1;"></line><line transform="translate(0,467)" x2="880" y2="0" style="stroke: #ddd; stroke-width: 1; opacity: 1;"></line><line transform="translate(0,440)" x2="880" y2="0" style="stroke: #ddd; stroke-width: 1; opacity: 1;"></line><line transform="translate(0,413)" x2="880" y2="0" style="stroke: #ddd; stroke-width: 1; opacity: 1;"></line><line transform="translate(0,387)" x2="880" y2="0" style="stroke: #ddd; stroke-width: 1; opacity: 1;"></line><line transform="translate(0,360)" x2="880" y2="0" style="stroke: #ddd; stroke-width: 1; opacity: 1;"></line><line transform="translate(0,333)" x2="880" y2="0" style="stroke: #ddd; stroke-width: 1; opacity: 1;"></line><line transform="translate(0,307)" x2="880" y2="0" style="stroke: #ddd; stroke-width: 1; opacity: 1;"></line><line transform="translate(0,280)" x2="880" y2="0" style="stroke: #ddd; stroke-width: 1; opacity: 1;"></line><line transform="translate(0,253)" x2="880" y2="0" style="stroke: #ddd; stroke-width: 1; opacity: 1;"></line><line transform="translate(0,227)" x2="880" y2="0" style="stroke: #ddd; stroke-width: 1; opacity: 1;"></line><line transform="translate(0,200)" x2="880" y2="0" style="stroke: #ddd; stroke-width: 1; opacity: 1;"></line><line transform="translate(0,173)" x2="880" y2="0" style="stroke: #ddd; stroke-width: 1; opacity: 1;"></line><line transform="translate(0,147)" x2="880" y2="0" style="stroke: #ddd; stroke-width: 1; opacity: 1;"></line><line transform="translate(0,120)" x2="880" y2="0" style="stroke: #ddd; stroke-width: 1; opacity: 1;"></line><line transform="translate(0,93)" x2="880" y2="0" style="stroke: #ddd; stroke-width: 1; opacity: 1;"></line><line transform="translate(0,67)" x2="880" y2="0" style="stroke: #ddd; stroke-width: 1; opacity: 1;"></line><line transform="translate(0,40)" x2="880" y2="0" style="stroke: #ddd; stroke-width: 1; opacity: 1;"></line><line transform="translate(0,13)" x2="880" y2="0" style="stroke: #ddd; stroke-width: 1; opacity: 1;"></line></g></g><path class="foreground" aria-hidden="true" d="" style="pointer-events: none; display: none;"></path></g></g><g class="mark-group role-axis" role="graphics-symbol" aria-roledescription="axis" aria-label="X-axis titled 'module' for a discrete scale with 16 values: class-transformer-validator-async, class-transformer-validator-sync, computed-types, io-ts, jointz, ending with zod"><g transform="translate(0.5,600.5)"><path class="background" aria-hidden="true" d="M0,0h0v0h0Z" style="pointer-events: none;"></path><g><g class="mark-rule role-axis-tick" style="pointer-events: none;"><line transform="translate(27,0)" x2="0" y2="5" style="stroke: #888; stroke-width: 1; opacity: 1;"></line><line transform="translate(82,0)" x2="0" y2="5" style="stroke: #888; stroke-width: 1; opacity: 1;"></line><line transform="translate(137,0)" x2="0" y2="5" style="stroke: #888; stroke-width: 1; opacity: 1;"></line><line transform="translate(192,0)" x2="0" y2="5" style="stroke: #888; stroke-width: 1; opacity: 1;"></line><line transform="translate(247,0)" x2="0" y2="5" style="stroke: #888; stroke-width: 1; opacity: 1;"></line><line transform="translate(302,0)" x2="0" y2="5" style="stroke: #888; stroke-width: 1; opacity: 1;"></line><line transform="translate(357,0)" x2="0" y2="5" style="stroke: #888; stroke-width: 1; opacity: 1;"></line><line transform="translate(412,0)" x2="0" y2="5" style="stroke: #888; stroke-width: 1; opacity: 1;"></line><line transform="translate(467,0)" x2="0" y2="5" style="stroke: #888; stroke-width: 1; opacity: 1;"></line><line transform="translate(522,0)" x2="0" y2="5" style="stroke: #888; stroke-width: 1; opacity: 1;"></line><line transform="translate(577,0)" x2="0" y2="5" style="stroke: #888; stroke-width: 1; opacity: 1;"></line><line transform="translate(632,0)" x2="0" y2="5" style="stroke: #888; stroke-width: 1; opacity: 1;"></line><line transform="translate(687,0)" x2="0" y2="5" style="stroke: #888; stroke-width: 1; opacity: 1;"></line><line transform="translate(742,0)" x2="0" y2="5" style="stroke: #888; stroke-width: 1; opacity: 1;"></line><line transform="translate(797,0)" x2="0" y2="5" style="stroke: #888; stroke-width: 1; opacity: 1;"></line><line transform="translate(852,0)" x2="0" y2="5" style="stroke: #888; stroke-width: 1; opacity: 1;"></line></g><g class="mark-text role-axis-label" style="pointer-events: none;"><text text-anchor="start" transform="translate(27,7) rotate(90) translate(0,4)" style="font-family: sans-serif; font-size: 14px; fill: #000; opacity: 1;">class-transform…</text><text text-anchor="start" transform="translate(82,7) rotate(90) translate(0,4)" style="font-family: sans-serif; font-size: 14px; fill: #000; opacity: 1;">class-transform…</text><text text-anchor="start" transform="translate(137,7) rotate(90) translate(0,4)" style="font-family: sans-serif; font-size: 14px; fill: #000; opacity: 1;">computed-types</text><text text-anchor="start" transform="translate(192,7) rotate(90) translate(0,4)" style="font-family: sans-serif; font-size: 14px; fill: #000; opacity: 1;">io-ts</text><text text-anchor="start" transform="translate(247,7) rotate(90) translate(0,4)" style="font-family: sans-serif; font-size: 14px; fill: #000; opacity: 1;">jointz</text><text text-anchor="start" transform="translate(302,7) rotate(90) translate(0,4)" style="font-family: sans-serif; font-size: 14px; fill: #000; opacity: 1;">json-decoder</text><text text-anchor="start" transform="translate(357,7) rotate(90) translate(0,4)" style="font-family: sans-serif; font-size: 14px; fill: #000; opacity: 1;">marshal</text><text text-anchor="start" transform="translate(412,7) rotate(90) translate(0,4)" style="font-family: sans-serif; font-size: 14px; fill: #000; opacity: 1;">myzod</text><text text-anchor="start" transform="translate(467,7) rotate(90) translate(0,4)" style="font-family: sans-serif; font-size: 14px; fill: #000; opacity: 1;">purify-ts</text><text text-anchor="start" transform="translate(522,7) rotate(90) translate(0,4)" style="font-family: sans-serif; font-size: 14px; fill: #000; opacity: 1;">quartet</text><text text-anchor="start" transform="translate(577,7) rotate(90) translate(0,4)" style="font-family: sans-serif; font-size: 14px; fill: #000; opacity: 1;">runtypes</text><text text-anchor="start" transform="translate(632,7) rotate(90) translate(0,4)" style="font-family: sans-serif; font-size: 14px; fill: #000; opacity: 1;">toi</text><text text-anchor="start" transform="translate(687,7) rotate(90) translate(0,4)" style="font-family: sans-serif; font-size: 14px; fill: #000; opacity: 1;">ts-json-validat…</text><text text-anchor="start" transform="translate(742,7) rotate(90) translate(0,4)" style="font-family: sans-serif; font-size: 14px; fill: #000; opacity: 1;">ts-utils</text><text text-anchor="start" transform="translate(797,7) rotate(90) translate(0,4)" style="font-family: sans-serif; font-size: 14px; fill: #000; opacity: 1;">yup</text><text text-anchor="start" transform="translate(852,7) rotate(90) translate(0,4)" style="font-family: sans-serif; font-size: 14px; fill: #000; opacity: 1;">zod</text></g><g class="mark-rule role-axis-domain" style="pointer-events: none;"><line transform="translate(0,0)" x2="880" y2="0" style="stroke: #888; stroke-width: 1; opacity: 1;"></line></g><g class="mark-text role-axis-title" style="pointer-events: none;"><text text-anchor="middle" transform="translate(440,201)" style="font-family: sans-serif; font-size: 14px; font-weight: normal; fill: #000; opacity: 1;">module</text></g></g><path class="foreground" aria-hidden="true" d="" style="pointer-events: none; display: none;"></path></g></g><g class="mark-group role-axis" role="graphics-symbol" aria-roledescription="axis" aria-label="Y-axis titled 'operations / sec' for a linear scale with values from 0 to 45,000,000"><g transform="translate(0.5,0.5)"><path class="background" aria-hidden="true" d="M0,0h0v0h0Z" style="pointer-events: none;"></path><g><g class="mark-rule role-axis-tick" style="pointer-events: none;"><line transform="translate(0,600)" x2="-5" y2="0" style="stroke: #888; stroke-width: 1; opacity: 1;"></line><line transform="translate(0,573)" x2="-5" y2="0" style="stroke: #888; stroke-width: 1; opacity: 1;"></line><line transform="translate(0,547)" x2="-5" y2="0" style="stroke: #888; stroke-width: 1; opacity: 1;"></line><line transform="translate(0,520)" x2="-5" y2="0" style="stroke: #888; stroke-width: 1; opacity: 1;"></line><line transform="translate(0,493)" x2="-5" y2="0" style="stroke: #888; stroke-width: 1; opacity: 1;"></line><line transform="translate(0,467)" x2="-5" y2="0" style="stroke: #888; stroke-width: 1; opacity: 1;"></line><line transform="translate(0,440)" x2="-5" y2="0" style="stroke: #888; stroke-width: 1; opacity: 1;"></line><line transform="translate(0,413)" x2="-5" y2="0" style="stroke: #888; stroke-width: 1; opacity: 1;"></line><line transform="translate(0,387)" x2="-5" y2="0" style="stroke: #888; stroke-width: 1; opacity: 1;"></line><line transform="translate(0,360)" x2="-5" y2="0" style="stroke: #888; stroke-width: 1; opacity: 1;"></line><line transform="translate(0,333)" x2="-5" y2="0" style="stroke: #888; stroke-width: 1; opacity: 1;"></line><line transform="translate(0,307)" x2="-5" y2="0" style="stroke: #888; stroke-width: 1; opacity: 1;"></line><line transform="translate(0,280)" x2="-5" y2="0" style="stroke: #888; stroke-width: 1; opacity: 1;"></line><line transform="translate(0,253)" x2="-5" y2="0" style="stroke: #888; stroke-width: 1; opacity: 1;"></line><line transform="translate(0,227)" x2="-5" y2="0" style="stroke: #888; stroke-width: 1; opacity: 1;"></line><line transform="translate(0,200)" x2="-5" y2="0" style="stroke: #888; stroke-width: 1; opacity: 1;"></line><line transform="translate(0,173)" x2="-5" y2="0" style="stroke: #888; stroke-width: 1; opacity: 1;"></line><line transform="translate(0,147)" x2="-5" y2="0" style="stroke: #888; stroke-width: 1; opacity: 1;"></line><line transform="translate(0,120)" x2="-5" y2="0" style="stroke: #888; stroke-width: 1; opacity: 1;"></line><line transform="translate(0,93)" x2="-5" y2="0" style="stroke: #888; stroke-width: 1; opacity: 1;"></line><line transform="translate(0,67)" x2="-5" y2="0" style="stroke: #888; stroke-width: 1; opacity: 1;"></line><line transform="translate(0,40)" x2="-5" y2="0" style="stroke: #888; stroke-width: 1; opacity: 1;"></line><line transform="translate(0,13)" x2="-5" y2="0" style="stroke: #888; stroke-width: 1; opacity: 1;"></line></g><g class="mark-text role-axis-label" style="pointer-events: none;"><text text-anchor="end" transform="translate(-7,604)" style="font-family: sans-serif; font-size: 12px; fill: #000; opacity: 1;">0</text><text text-anchor="end" transform="translate(-7,577.3333333333334)" style="font-family: sans-serif; font-size: 12px; fill: #000; opacity: 1;">2,000,000</text><text text-anchor="end" transform="translate(-7,550.6666666666666)" style="font-family: sans-serif; font-size: 12px; fill: #000; opacity: 1;">4,000,000</text><text text-anchor="end" transform="translate(-7,524)" style="font-family: sans-serif; font-size: 12px; fill: #000; opacity: 1;">6,000,000</text><text text-anchor="end" transform="translate(-7,497.3333333333333)" style="font-family: sans-serif; font-size: 12px; fill: #000; opacity: 1;">8,000,000</text><text text-anchor="end" transform="translate(-7,470.6666666666667)" style="font-family: sans-serif; font-size: 12px; fill: #000; opacity: 1;">10,000,000</text><text text-anchor="end" transform="translate(-7,444.00000000000006)" style="font-family: sans-serif; font-size: 12px; fill: #000; opacity: 1;">12,000,000</text><text text-anchor="end" transform="translate(-7,417.3333333333333)" style="font-family: sans-serif; font-size: 12px; fill: #000; opacity: 1;">14,000,000</text><text text-anchor="end" transform="translate(-7,390.66666666666663)" style="font-family: sans-serif; font-size: 12px; fill: #000; opacity: 1;">16,000,000</text><text text-anchor="end" transform="translate(-7,364)" style="font-family: sans-serif; font-size: 12px; fill: #000; opacity: 1;">18,000,000</text><text text-anchor="end" transform="translate(-7,337.33333333333337)" style="font-family: sans-serif; font-size: 12px; fill: #000; opacity: 1;">20,000,000</text><text text-anchor="end" transform="translate(-7,310.66666666666663)" style="font-family: sans-serif; font-size: 12px; fill: #000; opacity: 1;">22,000,000</text><text text-anchor="end" transform="translate(-7,284)" style="font-family: sans-serif; font-size: 12px; fill: #000; opacity: 1;">24,000,000</text><text text-anchor="end" transform="translate(-7,257.33333333333337)" style="font-family: sans-serif; font-size: 12px; fill: #000; opacity: 1;">26,000,000</text><text text-anchor="end" transform="translate(-7,230.66666666666666)" style="font-family: sans-serif; font-size: 12px; fill: #000; opacity: 1;">28,000,000</text><text text-anchor="end" transform="translate(-7,204.00000000000003)" style="font-family: sans-serif; font-size: 12px; fill: #000; opacity: 1;">30,000,000</text><text text-anchor="end" transform="translate(-7,177.33333333333331)" style="font-family: sans-serif; font-size: 12px; fill: #000; opacity: 1;">32,000,000</text><text text-anchor="end" transform="translate(-7,150.66666666666669)" style="font-family: sans-serif; font-size: 12px; fill: #000; opacity: 1;">34,000,000</text><text text-anchor="end" transform="translate(-7,123.99999999999997)" style="font-family: sans-serif; font-size: 12px; fill: #000; opacity: 1;">36,000,000</text><text text-anchor="end" transform="translate(-7,97.33333333333333)" style="font-family: sans-serif; font-size: 12px; fill: #000; opacity: 1;">38,000,000</text><text text-anchor="end" transform="translate(-7,70.6666666666667)" style="font-family: sans-serif; font-size: 12px; fill: #000; opacity: 1;">40,000,000</text><text text-anchor="end" transform="translate(-7,43.99999999999999)" style="font-family: sans-serif; font-size: 12px; fill: #000; opacity: 1;">42,000,000</text><text text-anchor="end" transform="translate(-7,17.333333333333353)" style="font-family: sans-serif; font-size: 12px; fill: #000; opacity: 1;">44,000,000</text></g><g class="mark-rule role-axis-domain" style="pointer-events: none;"><line transform="translate(0,600)" x2="0" y2="-600" style="stroke: #888; stroke-width: 1; opacity: 1;"></line></g><g class="mark-text role-axis-title" style="pointer-events: none;"><text text-anchor="middle" transform="translate(-107,300) rotate(-90) translate(0,-3)" style="font-family: sans-serif; font-size: 14px; font-weight: normal; fill: #000; opacity: 1;">operations / sec</text></g></g><path class="foreground" aria-hidden="true" d="" style="pointer-events: none; display: none;"></path></g></g><g class="mark-rect role-mark marks" role="graphics-object" aria-roledescription="rect mark container"><path aria-label="operations / sec: 51567; module: class-transformer-validator-async" role="graphics-symbol" aria-roledescription="bar" d="M2.75,599.31244h49.5v0.6875599999999622h-49.5Z" style="fill: #4c78a8;"></path><path aria-label="operations / sec: 56958; module: class-transformer-validator-sync" role="graphics-symbol" aria-roledescription="bar" d="M57.75,599.24056h49.5v0.7594400000000405h-49.5Z" style="fill: #4c78a8;"></path><path aria-label="operations / sec: 940994; module: computed-types" role="graphics-symbol" aria-roledescription="bar" d="M112.75,587.4534133333334h49.5v12.546586666666599h-49.5Z" style="fill: #4c78a8;"></path><path aria-label="operations / sec: 3590335; module: io-ts" role="graphics-symbol" aria-roledescription="bar" d="M167.75,552.1288666666667h49.5v47.87113333333332h-49.5Z" style="fill: #4c78a8;"></path><path aria-label="operations / sec: 1901588; module: jointz" role="graphics-symbol" aria-roledescription="bar" d="M222.75,574.6454933333333h49.5v25.35450666666668h-49.5Z" style="fill: #4c78a8;"></path><path aria-label="operations / sec: 981061; module: json-decoder" role="graphics-symbol" aria-roledescription="bar" d="M277.75,586.9191866666667h49.5v13.080813333333253h-49.5Z" style="fill: #4c78a8;"></path><path aria-label="operations / sec: 18111088; module: marshal" role="graphics-symbol" aria-roledescription="bar" d="M332.75,358.51882666666666h49.5v241.48117333333334h-49.5Z" style="fill: #4c78a8;"></path><path aria-label="operations / sec: 1745880; module: myzod" role="graphics-symbol" aria-roledescription="bar" d="M387.75,576.7216h49.5v23.278400000000033h-49.5Z" style="fill: #4c78a8;"></path><path aria-label="operations / sec: 1027715; module: purify-ts" role="graphics-symbol" aria-roledescription="bar" d="M442.75,586.2971333333334h49.5v13.702866666666637h-49.5Z" style="fill: #4c78a8;"></path><path aria-label="operations / sec: 40037065; module: quartet" role="graphics-symbol" aria-roledescription="bar" d="M497.75,66.1724666666667h49.5v533.8275333333333h-49.5Z" style="fill: #4c78a8;"></path><path aria-label="operations / sec: 959801; module: runtypes" role="graphics-symbol" aria-roledescription="bar" d="M552.75,587.2026533333333h49.5v12.797346666666726h-49.5Z" style="fill: #4c78a8;"></path><path aria-label="operations / sec: 556409; module: toi" role="graphics-symbol" aria-roledescription="bar" d="M607.75,592.5812133333334h49.5v7.41878666666662h-49.5Z" style="fill: #4c78a8;"></path><path aria-label="operations / sec: 25648579; module: ts-json-validator" role="graphics-symbol" aria-roledescription="bar" d="M662.75,258.0189466666667h49.5v341.9810533333333h-49.5Z" style="fill: #4c78a8;"></path><path aria-label="operations / sec: 169579; module: ts-utils" role="graphics-symbol" aria-roledescription="bar" d="M717.75,597.7389466666667h49.5v2.2610533333332796h-49.5Z" style="fill: #4c78a8;"></path><path aria-label="operations / sec: 20100; module: yup" role="graphics-symbol" aria-roledescription="bar" d="M772.75,599.732h49.5v0.2680000000000291h-49.5Z" style="fill: #4c78a8;"></path><path aria-label="operations / sec: 69247; module: zod" role="graphics-symbol" aria-roledescription="bar" d="M827.75,599.0767066666666h49.5v0.9232933333333904h-49.5Z" style="fill: #4c78a8;"></path></g></g><path class="foreground" aria-hidden="true" d="" style="display: none;"></path></g></g></g></svg>