<svg xmlns="http://www.w3.org/2000/svg" class="marks" width="1001" height="820">
    <path fill="#fff" d="M0 0h1001v820H0z"/>
    <g class="mark-group role-frame root" aria-roledescription="group mark container" fill="none" stroke-miterlimit="10">
        <path class="background" aria-hidden="true" d="M116.5 11.5h880v600h-880Z" stroke="#ddd"/>
        <g class="mark-group role-axis" aria-roledescription="axis" aria-label="Y-axis for a linear scale with values from 0 to 2,800,000">
            <path class="background" aria-hidden="true" d="M116.5 11.5Z" pointer-events="none"/>
            <g class="mark-rule role-axis-grid" pointer-events="none" stroke="#ddd">
                <path d="M116.5 611.5h880M116.5 568.5h880M116.5 525.5h880M116.5 482.5h880M116.5 440.5h880M116.5 397.5h880M116.5 354.5h880M116.5 311.5h880M116.5 268.5h880M116.5 225.5h880M116.5 182.5h880M116.5 140.5h880M116.5 97.5h880M116.5 54.5h880M116.5 11.5h880"/>
            </g>
        </g>
        <g pointer-events="none" class="mark-group role-axis" aria-roledescription="axis" aria-label="X-axis titled 'module' for a discrete scale with 22 values: @mojotech/json-type-validation, @typeofweb/schema, bueno, class-transformer-validator-async, class-transformer-validator-sync, ending with zod">
            <path class="background" aria-hidden="true" d="M116.5 611.5Z"/>
            <g class="mark-rule role-axis-tick" stroke="#888">
                <path d="M136.5 611.5v5M176.5 611.5v5M216.5 611.5v5M256.5 611.5v5M296.5 611.5v5M336.5 611.5v5M376.5 611.5v5M416.5 611.5v5M456.5 611.5v5M496.5 611.5v5M536.5 611.5v5M576.5 611.5v5M616.5 611.5v5M656.5 611.5v5M696.5 611.5v5M736.5 611.5v5M776.5 611.5v5M816.5 611.5v5M856.5 611.5v5M896.5 611.5v5M936.5 611.5v5M976.5 611.5v5"/>
            </g>
            <g class="mark-text role-axis-label" font-family="sans-serif" font-size="14" fill="#000">
                <text transform="rotate(90 -243.25 375.25)">@mojotech/json-…</text>
                <text transform="rotate(90 -223.25 395.25)">@typeofweb/sche…</text>
                <text transform="rotate(90 -203.25 415.25)">bueno</text>
                <text transform="rotate(90 -183.25 435.25)">class-transform…</text>
                <text transform="rotate(90 -163.25 455.25)">class-transform…</text>
                <text transform="rotate(90 -143.25 475.25)">computed-types</text>
                <text transform="rotate(90 -123.25 495.25)">decoders</text>
                <text transform="rotate(90 -103.25 515.25)">io-ts</text>
                <text transform="rotate(90 -83.25 535.25)">jointz</text>
                <text transform="rotate(90 -63.25 555.25)">json-decoder</text>
                <text transform="rotate(90 -43.25 575.25)">myzod</text>
                <text transform="rotate(90 -23.25 595.25)">purify-ts</text>
                <text transform="rotate(90 -3.25 615.25)">rulr</text>
                <text transform="rotate(90 16.75 635.25)">runtypes</text>
                <text transform="rotate(90 36.75 655.25)">simple-runtypes</text>
                <text transform="rotate(90 56.75 675.25)">superstruct</text>
                <text transform="rotate(90 76.75 695.25)">toi</text>
                <text transform="rotate(90 96.75 715.25)">ts-interface-ch…</text>
                <text transform="rotate(90 116.75 735.25)">ts-utils</text>
                <text transform="rotate(90 136.75 755.25)">valita</text>
                <text transform="rotate(90 156.75 775.25)">yup</text>
                <text transform="rotate(90 176.75 795.25)">zod</text>
            </g>
            <path stroke="#888" d="M116.5 611.5h880" class="mark-rule role-axis-domain"/>
            <text text-anchor="middle" transform="translate(556.5 812.5)" font-family="sans-serif" font-size="14" fill="#000" class="mark-text role-axis-title">module</text>
        </g>
        <g pointer-events="none" class="mark-group role-axis" aria-roledescription="axis" aria-label="Y-axis titled 'operations / sec' for a linear scale with values from 0 to 2,800,000">
            <path class="background" aria-hidden="true" d="M116.5 11.5Z"/>
            <g class="mark-rule role-axis-tick" stroke="#888">
                <path d="M116.5 611.5h-5M116.5 568.5h-5M116.5 525.5h-5M116.5 482.5h-5M116.5 440.5h-5M116.5 397.5h-5M116.5 354.5h-5M116.5 311.5h-5M116.5 268.5h-5M116.5 225.5h-5M116.5 182.5h-5M116.5 140.5h-5M116.5 97.5h-5M116.5 54.5h-5M116.5 11.5h-5"/>
            </g>
            <g class="mark-text role-axis-label" text-anchor="end" font-family="sans-serif" font-size="12" fill="#000">
                <text transform="translate(109.5 615.5)">0</text>
                <text transform="translate(109.5 572.643)">200,000</text>
                <text transform="translate(109.5 529.786)">400,000</text>
                <text transform="translate(109.5 486.929)">600,000</text>
                <text transform="translate(109.5 444.071)">800,000</text>
                <text transform="translate(109.5 401.214)">1,000,000</text>
                <text transform="translate(109.5 358.357)">1,200,000</text>
                <text transform="translate(109.5 315.5)">1,400,000</text>
                <text transform="translate(109.5 272.643)">1,600,000</text>
                <text transform="translate(109.5 229.786)">1,800,000</text>
                <text transform="translate(109.5 186.929)">2,000,000</text>
                <text transform="translate(109.5 144.071)">2,200,000</text>
                <text transform="translate(109.5 101.214)">2,400,000</text>
                <text transform="translate(109.5 58.357)">2,600,000</text>
                <text transform="translate(109.5 15.5)">2,800,000</text>
            </g>
            <path stroke="#888" d="M116.5 611.5v-600" class="mark-rule role-axis-domain"/>
            <text text-anchor="middle" transform="rotate(-90 164 147.5)" font-family="sans-serif" font-size="14" fill="#000" class="mark-text role-axis-title">operations / sec</text>
        </g>
        <g class="mark-rect role-mark marks" aria-roledescription="rect mark container" fill="#4c78a8">
            <path d="M198 580.212h36V611h-36ZM238 603.325h36V611h-36ZM278 602.899h36V611h-36ZM318 445.653h36V611h-36ZM358 563.531h36V611h-36ZM398 408.658h36V611h-36ZM438 411.779h36V611h-36ZM478 507.183h36V611h-36ZM118 336.523h36V611h-36ZM518 364.033h36V611h-36ZM558 520.373h36V611h-36ZM598 442.602h36V611h-36ZM638 450.126h36V611h-36ZM678 289.76h36V611h-36ZM718 591.824h36V611h-36ZM758 509.468h36V611h-36ZM798 11.554h36V611h-36ZM838 577.228h36V611h-36ZM158 475.751h36V611h-36ZM878 193.047h36V611h-36ZM918 606.398h36V611h-36ZM958 522.798h36V611h-36Z"/>
        </g>
    </g>
</svg>
