<svg class="marks" width="1001" height="820" xmlns="http://www.w3.org/2000/svg">
    <path fill="#fff" d="M0 0h1001v820H0z"/>
    <g class="mark-group role-frame root" aria-roledescription="group mark container">
        <path class="background" aria-hidden="true" d="M116.5 11.5h880v600h-880z" fill="none" stroke="#ddd"/>
        <g class="mark-group role-axis" aria-hidden="true">
            <path class="background" aria-hidden="true" d="M116.5 11.5z" pointer-events="none" fill="none"/>
            <g class="mark-rule role-axis-grid" pointer-events="none" fill="none" stroke="#ddd">
                <path d="M116.5 611.5h880M116.5 551.5h880M116.5 491.5h880M116.5 431.5h880M116.5 371.5h880M116.5 311.5h880M116.5 251.5h880M116.5 191.5h880M116.5 131.5h880M116.5 71.5h880M116.5 11.5h880"/>
            </g>
        </g>
        <g class="mark-group role-axis" aria-roledescription="axis" aria-label="X-axis titled 'module' for a discrete scale with 14 values: class-transformer-validator-async, class-transformer-validator-sync, computed-types, io-ts, jointz, ending with zod">
            <path class="background" aria-hidden="true" d="M116.5 611.5z" pointer-events="none" fill="none"/>
            <g class="mark-rule role-axis-tick" pointer-events="none" fill="none" stroke="#888">
                <path d="M147.5 611.5v5M210.5 611.5v5M273.5 611.5v5M336.5 611.5v5M398.5 611.5v5M461.5 611.5v5M524.5 611.5v5M587.5 611.5v5M650.5 611.5v5M713.5 611.5v5M776.5 611.5v5M838.5 611.5v5M901.5 611.5v5M964.5 611.5v5"/>
            </g>
            <g class="mark-text role-axis-label" pointer-events="none" font-family="sans-serif" font-size="14">
                <text transform="rotate(90 -237.536 380.964)">
                    class-transform…
                </text>
                <text transform="rotate(90 -206.107 412.393)">
                    class-transform…
                </text>
                <text transform="rotate(90 -174.679 443.821)">
                    computed-types
                </text>
                <text transform="rotate(90 -143.25 475.25)">
                    io-ts
                </text>
                <text transform="rotate(90 -111.821 506.679)">
                    jointz
                </text>
                <text transform="rotate(90 -80.393 538.107)">
                    json-decoder
                </text>
                <text transform="rotate(90 -48.964 569.536)">
                    marshal
                </text>
                <text transform="rotate(90 -17.536 600.964)">
                    myzod
                </text>
                <text transform="rotate(90 13.893 632.393)">
                    purify-ts
                </text>
                <text transform="rotate(90 45.321 663.821)">
                    runtypes
                </text>
                <text transform="rotate(90 76.75 695.25)">
                    toi
                </text>
                <text transform="rotate(90 108.179 726.679)">
                    ts-utils
                </text>
                <text transform="rotate(90 139.607 758.107)">
                    yup
                </text>
                <text transform="rotate(90 171.036 789.536)">
                    zod
                </text>
            </g>
            <path fill="none" stroke="#888" d="M116.5 611.5h880" pointer-events="none"/>
            <text text-anchor="middle" transform="translate(556.5 812.5)" font-family="sans-serif" font-size="14" font-weight="400" pointer-events="none">
                module
            </text>
        </g>
        <g class="mark-group role-axis" aria-roledescription="axis" aria-label="Y-axis titled 'operations / sec' for a linear scale with values from 0 to 5,000,000">
            <path class="background" aria-hidden="true" d="M116.5 11.5z" pointer-events="none" fill="none"/>
            <g class="mark-rule role-axis-tick" pointer-events="none" fill="none" stroke="#888">
                <path d="M116.5 611.5h-5M116.5 551.5h-5M116.5 491.5h-5M116.5 431.5h-5M116.5 371.5h-5M116.5 311.5h-5M116.5 251.5h-5M116.5 191.5h-5M116.5 131.5h-5M116.5 71.5h-5M116.5 11.5h-5"/>
            </g>
            <g class="mark-text role-axis-label" pointer-events="none" text-anchor="end" font-family="sans-serif" font-size="12">
                <text transform="translate(109.5 615.5)">
                    0
                </text>
                <text transform="translate(109.5 555.5)">
                    500,000
                </text>
                <text transform="translate(109.5 495.5)">
                    1,000,000
                </text>
                <text transform="translate(109.5 435.5)">
                    1,500,000
                </text>
                <text transform="translate(109.5 375.5)">
                    2,000,000
                </text>
                <text transform="translate(109.5 315.5)">
                    2,500,000
                </text>
                <text transform="translate(109.5 255.5)">
                    3,000,000
                </text>
                <text transform="translate(109.5 195.5)">
                    3,500,000
                </text>
                <text transform="translate(109.5 135.5)">
                    4,000,000
                </text>
                <text transform="translate(109.5 75.5)">
                    4,500,000
                </text>
                <text transform="translate(109.5 15.5)">
                    5,000,000
                </text>
            </g>
            <path fill="none" stroke="#888" d="M116.5 611.5v-600" pointer-events="none"/>
            <text text-anchor="middle" transform="rotate(-90 164 147.5)" font-family="sans-serif" font-size="14" font-weight="400" pointer-events="none">
                operations / sec
            </text>
        </g>
        <g class="mark-rect role-mark marks" aria-roledescription="rect mark container" fill="#4c78a8">
            <path aria-label="operations / sec: 43122; module: class-transformer-validator-async" aria-roledescription="bar" d="M119.143 605.825h56.571V611h-56.571z"/>
            <path aria-label="operations / sec: 44217; module: class-transformer-validator-sync" aria-roledescription="bar" d="M182 605.694h56.571V611H182z"/>
            <path aria-label="operations / sec: 830168; module: computed-types" aria-roledescription="bar" d="M244.857 511.38h56.572V611h-56.572z"/>
            <path aria-label="operations / sec: 2572407; module: io-ts" aria-roledescription="bar" d="M307.714 302.311h56.572V611h-56.572z"/>
            <path aria-label="operations / sec: 1069509; module: jointz" aria-roledescription="bar" d="M370.571 482.659h56.572V611H370.57z"/>
            <path aria-label="operations / sec: 569203; module: json-decoder" aria-roledescription="bar" d="M433.429 542.696H490V611h-56.571z"/>
            <path aria-label="operations / sec: 4886537; module: marshal" aria-roledescription="bar" d="M496.286 24.616h56.571V611h-56.571z"/>
            <path aria-label="operations / sec: 1511509; module: myzod" aria-roledescription="bar" d="M559.143 429.619h56.571V611h-56.571z"/>
            <path aria-label="operations / sec: 853611; module: purify-ts" aria-roledescription="bar" d="M622 508.567h56.571V611H622z"/>
            <path aria-label="operations / sec: 805729; module: runtypes" aria-roledescription="bar" d="M684.857 514.313h56.572V611h-56.572z"/>
            <path aria-label="operations / sec: 547750; module: toi" aria-roledescription="bar" d="M747.714 545.27h56.572V611h-56.572z"/>
            <path aria-label="operations / sec: 154469; module: ts-utils" aria-roledescription="bar" d="M810.571 592.464h56.572V611H810.57z"/>
            <path aria-label="operations / sec: 18218; module: yup" aria-roledescription="bar" d="M873.429 608.814H930V611h-56.571z"/>
            <path aria-label="operations / sec: 65786; module: zod" aria-roledescription="bar" d="M936.286 603.106h56.571V611h-56.571z"/>
        </g>
    </g>
</svg>
