<svg class="marks" width="1011" height="820" viewBox="0 0 1011 820" version="1.1" xmlns="http://www.w3.org/2000/svg" xmlns:xlink="http://www.w3.org/1999/xlink"><defs><style>.vega-svg-root * { fill: none; } .vega-svg-root tspan { fill: inherit; } .vega-svg-root path { stroke-miterlimit: 10; }</style></defs><rect width="1011" height="820" style="fill: white;"></rect><g class="vega-svg-root" transform="translate(126,11)"><g class="mark-group role-frame root" role="graphics-object" aria-roledescription="group mark container"><g transform="translate(0,0)"><path class="background" aria-hidden="true" d="M0.5,0.5h880v600h-880Z" style="stroke: #ddd;"></path><g><g class="mark-group role-axis" aria-hidden="true"><g transform="translate(0.5,0.5)"><path class="background" aria-hidden="true" d="M0,0h0v0h0Z" style="pointer-events: none;"></path><g><g class="mark-rule role-axis-grid" style="pointer-events: none;"><line transform="translate(0,600)" x2="880" y2="0" style="stroke: #ddd; stroke-width: 1; opacity: 1;"></line><line transform="translate(0,554)" x2="880" y2="0" style="stroke: #ddd; stroke-width: 1; opacity: 1;"></line><line transform="translate(0,508)" x2="880" y2="0" style="stroke: #ddd; stroke-width: 1; opacity: 1;"></line><line transform="translate(0,462)" x2="880" y2="0" style="stroke: #ddd; stroke-width: 1; opacity: 1;"></line><line transform="translate(0,415)" x2="880" y2="0" style="stroke: #ddd; stroke-width: 1; opacity: 1;"></line><line transform="translate(0,369)" x2="880" y2="0" style="stroke: #ddd; stroke-width: 1; opacity: 1;"></line><line transform="translate(0,323)" x2="880" y2="0" style="stroke: #ddd; stroke-width: 1; opacity: 1;"></line><line transform="translate(0,277)" x2="880" y2="0" style="stroke: #ddd; stroke-width: 1; opacity: 1;"></line><line transform="translate(0,231)" x2="880" y2="0" style="stroke: #ddd; stroke-width: 1; opacity: 1;"></line><line transform="translate(0,185)" x2="880" y2="0" style="stroke: #ddd; stroke-width: 1; opacity: 1;"></line><line transform="translate(0,138)" x2="880" y2="0" style="stroke: #ddd; stroke-width: 1; opacity: 1;"></line><line transform="translate(0,92)" x2="880" y2="0" style="stroke: #ddd; stroke-width: 1; opacity: 1;"></line><line transform="translate(0,46)" x2="880" y2="0" style="stroke: #ddd; stroke-width: 1; opacity: 1;"></line><line transform="translate(0,0)" x2="880" y2="0" style="stroke: #ddd; stroke-width: 1; opacity: 1;"></line></g></g><path class="foreground" aria-hidden="true" d="" style="pointer-events: none; display: none;"></path></g></g><g class="mark-group role-axis" role="graphics-symbol" aria-roledescription="axis" aria-label="X-axis titled 'module' for a discrete scale with 16 values: class-transformer-validator-async, class-transformer-validator-sync, computed-types, io-ts, jointz, ending with zod"><g transform="translate(0.5,600.5)"><path class="background" aria-hidden="true" d="M0,0h0v0h0Z" style="pointer-events: none;"></path><g><g class="mark-rule role-axis-tick" style="pointer-events: none;"><line transform="translate(27,0)" x2="0" y2="5" style="stroke: #888; stroke-width: 1; opacity: 1;"></line><line transform="translate(82,0)" x2="0" y2="5" style="stroke: #888; stroke-width: 1; opacity: 1;"></line><line transform="translate(137,0)" x2="0" y2="5" style="stroke: #888; stroke-width: 1; opacity: 1;"></line><line transform="translate(192,0)" x2="0" y2="5" style="stroke: #888; stroke-width: 1; opacity: 1;"></line><line transform="translate(247,0)" x2="0" y2="5" style="stroke: #888; stroke-width: 1; opacity: 1;"></line><line transform="translate(302,0)" x2="0" y2="5" style="stroke: #888; stroke-width: 1; opacity: 1;"></line><line transform="translate(357,0)" x2="0" y2="5" style="stroke: #888; stroke-width: 1; opacity: 1;"></line><line transform="translate(412,0)" x2="0" y2="5" style="stroke: #888; stroke-width: 1; opacity: 1;"></line><line transform="translate(467,0)" x2="0" y2="5" style="stroke: #888; stroke-width: 1; opacity: 1;"></line><line transform="translate(522,0)" x2="0" y2="5" style="stroke: #888; stroke-width: 1; opacity: 1;"></line><line transform="translate(577,0)" x2="0" y2="5" style="stroke: #888; stroke-width: 1; opacity: 1;"></line><line transform="translate(632,0)" x2="0" y2="5" style="stroke: #888; stroke-width: 1; opacity: 1;"></line><line transform="translate(687,0)" x2="0" y2="5" style="stroke: #888; stroke-width: 1; opacity: 1;"></line><line transform="translate(742,0)" x2="0" y2="5" style="stroke: #888; stroke-width: 1; opacity: 1;"></line><line transform="translate(797,0)" x2="0" y2="5" style="stroke: #888; stroke-width: 1; opacity: 1;"></line><line transform="translate(852,0)" x2="0" y2="5" style="stroke: #888; stroke-width: 1; opacity: 1;"></line></g><g class="mark-text role-axis-label" style="pointer-events: none;"><text text-anchor="start" transform="translate(27,7) rotate(90) translate(0,4)" style="font-family: sans-serif; font-size: 14px; fill: #000; opacity: 1;">class-transform…</text><text text-anchor="start" transform="translate(82,7) rotate(90) translate(0,4)" style="font-family: sans-serif; font-size: 14px; fill: #000; opacity: 1;">class-transform…</text><text text-anchor="start" transform="translate(137,7) rotate(90) translate(0,4)" style="font-family: sans-serif; font-size: 14px; fill: #000; opacity: 1;">computed-types</text><text text-anchor="start" transform="translate(192,7) rotate(90) translate(0,4)" style="font-family: sans-serif; font-size: 14px; fill: #000; opacity: 1;">io-ts</text><text text-anchor="start" transform="translate(247,7) rotate(90) translate(0,4)" style="font-family: sans-serif; font-size: 14px; fill: #000; opacity: 1;">jointz</text><text text-anchor="start" transform="translate(302,7) rotate(90) translate(0,4)" style="font-family: sans-serif; font-size: 14px; fill: #000; opacity: 1;">json-decoder</text><text text-anchor="start" transform="translate(357,7) rotate(90) translate(0,4)" style="font-family: sans-serif; font-size: 14px; fill: #000; opacity: 1;">marshal</text><text text-anchor="start" transform="translate(412,7) rotate(90) translate(0,4)" style="font-family: sans-serif; font-size: 14px; fill: #000; opacity: 1;">myzod</text><text text-anchor="start" transform="translate(467,7) rotate(90) translate(0,4)" style="font-family: sans-serif; font-size: 14px; fill: #000; opacity: 1;">purify-ts</text><text text-anchor="start" transform="translate(522,7) rotate(90) translate(0,4)" style="font-family: sans-serif; font-size: 14px; fill: #000; opacity: 1;">quartet</text><text text-anchor="start" transform="translate(577,7) rotate(90) translate(0,4)" style="font-family: sans-serif; font-size: 14px; fill: #000; opacity: 1;">runtypes</text><text text-anchor="start" transform="translate(632,7) rotate(90) translate(0,4)" style="font-family: sans-serif; font-size: 14px; fill: #000; opacity: 1;">toi</text><text text-anchor="start" transform="translate(687,7) rotate(90) translate(0,4)" style="font-family: sans-serif; font-size: 14px; fill: #000; opacity: 1;">ts-json-validat…</text><text text-anchor="start" transform="translate(742,7) rotate(90) translate(0,4)" style="font-family: sans-serif; font-size: 14px; fill: #000; opacity: 1;">ts-utils</text><text text-anchor="start" transform="translate(797,7) rotate(90) translate(0,4)" style="font-family: sans-serif; font-size: 14px; fill: #000; opacity: 1;">yup</text><text text-anchor="start" transform="translate(852,7) rotate(90) translate(0,4)" style="font-family: sans-serif; font-size: 14px; fill: #000; opacity: 1;">zod</text></g><g class="mark-rule role-axis-domain" style="pointer-events: none;"><line transform="translate(0,0)" x2="880" y2="0" style="stroke: #888; stroke-width: 1; opacity: 1;"></line></g><g class="mark-text role-axis-title" style="pointer-events: none;"><text text-anchor="middle" transform="translate(440,201)" style="font-family: sans-serif; font-size: 14px; font-weight: normal; fill: #000; opacity: 1;">module</text></g></g><path class="foreground" aria-hidden="true" d="" style="pointer-events: none; display: none;"></path></g></g><g class="mark-group role-axis" role="graphics-symbol" aria-roledescription="axis" aria-label="Y-axis titled 'operations / sec' for a linear scale with values from 0 to 65,000,000"><g transform="translate(0.5,0.5)"><path class="background" aria-hidden="true" d="M0,0h0v0h0Z" style="pointer-events: none;"></path><g><g class="mark-rule role-axis-tick" style="pointer-events: none;"><line transform="translate(0,600)" x2="-5" y2="0" style="stroke: #888; stroke-width: 1; opacity: 1;"></line><line transform="translate(0,554)" x2="-5" y2="0" style="stroke: #888; stroke-width: 1; opacity: 1;"></line><line transform="translate(0,508)" x2="-5" y2="0" style="stroke: #888; stroke-width: 1; opacity: 1;"></line><line transform="translate(0,462)" x2="-5" y2="0" style="stroke: #888; stroke-width: 1; opacity: 1;"></line><line transform="translate(0,415)" x2="-5" y2="0" style="stroke: #888; stroke-width: 1; opacity: 1;"></line><line transform="translate(0,369)" x2="-5" y2="0" style="stroke: #888; stroke-width: 1; opacity: 1;"></line><line transform="translate(0,323)" x2="-5" y2="0" style="stroke: #888; stroke-width: 1; opacity: 1;"></line><line transform="translate(0,277)" x2="-5" y2="0" style="stroke: #888; stroke-width: 1; opacity: 1;"></line><line transform="translate(0,231)" x2="-5" y2="0" style="stroke: #888; stroke-width: 1; opacity: 1;"></line><line transform="translate(0,185)" x2="-5" y2="0" style="stroke: #888; stroke-width: 1; opacity: 1;"></line><line transform="translate(0,138)" x2="-5" y2="0" style="stroke: #888; stroke-width: 1; opacity: 1;"></line><line transform="translate(0,92)" x2="-5" y2="0" style="stroke: #888; stroke-width: 1; opacity: 1;"></line><line transform="translate(0,46)" x2="-5" y2="0" style="stroke: #888; stroke-width: 1; opacity: 1;"></line><line transform="translate(0,0)" x2="-5" y2="0" style="stroke: #888; stroke-width: 1; opacity: 1;"></line></g><g class="mark-text role-axis-label" style="pointer-events: none;"><text text-anchor="end" transform="translate(-7,604)" style="font-family: sans-serif; font-size: 12px; fill: #000; opacity: 1;">0</text><text text-anchor="end" transform="translate(-7,557.8461538461539)" style="font-family: sans-serif; font-size: 12px; fill: #000; opacity: 1;">5,000,000</text><text text-anchor="end" transform="translate(-7,511.6923076923077)" style="font-family: sans-serif; font-size: 12px; fill: #000; opacity: 1;">10,000,000</text><text text-anchor="end" transform="translate(-7,465.5384615384615)" style="font-family: sans-serif; font-size: 12px; fill: #000; opacity: 1;">15,000,000</text><text text-anchor="end" transform="translate(-7,419.38461538461536)" style="font-family: sans-serif; font-size: 12px; fill: #000; opacity: 1;">20,000,000</text><text text-anchor="end" transform="translate(-7,373.2307692307692)" style="font-family: sans-serif; font-size: 12px; fill: #000; opacity: 1;">25,000,000</text><text text-anchor="end" transform="translate(-7,327.07692307692304)" style="font-family: sans-serif; font-size: 12px; fill: #000; opacity: 1;">30,000,000</text><text text-anchor="end" transform="translate(-7,280.92307692307696)" style="font-family: sans-serif; font-size: 12px; fill: #000; opacity: 1;">35,000,000</text><text text-anchor="end" transform="translate(-7,234.76923076923075)" style="font-family: sans-serif; font-size: 12px; fill: #000; opacity: 1;">40,000,000</text><text text-anchor="end" transform="translate(-7,188.6153846153846)" style="font-family: sans-serif; font-size: 12px; fill: #000; opacity: 1;">45,000,000</text><text text-anchor="end" transform="translate(-7,142.46153846153842)" style="font-family: sans-serif; font-size: 12px; fill: #000; opacity: 1;">50,000,000</text><text text-anchor="end" transform="translate(-7,96.3076923076923)" style="font-family: sans-serif; font-size: 12px; fill: #000; opacity: 1;">55,000,000</text><text text-anchor="end" transform="translate(-7,50.153846153846125)" style="font-family: sans-serif; font-size: 12px; fill: #000; opacity: 1;">60,000,000</text><text text-anchor="end" transform="translate(-7,4)" style="font-family: sans-serif; font-size: 12px; fill: #000; opacity: 1;">65,000,000</text></g><g class="mark-rule role-axis-domain" style="pointer-events: none;"><line transform="translate(0,600)" x2="0" y2="-600" style="stroke: #888; stroke-width: 1; opacity: 1;"></line></g><g class="mark-text role-axis-title" style="pointer-events: none;"><text text-anchor="middle" transform="translate(-107,300) rotate(-90) translate(0,-3)" style="font-family: sans-serif; font-size: 14px; font-weight: normal; fill: #000; opacity: 1;">operations / sec</text></g></g><path class="foreground" aria-hidden="true" d="" style="pointer-events: none; display: none;"></path></g></g><g class="mark-rect role-mark marks" role="graphics-object" aria-roledescription="rect mark container"><path aria-label="operations / sec: 27612; module: class-transformer-validator-async" role="graphics-symbol" aria-roledescription="bar" d="M2.75,599.74512h49.5v0.25487999999995736h-49.5Z" style="fill: #4c78a8;"></path><path aria-label="operations / sec: 33862; module: class-transformer-validator-sync" role="graphics-symbol" aria-roledescription="bar" d="M57.75,599.6874276923077h49.5v0.312572307692335h-49.5Z" style="fill: #4c78a8;"></path><path aria-label="operations / sec: 682038; module: computed-types" role="graphics-symbol" aria-roledescription="bar" d="M112.75,593.7042646153845h49.5v6.295735384615455h-49.5Z" style="fill: #4c78a8;"></path><path aria-label="operations / sec: 2045669; module: io-ts" role="graphics-symbol" aria-roledescription="bar" d="M167.75,581.1169015384615h49.5v18.883098461538452h-49.5Z" style="fill: #4c78a8;"></path><path aria-label="operations / sec: 930353; module: jointz" role="graphics-symbol" aria-roledescription="bar" d="M222.75,591.4121261538461h49.5v8.587873846153911h-49.5Z" style="fill: #4c78a8;"></path><path aria-label="operations / sec: 743426; module: json-decoder" role="graphics-symbol" aria-roledescription="bar" d="M277.75,593.1376061538461h49.5v6.86239384615385h-49.5Z" style="fill: #4c78a8;"></path><path aria-label="operations / sec: 20335427; module: marshal" role="graphics-symbol" aria-roledescription="bar" d="M332.75,412.28836615384614h49.5v187.71163384615386h-49.5Z" style="fill: #4c78a8;"></path><path aria-label="operations / sec: 1292455; module: myzod" role="graphics-symbol" aria-roledescription="bar" d="M387.75,588.0696461538462h49.5v11.930353846153821h-49.5Z" style="fill: #4c78a8;"></path><path aria-label="operations / sec: 760203; module: purify-ts" role="graphics-symbol" aria-roledescription="bar" d="M442.75,592.9827415384616h49.5v7.017258461538404h-49.5Z" style="fill: #4c78a8;"></path><path aria-label="operations / sec: 63537497; module: quartet" role="graphics-symbol" aria-roledescription="bar" d="M497.75,13.500027692307693h49.5v586.4999723076924h-49.5Z" style="fill: #4c78a8;"></path><path aria-label="operations / sec: 717584; module: runtypes" role="graphics-symbol" aria-roledescription="bar" d="M552.75,593.3761476923077h49.5v6.623852307692346h-49.5Z" style="fill: #4c78a8;"></path><path aria-label="operations / sec: 437065; module: toi" role="graphics-symbol" aria-roledescription="bar" d="M607.75,595.9655538461539h49.5v4.034446153846147h-49.5Z" style="fill: #4c78a8;"></path><path aria-label="operations / sec: 24584186; module: ts-json-validator" role="graphics-symbol" aria-roledescription="bar" d="M662.75,373.06905230769235h49.5v226.93094769230765h-49.5Z" style="fill: #4c78a8;"></path><path aria-label="operations / sec: 132964; module: ts-utils" role="graphics-symbol" aria-roledescription="bar" d="M717.75,598.77264h49.5v1.227359999999976h-49.5Z" style="fill: #4c78a8;"></path><path aria-label="operations / sec: 11640; module: yup" role="graphics-symbol" aria-roledescription="bar" d="M772.75,599.8925538461539h49.5v0.10744615384612644h-49.5Z" style="fill: #4c78a8;"></path><path aria-label="operations / sec: 57428; module: zod" role="graphics-symbol" aria-roledescription="bar" d="M827.75,599.4698953846154h49.5v0.53010461538463h-49.5Z" style="fill: #4c78a8;"></path></g></g><path class="foreground" aria-hidden="true" d="" style="display: none;"></path></g></g></g></svg>