<svg class="marks" width="1001" height="820" xmlns="http://www.w3.org/2000/svg">
    <path fill="#fff" d="M0 0h1001v820H0z"/>
    <g class="mark-group role-frame root">
        <path class="background" d="M116.5 11.5h880v600h-880z" fill="none" stroke="#ddd"/>
        <g class="mark-group role-axis">
            <path class="background" d="M116.5 11.5z" pointer-events="none" fill="none"/>
            <g class="mark-rule role-axis-grid" pointer-events="none" fill="none" stroke="#ddd">
                <path d="M116.5 611.5h880M116.5 556.5h880M116.5 502.5h880M116.5 447.5h880M116.5 393.5h880M116.5 338.5h880M116.5 284.5h880M116.5 229.5h880M116.5 175.5h880M116.5 120.5h880M116.5 66.5h880M116.5 11.5h880"/>
            </g>
        </g>
        <g class="mark-group role-axis">
            <path class="background" d="M116.5 611.5z" pointer-events="none" fill="none"/>
            <g class="mark-rule role-axis-tick" pointer-events="none" fill="none" stroke="#888">
                <path d="M152.5 611.5v5M226.5 611.5v5M299.5 611.5v5M372.5 611.5v5M446.5 611.5v5M519.5 611.5v5M592.5 611.5v5M666.5 611.5v5M739.5 611.5v5M812.5 611.5v5M886.5 611.5v5M959.5 611.5v5"/>
            </g>
            <g class="mark-text role-axis-label" pointer-events="none" font-family="sans-serif" font-size="14">
                <text transform="rotate(90 -234.917 383.583)">
                    class-transform…
                </text>
                <text transform="rotate(90 -198.25 420.25)">
                    class-transform…
                </text>
                <text transform="rotate(90 -161.583 456.917)">
                    funval
                </text>
                <text transform="rotate(90 -124.917 493.583)">
                    io-ts
                </text>
                <text transform="rotate(90 -88.25 530.25)">
                    json-decoder
                </text>
                <text transform="rotate(90 -51.583 566.917)">
                    marshal
                </text>
                <text transform="rotate(90 -14.917 603.583)">
                    myzod
                </text>
                <text transform="rotate(90 21.75 640.25)">
                    purify-ts
                </text>
                <text transform="rotate(90 58.417 676.917)">
                    runtypes
                </text>
                <text transform="rotate(90 95.083 713.583)">
                    toi
                </text>
                <text transform="rotate(90 131.75 750.25)">
                    ts-utils
                </text>
                <text transform="rotate(90 168.417 786.917)">
                    zod
                </text>
            </g>
            <path fill="none" stroke="#888" d="M116.5 611.5h880" pointer-events="none"/>
            <text text-anchor="middle" transform="translate(556.5 812.5)" font-family="sans-serif" font-size="14" font-weight="400" pointer-events="none">
                module
            </text>
        </g>
        <g class="mark-group role-axis">
            <path class="background" d="M116.5 11.5z" pointer-events="none" fill="none"/>
            <g class="mark-rule role-axis-tick" pointer-events="none" fill="none" stroke="#888">
                <path d="M116.5 611.5h-5M116.5 556.5h-5M116.5 502.5h-5M116.5 447.5h-5M116.5 393.5h-5M116.5 338.5h-5M116.5 284.5h-5M116.5 229.5h-5M116.5 175.5h-5M116.5 120.5h-5M116.5 66.5h-5M116.5 11.5h-5"/>
            </g>
            <g class="mark-text role-axis-label" pointer-events="none" text-anchor="end" font-family="sans-serif" font-size="12">
                <text transform="translate(109.5 615.5)">
                    0
                </text>
                <text transform="translate(109.5 560.955)">
                    500,000
                </text>
                <text transform="translate(109.5 506.41)">
                    1,000,000
                </text>
                <text transform="translate(109.5 451.864)">
                    1,500,000
                </text>
                <text transform="translate(109.5 397.318)">
                    2,000,000
                </text>
                <text transform="translate(109.5 342.773)">
                    2,500,000
                </text>
                <text transform="translate(109.5 288.227)">
                    3,000,000
                </text>
                <text transform="translate(109.5 233.682)">
                    3,500,000
                </text>
                <text transform="translate(109.5 179.136)">
                    4,000,000
                </text>
                <text transform="translate(109.5 124.59)">
                    4,500,000
                </text>
                <text transform="translate(109.5 70.045)">
                    5,000,000
                </text>
                <text transform="translate(109.5 15.5)">
                    5,500,000
                </text>
            </g>
            <path fill="none" stroke="#888" d="M116.5 611.5v-600" pointer-events="none"/>
            <text text-anchor="middle" transform="rotate(-90 164 147.5)" font-family="sans-serif" font-size="14" font-weight="400" pointer-events="none">
                operations / sec
            </text>
        </g>
        <g class="mark-rect role-mark marks" fill="#4c78a8">
            <path d="M119.667 607.073h66V611h-66zM193 606.208h66V611h-66zM266.333 521.908h66V611h-66zM339.667 340.539h66V611h-66zM413 550.585h66V611h-66zM486.333 58.86h66V611h-66zM559.667 583.169h66V611h-66zM633 515.274h66V611h-66zM706.333 515.891h66V611h-66zM779.667 556.955h66V611h-66zM853 594.265h66V611h-66zM926.333 604.075h66V611h-66z"/>
        </g>
    </g>
</svg>
