<svg class="marks" width="1001" height="820" xmlns="http://www.w3.org/2000/svg">
    <path fill="#fff" d="M0 0h1001v820H0z"/>
    <g class="mark-group role-frame root" aria-roledescription="group mark container" fill="none" stroke-miterlimit="10">
        <path class="background" aria-hidden="true" d="M116.5 11.5h880v600h-880z" stroke="#ddd"/>
        <g class="mark-group role-axis" aria-hidden="true">
            <path class="background" aria-hidden="true" d="M116.5 11.5z" pointer-events="none"/>
            <g class="mark-rule role-axis-grid" pointer-events="none" stroke="#ddd">
                <path d="M116.5 611.5h880M116.5 561.5h880M116.5 511.5h880M116.5 461.5h880M116.5 411.5h880M116.5 361.5h880M116.5 311.5h880M116.5 261.5h880M116.5 211.5h880M116.5 161.5h880M116.5 111.5h880M116.5 61.5h880M116.5 11.5h880"/>
            </g>
        </g>
        <g class="mark-group role-axis" aria-roledescription="axis" aria-label="X-axis titled 'module' for a discrete scale with 14 values: class-transformer-validator-async, class-transformer-validator-sync, computed-types, io-ts, jointz, ending with zod">
            <path class="background" aria-hidden="true" d="M116.5 611.5z" pointer-events="none"/>
            <g class="mark-rule role-axis-tick" pointer-events="none" stroke="#888">
                <path d="M147.5 611.5v5M210.5 611.5v5M273.5 611.5v5M336.5 611.5v5M398.5 611.5v5M461.5 611.5v5M524.5 611.5v5M587.5 611.5v5M650.5 611.5v5M713.5 611.5v5M776.5 611.5v5M838.5 611.5v5M901.5 611.5v5M964.5 611.5v5"/>
            </g>
            <g class="mark-text role-axis-label" pointer-events="none" font-family="sans-serif" font-size="14" fill="#000">
                <text transform="rotate(90 -237.536 380.964)">
                    class-transform…
                </text>
                <text transform="rotate(90 -206.107 412.393)">
                    class-transform…
                </text>
                <text transform="rotate(90 -174.679 443.821)">
                    computed-types
                </text>
                <text transform="rotate(90 -143.25 475.25)">
                    io-ts
                </text>
                <text transform="rotate(90 -111.821 506.679)">
                    jointz
                </text>
                <text transform="rotate(90 -80.393 538.107)">
                    json-decoder
                </text>
                <text transform="rotate(90 -48.964 569.536)">
                    myzod
                </text>
                <text transform="rotate(90 -17.536 600.964)">
                    purify-ts
                </text>
                <text transform="rotate(90 13.893 632.393)">
                    rulr
                </text>
                <text transform="rotate(90 45.321 663.821)">
                    runtypes
                </text>
                <text transform="rotate(90 76.75 695.25)">
                    toi
                </text>
                <text transform="rotate(90 108.179 726.679)">
                    ts-utils
                </text>
                <text transform="rotate(90 139.607 758.107)">
                    yup
                </text>
                <text transform="rotate(90 171.036 789.536)">
                    zod
                </text>
            </g>
            <path stroke="#888" d="M116.5 611.5h880" pointer-events="none"/>
            <text text-anchor="middle" transform="translate(556.5 812.5)" font-family="sans-serif" font-size="14" fill="#000" pointer-events="none">
                module
            </text>
        </g>
        <g class="mark-group role-axis" aria-roledescription="axis" aria-label="Y-axis titled 'operations / sec' for a linear scale with values from 0 to 2,400,000">
            <path class="background" aria-hidden="true" d="M116.5 11.5z" pointer-events="none"/>
            <g class="mark-rule role-axis-tick" pointer-events="none" stroke="#888">
                <path d="M116.5 611.5h-5M116.5 561.5h-5M116.5 511.5h-5M116.5 461.5h-5M116.5 411.5h-5M116.5 361.5h-5M116.5 311.5h-5M116.5 261.5h-5M116.5 211.5h-5M116.5 161.5h-5M116.5 111.5h-5M116.5 61.5h-5M116.5 11.5h-5"/>
            </g>
            <g class="mark-text role-axis-label" pointer-events="none" text-anchor="end" font-family="sans-serif" font-size="12" fill="#000">
                <text transform="translate(109.5 615.5)">
                    0
                </text>
                <text transform="translate(109.5 565.5)">
                    200,000
                </text>
                <text transform="translate(109.5 515.5)">
                    400,000
                </text>
                <text transform="translate(109.5 465.5)">
                    600,000
                </text>
                <text transform="translate(109.5 415.5)">
                    800,000
                </text>
                <text transform="translate(109.5 365.5)">
                    1,000,000
                </text>
                <text transform="translate(109.5 315.5)">
                    1,200,000
                </text>
                <text transform="translate(109.5 265.5)">
                    1,400,000
                </text>
                <text transform="translate(109.5 215.5)">
                    1,600,000
                </text>
                <text transform="translate(109.5 165.5)">
                    1,800,000
                </text>
                <text transform="translate(109.5 115.5)">
                    2,000,000
                </text>
                <text transform="translate(109.5 65.5)">
                    2,200,000
                </text>
                <text transform="translate(109.5 15.5)">
                    2,400,000
                </text>
            </g>
            <path stroke="#888" d="M116.5 611.5v-600" pointer-events="none"/>
            <text text-anchor="middle" transform="rotate(-90 164 147.5)" font-family="sans-serif" font-size="14" fill="#000" pointer-events="none">
                operations / sec
            </text>
        </g>
        <g class="mark-rect role-mark marks" aria-roledescription="rect mark container" fill="#4c78a8">
            <path aria-label="operations / sec: 21766; module: class-transformer-validator-async" aria-roledescription="bar" d="M119.143 605.558h56.571V611h-56.571z"/>
            <path aria-label="operations / sec: 24869; module: class-transformer-validator-sync" aria-roledescription="bar" d="M182 604.783h56.571V611H182z"/>
            <path aria-label="operations / sec: 575811; module: computed-types" aria-roledescription="bar" d="M244.857 467.047h56.572V611h-56.572z"/>
            <path aria-label="operations / sec: 2297858; module: io-ts" aria-roledescription="bar" d="M307.714 36.536h56.572V611h-56.572z"/>
            <path aria-label="operations / sec: 1350072; module: jointz" aria-roledescription="bar" d="M370.571 273.482h56.572V611H370.57z"/>
            <path aria-label="operations / sec: 648438; module: json-decoder" aria-roledescription="bar" d="M433.429 448.89H490V611h-56.571z"/>
            <path aria-label="operations / sec: 1260805; module: myzod" aria-roledescription="bar" d="M496.286 295.799h56.571V611h-56.571z"/>
            <path aria-label="operations / sec: 716403; module: purify-ts" aria-roledescription="bar" d="M559.143 431.9h56.571V611h-56.571z"/>
            <path aria-label="operations / sec: 626817; module: rulr" aria-roledescription="bar" d="M622 454.296h56.571V611H622z"/>
            <path aria-label="operations / sec: 688794; module: runtypes" aria-roledescription="bar" d="M684.857 438.801h56.572V611h-56.572z"/>
            <path aria-label="operations / sec: 387193; module: toi" aria-roledescription="bar" d="M747.714 514.202h56.572V611h-56.572z"/>
            <path aria-label="operations / sec: 121768; module: ts-utils" aria-roledescription="bar" d="M810.571 580.558h56.572V611H810.57z"/>
            <path aria-label="operations / sec: 11504; module: yup" aria-roledescription="bar" d="M873.429 608.124H930V611h-56.571z"/>
            <path aria-label="operations / sec: 39989; module: zod" aria-roledescription="bar" d="M936.286 601.003h56.571V611h-56.571z"/>
        </g>
    </g>
</svg>
