<svg class="marks" width="1001" height="820" xmlns="http://www.w3.org/2000/svg">
    <path fill="#fff" d="M0 0h1001v820H0z"/>
    <g class="mark-group role-frame root" aria-roledescription="group mark container">
        <path class="background" aria-hidden="true" d="M116.5 11.5h880v600h-880z" fill="none" stroke="#ddd"/>
        <g class="mark-group role-axis" aria-roledescription="axis" aria-label="Y-axis for a linear scale with values from 0 to 4,000,000">
            <path class="background" aria-hidden="true" d="M116.5 11.5z" pointer-events="none" fill="none"/>
            <g class="mark-rule role-axis-grid" pointer-events="none" fill="none" stroke="#ddd">
                <path d="M116.5 611.5h880M116.5 581.5h880M116.5 551.5h880M116.5 521.5h880M116.5 491.5h880M116.5 461.5h880M116.5 431.5h880M116.5 401.5h880M116.5 371.5h880M116.5 341.5h880M116.5 311.5h880M116.5 281.5h880M116.5 251.5h880M116.5 221.5h880M116.5 191.5h880M116.5 161.5h880M116.5 131.5h880M116.5 101.5h880M116.5 71.5h880M116.5 41.5h880M116.5 11.5h880"/>
            </g>
        </g>
        <g class="mark-group role-axis" aria-roledescription="axis" aria-label="X-axis titled 'module' for a discrete scale with 14 values: class-transformer-validator-async, class-transformer-validator-sync, funval, io-ts, jointz, ending with zod">
            <path class="background" aria-hidden="true" d="M116.5 611.5z" pointer-events="none" fill="none"/>
            <g class="mark-rule role-axis-tick" pointer-events="none" fill="none" stroke="#888">
                <path d="M147.5 611.5v5M210.5 611.5v5M273.5 611.5v5M336.5 611.5v5M398.5 611.5v5M461.5 611.5v5M524.5 611.5v5M587.5 611.5v5M650.5 611.5v5M713.5 611.5v5M776.5 611.5v5M838.5 611.5v5M901.5 611.5v5M964.5 611.5v5"/>
            </g>
            <g class="mark-text role-axis-label" pointer-events="none" font-family="sans-serif" font-size="14">
                <text transform="rotate(90 -237.536 380.964)">
                    class-transform…
                </text>
                <text transform="rotate(90 -206.107 412.393)">
                    class-transform…
                </text>
                <text transform="rotate(90 -174.679 443.821)">
                    funval
                </text>
                <text transform="rotate(90 -143.25 475.25)">
                    io-ts
                </text>
                <text transform="rotate(90 -111.821 506.679)">
                    jointz
                </text>
                <text transform="rotate(90 -80.393 538.107)">
                    json-decoder
                </text>
                <text transform="rotate(90 -48.964 569.536)">
                    marshal
                </text>
                <text transform="rotate(90 -17.536 600.964)">
                    myzod
                </text>
                <text transform="rotate(90 13.893 632.393)">
                    purify-ts
                </text>
                <text transform="rotate(90 45.321 663.821)">
                    runtypes
                </text>
                <text transform="rotate(90 76.75 695.25)">
                    toi
                </text>
                <text transform="rotate(90 108.179 726.679)">
                    ts-utils
                </text>
                <text transform="rotate(90 139.607 758.107)">
                    yup
                </text>
                <text transform="rotate(90 171.036 789.536)">
                    zod
                </text>
            </g>
            <path fill="none" stroke="#888" d="M116.5 611.5h880" pointer-events="none"/>
            <text text-anchor="middle" transform="translate(556.5 812.5)" font-family="sans-serif" font-size="14" font-weight="400" pointer-events="none">
                module
            </text>
        </g>
        <g class="mark-group role-axis" aria-roledescription="axis" aria-label="Y-axis titled 'operations / sec' for a linear scale with values from 0 to 4,000,000">
            <path class="background" aria-hidden="true" d="M116.5 11.5z" pointer-events="none" fill="none"/>
            <g class="mark-rule role-axis-tick" pointer-events="none" fill="none" stroke="#888">
                <path d="M116.5 611.5h-5M116.5 581.5h-5M116.5 551.5h-5M116.5 521.5h-5M116.5 491.5h-5M116.5 461.5h-5M116.5 431.5h-5M116.5 401.5h-5M116.5 371.5h-5M116.5 341.5h-5M116.5 311.5h-5M116.5 281.5h-5M116.5 251.5h-5M116.5 221.5h-5M116.5 191.5h-5M116.5 161.5h-5M116.5 131.5h-5M116.5 101.5h-5M116.5 71.5h-5M116.5 41.5h-5M116.5 11.5h-5"/>
            </g>
            <g class="mark-text role-axis-label" pointer-events="none" text-anchor="end" font-family="sans-serif" font-size="12">
                <text transform="translate(109.5 615.5)">
                    0
                </text>
                <text transform="translate(109.5 585.5)">
                    200,000
                </text>
                <text transform="translate(109.5 555.5)">
                    400,000
                </text>
                <text transform="translate(109.5 525.5)">
                    600,000
                </text>
                <text transform="translate(109.5 495.5)">
                    800,000
                </text>
                <text transform="translate(109.5 465.5)">
                    1,000,000
                </text>
                <text transform="translate(109.5 435.5)">
                    1,200,000
                </text>
                <text transform="translate(109.5 405.5)">
                    1,400,000
                </text>
                <text transform="translate(109.5 375.5)">
                    1,600,000
                </text>
                <text transform="translate(109.5 345.5)">
                    1,800,000
                </text>
                <text transform="translate(109.5 315.5)">
                    2,000,000
                </text>
                <text transform="translate(109.5 285.5)">
                    2,200,000
                </text>
                <text transform="translate(109.5 255.5)">
                    2,400,000
                </text>
                <text transform="translate(109.5 225.5)">
                    2,600,000
                </text>
                <text transform="translate(109.5 195.5)">
                    2,800,000
                </text>
                <text transform="translate(109.5 165.5)">
                    3,000,000
                </text>
                <text transform="translate(109.5 135.5)">
                    3,200,000
                </text>
                <text transform="translate(109.5 105.5)">
                    3,400,000
                </text>
                <text transform="translate(109.5 75.5)">
                    3,600,000
                </text>
                <text transform="translate(109.5 45.5)">
                    3,800,000
                </text>
                <text transform="translate(109.5 15.5)">
                    4,000,000
                </text>
            </g>
            <path fill="none" stroke="#888" d="M116.5 611.5v-600" pointer-events="none"/>
            <text text-anchor="middle" transform="rotate(-90 164 147.5)" font-family="sans-serif" font-size="14" font-weight="400" pointer-events="none">
                operations / sec
            </text>
        </g>
        <g class="mark-rect role-mark marks" aria-roledescription="rect mark container" fill="#4c78a8">
            <path d="M119.143 606.833h56.571V611h-56.571zM182 606.554h56.571V611H182zM244.857 494.42h56.572V611h-56.572zM307.714 234.099h56.572V611h-56.572zM370.571 396.509h56.572V611H370.57zM433.429 507.268H490V611h-56.571zM496.286 72.17h56.571V611h-56.571zM559.143 421.529h56.571V611h-56.571zM622 501.347h56.571V611H622zM684.857 510.177h56.572V611h-56.572zM747.714 550.661h56.572V611h-56.572zM810.571 593.029h56.572V611H810.57zM873.429 608.809H930V611h-56.571zM936.286 603.844h56.571V611h-56.571z"/>
        </g>
    </g>
</svg>
