<svg class="marks" width="1011" height="820" viewBox="0 0 1011 820" version="1.1" xmlns="http://www.w3.org/2000/svg" xmlns:xlink="http://www.w3.org/1999/xlink"><rect width="1011" height="820" fill="white"></rect><g fill="none" stroke-miterlimit="10" transform="translate(126,11)"><g class="mark-group role-frame root" role="graphics-object" aria-roledescription="group mark container"><g transform="translate(0,0)"><path class="background" aria-hidden="true" d="M0.5,0.5h880v600h-880Z" stroke="#ddd"></path><g><g class="mark-group role-axis" aria-hidden="true"><g transform="translate(0.5,0.5)"><path class="background" aria-hidden="true" d="M0,0h0v0h0Z" pointer-events="none"></path><g><g class="mark-rule role-axis-grid" pointer-events="none"><line transform="translate(0,600)" x2="880" y2="0" stroke="#ddd" stroke-width="1" opacity="1"></line><line transform="translate(0,563)" x2="880" y2="0" stroke="#ddd" stroke-width="1" opacity="1"></line><line transform="translate(0,525)" x2="880" y2="0" stroke="#ddd" stroke-width="1" opacity="1"></line><line transform="translate(0,488)" x2="880" y2="0" stroke="#ddd" stroke-width="1" opacity="1"></line><line transform="translate(0,450)" x2="880" y2="0" stroke="#ddd" stroke-width="1" opacity="1"></line><line transform="translate(0,413)" x2="880" y2="0" stroke="#ddd" stroke-width="1" opacity="1"></line><line transform="translate(0,375)" x2="880" y2="0" stroke="#ddd" stroke-width="1" opacity="1"></line><line transform="translate(0,338)" x2="880" y2="0" stroke="#ddd" stroke-width="1" opacity="1"></line><line transform="translate(0,300)" x2="880" y2="0" stroke="#ddd" stroke-width="1" opacity="1"></line><line transform="translate(0,263)" x2="880" y2="0" stroke="#ddd" stroke-width="1" opacity="1"></line><line transform="translate(0,225)" x2="880" y2="0" stroke="#ddd" stroke-width="1" opacity="1"></line><line transform="translate(0,188)" x2="880" y2="0" stroke="#ddd" stroke-width="1" opacity="1"></line><line transform="translate(0,150)" x2="880" y2="0" stroke="#ddd" stroke-width="1" opacity="1"></line><line transform="translate(0,113)" x2="880" y2="0" stroke="#ddd" stroke-width="1" opacity="1"></line><line transform="translate(0,75)" x2="880" y2="0" stroke="#ddd" stroke-width="1" opacity="1"></line><line transform="translate(0,38)" x2="880" y2="0" stroke="#ddd" stroke-width="1" opacity="1"></line><line transform="translate(0,0)" x2="880" y2="0" stroke="#ddd" stroke-width="1" opacity="1"></line></g></g><path class="foreground" aria-hidden="true" d="" pointer-events="none" display="none"></path></g></g><g class="mark-group role-axis" role="graphics-symbol" aria-roledescription="axis" aria-label="X-axis titled 'module' for a discrete scale with 14 values: class-transformer-validator-async, class-transformer-validator-sync, computed-types, io-ts, jointz, ending with zod"><g transform="translate(0.5,600.5)"><path class="background" aria-hidden="true" d="M0,0h0v0h0Z" pointer-events="none"></path><g><g class="mark-rule role-axis-tick" pointer-events="none"><line transform="translate(31,0)" x2="0" y2="5" stroke="#888" stroke-width="1" opacity="1"></line><line transform="translate(94,0)" x2="0" y2="5" stroke="#888" stroke-width="1" opacity="1"></line><line transform="translate(157,0)" x2="0" y2="5" stroke="#888" stroke-width="1" opacity="1"></line><line transform="translate(220,0)" x2="0" y2="5" stroke="#888" stroke-width="1" opacity="1"></line><line transform="translate(282,0)" x2="0" y2="5" stroke="#888" stroke-width="1" opacity="1"></line><line transform="translate(345,0)" x2="0" y2="5" stroke="#888" stroke-width="1" opacity="1"></line><line transform="translate(408,0)" x2="0" y2="5" stroke="#888" stroke-width="1" opacity="1"></line><line transform="translate(471,0)" x2="0" y2="5" stroke="#888" stroke-width="1" opacity="1"></line><line transform="translate(534,0)" x2="0" y2="5" stroke="#888" stroke-width="1" opacity="1"></line><line transform="translate(597,0)" x2="0" y2="5" stroke="#888" stroke-width="1" opacity="1"></line><line transform="translate(660,0)" x2="0" y2="5" stroke="#888" stroke-width="1" opacity="1"></line><line transform="translate(722,0)" x2="0" y2="5" stroke="#888" stroke-width="1" opacity="1"></line><line transform="translate(785,0)" x2="0" y2="5" stroke="#888" stroke-width="1" opacity="1"></line><line transform="translate(848,0)" x2="0" y2="5" stroke="#888" stroke-width="1" opacity="1"></line></g><g class="mark-text role-axis-label" pointer-events="none"><text text-anchor="start" transform="translate(30.928571428571452,7) rotate(90) translate(0,4)" font-family="sans-serif" font-size="14px" fill="#000" opacity="1">class-transform…</text><text text-anchor="start" transform="translate(93.7857142857143,7) rotate(90) translate(0,4)" font-family="sans-serif" font-size="14px" fill="#000" opacity="1">class-transform…</text><text text-anchor="start" transform="translate(156.64285714285717,7) rotate(90) translate(0,4)" font-family="sans-serif" font-size="14px" fill="#000" opacity="1">computed-types</text><text text-anchor="start" transform="translate(219.5,7) rotate(90) translate(0,4)" font-family="sans-serif" font-size="14px" fill="#000" opacity="1">io-ts</text><text text-anchor="start" transform="translate(282.3571428571429,7) rotate(90) translate(0,4)" font-family="sans-serif" font-size="14px" fill="#000" opacity="1">jointz</text><text text-anchor="start" transform="translate(345.2142857142857,7) rotate(90) translate(0,4)" font-family="sans-serif" font-size="14px" fill="#000" opacity="1">json-decoder</text><text text-anchor="start" transform="translate(408.07142857142856,7) rotate(90) translate(0,4)" font-family="sans-serif" font-size="14px" fill="#000" opacity="1">marshal</text><text text-anchor="start" transform="translate(470.92857142857144,7) rotate(90) translate(0,4)" font-family="sans-serif" font-size="14px" fill="#000" opacity="1">myzod</text><text text-anchor="start" transform="translate(533.7857142857143,7) rotate(90) translate(0,4)" font-family="sans-serif" font-size="14px" fill="#000" opacity="1">purify-ts</text><text text-anchor="start" transform="translate(596.6428571428572,7) rotate(90) translate(0,4)" font-family="sans-serif" font-size="14px" fill="#000" opacity="1">runtypes</text><text text-anchor="start" transform="translate(659.5000000000001,7) rotate(90) translate(0,4)" font-family="sans-serif" font-size="14px" fill="#000" opacity="1">toi</text><text text-anchor="start" transform="translate(722.357142857143,7) rotate(90) translate(0,4)" font-family="sans-serif" font-size="14px" fill="#000" opacity="1">ts-utils</text><text text-anchor="start" transform="translate(785.2142857142857,7) rotate(90) translate(0,4)" font-family="sans-serif" font-size="14px" fill="#000" opacity="1">yup</text><text text-anchor="start" transform="translate(848.0714285714286,7) rotate(90) translate(0,4)" font-family="sans-serif" font-size="14px" fill="#000" opacity="1">zod</text></g><g class="mark-rule role-axis-domain" pointer-events="none"><line transform="translate(0,0)" x2="880" y2="0" stroke="#888" stroke-width="1" opacity="1"></line></g><g class="mark-text role-axis-title" pointer-events="none"><text text-anchor="middle" transform="translate(440,201.00000000000003)" font-family="sans-serif" font-size="14px" font-weight="normal" fill="#000" opacity="1">module</text></g></g><path class="foreground" aria-hidden="true" d="" pointer-events="none" display="none"></path></g></g><g class="mark-group role-axis" role="graphics-symbol" aria-roledescription="axis" aria-label="Y-axis titled 'operations / sec' for a linear scale with values from 0 to 16,000,000"><g transform="translate(0.5,0.5)"><path class="background" aria-hidden="true" d="M0,0h0v0h0Z" pointer-events="none"></path><g><g class="mark-rule role-axis-tick" pointer-events="none"><line transform="translate(0,600)" x2="-5" y2="0" stroke="#888" stroke-width="1" opacity="1"></line><line transform="translate(0,563)" x2="-5" y2="0" stroke="#888" stroke-width="1" opacity="1"></line><line transform="translate(0,525)" x2="-5" y2="0" stroke="#888" stroke-width="1" opacity="1"></line><line transform="translate(0,488)" x2="-5" y2="0" stroke="#888" stroke-width="1" opacity="1"></line><line transform="translate(0,450)" x2="-5" y2="0" stroke="#888" stroke-width="1" opacity="1"></line><line transform="translate(0,413)" x2="-5" y2="0" stroke="#888" stroke-width="1" opacity="1"></line><line transform="translate(0,375)" x2="-5" y2="0" stroke="#888" stroke-width="1" opacity="1"></line><line transform="translate(0,338)" x2="-5" y2="0" stroke="#888" stroke-width="1" opacity="1"></line><line transform="translate(0,300)" x2="-5" y2="0" stroke="#888" stroke-width="1" opacity="1"></line><line transform="translate(0,263)" x2="-5" y2="0" stroke="#888" stroke-width="1" opacity="1"></line><line transform="translate(0,225)" x2="-5" y2="0" stroke="#888" stroke-width="1" opacity="1"></line><line transform="translate(0,188)" x2="-5" y2="0" stroke="#888" stroke-width="1" opacity="1"></line><line transform="translate(0,150)" x2="-5" y2="0" stroke="#888" stroke-width="1" opacity="1"></line><line transform="translate(0,113)" x2="-5" y2="0" stroke="#888" stroke-width="1" opacity="1"></line><line transform="translate(0,75)" x2="-5" y2="0" stroke="#888" stroke-width="1" opacity="1"></line><line transform="translate(0,38)" x2="-5" y2="0" stroke="#888" stroke-width="1" opacity="1"></line><line transform="translate(0,0)" x2="-5" y2="0" stroke="#888" stroke-width="1" opacity="1"></line></g><g class="mark-text role-axis-label" pointer-events="none"><text text-anchor="end" transform="translate(-7,604)" font-family="sans-serif" font-size="12px" fill="#000" opacity="1">0</text><text text-anchor="end" transform="translate(-7,566.5)" font-family="sans-serif" font-size="12px" fill="#000" opacity="1">1,000,000</text><text text-anchor="end" transform="translate(-7,529)" font-family="sans-serif" font-size="12px" fill="#000" opacity="1">2,000,000</text><text text-anchor="end" transform="translate(-7,491.5)" font-family="sans-serif" font-size="12px" fill="#000" opacity="1">3,000,000</text><text text-anchor="end" transform="translate(-7,454)" font-family="sans-serif" font-size="12px" fill="#000" opacity="1">4,000,000</text><text text-anchor="end" transform="translate(-7,416.5)" font-family="sans-serif" font-size="12px" fill="#000" opacity="1">5,000,000</text><text text-anchor="end" transform="translate(-7,379)" font-family="sans-serif" font-size="12px" fill="#000" opacity="1">6,000,000</text><text text-anchor="end" transform="translate(-7,341.5)" font-family="sans-serif" font-size="12px" fill="#000" opacity="1">7,000,000</text><text text-anchor="end" transform="translate(-7,304)" font-family="sans-serif" font-size="12px" fill="#000" opacity="1">8,000,000</text><text text-anchor="end" transform="translate(-7,266.5)" font-family="sans-serif" font-size="12px" fill="#000" opacity="1">9,000,000</text><text text-anchor="end" transform="translate(-7,229)" font-family="sans-serif" font-size="12px" fill="#000" opacity="1">10,000,000</text><text text-anchor="end" transform="translate(-7,191.5)" font-family="sans-serif" font-size="12px" fill="#000" opacity="1">11,000,000</text><text text-anchor="end" transform="translate(-7,154)" font-family="sans-serif" font-size="12px" fill="#000" opacity="1">12,000,000</text><text text-anchor="end" transform="translate(-7,116.5)" font-family="sans-serif" font-size="12px" fill="#000" opacity="1">13,000,000</text><text text-anchor="end" transform="translate(-7,79)" font-family="sans-serif" font-size="12px" fill="#000" opacity="1">14,000,000</text><text text-anchor="end" transform="translate(-7,41.5)" font-family="sans-serif" font-size="12px" fill="#000" opacity="1">15,000,000</text><text text-anchor="end" transform="translate(-7,4)" font-family="sans-serif" font-size="12px" fill="#000" opacity="1">16,000,000</text></g><g class="mark-rule role-axis-domain" pointer-events="none"><line transform="translate(0,600)" x2="0" y2="-600" stroke="#888" stroke-width="1" opacity="1"></line></g><g class="mark-text role-axis-title" pointer-events="none"><text text-anchor="middle" transform="translate(-107,300) rotate(-90) translate(0,-3)" font-family="sans-serif" font-size="14px" font-weight="normal" fill="#000" opacity="1">operations / sec</text></g></g><path class="foreground" aria-hidden="true" d="" pointer-events="none" display="none"></path></g></g><g class="mark-rect role-mark marks" role="graphics-object" aria-roledescription="rect mark container"><path aria-label="operations / sec: 26524; module: class-transformer-validator-async" role="graphics-symbol" aria-roledescription="bar" d="M3.142857142857167,599.00535h56.57142857142857v0.9946499999999787h-56.57142857142857Z" fill="#4c78a8"></path><path aria-label="operations / sec: 30573; module: class-transformer-validator-sync" role="graphics-symbol" aria-roledescription="bar" d="M66.00000000000003,598.8535125h56.57142857142857v1.1464875000000347h-56.57142857142857Z" fill="#4c78a8"></path><path aria-label="operations / sec: 708010; module: computed-types" role="graphics-symbol" aria-roledescription="bar" d="M128.8571428571429,573.449625h56.57142857142857v26.55037500000003h-56.57142857142857Z" fill="#4c78a8"></path><path aria-label="operations / sec: 2862412; module: io-ts" role="graphics-symbol" aria-roledescription="bar" d="M191.71428571428572,492.65955h56.57142857142857v107.34044999999998h-56.57142857142857Z" fill="#4c78a8"></path><path aria-label="operations / sec: 1689447; module: jointz" role="graphics-symbol" aria-roledescription="bar" d="M254.57142857142858,536.6457375h56.57142857142857v63.354262500000004h-56.57142857142857Z" fill="#4c78a8"></path><path aria-label="operations / sec: 820043; module: json-decoder" role="graphics-symbol" aria-roledescription="bar" d="M317.42857142857144,569.2483875h56.57142857142857v30.751612499999965h-56.57142857142857Z" fill="#4c78a8"></path><path aria-label="operations / sec: 14905206; module: marshal" role="graphics-symbol" aria-roledescription="bar" d="M380.2857142857143,41.05477500000001h56.57142857142857v558.9452249999999h-56.57142857142857Z" fill="#4c78a8"></path><path aria-label="operations / sec: 1421273; module: myzod" role="graphics-symbol" aria-roledescription="bar" d="M443.14285714285717,546.7022625000001h56.57142857142857v53.297737499999926h-56.57142857142857Z" fill="#4c78a8"></path><path aria-label="operations / sec: 896226; module: purify-ts" role="graphics-symbol" aria-roledescription="bar" d="M506,566.391525h56.57142857142857v33.608475h-56.57142857142857Z" fill="#4c78a8"></path><path aria-label="operations / sec: 832470; module: runtypes" role="graphics-symbol" aria-roledescription="bar" d="M568.8571428571429,568.782375h56.57142857142857v31.217624999999998h-56.57142857142857Z" fill="#4c78a8"></path><path aria-label="operations / sec: 487160; module: toi" role="graphics-symbol" aria-roledescription="bar" d="M631.7142857142858,581.7315h56.57142857142857v18.268500000000017h-56.57142857142857Z" fill="#4c78a8"></path><path aria-label="operations / sec: 132326; module: ts-utils" role="graphics-symbol" aria-roledescription="bar" d="M694.5714285714287,595.037775h56.57142857142857v4.9622249999999894h-56.57142857142857Z" fill="#4c78a8"></path><path aria-label="operations / sec: 15061; module: yup" role="graphics-symbol" aria-roledescription="bar" d="M757.4285714285713,599.4352125h56.57142857142857v0.5647874999999658h-56.57142857142857Z" fill="#4c78a8"></path><path aria-label="operations / sec: 55154; module: zod" role="graphics-symbol" aria-roledescription="bar" d="M820.2857142857142,597.931725h56.57142857142857v2.0682749999999714h-56.57142857142857Z" fill="#4c78a8"></path></g></g><path class="foreground" aria-hidden="true" d="" display="none"></path></g></g></g></svg>