<svg class="marks" width="1001" height="814" xmlns="http://www.w3.org/2000/svg">
    <path fill="#fff" d="M0 0h1001v814H0z"/>
    <g class="mark-group role-frame root">
        <path class="background" d="M116.5 5.5h880v600h-880z" fill="none" stroke="#ddd"/>
        <g class="mark-group role-axis">
            <path class="background" d="M116.5 5.5z" pointer-events="none" fill="none"/>
            <g class="mark-rule role-axis-grid" pointer-events="none" fill="none" stroke="#ddd">
                <path d="M116.5 605.5h880M116.5 571.5h880M116.5 536.5h880M116.5 502.5h880M116.5 468.5h880M116.5 434.5h880M116.5 399.5h880M116.5 365.5h880M116.5 331.5h880M116.5 296.5h880M116.5 262.5h880M116.5 228.5h880M116.5 194.5h880M116.5 159.5h880M116.5 125.5h880M116.5 91.5h880M116.5 56.5h880M116.5 22.5h880"/>
            </g>
        </g>
        <g class="mark-group role-axis">
            <path class="background" d="M116.5 605.5z" pointer-events="none" fill="none"/>
            <g class="mark-rule role-axis-tick" pointer-events="none" fill="none" stroke="#888">
                <path d="M149.5 605.5v5M217.5 605.5v5M285.5 605.5v5M352.5 605.5v5M420.5 605.5v5M488.5 605.5v5M556.5 605.5v5M623.5 605.5v5M691.5 605.5v5M759.5 605.5v5M826.5 605.5v5M894.5 605.5v5M962.5 605.5v5"/>
            </g>
            <g class="mark-text role-axis-label" pointer-events="none" font-family="sans-serif" font-size="14">
                <text transform="rotate(90 -233.327 379.173)">
                    class-transform…
                </text>
                <text transform="rotate(90 -199.48 413.02)">
                    class-transform…
                </text>
                <text transform="rotate(90 -165.635 446.865)">
                    funval
                </text>
                <text transform="rotate(90 -131.788 480.712)">
                    io-ts
                </text>
                <text transform="rotate(90 -97.942 514.558)">
                    json-decoder
                </text>
                <text transform="rotate(90 -64.096 548.404)">
                    marshal
                </text>
                <text transform="rotate(90 -30.25 582.25)">
                    myzod
                </text>
                <text transform="rotate(90 3.596 616.096)">
                    purify-ts
                </text>
                <text transform="rotate(90 37.442 649.942)">
                    runtypes
                </text>
                <text transform="rotate(90 71.288 683.788)">
                    toi
                </text>
                <text transform="rotate(90 105.135 717.635)">
                    ts-utils
                </text>
                <text transform="rotate(90 138.98 751.48)">
                    yup
                </text>
                <text transform="rotate(90 172.827 785.327)">
                    zod
                </text>
            </g>
            <path fill="none" stroke="#888" d="M116.5 605.5h880" pointer-events="none"/>
            <text text-anchor="middle" transform="translate(556.5 806.5)" font-family="sans-serif" font-size="14" font-weight="400" pointer-events="none">
                module
            </text>
        </g>
        <g class="mark-group role-axis">
            <path class="background" d="M116.5 5.5z" pointer-events="none" fill="none"/>
            <g class="mark-rule role-axis-tick" pointer-events="none" fill="none" stroke="#888">
                <path d="M116.5 605.5h-5M116.5 571.5h-5M116.5 536.5h-5M116.5 502.5h-5M116.5 468.5h-5M116.5 434.5h-5M116.5 399.5h-5M116.5 365.5h-5M116.5 331.5h-5M116.5 296.5h-5M116.5 262.5h-5M116.5 228.5h-5M116.5 194.5h-5M116.5 159.5h-5M116.5 125.5h-5M116.5 91.5h-5M116.5 56.5h-5M116.5 22.5h-5"/>
            </g>
            <g class="mark-text role-axis-label" pointer-events="none" text-anchor="end" font-family="sans-serif" font-size="12">
                <text transform="translate(109.5 609.5)">
                    0
                </text>
                <text transform="translate(109.5 575.214)">
                    200,000
                </text>
                <text transform="translate(109.5 540.929)">
                    400,000
                </text>
                <text transform="translate(109.5 506.643)">
                    600,000
                </text>
                <text transform="translate(109.5 472.357)">
                    800,000
                </text>
                <text transform="translate(109.5 438.071)">
                    1,000,000
                </text>
                <text transform="translate(109.5 403.786)">
                    1,200,000
                </text>
                <text transform="translate(109.5 369.5)">
                    1,400,000
                </text>
                <text transform="translate(109.5 335.214)">
                    1,600,000
                </text>
                <text transform="translate(109.5 300.929)">
                    1,800,000
                </text>
                <text transform="translate(109.5 266.643)">
                    2,000,000
                </text>
                <text transform="translate(109.5 232.357)">
                    2,200,000
                </text>
                <text transform="translate(109.5 198.071)">
                    2,400,000
                </text>
                <text transform="translate(109.5 163.786)">
                    2,600,000
                </text>
                <text transform="translate(109.5 129.5)">
                    2,800,000
                </text>
                <text transform="translate(109.5 95.214)">
                    3,000,000
                </text>
                <text transform="translate(109.5 60.929)">
                    3,200,000
                </text>
                <text transform="translate(109.5 26.643)">
                    3,400,000
                </text>
            </g>
            <path fill="none" stroke="#888" d="M116.5 605.5V5.5" pointer-events="none"/>
            <text text-anchor="middle" transform="rotate(-90 161 144.5)" font-family="sans-serif" font-size="14" font-weight="400" pointer-events="none">
                operations / sec
            </text>
        </g>
        <g class="mark-rect role-mark marks" fill="#4c78a8">
            <path d="M119.385 600.22h60.923V605h-60.923zM187.077 599.002H248V605h-60.923zM254.77 489.53h60.922V605H254.77zM322.462 221.003h60.923V605h-60.923zM390.154 497.896h60.923V605h-60.923zM457.846 33.208h60.923V605h-60.923zM525.538 397.51h60.924V605h-60.924zM593.23 491.9h60.924V605H593.23zM660.923 489.932h60.923V605h-60.923zM728.615 541.234h60.923V605h-60.923zM796.308 588.714h60.923V605h-60.923zM864 602.89h60.923V605H864zM931.692 596.77h60.923V605h-60.923z"/>
        </g>
    </g>
</svg>
