<svg class="marks" width="1011" height="820" viewBox="0 0 1011 820" version="1.1" xmlns="http://www.w3.org/2000/svg" xmlns:xlink="http://www.w3.org/1999/xlink"><rect width="1011" height="820" fill="white"></rect><g fill="none" stroke-miterlimit="10" transform="translate(126,11)"><g class="mark-group role-frame root" role="graphics-object" aria-roledescription="group mark container"><g transform="translate(0,0)"><path class="background" aria-hidden="true" d="M0.5,0.5h880v600h-880Z" stroke="#ddd"></path><g><g class="mark-group role-axis" aria-hidden="true"><g transform="translate(0.5,0.5)"><path class="background" aria-hidden="true" d="M0,0h0v0h0Z" pointer-events="none"></path><g><g class="mark-rule role-axis-grid" pointer-events="none"><line transform="translate(0,600)" x2="880" y2="0" stroke="#ddd" stroke-width="1" opacity="1"></line><line transform="translate(0,560)" x2="880" y2="0" stroke="#ddd" stroke-width="1" opacity="1"></line><line transform="translate(0,520)" x2="880" y2="0" stroke="#ddd" stroke-width="1" opacity="1"></line><line transform="translate(0,480)" x2="880" y2="0" stroke="#ddd" stroke-width="1" opacity="1"></line><line transform="translate(0,440)" x2="880" y2="0" stroke="#ddd" stroke-width="1" opacity="1"></line><line transform="translate(0,400)" x2="880" y2="0" stroke="#ddd" stroke-width="1" opacity="1"></line><line transform="translate(0,360)" x2="880" y2="0" stroke="#ddd" stroke-width="1" opacity="1"></line><line transform="translate(0,320)" x2="880" y2="0" stroke="#ddd" stroke-width="1" opacity="1"></line><line transform="translate(0,280)" x2="880" y2="0" stroke="#ddd" stroke-width="1" opacity="1"></line><line transform="translate(0,240)" x2="880" y2="0" stroke="#ddd" stroke-width="1" opacity="1"></line><line transform="translate(0,200)" x2="880" y2="0" stroke="#ddd" stroke-width="1" opacity="1"></line><line transform="translate(0,160)" x2="880" y2="0" stroke="#ddd" stroke-width="1" opacity="1"></line><line transform="translate(0,120)" x2="880" y2="0" stroke="#ddd" stroke-width="1" opacity="1"></line><line transform="translate(0,80)" x2="880" y2="0" stroke="#ddd" stroke-width="1" opacity="1"></line><line transform="translate(0,40)" x2="880" y2="0" stroke="#ddd" stroke-width="1" opacity="1"></line><line transform="translate(0,0)" x2="880" y2="0" stroke="#ddd" stroke-width="1" opacity="1"></line></g></g><path class="foreground" aria-hidden="true" d="" pointer-events="none" display="none"></path></g></g><g class="mark-group role-axis" role="graphics-symbol" aria-roledescription="axis" aria-label="X-axis titled 'module' for a discrete scale with 16 values: class-transformer-validator-async, class-transformer-validator-sync, computed-types, io-ts, jointz, ending with zod"><g transform="translate(0.5,600.5)"><path class="background" aria-hidden="true" d="M0,0h0v0h0Z" pointer-events="none"></path><g><g class="mark-rule role-axis-tick" pointer-events="none"><line transform="translate(27,0)" x2="0" y2="5" stroke="#888" stroke-width="1" opacity="1"></line><line transform="translate(82,0)" x2="0" y2="5" stroke="#888" stroke-width="1" opacity="1"></line><line transform="translate(137,0)" x2="0" y2="5" stroke="#888" stroke-width="1" opacity="1"></line><line transform="translate(192,0)" x2="0" y2="5" stroke="#888" stroke-width="1" opacity="1"></line><line transform="translate(247,0)" x2="0" y2="5" stroke="#888" stroke-width="1" opacity="1"></line><line transform="translate(302,0)" x2="0" y2="5" stroke="#888" stroke-width="1" opacity="1"></line><line transform="translate(357,0)" x2="0" y2="5" stroke="#888" stroke-width="1" opacity="1"></line><line transform="translate(412,0)" x2="0" y2="5" stroke="#888" stroke-width="1" opacity="1"></line><line transform="translate(467,0)" x2="0" y2="5" stroke="#888" stroke-width="1" opacity="1"></line><line transform="translate(522,0)" x2="0" y2="5" stroke="#888" stroke-width="1" opacity="1"></line><line transform="translate(577,0)" x2="0" y2="5" stroke="#888" stroke-width="1" opacity="1"></line><line transform="translate(632,0)" x2="0" y2="5" stroke="#888" stroke-width="1" opacity="1"></line><line transform="translate(687,0)" x2="0" y2="5" stroke="#888" stroke-width="1" opacity="1"></line><line transform="translate(742,0)" x2="0" y2="5" stroke="#888" stroke-width="1" opacity="1"></line><line transform="translate(797,0)" x2="0" y2="5" stroke="#888" stroke-width="1" opacity="1"></line><line transform="translate(852,0)" x2="0" y2="5" stroke="#888" stroke-width="1" opacity="1"></line></g><g class="mark-text role-axis-label" pointer-events="none"><text text-anchor="start" transform="translate(27,7) rotate(90) translate(0,4)" font-family="sans-serif" font-size="14px" fill="#000" opacity="1">class-transform…</text><text text-anchor="start" transform="translate(82,7) rotate(90) translate(0,4)" font-family="sans-serif" font-size="14px" fill="#000" opacity="1">class-transform…</text><text text-anchor="start" transform="translate(137,7) rotate(90) translate(0,4)" font-family="sans-serif" font-size="14px" fill="#000" opacity="1">computed-types</text><text text-anchor="start" transform="translate(192,7) rotate(90) translate(0,4)" font-family="sans-serif" font-size="14px" fill="#000" opacity="1">io-ts</text><text text-anchor="start" transform="translate(247,7) rotate(90) translate(0,4)" font-family="sans-serif" font-size="14px" fill="#000" opacity="1">jointz</text><text text-anchor="start" transform="translate(302,7) rotate(90) translate(0,4)" font-family="sans-serif" font-size="14px" fill="#000" opacity="1">json-decoder</text><text text-anchor="start" transform="translate(357,7) rotate(90) translate(0,4)" font-family="sans-serif" font-size="14px" fill="#000" opacity="1">marshal</text><text text-anchor="start" transform="translate(412,7) rotate(90) translate(0,4)" font-family="sans-serif" font-size="14px" fill="#000" opacity="1">myzod</text><text text-anchor="start" transform="translate(467,7) rotate(90) translate(0,4)" font-family="sans-serif" font-size="14px" fill="#000" opacity="1">purify-ts</text><text text-anchor="start" transform="translate(522,7) rotate(90) translate(0,4)" font-family="sans-serif" font-size="14px" fill="#000" opacity="1">quartet</text><text text-anchor="start" transform="translate(577,7) rotate(90) translate(0,4)" font-family="sans-serif" font-size="14px" fill="#000" opacity="1">runtypes</text><text text-anchor="start" transform="translate(632,7) rotate(90) translate(0,4)" font-family="sans-serif" font-size="14px" fill="#000" opacity="1">toi</text><text text-anchor="start" transform="translate(687,7) rotate(90) translate(0,4)" font-family="sans-serif" font-size="14px" fill="#000" opacity="1">ts-json-validat…</text><text text-anchor="start" transform="translate(742,7) rotate(90) translate(0,4)" font-family="sans-serif" font-size="14px" fill="#000" opacity="1">ts-utils</text><text text-anchor="start" transform="translate(797,7) rotate(90) translate(0,4)" font-family="sans-serif" font-size="14px" fill="#000" opacity="1">yup</text><text text-anchor="start" transform="translate(852,7) rotate(90) translate(0,4)" font-family="sans-serif" font-size="14px" fill="#000" opacity="1">zod</text></g><g class="mark-rule role-axis-domain" pointer-events="none"><line transform="translate(0,0)" x2="880" y2="0" stroke="#888" stroke-width="1" opacity="1"></line></g><g class="mark-text role-axis-title" pointer-events="none"><text text-anchor="middle" transform="translate(440,201)" font-family="sans-serif" font-size="14px" font-weight="normal" fill="#000" opacity="1">module</text></g></g><path class="foreground" aria-hidden="true" d="" pointer-events="none" display="none"></path></g></g><g class="mark-group role-axis" role="graphics-symbol" aria-roledescription="axis" aria-label="Y-axis titled 'operations / sec' for a linear scale with values from 0 to 30,000,000"><g transform="translate(0.5,0.5)"><path class="background" aria-hidden="true" d="M0,0h0v0h0Z" pointer-events="none"></path><g><g class="mark-rule role-axis-tick" pointer-events="none"><line transform="translate(0,600)" x2="-5" y2="0" stroke="#888" stroke-width="1" opacity="1"></line><line transform="translate(0,560)" x2="-5" y2="0" stroke="#888" stroke-width="1" opacity="1"></line><line transform="translate(0,520)" x2="-5" y2="0" stroke="#888" stroke-width="1" opacity="1"></line><line transform="translate(0,480)" x2="-5" y2="0" stroke="#888" stroke-width="1" opacity="1"></line><line transform="translate(0,440)" x2="-5" y2="0" stroke="#888" stroke-width="1" opacity="1"></line><line transform="translate(0,400)" x2="-5" y2="0" stroke="#888" stroke-width="1" opacity="1"></line><line transform="translate(0,360)" x2="-5" y2="0" stroke="#888" stroke-width="1" opacity="1"></line><line transform="translate(0,320)" x2="-5" y2="0" stroke="#888" stroke-width="1" opacity="1"></line><line transform="translate(0,280)" x2="-5" y2="0" stroke="#888" stroke-width="1" opacity="1"></line><line transform="translate(0,240)" x2="-5" y2="0" stroke="#888" stroke-width="1" opacity="1"></line><line transform="translate(0,200)" x2="-5" y2="0" stroke="#888" stroke-width="1" opacity="1"></line><line transform="translate(0,160)" x2="-5" y2="0" stroke="#888" stroke-width="1" opacity="1"></line><line transform="translate(0,120)" x2="-5" y2="0" stroke="#888" stroke-width="1" opacity="1"></line><line transform="translate(0,80)" x2="-5" y2="0" stroke="#888" stroke-width="1" opacity="1"></line><line transform="translate(0,40)" x2="-5" y2="0" stroke="#888" stroke-width="1" opacity="1"></line><line transform="translate(0,0)" x2="-5" y2="0" stroke="#888" stroke-width="1" opacity="1"></line></g><g class="mark-text role-axis-label" pointer-events="none"><text text-anchor="end" transform="translate(-7,604)" font-family="sans-serif" font-size="12px" fill="#000" opacity="1">0</text><text text-anchor="end" transform="translate(-7,564)" font-family="sans-serif" font-size="12px" fill="#000" opacity="1">2,000,000</text><text text-anchor="end" transform="translate(-7,524)" font-family="sans-serif" font-size="12px" fill="#000" opacity="1">4,000,000</text><text text-anchor="end" transform="translate(-7,484)" font-family="sans-serif" font-size="12px" fill="#000" opacity="1">6,000,000</text><text text-anchor="end" transform="translate(-7,444.00000000000006)" font-family="sans-serif" font-size="12px" fill="#000" opacity="1">8,000,000</text><text text-anchor="end" transform="translate(-7,404.00000000000006)" font-family="sans-serif" font-size="12px" fill="#000" opacity="1">10,000,000</text><text text-anchor="end" transform="translate(-7,364)" font-family="sans-serif" font-size="12px" fill="#000" opacity="1">12,000,000</text><text text-anchor="end" transform="translate(-7,324)" font-family="sans-serif" font-size="12px" fill="#000" opacity="1">14,000,000</text><text text-anchor="end" transform="translate(-7,284)" font-family="sans-serif" font-size="12px" fill="#000" opacity="1">16,000,000</text><text text-anchor="end" transform="translate(-7,244)" font-family="sans-serif" font-size="12px" fill="#000" opacity="1">18,000,000</text><text text-anchor="end" transform="translate(-7,204.00000000000003)" font-family="sans-serif" font-size="12px" fill="#000" opacity="1">20,000,000</text><text text-anchor="end" transform="translate(-7,164.00000000000003)" font-family="sans-serif" font-size="12px" fill="#000" opacity="1">22,000,000</text><text text-anchor="end" transform="translate(-7,123.99999999999997)" font-family="sans-serif" font-size="12px" fill="#000" opacity="1">24,000,000</text><text text-anchor="end" transform="translate(-7,83.99999999999999)" font-family="sans-serif" font-size="12px" fill="#000" opacity="1">26,000,000</text><text text-anchor="end" transform="translate(-7,43.99999999999999)" font-family="sans-serif" font-size="12px" fill="#000" opacity="1">28,000,000</text><text text-anchor="end" transform="translate(-7,4)" font-family="sans-serif" font-size="12px" fill="#000" opacity="1">30,000,000</text></g><g class="mark-rule role-axis-domain" pointer-events="none"><line transform="translate(0,600)" x2="0" y2="-600" stroke="#888" stroke-width="1" opacity="1"></line></g><g class="mark-text role-axis-title" pointer-events="none"><text text-anchor="middle" transform="translate(-107,300) rotate(-90) translate(0,-3)" font-family="sans-serif" font-size="14px" font-weight="normal" fill="#000" opacity="1">operations / sec</text></g></g><path class="foreground" aria-hidden="true" d="" pointer-events="none" display="none"></path></g></g><g class="mark-rect role-mark marks" role="graphics-object" aria-roledescription="rect mark container"><path aria-label="operations / sec: 25829; module: class-transformer-validator-async" role="graphics-symbol" aria-roledescription="bar" d="M2.75,599.48342h49.5v0.5165799999999763h-49.5Z" fill="#4c78a8"></path><path aria-label="operations / sec: 35726; module: class-transformer-validator-sync" role="graphics-symbol" aria-roledescription="bar" d="M57.75,599.28548h49.5v0.7145199999999932h-49.5Z" fill="#4c78a8"></path><path aria-label="operations / sec: 660516; module: computed-types" role="graphics-symbol" aria-roledescription="bar" d="M112.75,586.78968h49.5v13.210320000000024h-49.5Z" fill="#4c78a8"></path><path aria-label="operations / sec: 2570651; module: io-ts" role="graphics-symbol" aria-roledescription="bar" d="M167.75,548.58698h49.5v51.41301999999996h-49.5Z" fill="#4c78a8"></path><path aria-label="operations / sec: 1459474; module: jointz" role="graphics-symbol" aria-roledescription="bar" d="M222.75,570.81052h49.5v29.189480000000003h-49.5Z" fill="#4c78a8"></path><path aria-label="operations / sec: 770058; module: json-decoder" role="graphics-symbol" aria-roledescription="bar" d="M277.75,584.59884h49.5v15.401160000000004h-49.5Z" fill="#4c78a8"></path><path aria-label="operations / sec: 11647255; module: marshal" role="graphics-symbol" aria-roledescription="bar" d="M332.75,367.05490000000003h49.5v232.94509999999997h-49.5Z" fill="#4c78a8"></path><path aria-label="operations / sec: 1303741; module: myzod" role="graphics-symbol" aria-roledescription="bar" d="M387.75,573.9251800000001h49.5v26.07481999999993h-49.5Z" fill="#4c78a8"></path><path aria-label="operations / sec: 726040; module: purify-ts" role="graphics-symbol" aria-roledescription="bar" d="M442.75,585.4792h49.5v14.520800000000008h-49.5Z" fill="#4c78a8"></path><path aria-label="operations / sec: 28070942; module: quartet" role="graphics-symbol" aria-roledescription="bar" d="M497.75,38.581160000000004h49.5v561.41884h-49.5Z" fill="#4c78a8"></path><path aria-label="operations / sec: 753306; module: runtypes" role="graphics-symbol" aria-roledescription="bar" d="M552.75,584.93388h49.5v15.066119999999955h-49.5Z" fill="#4c78a8"></path><path aria-label="operations / sec: 427648; module: toi" role="graphics-symbol" aria-roledescription="bar" d="M607.75,591.44704h49.5v8.552959999999985h-49.5Z" fill="#4c78a8"></path><path aria-label="operations / sec: 19166122; module: ts-json-validator" role="graphics-symbol" aria-roledescription="bar" d="M662.75,216.67756h49.5v383.32244000000003h-49.5Z" fill="#4c78a8"></path><path aria-label="operations / sec: 133294; module: ts-utils" role="graphics-symbol" aria-roledescription="bar" d="M717.75,597.33412h49.5v2.6658800000000156h-49.5Z" fill="#4c78a8"></path><path aria-label="operations / sec: 12256; module: yup" role="graphics-symbol" aria-roledescription="bar" d="M772.75,599.75488h49.5v0.24512000000004264h-49.5Z" fill="#4c78a8"></path><path aria-label="operations / sec: 51114; module: zod" role="graphics-symbol" aria-roledescription="bar" d="M827.75,598.97772h49.5v1.0222800000000234h-49.5Z" fill="#4c78a8"></path></g></g><path class="foreground" aria-hidden="true" d="" display="none"></path></g></g></g></svg>