<svg xmlns="http://www.w3.org/2000/svg" class="marks" width="1011" height="820">
    <path fill="#fff" d="M0 0h1011v820H0z"/>
    <g class="mark-group role-frame root" aria-roledescription="group mark container" fill="none" stroke-miterlimit="10">
        <path class="background" aria-hidden="true" d="M126.5 11.5h880v600h-880z" stroke="#ddd"/>
        <g class="mark-group role-axis" aria-roledescription="axis" aria-label="Y-axis for a linear scale with values from 0 to 16,000,000">
            <path class="background" aria-hidden="true" d="M126.5 11.5z" pointer-events="none"/>
            <g class="mark-rule role-axis-grid" pointer-events="none" stroke="#ddd">
                <path d="M126.5 611.5h880M126.5 574.5h880M126.5 536.5h880M126.5 499.5h880M126.5 461.5h880M126.5 424.5h880M126.5 386.5h880M126.5 349.5h880M126.5 311.5h880M126.5 274.5h880M126.5 236.5h880M126.5 199.5h880M126.5 161.5h880M126.5 124.5h880M126.5 86.5h880M126.5 49.5h880M126.5 11.5h880"/>
            </g>
        </g>
        <g class="mark-group role-axis" aria-roledescription="axis" aria-label="X-axis titled 'module' for a discrete scale with 20 values: bueno, class-transformer-validator-async, class-transformer-validator-sync, computed-types, decoders, ending with zod">
            <path class="background" aria-hidden="true" d="M126.5 611.5z" pointer-events="none"/>
            <g class="mark-rule role-axis-tick" pointer-events="none" stroke="#888">
                <path d="M148.5 611.5v5M192.5 611.5v5M236.5 611.5v5M280.5 611.5v5M324.5 611.5v5M368.5 611.5v5M412.5 611.5v5M456.5 611.5v5M500.5 611.5v5M544.5 611.5v5M588.5 611.5v5M632.5 611.5v5M676.5 611.5v5M720.5 611.5v5M764.5 611.5v5M808.5 611.5v5M852.5 611.5v5M896.5 611.5v5M940.5 611.5v5M984.5 611.5v5"/>
            </g>
            <g class="mark-text role-axis-label" pointer-events="none" font-family="sans-serif" font-size="14" fill="#000">
                <text transform="rotate(90 -237.25 381.25)">bueno</text>
                <text transform="rotate(90 -215.25 403.25)">class-transform…</text>
                <text transform="rotate(90 -193.25 425.25)">class-transform…</text>
                <text transform="rotate(90 -171.25 447.25)">computed-types</text>
                <text transform="rotate(90 -149.25 469.25)">decoders</text>
                <text transform="rotate(90 -127.25 491.25)">io-ts</text>
                <text transform="rotate(90 -105.25 513.25)">jointz</text>
                <text transform="rotate(90 -83.25 535.25)">json-decoder</text>
                <text transform="rotate(90 -61.25 557.25)">marshal</text>
                <text transform="rotate(90 -39.25 579.25)">myzod</text>
                <text transform="rotate(90 -17.25 601.25)">purify-ts</text>
                <text transform="rotate(90 4.75 623.25)">rulr</text>
                <text transform="rotate(90 26.75 645.25)">runtypes</text>
                <text transform="rotate(90 48.75 667.25)">simple-runtypes</text>
                <text transform="rotate(90 70.75 689.25)">superstruct</text>
                <text transform="rotate(90 92.75 711.25)">toi</text>
                <text transform="rotate(90 114.75 733.25)">ts-json-validat…</text>
                <text transform="rotate(90 136.75 755.25)">ts-utils</text>
                <text transform="rotate(90 158.75 777.25)">yup</text>
                <text transform="rotate(90 180.75 799.25)">zod</text>
            </g>
            <path stroke="#888" d="M126.5 611.5h880" pointer-events="none"/>
            <text text-anchor="middle" transform="translate(566.5 812.5)" font-family="sans-serif" font-size="14" fill="#000" pointer-events="none">module</text>
        </g>
        <g class="mark-group role-axis" aria-roledescription="axis" aria-label="Y-axis titled 'operations / sec' for a linear scale with values from 0 to 16,000,000">
            <path class="background" aria-hidden="true" d="M126.5 11.5z" pointer-events="none"/>
            <g class="mark-rule role-axis-tick" pointer-events="none" stroke="#888">
                <path d="M126.5 611.5h-5M126.5 574.5h-5M126.5 536.5h-5M126.5 499.5h-5M126.5 461.5h-5M126.5 424.5h-5M126.5 386.5h-5M126.5 349.5h-5M126.5 311.5h-5M126.5 274.5h-5M126.5 236.5h-5M126.5 199.5h-5M126.5 161.5h-5M126.5 124.5h-5M126.5 86.5h-5M126.5 49.5h-5M126.5 11.5h-5"/>
            </g>
            <g class="mark-text role-axis-label" pointer-events="none" text-anchor="end" font-family="sans-serif" font-size="12" fill="#000">
                <text transform="translate(119.5 615.5)">0</text>
                <text transform="translate(119.5 578)">1,000,000</text>
                <text transform="translate(119.5 540.5)">2,000,000</text>
                <text transform="translate(119.5 503)">3,000,000</text>
                <text transform="translate(119.5 465.5)">4,000,000</text>
                <text transform="translate(119.5 428)">5,000,000</text>
                <text transform="translate(119.5 390.5)">6,000,000</text>
                <text transform="translate(119.5 353)">7,000,000</text>
                <text transform="translate(119.5 315.5)">8,000,000</text>
                <text transform="translate(119.5 278)">9,000,000</text>
                <text transform="translate(119.5 240.5)">10,000,000</text>
                <text transform="translate(119.5 203)">11,000,000</text>
                <text transform="translate(119.5 165.5)">12,000,000</text>
                <text transform="translate(119.5 128)">13,000,000</text>
                <text transform="translate(119.5 90.5)">14,000,000</text>
                <text transform="translate(119.5 53)">15,000,000</text>
                <text transform="translate(119.5 15.5)">16,000,000</text>
            </g>
            <path stroke="#888" d="M126.5 611.5v-600" pointer-events="none"/>
            <text text-anchor="middle" transform="rotate(-90 164 147.5)" font-family="sans-serif" font-size="14" fill="#000" pointer-events="none">operations / sec</text>
        </g>
        <g class="mark-rect role-mark marks" aria-roledescription="rect mark container" fill="#4c78a8">
            <path d="M128.2 606.155h39.6V611h-39.6zM172.2 609.832h39.6V611h-39.6zM216.2 609.694h39.6V611h-39.6zM260.2 585.208h39.6V611h-39.6zM304.2 603.464h39.6V611h-39.6zM348.2 578.934h39.6V611h-39.6zM392.2 582.26h39.6V611h-39.6zM436.2 585.805h39.6V611h-39.6zM480.2 30.84h39.6V611h-39.6zM524.2 568.807h39.6V611h-39.6zM568.2 597.017h39.6V611h-39.6zM612.2 588.103h39.6V611h-39.6zM656.2 586.64h39.6V611h-39.6zM700.2 564.412h39.6V611h-39.6zM744.2 608.788h39.6V611h-39.6zM788.2 595.701h39.6V611h-39.6zM832.2 23.428h39.6V611h-39.6zM876.2 606.509h39.6V611h-39.6zM920.2 610.427h39.6V611h-39.6zM964.2 610.588h39.6V611h-39.6z"/>
        </g>
    </g>
</svg>
