<svg xmlns="http://www.w3.org/2000/svg" class="marks" width="1001" height="820">
    <path fill="#fff" d="M0 0h1001v820H0z"/>
    <g class="mark-group role-frame root" aria-roledescription="group mark container" fill="none" stroke-miterlimit="10">
        <path class="background" aria-hidden="true" d="M116.5 11.5h880v600h-880Z" stroke="#ddd"/>
        <g class="mark-group role-axis" aria-roledescription="axis" aria-label="Y-axis for a linear scale with values from 0 to 3,000,000">
            <path class="background" aria-hidden="true" d="M116.5 11.5Z" pointer-events="none"/>
            <g class="mark-rule role-axis-grid" pointer-events="none" stroke="#ddd">
                <path d="M116.5 611.5h880M116.5 571.5h880M116.5 531.5h880M116.5 491.5h880M116.5 451.5h880M116.5 411.5h880M116.5 371.5h880M116.5 331.5h880M116.5 291.5h880M116.5 251.5h880M116.5 211.5h880M116.5 171.5h880M116.5 131.5h880M116.5 91.5h880M116.5 51.5h880M116.5 11.5h880"/>
            </g>
        </g>
        <g pointer-events="none" class="mark-group role-axis" aria-roledescription="axis" aria-label="X-axis titled 'module' for a discrete scale with 13 values: @mojotech/json-type-validation, bueno, computed-types, decoders, json-decoder, ending with zod">
            <path class="background" aria-hidden="true" d="M116.5 611.5Z"/>
            <g class="mark-rule role-axis-tick" stroke="#888">
                <path d="M149.5 611.5v5M217.5 611.5v5M285.5 611.5v5M352.5 611.5v5M420.5 611.5v5M488.5 611.5v5M556.5 611.5v5M623.5 611.5v5M691.5 611.5v5M759.5 611.5v5M826.5 611.5v5M894.5 611.5v5M962.5 611.5v5"/>
            </g>
            <g class="mark-text role-axis-label" font-family="sans-serif" font-size="14" fill="#000">
                <text transform="rotate(90 -236.327 382.173)">@mojotech/json-…</text>
                <text transform="rotate(90 -202.48 416.02)">bueno</text>
                <text transform="rotate(90 -168.635 449.865)">computed-types</text>
                <text transform="rotate(90 -134.788 483.712)">decoders</text>
                <text transform="rotate(90 -100.942 517.558)">json-decoder</text>
                <text transform="rotate(90 -67.096 551.404)">myzod</text>
                <text transform="rotate(90 -33.25 585.25)">purify-ts</text>
                <text transform="rotate(90 .596 619.096)">rulr</text>
                <text transform="rotate(90 34.442 652.942)">simple-runtypes</text>
                <text transform="rotate(90 68.288 686.788)">ts-utils</text>
                <text transform="rotate(90 102.135 720.635)">valita</text>
                <text transform="rotate(90 135.98 754.48)">yup</text>
                <text transform="rotate(90 169.827 788.327)">zod</text>
            </g>
            <path stroke="#888" d="M116.5 611.5h880" class="mark-rule role-axis-domain"/>
            <text text-anchor="middle" transform="translate(556.5 812.5)" font-family="sans-serif" font-size="14" fill="#000" class="mark-text role-axis-title">module</text>
        </g>
        <g pointer-events="none" class="mark-group role-axis" aria-roledescription="axis" aria-label="Y-axis titled 'operations / sec' for a linear scale with values from 0 to 3,000,000">
            <path class="background" aria-hidden="true" d="M116.5 11.5Z"/>
            <g class="mark-rule role-axis-tick" stroke="#888">
                <path d="M116.5 611.5h-5M116.5 571.5h-5M116.5 531.5h-5M116.5 491.5h-5M116.5 451.5h-5M116.5 411.5h-5M116.5 371.5h-5M116.5 331.5h-5M116.5 291.5h-5M116.5 251.5h-5M116.5 211.5h-5M116.5 171.5h-5M116.5 131.5h-5M116.5 91.5h-5M116.5 51.5h-5M116.5 11.5h-5"/>
            </g>
            <g class="mark-text role-axis-label" text-anchor="end" font-family="sans-serif" font-size="12" fill="#000">
                <text transform="translate(109.5 615.5)">0</text>
                <text transform="translate(109.5 575.5)">200,000</text>
                <text transform="translate(109.5 535.5)">400,000</text>
                <text transform="translate(109.5 495.5)">600,000</text>
                <text transform="translate(109.5 455.5)">800,000</text>
                <text transform="translate(109.5 415.5)">1,000,000</text>
                <text transform="translate(109.5 375.5)">1,200,000</text>
                <text transform="translate(109.5 335.5)">1,400,000</text>
                <text transform="translate(109.5 295.5)">1,600,000</text>
                <text transform="translate(109.5 255.5)">1,800,000</text>
                <text transform="translate(109.5 215.5)">2,000,000</text>
                <text transform="translate(109.5 175.5)">2,200,000</text>
                <text transform="translate(109.5 135.5)">2,400,000</text>
                <text transform="translate(109.5 95.5)">2,600,000</text>
                <text transform="translate(109.5 55.5)">2,800,000</text>
                <text transform="translate(109.5 15.5)">3,000,000</text>
            </g>
            <path stroke="#888" d="M116.5 611.5v-600" class="mark-rule role-axis-domain"/>
            <text text-anchor="middle" transform="rotate(-90 164 147.5)" font-family="sans-serif" font-size="14" fill="#000" class="mark-text role-axis-title">operations / sec</text>
        </g>
        <g class="mark-rect role-mark marks" aria-roledescription="rect mark container" fill="#4c78a8">
            <path d="M187.077 583.432H248V611h-60.923ZM254.77 447.436h60.922V611H254.77ZM322.462 563.901h60.923V611h-60.923ZM390.154 458.724h60.923V611h-60.923ZM119.385 335.137h60.923V611h-60.923ZM457.846 359.464h60.923V611h-60.923ZM525.538 454.287h60.924V611h-60.924ZM593.23 440.097h60.924V611H593.23ZM660.923 309.519h60.923V611h-60.923ZM728.615 570.974h60.923V611h-60.923ZM796.308 29.536h60.923V611h-60.923ZM864 604.706h60.923V611H864ZM931.692 508.003h60.923V611h-60.923Z"/>
        </g>
    </g>
</svg>
