<svg xmlns="http://www.w3.org/2000/svg" class="marks" width="1001" height="820">
    <path fill="#fff" d="M0 0h1001v820H0z"/>
    <g class="mark-group role-frame root" aria-roledescription="group mark container" fill="none" stroke-miterlimit="10">
        <path class="background" aria-hidden="true" d="M116.5 11.5h880v600h-880Z" stroke="#ddd"/>
        <g class="mark-group role-axis" aria-roledescription="axis" aria-label="Y-axis for a linear scale with values from 0 to 3,000,000">
            <path class="background" aria-hidden="true" d="M116.5 11.5Z" pointer-events="none"/>
            <g class="mark-rule role-axis-grid" pointer-events="none" stroke="#ddd">
                <path d="M116.5 611.5h880M116.5 571.5h880M116.5 531.5h880M116.5 491.5h880M116.5 451.5h880M116.5 411.5h880M116.5 371.5h880M116.5 331.5h880M116.5 291.5h880M116.5 251.5h880M116.5 211.5h880M116.5 171.5h880M116.5 131.5h880M116.5 91.5h880M116.5 51.5h880M116.5 11.5h880"/>
            </g>
        </g>
        <g pointer-events="none" class="mark-group role-axis" aria-roledescription="axis" aria-label="X-axis titled 'module' for a discrete scale with 11 values: @typeofweb/schema, bueno, computed-types, decoders, jointz, ending with zod">
            <path class="background" aria-hidden="true" d="M116.5 611.5Z"/>
            <g class="mark-rule role-axis-tick" stroke="#888">
                <path d="M156.5 611.5v5M236.5 611.5v5M316.5 611.5v5M396.5 611.5v5M476.5 611.5v5M556.5 611.5v5M636.5 611.5v5M716.5 611.5v5M796.5 611.5v5M876.5 611.5v5M956.5 611.5v5"/>
            </g>
            <g class="mark-text role-axis-label" font-family="sans-serif" font-size="14" fill="#000">
                <text transform="rotate(90 -233.25 385.25)">@typeofweb/sche…</text>
                <text transform="rotate(90 -193.25 425.25)">bueno</text>
                <text transform="rotate(90 -153.25 465.25)">computed-types</text>
                <text transform="rotate(90 -113.25 505.25)">decoders</text>
                <text transform="rotate(90 -73.25 545.25)">jointz</text>
                <text transform="rotate(90 -33.25 585.25)">myzod</text>
                <text transform="rotate(90 6.75 625.25)">simple-runtypes</text>
                <text transform="rotate(90 46.75 665.25)">superstruct</text>
                <text transform="rotate(90 86.75 705.25)">toi</text>
                <text transform="rotate(90 126.75 745.25)">valita</text>
                <text transform="rotate(90 166.75 785.25)">zod</text>
            </g>
            <path stroke="#888" d="M116.5 611.5h880" class="mark-rule role-axis-domain"/>
            <text text-anchor="middle" transform="translate(556.5 812.5)" font-family="sans-serif" font-size="14" fill="#000" class="mark-text role-axis-title">module</text>
        </g>
        <g pointer-events="none" class="mark-group role-axis" aria-roledescription="axis" aria-label="Y-axis titled 'operations / sec' for a linear scale with values from 0 to 3,000,000">
            <path class="background" aria-hidden="true" d="M116.5 11.5Z"/>
            <g class="mark-rule role-axis-tick" stroke="#888">
                <path d="M116.5 611.5h-5M116.5 571.5h-5M116.5 531.5h-5M116.5 491.5h-5M116.5 451.5h-5M116.5 411.5h-5M116.5 371.5h-5M116.5 331.5h-5M116.5 291.5h-5M116.5 251.5h-5M116.5 211.5h-5M116.5 171.5h-5M116.5 131.5h-5M116.5 91.5h-5M116.5 51.5h-5M116.5 11.5h-5"/>
            </g>
            <g class="mark-text role-axis-label" text-anchor="end" font-family="sans-serif" font-size="12" fill="#000">
                <text transform="translate(109.5 615.5)">0</text>
                <text transform="translate(109.5 575.5)">200,000</text>
                <text transform="translate(109.5 535.5)">400,000</text>
                <text transform="translate(109.5 495.5)">600,000</text>
                <text transform="translate(109.5 455.5)">800,000</text>
                <text transform="translate(109.5 415.5)">1,000,000</text>
                <text transform="translate(109.5 375.5)">1,200,000</text>
                <text transform="translate(109.5 335.5)">1,400,000</text>
                <text transform="translate(109.5 295.5)">1,600,000</text>
                <text transform="translate(109.5 255.5)">1,800,000</text>
                <text transform="translate(109.5 215.5)">2,000,000</text>
                <text transform="translate(109.5 175.5)">2,200,000</text>
                <text transform="translate(109.5 135.5)">2,400,000</text>
                <text transform="translate(109.5 95.5)">2,600,000</text>
                <text transform="translate(109.5 55.5)">2,800,000</text>
                <text transform="translate(109.5 15.5)">3,000,000</text>
            </g>
            <path stroke="#888" d="M116.5 611.5v-600" class="mark-rule role-axis-domain"/>
            <text text-anchor="middle" transform="rotate(-90 164 147.5)" font-family="sans-serif" font-size="14" fill="#000" class="mark-text role-axis-title">operations / sec</text>
        </g>
        <g class="mark-rect role-mark marks" aria-roledescription="rect mark container" fill="#4c78a8">
            <path d="M200 584.438h72V611h-72ZM280 475.093h72V611h-72ZM360 582.132h72V611h-72ZM440 296.81h72V611h-72ZM520 297.364h72V611h-72ZM600 226.987h72V611h-72ZM680 588.988h72V611h-72ZM760 491.762h72V611h-72ZM120 413.658h72V611h-72ZM840 36.826h72V611h-72ZM920 518.787h72V611h-72Z"/>
        </g>
    </g>
</svg>
